G04 Layer_Physical_Order=4*
G04 Layer_Color=6736896*
%FSLAX25Y25*%
%MOIN*%
G70*
G01*
G75*
%ADD64R,0.05905X0.05905*%
%ADD65C,0.05905*%
%ADD66R,0.05905X0.05905*%
%ADD67R,0.05315X0.05315*%
%ADD68C,0.01772*%
G36*
X206063Y268991D02*
X206821Y268891D01*
X207527Y268599D01*
X208133Y268133D01*
X208598Y267527D01*
X208891Y266821D01*
X208991Y266063D01*
X208997D01*
Y16400D01*
X203600Y11004D01*
X159016D01*
X158632Y10927D01*
X158306Y10710D01*
X148600Y1003D01*
X20416D01*
X10710Y10710D01*
X10384Y10927D01*
X10000Y11004D01*
X3937D01*
Y11009D01*
X3179Y11109D01*
X2473Y11401D01*
X1867Y11867D01*
X1401Y12473D01*
X1109Y13179D01*
X1009Y13937D01*
X1003D01*
Y266063D01*
X1009D01*
X1109Y266821D01*
X1401Y267527D01*
X1867Y268133D01*
X2473Y268599D01*
X3179Y268891D01*
X3937Y268991D01*
Y268997D01*
X206063D01*
Y268991D01*
D02*
G37*
%LPC*%
G36*
X126142Y111856D02*
X125643Y111757D01*
X125219Y111474D01*
X124936Y111050D01*
X124837Y110551D01*
X124936Y110052D01*
X125219Y109629D01*
X125643Y109346D01*
X126142Y109247D01*
X126641Y109346D01*
X127064Y109629D01*
X127347Y110052D01*
X127446Y110551D01*
X127347Y111050D01*
X127064Y111474D01*
X126641Y111757D01*
X126142Y111856D01*
D02*
G37*
G36*
X122992D02*
X122493Y111757D01*
X122070Y111474D01*
X121787Y111050D01*
X121687Y110551D01*
X121787Y110052D01*
X122070Y109629D01*
X122493Y109346D01*
X122992Y109247D01*
X123491Y109346D01*
X123915Y109629D01*
X124197Y110052D01*
X124297Y110551D01*
X124197Y111050D01*
X123915Y111474D01*
X123491Y111757D01*
X122992Y111856D01*
D02*
G37*
G36*
X107638D02*
X107139Y111757D01*
X106715Y111474D01*
X106432Y111050D01*
X106333Y110551D01*
X106432Y110052D01*
X106715Y109629D01*
X107139Y109346D01*
X107638Y109247D01*
X108137Y109346D01*
X108560Y109629D01*
X108843Y110052D01*
X108942Y110551D01*
X108843Y111050D01*
X108560Y111474D01*
X108137Y111757D01*
X107638Y111856D01*
D02*
G37*
G36*
X142244Y113234D02*
X141745Y113134D01*
X141322Y112852D01*
X141039Y112428D01*
X140939Y111929D01*
X141039Y111430D01*
X141322Y111007D01*
X141745Y110724D01*
X142244Y110625D01*
X142743Y110724D01*
X143167Y111007D01*
X143449Y111430D01*
X143549Y111929D01*
X143449Y112428D01*
X143167Y112852D01*
X142743Y113134D01*
X142244Y113234D01*
D02*
G37*
G36*
X178366Y112309D02*
X177867Y112209D01*
X177444Y111926D01*
X177161Y111503D01*
X177061Y111004D01*
X177161Y110505D01*
X177444Y110082D01*
X177867Y109799D01*
X178366Y109699D01*
X178865Y109799D01*
X179289Y110082D01*
X179571Y110505D01*
X179671Y111004D01*
X179571Y111503D01*
X179289Y111926D01*
X178865Y112209D01*
X178366Y112309D01*
D02*
G37*
G36*
X119760Y112230D02*
X119261Y112131D01*
X118837Y111848D01*
X118554Y111425D01*
X118455Y110925D01*
X118554Y110426D01*
X118837Y110003D01*
X119261Y109720D01*
X119760Y109621D01*
X120259Y109720D01*
X120682Y110003D01*
X120965Y110426D01*
X121064Y110925D01*
X120965Y111425D01*
X120682Y111848D01*
X120259Y112131D01*
X119760Y112230D01*
D02*
G37*
G36*
X88740Y115005D02*
X88241Y114906D01*
X87818Y114623D01*
X87535Y114200D01*
X87436Y113701D01*
X87535Y113201D01*
X87818Y112778D01*
X88241Y112496D01*
X88740Y112396D01*
X89239Y112496D01*
X89663Y112778D01*
X89946Y113201D01*
X90004Y113494D01*
X90388Y113425D01*
X90422Y113258D01*
X90488Y112926D01*
X90770Y112503D01*
X91194Y112220D01*
X91448Y112169D01*
Y111768D01*
X91391Y111757D01*
X90967Y111474D01*
X90684Y111050D01*
X90585Y110551D01*
X90684Y110052D01*
X90967Y109629D01*
X91391Y109346D01*
X91890Y109247D01*
X92389Y109346D01*
X92812Y109629D01*
X93095Y110052D01*
X93194Y110551D01*
X93095Y111050D01*
X92812Y111474D01*
X92389Y111757D01*
X92135Y111807D01*
Y112208D01*
X92192Y112220D01*
X92615Y112503D01*
X92898Y112926D01*
X92997Y113425D01*
X92898Y113924D01*
X92615Y114348D01*
X92192Y114630D01*
X91693Y114730D01*
X91194Y114630D01*
X90770Y114348D01*
X90488Y113924D01*
X90429Y113632D01*
X90045Y113701D01*
X90011Y113868D01*
X89946Y114200D01*
X89663Y114623D01*
X89239Y114906D01*
X88740Y115005D01*
D02*
G37*
G36*
X68779Y113765D02*
X68280Y113666D01*
X67857Y113383D01*
X67574Y112960D01*
X67475Y112461D01*
X67574Y111961D01*
X67823Y111590D01*
X67861Y111423D01*
Y111254D01*
X67823Y111088D01*
X67574Y110716D01*
X67475Y110216D01*
X67574Y109717D01*
X67857Y109294D01*
X68280Y109011D01*
X68779Y108912D01*
X69279Y109011D01*
X69702Y109294D01*
X69985Y109717D01*
X70084Y110216D01*
X69985Y110716D01*
X69736Y111088D01*
X69698Y111254D01*
Y111423D01*
X69736Y111590D01*
X69985Y111961D01*
X70084Y112461D01*
X69985Y112960D01*
X69702Y113383D01*
X69279Y113666D01*
X68779Y113765D01*
D02*
G37*
G36*
X95039Y111856D02*
X94540Y111757D01*
X94117Y111474D01*
X93834Y111050D01*
X93735Y110551D01*
X93834Y110052D01*
X94117Y109629D01*
X94540Y109346D01*
X95039Y109247D01*
X95539Y109346D01*
X95962Y109629D01*
X96245Y110052D01*
X96254Y110099D01*
X96655D01*
X96736Y109697D01*
X97018Y109274D01*
X97442Y108991D01*
X97941Y108892D01*
X98440Y108991D01*
X98863Y109274D01*
X99146Y109697D01*
X99245Y110197D01*
X99146Y110696D01*
X98863Y111119D01*
X98440Y111402D01*
X97941Y111501D01*
X97442Y111402D01*
X97018Y111119D01*
X96736Y110696D01*
X96726Y110648D01*
X96325D01*
X96245Y111050D01*
X95962Y111474D01*
X95539Y111757D01*
X95039Y111856D01*
D02*
G37*
G36*
X73858Y111383D02*
X73359Y111284D01*
X72936Y111001D01*
X72653Y110578D01*
X72553Y110079D01*
X72653Y109579D01*
X72936Y109156D01*
X73359Y108873D01*
X73858Y108774D01*
X74357Y108873D01*
X74781Y109156D01*
X75063Y109579D01*
X75163Y110079D01*
X75063Y110578D01*
X74781Y111001D01*
X74357Y111284D01*
X73858Y111383D01*
D02*
G37*
G36*
X77008Y111659D02*
X76508Y111559D01*
X76085Y111277D01*
X75802Y110853D01*
X75703Y110354D01*
X75802Y109855D01*
X76085Y109432D01*
X76508Y109149D01*
X77008Y109050D01*
X77507Y109149D01*
X77930Y109432D01*
X78213Y109855D01*
X78312Y110354D01*
X78213Y110853D01*
X77930Y111277D01*
X77507Y111559D01*
X77008Y111659D01*
D02*
G37*
G36*
X101350Y111647D02*
X100851Y111548D01*
X100428Y111265D01*
X100145Y110842D01*
X100046Y110342D01*
X100145Y109843D01*
X100428Y109420D01*
X100851Y109137D01*
X101350Y109038D01*
X101850Y109137D01*
X102273Y109420D01*
X102556Y109843D01*
X102655Y110342D01*
X102556Y110842D01*
X102273Y111265D01*
X101850Y111548D01*
X101350Y111647D01*
D02*
G37*
G36*
X104350Y111604D02*
X103851Y111504D01*
X103428Y111222D01*
X103145Y110798D01*
X103046Y110299D01*
X103145Y109800D01*
X103428Y109377D01*
X103851Y109094D01*
X104350Y108994D01*
X104850Y109094D01*
X105273Y109377D01*
X105556Y109800D01*
X105655Y110299D01*
X105556Y110798D01*
X105273Y111222D01*
X104850Y111504D01*
X104350Y111604D01*
D02*
G37*
G36*
X116693Y115005D02*
X116194Y114906D01*
X115770Y114623D01*
X115488Y114200D01*
X115388Y113701D01*
X115488Y113201D01*
X115770Y112778D01*
X116194Y112496D01*
X116383Y112458D01*
Y112056D01*
X116005Y111981D01*
X115581Y111698D01*
X115298Y111275D01*
X115241Y110986D01*
X115199Y110776D01*
X114816Y110713D01*
X114749Y111050D01*
X114466Y111474D01*
X114043Y111757D01*
X113543Y111856D01*
X113044Y111757D01*
X112621Y111474D01*
X112338Y111050D01*
X112239Y110551D01*
X112338Y110052D01*
X112621Y109629D01*
X113044Y109346D01*
X113543Y109247D01*
X114043Y109346D01*
X114466Y109629D01*
X114749Y110052D01*
X114806Y110341D01*
X114848Y110551D01*
X115231Y110614D01*
X115298Y110276D01*
X115581Y109853D01*
X116005Y109571D01*
X116504Y109471D01*
X117003Y109571D01*
X117426Y109853D01*
X117709Y110276D01*
X117808Y110776D01*
X117709Y111275D01*
X117426Y111698D01*
X117003Y111981D01*
X116814Y112019D01*
Y112420D01*
X117192Y112496D01*
X117615Y112778D01*
X117898Y113201D01*
X117998Y113701D01*
X117898Y114200D01*
X117615Y114623D01*
X117192Y114906D01*
X116693Y115005D01*
D02*
G37*
G36*
X84921Y118029D02*
X84422Y117930D01*
X83999Y117647D01*
X83716Y117224D01*
X83617Y116724D01*
X83716Y116225D01*
X83999Y115802D01*
X84422Y115519D01*
X84921Y115420D01*
X85421Y115519D01*
X85844Y115802D01*
X86127Y116225D01*
X86226Y116724D01*
X86127Y117224D01*
X85844Y117647D01*
X85421Y117930D01*
X84921Y118029D01*
D02*
G37*
G36*
X144803Y115793D02*
X144304Y115693D01*
X143881Y115411D01*
X143598Y114987D01*
X143499Y114488D01*
X143598Y113989D01*
X143881Y113566D01*
X144304Y113283D01*
X144803Y113184D01*
X145302Y113283D01*
X145726Y113566D01*
X146008Y113989D01*
X146108Y114488D01*
X146008Y114987D01*
X145726Y115411D01*
X145302Y115693D01*
X144803Y115793D01*
D02*
G37*
G36*
X101421Y115419D02*
X100922Y115320D01*
X100499Y115037D01*
X100216Y114614D01*
X100117Y114114D01*
X100216Y113615D01*
X100499Y113192D01*
X100922Y112909D01*
X101421Y112810D01*
X101921Y112909D01*
X102344Y113192D01*
X102627Y113615D01*
X102726Y114114D01*
X102627Y114614D01*
X102344Y115037D01*
X101921Y115320D01*
X101421Y115419D01*
D02*
G37*
G36*
X122992Y118155D02*
X122493Y118056D01*
X122070Y117773D01*
X121787Y117350D01*
X121687Y116850D01*
X121787Y116351D01*
X122070Y115928D01*
X122493Y115645D01*
X122992Y115546D01*
X123491Y115645D01*
X123915Y115928D01*
X124197Y116351D01*
X124297Y116850D01*
X124197Y117350D01*
X123915Y117773D01*
X123491Y118056D01*
X122992Y118155D01*
D02*
G37*
G36*
X119843D02*
X119343Y118056D01*
X118920Y117773D01*
X118637Y117350D01*
X118538Y116850D01*
X118637Y116351D01*
X118920Y115928D01*
X119343Y115645D01*
X119843Y115546D01*
X120342Y115645D01*
X120765Y115928D01*
X121048Y116351D01*
X121147Y116850D01*
X121048Y117350D01*
X120765Y117773D01*
X120342Y118056D01*
X119843Y118155D01*
D02*
G37*
G36*
X116693D02*
X116194Y118056D01*
X115770Y117773D01*
X115488Y117350D01*
X115388Y116850D01*
X115488Y116351D01*
X115770Y115928D01*
X116194Y115645D01*
X116693Y115546D01*
X117192Y115645D01*
X117615Y115928D01*
X117898Y116351D01*
X117998Y116850D01*
X117898Y117350D01*
X117615Y117773D01*
X117192Y118056D01*
X116693Y118155D01*
D02*
G37*
G36*
X104095D02*
X103595Y118056D01*
X103172Y117773D01*
X102889Y117350D01*
X102790Y116850D01*
X102889Y116351D01*
X103172Y115928D01*
X103595Y115645D01*
X103893Y115586D01*
X103976Y115168D01*
X103715Y114994D01*
X103433Y114570D01*
X103333Y114071D01*
X103433Y113572D01*
X103715Y113149D01*
X104139Y112866D01*
X104638Y112767D01*
X105137Y112866D01*
X105560Y113149D01*
X105843Y113572D01*
X105942Y114071D01*
X105843Y114570D01*
X105560Y114994D01*
X105137Y115276D01*
X104839Y115336D01*
X104756Y115754D01*
X105017Y115928D01*
X105300Y116351D01*
X105399Y116850D01*
X105300Y117350D01*
X105017Y117773D01*
X104594Y118056D01*
X104095Y118155D01*
D02*
G37*
G36*
X94646Y117761D02*
X94146Y117662D01*
X93723Y117379D01*
X93440Y116956D01*
X93341Y116457D01*
X93440Y115957D01*
X93723Y115534D01*
X94146Y115251D01*
X94302Y115220D01*
X94385Y114803D01*
X94117Y114623D01*
X93834Y114200D01*
X93735Y113701D01*
X93834Y113201D01*
X94117Y112778D01*
X94540Y112496D01*
X95039Y112396D01*
X95539Y112496D01*
X95962Y112778D01*
X96245Y113201D01*
X96344Y113701D01*
X96245Y114200D01*
X95962Y114623D01*
X95539Y114906D01*
X95383Y114937D01*
X95300Y115355D01*
X95568Y115534D01*
X95851Y115957D01*
X95950Y116457D01*
X95851Y116956D01*
X95568Y117379D01*
X95145Y117662D01*
X94646Y117761D01*
D02*
G37*
G36*
X85591Y115005D02*
X85091Y114906D01*
X84668Y114623D01*
X84385Y114200D01*
X84286Y113701D01*
X84385Y113201D01*
X84668Y112778D01*
X85091Y112496D01*
X85591Y112396D01*
X86090Y112496D01*
X86513Y112778D01*
X86796Y113201D01*
X86895Y113701D01*
X86796Y114200D01*
X86513Y114623D01*
X86090Y114906D01*
X85591Y115005D01*
D02*
G37*
G36*
X200197Y119737D02*
X199221Y119608D01*
X198311Y119231D01*
X197529Y118632D01*
X196930Y117851D01*
X196553Y116941D01*
X196424Y115964D01*
X196553Y114988D01*
X196930Y114078D01*
X197529Y113297D01*
X198311Y112698D01*
X199221Y112321D01*
X200197Y112192D01*
X201173Y112321D01*
X202083Y112698D01*
X202864Y113297D01*
X203464Y114078D01*
X203841Y114988D01*
X203969Y115964D01*
X203841Y116941D01*
X203464Y117851D01*
X202864Y118632D01*
X202083Y119231D01*
X201173Y119608D01*
X200197Y119737D01*
D02*
G37*
G36*
X31063Y115242D02*
X30564Y115142D01*
X30141Y114859D01*
X29858Y114436D01*
X29758Y113937D01*
X29858Y113438D01*
X30141Y113014D01*
X30564Y112732D01*
X31063Y112632D01*
X31562Y112732D01*
X31986Y113014D01*
X32268Y113438D01*
X32368Y113937D01*
X32268Y114436D01*
X31986Y114859D01*
X31562Y115142D01*
X31063Y115242D01*
D02*
G37*
G36*
X78110Y115202D02*
X77611Y115103D01*
X77188Y114820D01*
X76905Y114397D01*
X76806Y113898D01*
X76905Y113398D01*
X77188Y112975D01*
X77611Y112692D01*
X78110Y112593D01*
X78610Y112692D01*
X79033Y112975D01*
X79316Y113398D01*
X79415Y113898D01*
X79316Y114397D01*
X79033Y114820D01*
X78610Y115103D01*
X78110Y115202D01*
D02*
G37*
G36*
X107520Y117840D02*
X107020Y117741D01*
X106597Y117458D01*
X106314Y117035D01*
X106215Y116535D01*
X106314Y116036D01*
X106597Y115613D01*
X107020Y115330D01*
X107136Y115307D01*
X107139Y114910D01*
X107138Y114905D01*
X106715Y114623D01*
X106432Y114200D01*
X106333Y113701D01*
X106432Y113201D01*
X106715Y112778D01*
X107139Y112496D01*
X107638Y112396D01*
X108137Y112496D01*
X108560Y112778D01*
X108843Y113201D01*
X108942Y113701D01*
X108843Y114200D01*
X108560Y114623D01*
X108137Y114906D01*
X108021Y114929D01*
X108019Y115326D01*
X108020Y115331D01*
X108442Y115613D01*
X108725Y116036D01*
X108824Y116535D01*
X108725Y117035D01*
X108442Y117458D01*
X108019Y117741D01*
X107520Y117840D01*
D02*
G37*
G36*
X98189Y105557D02*
X97690Y105457D01*
X97267Y105175D01*
X96984Y104751D01*
X96884Y104252D01*
X96984Y103753D01*
X97267Y103330D01*
X97690Y103047D01*
X98189Y102947D01*
X98688Y103047D01*
X99111Y103330D01*
X99394Y103753D01*
X99494Y104252D01*
X99394Y104751D01*
X99111Y105175D01*
X98688Y105457D01*
X98189Y105557D01*
D02*
G37*
G36*
X95039D02*
X94540Y105457D01*
X94117Y105175D01*
X93834Y104751D01*
X93735Y104252D01*
X93834Y103753D01*
X94117Y103330D01*
X94540Y103047D01*
X95039Y102947D01*
X95539Y103047D01*
X95962Y103330D01*
X96245Y103753D01*
X96344Y104252D01*
X96245Y104751D01*
X95962Y105175D01*
X95539Y105457D01*
X95039Y105557D01*
D02*
G37*
G36*
X91890D02*
X91391Y105457D01*
X90967Y105175D01*
X90684Y104751D01*
X90585Y104252D01*
X90684Y103753D01*
X90967Y103330D01*
X91391Y103047D01*
X91890Y102947D01*
X92389Y103047D01*
X92812Y103330D01*
X93095Y103753D01*
X93194Y104252D01*
X93095Y104751D01*
X92812Y105175D01*
X92389Y105457D01*
X91890Y105557D01*
D02*
G37*
G36*
X122992D02*
X122493Y105457D01*
X122070Y105175D01*
X121787Y104751D01*
X121687Y104252D01*
X121787Y103753D01*
X122070Y103330D01*
X122493Y103047D01*
X122992Y102947D01*
X123491Y103047D01*
X123915Y103330D01*
X124197Y103753D01*
X124297Y104252D01*
X124197Y104751D01*
X123915Y105175D01*
X123491Y105457D01*
X122992Y105557D01*
D02*
G37*
G36*
X104264Y108411D02*
X103764Y108312D01*
X103341Y108029D01*
X103059Y107606D01*
X102959Y107106D01*
X103059Y106607D01*
X103341Y106184D01*
X103764Y105901D01*
X103983Y105858D01*
X103989Y105469D01*
X103986Y105456D01*
X103566Y105175D01*
X103283Y104751D01*
X103184Y104252D01*
X103283Y103753D01*
X103566Y103330D01*
X103989Y103047D01*
X104488Y102947D01*
X104987Y103047D01*
X105411Y103330D01*
X105693Y103753D01*
X105793Y104252D01*
X105693Y104751D01*
X105411Y105175D01*
X104987Y105457D01*
X104769Y105501D01*
X104763Y105890D01*
X104766Y105903D01*
X105186Y106184D01*
X105469Y106607D01*
X105568Y107106D01*
X105469Y107606D01*
X105186Y108029D01*
X104763Y108312D01*
X104264Y108411D01*
D02*
G37*
G36*
X101154Y108494D02*
X100654Y108394D01*
X100231Y108111D01*
X99948Y107688D01*
X99849Y107189D01*
X99948Y106690D01*
X100231Y106266D01*
X100654Y105984D01*
X101037Y105907D01*
X101061Y105903D01*
Y105501D01*
X101053Y105500D01*
X100839Y105457D01*
X100416Y105175D01*
X100133Y104751D01*
X100034Y104252D01*
X100133Y103753D01*
X100416Y103330D01*
X100839Y103047D01*
X101339Y102947D01*
X101838Y103047D01*
X102261Y103330D01*
X102544Y103753D01*
X102643Y104252D01*
X102544Y104751D01*
X102261Y105175D01*
X101838Y105457D01*
X101455Y105533D01*
X101431Y105538D01*
Y105940D01*
X101439Y105941D01*
X101653Y105984D01*
X102076Y106266D01*
X102359Y106690D01*
X102458Y107189D01*
X102359Y107688D01*
X102076Y108111D01*
X101653Y108394D01*
X101154Y108494D01*
D02*
G37*
G36*
X88740Y105557D02*
X88241Y105457D01*
X87818Y105175D01*
X87535Y104751D01*
X87436Y104252D01*
X87535Y103753D01*
X87818Y103330D01*
X88241Y103047D01*
X88740Y102947D01*
X89239Y103047D01*
X89663Y103330D01*
X89946Y103753D01*
X90045Y104252D01*
X89946Y104751D01*
X89663Y105175D01*
X89239Y105457D01*
X88740Y105557D01*
D02*
G37*
G36*
X123386Y102407D02*
X122887Y102308D01*
X122463Y102025D01*
X122181Y101602D01*
X122081Y101102D01*
X122181Y100603D01*
X122463Y100180D01*
X122887Y99897D01*
X123386Y99798D01*
X123885Y99897D01*
X124308Y100180D01*
X124591Y100603D01*
X124690Y101102D01*
X124591Y101602D01*
X124308Y102025D01*
X123885Y102308D01*
X123386Y102407D01*
D02*
G37*
G36*
X113543D02*
X113044Y102308D01*
X112621Y102025D01*
X112338Y101602D01*
X112239Y101102D01*
X112338Y100603D01*
X112621Y100180D01*
X113044Y99897D01*
X113543Y99798D01*
X114043Y99897D01*
X114466Y100180D01*
X114749Y100603D01*
X114848Y101102D01*
X114749Y101602D01*
X114466Y102025D01*
X114043Y102308D01*
X113543Y102407D01*
D02*
G37*
G36*
X95039D02*
X94540Y102308D01*
X94117Y102025D01*
X93834Y101602D01*
X93735Y101102D01*
X93834Y100603D01*
X94117Y100180D01*
X94540Y99897D01*
X95039Y99798D01*
X95539Y99897D01*
X95962Y100180D01*
X96245Y100603D01*
X96344Y101102D01*
X96245Y101602D01*
X95962Y102025D01*
X95539Y102308D01*
X95039Y102407D01*
D02*
G37*
G36*
X167264Y105261D02*
X166764Y105162D01*
X166341Y104879D01*
X166059Y104456D01*
X165959Y103957D01*
X166059Y103457D01*
X166341Y103034D01*
X166764Y102751D01*
X167264Y102652D01*
X167763Y102751D01*
X168186Y103034D01*
X168469Y103457D01*
X168568Y103957D01*
X168469Y104456D01*
X168186Y104879D01*
X167763Y105162D01*
X167264Y105261D01*
D02*
G37*
G36*
X203937Y109705D02*
X196457D01*
Y102224D01*
X203937D01*
Y109705D01*
D02*
G37*
G36*
X126535Y102407D02*
X126036Y102308D01*
X125613Y102025D01*
X125330Y101602D01*
X125231Y101102D01*
X125330Y100603D01*
X125613Y100180D01*
X126036Y99897D01*
X126535Y99798D01*
X127035Y99897D01*
X127458Y100180D01*
X127741Y100603D01*
X127840Y101102D01*
X127741Y101602D01*
X127458Y102025D01*
X127035Y102308D01*
X126535Y102407D01*
D02*
G37*
G36*
X126142Y105557D02*
X125643Y105457D01*
X125219Y105175D01*
X124936Y104751D01*
X124837Y104252D01*
X124936Y103753D01*
X125219Y103330D01*
X125643Y103047D01*
X126142Y102947D01*
X126641Y103047D01*
X127064Y103330D01*
X127347Y103753D01*
X127446Y104252D01*
X127347Y104751D01*
X127064Y105175D01*
X126641Y105457D01*
X126142Y105557D01*
D02*
G37*
G36*
X145846Y107584D02*
X145347Y107485D01*
X144924Y107202D01*
X144882Y107139D01*
X144488D01*
X144446Y107202D01*
X144023Y107485D01*
X143524Y107584D01*
X143024Y107485D01*
X142601Y107202D01*
X142318Y106779D01*
X142219Y106280D01*
X142318Y105780D01*
X142601Y105357D01*
X142674Y105308D01*
Y104915D01*
X142562Y104840D01*
X142279Y104417D01*
X142180Y103917D01*
X142279Y103418D01*
X142562Y102995D01*
X142985Y102712D01*
X143484Y102613D01*
X143983Y102712D01*
X144405Y102994D01*
X144496Y103053D01*
X144839D01*
X144904Y102955D01*
X145327Y102673D01*
X145827Y102573D01*
X146326Y102673D01*
X146749Y102955D01*
X147032Y103379D01*
X147131Y103878D01*
X147032Y104377D01*
X146749Y104800D01*
X146697Y104835D01*
Y105309D01*
X146769Y105357D01*
X147052Y105780D01*
X147151Y106280D01*
X147052Y106779D01*
X146769Y107202D01*
X146346Y107485D01*
X145846Y107584D01*
D02*
G37*
G36*
X37126Y109415D02*
X36627Y109316D01*
X36204Y109033D01*
X35921Y108609D01*
X35821Y108110D01*
X35921Y107611D01*
X36204Y107188D01*
X36627Y106905D01*
X37126Y106806D01*
X37625Y106905D01*
X38048Y107188D01*
X38331Y107611D01*
X38431Y108110D01*
X38331Y108609D01*
X38048Y109033D01*
X37625Y109316D01*
X37126Y109415D01*
D02*
G37*
G36*
X31063D02*
X30564Y109316D01*
X30141Y109033D01*
X29858Y108609D01*
X29758Y108110D01*
X29858Y107611D01*
X30141Y107188D01*
X30564Y106905D01*
X31063Y106806D01*
X31562Y106905D01*
X31986Y107188D01*
X32268Y107611D01*
X32368Y108110D01*
X32268Y108609D01*
X31986Y109033D01*
X31562Y109316D01*
X31063Y109415D01*
D02*
G37*
G36*
X176221Y108312D02*
X175721Y108213D01*
X175298Y107930D01*
X175237Y107839D01*
X174763D01*
X174702Y107930D01*
X174279Y108213D01*
X173779Y108312D01*
X173280Y108213D01*
X172857Y107930D01*
X172574Y107507D01*
X172475Y107008D01*
X172574Y106509D01*
X172857Y106085D01*
X173280Y105803D01*
X173779Y105703D01*
X174279Y105803D01*
X174702Y106085D01*
X174763Y106177D01*
X175237D01*
X175298Y106085D01*
X175420Y106004D01*
Y105610D01*
X175298Y105529D01*
X175015Y105105D01*
X174916Y104606D01*
X175015Y104107D01*
X175298Y103684D01*
X175419Y103603D01*
Y103129D01*
X175298Y103049D01*
X175015Y102625D01*
X174916Y102126D01*
X175015Y101627D01*
X175298Y101204D01*
X175721Y100921D01*
X176221Y100821D01*
X176720Y100921D01*
X177143Y101204D01*
X177426Y101627D01*
X177525Y102126D01*
X177426Y102625D01*
X177143Y103049D01*
X177022Y103129D01*
Y103603D01*
X177143Y103684D01*
X177426Y104107D01*
X177525Y104606D01*
X177426Y105105D01*
X177143Y105529D01*
X177021Y105610D01*
Y106004D01*
X177143Y106085D01*
X177426Y106509D01*
X177525Y107008D01*
X177426Y107507D01*
X177143Y107930D01*
X176720Y108213D01*
X176221Y108312D01*
D02*
G37*
G36*
X158602Y109592D02*
X158103Y109493D01*
X157680Y109210D01*
X157397Y108787D01*
X157298Y108287D01*
X157368Y107933D01*
X157020Y107697D01*
X156720Y107898D01*
X156220Y107998D01*
X155721Y107898D01*
X155582Y107805D01*
X155228Y108042D01*
X155242Y108110D01*
X155142Y108609D01*
X154859Y109033D01*
X154436Y109316D01*
X153937Y109415D01*
X153438Y109316D01*
X153015Y109033D01*
X152732Y108609D01*
X152632Y108110D01*
X152645Y108050D01*
X152290Y107813D01*
X152133Y107918D01*
X151634Y108017D01*
X151135Y107918D01*
X150711Y107635D01*
X150429Y107212D01*
X150329Y106713D01*
X150429Y106213D01*
X150711Y105790D01*
X151135Y105507D01*
X151634Y105408D01*
X152133Y105507D01*
X152556Y105790D01*
X152839Y106213D01*
X152938Y106713D01*
X152926Y106773D01*
X153281Y107010D01*
X153438Y106905D01*
X153937Y106806D01*
X154436Y106905D01*
X154575Y106998D01*
X154929Y106761D01*
X154916Y106693D01*
X155015Y106194D01*
X155298Y105770D01*
X155721Y105488D01*
X156220Y105388D01*
X156720Y105488D01*
X157143Y105770D01*
X157426Y106194D01*
X157525Y106693D01*
X157455Y107047D01*
X157802Y107283D01*
X158103Y107082D01*
X158602Y106983D01*
X159102Y107082D01*
X159525Y107365D01*
X159808Y107788D01*
X159907Y108287D01*
X159808Y108787D01*
X159525Y109210D01*
X159102Y109493D01*
X158602Y109592D01*
D02*
G37*
G36*
X132835Y110084D02*
X132335Y109985D01*
X131912Y109702D01*
X131629Y109279D01*
X131530Y108780D01*
X131629Y108280D01*
X131912Y107857D01*
X132335Y107574D01*
X132835Y107475D01*
X133334Y107574D01*
X133757Y107857D01*
X134040Y108280D01*
X134139Y108780D01*
X134040Y109279D01*
X133757Y109702D01*
X133334Y109985D01*
X132835Y110084D01*
D02*
G37*
G36*
X10000Y113772D02*
X9024Y113644D01*
X8114Y113267D01*
X7333Y112668D01*
X6733Y111886D01*
X6356Y110976D01*
X6228Y110000D01*
X6356Y109024D01*
X6733Y108114D01*
X7333Y107333D01*
X8114Y106733D01*
X9024Y106356D01*
X10000Y106228D01*
X10976Y106356D01*
X11886Y106733D01*
X12667Y107333D01*
X13267Y108114D01*
X13644Y109024D01*
X13772Y110000D01*
X13644Y110976D01*
X13267Y111886D01*
X12667Y112668D01*
X11886Y113267D01*
X10976Y113644D01*
X10000Y113772D01*
D02*
G37*
G36*
X116823Y108324D02*
X116324Y108225D01*
X115901Y107942D01*
X115618Y107519D01*
X115518Y107019D01*
X115618Y106520D01*
X115901Y106097D01*
X116324Y105814D01*
X116823Y105715D01*
X117322Y105814D01*
X117745Y106097D01*
X118028Y106520D01*
X118128Y107019D01*
X118028Y107519D01*
X117745Y107942D01*
X117322Y108225D01*
X116823Y108324D01*
D02*
G37*
G36*
X120012Y108218D02*
X119513Y108119D01*
X119089Y107836D01*
X118807Y107413D01*
X118707Y106913D01*
X118807Y106414D01*
X119089Y105991D01*
X119513Y105708D01*
X120012Y105609D01*
X120511Y105708D01*
X120934Y105991D01*
X121217Y106414D01*
X121316Y106913D01*
X121217Y107413D01*
X120934Y107836D01*
X120511Y108119D01*
X120012Y108218D01*
D02*
G37*
G36*
X169862Y107938D02*
X169363Y107839D01*
X168940Y107556D01*
X168657Y107133D01*
X168558Y106634D01*
X168657Y106135D01*
X168940Y105711D01*
X169363Y105429D01*
X169862Y105329D01*
X170361Y105429D01*
X170785Y105711D01*
X171068Y106135D01*
X171167Y106634D01*
X171068Y107133D01*
X170785Y107556D01*
X170361Y107839D01*
X169862Y107938D01*
D02*
G37*
G36*
X113543Y108706D02*
X113044Y108607D01*
X112621Y108324D01*
X112338Y107901D01*
X112239Y107402D01*
X112338Y106902D01*
X112621Y106479D01*
X113044Y106196D01*
X113543Y106097D01*
X114043Y106196D01*
X114466Y106479D01*
X114749Y106902D01*
X114848Y107402D01*
X114749Y107901D01*
X114466Y108324D01*
X114043Y108607D01*
X113543Y108706D01*
D02*
G37*
G36*
X95039D02*
X94540Y108607D01*
X94117Y108324D01*
X93834Y107901D01*
X93735Y107402D01*
X93834Y106902D01*
X94117Y106479D01*
X94540Y106196D01*
X95039Y106097D01*
X95539Y106196D01*
X95962Y106479D01*
X96245Y106902D01*
X96344Y107402D01*
X96245Y107901D01*
X95962Y108324D01*
X95539Y108607D01*
X95039Y108706D01*
D02*
G37*
G36*
X91890D02*
X91391Y108607D01*
X90967Y108324D01*
X90684Y107901D01*
X90585Y107402D01*
X90684Y106902D01*
X90967Y106479D01*
X91391Y106196D01*
X91890Y106097D01*
X92389Y106196D01*
X92812Y106479D01*
X93095Y106902D01*
X93194Y107402D01*
X93095Y107901D01*
X92812Y108324D01*
X92389Y108607D01*
X91890Y108706D01*
D02*
G37*
G36*
X126142Y130360D02*
X125643Y130260D01*
X125219Y129978D01*
X124936Y129554D01*
X124837Y129055D01*
X124936Y128556D01*
X125219Y128133D01*
X125643Y127850D01*
X126142Y127751D01*
X126641Y127850D01*
X127064Y128133D01*
X127347Y128556D01*
X127446Y129055D01*
X127347Y129554D01*
X127064Y129978D01*
X126641Y130260D01*
X126142Y130360D01*
D02*
G37*
G36*
X119843D02*
X119343Y130260D01*
X118920Y129978D01*
X118637Y129554D01*
X118538Y129055D01*
X118637Y128556D01*
X118920Y128133D01*
X119343Y127850D01*
X119843Y127751D01*
X120342Y127850D01*
X120765Y128133D01*
X121048Y128556D01*
X121147Y129055D01*
X121048Y129554D01*
X120765Y129978D01*
X120342Y130260D01*
X119843Y130360D01*
D02*
G37*
G36*
X116693D02*
X116194Y130260D01*
X115770Y129978D01*
X115488Y129554D01*
X115388Y129055D01*
X115488Y128556D01*
X115770Y128133D01*
X116194Y127850D01*
X116693Y127751D01*
X117192Y127850D01*
X117615Y128133D01*
X117898Y128556D01*
X117998Y129055D01*
X117898Y129554D01*
X117615Y129978D01*
X117192Y130260D01*
X116693Y130360D01*
D02*
G37*
G36*
X91890Y133509D02*
X91391Y133410D01*
X90967Y133127D01*
X90684Y132704D01*
X90585Y132205D01*
X90684Y131705D01*
X90967Y131282D01*
X91391Y130999D01*
X91890Y130900D01*
X92389Y130999D01*
X92812Y131282D01*
X93095Y131705D01*
X93194Y132205D01*
X93095Y132704D01*
X92812Y133127D01*
X92389Y133410D01*
X91890Y133509D01*
D02*
G37*
G36*
X88740D02*
X88241Y133410D01*
X87818Y133127D01*
X87535Y132704D01*
X87436Y132205D01*
X87535Y131705D01*
X87818Y131282D01*
X88241Y130999D01*
X88740Y130900D01*
X89239Y130999D01*
X89663Y131282D01*
X89946Y131705D01*
X90045Y132205D01*
X89946Y132704D01*
X89663Y133127D01*
X89239Y133410D01*
X88740Y133509D01*
D02*
G37*
G36*
X85197Y132131D02*
X84698Y132032D01*
X84274Y131749D01*
X83992Y131326D01*
X83892Y130827D01*
X83992Y130327D01*
X84274Y129904D01*
X84698Y129622D01*
X85197Y129522D01*
X85696Y129622D01*
X86119Y129904D01*
X86402Y130327D01*
X86501Y130827D01*
X86402Y131326D01*
X86119Y131749D01*
X85696Y132032D01*
X85197Y132131D01*
D02*
G37*
G36*
X113543Y130360D02*
X113044Y130260D01*
X112621Y129978D01*
X112338Y129554D01*
X112239Y129055D01*
X112338Y128556D01*
X112621Y128133D01*
X113044Y127850D01*
X113543Y127751D01*
X114042Y127850D01*
X114466Y128133D01*
X114749Y128556D01*
X114848Y129055D01*
X114749Y129554D01*
X114466Y129978D01*
X114042Y130260D01*
X113543Y130360D01*
D02*
G37*
G36*
X101339Y130360D02*
X100839Y130260D01*
X100416Y129978D01*
X100133Y129554D01*
X100034Y129055D01*
X100133Y128556D01*
X100416Y128133D01*
X100839Y127850D01*
X101339Y127751D01*
X101838Y127850D01*
X102261Y128133D01*
X102544Y128556D01*
X102643Y129055D01*
X102544Y129554D01*
X102261Y129978D01*
X101838Y130260D01*
X101339Y130360D01*
D02*
G37*
G36*
X98189D02*
X97690Y130260D01*
X97267Y129978D01*
X96984Y129554D01*
X96884Y129055D01*
X96984Y128556D01*
X97267Y128133D01*
X97690Y127850D01*
X98189Y127751D01*
X98688Y127850D01*
X99111Y128133D01*
X99394Y128556D01*
X99494Y129055D01*
X99394Y129554D01*
X99111Y129978D01*
X98688Y130260D01*
X98189Y130360D01*
D02*
G37*
G36*
X95039D02*
X94540Y130260D01*
X94117Y129978D01*
X93834Y129554D01*
X93735Y129055D01*
X93834Y128556D01*
X94117Y128133D01*
X94540Y127850D01*
X95039Y127751D01*
X95539Y127850D01*
X95962Y128133D01*
X96245Y128556D01*
X96344Y129055D01*
X96245Y129554D01*
X95962Y129978D01*
X95539Y130260D01*
X95039Y130360D01*
D02*
G37*
G36*
X107638Y130360D02*
X107139Y130260D01*
X106715Y129978D01*
X106432Y129554D01*
X106333Y129055D01*
X106432Y128556D01*
X106715Y128133D01*
X107139Y127850D01*
X107638Y127751D01*
X108137Y127850D01*
X108560Y128133D01*
X108843Y128556D01*
X108942Y129055D01*
X108843Y129554D01*
X108560Y129978D01*
X108137Y130260D01*
X107638Y130360D01*
D02*
G37*
G36*
X88740D02*
X88241Y130260D01*
X87818Y129978D01*
X87535Y129554D01*
X87436Y129055D01*
X87535Y128556D01*
X87818Y128133D01*
X88241Y127850D01*
X88740Y127751D01*
X89239Y127850D01*
X89663Y128133D01*
X89946Y128556D01*
X90045Y129055D01*
X89946Y129554D01*
X89663Y129978D01*
X89239Y130260D01*
X88740Y130360D01*
D02*
G37*
G36*
X104488Y130360D02*
X103989Y130260D01*
X103566Y129978D01*
X103283Y129554D01*
X103184Y129055D01*
X103283Y128556D01*
X103566Y128133D01*
X103989Y127850D01*
X104488Y127751D01*
X104987Y127850D01*
X105411Y128133D01*
X105693Y128556D01*
X105793Y129055D01*
X105693Y129554D01*
X105411Y129978D01*
X104987Y130260D01*
X104488Y130360D01*
D02*
G37*
G36*
X95039Y133509D02*
X94540Y133410D01*
X94117Y133127D01*
X93834Y132704D01*
X93735Y132205D01*
X93834Y131705D01*
X94117Y131282D01*
X94540Y130999D01*
X95039Y130900D01*
X95539Y130999D01*
X95962Y131282D01*
X96245Y131705D01*
X96344Y132205D01*
X96245Y132704D01*
X95962Y133127D01*
X95539Y133410D01*
X95039Y133509D01*
D02*
G37*
G36*
Y136659D02*
X94540Y136560D01*
X94117Y136277D01*
X93834Y135854D01*
X93735Y135354D01*
X93834Y134855D01*
X94117Y134432D01*
X94540Y134149D01*
X95039Y134050D01*
X95539Y134149D01*
X95962Y134432D01*
X96245Y134855D01*
X96344Y135354D01*
X96245Y135854D01*
X95962Y136277D01*
X95539Y136560D01*
X95039Y136659D01*
D02*
G37*
G36*
X91890D02*
X91391Y136560D01*
X90967Y136277D01*
X90684Y135854D01*
X90585Y135354D01*
X90684Y134855D01*
X90967Y134432D01*
X91391Y134149D01*
X91890Y134050D01*
X92389Y134149D01*
X92812Y134432D01*
X93095Y134855D01*
X93194Y135354D01*
X93095Y135854D01*
X92812Y136277D01*
X92389Y136560D01*
X91890Y136659D01*
D02*
G37*
G36*
X200197Y139737D02*
X199221Y139608D01*
X198311Y139232D01*
X197529Y138632D01*
X196930Y137851D01*
X196553Y136941D01*
X196424Y135965D01*
X196553Y134988D01*
X196930Y134078D01*
X197529Y133297D01*
X198311Y132697D01*
X199221Y132321D01*
X200197Y132192D01*
X201173Y132321D01*
X202083Y132697D01*
X202864Y133297D01*
X203464Y134078D01*
X203841Y134988D01*
X203969Y135965D01*
X203841Y136941D01*
X203464Y137851D01*
X202864Y138632D01*
X202083Y139232D01*
X201173Y139608D01*
X200197Y139737D01*
D02*
G37*
G36*
X104488Y136659D02*
X103989Y136560D01*
X103566Y136277D01*
X103283Y135854D01*
X103184Y135354D01*
X103283Y134855D01*
X103566Y134432D01*
X103989Y134149D01*
X104488Y134050D01*
X104987Y134149D01*
X105411Y134432D01*
X105693Y134855D01*
X105793Y135354D01*
X105693Y135854D01*
X105411Y136277D01*
X104987Y136560D01*
X104488Y136659D01*
D02*
G37*
G36*
X101339D02*
X100839Y136560D01*
X100416Y136277D01*
X100133Y135854D01*
X100034Y135354D01*
X100133Y134855D01*
X100416Y134432D01*
X100839Y134149D01*
X101339Y134050D01*
X101838Y134149D01*
X102261Y134432D01*
X102544Y134855D01*
X102643Y135354D01*
X102544Y135854D01*
X102261Y136277D01*
X101838Y136560D01*
X101339Y136659D01*
D02*
G37*
G36*
X98189D02*
X97690Y136560D01*
X97267Y136277D01*
X96984Y135854D01*
X96884Y135354D01*
X96984Y134855D01*
X97267Y134432D01*
X97690Y134149D01*
X98189Y134050D01*
X98688Y134149D01*
X99111Y134432D01*
X99394Y134855D01*
X99494Y135354D01*
X99394Y135854D01*
X99111Y136277D01*
X98688Y136560D01*
X98189Y136659D01*
D02*
G37*
G36*
X126142Y133509D02*
X125643Y133410D01*
X125219Y133127D01*
X124936Y132704D01*
X124837Y132205D01*
X124936Y131705D01*
X125219Y131282D01*
X125643Y130999D01*
X126142Y130900D01*
X126641Y130999D01*
X127064Y131282D01*
X127347Y131705D01*
X127446Y132205D01*
X127347Y132704D01*
X127064Y133127D01*
X126641Y133410D01*
X126142Y133509D01*
D02*
G37*
G36*
X104488Y133509D02*
X103989Y133410D01*
X103566Y133127D01*
X103283Y132704D01*
X103184Y132205D01*
X103283Y131705D01*
X103566Y131282D01*
X103989Y130999D01*
X104488Y130900D01*
X104987Y130999D01*
X105411Y131282D01*
X105693Y131705D01*
X105793Y132205D01*
X105693Y132704D01*
X105411Y133127D01*
X104987Y133410D01*
X104488Y133509D01*
D02*
G37*
G36*
X101339D02*
X100839Y133410D01*
X100416Y133127D01*
X100133Y132704D01*
X100034Y132205D01*
X100133Y131705D01*
X100416Y131282D01*
X100839Y130999D01*
X101339Y130900D01*
X101838Y130999D01*
X102261Y131282D01*
X102544Y131705D01*
X102643Y132205D01*
X102544Y132704D01*
X102261Y133127D01*
X101838Y133410D01*
X101339Y133509D01*
D02*
G37*
G36*
X98189D02*
X97690Y133410D01*
X97267Y133127D01*
X96984Y132704D01*
X96884Y132205D01*
X96984Y131705D01*
X97267Y131282D01*
X97690Y130999D01*
X98189Y130900D01*
X98688Y130999D01*
X99111Y131282D01*
X99394Y131705D01*
X99494Y132205D01*
X99394Y132704D01*
X99111Y133127D01*
X98688Y133410D01*
X98189Y133509D01*
D02*
G37*
G36*
X122992Y133509D02*
X122493Y133410D01*
X122070Y133127D01*
X121787Y132704D01*
X121687Y132205D01*
X121787Y131705D01*
X122070Y131282D01*
X122493Y130999D01*
X122992Y130900D01*
X123491Y130999D01*
X123915Y131282D01*
X124197Y131705D01*
X124297Y132205D01*
X124197Y132704D01*
X123915Y133127D01*
X123491Y133410D01*
X122992Y133509D01*
D02*
G37*
G36*
X119843D02*
X119343Y133410D01*
X118920Y133127D01*
X118637Y132704D01*
X118538Y132205D01*
X118637Y131705D01*
X118920Y131282D01*
X119343Y130999D01*
X119843Y130900D01*
X120342Y130999D01*
X120765Y131282D01*
X121048Y131705D01*
X121147Y132205D01*
X121048Y132704D01*
X120765Y133127D01*
X120342Y133410D01*
X119843Y133509D01*
D02*
G37*
G36*
X107638D02*
X107139Y133410D01*
X106715Y133127D01*
X106432Y132704D01*
X106333Y132205D01*
X106432Y131705D01*
X106715Y131282D01*
X107139Y130999D01*
X107638Y130900D01*
X108137Y130999D01*
X108560Y131282D01*
X108843Y131705D01*
X108942Y132205D01*
X108843Y132704D01*
X108560Y133127D01*
X108137Y133410D01*
X107638Y133509D01*
D02*
G37*
G36*
X95039Y124060D02*
X94540Y123961D01*
X94117Y123678D01*
X93834Y123255D01*
X93735Y122756D01*
X93834Y122257D01*
X94117Y121833D01*
X94540Y121551D01*
X95039Y121451D01*
X95539Y121551D01*
X95962Y121833D01*
X96245Y122257D01*
X96344Y122756D01*
X96245Y123255D01*
X95962Y123678D01*
X95539Y123961D01*
X95039Y124060D01*
D02*
G37*
G36*
X91496D02*
X90997Y123961D01*
X90574Y123678D01*
X90291Y123255D01*
X90192Y122756D01*
X90291Y122257D01*
X90574Y121833D01*
X90997Y121551D01*
X91496Y121451D01*
X91995Y121551D01*
X92419Y121833D01*
X92701Y122257D01*
X92801Y122756D01*
X92701Y123255D01*
X92419Y123678D01*
X91995Y123961D01*
X91496Y124060D01*
D02*
G37*
G36*
X122992Y121305D02*
X122493Y121205D01*
X122070Y120923D01*
X121787Y120499D01*
X121687Y120000D01*
X121787Y119501D01*
X122070Y119078D01*
X122493Y118795D01*
X122992Y118695D01*
X123491Y118795D01*
X123915Y119078D01*
X124197Y119501D01*
X124297Y120000D01*
X124197Y120499D01*
X123915Y120923D01*
X123491Y121205D01*
X122992Y121305D01*
D02*
G37*
G36*
X104331Y124100D02*
X103832Y124001D01*
X103408Y123718D01*
X103125Y123294D01*
X103026Y122795D01*
X103125Y122296D01*
X103408Y121873D01*
X103832Y121590D01*
X104331Y121491D01*
X104830Y121590D01*
X105253Y121873D01*
X105536Y122296D01*
X105635Y122795D01*
X105536Y123294D01*
X105253Y123718D01*
X104830Y124001D01*
X104331Y124100D01*
D02*
G37*
G36*
X107598Y124060D02*
X107099Y123961D01*
X106676Y123678D01*
X106393Y123255D01*
X106294Y122756D01*
X106393Y122257D01*
X106676Y121833D01*
X107099Y121551D01*
X107598Y121451D01*
X108098Y121551D01*
X108521Y121833D01*
X108804Y122257D01*
X108903Y122756D01*
X108804Y123255D01*
X108521Y123678D01*
X108098Y123961D01*
X107598Y124060D01*
D02*
G37*
G36*
X101024D02*
X100524Y123961D01*
X100101Y123678D01*
X99818Y123255D01*
X99719Y122756D01*
X99818Y122257D01*
X100101Y121833D01*
X100524Y121551D01*
X101024Y121451D01*
X101523Y121551D01*
X101946Y121833D01*
X102229Y122257D01*
X102328Y122756D01*
X102229Y123255D01*
X101946Y123678D01*
X101523Y123961D01*
X101024Y124060D01*
D02*
G37*
G36*
X119843Y121305D02*
X119343Y121205D01*
X118920Y120923D01*
X118637Y120499D01*
X118538Y120000D01*
X118637Y119501D01*
X118920Y119078D01*
X119343Y118795D01*
X119843Y118695D01*
X120342Y118795D01*
X120765Y119078D01*
X121048Y119501D01*
X121147Y120000D01*
X121048Y120499D01*
X120765Y120923D01*
X120342Y121205D01*
X119843Y121305D01*
D02*
G37*
G36*
X10000Y123772D02*
X9024Y123644D01*
X8114Y123267D01*
X7333Y122668D01*
X6733Y121886D01*
X6356Y120976D01*
X6228Y120000D01*
X6356Y119024D01*
X6733Y118114D01*
X7333Y117332D01*
X8114Y116733D01*
X9024Y116356D01*
X10000Y116228D01*
X10976Y116356D01*
X11886Y116733D01*
X12667Y117332D01*
X13267Y118114D01*
X13644Y119024D01*
X13772Y120000D01*
X13644Y120976D01*
X13267Y121886D01*
X12667Y122668D01*
X11886Y123267D01*
X10976Y123644D01*
X10000Y123772D01*
D02*
G37*
G36*
X97598Y118549D02*
X97099Y118449D01*
X96676Y118167D01*
X96393Y117743D01*
X96294Y117244D01*
X96393Y116745D01*
X96676Y116322D01*
X97099Y116039D01*
X97598Y115939D01*
X98098Y116039D01*
X98521Y116322D01*
X98804Y116745D01*
X98903Y117244D01*
X98804Y117743D01*
X98521Y118167D01*
X98098Y118449D01*
X97598Y118549D01*
D02*
G37*
G36*
X138465Y116068D02*
X137965Y115969D01*
X137542Y115686D01*
X137500Y115623D01*
X137106D01*
X137064Y115686D01*
X136641Y115969D01*
X136142Y116068D01*
X135643Y115969D01*
X135219Y115686D01*
X134936Y115263D01*
X134837Y114764D01*
X134936Y114265D01*
X135219Y113841D01*
X135643Y113558D01*
X136142Y113459D01*
X136641Y113558D01*
X137064Y113841D01*
X137106Y113904D01*
X137500D01*
X137542Y113841D01*
X137965Y113558D01*
X138465Y113459D01*
X138964Y113558D01*
X139387Y113841D01*
X139670Y114265D01*
X139769Y114764D01*
X139670Y115263D01*
X139387Y115686D01*
X138964Y115969D01*
X138465Y116068D01*
D02*
G37*
G36*
X116693Y121305D02*
X116194Y121205D01*
X115770Y120923D01*
X115488Y120499D01*
X115388Y120000D01*
X115488Y119501D01*
X115770Y119078D01*
X116194Y118795D01*
X116693Y118695D01*
X117192Y118795D01*
X117615Y119078D01*
X117898Y119501D01*
X117998Y120000D01*
X117898Y120499D01*
X117615Y120923D01*
X117192Y121205D01*
X116693Y121305D01*
D02*
G37*
G36*
X37087Y120950D02*
X36587Y120851D01*
X36164Y120568D01*
X35881Y120145D01*
X35782Y119646D01*
X35881Y119146D01*
X36164Y118723D01*
X36587Y118440D01*
X37087Y118341D01*
X37586Y118440D01*
X38009Y118723D01*
X38292Y119146D01*
X38391Y119646D01*
X38292Y120145D01*
X38009Y120568D01*
X37586Y120851D01*
X37087Y120950D01*
D02*
G37*
G36*
X126535Y120911D02*
X126036Y120812D01*
X125613Y120529D01*
X125330Y120106D01*
X125231Y119606D01*
X125330Y119107D01*
X125613Y118684D01*
X126036Y118401D01*
X126535Y118302D01*
X127035Y118401D01*
X127458Y118684D01*
X127741Y119107D01*
X127840Y119606D01*
X127741Y120106D01*
X127458Y120529D01*
X127035Y120812D01*
X126535Y120911D01*
D02*
G37*
G36*
X200197Y129737D02*
X199221Y129608D01*
X198311Y129232D01*
X197529Y128632D01*
X196930Y127851D01*
X196553Y126941D01*
X196424Y125964D01*
X196553Y124988D01*
X196930Y124078D01*
X197529Y123297D01*
X198311Y122697D01*
X199221Y122321D01*
X200197Y122192D01*
X201173Y122321D01*
X202083Y122697D01*
X202864Y123297D01*
X203464Y124078D01*
X203841Y124988D01*
X203969Y125964D01*
X203841Y126941D01*
X203464Y127851D01*
X202864Y128632D01*
X202083Y129232D01*
X201173Y129608D01*
X200197Y129737D01*
D02*
G37*
G36*
X119843Y127210D02*
X119343Y127111D01*
X118920Y126828D01*
X118637Y126405D01*
X118538Y125906D01*
X118637Y125406D01*
X118920Y124983D01*
X119343Y124700D01*
X119843Y124601D01*
X120342Y124700D01*
X120765Y124983D01*
X121048Y125406D01*
X121147Y125906D01*
X121048Y126405D01*
X120765Y126828D01*
X120342Y127111D01*
X119843Y127210D01*
D02*
G37*
G36*
X113543D02*
X113044Y127111D01*
X112621Y126828D01*
X112338Y126405D01*
X112239Y125906D01*
X112338Y125406D01*
X112621Y124983D01*
X113044Y124700D01*
X113543Y124601D01*
X114042Y124700D01*
X114466Y124983D01*
X114749Y125406D01*
X114848Y125906D01*
X114749Y126405D01*
X114466Y126828D01*
X114042Y127111D01*
X113543Y127210D01*
D02*
G37*
G36*
X91890D02*
X91391Y127111D01*
X90967Y126828D01*
X90684Y126405D01*
X90585Y125906D01*
X90684Y125406D01*
X90967Y124983D01*
X91391Y124700D01*
X91890Y124601D01*
X92389Y124700D01*
X92812Y124983D01*
X93095Y125406D01*
X93194Y125906D01*
X93095Y126405D01*
X92812Y126828D01*
X92389Y127111D01*
X91890Y127210D01*
D02*
G37*
G36*
Y130360D02*
X91391Y130260D01*
X90967Y129978D01*
X90684Y129554D01*
X90585Y129055D01*
X90684Y128556D01*
X90967Y128133D01*
X91391Y127850D01*
X91890Y127751D01*
X92389Y127850D01*
X92812Y128133D01*
X93095Y128556D01*
X93194Y129055D01*
X93095Y129554D01*
X92812Y129978D01*
X92389Y130260D01*
X91890Y130360D01*
D02*
G37*
G36*
X10000Y133772D02*
X9024Y133644D01*
X8114Y133267D01*
X7333Y132668D01*
X6733Y131886D01*
X6356Y130976D01*
X6228Y130000D01*
X6356Y129024D01*
X6733Y128114D01*
X7333Y127332D01*
X8114Y126733D01*
X9024Y126356D01*
X10000Y126228D01*
X10976Y126356D01*
X11886Y126733D01*
X12667Y127332D01*
X13267Y128114D01*
X13644Y129024D01*
X13772Y130000D01*
X13644Y130976D01*
X13267Y131886D01*
X12667Y132668D01*
X11886Y133267D01*
X10976Y133644D01*
X10000Y133772D01*
D02*
G37*
G36*
X145591Y125832D02*
X145091Y125733D01*
X144668Y125450D01*
X144385Y125027D01*
X144374Y124970D01*
X143973D01*
X143961Y125027D01*
X143678Y125450D01*
X143255Y125733D01*
X142756Y125832D01*
X142257Y125733D01*
X141833Y125450D01*
X141733Y125300D01*
X141259D01*
X141159Y125450D01*
X140735Y125733D01*
X140236Y125832D01*
X139737Y125733D01*
X139314Y125450D01*
X139116Y125155D01*
X139095Y125147D01*
X138700D01*
X138679Y125155D01*
X138481Y125450D01*
X138058Y125733D01*
X137559Y125832D01*
X137060Y125733D01*
X136637Y125450D01*
X136354Y125027D01*
X136255Y124528D01*
X136354Y124028D01*
X136637Y123605D01*
X137060Y123322D01*
X137559Y123223D01*
X138058Y123322D01*
X138481Y123605D01*
X138679Y123900D01*
X138700Y123908D01*
X139095D01*
X139116Y123900D01*
X139314Y123605D01*
X139737Y123322D01*
X140236Y123223D01*
X140735Y123322D01*
X141159Y123605D01*
X141259Y123756D01*
X141733D01*
X141833Y123605D01*
X142257Y123322D01*
X142756Y123223D01*
X143255Y123322D01*
X143678Y123605D01*
X143961Y124028D01*
X143973Y124085D01*
X144374D01*
X144385Y124028D01*
X144668Y123605D01*
X145091Y123322D01*
X145591Y123223D01*
X146090Y123322D01*
X146513Y123605D01*
X146796Y124028D01*
X146895Y124528D01*
X146796Y125027D01*
X146513Y125450D01*
X146090Y125733D01*
X145591Y125832D01*
D02*
G37*
G36*
X88740Y127210D02*
X88241Y127111D01*
X87818Y126828D01*
X87535Y126405D01*
X87436Y125906D01*
X87535Y125406D01*
X87818Y124983D01*
X88241Y124700D01*
X88740Y124601D01*
X89239Y124700D01*
X89663Y124983D01*
X89946Y125406D01*
X90045Y125906D01*
X89946Y126405D01*
X89663Y126828D01*
X89239Y127111D01*
X88740Y127210D01*
D02*
G37*
G36*
X95039Y127210D02*
X94540Y127111D01*
X94117Y126828D01*
X93834Y126405D01*
X93735Y125906D01*
X93834Y125406D01*
X94117Y124983D01*
X94540Y124700D01*
X95039Y124601D01*
X95539Y124700D01*
X95962Y124983D01*
X96245Y125406D01*
X96344Y125906D01*
X96245Y126405D01*
X95962Y126828D01*
X95539Y127111D01*
X95039Y127210D01*
D02*
G37*
G36*
X51417Y127171D02*
X50918Y127071D01*
X50495Y126789D01*
X50212Y126365D01*
X50113Y125866D01*
X50212Y125367D01*
X50495Y124944D01*
X50918Y124661D01*
X51417Y124562D01*
X51917Y124661D01*
X52340Y124944D01*
X52623Y125367D01*
X52722Y125866D01*
X52623Y126365D01*
X52340Y126789D01*
X51917Y127071D01*
X51417Y127171D01*
D02*
G37*
G36*
X132835Y125832D02*
X132335Y125733D01*
X131912Y125450D01*
X131629Y125027D01*
X131530Y124528D01*
X131629Y124028D01*
X131912Y123605D01*
X132335Y123322D01*
X132835Y123223D01*
X133334Y123322D01*
X133757Y123605D01*
X134040Y124028D01*
X134139Y124528D01*
X134040Y125027D01*
X133757Y125450D01*
X133334Y125733D01*
X132835Y125832D01*
D02*
G37*
G36*
X104488Y127210D02*
X103989Y127111D01*
X103566Y126828D01*
X103283Y126405D01*
X103184Y125906D01*
X103283Y125406D01*
X103566Y124983D01*
X103989Y124700D01*
X104488Y124601D01*
X104987Y124700D01*
X105411Y124983D01*
X105693Y125406D01*
X105793Y125906D01*
X105693Y126405D01*
X105411Y126828D01*
X104987Y127111D01*
X104488Y127210D01*
D02*
G37*
G36*
X101339D02*
X100839Y127111D01*
X100416Y126828D01*
X100133Y126405D01*
X100034Y125906D01*
X100133Y125406D01*
X100416Y124983D01*
X100839Y124700D01*
X101339Y124601D01*
X101838Y124700D01*
X102261Y124983D01*
X102544Y125406D01*
X102643Y125906D01*
X102544Y126405D01*
X102261Y126828D01*
X101838Y127111D01*
X101339Y127210D01*
D02*
G37*
G36*
X98189D02*
X97690Y127111D01*
X97267Y126828D01*
X96984Y126405D01*
X96884Y125906D01*
X96984Y125406D01*
X97267Y124983D01*
X97690Y124700D01*
X98189Y124601D01*
X98688Y124700D01*
X99111Y124983D01*
X99394Y125406D01*
X99494Y125906D01*
X99394Y126405D01*
X99111Y126828D01*
X98688Y127111D01*
X98189Y127210D01*
D02*
G37*
G36*
X91890Y102407D02*
X91391Y102308D01*
X90967Y102025D01*
X90684Y101602D01*
X90585Y101102D01*
X90684Y100603D01*
X90967Y100180D01*
X91391Y99897D01*
X91890Y99798D01*
X92389Y99897D01*
X92812Y100180D01*
X93095Y100603D01*
X93194Y101102D01*
X93095Y101602D01*
X92812Y102025D01*
X92389Y102308D01*
X91890Y102407D01*
D02*
G37*
G36*
X49488Y63234D02*
X48989Y63134D01*
X48566Y62852D01*
X48283Y62428D01*
X48184Y61929D01*
X48283Y61430D01*
X48566Y61007D01*
X48989Y60724D01*
X49488Y60624D01*
X49987Y60724D01*
X50411Y61007D01*
X50694Y61430D01*
X50793Y61929D01*
X50694Y62428D01*
X50411Y62852D01*
X49987Y63134D01*
X49488Y63234D01*
D02*
G37*
G36*
X19449D02*
X18950Y63134D01*
X18526Y62852D01*
X18244Y62428D01*
X18144Y61929D01*
X18244Y61430D01*
X18526Y61007D01*
X18950Y60724D01*
X19449Y60624D01*
X19948Y60724D01*
X20371Y61007D01*
X20654Y61430D01*
X20753Y61929D01*
X20654Y62428D01*
X20371Y62852D01*
X19948Y63134D01*
X19449Y63234D01*
D02*
G37*
G36*
X184961Y61423D02*
X184461Y61323D01*
X184038Y61041D01*
X183755Y60617D01*
X183656Y60118D01*
X183755Y59619D01*
X184038Y59196D01*
X184461Y58913D01*
X184961Y58814D01*
X185460Y58913D01*
X185883Y59196D01*
X186166Y59619D01*
X186265Y60118D01*
X186166Y60617D01*
X185883Y61041D01*
X185460Y61323D01*
X184961Y61423D01*
D02*
G37*
G36*
X78256Y66954D02*
X77757Y66855D01*
X77333Y66572D01*
X77051Y66149D01*
X76951Y65650D01*
X77051Y65150D01*
X77333Y64727D01*
X77757Y64444D01*
X78035Y64389D01*
X78273Y64245D01*
X78320Y63961D01*
X78266Y63689D01*
X78366Y63190D01*
X78648Y62766D01*
X79072Y62484D01*
X79571Y62384D01*
X80070Y62484D01*
X80493Y62766D01*
X80776Y63190D01*
X80875Y63689D01*
X80776Y64188D01*
X80493Y64611D01*
X80070Y64894D01*
X79792Y64950D01*
X79554Y65094D01*
X79506Y65377D01*
X79561Y65650D01*
X79461Y66149D01*
X79178Y66572D01*
X78755Y66855D01*
X78256Y66954D01*
D02*
G37*
G36*
X39331Y64021D02*
X38831Y63922D01*
X38408Y63639D01*
X38125Y63216D01*
X38026Y62717D01*
X38125Y62217D01*
X38408Y61794D01*
X38831Y61511D01*
X39331Y61412D01*
X39830Y61511D01*
X40253Y61794D01*
X40536Y62217D01*
X40635Y62717D01*
X40536Y63216D01*
X40253Y63639D01*
X39830Y63922D01*
X39331Y64021D01*
D02*
G37*
G36*
X110476Y64742D02*
X109977Y64642D01*
X109554Y64359D01*
X109271Y63936D01*
X109172Y63437D01*
X109271Y62938D01*
X109554Y62515D01*
X109766Y62373D01*
X109683Y61955D01*
X109635Y61945D01*
X109211Y61663D01*
X108929Y61239D01*
X108829Y60740D01*
X108929Y60241D01*
X109211Y59818D01*
X109635Y59535D01*
X110134Y59436D01*
X110633Y59535D01*
X111056Y59818D01*
X111339Y60241D01*
X111405Y60573D01*
X111670Y60783D01*
X111823Y60811D01*
X112228Y60731D01*
X112728Y60830D01*
X113151Y61113D01*
X113434Y61536D01*
X113533Y62035D01*
X113434Y62535D01*
X113151Y62958D01*
X112728Y63241D01*
X112228Y63340D01*
X112129Y63320D01*
X111740Y63644D01*
X111682Y63936D01*
X111399Y64359D01*
X110976Y64642D01*
X110476Y64742D01*
D02*
G37*
G36*
X86980Y59576D02*
X86481Y59477D01*
X86058Y59194D01*
X85775Y58771D01*
X85720Y58496D01*
X85499Y58253D01*
X85297Y58232D01*
X84953Y58301D01*
X84453Y58201D01*
X84030Y57919D01*
X83963Y57817D01*
X83489D01*
X83426Y57911D01*
X83003Y58193D01*
X82504Y58293D01*
X82005Y58193D01*
X81581Y57911D01*
X81299Y57487D01*
X81199Y56988D01*
X81299Y56489D01*
X81581Y56066D01*
X82005Y55783D01*
X82504Y55684D01*
X83003Y55783D01*
X83426Y56066D01*
X83494Y56167D01*
X83968D01*
X84030Y56074D01*
X84453Y55791D01*
X84953Y55691D01*
X85452Y55791D01*
X85875Y56074D01*
X86158Y56497D01*
X86213Y56772D01*
X86434Y57014D01*
X86636Y57035D01*
X86980Y56967D01*
X87480Y57066D01*
X87903Y57349D01*
X88186Y57772D01*
X88285Y58272D01*
X88186Y58771D01*
X87903Y59194D01*
X87480Y59477D01*
X86980Y59576D01*
D02*
G37*
G36*
X143012Y59001D02*
X142513Y58902D01*
X142089Y58619D01*
X141806Y58196D01*
X141707Y57697D01*
X141806Y57198D01*
X142089Y56774D01*
X142513Y56492D01*
X143012Y56392D01*
X143511Y56492D01*
X143934Y56774D01*
X144217Y57198D01*
X144316Y57697D01*
X144217Y58196D01*
X143934Y58619D01*
X143511Y58902D01*
X143012Y59001D01*
D02*
G37*
G36*
X151929Y58982D02*
X151430Y58882D01*
X151007Y58600D01*
X150724Y58176D01*
X150625Y57677D01*
X150724Y57178D01*
X151007Y56755D01*
X151430Y56472D01*
X151929Y56373D01*
X152428Y56472D01*
X152852Y56755D01*
X153134Y57178D01*
X153234Y57677D01*
X153134Y58176D01*
X152852Y58600D01*
X152428Y58882D01*
X151929Y58982D01*
D02*
G37*
G36*
X200000Y63772D02*
X199024Y63644D01*
X198114Y63267D01*
X197333Y62668D01*
X196733Y61886D01*
X196356Y60976D01*
X196228Y60000D01*
X196356Y59024D01*
X196733Y58114D01*
X197333Y57332D01*
X198114Y56733D01*
X199024Y56356D01*
X200000Y56228D01*
X200976Y56356D01*
X201886Y56733D01*
X202667Y57332D01*
X203267Y58114D01*
X203644Y59024D01*
X203772Y60000D01*
X203644Y60976D01*
X203267Y61886D01*
X202667Y62668D01*
X201886Y63267D01*
X200976Y63644D01*
X200000Y63772D01*
D02*
G37*
G36*
X102728Y59576D02*
X102229Y59477D01*
X101806Y59194D01*
X101523Y58771D01*
X101468Y58493D01*
X101323Y58255D01*
X101040Y58207D01*
X100768Y58261D01*
X100268Y58162D01*
X99845Y57879D01*
X99562Y57456D01*
X99463Y56957D01*
X99562Y56457D01*
X99845Y56034D01*
X100268Y55751D01*
X100768Y55652D01*
X101267Y55751D01*
X101690Y56034D01*
X101973Y56457D01*
X102028Y56735D01*
X102173Y56974D01*
X102456Y57021D01*
X102728Y56967D01*
X103228Y57066D01*
X103651Y57349D01*
X103934Y57772D01*
X103991Y58061D01*
X104376Y57988D01*
X104409Y57825D01*
X104476Y57489D01*
X104759Y57066D01*
X105182Y56783D01*
X105681Y56684D01*
X106180Y56783D01*
X106604Y57066D01*
X106886Y57489D01*
X106986Y57988D01*
X106886Y58487D01*
X106604Y58911D01*
X106180Y59193D01*
X105681Y59293D01*
X105182Y59193D01*
X104759Y58911D01*
X104476Y58487D01*
X104418Y58198D01*
X104033Y58272D01*
X104000Y58435D01*
X103934Y58771D01*
X103651Y59194D01*
X103228Y59477D01*
X102728Y59576D01*
D02*
G37*
G36*
X74016Y59415D02*
X73516Y59316D01*
X73093Y59033D01*
X72811Y58609D01*
X72711Y58110D01*
X72811Y57611D01*
X73093Y57188D01*
X73516Y56905D01*
X74016Y56806D01*
X74515Y56905D01*
X74938Y57188D01*
X75221Y57611D01*
X75320Y58110D01*
X75221Y58609D01*
X74938Y59033D01*
X74515Y59316D01*
X74016Y59415D01*
D02*
G37*
G36*
X66378Y59415D02*
X65879Y59316D01*
X65456Y59033D01*
X65173Y58609D01*
X65073Y58110D01*
X65173Y57611D01*
X65456Y57188D01*
X65879Y56905D01*
X66378Y56806D01*
X66877Y56905D01*
X67300Y57188D01*
X67583Y57611D01*
X67682Y58110D01*
X67583Y58609D01*
X67300Y59033D01*
X66877Y59316D01*
X66378Y59415D01*
D02*
G37*
G36*
X102701Y65616D02*
X102201Y65516D01*
X101778Y65233D01*
X101496Y64810D01*
X101396Y64311D01*
X101496Y63812D01*
X101778Y63389D01*
X102201Y63106D01*
X102701Y63006D01*
X103200Y63106D01*
X103623Y63389D01*
X103906Y63812D01*
X104005Y64311D01*
X103906Y64810D01*
X103623Y65233D01*
X103200Y65516D01*
X102701Y65616D01*
D02*
G37*
G36*
X79295Y76809D02*
X78796Y76709D01*
X78373Y76426D01*
X78090Y76003D01*
X77991Y75504D01*
X78090Y75005D01*
X77770Y74775D01*
X77639Y74749D01*
X77215Y74466D01*
X76933Y74042D01*
X76833Y73543D01*
X76933Y73044D01*
X77215Y72621D01*
X77639Y72338D01*
X78034Y72259D01*
X78169Y72179D01*
X78328Y71875D01*
X78266Y71563D01*
X78324Y71276D01*
X78276Y71005D01*
X78038Y70848D01*
X77757Y70792D01*
X77333Y70509D01*
X77051Y70086D01*
X76951Y69587D01*
X77051Y69087D01*
X77333Y68664D01*
X77757Y68381D01*
X78256Y68282D01*
X78755Y68381D01*
X79178Y68664D01*
X79461Y69087D01*
X79561Y69587D01*
X79503Y69874D01*
X79551Y70145D01*
X79789Y70302D01*
X80070Y70358D01*
X80493Y70640D01*
X80776Y71064D01*
X80875Y71563D01*
X80776Y72062D01*
X80493Y72486D01*
X80070Y72768D01*
X79675Y72847D01*
X79540Y72927D01*
X79380Y73231D01*
X79442Y73543D01*
X79343Y74042D01*
X79663Y74273D01*
X79795Y74299D01*
X80218Y74581D01*
X80501Y75005D01*
X80600Y75504D01*
X80501Y76003D01*
X80218Y76426D01*
X79795Y76709D01*
X79295Y76809D01*
D02*
G37*
G36*
X84622Y74793D02*
X84123Y74694D01*
X83700Y74411D01*
X83417Y73987D01*
X83317Y73488D01*
X83417Y72989D01*
X83700Y72566D01*
X84123Y72283D01*
X84622Y72184D01*
X85121Y72283D01*
X85161Y72309D01*
X85515Y72073D01*
X85487Y71929D01*
X85586Y71430D01*
X85869Y71007D01*
X86292Y70724D01*
X86791Y70625D01*
X87291Y70724D01*
X87718Y70536D01*
X87763Y70308D01*
X88046Y69885D01*
X88262Y69740D01*
X88464Y69584D01*
X88362Y69236D01*
X88267Y69094D01*
X88168Y68594D01*
X88267Y68095D01*
X88550Y67672D01*
X88973Y67389D01*
X89472Y67290D01*
X89972Y67389D01*
X90395Y67672D01*
X90678Y68095D01*
X90777Y68594D01*
X90678Y69094D01*
X90395Y69517D01*
X90179Y69661D01*
X89977Y69818D01*
X90079Y70166D01*
X90174Y70308D01*
X90273Y70807D01*
X90174Y71306D01*
X89891Y71730D01*
X89468Y72012D01*
X88968Y72112D01*
X88469Y72012D01*
X88042Y72200D01*
X87997Y72428D01*
X87714Y72852D01*
X87291Y73134D01*
X86791Y73234D01*
X86292Y73134D01*
X86252Y73108D01*
X85898Y73345D01*
X85927Y73488D01*
X85827Y73987D01*
X85545Y74411D01*
X85121Y74694D01*
X84622Y74793D01*
D02*
G37*
G36*
X86441Y69887D02*
X85942Y69788D01*
X85518Y69505D01*
X85236Y69082D01*
X85136Y68583D01*
X85236Y68083D01*
X85518Y67660D01*
X85942Y67377D01*
X86441Y67278D01*
X86940Y67377D01*
X87363Y67660D01*
X87646Y68083D01*
X87745Y68583D01*
X87646Y69082D01*
X87363Y69505D01*
X86940Y69788D01*
X86441Y69887D01*
D02*
G37*
G36*
X19449Y73234D02*
X18950Y73134D01*
X18526Y72852D01*
X18244Y72428D01*
X18144Y71929D01*
X18244Y71430D01*
X18526Y71007D01*
X18950Y70724D01*
X19449Y70625D01*
X19948Y70724D01*
X20371Y71007D01*
X20654Y71430D01*
X20753Y71929D01*
X20654Y72428D01*
X20371Y72852D01*
X19948Y73134D01*
X19449Y73234D01*
D02*
G37*
G36*
X110114Y74360D02*
X109615Y74260D01*
X109192Y73978D01*
X108909Y73554D01*
X108810Y73055D01*
X108909Y72556D01*
X109192Y72133D01*
X109615Y71850D01*
X110114Y71750D01*
X110613Y71850D01*
X111037Y72133D01*
X111098Y72224D01*
X111429Y72023D01*
X111329Y71524D01*
X111429Y71024D01*
X111711Y70601D01*
X112135Y70318D01*
X112634Y70219D01*
X113133Y70318D01*
X113556Y70601D01*
X113839Y71024D01*
X113938Y71524D01*
X113839Y72023D01*
X113556Y72446D01*
X113133Y72729D01*
X112634Y72828D01*
X112135Y72729D01*
X111711Y72446D01*
X111650Y72355D01*
X111319Y72556D01*
X111419Y73055D01*
X111319Y73554D01*
X111037Y73978D01*
X110613Y74260D01*
X110114Y74360D01*
D02*
G37*
G36*
X38819Y71305D02*
X38320Y71205D01*
X37896Y70922D01*
X37614Y70499D01*
X37514Y70000D01*
X37614Y69501D01*
X37896Y69077D01*
X38320Y68795D01*
X38819Y68695D01*
X39318Y68795D01*
X39741Y69077D01*
X40024Y69501D01*
X40124Y70000D01*
X40024Y70499D01*
X39741Y70922D01*
X39318Y71205D01*
X38819Y71305D01*
D02*
G37*
G36*
X13740Y73740D02*
X6260D01*
Y66260D01*
X13740D01*
Y73740D01*
D02*
G37*
G36*
X19410Y68234D02*
X18910Y68134D01*
X18487Y67852D01*
X18204Y67428D01*
X18105Y66929D01*
X18204Y66430D01*
X18487Y66007D01*
X18910Y65724D01*
X19410Y65624D01*
X19909Y65724D01*
X20332Y66007D01*
X20615Y66430D01*
X20714Y66929D01*
X20615Y67428D01*
X20332Y67852D01*
X19909Y68134D01*
X19410Y68234D01*
D02*
G37*
G36*
X74016Y66423D02*
X73516Y66323D01*
X73093Y66041D01*
X72811Y65617D01*
X72711Y65118D01*
X72811Y64619D01*
X73093Y64196D01*
X73516Y63913D01*
X74016Y63814D01*
X74515Y63913D01*
X74938Y64196D01*
X75221Y64619D01*
X75320Y65118D01*
X75221Y65617D01*
X74938Y66041D01*
X74515Y66323D01*
X74016Y66423D01*
D02*
G37*
G36*
X66378Y66423D02*
X65879Y66323D01*
X65456Y66041D01*
X65173Y65617D01*
X65073Y65118D01*
X65173Y64619D01*
X65456Y64196D01*
X65879Y63913D01*
X66378Y63814D01*
X66877Y63913D01*
X67300Y64196D01*
X67583Y64619D01*
X67682Y65118D01*
X67583Y65617D01*
X67300Y66041D01*
X66877Y66323D01*
X66378Y66423D01*
D02*
G37*
G36*
X94835Y67033D02*
X94335Y66934D01*
X93912Y66651D01*
X93799Y66481D01*
X93591Y66245D01*
X93294Y66381D01*
X93133Y66489D01*
X92634Y66588D01*
X92135Y66489D01*
X91711Y66206D01*
X91429Y65783D01*
X91329Y65284D01*
X91357Y65144D01*
X91020Y64820D01*
X90760Y64872D01*
X90261Y64772D01*
X89837Y64489D01*
X89555Y64066D01*
X89455Y63567D01*
X89555Y63068D01*
X89837Y62644D01*
X90261Y62362D01*
X90760Y62262D01*
X91259Y62362D01*
X91682Y62644D01*
X91965Y63068D01*
X92064Y63567D01*
X92037Y63706D01*
X92374Y64031D01*
X92634Y63979D01*
X93133Y64078D01*
X93556Y64361D01*
X93670Y64530D01*
X93878Y64767D01*
X94174Y64631D01*
X94335Y64523D01*
X94835Y64424D01*
X95334Y64523D01*
X95757Y64806D01*
X96040Y65229D01*
X96139Y65728D01*
X96040Y66228D01*
X95757Y66651D01*
X95334Y66934D01*
X94835Y67033D01*
D02*
G37*
G36*
X200000Y73772D02*
X199024Y73644D01*
X198114Y73267D01*
X197333Y72667D01*
X196733Y71886D01*
X196356Y70976D01*
X196228Y70000D01*
X196356Y69024D01*
X196733Y68114D01*
X197333Y67333D01*
X198114Y66733D01*
X199024Y66356D01*
X200000Y66228D01*
X200976Y66356D01*
X201886Y66733D01*
X202667Y67333D01*
X203267Y68114D01*
X203644Y69024D01*
X203772Y70000D01*
X203644Y70976D01*
X203267Y71886D01*
X202667Y72667D01*
X201886Y73267D01*
X200976Y73644D01*
X200000Y73772D01*
D02*
G37*
G36*
X172972Y70399D02*
X172473Y70300D01*
X172050Y70017D01*
X171767Y69594D01*
X171668Y69095D01*
X171767Y68595D01*
X172050Y68172D01*
X172473Y67889D01*
X172972Y67790D01*
X173327Y67860D01*
X173563Y67512D01*
X173362Y67212D01*
X173262Y66713D01*
X173362Y66213D01*
X173454Y66075D01*
X173218Y65720D01*
X173150Y65734D01*
X172650Y65634D01*
X172227Y65352D01*
X171944Y64928D01*
X171845Y64429D01*
X171944Y63930D01*
X172227Y63507D01*
X172650Y63224D01*
X173150Y63125D01*
X173210Y63137D01*
X173447Y62782D01*
X173342Y62625D01*
X173243Y62126D01*
X173342Y61627D01*
X173625Y61203D01*
X174048Y60921D01*
X174547Y60821D01*
X175047Y60921D01*
X175470Y61203D01*
X175752Y61627D01*
X175852Y62126D01*
X175752Y62625D01*
X175470Y63048D01*
X175047Y63331D01*
X174547Y63431D01*
X174487Y63419D01*
X174250Y63773D01*
X174355Y63930D01*
X174454Y64429D01*
X174355Y64928D01*
X174262Y65067D01*
X174499Y65422D01*
X174567Y65408D01*
X175066Y65507D01*
X175489Y65790D01*
X175772Y66213D01*
X175872Y66713D01*
X175772Y67212D01*
X175489Y67635D01*
X175066Y67918D01*
X174567Y68017D01*
X174212Y67947D01*
X173977Y68295D01*
X174178Y68595D01*
X174277Y69095D01*
X174178Y69594D01*
X173895Y70017D01*
X173472Y70300D01*
X172972Y70399D01*
D02*
G37*
G36*
X100000Y23576D02*
X99024Y23447D01*
X98114Y23070D01*
X97333Y22471D01*
X96733Y21689D01*
X96356Y20779D01*
X96228Y19803D01*
X96356Y18827D01*
X96733Y17917D01*
X97333Y17136D01*
X98114Y16536D01*
X99024Y16159D01*
X100000Y16031D01*
X100976Y16159D01*
X101886Y16536D01*
X102667Y17136D01*
X103267Y17917D01*
X103644Y18827D01*
X103772Y19803D01*
X103644Y20779D01*
X103267Y21689D01*
X102667Y22471D01*
X101886Y23070D01*
X100976Y23447D01*
X100000Y23576D01*
D02*
G37*
G36*
X90000D02*
X89024Y23447D01*
X88114Y23070D01*
X87332Y22471D01*
X86733Y21689D01*
X86356Y20779D01*
X86228Y19803D01*
X86356Y18827D01*
X86733Y17917D01*
X87332Y17136D01*
X88114Y16536D01*
X89024Y16159D01*
X90000Y16031D01*
X90976Y16159D01*
X91886Y16536D01*
X92668Y17136D01*
X93267Y17917D01*
X93644Y18827D01*
X93772Y19803D01*
X93644Y20779D01*
X93267Y21689D01*
X92668Y22471D01*
X91886Y23070D01*
X90976Y23447D01*
X90000Y23576D01*
D02*
G37*
G36*
X80000D02*
X79024Y23447D01*
X78114Y23070D01*
X77333Y22471D01*
X76733Y21689D01*
X76356Y20779D01*
X76228Y19803D01*
X76356Y18827D01*
X76733Y17917D01*
X77333Y17136D01*
X78114Y16536D01*
X79024Y16159D01*
X80000Y16031D01*
X80976Y16159D01*
X81886Y16536D01*
X82667Y17136D01*
X83267Y17917D01*
X83644Y18827D01*
X83772Y19803D01*
X83644Y20779D01*
X83267Y21689D01*
X82667Y22471D01*
X81886Y23070D01*
X80976Y23447D01*
X80000Y23576D01*
D02*
G37*
G36*
X10000Y33772D02*
X9024Y33644D01*
X8114Y33267D01*
X7333Y32667D01*
X6733Y31886D01*
X6356Y30976D01*
X6228Y30000D01*
X6356Y29024D01*
X6733Y28114D01*
X7333Y27332D01*
X8114Y26733D01*
X9024Y26356D01*
X10000Y26228D01*
X10976Y26356D01*
X11886Y26733D01*
X12667Y27332D01*
X13267Y28114D01*
X13644Y29024D01*
X13772Y30000D01*
X13644Y30976D01*
X13267Y31886D01*
X12667Y32667D01*
X11886Y33267D01*
X10976Y33644D01*
X10000Y33772D01*
D02*
G37*
G36*
X203740Y23740D02*
X196260D01*
Y16260D01*
X203740D01*
Y23740D01*
D02*
G37*
G36*
X10000Y23772D02*
X9024Y23644D01*
X8114Y23267D01*
X7333Y22668D01*
X6733Y21886D01*
X6356Y20976D01*
X6228Y20000D01*
X6356Y19024D01*
X6733Y18114D01*
X7333Y17333D01*
X8114Y16733D01*
X9024Y16356D01*
X10000Y16228D01*
X10976Y16356D01*
X11886Y16733D01*
X12667Y17333D01*
X13267Y18114D01*
X13644Y19024D01*
X13772Y20000D01*
X13644Y20976D01*
X13267Y21886D01*
X12667Y22668D01*
X11886Y23267D01*
X10976Y23644D01*
X10000Y23772D01*
D02*
G37*
G36*
X70000Y23576D02*
X69024Y23447D01*
X68114Y23070D01*
X67333Y22471D01*
X66733Y21689D01*
X66356Y20779D01*
X66228Y19803D01*
X66356Y18827D01*
X66733Y17917D01*
X67333Y17136D01*
X68114Y16536D01*
X69024Y16159D01*
X70000Y16031D01*
X70976Y16159D01*
X71886Y16536D01*
X72667Y17136D01*
X73267Y17917D01*
X73644Y18827D01*
X73772Y19803D01*
X73644Y20779D01*
X73267Y21689D01*
X72667Y22471D01*
X71886Y23070D01*
X70976Y23447D01*
X70000Y23576D01*
D02*
G37*
G36*
Y13576D02*
X69024Y13447D01*
X68114Y13070D01*
X67333Y12471D01*
X66733Y11689D01*
X66356Y10780D01*
X66228Y9803D01*
X66356Y8827D01*
X66733Y7917D01*
X67333Y7136D01*
X68114Y6536D01*
X69024Y6159D01*
X70000Y6031D01*
X70976Y6159D01*
X71886Y6536D01*
X72667Y7136D01*
X73267Y7917D01*
X73644Y8827D01*
X73772Y9803D01*
X73644Y10780D01*
X73267Y11689D01*
X72667Y12471D01*
X71886Y13070D01*
X70976Y13447D01*
X70000Y13576D01*
D02*
G37*
G36*
X140000Y17121D02*
X138611Y16984D01*
X137275Y16579D01*
X136044Y15921D01*
X134965Y15035D01*
X134079Y13956D01*
X133421Y12725D01*
X133016Y11389D01*
X132879Y10000D01*
X133016Y8611D01*
X133421Y7275D01*
X134079Y6044D01*
X134965Y4965D01*
X136044Y4079D01*
X137275Y3421D01*
X138611Y3016D01*
X140000Y2879D01*
X141389Y3016D01*
X142725Y3421D01*
X143956Y4079D01*
X145035Y4965D01*
X145921Y6044D01*
X146579Y7275D01*
X146984Y8611D01*
X147121Y10000D01*
X146984Y11389D01*
X146579Y12725D01*
X145921Y13956D01*
X145035Y15035D01*
X143956Y15921D01*
X142725Y16579D01*
X141389Y16984D01*
X140000Y17121D01*
D02*
G37*
G36*
X30000D02*
X28611Y16984D01*
X27275Y16579D01*
X26044Y15921D01*
X24965Y15035D01*
X24079Y13956D01*
X23421Y12725D01*
X23016Y11389D01*
X22879Y10000D01*
X23016Y8611D01*
X23421Y7275D01*
X24079Y6044D01*
X24965Y4965D01*
X26044Y4079D01*
X27275Y3421D01*
X28611Y3016D01*
X30000Y2879D01*
X31389Y3016D01*
X32725Y3421D01*
X33956Y4079D01*
X35035Y4965D01*
X35921Y6044D01*
X36579Y7275D01*
X36984Y8611D01*
X37121Y10000D01*
X36984Y11389D01*
X36579Y12725D01*
X35921Y13956D01*
X35035Y15035D01*
X33956Y15921D01*
X32725Y16579D01*
X31389Y16984D01*
X30000Y17121D01*
D02*
G37*
G36*
X103740Y13543D02*
X96260D01*
Y6063D01*
X103740D01*
Y13543D01*
D02*
G37*
G36*
X90000Y13576D02*
X89024Y13447D01*
X88114Y13070D01*
X87332Y12471D01*
X86733Y11689D01*
X86356Y10780D01*
X86228Y9803D01*
X86356Y8827D01*
X86733Y7917D01*
X87332Y7136D01*
X88114Y6536D01*
X89024Y6159D01*
X90000Y6031D01*
X90976Y6159D01*
X91886Y6536D01*
X92668Y7136D01*
X93267Y7917D01*
X93644Y8827D01*
X93772Y9803D01*
X93644Y10780D01*
X93267Y11689D01*
X92668Y12471D01*
X91886Y13070D01*
X90976Y13447D01*
X90000Y13576D01*
D02*
G37*
G36*
X80000D02*
X79024Y13447D01*
X78114Y13070D01*
X77333Y12471D01*
X76733Y11689D01*
X76356Y10780D01*
X76228Y9803D01*
X76356Y8827D01*
X76733Y7917D01*
X77333Y7136D01*
X78114Y6536D01*
X79024Y6159D01*
X80000Y6031D01*
X80976Y6159D01*
X81886Y6536D01*
X82667Y7136D01*
X83267Y7917D01*
X83644Y8827D01*
X83772Y9803D01*
X83644Y10780D01*
X83267Y11689D01*
X82667Y12471D01*
X81886Y13070D01*
X80976Y13447D01*
X80000Y13576D01*
D02*
G37*
G36*
X200000Y33772D02*
X199024Y33644D01*
X198114Y33267D01*
X197333Y32667D01*
X196733Y31886D01*
X196356Y30976D01*
X196228Y30000D01*
X196356Y29024D01*
X196733Y28114D01*
X197333Y27332D01*
X198114Y26733D01*
X199024Y26356D01*
X200000Y26228D01*
X200976Y26356D01*
X201886Y26733D01*
X202667Y27332D01*
X203267Y28114D01*
X203644Y29024D01*
X203772Y30000D01*
X203644Y30976D01*
X203267Y31886D01*
X202667Y32667D01*
X201886Y33267D01*
X200976Y33644D01*
X200000Y33772D01*
D02*
G37*
G36*
X19449Y58234D02*
X18950Y58134D01*
X18526Y57852D01*
X18244Y57428D01*
X18144Y56929D01*
X18244Y56430D01*
X18526Y56007D01*
X18950Y55724D01*
X19449Y55625D01*
X19948Y55724D01*
X20371Y56007D01*
X20654Y56430D01*
X20753Y56929D01*
X20654Y57428D01*
X20371Y57852D01*
X19948Y58134D01*
X19449Y58234D01*
D02*
G37*
G36*
X39016Y53588D02*
X38517Y53489D01*
X38093Y53206D01*
X37811Y52783D01*
X37711Y52284D01*
X37811Y51784D01*
X38093Y51361D01*
X38517Y51078D01*
X39016Y50979D01*
X39515Y51078D01*
X39938Y51361D01*
X40221Y51784D01*
X40320Y52284D01*
X40221Y52783D01*
X39938Y53206D01*
X39515Y53489D01*
X39016Y53588D01*
D02*
G37*
G36*
X49449Y53234D02*
X48950Y53134D01*
X48526Y52852D01*
X48243Y52428D01*
X48144Y51929D01*
X48243Y51430D01*
X48526Y51007D01*
X48950Y50724D01*
X49449Y50625D01*
X49948Y50724D01*
X50371Y51007D01*
X50654Y51430D01*
X50753Y51929D01*
X50654Y52428D01*
X50371Y52852D01*
X49948Y53134D01*
X49449Y53234D01*
D02*
G37*
G36*
X10000Y63772D02*
X9024Y63644D01*
X8114Y63267D01*
X7333Y62668D01*
X6733Y61886D01*
X6356Y60976D01*
X6228Y60000D01*
X6356Y59024D01*
X6733Y58114D01*
X7333Y57332D01*
X8114Y56733D01*
X9024Y56356D01*
X10000Y56228D01*
X10976Y56356D01*
X11886Y56733D01*
X12667Y57332D01*
X13267Y58114D01*
X13644Y59024D01*
X13772Y60000D01*
X13644Y60976D01*
X13267Y61886D01*
X12667Y62668D01*
X11886Y63267D01*
X10976Y63644D01*
X10000Y63772D01*
D02*
G37*
G36*
X49449Y58273D02*
X48950Y58174D01*
X48526Y57891D01*
X48243Y57468D01*
X48144Y56968D01*
X48243Y56469D01*
X48526Y56046D01*
X48950Y55763D01*
X49449Y55664D01*
X49948Y55763D01*
X50371Y56046D01*
X50654Y56469D01*
X50753Y56968D01*
X50654Y57468D01*
X50371Y57891D01*
X49948Y58174D01*
X49449Y58273D01*
D02*
G37*
G36*
X94854Y59576D02*
X94355Y59477D01*
X93932Y59194D01*
X93649Y58771D01*
X93550Y58272D01*
X93649Y57772D01*
X93932Y57349D01*
X94355Y57066D01*
X94854Y56967D01*
X95142Y57024D01*
X95413Y56977D01*
X95569Y56739D01*
X95625Y56457D01*
X95908Y56034D01*
X96332Y55751D01*
X96831Y55652D01*
X97330Y55751D01*
X97753Y56034D01*
X98036Y56457D01*
X98135Y56957D01*
X98036Y57456D01*
X97753Y57879D01*
X97330Y58162D01*
X96831Y58261D01*
X96543Y58204D01*
X96272Y58252D01*
X96115Y58490D01*
X96060Y58771D01*
X95777Y59194D01*
X95354Y59477D01*
X94854Y59576D01*
D02*
G37*
G36*
X19449Y53234D02*
X18950Y53134D01*
X18526Y52852D01*
X18244Y52428D01*
X18144Y51929D01*
X18244Y51430D01*
X18526Y51007D01*
X18950Y50724D01*
X19449Y50625D01*
X19948Y50724D01*
X20371Y51007D01*
X20654Y51430D01*
X20753Y51929D01*
X20654Y52428D01*
X20371Y52852D01*
X19948Y53134D01*
X19449Y53234D01*
D02*
G37*
G36*
X10000Y53772D02*
X9024Y53644D01*
X8114Y53267D01*
X7333Y52667D01*
X6733Y51886D01*
X6356Y50976D01*
X6228Y50000D01*
X6356Y49024D01*
X6733Y48114D01*
X7333Y47333D01*
X8114Y46733D01*
X9024Y46356D01*
X10000Y46228D01*
X10976Y46356D01*
X11886Y46733D01*
X12667Y47333D01*
X13267Y48114D01*
X13644Y49024D01*
X13772Y50000D01*
X13644Y50976D01*
X13267Y51886D01*
X12667Y52667D01*
X11886Y53267D01*
X10976Y53644D01*
X10000Y53772D01*
D02*
G37*
G36*
X200000Y43772D02*
X199024Y43644D01*
X198114Y43267D01*
X197333Y42667D01*
X196733Y41886D01*
X196356Y40976D01*
X196228Y40000D01*
X196356Y39024D01*
X196733Y38114D01*
X197333Y37332D01*
X198114Y36733D01*
X199024Y36356D01*
X200000Y36228D01*
X200976Y36356D01*
X201886Y36733D01*
X202667Y37332D01*
X203267Y38114D01*
X203644Y39024D01*
X203772Y40000D01*
X203644Y40976D01*
X203267Y41886D01*
X202667Y42667D01*
X201886Y43267D01*
X200976Y43644D01*
X200000Y43772D01*
D02*
G37*
G36*
X10000D02*
X9024Y43644D01*
X8114Y43267D01*
X7333Y42667D01*
X6733Y41886D01*
X6356Y40976D01*
X6228Y40000D01*
X6356Y39024D01*
X6733Y38114D01*
X7333Y37332D01*
X8114Y36733D01*
X9024Y36356D01*
X10000Y36228D01*
X10976Y36356D01*
X11886Y36733D01*
X12667Y37332D01*
X13267Y38114D01*
X13644Y39024D01*
X13772Y40000D01*
X13644Y40976D01*
X13267Y41886D01*
X12667Y42667D01*
X11886Y43267D01*
X10976Y43644D01*
X10000Y43772D01*
D02*
G37*
G36*
X151890Y52564D02*
X151391Y52465D01*
X150967Y52182D01*
X150684Y51759D01*
X150585Y51260D01*
X150684Y50761D01*
X150967Y50337D01*
X151391Y50055D01*
X151890Y49955D01*
X152389Y50055D01*
X152812Y50337D01*
X153095Y50761D01*
X153194Y51260D01*
X153095Y51759D01*
X152812Y52182D01*
X152389Y52465D01*
X151890Y52564D01*
D02*
G37*
G36*
X142992D02*
X142493Y52465D01*
X142070Y52182D01*
X141787Y51759D01*
X141688Y51260D01*
X141787Y50761D01*
X142070Y50337D01*
X142493Y50055D01*
X142992Y49955D01*
X143491Y50055D01*
X143915Y50337D01*
X144197Y50761D01*
X144297Y51260D01*
X144197Y51759D01*
X143915Y52182D01*
X143491Y52465D01*
X142992Y52564D01*
D02*
G37*
G36*
X200000Y53772D02*
X199024Y53644D01*
X198114Y53267D01*
X197333Y52667D01*
X196733Y51886D01*
X196356Y50976D01*
X196228Y50000D01*
X196356Y49024D01*
X196733Y48114D01*
X197333Y47333D01*
X198114Y46733D01*
X199024Y46356D01*
X200000Y46228D01*
X200976Y46356D01*
X201886Y46733D01*
X202667Y47333D01*
X203267Y48114D01*
X203644Y49024D01*
X203772Y50000D01*
X203644Y50976D01*
X203267Y51886D01*
X202667Y52667D01*
X201886Y53267D01*
X200976Y53644D01*
X200000Y53772D01*
D02*
G37*
G36*
X81453Y88773D02*
X80954Y88674D01*
X80530Y88391D01*
X80247Y87968D01*
X80148Y87468D01*
X80247Y86969D01*
X80530Y86546D01*
X80954Y86263D01*
X81453Y86164D01*
X81952Y86263D01*
X82375Y86546D01*
X82658Y86969D01*
X82757Y87468D01*
X82658Y87968D01*
X82375Y88391D01*
X81952Y88674D01*
X81453Y88773D01*
D02*
G37*
G36*
X19410Y88230D02*
X18910Y88130D01*
X18487Y87848D01*
X18204Y87424D01*
X18105Y86925D01*
X18204Y86426D01*
X18487Y86003D01*
X18910Y85720D01*
X19410Y85621D01*
X19909Y85720D01*
X20332Y86003D01*
X20615Y86426D01*
X20714Y86925D01*
X20615Y87424D01*
X20332Y87848D01*
X19909Y88130D01*
X19410Y88230D01*
D02*
G37*
G36*
X116689Y87998D02*
X116190Y87898D01*
X115767Y87615D01*
X115484Y87192D01*
X115384Y86693D01*
X115484Y86194D01*
X115767Y85770D01*
X116190Y85488D01*
X116689Y85388D01*
X117188Y85488D01*
X117611Y85770D01*
X117894Y86194D01*
X117994Y86693D01*
X117894Y87192D01*
X117611Y87615D01*
X117188Y87898D01*
X116689Y87998D01*
D02*
G37*
G36*
X93146Y89509D02*
X92646Y89410D01*
X92223Y89127D01*
X91940Y88704D01*
X91841Y88205D01*
X91940Y87705D01*
X92223Y87282D01*
X92646Y86999D01*
X93146Y86900D01*
X93645Y86999D01*
X94068Y87282D01*
X94351Y87705D01*
X94450Y88205D01*
X94351Y88704D01*
X94068Y89127D01*
X93645Y89410D01*
X93146Y89509D01*
D02*
G37*
G36*
X200000Y93772D02*
X199024Y93644D01*
X198114Y93267D01*
X197333Y92668D01*
X196733Y91886D01*
X196356Y90976D01*
X196228Y90000D01*
X196356Y89024D01*
X196733Y88114D01*
X197333Y87332D01*
X198114Y86733D01*
X199024Y86356D01*
X200000Y86228D01*
X200976Y86356D01*
X201886Y86733D01*
X202667Y87332D01*
X203267Y88114D01*
X203644Y89024D01*
X203772Y90000D01*
X203644Y90976D01*
X203267Y91886D01*
X202667Y92668D01*
X201886Y93267D01*
X200976Y93644D01*
X200000Y93772D01*
D02*
G37*
G36*
X10000D02*
X9024Y93644D01*
X8114Y93267D01*
X7333Y92668D01*
X6733Y91886D01*
X6356Y90976D01*
X6228Y90000D01*
X6356Y89024D01*
X6733Y88114D01*
X7333Y87332D01*
X8114Y86733D01*
X9024Y86356D01*
X10000Y86228D01*
X10976Y86356D01*
X11886Y86733D01*
X12667Y87332D01*
X13267Y88114D01*
X13644Y89024D01*
X13772Y90000D01*
X13644Y90976D01*
X13267Y91886D01*
X12667Y92668D01*
X11886Y93267D01*
X10976Y93644D01*
X10000Y93772D01*
D02*
G37*
G36*
X113087Y87986D02*
X112587Y87886D01*
X112164Y87604D01*
X111881Y87180D01*
X111782Y86681D01*
X111881Y86182D01*
X112164Y85759D01*
X112587Y85476D01*
X113087Y85377D01*
X113586Y85476D01*
X114009Y85759D01*
X114292Y86182D01*
X114391Y86681D01*
X114292Y87180D01*
X114009Y87604D01*
X113586Y87886D01*
X113087Y87986D01*
D02*
G37*
G36*
X98006Y92791D02*
X97507Y92691D01*
X97083Y92409D01*
X96801Y91985D01*
X96701Y91486D01*
X96801Y90987D01*
X96877Y90873D01*
X96824Y90461D01*
X96400Y90178D01*
X96118Y89755D01*
X96018Y89256D01*
X96118Y88757D01*
X96400Y88333D01*
X96824Y88051D01*
X97323Y87951D01*
X97822Y88051D01*
X97943Y88131D01*
X98297Y87894D01*
X98262Y87721D01*
X98362Y87221D01*
X98645Y86798D01*
X98909Y86621D01*
X98826Y86203D01*
X98540Y86146D01*
X98117Y85863D01*
X97834Y85440D01*
X97735Y84941D01*
X97834Y84442D01*
X98117Y84018D01*
X98540Y83736D01*
X99039Y83636D01*
X99539Y83736D01*
X99962Y84018D01*
X100245Y84442D01*
X100344Y84941D01*
X100245Y85440D01*
X99962Y85863D01*
X99697Y86040D01*
X99780Y86458D01*
X100066Y86515D01*
X100489Y86798D01*
X100772Y87221D01*
X100872Y87721D01*
X100772Y88220D01*
X100489Y88643D01*
X100066Y88926D01*
X99567Y89025D01*
X99068Y88926D01*
X98947Y88845D01*
X98593Y89082D01*
X98627Y89256D01*
X98528Y89755D01*
X98452Y89869D01*
X98505Y90281D01*
X98928Y90564D01*
X99211Y90987D01*
X99310Y91486D01*
X99211Y91985D01*
X98928Y92409D01*
X98505Y92691D01*
X98006Y92791D01*
D02*
G37*
G36*
X72047Y86029D02*
X71548Y85930D01*
X71125Y85647D01*
X70842Y85224D01*
X70743Y84724D01*
X70842Y84225D01*
X71125Y83802D01*
X71548Y83519D01*
X72047Y83420D01*
X72546Y83519D01*
X72970Y83802D01*
X73252Y84225D01*
X73352Y84724D01*
X73252Y85224D01*
X72970Y85647D01*
X72546Y85930D01*
X72047Y86029D01*
D02*
G37*
G36*
X40083Y85718D02*
X39583Y85619D01*
X39160Y85336D01*
X38877Y84913D01*
X38778Y84413D01*
X38877Y83914D01*
X39160Y83491D01*
X39583Y83208D01*
X40083Y83109D01*
X40582Y83208D01*
X41005Y83491D01*
X41288Y83914D01*
X41387Y84413D01*
X41288Y84913D01*
X41005Y85336D01*
X40582Y85619D01*
X40083Y85718D01*
D02*
G37*
G36*
X105236Y87600D02*
X104737Y87501D01*
X104314Y87218D01*
X104031Y86795D01*
X103932Y86295D01*
X104031Y85796D01*
X104314Y85373D01*
X104737Y85090D01*
X105236Y84991D01*
X105736Y85090D01*
X106159Y85373D01*
X106441Y85796D01*
X106541Y86295D01*
X106441Y86795D01*
X106159Y87218D01*
X105736Y87501D01*
X105236Y87600D01*
D02*
G37*
G36*
X152342Y87190D02*
X151843Y87091D01*
X151420Y86808D01*
X151137Y86385D01*
X151038Y85886D01*
X151137Y85387D01*
X151420Y84963D01*
X151843Y84680D01*
X152342Y84581D01*
X152842Y84680D01*
X153265Y84963D01*
X153548Y85387D01*
X153647Y85886D01*
X153548Y86385D01*
X153265Y86808D01*
X152842Y87091D01*
X152342Y87190D01*
D02*
G37*
G36*
X143465Y87171D02*
X142965Y87071D01*
X142542Y86789D01*
X142259Y86365D01*
X142160Y85866D01*
X142259Y85367D01*
X142542Y84944D01*
X142965Y84661D01*
X143465Y84562D01*
X143964Y84661D01*
X144387Y84944D01*
X144670Y85367D01*
X144769Y85866D01*
X144670Y86365D01*
X144387Y86789D01*
X143964Y87071D01*
X143465Y87171D01*
D02*
G37*
G36*
X50965Y90064D02*
X50465Y89965D01*
X50042Y89682D01*
X49759Y89259D01*
X49660Y88760D01*
X49759Y88261D01*
X50042Y87837D01*
X50465Y87555D01*
X50965Y87455D01*
X51464Y87555D01*
X51887Y87837D01*
X52199D01*
X52316Y87771D01*
X52729Y87495D01*
X53228Y87396D01*
X53728Y87495D01*
X54151Y87778D01*
X54434Y88201D01*
X54533Y88701D01*
X54434Y89200D01*
X54151Y89623D01*
X53728Y89906D01*
X53228Y90005D01*
X52729Y89906D01*
X52306Y89623D01*
X51994D01*
X51876Y89689D01*
X51464Y89965D01*
X50965Y90064D01*
D02*
G37*
G36*
X118465Y98864D02*
X117965Y98764D01*
X117542Y98482D01*
X117259Y98058D01*
X117160Y97559D01*
X117259Y97060D01*
X117542Y96637D01*
X117965Y96354D01*
X118465Y96254D01*
X118964Y96354D01*
X119387Y96637D01*
X119670Y97060D01*
X119769Y97559D01*
X119670Y98058D01*
X119387Y98482D01*
X118964Y98764D01*
X118465Y98864D01*
D02*
G37*
G36*
X10000Y103772D02*
X9024Y103644D01*
X8114Y103267D01*
X7333Y102667D01*
X6733Y101886D01*
X6356Y100976D01*
X6228Y100000D01*
X6356Y99024D01*
X6733Y98114D01*
X7333Y97333D01*
X8114Y96733D01*
X9024Y96356D01*
X10000Y96228D01*
X10976Y96356D01*
X11886Y96733D01*
X12667Y97333D01*
X13267Y98114D01*
X13644Y99024D01*
X13772Y100000D01*
X13644Y100976D01*
X13267Y101886D01*
X12667Y102667D01*
X11886Y103267D01*
X10976Y103644D01*
X10000Y103772D01*
D02*
G37*
G36*
X26984Y98572D02*
X26485Y98473D01*
X26062Y98190D01*
X25779Y97767D01*
X25680Y97268D01*
X25779Y96768D01*
X26062Y96345D01*
X26485Y96062D01*
X26984Y95963D01*
X27483Y96062D01*
X27907Y96345D01*
X28190Y96768D01*
X28289Y97268D01*
X28190Y97767D01*
X27907Y98190D01*
X27483Y98473D01*
X26984Y98572D01*
D02*
G37*
G36*
X88740Y102407D02*
X88241Y102308D01*
X87818Y102025D01*
X87535Y101602D01*
X87436Y101102D01*
X87535Y100603D01*
X87818Y100180D01*
X88241Y99897D01*
X88740Y99798D01*
X89239Y99897D01*
X89663Y100180D01*
X89946Y100603D01*
X90045Y101102D01*
X89946Y101602D01*
X89663Y102025D01*
X89239Y102308D01*
X88740Y102407D01*
D02*
G37*
G36*
X47972Y104631D02*
X47473Y104532D01*
X47050Y104249D01*
X46767Y103826D01*
X46668Y103327D01*
X46767Y102828D01*
X47050Y102404D01*
Y102025D01*
X46991Y101986D01*
X46708Y101562D01*
X46609Y101063D01*
X46708Y100564D01*
X46991Y100141D01*
X47414Y99858D01*
X47913Y99758D01*
X48413Y99858D01*
X48836Y100141D01*
X49119Y100564D01*
X49218Y101063D01*
X49119Y101562D01*
X48836Y101986D01*
Y102365D01*
X48895Y102404D01*
X49178Y102828D01*
X49277Y103327D01*
X49178Y103826D01*
X48895Y104249D01*
X48472Y104532D01*
X47972Y104631D01*
D02*
G37*
G36*
X88346Y99257D02*
X87847Y99158D01*
X87424Y98875D01*
X87141Y98452D01*
X87042Y97953D01*
X87141Y97453D01*
X87424Y97030D01*
X87847Y96747D01*
X88346Y96648D01*
X88846Y96747D01*
X89269Y97030D01*
X89552Y97453D01*
X89651Y97953D01*
X89552Y98452D01*
X89269Y98875D01*
X88846Y99158D01*
X88346Y99257D01*
D02*
G37*
G36*
X43937Y98509D02*
X43438Y98410D01*
X43014Y98127D01*
X42732Y97704D01*
X42632Y97205D01*
X42732Y96706D01*
X43014Y96282D01*
X43438Y95999D01*
X43937Y95900D01*
X44436Y95999D01*
X44859Y96282D01*
X45142Y96706D01*
X45242Y97205D01*
X45142Y97704D01*
X44859Y98127D01*
X44436Y98410D01*
X43937Y98509D01*
D02*
G37*
G36*
X110551Y93391D02*
X110052Y93292D01*
X109629Y93009D01*
X109346Y92586D01*
X109247Y92087D01*
X109346Y91587D01*
X109629Y91164D01*
X110052Y90881D01*
X110551Y90782D01*
X111050Y90881D01*
X111474Y91164D01*
X111757Y91587D01*
X111856Y92087D01*
X111757Y92586D01*
X111474Y93009D01*
X111050Y93292D01*
X110551Y93391D01*
D02*
G37*
G36*
X54449Y92761D02*
X53950Y92662D01*
X53526Y92379D01*
X53243Y91956D01*
X53144Y91457D01*
X53243Y90957D01*
X53526Y90534D01*
X53950Y90251D01*
X54449Y90152D01*
X54948Y90251D01*
X55371Y90534D01*
X55654Y90957D01*
X55753Y91457D01*
X55654Y91956D01*
X55371Y92379D01*
X54948Y92662D01*
X54449Y92761D01*
D02*
G37*
G36*
X66614Y91620D02*
X66115Y91520D01*
X65692Y91237D01*
X65409Y90814D01*
X65310Y90315D01*
X65409Y89816D01*
X65692Y89393D01*
X66115Y89110D01*
X66614Y89010D01*
X67113Y89110D01*
X67537Y89393D01*
X67819Y89816D01*
X67919Y90315D01*
X67819Y90814D01*
X67537Y91237D01*
X67113Y91520D01*
X66614Y91620D01*
D02*
G37*
G36*
X173484Y98431D02*
X172985Y98331D01*
X172562Y98049D01*
X172279Y97625D01*
X172180Y97126D01*
X172279Y96627D01*
X172562Y96204D01*
X172985Y95921D01*
X173484Y95821D01*
X173839Y95892D01*
X174074Y95544D01*
X173873Y95243D01*
X173774Y94744D01*
X173873Y94245D01*
X173966Y94106D01*
X173730Y93752D01*
X173661Y93765D01*
X173162Y93666D01*
X172739Y93383D01*
X172456Y92960D01*
X172357Y92461D01*
X172456Y91961D01*
X172739Y91538D01*
X173162Y91255D01*
X173661Y91156D01*
X173722Y91168D01*
X173959Y90814D01*
X173854Y90657D01*
X173754Y90158D01*
X173854Y89658D01*
X174137Y89235D01*
X174560Y88952D01*
X175059Y88853D01*
X175558Y88952D01*
X175981Y89235D01*
X176264Y89658D01*
X176364Y90158D01*
X176264Y90657D01*
X175981Y91080D01*
X175558Y91363D01*
X175059Y91462D01*
X174998Y91450D01*
X174762Y91804D01*
X174867Y91961D01*
X174966Y92461D01*
X174867Y92960D01*
X174774Y93099D01*
X175011Y93453D01*
X175079Y93440D01*
X175578Y93539D01*
X176001Y93822D01*
X176284Y94245D01*
X176383Y94744D01*
X176284Y95243D01*
X176001Y95667D01*
X175578Y95949D01*
X175079Y96049D01*
X174724Y95978D01*
X174489Y96326D01*
X174689Y96627D01*
X174789Y97126D01*
X174689Y97625D01*
X174407Y98049D01*
X173984Y98331D01*
X173484Y98431D01*
D02*
G37*
G36*
X102717Y98864D02*
X102217Y98764D01*
X101794Y98482D01*
X101511Y98058D01*
X101412Y97559D01*
X101511Y97060D01*
X101794Y96637D01*
X102217Y96354D01*
X102278Y96342D01*
Y95940D01*
X102245Y95934D01*
X101822Y95651D01*
X101539Y95228D01*
X101439Y94728D01*
X101539Y94229D01*
X101822Y93806D01*
X102245Y93523D01*
X102744Y93424D01*
X103243Y93523D01*
X103667Y93806D01*
X103949Y94229D01*
X104049Y94728D01*
X103949Y95228D01*
X103667Y95651D01*
X103243Y95934D01*
X103182Y95946D01*
Y96347D01*
X103216Y96354D01*
X103639Y96637D01*
X103922Y97060D01*
X104021Y97559D01*
X103922Y98058D01*
X103639Y98482D01*
X103216Y98764D01*
X102717Y98864D01*
D02*
G37*
G36*
X80984Y93974D02*
X80485Y93875D01*
X80062Y93592D01*
X79779Y93168D01*
X79680Y92669D01*
X79779Y92170D01*
X80062Y91747D01*
X80485Y91464D01*
X80984Y91365D01*
X81484Y91464D01*
X81907Y91747D01*
X82190Y92170D01*
X82289Y92669D01*
X82190Y93168D01*
X81907Y93592D01*
X81484Y93875D01*
X80984Y93974D01*
D02*
G37*
G36*
X169350Y80025D02*
X168851Y79926D01*
X168428Y79643D01*
X168145Y79220D01*
X168046Y78720D01*
X168145Y78221D01*
X168428Y77798D01*
X168851Y77515D01*
X169350Y77416D01*
X169850Y77515D01*
X170273Y77798D01*
X170556Y78221D01*
X170655Y78720D01*
X170556Y79220D01*
X170273Y79643D01*
X169850Y79926D01*
X169350Y80025D01*
D02*
G37*
G36*
X111520Y81655D02*
X111020Y81556D01*
X110597Y81273D01*
X110314Y80850D01*
X110215Y80350D01*
X110256Y80145D01*
X110113Y79790D01*
X109965Y79745D01*
X109607Y79674D01*
X109183Y79391D01*
X108901Y78968D01*
X108801Y78469D01*
X108901Y77969D01*
X109183Y77546D01*
X109607Y77263D01*
X110106Y77164D01*
X110605Y77263D01*
X111028Y77546D01*
X111311Y77969D01*
X111410Y78469D01*
X111370Y78674D01*
X111513Y79029D01*
X111661Y79074D01*
X112019Y79145D01*
X112442Y79428D01*
X112725Y79851D01*
X112824Y80350D01*
X112725Y80850D01*
X112442Y81273D01*
X112019Y81556D01*
X111520Y81655D01*
D02*
G37*
G36*
X200000Y83772D02*
X199024Y83644D01*
X198114Y83267D01*
X197333Y82667D01*
X196733Y81886D01*
X196356Y80976D01*
X196228Y80000D01*
X196356Y79024D01*
X196733Y78114D01*
X197333Y77333D01*
X198114Y76733D01*
X199024Y76356D01*
X200000Y76228D01*
X200976Y76356D01*
X201886Y76733D01*
X202667Y77333D01*
X203267Y78114D01*
X203644Y79024D01*
X203772Y80000D01*
X203644Y80976D01*
X203267Y81886D01*
X202667Y82667D01*
X201886Y83267D01*
X200976Y83644D01*
X200000Y83772D01*
D02*
G37*
G36*
X143425Y80753D02*
X142926Y80654D01*
X142503Y80371D01*
X142220Y79948D01*
X142121Y79449D01*
X142220Y78950D01*
X142503Y78526D01*
X142926Y78243D01*
X143425Y78144D01*
X143924Y78243D01*
X144348Y78526D01*
X144631Y78950D01*
X144730Y79449D01*
X144631Y79948D01*
X144348Y80371D01*
X143924Y80654D01*
X143425Y80753D01*
D02*
G37*
G36*
X74016Y80360D02*
X73516Y80260D01*
X73093Y79978D01*
X72811Y79554D01*
X72711Y79055D01*
X72811Y78556D01*
X73093Y78133D01*
X73516Y77850D01*
X74016Y77750D01*
X74515Y77850D01*
X74938Y78133D01*
X75221Y78556D01*
X75320Y79055D01*
X75221Y79554D01*
X74938Y79978D01*
X74515Y80260D01*
X74016Y80360D01*
D02*
G37*
G36*
X66378Y80360D02*
X65879Y80260D01*
X65456Y79978D01*
X65173Y79554D01*
X65073Y79055D01*
X65173Y78556D01*
X65456Y78133D01*
X65879Y77850D01*
X66378Y77750D01*
X66877Y77850D01*
X67300Y78133D01*
X67583Y78556D01*
X67683Y79055D01*
X67583Y79554D01*
X67300Y79978D01*
X66877Y80260D01*
X66378Y80360D01*
D02*
G37*
G36*
X112689Y77395D02*
X112190Y77296D01*
X111767Y77013D01*
X111484Y76590D01*
X111384Y76091D01*
X111484Y75591D01*
X111767Y75168D01*
X112190Y74885D01*
X112689Y74786D01*
X113188Y74885D01*
X113611Y75168D01*
X113894Y75591D01*
X113994Y76091D01*
X113894Y76590D01*
X113611Y77013D01*
X113188Y77296D01*
X112689Y77395D01*
D02*
G37*
G36*
X94842Y77222D02*
X94343Y77122D01*
X93920Y76840D01*
X93637Y76416D01*
X93538Y75917D01*
X93637Y75418D01*
X93907Y75013D01*
X93920Y74994D01*
X93873Y74553D01*
X93684Y74426D01*
X93401Y74003D01*
X93302Y73504D01*
X93401Y73005D01*
X93684Y72581D01*
X94107Y72299D01*
X94606Y72199D01*
X95105Y72299D01*
X95529Y72581D01*
X95589Y72671D01*
X95889Y72908D01*
X96093Y72772D01*
X96312Y72625D01*
X96811Y72526D01*
X97310Y72625D01*
X97733Y72908D01*
X98016Y73331D01*
X98077Y73635D01*
X98201Y73851D01*
X98499Y73922D01*
X98768Y73869D01*
X99267Y73968D01*
X99690Y74251D01*
X99973Y74674D01*
X100072Y75173D01*
X99973Y75673D01*
X99690Y76096D01*
X99267Y76379D01*
X98768Y76478D01*
X98269Y76379D01*
X97845Y76096D01*
X97562Y75673D01*
X97502Y75369D01*
X97378Y75153D01*
X97080Y75082D01*
X96811Y75135D01*
X96312Y75036D01*
X96229Y74981D01*
X95945Y75265D01*
X96048Y75418D01*
X96147Y75917D01*
X96048Y76416D01*
X95765Y76840D01*
X95342Y77122D01*
X94842Y77222D01*
D02*
G37*
G36*
X90492Y75494D02*
X89993Y75394D01*
X89570Y75112D01*
X89287Y74688D01*
X89188Y74189D01*
X89287Y73690D01*
X89570Y73267D01*
X89993Y72984D01*
X90492Y72884D01*
X90991Y72984D01*
X91415Y73267D01*
X91697Y73690D01*
X91797Y74189D01*
X91697Y74688D01*
X91415Y75112D01*
X90991Y75394D01*
X90492Y75494D01*
D02*
G37*
G36*
X147795Y71856D02*
X147296Y71757D01*
X146873Y71474D01*
X146798Y71362D01*
X146404D01*
X146355Y71434D01*
X145932Y71717D01*
X145433Y71816D01*
X144934Y71717D01*
X144511Y71434D01*
X144488Y71401D01*
X144095D01*
X144072Y71434D01*
X143649Y71717D01*
X143150Y71816D01*
X142650Y71717D01*
X142227Y71434D01*
X142201Y71395D01*
X142162D01*
X141758Y71441D01*
X141405Y71678D01*
X140905Y71777D01*
X140406Y71678D01*
X139983Y71395D01*
X139700Y70972D01*
X139601Y70472D01*
X139700Y69973D01*
X139983Y69550D01*
X140406Y69267D01*
X140905Y69168D01*
X141405Y69267D01*
X141828Y69550D01*
X141854Y69589D01*
X141893D01*
X142297Y69543D01*
X142650Y69306D01*
X143150Y69207D01*
X143649Y69306D01*
X144072Y69589D01*
X144095Y69623D01*
X144488D01*
X144511Y69589D01*
X144934Y69306D01*
X145433Y69207D01*
X145932Y69306D01*
X146355Y69589D01*
X146431Y69701D01*
X146824D01*
X146873Y69629D01*
X147296Y69346D01*
X147795Y69247D01*
X148294Y69346D01*
X148718Y69629D01*
X149001Y70052D01*
X149100Y70551D01*
X149001Y71050D01*
X148718Y71474D01*
X148294Y71757D01*
X147795Y71856D01*
D02*
G37*
G36*
X166752Y77230D02*
X166253Y77131D01*
X165830Y76848D01*
X165547Y76424D01*
X165447Y75925D01*
X165547Y75426D01*
X165830Y75003D01*
X166253Y74720D01*
X166752Y74621D01*
X167251Y74720D01*
X167674Y75003D01*
X167957Y75426D01*
X168056Y75925D01*
X167957Y76424D01*
X167674Y76848D01*
X167251Y77131D01*
X166752Y77230D01*
D02*
G37*
G36*
X87559Y76828D02*
X87060Y76729D01*
X86637Y76446D01*
X86354Y76023D01*
X86255Y75524D01*
X86354Y75024D01*
X86637Y74601D01*
X87060Y74318D01*
X87559Y74219D01*
X88058Y74318D01*
X88481Y74601D01*
X88764Y75024D01*
X88864Y75524D01*
X88764Y76023D01*
X88481Y76446D01*
X88058Y76729D01*
X87559Y76828D01*
D02*
G37*
G36*
X39803Y76816D02*
X39304Y76717D01*
X38881Y76434D01*
X38598Y76011D01*
X38499Y75512D01*
X38598Y75013D01*
X38881Y74589D01*
X39304Y74306D01*
X39803Y74207D01*
X40302Y74306D01*
X40726Y74589D01*
X41008Y75013D01*
X41108Y75512D01*
X41008Y76011D01*
X40726Y76434D01*
X40302Y76717D01*
X39803Y76816D01*
D02*
G37*
G36*
X152323Y80753D02*
X151824Y80654D01*
X151400Y80371D01*
X151118Y79948D01*
X151018Y79449D01*
X151118Y78950D01*
X151400Y78526D01*
X151824Y78243D01*
X152323Y78144D01*
X152822Y78243D01*
X153245Y78526D01*
X153528Y78950D01*
X153627Y79449D01*
X153528Y79948D01*
X153245Y80371D01*
X152822Y80654D01*
X152323Y80753D01*
D02*
G37*
G36*
X85677Y85186D02*
X85178Y85087D01*
X84755Y84804D01*
X84472Y84381D01*
X84373Y83882D01*
X84472Y83383D01*
X84755Y82959D01*
X85178Y82677D01*
X85677Y82577D01*
X86176Y82677D01*
X86600Y82959D01*
X86882Y83383D01*
X86982Y83882D01*
X86882Y84381D01*
X86600Y84804D01*
X86176Y85087D01*
X85677Y85186D01*
D02*
G37*
G36*
X88711Y84734D02*
X88211Y84634D01*
X87788Y84352D01*
X87505Y83928D01*
X87406Y83429D01*
X87505Y82930D01*
X87788Y82507D01*
X88211Y82224D01*
X88711Y82125D01*
X89210Y82224D01*
X89633Y82507D01*
X89916Y82930D01*
X90015Y83429D01*
X89916Y83928D01*
X89633Y84352D01*
X89210Y84634D01*
X88711Y84734D01*
D02*
G37*
G36*
X102693Y84647D02*
X102194Y84548D01*
X101770Y84265D01*
X101488Y83842D01*
X101388Y83343D01*
X101488Y82843D01*
X101770Y82420D01*
X102194Y82137D01*
X102693Y82038D01*
X103192Y82137D01*
X103615Y82420D01*
X103898Y82843D01*
X103998Y83343D01*
X103898Y83842D01*
X103615Y84265D01*
X103192Y84548D01*
X102693Y84647D01*
D02*
G37*
G36*
X81921Y85596D02*
X81422Y85497D01*
X80999Y85214D01*
X80716Y84791D01*
X80617Y84291D01*
X80716Y83792D01*
X80999Y83369D01*
X81422Y83086D01*
X81921Y82987D01*
X82420Y83086D01*
X82844Y83369D01*
X83126Y83792D01*
X83226Y84291D01*
X83126Y84791D01*
X82844Y85214D01*
X82420Y85497D01*
X81921Y85596D01*
D02*
G37*
G36*
X56142Y87564D02*
X55642Y87465D01*
X55219Y87182D01*
X54936Y86759D01*
X54837Y86260D01*
X54936Y85761D01*
X55219Y85337D01*
X55642Y85055D01*
X55974Y84989D01*
X56184Y84735D01*
X56215Y84570D01*
X56136Y84173D01*
X56236Y83674D01*
X56519Y83251D01*
X56942Y82968D01*
X57441Y82869D01*
X57940Y82968D01*
X58363Y83251D01*
X58646Y83674D01*
X58704Y83966D01*
X58724Y84067D01*
X59126D01*
X59144Y83978D01*
X59188Y83753D01*
X59471Y83329D01*
X59895Y83047D01*
X60394Y82947D01*
X60893Y83047D01*
X61316Y83329D01*
X61599Y83753D01*
X61698Y84252D01*
X61599Y84751D01*
X61316Y85175D01*
X60893Y85457D01*
X60394Y85557D01*
X59895Y85457D01*
X59471Y85175D01*
X59188Y84751D01*
X59130Y84459D01*
X59110Y84358D01*
X58709D01*
X58691Y84447D01*
X58646Y84672D01*
X58363Y85096D01*
X57940Y85378D01*
X57609Y85444D01*
X57399Y85698D01*
X57367Y85863D01*
X57446Y86260D01*
X57347Y86759D01*
X57064Y87182D01*
X56641Y87465D01*
X56142Y87564D01*
D02*
G37*
G36*
X109906Y85486D02*
X109406Y85386D01*
X108983Y85104D01*
X108700Y84680D01*
X108601Y84181D01*
X108700Y83682D01*
X108983Y83259D01*
X109406Y82976D01*
X109906Y82876D01*
X110405Y82976D01*
X110828Y83259D01*
X111111Y83682D01*
X111210Y84181D01*
X111111Y84680D01*
X110828Y85104D01*
X110405Y85386D01*
X109906Y85486D01*
D02*
G37*
G36*
X19449Y83234D02*
X18950Y83134D01*
X18526Y82852D01*
X18244Y82428D01*
X18144Y81929D01*
X18244Y81430D01*
X18526Y81007D01*
X18950Y80724D01*
X19449Y80625D01*
X19948Y80724D01*
X20371Y81007D01*
X20654Y81430D01*
X20753Y81929D01*
X20654Y82428D01*
X20371Y82852D01*
X19948Y83134D01*
X19449Y83234D01*
D02*
G37*
G36*
X82024Y82340D02*
X81524Y82241D01*
X81101Y81958D01*
X80818Y81535D01*
X80719Y81035D01*
X80818Y80536D01*
X81101Y80113D01*
X81524Y79830D01*
X82024Y79731D01*
X82523Y79830D01*
X82946Y80113D01*
X83229Y80536D01*
X83328Y81035D01*
X83229Y81535D01*
X82946Y81958D01*
X82523Y82241D01*
X82024Y82340D01*
D02*
G37*
G36*
X95319Y82222D02*
X94820Y82123D01*
X94396Y81840D01*
X94113Y81417D01*
X94014Y80918D01*
X94113Y80418D01*
X94396Y79995D01*
X94820Y79712D01*
X95319Y79613D01*
X95818Y79712D01*
X96241Y79995D01*
X96524Y80418D01*
X96623Y80918D01*
X96524Y81417D01*
X96241Y81840D01*
X95818Y82123D01*
X95319Y82222D01*
D02*
G37*
G36*
X40000Y81856D02*
X39501Y81757D01*
X39077Y81474D01*
X38795Y81050D01*
X38695Y80551D01*
X38795Y80052D01*
X39077Y79629D01*
X39501Y79346D01*
X40000Y79247D01*
X40499Y79346D01*
X40922Y79629D01*
X41205Y80052D01*
X41305Y80551D01*
X41205Y81050D01*
X40922Y81474D01*
X40499Y81757D01*
X40000Y81856D01*
D02*
G37*
G36*
X175709Y80281D02*
X175209Y80182D01*
X174786Y79899D01*
X174725Y79807D01*
X174251D01*
X174190Y79899D01*
X173767Y80182D01*
X173268Y80281D01*
X172768Y80182D01*
X172345Y79899D01*
X172062Y79476D01*
X171963Y78976D01*
X172062Y78477D01*
X172345Y78054D01*
X172768Y77771D01*
X173268Y77672D01*
X173767Y77771D01*
X174190Y78054D01*
X174251Y78146D01*
X174725D01*
X174786Y78054D01*
X174908Y77972D01*
Y77579D01*
X174786Y77497D01*
X174503Y77074D01*
X174404Y76575D01*
X174503Y76076D01*
X174786Y75652D01*
X174907Y75571D01*
Y75098D01*
X174786Y75017D01*
X174503Y74594D01*
X174404Y74094D01*
X174503Y73595D01*
X174786Y73172D01*
X175209Y72889D01*
X175709Y72790D01*
X176208Y72889D01*
X176631Y73172D01*
X176914Y73595D01*
X177013Y74094D01*
X176914Y74594D01*
X176631Y75017D01*
X176510Y75098D01*
Y75571D01*
X176631Y75652D01*
X176914Y76076D01*
X177013Y76575D01*
X176914Y77074D01*
X176631Y77497D01*
X176509Y77579D01*
Y77972D01*
X176631Y78054D01*
X176914Y78477D01*
X177013Y78976D01*
X176914Y79476D01*
X176631Y79899D01*
X176208Y80182D01*
X175709Y80281D01*
D02*
G37*
G36*
X90902Y82395D02*
X90402Y82296D01*
X89979Y82013D01*
X89696Y81590D01*
X89597Y81090D01*
X89696Y80591D01*
X89979Y80168D01*
X90402Y79885D01*
X90902Y79786D01*
X91401Y79885D01*
X91824Y80168D01*
X92107Y80591D01*
X92206Y81090D01*
X92107Y81590D01*
X91824Y82013D01*
X91401Y82296D01*
X90902Y82395D01*
D02*
G37*
G36*
X98772Y82344D02*
X98272Y82245D01*
X97849Y81962D01*
X97566Y81539D01*
X97467Y81039D01*
X97566Y80540D01*
X97849Y80117D01*
X98272Y79834D01*
X98772Y79735D01*
X99271Y79834D01*
X99694Y80117D01*
X99977Y80540D01*
X100076Y81039D01*
X99977Y81539D01*
X99694Y81962D01*
X99271Y82245D01*
X98772Y82344D01*
D02*
G37*
G36*
X82008Y136659D02*
X81509Y136560D01*
X81085Y136277D01*
X80803Y135854D01*
X80703Y135354D01*
X80803Y134855D01*
X81085Y134432D01*
X81509Y134149D01*
X82008Y134050D01*
X82507Y134149D01*
X82930Y134432D01*
X83213Y134855D01*
X83312Y135354D01*
X83213Y135854D01*
X82930Y136277D01*
X82507Y136560D01*
X82008Y136659D01*
D02*
G37*
G36*
X161181Y218667D02*
X160682Y218567D01*
X160259Y218285D01*
X159976Y217861D01*
X159877Y217362D01*
X159976Y216863D01*
X160259Y216440D01*
X160682Y216157D01*
X161181Y216058D01*
X161680Y216157D01*
X162104Y216440D01*
X162386Y216863D01*
X162486Y217362D01*
X162386Y217861D01*
X162104Y218285D01*
X161680Y218567D01*
X161181Y218667D01*
D02*
G37*
G36*
X169528Y218509D02*
X169028Y218410D01*
X168605Y218127D01*
X168322Y217704D01*
X168223Y217205D01*
X168322Y216705D01*
X168605Y216282D01*
X169028Y215999D01*
X169528Y215900D01*
X170027Y215999D01*
X170450Y216282D01*
X170733Y216705D01*
X170832Y217205D01*
X170733Y217704D01*
X170450Y218127D01*
X170027Y218410D01*
X169528Y218509D01*
D02*
G37*
G36*
X115787Y217053D02*
X115288Y216953D01*
X114865Y216670D01*
X114582Y216247D01*
X114483Y215748D01*
X114582Y215249D01*
X114865Y214826D01*
X115288Y214543D01*
X115787Y214443D01*
X116287Y214543D01*
X116710Y214826D01*
X116993Y215249D01*
X117092Y215748D01*
X116993Y216247D01*
X116710Y216670D01*
X116287Y216953D01*
X115787Y217053D01*
D02*
G37*
G36*
X115079Y220517D02*
X114579Y220418D01*
X114156Y220135D01*
X113874Y219712D01*
X113774Y219213D01*
X113874Y218713D01*
X114156Y218290D01*
X114579Y218007D01*
X115079Y217908D01*
X115578Y218007D01*
X116001Y218290D01*
X116284Y218713D01*
X116383Y219213D01*
X116284Y219712D01*
X116001Y220135D01*
X115578Y220418D01*
X115079Y220517D01*
D02*
G37*
G36*
X103996Y221679D02*
X103497Y221579D01*
X103074Y221297D01*
X102791Y220873D01*
X102691Y220374D01*
X102791Y219875D01*
X103074Y219451D01*
X103151Y219400D01*
Y219090D01*
X103107Y218955D01*
X102850Y218570D01*
X102751Y218071D01*
X102850Y217572D01*
X103133Y217148D01*
X103556Y216866D01*
X104055Y216766D01*
X104554Y216866D01*
X104978Y217148D01*
X105260Y217572D01*
X105360Y218071D01*
X105260Y218570D01*
X104978Y218993D01*
X104900Y219045D01*
Y219355D01*
X104944Y219489D01*
X105201Y219875D01*
X105301Y220374D01*
X105201Y220873D01*
X104919Y221297D01*
X104495Y221579D01*
X103996Y221679D01*
D02*
G37*
G36*
X165394Y218588D02*
X164894Y218489D01*
X164471Y218206D01*
X164188Y217783D01*
X164089Y217284D01*
X164188Y216784D01*
X164268Y216665D01*
X164261Y216650D01*
X164008Y216346D01*
X163622Y216423D01*
X163123Y216323D01*
X162700Y216041D01*
X162417Y215617D01*
X162318Y215118D01*
X162417Y214619D01*
X162700Y214196D01*
X163123Y213913D01*
X163622Y213813D01*
X164121Y213913D01*
X164544Y214196D01*
X164827Y214619D01*
X164927Y215118D01*
X164827Y215617D01*
X164748Y215737D01*
X164754Y215752D01*
X165008Y216056D01*
X165394Y215979D01*
X165704Y216041D01*
X165941Y215686D01*
X165842Y215539D01*
X165743Y215039D01*
X165842Y214540D01*
X166125Y214117D01*
X166548Y213834D01*
X167047Y213735D01*
X167546Y213834D01*
X167970Y214117D01*
X168253Y214540D01*
X168352Y215039D01*
X168253Y215539D01*
X167970Y215962D01*
X167546Y216245D01*
X167047Y216344D01*
X166737Y216282D01*
X166500Y216637D01*
X166599Y216784D01*
X166698Y217284D01*
X166599Y217783D01*
X166316Y218206D01*
X165893Y218489D01*
X165394Y218588D01*
D02*
G37*
G36*
X181929Y216501D02*
X181430Y216402D01*
X181007Y216119D01*
X180724Y215696D01*
X180624Y215197D01*
X180724Y214698D01*
X181007Y214274D01*
X181430Y213992D01*
X181929Y213892D01*
X182428Y213992D01*
X182852Y214274D01*
X183134Y214698D01*
X183234Y215197D01*
X183134Y215696D01*
X182852Y216119D01*
X182428Y216402D01*
X181929Y216501D01*
D02*
G37*
G36*
X152244Y212013D02*
X151745Y211914D01*
X151322Y211631D01*
X151260Y211539D01*
X150866D01*
X150804Y211631D01*
X150381Y211914D01*
X149882Y212013D01*
X149383Y211914D01*
X148959Y211631D01*
X148677Y211208D01*
X148577Y210709D01*
X148677Y210209D01*
X148959Y209786D01*
X149383Y209503D01*
X149882Y209404D01*
X150381Y209503D01*
X150804Y209786D01*
X150866Y209879D01*
X151260D01*
X151322Y209786D01*
X151745Y209503D01*
X152244Y209404D01*
X152743Y209503D01*
X153167Y209786D01*
X153425Y210172D01*
X153571Y210185D01*
X153834Y210131D01*
X153874Y209934D01*
X154156Y209511D01*
X154579Y209228D01*
X155079Y209128D01*
X155578Y209228D01*
X156001Y209511D01*
X156284Y209934D01*
X156383Y210433D01*
X156284Y210932D01*
X156001Y211355D01*
X155578Y211638D01*
X155079Y211738D01*
X154579Y211638D01*
X154156Y211355D01*
X153898Y210969D01*
X153752Y210957D01*
X153489Y211011D01*
X153449Y211208D01*
X153167Y211631D01*
X152743Y211914D01*
X152244Y212013D01*
D02*
G37*
G36*
X59862Y209986D02*
X59363Y209886D01*
X58940Y209604D01*
X58806Y209404D01*
X58333D01*
X58226Y209564D01*
X57802Y209847D01*
X57303Y209946D01*
X56804Y209847D01*
X56381Y209564D01*
X56260Y209384D01*
X55787D01*
X55667Y209564D01*
X55243Y209847D01*
X54744Y209946D01*
X54245Y209847D01*
X53822Y209564D01*
X53539Y209141D01*
X53439Y208642D01*
X53539Y208142D01*
X53822Y207719D01*
X54245Y207436D01*
X54744Y207337D01*
X55243Y207436D01*
X55667Y207719D01*
X55787Y207899D01*
X56260D01*
X56381Y207719D01*
X56804Y207436D01*
X57303Y207337D01*
X57802Y207436D01*
X58226Y207719D01*
X58359Y207919D01*
X58833D01*
X58940Y207759D01*
X59363Y207476D01*
X59862Y207377D01*
X60361Y207476D01*
X60785Y207759D01*
X61067Y208182D01*
X61167Y208681D01*
X61067Y209180D01*
X60785Y209604D01*
X60361Y209886D01*
X59862Y209986D01*
D02*
G37*
G36*
X159016Y210202D02*
X158517Y210103D01*
X158093Y209820D01*
X157810Y209397D01*
X157758Y209133D01*
X157597Y208882D01*
X157330Y208847D01*
X157047Y208903D01*
X156548Y208804D01*
X156125Y208521D01*
X155842Y208098D01*
X155743Y207598D01*
X155842Y207099D01*
X156125Y206676D01*
X156548Y206393D01*
X157047Y206294D01*
X157546Y206393D01*
X157970Y206676D01*
X158253Y207099D01*
X158305Y207364D01*
X158466Y207614D01*
X158733Y207649D01*
X159016Y207593D01*
X159515Y207692D01*
X159938Y207975D01*
X160221Y208398D01*
X160320Y208898D01*
X160221Y209397D01*
X159938Y209820D01*
X159515Y210103D01*
X159016Y210202D01*
D02*
G37*
G36*
X174449Y215478D02*
X173950Y215378D01*
X173526Y215096D01*
X173243Y214672D01*
X173144Y214173D01*
X173243Y213674D01*
X173526Y213251D01*
X173950Y212968D01*
X174449Y212869D01*
X174948Y212968D01*
X175371Y213251D01*
X175654Y213674D01*
X175753Y214173D01*
X175654Y214672D01*
X175371Y215096D01*
X174948Y215378D01*
X174449Y215478D01*
D02*
G37*
G36*
X144724Y214494D02*
X144225Y214394D01*
X143802Y214111D01*
X143519Y213688D01*
X143420Y213189D01*
X143519Y212690D01*
X143802Y212266D01*
X144225Y211984D01*
X144724Y211884D01*
X145224Y211984D01*
X145647Y212266D01*
X145930Y212690D01*
X146029Y213189D01*
X145930Y213688D01*
X145647Y214111D01*
X145224Y214394D01*
X144724Y214494D01*
D02*
G37*
G36*
X132283Y214572D02*
X131784Y214473D01*
X131361Y214190D01*
X131078Y213767D01*
X130979Y213268D01*
X131078Y212769D01*
X131308Y212424D01*
X131242Y212122D01*
X131174Y211997D01*
X130957Y211953D01*
X130718Y211793D01*
X130285Y211952D01*
X130260Y212074D01*
X129978Y212497D01*
X129554Y212780D01*
X129055Y212879D01*
X128556Y212780D01*
X128133Y212497D01*
X127850Y212074D01*
X127751Y211575D01*
X127850Y211076D01*
X128133Y210652D01*
X128556Y210369D01*
X129055Y210270D01*
X129554Y210369D01*
X129794Y210530D01*
X130227Y210371D01*
X130251Y210249D01*
X130534Y209826D01*
X130957Y209543D01*
X131457Y209443D01*
X131956Y209543D01*
X132379Y209826D01*
X132440Y209917D01*
X132914D01*
X132975Y209826D01*
X133398Y209543D01*
X133898Y209443D01*
X134397Y209543D01*
X134820Y209826D01*
X135103Y210249D01*
X135202Y210748D01*
X135103Y211247D01*
X134820Y211670D01*
X134397Y211953D01*
X133898Y212053D01*
X133398Y211953D01*
X132975Y211670D01*
X132863Y211707D01*
X132759Y211750D01*
X132766Y211842D01*
X132830Y212094D01*
X133206Y212345D01*
X133489Y212769D01*
X133588Y213268D01*
X133489Y213767D01*
X133206Y214190D01*
X132783Y214473D01*
X132283Y214572D01*
D02*
G37*
G36*
X186890Y221580D02*
X186390Y221481D01*
X185967Y221198D01*
X185685Y220775D01*
X185585Y220276D01*
X185685Y219776D01*
X185967Y219353D01*
X186390Y219070D01*
X186890Y218971D01*
X187389Y219070D01*
X187812Y219353D01*
X188095Y219776D01*
X188194Y220276D01*
X188095Y220775D01*
X187812Y221198D01*
X187389Y221481D01*
X186890Y221580D01*
D02*
G37*
G36*
X152126Y227328D02*
X151627Y227229D01*
X151204Y226946D01*
X150921Y226523D01*
X150821Y226024D01*
X150921Y225524D01*
X151204Y225101D01*
X151627Y224818D01*
X152126Y224719D01*
X152625Y224818D01*
X153049Y225101D01*
X153331Y225524D01*
X153431Y226024D01*
X153331Y226523D01*
X153049Y226946D01*
X152625Y227229D01*
X152126Y227328D01*
D02*
G37*
G36*
X147913D02*
X147414Y227229D01*
X146991Y226946D01*
X146708Y226523D01*
X146609Y226024D01*
X146708Y225524D01*
X146991Y225101D01*
X147414Y224818D01*
X147913Y224719D01*
X148413Y224818D01*
X148836Y225101D01*
X149119Y225524D01*
X149218Y226024D01*
X149119Y226523D01*
X148836Y226946D01*
X148413Y227229D01*
X147913Y227328D01*
D02*
G37*
G36*
X166654Y226226D02*
X166154Y226127D01*
X165731Y225844D01*
X165448Y225420D01*
X165349Y224921D01*
X165448Y224422D01*
X165731Y223999D01*
X166154Y223716D01*
X166654Y223617D01*
X167153Y223716D01*
X167576Y223999D01*
X167859Y224422D01*
X167958Y224921D01*
X167859Y225420D01*
X167576Y225844D01*
X167153Y226127D01*
X166654Y226226D01*
D02*
G37*
G36*
X191220Y230399D02*
X190721Y230300D01*
X190298Y230017D01*
X190015Y229594D01*
X189916Y229095D01*
X190015Y228595D01*
X190298Y228172D01*
X190721Y227889D01*
X191220Y227790D01*
X191720Y227889D01*
X192143Y228172D01*
X192426Y228595D01*
X192525Y229095D01*
X192426Y229594D01*
X192143Y230017D01*
X191720Y230300D01*
X191220Y230399D01*
D02*
G37*
G36*
X150039Y230045D02*
X149540Y229945D01*
X149117Y229663D01*
X148834Y229239D01*
X148735Y228740D01*
X148834Y228241D01*
X149117Y227818D01*
X149540Y227535D01*
X150039Y227436D01*
X150539Y227535D01*
X150962Y227818D01*
X151245Y228241D01*
X151344Y228740D01*
X151245Y229239D01*
X150962Y229663D01*
X150539Y229945D01*
X150039Y230045D01*
D02*
G37*
G36*
X170158Y229690D02*
X169658Y229591D01*
X169235Y229308D01*
X168952Y228885D01*
X168853Y228386D01*
X168952Y227887D01*
X169235Y227463D01*
X169658Y227181D01*
X170158Y227081D01*
X170657Y227181D01*
X171080Y227463D01*
X171363Y227887D01*
X171462Y228386D01*
X171363Y228885D01*
X171080Y229308D01*
X170657Y229591D01*
X170158Y229690D01*
D02*
G37*
G36*
X171457Y225320D02*
X170957Y225221D01*
X170534Y224938D01*
X170251Y224515D01*
X170152Y224016D01*
X170251Y223517D01*
X170534Y223093D01*
X170957Y222811D01*
X171457Y222711D01*
X171956Y222811D01*
X172379Y223093D01*
X172662Y223517D01*
X172761Y224016D01*
X172662Y224515D01*
X172379Y224938D01*
X171956Y225221D01*
X171457Y225320D01*
D02*
G37*
G36*
X112598Y223352D02*
X112099Y223253D01*
X111676Y222970D01*
X111393Y222547D01*
X111294Y222047D01*
X111393Y221548D01*
X111676Y221125D01*
X112099Y220842D01*
X112598Y220743D01*
X113098Y220842D01*
X113521Y221125D01*
X113804Y221548D01*
X113903Y222047D01*
X113804Y222547D01*
X113521Y222970D01*
X113098Y223253D01*
X112598Y223352D01*
D02*
G37*
G36*
X169685Y222250D02*
X169186Y222150D01*
X168763Y221867D01*
X168480Y221444D01*
X168380Y220945D01*
X168480Y220446D01*
X168763Y220022D01*
X169186Y219740D01*
X169685Y219640D01*
X170184Y219740D01*
X170607Y220022D01*
X170890Y220446D01*
X170990Y220945D01*
X170890Y221444D01*
X170607Y221867D01*
X170184Y222150D01*
X169685Y222250D01*
D02*
G37*
G36*
X173071Y222210D02*
X172572Y222111D01*
X172148Y221828D01*
X171866Y221405D01*
X171766Y220905D01*
X171866Y220406D01*
X172148Y219983D01*
X172572Y219700D01*
X173071Y219601D01*
X173570Y219700D01*
X173993Y219983D01*
X174276Y220406D01*
X174375Y220905D01*
X174276Y221405D01*
X173993Y221828D01*
X173570Y222111D01*
X173071Y222210D01*
D02*
G37*
G36*
X106102Y225163D02*
X105603Y225063D01*
X105180Y224781D01*
X104897Y224358D01*
X104798Y223858D01*
X104897Y223359D01*
X105180Y222936D01*
X105603Y222653D01*
X106102Y222554D01*
X106602Y222653D01*
X107025Y222936D01*
X107308Y223359D01*
X107407Y223858D01*
X107308Y224358D01*
X107025Y224781D01*
X106602Y225063D01*
X106102Y225163D01*
D02*
G37*
G36*
X50709Y224927D02*
X50209Y224827D01*
X49786Y224545D01*
X49503Y224121D01*
X49404Y223622D01*
X49503Y223123D01*
X49786Y222699D01*
X50209Y222417D01*
X50709Y222317D01*
X51208Y222417D01*
X51631Y222699D01*
X51914Y223123D01*
X52013Y223622D01*
X51914Y224121D01*
X51631Y224545D01*
X51208Y224827D01*
X50709Y224927D01*
D02*
G37*
G36*
X177205Y223470D02*
X176706Y223371D01*
X176282Y223088D01*
X175999Y222665D01*
X175900Y222165D01*
X175999Y221666D01*
X176282Y221243D01*
X176706Y220960D01*
X177205Y220861D01*
X177704Y220960D01*
X178127Y221243D01*
X178410Y221666D01*
X178509Y222165D01*
X178410Y222665D01*
X178127Y223088D01*
X177704Y223371D01*
X177205Y223470D01*
D02*
G37*
G36*
X90236Y202761D02*
X89737Y202662D01*
X89314Y202379D01*
X89031Y201956D01*
X88932Y201457D01*
X89031Y200957D01*
X89314Y200534D01*
X89737Y200251D01*
X90236Y200152D01*
X90736Y200251D01*
X91159Y200534D01*
X91442Y200957D01*
X91541Y201457D01*
X91442Y201956D01*
X91159Y202379D01*
X90736Y202662D01*
X90236Y202761D01*
D02*
G37*
G36*
X165630Y203588D02*
X165131Y203489D01*
X164708Y203206D01*
X164425Y202783D01*
X164325Y202283D01*
X164382Y202000D01*
X164346Y201734D01*
X164096Y201573D01*
X163831Y201520D01*
X163408Y201237D01*
X163126Y200814D01*
X163026Y200315D01*
X163126Y199816D01*
X163408Y199392D01*
X163831Y199110D01*
X164331Y199010D01*
X164830Y199110D01*
X165253Y199392D01*
X165536Y199816D01*
X165635Y200315D01*
X165579Y200598D01*
X165615Y200865D01*
X165865Y201026D01*
X166129Y201078D01*
X166552Y201361D01*
X166835Y201784D01*
X166935Y202283D01*
X166835Y202783D01*
X166552Y203206D01*
X166129Y203489D01*
X165630Y203588D01*
D02*
G37*
G36*
X108780Y200360D02*
X108280Y200260D01*
X107857Y199978D01*
X107574Y199554D01*
X107475Y199055D01*
X107574Y198556D01*
X107857Y198133D01*
X108280Y197850D01*
X108780Y197750D01*
X109279Y197850D01*
X109702Y198133D01*
X109985Y198556D01*
X110084Y199055D01*
X109985Y199554D01*
X109702Y199978D01*
X109279Y200260D01*
X108780Y200360D01*
D02*
G37*
G36*
X120158Y204903D02*
X119658Y204804D01*
X119235Y204521D01*
X118952Y204098D01*
X118853Y203598D01*
X118952Y203099D01*
X119235Y202676D01*
X119658Y202393D01*
X120158Y202294D01*
X120657Y202393D01*
X121080Y202676D01*
X121363Y203099D01*
X121462Y203598D01*
X121363Y204098D01*
X121080Y204521D01*
X120657Y204804D01*
X120158Y204903D01*
D02*
G37*
G36*
X115512Y204730D02*
X115013Y204630D01*
X114589Y204348D01*
X114306Y203924D01*
X114207Y203425D01*
X114306Y202926D01*
X114589Y202503D01*
X115013Y202220D01*
X115512Y202121D01*
X116011Y202220D01*
X116434Y202503D01*
X116717Y202926D01*
X116816Y203425D01*
X116717Y203924D01*
X116434Y204348D01*
X116011Y204630D01*
X115512Y204730D01*
D02*
G37*
G36*
X83346Y203627D02*
X82847Y203528D01*
X82424Y203245D01*
X82141Y202822D01*
X82042Y202323D01*
X82141Y201824D01*
X82424Y201400D01*
X82847Y201118D01*
X83346Y201018D01*
X83846Y201118D01*
X84269Y201400D01*
X84552Y201824D01*
X84651Y202323D01*
X84552Y202822D01*
X84269Y203245D01*
X83846Y203528D01*
X83346Y203627D01*
D02*
G37*
G36*
X97835Y200360D02*
X97335Y200260D01*
X96912Y199978D01*
X96629Y199554D01*
X96530Y199055D01*
X96629Y198556D01*
X96912Y198133D01*
X97335Y197850D01*
X97835Y197750D01*
X98334Y197850D01*
X98757Y198133D01*
X99040Y198556D01*
X99139Y199055D01*
X99040Y199554D01*
X98757Y199978D01*
X98334Y200260D01*
X97835Y200360D01*
D02*
G37*
G36*
X117047Y197053D02*
X116548Y196953D01*
X116125Y196670D01*
X115842Y196247D01*
X115743Y195748D01*
X115842Y195249D01*
X116125Y194825D01*
X116548Y194543D01*
X117047Y194443D01*
X117546Y194543D01*
X117970Y194825D01*
X118253Y195249D01*
X118352Y195748D01*
X118253Y196247D01*
X117970Y196670D01*
X117546Y196953D01*
X117047Y197053D01*
D02*
G37*
G36*
X44626Y196836D02*
X44127Y196737D01*
X43703Y196454D01*
X43421Y196031D01*
X43321Y195531D01*
X43421Y195032D01*
X43703Y194609D01*
X44127Y194326D01*
X44626Y194227D01*
X45125Y194326D01*
X45548Y194609D01*
X45831Y195032D01*
X45931Y195531D01*
X45831Y196031D01*
X45548Y196454D01*
X45125Y196737D01*
X44626Y196836D01*
D02*
G37*
G36*
X121102Y198824D02*
X120603Y198725D01*
X120180Y198442D01*
X119897Y198019D01*
X119798Y197520D01*
X119897Y197020D01*
X120180Y196597D01*
X120243Y196555D01*
Y196161D01*
X120180Y196119D01*
X119897Y195696D01*
X119798Y195197D01*
X119897Y194698D01*
X120180Y194274D01*
X120603Y193992D01*
X121102Y193892D01*
X121602Y193992D01*
X122025Y194274D01*
X122308Y194698D01*
X122407Y195197D01*
X122308Y195696D01*
X122025Y196119D01*
X121962Y196161D01*
Y196555D01*
X122025Y196597D01*
X122308Y197020D01*
X122407Y197520D01*
X122308Y198019D01*
X122025Y198442D01*
X121602Y198725D01*
X121102Y198824D01*
D02*
G37*
G36*
X41831Y199434D02*
X41331Y199335D01*
X40908Y199052D01*
X40625Y198629D01*
X40526Y198130D01*
X40625Y197631D01*
X40908Y197207D01*
X41331Y196925D01*
X41831Y196825D01*
X42330Y196925D01*
X42753Y197207D01*
X43036Y197631D01*
X43135Y198130D01*
X43036Y198629D01*
X42753Y199052D01*
X42330Y199335D01*
X41831Y199434D01*
D02*
G37*
G36*
X181142Y199415D02*
X180642Y199316D01*
X180219Y199033D01*
X179936Y198609D01*
X179837Y198110D01*
X179936Y197611D01*
X180219Y197188D01*
X180642Y196905D01*
X181142Y196806D01*
X181641Y196905D01*
X182064Y197188D01*
X182347Y197611D01*
X182446Y198110D01*
X182347Y198609D01*
X182064Y199033D01*
X181641Y199316D01*
X181142Y199415D01*
D02*
G37*
G36*
X171732Y197997D02*
X171233Y197898D01*
X170810Y197615D01*
X170527Y197192D01*
X170428Y196693D01*
X170527Y196194D01*
X170810Y195770D01*
X171233Y195488D01*
X171732Y195388D01*
X172231Y195488D01*
X172655Y195770D01*
X172938Y196194D01*
X173037Y196693D01*
X172938Y197192D01*
X172655Y197615D01*
X172231Y197898D01*
X171732Y197997D01*
D02*
G37*
G36*
X53839Y204651D02*
X53339Y204552D01*
X52916Y204269D01*
X52633Y203846D01*
X52534Y203346D01*
X52605Y202992D01*
X52257Y202756D01*
X51956Y202957D01*
X51457Y203057D01*
X50958Y202957D01*
X50534Y202674D01*
X50251Y202251D01*
X50152Y201752D01*
X50251Y201253D01*
X50534Y200830D01*
X50958Y200547D01*
X51457Y200447D01*
X51956Y200547D01*
X52379Y200830D01*
X52662Y201253D01*
X52761Y201752D01*
X52691Y202106D01*
X53039Y202342D01*
X53339Y202141D01*
X53839Y202042D01*
X54338Y202141D01*
X54477Y202234D01*
X54831Y201997D01*
X54817Y201929D01*
X54917Y201430D01*
X55199Y201007D01*
X55623Y200724D01*
X56122Y200624D01*
X56621Y200724D01*
X57045Y201007D01*
X57327Y201430D01*
X57427Y201929D01*
X57415Y201990D01*
X57769Y202226D01*
X57926Y202121D01*
X58425Y202022D01*
X58924Y202121D01*
X59348Y202404D01*
X59631Y202828D01*
X59730Y203327D01*
X59631Y203826D01*
X59348Y204249D01*
X58924Y204532D01*
X58425Y204631D01*
X57926Y204532D01*
X57503Y204249D01*
X57220Y203826D01*
X57121Y203327D01*
X57133Y203266D01*
X56778Y203029D01*
X56621Y203134D01*
X56122Y203234D01*
X55623Y203134D01*
X55484Y203042D01*
X55130Y203278D01*
X55143Y203346D01*
X55044Y203846D01*
X54761Y204269D01*
X54338Y204552D01*
X53839Y204651D01*
D02*
G37*
G36*
X10000Y222121D02*
X8611Y221984D01*
X7275Y221579D01*
X6044Y220921D01*
X4965Y220035D01*
X4079Y218956D01*
X3421Y217725D01*
X3016Y216389D01*
X2879Y215000D01*
X3016Y213611D01*
X3421Y212275D01*
X4079Y211044D01*
X4965Y209965D01*
X6044Y209079D01*
X7275Y208421D01*
X8611Y208016D01*
X10000Y207879D01*
X11389Y208016D01*
X12725Y208421D01*
X13956Y209079D01*
X15035Y209965D01*
X15921Y211044D01*
X16579Y212275D01*
X16984Y213611D01*
X17121Y215000D01*
X16984Y216389D01*
X16579Y217725D01*
X15921Y218956D01*
X15035Y220035D01*
X13956Y220921D01*
X12725Y221579D01*
X11389Y221984D01*
X10000Y222121D01*
D02*
G37*
G36*
X126417Y210045D02*
X125918Y209945D01*
X125495Y209663D01*
X125212Y209239D01*
X125113Y208740D01*
X125212Y208241D01*
X125495Y207818D01*
X125918Y207535D01*
X126417Y207436D01*
X126917Y207535D01*
X127340Y207818D01*
X127623Y208241D01*
X127722Y208740D01*
X127623Y209239D01*
X127340Y209663D01*
X126917Y209945D01*
X126417Y210045D01*
D02*
G37*
G36*
X143268Y208903D02*
X142769Y208804D01*
X142345Y208521D01*
X142062Y208098D01*
X141963Y207598D01*
X142062Y207099D01*
X142345Y206676D01*
X142769Y206393D01*
X143268Y206294D01*
X143767Y206393D01*
X144190Y206676D01*
X144473Y207099D01*
X144572Y207598D01*
X144473Y208098D01*
X144190Y208521D01*
X143767Y208804D01*
X143268Y208903D01*
D02*
G37*
G36*
X97559Y211265D02*
X97060Y211166D01*
X96637Y210883D01*
X96354Y210460D01*
X96254Y209961D01*
X96354Y209461D01*
X96637Y209038D01*
X97060Y208755D01*
X97559Y208656D01*
X98058Y208755D01*
X98482Y209038D01*
X98764Y209461D01*
X98864Y209961D01*
X98764Y210460D01*
X98482Y210883D01*
X98058Y211166D01*
X97559Y211265D01*
D02*
G37*
G36*
X108701Y211108D02*
X108202Y211008D01*
X107778Y210726D01*
X107495Y210302D01*
X107396Y209803D01*
X107495Y209304D01*
X107778Y208881D01*
X108202Y208598D01*
X108701Y208499D01*
X109200Y208598D01*
X109623Y208881D01*
X109906Y209304D01*
X110005Y209803D01*
X109906Y210302D01*
X109623Y210726D01*
X109200Y211008D01*
X108701Y211108D01*
D02*
G37*
G36*
X43819Y210990D02*
X43320Y210890D01*
X42896Y210608D01*
X42614Y210184D01*
X42514Y209685D01*
X42614Y209186D01*
X42896Y208763D01*
X43320Y208480D01*
X43819Y208380D01*
X44318Y208480D01*
X44741Y208763D01*
X45024Y209186D01*
X45123Y209685D01*
X45024Y210184D01*
X44741Y210608D01*
X44318Y210890D01*
X43819Y210990D01*
D02*
G37*
G36*
X90118Y208706D02*
X89619Y208607D01*
X89196Y208324D01*
X88913Y207901D01*
X88814Y207402D01*
X88913Y206902D01*
X89196Y206479D01*
X89619Y206196D01*
X90118Y206097D01*
X90617Y206196D01*
X91041Y206479D01*
X91323Y206902D01*
X91423Y207402D01*
X91323Y207901D01*
X91041Y208324D01*
X90617Y208607D01*
X90118Y208706D01*
D02*
G37*
G36*
X103150Y205714D02*
X102650Y205615D01*
X102227Y205332D01*
X101944Y204909D01*
X101845Y204410D01*
X101944Y203910D01*
X102227Y203487D01*
X102650Y203204D01*
X103150Y203105D01*
X103649Y203204D01*
X104072Y203487D01*
X104355Y203910D01*
X104454Y204410D01*
X104355Y204909D01*
X104072Y205332D01*
X103649Y205615D01*
X103150Y205714D01*
D02*
G37*
G36*
X174528Y205557D02*
X174028Y205457D01*
X173605Y205174D01*
X173322Y204751D01*
X173223Y204252D01*
X173322Y203753D01*
X173605Y203329D01*
X174028Y203047D01*
X174528Y202947D01*
X175027Y203047D01*
X175450Y203329D01*
X175733Y203753D01*
X175832Y204252D01*
X175733Y204751D01*
X175450Y205174D01*
X175027Y205457D01*
X174528Y205557D01*
D02*
G37*
G36*
X200000Y217121D02*
X198611Y216984D01*
X197275Y216579D01*
X196044Y215921D01*
X194965Y215035D01*
X194079Y213956D01*
X193421Y212725D01*
X193016Y211389D01*
X192879Y210000D01*
X193016Y208611D01*
X193421Y207275D01*
X194079Y206044D01*
X194965Y204965D01*
X196044Y204079D01*
X197275Y203421D01*
X198611Y203016D01*
X200000Y202879D01*
X201389Y203016D01*
X202725Y203421D01*
X203956Y204079D01*
X205035Y204965D01*
X205921Y206044D01*
X206579Y207275D01*
X206984Y208611D01*
X207121Y210000D01*
X206984Y211389D01*
X206579Y212725D01*
X205921Y213956D01*
X205035Y215035D01*
X203956Y215921D01*
X202725Y216579D01*
X201389Y216984D01*
X200000Y217121D01*
D02*
G37*
G36*
X46457Y205793D02*
X45957Y205694D01*
X45534Y205411D01*
X45453Y205290D01*
X44980D01*
X44899Y205411D01*
X44476Y205694D01*
X43976Y205793D01*
X43477Y205694D01*
X43054Y205411D01*
X42972Y205289D01*
X42579D01*
X42497Y205411D01*
X42074Y205694D01*
X41575Y205793D01*
X41076Y205694D01*
X40652Y205411D01*
X40369Y204987D01*
X40270Y204488D01*
X40369Y203989D01*
X40652Y203566D01*
X40744Y203504D01*
Y203031D01*
X40652Y202970D01*
X40369Y202547D01*
X40270Y202047D01*
X40369Y201548D01*
X40652Y201125D01*
X41076Y200842D01*
X41575Y200743D01*
X42074Y200842D01*
X42497Y201125D01*
X42780Y201548D01*
X42879Y202047D01*
X42780Y202547D01*
X42497Y202970D01*
X42406Y203031D01*
Y203504D01*
X42497Y203566D01*
X42579Y203688D01*
X42972D01*
X43054Y203566D01*
X43477Y203283D01*
X43976Y203184D01*
X44476Y203283D01*
X44899Y203566D01*
X44980Y203687D01*
X45453D01*
X45534Y203566D01*
X45957Y203283D01*
X46457Y203184D01*
X46956Y203283D01*
X47379Y203566D01*
X47662Y203989D01*
X47761Y204488D01*
X47662Y204987D01*
X47379Y205411D01*
X46956Y205694D01*
X46457Y205793D01*
D02*
G37*
G36*
X181024Y207643D02*
X180524Y207544D01*
X180101Y207261D01*
X179818Y206838D01*
X179719Y206339D01*
X179818Y205839D01*
X180101Y205416D01*
X180524Y205133D01*
X181024Y205034D01*
X181523Y205133D01*
X181946Y205416D01*
X182229Y205839D01*
X182328Y206339D01*
X182229Y206838D01*
X181946Y207261D01*
X181523Y207544D01*
X181024Y207643D01*
D02*
G37*
G36*
X69291Y207210D02*
X68792Y207111D01*
X68369Y206828D01*
X68086Y206405D01*
X67987Y205906D01*
X68086Y205406D01*
X68369Y204983D01*
X68792Y204700D01*
X69291Y204601D01*
X69791Y204700D01*
X70214Y204983D01*
X70497Y205406D01*
X70596Y205906D01*
X70497Y206405D01*
X70214Y206828D01*
X69791Y207111D01*
X69291Y207210D01*
D02*
G37*
G36*
X94803Y230753D02*
X94304Y230654D01*
X93881Y230371D01*
X93598Y229948D01*
X93499Y229449D01*
X93598Y228950D01*
X93881Y228526D01*
X94304Y228243D01*
X94803Y228144D01*
X95302Y228243D01*
X95726Y228526D01*
X96008Y228950D01*
X96108Y229449D01*
X96008Y229948D01*
X95726Y230371D01*
X95302Y230654D01*
X94803Y230753D01*
D02*
G37*
G36*
X109370Y256501D02*
X108871Y256402D01*
X108448Y256119D01*
X108165Y255696D01*
X108065Y255196D01*
X108165Y254697D01*
X108448Y254274D01*
X108871Y253991D01*
X109370Y253892D01*
X109869Y253991D01*
X110293Y254274D01*
X110575Y254697D01*
X110675Y255196D01*
X110575Y255696D01*
X110293Y256119D01*
X109869Y256402D01*
X109370Y256501D01*
D02*
G37*
G36*
X203543Y252250D02*
X203044Y252150D01*
X202621Y251868D01*
X202338Y251444D01*
X202239Y250945D01*
X202338Y250446D01*
X202621Y250023D01*
X203044Y249740D01*
X203543Y249640D01*
X204043Y249740D01*
X204466Y250023D01*
X204749Y250446D01*
X204848Y250945D01*
X204749Y251444D01*
X204466Y251868D01*
X204043Y252150D01*
X203543Y252250D01*
D02*
G37*
G36*
X144488D02*
X143989Y252150D01*
X143566Y251868D01*
X143283Y251444D01*
X143184Y250945D01*
X143283Y250446D01*
X143566Y250023D01*
X143989Y249740D01*
X144488Y249640D01*
X144987Y249740D01*
X145411Y250023D01*
X145694Y250446D01*
X145793Y250945D01*
X145694Y251444D01*
X145411Y251868D01*
X144987Y252150D01*
X144488Y252250D01*
D02*
G37*
G36*
X203583Y256541D02*
X203083Y256442D01*
X202660Y256159D01*
X202377Y255736D01*
X202278Y255236D01*
X202377Y254737D01*
X202660Y254314D01*
X203083Y254031D01*
X203583Y253932D01*
X204082Y254031D01*
X204505Y254314D01*
X204788Y254737D01*
X204887Y255236D01*
X204788Y255736D01*
X204505Y256159D01*
X204082Y256442D01*
X203583Y256541D01*
D02*
G37*
G36*
X144528D02*
X144028Y256442D01*
X143605Y256159D01*
X143322Y255736D01*
X143223Y255236D01*
X143322Y254737D01*
X143605Y254314D01*
X144028Y254031D01*
X144528Y253932D01*
X145027Y254031D01*
X145450Y254314D01*
X145733Y254737D01*
X145832Y255236D01*
X145733Y255736D01*
X145450Y256159D01*
X145027Y256442D01*
X144528Y256541D01*
D02*
G37*
G36*
X168425Y256501D02*
X167926Y256402D01*
X167503Y256119D01*
X167220Y255696D01*
X167121Y255196D01*
X167220Y254697D01*
X167503Y254274D01*
X167926Y253991D01*
X168425Y253892D01*
X168924Y253991D01*
X169348Y254274D01*
X169631Y254697D01*
X169730Y255196D01*
X169631Y255696D01*
X169348Y256119D01*
X168924Y256402D01*
X168425Y256501D01*
D02*
G37*
G36*
X168386Y252210D02*
X167887Y252110D01*
X167463Y251828D01*
X167181Y251404D01*
X167081Y250905D01*
X167181Y250406D01*
X167463Y249983D01*
X167887Y249700D01*
X168386Y249601D01*
X168885Y249700D01*
X169308Y249983D01*
X169591Y250406D01*
X169690Y250905D01*
X169591Y251404D01*
X169308Y251828D01*
X168885Y252110D01*
X168386Y252210D01*
D02*
G37*
G36*
X68504Y250005D02*
X68005Y249906D01*
X67581Y249623D01*
X67299Y249200D01*
X67199Y248701D01*
X67299Y248201D01*
X67581Y247778D01*
X68005Y247496D01*
X68504Y247396D01*
X69003Y247496D01*
X69426Y247778D01*
X69709Y248201D01*
X69809Y248701D01*
X69709Y249200D01*
X69426Y249623D01*
X69003Y249906D01*
X68504Y250005D01*
D02*
G37*
G36*
X121063Y249769D02*
X120564Y249670D01*
X120141Y249387D01*
X119858Y248964D01*
X119758Y248465D01*
X119858Y247965D01*
X120141Y247542D01*
X120564Y247259D01*
X121063Y247160D01*
X121562Y247259D01*
X121901Y247485D01*
X122216Y247334D01*
X122263Y247290D01*
X122199Y246969D01*
X122299Y246469D01*
X122581Y246046D01*
X123005Y245763D01*
X123504Y245664D01*
X124003Y245763D01*
X124426Y246046D01*
X124709Y246469D01*
X124809Y246969D01*
X124709Y247468D01*
X124426Y247891D01*
X124003Y248174D01*
X123504Y248273D01*
X123005Y248174D01*
X122666Y247948D01*
X122351Y248099D01*
X122304Y248143D01*
X122368Y248465D01*
X122268Y248964D01*
X121985Y249387D01*
X121562Y249670D01*
X121063Y249769D01*
D02*
G37*
G36*
X198898Y247997D02*
X198398Y247898D01*
X197975Y247615D01*
X197692Y247192D01*
X197593Y246693D01*
X197692Y246194D01*
X197834Y245982D01*
X197597Y245628D01*
X197559Y245635D01*
X197106Y245545D01*
X196984Y245656D01*
X196852Y245866D01*
X197071Y246194D01*
X197171Y246693D01*
X197071Y247192D01*
X196789Y247615D01*
X196365Y247898D01*
X195866Y247997D01*
X195367Y247898D01*
X194944Y247615D01*
X194661Y247192D01*
X194610Y246937D01*
X194209D01*
X194158Y247192D01*
X193875Y247615D01*
X193452Y247898D01*
X192953Y247997D01*
X192454Y247898D01*
X192030Y247615D01*
X191747Y247192D01*
X191648Y246693D01*
X191747Y246194D01*
X192030Y245770D01*
X192454Y245488D01*
X192953Y245388D01*
X193452Y245488D01*
X193875Y245770D01*
X194158Y246194D01*
X194209Y246449D01*
X194610D01*
X194661Y246194D01*
X194779Y246016D01*
X194598Y245579D01*
X194383Y245536D01*
X193959Y245253D01*
X193677Y244830D01*
X193577Y244331D01*
X193677Y243831D01*
X193959Y243408D01*
X194383Y243125D01*
X194882Y243026D01*
X195381Y243125D01*
X195804Y243408D01*
X196002Y243704D01*
X196023Y243711D01*
X196418D01*
X196439Y243704D01*
X196637Y243408D01*
X197060Y243125D01*
X197559Y243026D01*
X198058Y243125D01*
X198482Y243408D01*
X198764Y243831D01*
X198864Y244331D01*
X198764Y244830D01*
X198623Y245042D01*
X198860Y245396D01*
X198898Y245388D01*
X199397Y245488D01*
X199820Y245770D01*
X200103Y246194D01*
X200202Y246693D01*
X200103Y247192D01*
X199820Y247615D01*
X199397Y247898D01*
X198898Y247997D01*
D02*
G37*
G36*
X109331Y252210D02*
X108832Y252110D01*
X108408Y251828D01*
X108125Y251404D01*
X108026Y250905D01*
X108125Y250406D01*
X108408Y249983D01*
X108832Y249700D01*
X109331Y249601D01*
X109830Y249700D01*
X110253Y249983D01*
X110536Y250406D01*
X110635Y250905D01*
X110536Y251404D01*
X110253Y251828D01*
X109830Y252110D01*
X109331Y252210D01*
D02*
G37*
G36*
X91693Y251738D02*
X91194Y251638D01*
X90771Y251356D01*
X90488Y250932D01*
X90388Y250433D01*
X90488Y249934D01*
X90771Y249511D01*
X91194Y249228D01*
X91693Y249128D01*
X92192Y249228D01*
X92615Y249511D01*
X92898Y249934D01*
X92998Y250433D01*
X92898Y250932D01*
X92615Y251356D01*
X92192Y251638D01*
X91693Y251738D01*
D02*
G37*
G36*
X159823Y255532D02*
X152933D01*
Y248642D01*
X159823D01*
Y255532D01*
D02*
G37*
G36*
X70382Y260592D02*
X69883Y260493D01*
X69459Y260210D01*
X69177Y259787D01*
X69077Y259287D01*
X69177Y258788D01*
X69459Y258365D01*
X69883Y258082D01*
X70382Y257983D01*
X70881Y258082D01*
X71304Y258365D01*
X71587Y258788D01*
X71687Y259287D01*
X71587Y259787D01*
X71304Y260210D01*
X70881Y260493D01*
X70382Y260592D01*
D02*
G37*
G36*
X147441Y267171D02*
X146942Y267071D01*
X146519Y266789D01*
X146236Y266365D01*
X146136Y265866D01*
X146236Y265367D01*
X146519Y264944D01*
X146942Y264661D01*
X147441Y264562D01*
X147940Y264661D01*
X148363Y264944D01*
X148646Y265367D01*
X148746Y265866D01*
X148646Y266365D01*
X148363Y266789D01*
X147940Y267071D01*
X147441Y267171D01*
D02*
G37*
G36*
X106417D02*
X105918Y267071D01*
X105495Y266789D01*
X105212Y266365D01*
X105113Y265866D01*
X105212Y265367D01*
X105495Y264944D01*
X105918Y264661D01*
X106417Y264562D01*
X106917Y264661D01*
X107340Y264944D01*
X107623Y265367D01*
X107722Y265866D01*
X107623Y266365D01*
X107340Y266789D01*
X106917Y267071D01*
X106417Y267171D01*
D02*
G37*
G36*
X37402Y264966D02*
X36902Y264867D01*
X36479Y264584D01*
X36196Y264161D01*
X36097Y263661D01*
X36196Y263162D01*
X36479Y262739D01*
X36902Y262456D01*
X37402Y262357D01*
X37901Y262456D01*
X38324Y262739D01*
X38607Y263162D01*
X38706Y263661D01*
X38607Y264161D01*
X38324Y264584D01*
X37901Y264867D01*
X37402Y264966D01*
D02*
G37*
G36*
X79043Y267182D02*
X78544Y267083D01*
X78121Y266800D01*
X77838Y266377D01*
X77739Y265878D01*
X77838Y265379D01*
X78121Y264955D01*
X78544Y264673D01*
X79043Y264573D01*
X79542Y264673D01*
X79966Y264955D01*
X80249Y265379D01*
X80348Y265878D01*
X80249Y266377D01*
X79966Y266800D01*
X79542Y267083D01*
X79043Y267182D01*
D02*
G37*
G36*
X206496Y267171D02*
X205997Y267071D01*
X205574Y266789D01*
X205291Y266365D01*
X205191Y265866D01*
X205291Y265367D01*
X205574Y264944D01*
X205997Y264661D01*
X206496Y264562D01*
X206995Y264661D01*
X207418Y264944D01*
X207701Y265367D01*
X207801Y265866D01*
X207701Y266365D01*
X207418Y266789D01*
X206995Y267071D01*
X206496Y267171D01*
D02*
G37*
G36*
X165472D02*
X164973Y267071D01*
X164550Y266789D01*
X164267Y266365D01*
X164168Y265866D01*
X164267Y265367D01*
X164550Y264944D01*
X164973Y264661D01*
X165472Y264562D01*
X165972Y264661D01*
X166395Y264944D01*
X166678Y265367D01*
X166777Y265866D01*
X166678Y266365D01*
X166395Y266789D01*
X165972Y267071D01*
X165472Y267171D01*
D02*
G37*
G36*
X95886Y262624D02*
X95387Y262524D01*
X94963Y262241D01*
X94681Y261818D01*
X94581Y261319D01*
X94681Y260820D01*
X94963Y260396D01*
X95387Y260114D01*
X95886Y260014D01*
X96385Y260114D01*
X96808Y260396D01*
X97091Y260820D01*
X97190Y261319D01*
X97091Y261818D01*
X96808Y262241D01*
X96385Y262524D01*
X95886Y262624D01*
D02*
G37*
G36*
X106299Y261541D02*
X105800Y261441D01*
X105377Y261159D01*
X105094Y260736D01*
X104995Y260236D01*
X105094Y259737D01*
X105377Y259314D01*
X105800Y259031D01*
X106299Y258932D01*
X106799Y259031D01*
X107222Y259314D01*
X107504Y259737D01*
X107604Y260236D01*
X107504Y260736D01*
X107222Y261159D01*
X106799Y261441D01*
X106299Y261541D01*
D02*
G37*
G36*
X156378Y265859D02*
X155402Y265731D01*
X154492Y265354D01*
X153710Y264754D01*
X153111Y263973D01*
X152734Y263063D01*
X152605Y262087D01*
X152734Y261110D01*
X153111Y260200D01*
X153710Y259419D01*
X154492Y258820D01*
X155402Y258443D01*
X156378Y258314D01*
X157354Y258443D01*
X158264Y258820D01*
X159046Y259419D01*
X159645Y260200D01*
X160022Y261110D01*
X160150Y262087D01*
X160022Y263063D01*
X159645Y263973D01*
X159046Y264754D01*
X158264Y265354D01*
X157354Y265731D01*
X156378Y265859D01*
D02*
G37*
G36*
X79043Y260592D02*
X78544Y260493D01*
X78121Y260210D01*
X77838Y259787D01*
X77739Y259287D01*
X77838Y258788D01*
X78121Y258365D01*
X78544Y258082D01*
X79043Y257983D01*
X79542Y258082D01*
X79966Y258365D01*
X80249Y258788D01*
X80348Y259287D01*
X80249Y259787D01*
X79966Y260210D01*
X79542Y260493D01*
X79043Y260592D01*
D02*
G37*
G36*
X206378Y261541D02*
X205879Y261441D01*
X205455Y261159D01*
X205173Y260736D01*
X205073Y260236D01*
X205173Y259737D01*
X205455Y259314D01*
X205879Y259031D01*
X206378Y258932D01*
X206877Y259031D01*
X207300Y259314D01*
X207583Y259737D01*
X207682Y260236D01*
X207583Y260736D01*
X207300Y261159D01*
X206877Y261441D01*
X206378Y261541D01*
D02*
G37*
G36*
X165354D02*
X164855Y261441D01*
X164432Y261159D01*
X164149Y260736D01*
X164050Y260236D01*
X164149Y259737D01*
X164432Y259314D01*
X164855Y259031D01*
X165354Y258932D01*
X165854Y259031D01*
X166277Y259314D01*
X166560Y259737D01*
X166659Y260236D01*
X166560Y260736D01*
X166277Y261159D01*
X165854Y261441D01*
X165354Y261541D01*
D02*
G37*
G36*
X147323D02*
X146824Y261441D01*
X146400Y261159D01*
X146118Y260736D01*
X146018Y260236D01*
X146118Y259737D01*
X146400Y259314D01*
X146824Y259031D01*
X147323Y258932D01*
X147822Y259031D01*
X148245Y259314D01*
X148528Y259737D01*
X148627Y260236D01*
X148528Y260736D01*
X148245Y261159D01*
X147822Y261441D01*
X147323Y261541D01*
D02*
G37*
G36*
X65709Y235557D02*
X65209Y235457D01*
X64786Y235174D01*
X64503Y234751D01*
X64404Y234252D01*
X64503Y233753D01*
X64786Y233330D01*
X65209Y233047D01*
X65709Y232947D01*
X66208Y233047D01*
X66631Y233330D01*
X66914Y233753D01*
X67013Y234252D01*
X66914Y234751D01*
X66631Y235174D01*
X66208Y235457D01*
X65709Y235557D01*
D02*
G37*
G36*
X137677Y233903D02*
X137178Y233804D01*
X136755Y233521D01*
X136472Y233098D01*
X136373Y232598D01*
X136472Y232099D01*
X136755Y231676D01*
X137178Y231393D01*
X137677Y231294D01*
X138176Y231393D01*
X138600Y231676D01*
X138882Y232099D01*
X138982Y232598D01*
X138882Y233098D01*
X138600Y233521D01*
X138176Y233804D01*
X137677Y233903D01*
D02*
G37*
G36*
X114134Y235931D02*
X113635Y235831D01*
X113211Y235548D01*
X112929Y235125D01*
X112829Y234626D01*
X112929Y234127D01*
X113177Y233755D01*
X113215Y233588D01*
Y233419D01*
X113177Y233253D01*
X112929Y232881D01*
X112829Y232382D01*
X112929Y231883D01*
X113211Y231459D01*
X113635Y231177D01*
X114134Y231077D01*
X114633Y231177D01*
X115056Y231459D01*
X115339Y231883D01*
X115438Y232382D01*
X115339Y232881D01*
X115091Y233253D01*
X115052Y233419D01*
Y233588D01*
X115091Y233755D01*
X115339Y234127D01*
X115438Y234626D01*
X115339Y235125D01*
X115056Y235548D01*
X114633Y235831D01*
X114134Y235931D01*
D02*
G37*
G36*
X176496Y238627D02*
X175997Y238528D01*
X175574Y238245D01*
X175291Y237822D01*
X175191Y237323D01*
X175291Y236824D01*
X175574Y236400D01*
X175997Y236118D01*
X176496Y236018D01*
X176995Y236118D01*
X177418Y236400D01*
X177701Y236824D01*
X177801Y237323D01*
X177701Y237822D01*
X177418Y238245D01*
X176995Y238528D01*
X176496Y238627D01*
D02*
G37*
G36*
X84606Y237053D02*
X84107Y236953D01*
X83684Y236670D01*
X83401Y236247D01*
X83302Y235748D01*
X83401Y235249D01*
X83684Y234826D01*
X84107Y234543D01*
X84606Y234443D01*
X85106Y234543D01*
X85529Y234826D01*
X85812Y235249D01*
X85911Y235748D01*
X85812Y236247D01*
X85529Y236670D01*
X85106Y236953D01*
X84606Y237053D01*
D02*
G37*
G36*
X158504Y235950D02*
X158005Y235851D01*
X157581Y235568D01*
X157299Y235145D01*
X157199Y234646D01*
X157299Y234146D01*
X157581Y233723D01*
X158005Y233440D01*
X158504Y233341D01*
X159003Y233440D01*
X159426Y233723D01*
X159709Y234146D01*
X159809Y234646D01*
X159709Y235145D01*
X159426Y235568D01*
X159003Y235851D01*
X158504Y235950D01*
D02*
G37*
G36*
X198268Y233667D02*
X197768Y233568D01*
X197345Y233285D01*
X197062Y232861D01*
X196963Y232362D01*
X197062Y231863D01*
X197345Y231440D01*
X197768Y231157D01*
X198268Y231058D01*
X198767Y231157D01*
X199190Y231440D01*
X199473Y231863D01*
X199572Y232362D01*
X199473Y232861D01*
X199190Y233285D01*
X198767Y233568D01*
X198268Y233667D01*
D02*
G37*
G36*
X89567Y232643D02*
X89068Y232544D01*
X88644Y232261D01*
X88362Y231838D01*
X88262Y231339D01*
X88362Y230839D01*
X88644Y230416D01*
X89068Y230133D01*
X89567Y230034D01*
X90066Y230133D01*
X90489Y230416D01*
X90772Y230839D01*
X90872Y231339D01*
X90772Y231838D01*
X90489Y232261D01*
X90066Y232544D01*
X89567Y232643D01*
D02*
G37*
G36*
X184488Y232486D02*
X183989Y232386D01*
X183566Y232104D01*
X183283Y231680D01*
X183184Y231181D01*
X183283Y230682D01*
X183566Y230259D01*
X183989Y229976D01*
X184488Y229876D01*
X184987Y229976D01*
X185411Y230259D01*
X185694Y230682D01*
X185793Y231181D01*
X185694Y231680D01*
X185411Y232104D01*
X184987Y232386D01*
X184488Y232486D01*
D02*
G37*
G36*
X107874Y232407D02*
X107375Y232308D01*
X106951Y232025D01*
X106669Y231602D01*
X106569Y231102D01*
X106669Y230603D01*
X106951Y230180D01*
X107375Y229897D01*
X107874Y229798D01*
X108373Y229897D01*
X108797Y230180D01*
X109079Y230603D01*
X109179Y231102D01*
X109079Y231602D01*
X108797Y232025D01*
X108373Y232308D01*
X107874Y232407D01*
D02*
G37*
G36*
X78425Y233234D02*
X77926Y233134D01*
X77503Y232852D01*
X77220Y232428D01*
X77121Y231929D01*
X77220Y231430D01*
X77503Y231007D01*
X77926Y230724D01*
X78425Y230625D01*
X78924Y230724D01*
X79348Y231007D01*
X79631Y231430D01*
X79730Y231929D01*
X79631Y232428D01*
X79348Y232852D01*
X78924Y233134D01*
X78425Y233234D01*
D02*
G37*
G36*
X147913Y232801D02*
X147414Y232701D01*
X146991Y232418D01*
X146708Y231995D01*
X146609Y231496D01*
X146708Y230997D01*
X146991Y230574D01*
X147414Y230291D01*
X147913Y230191D01*
X148413Y230291D01*
X148836Y230574D01*
X149119Y230997D01*
X149218Y231496D01*
X149119Y231995D01*
X148836Y232418D01*
X148413Y232701D01*
X147913Y232801D01*
D02*
G37*
G36*
X152126Y232722D02*
X151627Y232623D01*
X151204Y232340D01*
X150921Y231917D01*
X150821Y231417D01*
X150921Y230918D01*
X151204Y230495D01*
X151627Y230212D01*
X152126Y230113D01*
X152625Y230212D01*
X153049Y230495D01*
X153331Y230918D01*
X153431Y231417D01*
X153331Y231917D01*
X153049Y232340D01*
X152625Y232623D01*
X152126Y232722D01*
D02*
G37*
G36*
X88189Y238824D02*
X87690Y238725D01*
X87266Y238442D01*
X86984Y238019D01*
X86884Y237520D01*
X86984Y237020D01*
X87266Y236597D01*
X87690Y236314D01*
X88189Y236215D01*
X88688Y236314D01*
X89112Y236597D01*
X89394Y237020D01*
X89494Y237520D01*
X89394Y238019D01*
X89112Y238442D01*
X88688Y238725D01*
X88189Y238824D01*
D02*
G37*
G36*
X113150Y245753D02*
X112650Y245654D01*
X112227Y245371D01*
X111944Y244948D01*
X111845Y244449D01*
X111944Y243950D01*
X112227Y243526D01*
X112650Y243244D01*
X113150Y243144D01*
X113649Y243244D01*
X114072Y243526D01*
X114355Y243950D01*
X114454Y244449D01*
X114355Y244948D01*
X114072Y245371D01*
X113649Y245654D01*
X113150Y245753D01*
D02*
G37*
G36*
X179842Y243824D02*
X179343Y243725D01*
X178920Y243442D01*
X178637Y243019D01*
X178538Y242520D01*
X178637Y242020D01*
X178920Y241597D01*
X179343Y241314D01*
X179842Y241215D01*
X180342Y241314D01*
X180765Y241597D01*
X181048Y242020D01*
X181147Y242520D01*
X181048Y243019D01*
X180765Y243442D01*
X180342Y243725D01*
X179842Y243824D01*
D02*
G37*
G36*
X176535Y242840D02*
X176036Y242741D01*
X175613Y242458D01*
X175330Y242035D01*
X175231Y241535D01*
X175330Y241036D01*
X175613Y240613D01*
X176036Y240330D01*
X176535Y240231D01*
X177035Y240330D01*
X177458Y240613D01*
X177741Y241036D01*
X177840Y241535D01*
X177741Y242035D01*
X177458Y242458D01*
X177035Y242741D01*
X176535Y242840D01*
D02*
G37*
G36*
X140433Y248076D02*
X139934Y247977D01*
X139511Y247694D01*
X139228Y247271D01*
X139128Y246772D01*
X139228Y246272D01*
X139511Y245849D01*
X139934Y245566D01*
X140433Y245467D01*
X140932Y245566D01*
X141356Y245849D01*
X141638Y246272D01*
X141738Y246772D01*
X141638Y247271D01*
X141356Y247694D01*
X140932Y247977D01*
X140433Y248076D01*
D02*
G37*
G36*
X180866Y249887D02*
X180367Y249788D01*
X179944Y249505D01*
X179661Y249082D01*
X179562Y248583D01*
X179661Y248083D01*
X179944Y247660D01*
X180367Y247377D01*
X180866Y247278D01*
X181289Y247362D01*
X181464Y247237D01*
X181469Y247232D01*
X181595Y247057D01*
X181510Y246634D01*
X181610Y246135D01*
X181893Y245711D01*
X182316Y245429D01*
X182815Y245329D01*
X183314Y245429D01*
X183737Y245711D01*
X184020Y246135D01*
X184120Y246634D01*
X184020Y247133D01*
X183737Y247556D01*
X183314Y247839D01*
X182815Y247938D01*
X182392Y247854D01*
X182217Y247979D01*
X182212Y247984D01*
X182087Y248160D01*
X182171Y248583D01*
X182071Y249082D01*
X181789Y249505D01*
X181365Y249788D01*
X180866Y249887D01*
D02*
G37*
G36*
X176260Y246147D02*
X175761Y246048D01*
X175337Y245765D01*
X175055Y245342D01*
X174955Y244843D01*
X174980Y244717D01*
X174932Y244673D01*
X174618Y244522D01*
X174279Y244749D01*
X173779Y244848D01*
X173280Y244749D01*
X172857Y244466D01*
X172574Y244042D01*
X172475Y243543D01*
X172574Y243044D01*
X172857Y242621D01*
X173280Y242338D01*
X173779Y242239D01*
X174279Y242338D01*
X174702Y242621D01*
X174985Y243044D01*
X175084Y243543D01*
X175059Y243668D01*
X175108Y243712D01*
X175422Y243864D01*
X175761Y243637D01*
X176260Y243538D01*
X176759Y243637D01*
X177182Y243920D01*
X177465Y244343D01*
X177564Y244843D01*
X177465Y245342D01*
X177182Y245765D01*
X176759Y246048D01*
X176260Y246147D01*
D02*
G37*
G36*
X77244Y242407D02*
X76745Y242308D01*
X76322Y242025D01*
X76039Y241602D01*
X75940Y241102D01*
X76039Y240603D01*
X76322Y240180D01*
X76745Y239897D01*
X77244Y239798D01*
X77743Y239897D01*
X78167Y240180D01*
X78449Y240603D01*
X78549Y241102D01*
X78449Y241602D01*
X78167Y242025D01*
X77743Y242308D01*
X77244Y242407D01*
D02*
G37*
G36*
X174173Y240517D02*
X173674Y240418D01*
X173251Y240135D01*
X172968Y239712D01*
X172869Y239213D01*
X172968Y238713D01*
X173251Y238290D01*
X173674Y238007D01*
X174173Y237908D01*
X174672Y238007D01*
X175096Y238290D01*
X175379Y238713D01*
X175478Y239213D01*
X175379Y239712D01*
X175096Y240135D01*
X174672Y240418D01*
X174173Y240517D01*
D02*
G37*
G36*
X91693D02*
X91194Y240418D01*
X90770Y240135D01*
X90488Y239712D01*
X90388Y239213D01*
X90488Y238713D01*
X90770Y238290D01*
X91194Y238007D01*
X91693Y237908D01*
X92192Y238007D01*
X92615Y238290D01*
X92898Y238713D01*
X92997Y239213D01*
X92898Y239712D01*
X92615Y240135D01*
X92192Y240418D01*
X91693Y240517D01*
D02*
G37*
G36*
X61890Y238903D02*
X61391Y238804D01*
X60967Y238521D01*
X60685Y238098D01*
X60585Y237598D01*
X60685Y237099D01*
X60967Y236676D01*
X61391Y236393D01*
X61890Y236294D01*
X62389Y236393D01*
X62812Y236676D01*
X63095Y237099D01*
X63194Y237598D01*
X63095Y238098D01*
X62812Y238521D01*
X62389Y238804D01*
X61890Y238903D01*
D02*
G37*
G36*
X73701Y242368D02*
X73202Y242268D01*
X72778Y241986D01*
X72496Y241562D01*
X72396Y241063D01*
X72496Y240564D01*
X72778Y240141D01*
X73202Y239858D01*
X73701Y239758D01*
X74200Y239858D01*
X74623Y240141D01*
X74906Y240564D01*
X75005Y241063D01*
X74906Y241562D01*
X74623Y241986D01*
X74200Y242268D01*
X73701Y242368D01*
D02*
G37*
G36*
X119449Y242289D02*
X118950Y242190D01*
X118526Y241907D01*
X118244Y241483D01*
X118144Y240984D01*
X118244Y240485D01*
X118526Y240062D01*
X118950Y239779D01*
X119449Y239680D01*
X119948Y239779D01*
X120371Y240062D01*
X120536Y240308D01*
X120541Y240310D01*
X120986Y240289D01*
X121164Y240022D01*
X121587Y239740D01*
X122087Y239640D01*
X122586Y239740D01*
X123009Y240022D01*
X123292Y240446D01*
X123391Y240945D01*
X123292Y241444D01*
X123009Y241867D01*
X122586Y242150D01*
X122087Y242249D01*
X121587Y242150D01*
X121164Y241867D01*
X121000Y241621D01*
X120994Y241619D01*
X120549Y241640D01*
X120371Y241907D01*
X119948Y242190D01*
X119449Y242289D01*
D02*
G37*
G36*
X169606Y241305D02*
X169107Y241205D01*
X168684Y240922D01*
X168401Y240499D01*
X168302Y240000D01*
X168338Y239815D01*
X168003Y239484D01*
X167756Y239533D01*
X167257Y239434D01*
X167056Y239299D01*
X166992Y239330D01*
X166737Y239560D01*
X166816Y239961D01*
X166717Y240460D01*
X166434Y240883D01*
X166011Y241166D01*
X165512Y241265D01*
X165013Y241166D01*
X164589Y240883D01*
X164306Y240460D01*
X164207Y239961D01*
X164306Y239461D01*
X164589Y239038D01*
X165013Y238755D01*
X165512Y238656D01*
X166011Y238755D01*
X166212Y238890D01*
X166276Y238859D01*
X166531Y238629D01*
X166451Y238228D01*
X166551Y237729D01*
X166833Y237306D01*
X167257Y237023D01*
X167756Y236924D01*
X168255Y237023D01*
X168678Y237306D01*
X168961Y237729D01*
X169061Y238228D01*
X169024Y238413D01*
X169359Y238745D01*
X169606Y238695D01*
X170106Y238795D01*
X170529Y239077D01*
X170812Y239501D01*
X170911Y240000D01*
X170812Y240499D01*
X170529Y240922D01*
X170106Y241205D01*
X169606Y241305D01*
D02*
G37*
G36*
X48327Y147387D02*
X47828Y147288D01*
X47404Y147005D01*
X47122Y146582D01*
X47022Y146083D01*
X47122Y145583D01*
X47404Y145160D01*
X47828Y144877D01*
X48327Y144778D01*
X48826Y144877D01*
X49249Y145160D01*
X49532Y145583D01*
X49631Y146083D01*
X49532Y146582D01*
X49249Y147005D01*
X48826Y147288D01*
X48327Y147387D01*
D02*
G37*
G36*
X176496Y147013D02*
X175997Y146914D01*
X175574Y146631D01*
X175291Y146208D01*
X175191Y145709D01*
X175291Y145209D01*
X175574Y144786D01*
X175997Y144503D01*
X176496Y144404D01*
X176995Y144503D01*
X177418Y144786D01*
X177701Y145209D01*
X177801Y145709D01*
X177701Y146208D01*
X177418Y146631D01*
X176995Y146914D01*
X176496Y147013D01*
D02*
G37*
G36*
X124764Y146501D02*
X124265Y146402D01*
X123841Y146119D01*
X123558Y145696D01*
X123459Y145197D01*
X123558Y144698D01*
X123841Y144274D01*
X124265Y143992D01*
X124764Y143892D01*
X125263Y143992D01*
X125686Y144274D01*
X125969Y144698D01*
X126068Y145197D01*
X125969Y145696D01*
X125686Y146119D01*
X125263Y146402D01*
X124764Y146501D01*
D02*
G37*
G36*
X10000Y153772D02*
X9024Y153644D01*
X8114Y153267D01*
X7333Y152667D01*
X6733Y151886D01*
X6356Y150976D01*
X6228Y150000D01*
X6356Y149024D01*
X6733Y148114D01*
X7333Y147333D01*
X8114Y146733D01*
X9024Y146356D01*
X10000Y146228D01*
X10976Y146356D01*
X11886Y146733D01*
X12667Y147333D01*
X13267Y148114D01*
X13644Y149024D01*
X13772Y150000D01*
X13644Y150976D01*
X13267Y151886D01*
X12667Y152667D01*
X11886Y153267D01*
X10976Y153644D01*
X10000Y153772D01*
D02*
G37*
G36*
X104331Y150635D02*
X103832Y150536D01*
X103408Y150253D01*
X103125Y149830D01*
X103026Y149331D01*
X103125Y148831D01*
X103408Y148408D01*
X103657Y148242D01*
X103720Y147832D01*
X103699Y147776D01*
X103440Y147389D01*
X103341Y146890D01*
X103440Y146390D01*
X103723Y145967D01*
X104146Y145685D01*
X104646Y145585D01*
X105145Y145685D01*
X105568Y145967D01*
X105851Y146390D01*
X105950Y146890D01*
X105851Y147389D01*
X105568Y147812D01*
X105319Y147979D01*
X105256Y148389D01*
X105277Y148444D01*
X105536Y148831D01*
X105635Y149331D01*
X105536Y149830D01*
X105253Y150253D01*
X104830Y150536D01*
X104331Y150635D01*
D02*
G37*
G36*
X57579Y147387D02*
X57079Y147288D01*
X56656Y147005D01*
X56374Y146582D01*
X56274Y146083D01*
X56374Y145583D01*
X56656Y145160D01*
X57079Y144877D01*
X57579Y144778D01*
X58078Y144877D01*
X58501Y145160D01*
X58784Y145583D01*
X58883Y146083D01*
X58784Y146582D01*
X58501Y147005D01*
X58078Y147288D01*
X57579Y147387D01*
D02*
G37*
G36*
X109016Y146501D02*
X108517Y146402D01*
X108093Y146119D01*
X107810Y145696D01*
X107711Y145197D01*
X107810Y144698D01*
X108093Y144274D01*
X108517Y143992D01*
X109016Y143892D01*
X109515Y143992D01*
X109938Y144274D01*
X110221Y144698D01*
X110320Y145197D01*
X110221Y145696D01*
X109938Y146119D01*
X109515Y146402D01*
X109016Y146501D01*
D02*
G37*
G36*
X159606Y145045D02*
X159107Y144945D01*
X158684Y144663D01*
X158401Y144239D01*
X158302Y143740D01*
X158401Y143241D01*
X158684Y142818D01*
X159107Y142535D01*
X159606Y142436D01*
X160106Y142535D01*
X160529Y142818D01*
X160812Y143241D01*
X160911Y143740D01*
X160812Y144239D01*
X160529Y144663D01*
X160106Y144945D01*
X159606Y145045D01*
D02*
G37*
G36*
X150630Y145005D02*
X150131Y144906D01*
X149707Y144623D01*
X149425Y144200D01*
X149325Y143701D01*
X149425Y143201D01*
X149707Y142778D01*
X150131Y142496D01*
X150630Y142396D01*
X151129Y142496D01*
X151552Y142778D01*
X151835Y143201D01*
X151935Y143701D01*
X151835Y144200D01*
X151552Y144623D01*
X151129Y144906D01*
X150630Y145005D01*
D02*
G37*
G36*
X200197Y149737D02*
X199221Y149608D01*
X198311Y149232D01*
X197529Y148632D01*
X196930Y147851D01*
X196553Y146941D01*
X196424Y145965D01*
X196553Y144988D01*
X196930Y144078D01*
X197529Y143297D01*
X198311Y142698D01*
X199221Y142321D01*
X200197Y142192D01*
X201173Y142321D01*
X202083Y142698D01*
X202864Y143297D01*
X203464Y144078D01*
X203841Y144988D01*
X203969Y145965D01*
X203841Y146941D01*
X203464Y147851D01*
X202864Y148632D01*
X202083Y149232D01*
X201173Y149608D01*
X200197Y149737D01*
D02*
G37*
G36*
X93268Y146501D02*
X92769Y146402D01*
X92345Y146119D01*
X92062Y145696D01*
X91963Y145197D01*
X92062Y144698D01*
X92345Y144274D01*
X92769Y143992D01*
X93268Y143892D01*
X93767Y143992D01*
X94190Y144274D01*
X94473Y144698D01*
X94572Y145197D01*
X94473Y145696D01*
X94190Y146119D01*
X93767Y146402D01*
X93268Y146501D01*
D02*
G37*
G36*
X66023Y148982D02*
X65524Y148882D01*
X65101Y148600D01*
X64818Y148177D01*
X64719Y147677D01*
X64818Y147178D01*
X65101Y146755D01*
X65524Y146472D01*
X65953Y146387D01*
X66050Y146164D01*
X66072Y145992D01*
X65967Y145923D01*
X65684Y145499D01*
X65585Y145000D01*
X65684Y144501D01*
X65967Y144078D01*
X66391Y143795D01*
X66890Y143695D01*
X67389Y143795D01*
X67812Y144078D01*
X68095Y144501D01*
X68194Y145000D01*
X68095Y145499D01*
X67812Y145923D01*
X67389Y146205D01*
X66960Y146291D01*
X66863Y146514D01*
X66842Y146685D01*
X66946Y146755D01*
X67229Y147178D01*
X67328Y147677D01*
X67229Y148177D01*
X66946Y148600D01*
X66523Y148882D01*
X66023Y148982D01*
D02*
G37*
G36*
X101339Y146108D02*
X100839Y146008D01*
X100416Y145726D01*
X100133Y145302D01*
X100034Y144803D01*
X100133Y144304D01*
X100416Y143881D01*
X100839Y143598D01*
X101339Y143499D01*
X101838Y143598D01*
X102261Y143881D01*
X102544Y144304D01*
X102643Y144803D01*
X102544Y145302D01*
X102261Y145726D01*
X101838Y146008D01*
X101339Y146108D01*
D02*
G37*
G36*
X172480Y150596D02*
X171981Y150497D01*
X171558Y150214D01*
X171275Y149791D01*
X171176Y149291D01*
X171275Y148792D01*
X171558Y148369D01*
X171981Y148086D01*
X172480Y147987D01*
X172979Y148086D01*
X173403Y148369D01*
X173686Y148792D01*
X173785Y149291D01*
X173686Y149791D01*
X173403Y150214D01*
X172979Y150497D01*
X172480Y150596D01*
D02*
G37*
G36*
X57579Y159395D02*
X57079Y159296D01*
X56656Y159013D01*
X56374Y158590D01*
X56274Y158091D01*
X56374Y157591D01*
X56656Y157168D01*
X57079Y156885D01*
X57579Y156786D01*
X58078Y156885D01*
X58501Y157168D01*
X58784Y157591D01*
X58883Y158091D01*
X58784Y158590D01*
X58501Y159013D01*
X58078Y159296D01*
X57579Y159395D01*
D02*
G37*
G36*
X48327D02*
X47828Y159296D01*
X47404Y159013D01*
X47122Y158590D01*
X47022Y158091D01*
X47122Y157591D01*
X47404Y157168D01*
X47828Y156885D01*
X48327Y156786D01*
X48826Y156885D01*
X49249Y157168D01*
X49532Y157591D01*
X49631Y158091D01*
X49532Y158590D01*
X49249Y159013D01*
X48826Y159296D01*
X48327Y159395D01*
D02*
G37*
G36*
X101811Y159100D02*
X101312Y159001D01*
X100889Y158718D01*
X100606Y158294D01*
X100506Y157795D01*
X100606Y157296D01*
X100889Y156873D01*
X101312Y156590D01*
X101811Y156491D01*
X102310Y156590D01*
X102620Y156797D01*
X102975Y156701D01*
X103051Y156647D01*
X103086Y156469D01*
X103369Y156046D01*
X103792Y155763D01*
X104291Y155664D01*
X104791Y155763D01*
X105214Y156046D01*
X105497Y156469D01*
X105596Y156968D01*
X105594Y156978D01*
X105965Y157132D01*
X106164Y156833D01*
X106587Y156551D01*
X107087Y156451D01*
X107586Y156551D01*
X108009Y156833D01*
X108292Y157257D01*
X108391Y157756D01*
X108292Y158255D01*
X108009Y158678D01*
X107586Y158961D01*
X107087Y159061D01*
X106587Y158961D01*
X106164Y158678D01*
X105881Y158255D01*
X105782Y157756D01*
X105784Y157746D01*
X105413Y157593D01*
X105214Y157891D01*
X104791Y158174D01*
X104291Y158273D01*
X103792Y158174D01*
X103483Y157967D01*
X103127Y158063D01*
X103052Y158116D01*
X103016Y158294D01*
X102734Y158718D01*
X102310Y159001D01*
X101811Y159100D01*
D02*
G37*
G36*
X69567Y162368D02*
X69068Y162268D01*
X68644Y161986D01*
X68362Y161562D01*
X68262Y161063D01*
X68362Y160564D01*
X68644Y160141D01*
X69068Y159858D01*
X69567Y159758D01*
X70066Y159858D01*
X70489Y160141D01*
X70772Y160564D01*
X70872Y161063D01*
X70772Y161562D01*
X70489Y161986D01*
X70066Y162268D01*
X69567Y162368D01*
D02*
G37*
G36*
X38937Y162151D02*
X38438Y162052D01*
X38015Y161769D01*
X37732Y161346D01*
X37633Y160847D01*
X37732Y160347D01*
X38015Y159924D01*
X38438Y159641D01*
X38937Y159542D01*
X39436Y159641D01*
X39860Y159924D01*
X40142Y160347D01*
X40242Y160847D01*
X40142Y161346D01*
X39860Y161769D01*
X39436Y162052D01*
X38937Y162151D01*
D02*
G37*
G36*
X149173Y161580D02*
X148674Y161481D01*
X148251Y161198D01*
X147968Y160775D01*
X147869Y160276D01*
X147968Y159776D01*
X148251Y159353D01*
X148674Y159070D01*
X149173Y158971D01*
X149672Y159070D01*
X150096Y159353D01*
X150379Y159776D01*
X150478Y160276D01*
X150379Y160775D01*
X150096Y161198D01*
X149672Y161481D01*
X149173Y161580D01*
D02*
G37*
G36*
X13740Y163740D02*
X6260D01*
Y156260D01*
X13740D01*
Y163740D01*
D02*
G37*
G36*
X200197Y159737D02*
X199221Y159608D01*
X198311Y159231D01*
X197529Y158632D01*
X196930Y157851D01*
X196553Y156941D01*
X196424Y155965D01*
X196553Y154988D01*
X196930Y154078D01*
X197529Y153297D01*
X198311Y152698D01*
X199221Y152321D01*
X200197Y152192D01*
X201173Y152321D01*
X202083Y152698D01*
X202864Y153297D01*
X203464Y154078D01*
X203841Y154988D01*
X203969Y155965D01*
X203841Y156941D01*
X203464Y157851D01*
X202864Y158632D01*
X202083Y159231D01*
X201173Y159608D01*
X200197Y159737D01*
D02*
G37*
G36*
X128937Y152289D02*
X128438Y152190D01*
X128015Y151907D01*
X127732Y151484D01*
X127632Y150984D01*
X127732Y150485D01*
X128015Y150062D01*
X128438Y149779D01*
X128937Y149680D01*
X129436Y149779D01*
X129859Y150062D01*
X130142Y150485D01*
X130242Y150984D01*
X130142Y151484D01*
X129859Y151907D01*
X129436Y152190D01*
X128937Y152289D01*
D02*
G37*
G36*
X39106Y151671D02*
X38607Y151572D01*
X38184Y151289D01*
X37901Y150865D01*
X37802Y150366D01*
X37901Y149867D01*
X38184Y149444D01*
X38607Y149161D01*
X39106Y149062D01*
X39606Y149161D01*
X40029Y149444D01*
X40312Y149867D01*
X40411Y150366D01*
X40312Y150865D01*
X40029Y151289D01*
X39606Y151572D01*
X39106Y151671D01*
D02*
G37*
G36*
X169724Y158942D02*
X169225Y158843D01*
X168802Y158560D01*
X168519Y158137D01*
X168420Y157638D01*
X168519Y157139D01*
X168802Y156715D01*
X168855Y156680D01*
Y156378D01*
X168813Y156234D01*
X168559Y155854D01*
X168459Y155354D01*
X168559Y154855D01*
X168841Y154432D01*
X169264Y154149D01*
X169764Y154050D01*
X170263Y154149D01*
X170686Y154432D01*
X170969Y154855D01*
X171068Y155354D01*
X170969Y155854D01*
X170686Y156277D01*
X170633Y156312D01*
Y156614D01*
X170675Y156758D01*
X170930Y157139D01*
X171029Y157638D01*
X170930Y158137D01*
X170647Y158560D01*
X170224Y158843D01*
X169724Y158942D01*
D02*
G37*
G36*
X185039Y155360D02*
X184540Y155260D01*
X184117Y154978D01*
X183834Y154554D01*
X183735Y154055D01*
X183834Y153556D01*
X184117Y153133D01*
X184540Y152850D01*
X185039Y152751D01*
X185539Y152850D01*
X185962Y153133D01*
X186245Y153556D01*
X186344Y154055D01*
X186245Y154554D01*
X185962Y154978D01*
X185539Y155260D01*
X185039Y155360D01*
D02*
G37*
G36*
X149961Y155242D02*
X149461Y155142D01*
X149038Y154859D01*
X148755Y154436D01*
X148656Y153937D01*
X148755Y153438D01*
X149038Y153015D01*
X149461Y152732D01*
X149961Y152632D01*
X150460Y152732D01*
X150883Y153015D01*
X151166Y153438D01*
X151265Y153937D01*
X151166Y154436D01*
X150883Y154859D01*
X150460Y155142D01*
X149961Y155242D01*
D02*
G37*
G36*
X88740Y139808D02*
X88241Y139709D01*
X87818Y139426D01*
X87535Y139003D01*
X87436Y138504D01*
X87535Y138005D01*
X87818Y137581D01*
X88241Y137299D01*
X88740Y137199D01*
X89239Y137299D01*
X89663Y137581D01*
X89946Y138005D01*
X90045Y138504D01*
X89946Y139003D01*
X89663Y139426D01*
X89239Y139709D01*
X88740Y139808D01*
D02*
G37*
G36*
X82047D02*
X81548Y139709D01*
X81125Y139426D01*
X80842Y139003D01*
X80743Y138504D01*
X80842Y138005D01*
X81125Y137581D01*
X81548Y137299D01*
X82047Y137199D01*
X82547Y137299D01*
X82970Y137581D01*
X83253Y138005D01*
X83352Y138504D01*
X83253Y139003D01*
X82970Y139426D01*
X82547Y139709D01*
X82047Y139808D01*
D02*
G37*
G36*
X62323Y139769D02*
X61824Y139670D01*
X61400Y139387D01*
X61118Y138964D01*
X61018Y138465D01*
X61118Y137965D01*
X61400Y137542D01*
X61824Y137259D01*
X62323Y137160D01*
X62822Y137259D01*
X63245Y137542D01*
X63528Y137965D01*
X63627Y138465D01*
X63528Y138964D01*
X63245Y139387D01*
X62822Y139670D01*
X62323Y139769D01*
D02*
G37*
G36*
X98189Y139808D02*
X97690Y139709D01*
X97267Y139426D01*
X96984Y139003D01*
X96884Y138504D01*
X96984Y138005D01*
X97267Y137581D01*
X97690Y137299D01*
X98189Y137199D01*
X98688Y137299D01*
X99111Y137581D01*
X99394Y138005D01*
X99494Y138504D01*
X99394Y139003D01*
X99111Y139426D01*
X98688Y139709D01*
X98189Y139808D01*
D02*
G37*
G36*
X95039D02*
X94540Y139709D01*
X94117Y139426D01*
X93834Y139003D01*
X93735Y138504D01*
X93834Y138005D01*
X94117Y137581D01*
X94540Y137299D01*
X95039Y137199D01*
X95539Y137299D01*
X95962Y137581D01*
X96245Y138005D01*
X96344Y138504D01*
X96245Y139003D01*
X95962Y139426D01*
X95539Y139709D01*
X95039Y139808D01*
D02*
G37*
G36*
X91890D02*
X91391Y139709D01*
X90967Y139426D01*
X90684Y139003D01*
X90585Y138504D01*
X90684Y138005D01*
X90967Y137581D01*
X91391Y137299D01*
X91890Y137199D01*
X92389Y137299D01*
X92812Y137581D01*
X93095Y138005D01*
X93194Y138504D01*
X93095Y139003D01*
X92812Y139426D01*
X92389Y139709D01*
X91890Y139808D01*
D02*
G37*
G36*
X10000Y143772D02*
X9024Y143644D01*
X8114Y143267D01*
X7333Y142667D01*
X6733Y141886D01*
X6356Y140976D01*
X6228Y140000D01*
X6356Y139024D01*
X6733Y138114D01*
X7333Y137332D01*
X8114Y136733D01*
X9024Y136356D01*
X10000Y136228D01*
X10976Y136356D01*
X11886Y136733D01*
X12667Y137332D01*
X13267Y138114D01*
X13644Y139024D01*
X13772Y140000D01*
X13644Y140976D01*
X13267Y141886D01*
X12667Y142667D01*
X11886Y143267D01*
X10976Y143644D01*
X10000Y143772D01*
D02*
G37*
G36*
X126142Y136659D02*
X125643Y136560D01*
X125219Y136277D01*
X124936Y135854D01*
X124837Y135354D01*
X124936Y134855D01*
X125219Y134432D01*
X125643Y134149D01*
X126142Y134050D01*
X126641Y134149D01*
X127064Y134432D01*
X127347Y134855D01*
X127446Y135354D01*
X127347Y135854D01*
X127064Y136277D01*
X126641Y136560D01*
X126142Y136659D01*
D02*
G37*
G36*
X113543D02*
X113044Y136560D01*
X112621Y136277D01*
X112338Y135854D01*
X112239Y135354D01*
X112338Y134855D01*
X112621Y134432D01*
X113044Y134149D01*
X113543Y134050D01*
X114042Y134149D01*
X114466Y134432D01*
X114749Y134855D01*
X114848Y135354D01*
X114749Y135854D01*
X114466Y136277D01*
X114042Y136560D01*
X113543Y136659D01*
D02*
G37*
G36*
X107638D02*
X107139Y136560D01*
X106715Y136277D01*
X106432Y135854D01*
X106333Y135354D01*
X106432Y134855D01*
X106715Y134432D01*
X107139Y134149D01*
X107638Y134050D01*
X108137Y134149D01*
X108560Y134432D01*
X108843Y134855D01*
X108942Y135354D01*
X108843Y135854D01*
X108560Y136277D01*
X108137Y136560D01*
X107638Y136659D01*
D02*
G37*
G36*
X141417Y137190D02*
X140918Y137091D01*
X140495Y136808D01*
X140212Y136385D01*
X140113Y135886D01*
X140212Y135387D01*
X140495Y134963D01*
X140918Y134680D01*
X141417Y134581D01*
X141917Y134680D01*
X142340Y134963D01*
X142623Y135387D01*
X142722Y135886D01*
X142623Y136385D01*
X142340Y136808D01*
X141917Y137091D01*
X141417Y137190D01*
D02*
G37*
G36*
X137441Y137151D02*
X136942Y137052D01*
X136519Y136769D01*
X136236Y136346D01*
X136136Y135846D01*
X136236Y135347D01*
X136519Y134924D01*
X136942Y134641D01*
X137441Y134542D01*
X137940Y134641D01*
X138363Y134924D01*
X138646Y135347D01*
X138745Y135846D01*
X138646Y136346D01*
X138363Y136769D01*
X137940Y137052D01*
X137441Y137151D01*
D02*
G37*
G36*
X129291Y136659D02*
X128792Y136560D01*
X128369Y136277D01*
X128086Y135854D01*
X127987Y135354D01*
X128086Y134855D01*
X128369Y134432D01*
X128792Y134149D01*
X129291Y134050D01*
X129791Y134149D01*
X130214Y134432D01*
X130497Y134855D01*
X130596Y135354D01*
X130497Y135854D01*
X130214Y136277D01*
X129791Y136560D01*
X129291Y136659D01*
D02*
G37*
G36*
X101339Y139808D02*
X100839Y139709D01*
X100416Y139426D01*
X100133Y139003D01*
X100034Y138504D01*
X100133Y138005D01*
X100416Y137581D01*
X100839Y137299D01*
X101339Y137199D01*
X101838Y137299D01*
X102261Y137581D01*
X102544Y138005D01*
X102643Y138504D01*
X102544Y139003D01*
X102261Y139426D01*
X101838Y139709D01*
X101339Y139808D01*
D02*
G37*
G36*
X98189Y142958D02*
X97690Y142859D01*
X97267Y142576D01*
X96984Y142153D01*
X96884Y141654D01*
X96984Y141154D01*
X97267Y140731D01*
X97690Y140448D01*
X98189Y140349D01*
X98688Y140448D01*
X99111Y140731D01*
X99394Y141154D01*
X99494Y141654D01*
X99394Y142153D01*
X99111Y142576D01*
X98688Y142859D01*
X98189Y142958D01*
D02*
G37*
G36*
X172441Y142801D02*
X171942Y142701D01*
X171519Y142419D01*
X171236Y141995D01*
X171136Y141496D01*
X171236Y140997D01*
X171519Y140574D01*
X171942Y140291D01*
X172441Y140191D01*
X172940Y140291D01*
X173363Y140574D01*
X173646Y140997D01*
X173746Y141496D01*
X173646Y141995D01*
X173363Y142419D01*
X172940Y142701D01*
X172441Y142801D01*
D02*
G37*
G36*
X168465Y142761D02*
X167965Y142662D01*
X167542Y142379D01*
X167259Y141956D01*
X167160Y141457D01*
X167259Y140957D01*
X167542Y140534D01*
X167965Y140251D01*
X168465Y140152D01*
X168964Y140251D01*
X169387Y140534D01*
X169670Y140957D01*
X169769Y141457D01*
X169670Y141956D01*
X169387Y142379D01*
X168964Y142662D01*
X168465Y142761D01*
D02*
G37*
G36*
X136693Y143824D02*
X136194Y143725D01*
X135770Y143442D01*
X135488Y143019D01*
X135388Y142520D01*
X135488Y142020D01*
X135770Y141597D01*
X136194Y141314D01*
X136693Y141215D01*
X137192Y141314D01*
X137615Y141597D01*
X137898Y142020D01*
X137997Y142520D01*
X137898Y143019D01*
X137615Y143442D01*
X137192Y143725D01*
X136693Y143824D01*
D02*
G37*
G36*
X116693Y142958D02*
X116194Y142859D01*
X115770Y142576D01*
X115488Y142153D01*
X115388Y141654D01*
X115488Y141154D01*
X115770Y140731D01*
X116194Y140448D01*
X116693Y140349D01*
X117192Y140448D01*
X117615Y140731D01*
X117898Y141154D01*
X117998Y141654D01*
X117898Y142153D01*
X117615Y142576D01*
X117192Y142859D01*
X116693Y142958D01*
D02*
G37*
G36*
X101339Y142958D02*
X100839Y142859D01*
X100416Y142576D01*
X100133Y142153D01*
X100034Y141654D01*
X100133Y141154D01*
X100416Y140731D01*
X100839Y140448D01*
X101339Y140349D01*
X101838Y140448D01*
X102261Y140731D01*
X102544Y141154D01*
X102643Y141654D01*
X102544Y142153D01*
X102261Y142576D01*
X101838Y142859D01*
X101339Y142958D01*
D02*
G37*
G36*
X163937Y142131D02*
X163438Y142032D01*
X163014Y141749D01*
X162732Y141326D01*
X162632Y140827D01*
X162732Y140328D01*
X163014Y139904D01*
X163438Y139621D01*
X163937Y139522D01*
X164436Y139621D01*
X164859Y139904D01*
X165142Y140328D01*
X165242Y140827D01*
X165142Y141326D01*
X164859Y141749D01*
X164436Y142032D01*
X163937Y142131D01*
D02*
G37*
G36*
X110591Y140163D02*
X110091Y140064D01*
X109668Y139781D01*
X109385Y139357D01*
X109286Y138858D01*
X109385Y138359D01*
X109668Y137936D01*
X110091Y137653D01*
X110591Y137554D01*
X111090Y137653D01*
X111513Y137936D01*
X111796Y138359D01*
X111895Y138858D01*
X111796Y139357D01*
X111513Y139781D01*
X111090Y140064D01*
X110591Y140163D01*
D02*
G37*
G36*
X122992Y139808D02*
X122493Y139709D01*
X122070Y139426D01*
X121787Y139003D01*
X121687Y138504D01*
X121787Y138005D01*
X122070Y137582D01*
X122493Y137299D01*
X122992Y137199D01*
X123491Y137299D01*
X123915Y137582D01*
X124197Y138005D01*
X124297Y138504D01*
X124197Y139003D01*
X123915Y139426D01*
X123491Y139709D01*
X122992Y139808D01*
D02*
G37*
G36*
X104488Y139808D02*
X103989Y139709D01*
X103566Y139426D01*
X103283Y139003D01*
X103184Y138504D01*
X103283Y138005D01*
X103566Y137581D01*
X103989Y137299D01*
X104488Y137199D01*
X104987Y137299D01*
X105411Y137581D01*
X105693Y138005D01*
X105793Y138504D01*
X105693Y139003D01*
X105411Y139426D01*
X104987Y139709D01*
X104488Y139808D01*
D02*
G37*
G36*
X145866Y141895D02*
X145367Y141796D01*
X144944Y141513D01*
X144661Y141090D01*
X144562Y140591D01*
X144661Y140091D01*
X144944Y139668D01*
X145367Y139385D01*
X145866Y139286D01*
X146365Y139385D01*
X146789Y139668D01*
X147071Y140091D01*
X147171Y140591D01*
X147071Y141090D01*
X146789Y141513D01*
X146365Y141796D01*
X145866Y141895D01*
D02*
G37*
G36*
X132835Y141580D02*
X132335Y141481D01*
X131912Y141198D01*
X131629Y140775D01*
X131530Y140276D01*
X131629Y139776D01*
X131912Y139353D01*
X132335Y139070D01*
X132835Y138971D01*
X133334Y139070D01*
X133757Y139353D01*
X134040Y139776D01*
X134139Y140276D01*
X134040Y140775D01*
X133757Y141198D01*
X133334Y141481D01*
X132835Y141580D01*
D02*
G37*
G36*
X66299Y140675D02*
X65800Y140575D01*
X65377Y140293D01*
X65094Y139869D01*
X64995Y139370D01*
X65094Y138871D01*
X65377Y138448D01*
X65800Y138165D01*
X66299Y138066D01*
X66799Y138165D01*
X67222Y138448D01*
X67505Y138871D01*
X67604Y139370D01*
X67505Y139869D01*
X67222Y140293D01*
X66799Y140575D01*
X66299Y140675D01*
D02*
G37*
G36*
X173504Y162643D02*
X173005Y162544D01*
X172581Y162261D01*
X172299Y161838D01*
X172199Y161339D01*
X172299Y160839D01*
X172581Y160416D01*
X173005Y160133D01*
X173504Y160034D01*
X174003Y160133D01*
X174426Y160416D01*
X174709Y160839D01*
X174809Y161339D01*
X174709Y161838D01*
X174426Y162261D01*
X174003Y162544D01*
X173504Y162643D01*
D02*
G37*
G36*
X122874Y187368D02*
X122375Y187268D01*
X121951Y186986D01*
X121909Y186923D01*
X121516D01*
X121474Y186986D01*
X121050Y187268D01*
X120551Y187368D01*
X120052Y187268D01*
X119629Y186986D01*
X119346Y186562D01*
X119247Y186063D01*
X119346Y185564D01*
X119629Y185141D01*
X120052Y184858D01*
X120551Y184758D01*
X121050Y184858D01*
X121474Y185141D01*
X121516Y185204D01*
X121909D01*
X121951Y185141D01*
X122375Y184858D01*
X122874Y184758D01*
X123373Y184858D01*
X123796Y185141D01*
X124079Y185564D01*
X124179Y186063D01*
X124079Y186562D01*
X123796Y186986D01*
X123373Y187268D01*
X122874Y187368D01*
D02*
G37*
G36*
X144252Y188824D02*
X143753Y188725D01*
X143330Y188442D01*
X143047Y188019D01*
X142947Y187520D01*
X143047Y187020D01*
X143330Y186597D01*
X143753Y186314D01*
X144252Y186215D01*
X144751Y186314D01*
X145175Y186597D01*
X145457Y187020D01*
X145557Y187520D01*
X145457Y188019D01*
X145175Y188442D01*
X144751Y188725D01*
X144252Y188824D01*
D02*
G37*
G36*
X105984Y187604D02*
X105485Y187504D01*
X105062Y187222D01*
X104779Y186799D01*
X104680Y186299D01*
X104779Y185800D01*
X105062Y185377D01*
X105485Y185094D01*
X105984Y184995D01*
X106483Y185094D01*
X106907Y185377D01*
X107190Y185800D01*
X107289Y186299D01*
X107190Y186799D01*
X106907Y187222D01*
X106483Y187504D01*
X105984Y187604D01*
D02*
G37*
G36*
X89921Y190872D02*
X89422Y190772D01*
X88999Y190489D01*
X88716Y190066D01*
X88617Y189567D01*
X88716Y189068D01*
X88999Y188644D01*
X89422Y188362D01*
X89921Y188262D01*
X90421Y188362D01*
X90844Y188644D01*
X91127Y189068D01*
X91226Y189567D01*
X91127Y190066D01*
X90844Y190489D01*
X90421Y190772D01*
X89921Y190872D01*
D02*
G37*
G36*
X83346Y190438D02*
X82847Y190339D01*
X82424Y190056D01*
X82141Y189633D01*
X82042Y189134D01*
X82141Y188635D01*
X82424Y188211D01*
X82847Y187929D01*
X83346Y187829D01*
X83846Y187929D01*
X84269Y188211D01*
X84552Y188635D01*
X84651Y189134D01*
X84552Y189633D01*
X84269Y190056D01*
X83846Y190339D01*
X83346Y190438D01*
D02*
G37*
G36*
X37638Y190281D02*
X37139Y190182D01*
X36715Y189899D01*
X36432Y189476D01*
X36333Y188976D01*
X36432Y188477D01*
X36715Y188054D01*
X37139Y187771D01*
X37638Y187672D01*
X38137Y187771D01*
X38560Y188054D01*
X38843Y188477D01*
X38942Y188976D01*
X38843Y189476D01*
X38560Y189899D01*
X38137Y190182D01*
X37638Y190281D01*
D02*
G37*
G36*
X185787Y187210D02*
X185288Y187111D01*
X184865Y186828D01*
X184582Y186405D01*
X184483Y185906D01*
X184582Y185406D01*
X184865Y184983D01*
X185288Y184700D01*
X185787Y184601D01*
X186287Y184700D01*
X186710Y184983D01*
X186993Y185406D01*
X187092Y185906D01*
X186993Y186405D01*
X186710Y186828D01*
X186287Y187111D01*
X185787Y187210D01*
D02*
G37*
G36*
X175906Y184376D02*
X175406Y184276D01*
X174983Y183993D01*
X174700Y183570D01*
X174601Y183071D01*
X174700Y182572D01*
X174983Y182148D01*
X175406Y181866D01*
X175906Y181766D01*
X176405Y181866D01*
X176828Y182148D01*
X177111Y182572D01*
X177210Y183071D01*
X177111Y183570D01*
X176828Y183993D01*
X176405Y184276D01*
X175906Y184376D01*
D02*
G37*
G36*
X171417Y184336D02*
X170918Y184237D01*
X170495Y183954D01*
X170212Y183531D01*
X170113Y183031D01*
X170212Y182532D01*
X170495Y182109D01*
X170918Y181826D01*
X171417Y181727D01*
X171917Y181826D01*
X172340Y182109D01*
X172623Y182532D01*
X172722Y183031D01*
X172623Y183531D01*
X172340Y183954D01*
X171917Y184237D01*
X171417Y184336D01*
D02*
G37*
G36*
X56260Y183667D02*
X55761Y183568D01*
X55337Y183285D01*
X55055Y182861D01*
X54955Y182362D01*
X55055Y181863D01*
X55337Y181440D01*
X55761Y181157D01*
X56260Y181058D01*
X56488Y181103D01*
X56686Y180741D01*
X56472Y180420D01*
X56373Y179921D01*
X56472Y179422D01*
X56662Y179138D01*
X56425Y178784D01*
X56221Y178824D01*
X55721Y178725D01*
X55298Y178442D01*
X55015Y178019D01*
X54916Y177520D01*
X55015Y177020D01*
X55298Y176597D01*
X55721Y176314D01*
X56221Y176215D01*
X56720Y176314D01*
X57143Y176597D01*
X57426Y177020D01*
X57525Y177520D01*
X57426Y178019D01*
X57236Y178303D01*
X57473Y178657D01*
X57677Y178617D01*
X58176Y178716D01*
X58600Y178999D01*
X58882Y179422D01*
X58982Y179921D01*
X58882Y180420D01*
X58600Y180844D01*
X58176Y181126D01*
X57677Y181226D01*
X57449Y181181D01*
X57251Y181543D01*
X57465Y181863D01*
X57564Y182362D01*
X57465Y182861D01*
X57182Y183285D01*
X56759Y183568D01*
X56260Y183667D01*
D02*
G37*
G36*
X40295Y186206D02*
X39796Y186107D01*
X39373Y185824D01*
X39090Y185401D01*
X38991Y184902D01*
X39090Y184402D01*
X39373Y183979D01*
X39796Y183696D01*
X40295Y183597D01*
X40795Y183696D01*
X41218Y183979D01*
X41500Y184402D01*
X41600Y184902D01*
X41500Y185401D01*
X41218Y185824D01*
X40795Y186107D01*
X40295Y186206D01*
D02*
G37*
G36*
X200197Y189737D02*
X199221Y189608D01*
X198311Y189232D01*
X197529Y188632D01*
X196930Y187851D01*
X196553Y186941D01*
X196424Y185965D01*
X196553Y184988D01*
X196930Y184078D01*
X197529Y183297D01*
X198311Y182697D01*
X199221Y182321D01*
X200197Y182192D01*
X201173Y182321D01*
X202083Y182697D01*
X202864Y183297D01*
X203464Y184078D01*
X203841Y184988D01*
X203969Y185965D01*
X203841Y186941D01*
X203464Y187851D01*
X202864Y188632D01*
X202083Y189232D01*
X201173Y189608D01*
X200197Y189737D01*
D02*
G37*
G36*
X102165Y184454D02*
X101666Y184355D01*
X101243Y184072D01*
X100960Y183649D01*
X100861Y183150D01*
X100960Y182650D01*
X101243Y182227D01*
X101666Y181944D01*
X102165Y181845D01*
X102665Y181944D01*
X103088Y182227D01*
X103371Y182650D01*
X103470Y183150D01*
X103371Y183649D01*
X103088Y184072D01*
X102665Y184355D01*
X102165Y184454D01*
D02*
G37*
G36*
X181339Y190872D02*
X180839Y190772D01*
X180416Y190489D01*
X180133Y190066D01*
X180034Y189567D01*
X180133Y189068D01*
X180416Y188644D01*
X180839Y188362D01*
X181339Y188262D01*
X181838Y188362D01*
X182261Y188644D01*
X182544Y189068D01*
X182643Y189567D01*
X182544Y190066D01*
X182261Y190489D01*
X181838Y190772D01*
X181339Y190872D01*
D02*
G37*
G36*
X25669Y194927D02*
X25170Y194827D01*
X24747Y194544D01*
X24464Y194121D01*
X24365Y193622D01*
X24464Y193123D01*
X24747Y192700D01*
X25170Y192417D01*
X25669Y192317D01*
X26169Y192417D01*
X26592Y192700D01*
X26875Y193123D01*
X26974Y193622D01*
X26875Y194121D01*
X26592Y194544D01*
X26169Y194827D01*
X25669Y194927D01*
D02*
G37*
G36*
X29213Y194848D02*
X28713Y194749D01*
X28290Y194466D01*
X28007Y194043D01*
X27908Y193543D01*
X28007Y193044D01*
X28290Y192621D01*
X28713Y192338D01*
X29213Y192239D01*
X29712Y192338D01*
X30135Y192621D01*
X30418Y193044D01*
X30517Y193543D01*
X30418Y194043D01*
X30135Y194466D01*
X29712Y194749D01*
X29213Y194848D01*
D02*
G37*
G36*
X200197Y199737D02*
X199221Y199608D01*
X198311Y199232D01*
X197529Y198632D01*
X196930Y197851D01*
X196553Y196941D01*
X196424Y195965D01*
X196553Y194988D01*
X196930Y194078D01*
X197529Y193297D01*
X198311Y192698D01*
X199221Y192321D01*
X200197Y192192D01*
X201173Y192321D01*
X202083Y192698D01*
X202864Y193297D01*
X203464Y194078D01*
X203841Y194988D01*
X203969Y195965D01*
X203841Y196941D01*
X203464Y197851D01*
X202864Y198632D01*
X202083Y199232D01*
X201173Y199608D01*
X200197Y199737D01*
D02*
G37*
G36*
X151850Y196474D02*
X151351Y196375D01*
X150928Y196092D01*
X150645Y195668D01*
X150546Y195169D01*
X150645Y194670D01*
X150928Y194247D01*
X151351Y193964D01*
X151850Y193865D01*
X152350Y193964D01*
X152773Y194247D01*
X153056Y194670D01*
X153155Y195169D01*
X153056Y195668D01*
X152773Y196092D01*
X152350Y196375D01*
X151850Y196474D01*
D02*
G37*
G36*
X136831Y196364D02*
X136331Y196264D01*
X135908Y195982D01*
X135625Y195558D01*
X135526Y195059D01*
X135625Y194560D01*
X135908Y194137D01*
X136331Y193854D01*
X136831Y193754D01*
X137330Y193854D01*
X137753Y194137D01*
X138036Y194560D01*
X138135Y195059D01*
X138036Y195558D01*
X137753Y195982D01*
X137330Y196264D01*
X136831Y196364D01*
D02*
G37*
G36*
X174331Y196344D02*
X173831Y196245D01*
X173408Y195962D01*
X173125Y195539D01*
X173026Y195039D01*
X173125Y194540D01*
X173408Y194117D01*
X173831Y193834D01*
X174331Y193735D01*
X174830Y193834D01*
X175253Y194117D01*
X175536Y194540D01*
X175635Y195039D01*
X175536Y195539D01*
X175253Y195962D01*
X174830Y196245D01*
X174331Y196344D01*
D02*
G37*
G36*
X96220Y193194D02*
X95721Y193095D01*
X95298Y192812D01*
X95015Y192389D01*
X94916Y191890D01*
X95015Y191391D01*
X95298Y190967D01*
X95721Y190684D01*
X96220Y190585D01*
X96720Y190684D01*
X97143Y190967D01*
X97426Y191391D01*
X97525Y191890D01*
X97426Y192389D01*
X97143Y192812D01*
X96720Y193095D01*
X96220Y193194D01*
D02*
G37*
G36*
X100236Y191344D02*
X99737Y191245D01*
X99314Y190962D01*
X99031Y190539D01*
X98932Y190039D01*
X99011Y189639D01*
X98783Y189411D01*
X98773Y189402D01*
X98696Y189361D01*
X98228Y189454D01*
X97729Y189355D01*
X97306Y189072D01*
X97023Y188649D01*
X96924Y188150D01*
X97023Y187650D01*
X97306Y187227D01*
X97729Y186944D01*
X98228Y186845D01*
X98728Y186944D01*
X99151Y187227D01*
X99434Y187650D01*
X99533Y188150D01*
X99453Y188550D01*
X99681Y188778D01*
X99692Y188786D01*
X99769Y188828D01*
X100236Y188735D01*
X100735Y188834D01*
X101159Y189117D01*
X101442Y189540D01*
X101541Y190039D01*
X101442Y190539D01*
X101159Y190962D01*
X100735Y191245D01*
X100236Y191344D01*
D02*
G37*
G36*
X185748Y191580D02*
X185249Y191481D01*
X184826Y191198D01*
X184543Y190775D01*
X184443Y190276D01*
X184543Y189776D01*
X184826Y189353D01*
X185249Y189070D01*
X185748Y188971D01*
X186247Y189070D01*
X186670Y189353D01*
X186953Y189776D01*
X187053Y190276D01*
X186953Y190775D01*
X186670Y191198D01*
X186247Y191481D01*
X185748Y191580D01*
D02*
G37*
G36*
X165591Y198312D02*
X165091Y198213D01*
X164668Y197930D01*
X164385Y197507D01*
X164286Y197008D01*
X164385Y196509D01*
X164668Y196085D01*
X165091Y195803D01*
X165591Y195703D01*
X166090Y195803D01*
X166196Y195874D01*
X166480Y195590D01*
X166314Y195342D01*
X166215Y194843D01*
X166314Y194343D01*
X166597Y193920D01*
X166719Y193839D01*
Y193445D01*
X166597Y193363D01*
X166314Y192940D01*
X166215Y192441D01*
X166314Y191942D01*
X166597Y191518D01*
X166719Y191437D01*
Y191043D01*
X166597Y190962D01*
X166314Y190539D01*
X166215Y190039D01*
X166314Y189540D01*
X166597Y189117D01*
X167020Y188834D01*
X167520Y188735D01*
X168019Y188834D01*
X168442Y189117D01*
X168725Y189540D01*
X168824Y190039D01*
X168725Y190539D01*
X168442Y190962D01*
X168320Y191043D01*
Y191437D01*
X168442Y191518D01*
X168725Y191942D01*
X168824Y192441D01*
X168725Y192940D01*
X168442Y193363D01*
X168320Y193445D01*
Y193839D01*
X168442Y193920D01*
X168725Y194343D01*
X168824Y194843D01*
X168725Y195342D01*
X168442Y195765D01*
X168019Y196048D01*
X167520Y196147D01*
X167020Y196048D01*
X166914Y195976D01*
X166630Y196260D01*
X166796Y196509D01*
X166895Y197008D01*
X166796Y197507D01*
X166513Y197930D01*
X166090Y198213D01*
X165591Y198312D01*
D02*
G37*
G36*
X173504Y193076D02*
X173005Y192977D01*
X172581Y192694D01*
X172299Y192271D01*
X172199Y191772D01*
X172299Y191272D01*
X172581Y190849D01*
X173005Y190566D01*
X173504Y190467D01*
X174003Y190566D01*
X174426Y190849D01*
X174709Y191272D01*
X174809Y191772D01*
X174709Y192271D01*
X174426Y192694D01*
X174003Y192977D01*
X173504Y193076D01*
D02*
G37*
G36*
X69410Y192564D02*
X68910Y192465D01*
X68487Y192182D01*
X68204Y191759D01*
X68105Y191260D01*
X68204Y190761D01*
X68487Y190337D01*
X68910Y190055D01*
X69410Y189955D01*
X69909Y190055D01*
X70332Y190337D01*
X70615Y190761D01*
X70714Y191260D01*
X70615Y191759D01*
X70332Y192182D01*
X69909Y192465D01*
X69410Y192564D01*
D02*
G37*
G36*
X110039Y192250D02*
X109540Y192150D01*
X109117Y191867D01*
X108834Y191444D01*
X108735Y190945D01*
X108834Y190446D01*
X109117Y190022D01*
X109540Y189740D01*
X110039Y189640D01*
X110539Y189740D01*
X110962Y190022D01*
X111245Y190446D01*
X111344Y190945D01*
X111245Y191444D01*
X110962Y191867D01*
X110539Y192150D01*
X110039Y192250D01*
D02*
G37*
G36*
X169488Y170871D02*
X168989Y170772D01*
X168566Y170489D01*
X168283Y170066D01*
X168184Y169567D01*
X168283Y169068D01*
X168566Y168644D01*
X168989Y168362D01*
X169488Y168262D01*
X169987Y168362D01*
X170411Y168644D01*
X170694Y169068D01*
X170793Y169567D01*
X170694Y170066D01*
X170411Y170489D01*
X169987Y170772D01*
X169488Y170871D01*
D02*
G37*
G36*
X67756Y169178D02*
X67257Y169079D01*
X66833Y168796D01*
X66550Y168373D01*
X66451Y167874D01*
X66550Y167375D01*
X66833Y166951D01*
X67257Y166669D01*
X67756Y166569D01*
X68255Y166669D01*
X68678Y166951D01*
X68961Y167375D01*
X69060Y167874D01*
X68961Y168373D01*
X68678Y168796D01*
X68255Y169079D01*
X67756Y169178D01*
D02*
G37*
G36*
X186378Y168627D02*
X185879Y168528D01*
X185456Y168245D01*
X185173Y167822D01*
X185073Y167323D01*
X185173Y166824D01*
X185456Y166400D01*
X185879Y166118D01*
X186378Y166018D01*
X186877Y166118D01*
X187300Y166400D01*
X187583Y166824D01*
X187682Y167323D01*
X187583Y167822D01*
X187300Y168245D01*
X186877Y168528D01*
X186378Y168627D01*
D02*
G37*
G36*
X180866Y172801D02*
X180367Y172701D01*
X179944Y172418D01*
X179661Y171995D01*
X179562Y171496D01*
X179661Y170997D01*
X179944Y170574D01*
X180367Y170291D01*
X180866Y170192D01*
X181365Y170291D01*
X181789Y170574D01*
X182071Y170997D01*
X182171Y171496D01*
X182071Y171995D01*
X181789Y172418D01*
X181365Y172701D01*
X180866Y172801D01*
D02*
G37*
G36*
X106653Y170950D02*
X106154Y170851D01*
X105731Y170568D01*
X105448Y170145D01*
X105349Y169646D01*
X105448Y169146D01*
X105731Y168723D01*
X106154Y168440D01*
X106653Y168341D01*
X107153Y168440D01*
X107576Y168723D01*
X107859Y169146D01*
X107958Y169646D01*
X107859Y170145D01*
X107576Y170568D01*
X107153Y170851D01*
X106653Y170950D01*
D02*
G37*
G36*
X102559D02*
X102060Y170851D01*
X101637Y170568D01*
X101354Y170145D01*
X101254Y169646D01*
X101354Y169146D01*
X101637Y168723D01*
X102060Y168440D01*
X102559Y168341D01*
X103058Y168440D01*
X103481Y168723D01*
X103764Y169146D01*
X103864Y169646D01*
X103764Y170145D01*
X103481Y170568D01*
X103058Y170851D01*
X102559Y170950D01*
D02*
G37*
G36*
X28464Y168116D02*
X27965Y168016D01*
X27542Y167734D01*
X27259Y167310D01*
X27160Y166811D01*
X27259Y166312D01*
X27542Y165889D01*
X27965Y165606D01*
X28464Y165506D01*
X28964Y165606D01*
X29387Y165889D01*
X29670Y166312D01*
X29769Y166811D01*
X29670Y167310D01*
X29387Y167734D01*
X28964Y168016D01*
X28464Y168116D01*
D02*
G37*
G36*
X158898Y165635D02*
X158398Y165536D01*
X157975Y165253D01*
X157692Y164830D01*
X157593Y164331D01*
X157692Y163831D01*
X157975Y163408D01*
X158398Y163125D01*
X158898Y163026D01*
X159397Y163125D01*
X159820Y163408D01*
X159881Y163500D01*
X160355D01*
X160416Y163408D01*
X160839Y163125D01*
X161339Y163026D01*
X161838Y163125D01*
X162261Y163408D01*
X162544Y163831D01*
X162643Y164331D01*
X162544Y164830D01*
X162261Y165253D01*
X161838Y165536D01*
X161339Y165635D01*
X160839Y165536D01*
X160416Y165253D01*
X160355Y165162D01*
X159881D01*
X159820Y165253D01*
X159397Y165536D01*
X158898Y165635D01*
D02*
G37*
G36*
X143268Y165675D02*
X142769Y165575D01*
X142345Y165293D01*
X142062Y164869D01*
X141963Y164370D01*
X142062Y163871D01*
X142345Y163448D01*
X142769Y163165D01*
X143268Y163066D01*
X143767Y163165D01*
X144190Y163448D01*
X144239Y163520D01*
X144632D01*
X144707Y163408D01*
X145131Y163125D01*
X145630Y163026D01*
X146129Y163125D01*
X146552Y163408D01*
X146835Y163831D01*
X146934Y164331D01*
X146835Y164830D01*
X146552Y165253D01*
X146129Y165536D01*
X145630Y165635D01*
X145131Y165536D01*
X144707Y165253D01*
X144659Y165180D01*
X144265D01*
X144190Y165293D01*
X143767Y165575D01*
X143268Y165675D01*
D02*
G37*
G36*
X200197Y169737D02*
X199221Y169608D01*
X198311Y169231D01*
X197529Y168632D01*
X196930Y167851D01*
X196553Y166941D01*
X196424Y165964D01*
X196553Y164988D01*
X196930Y164078D01*
X197529Y163297D01*
X198311Y162698D01*
X199221Y162321D01*
X200197Y162192D01*
X201173Y162321D01*
X202083Y162698D01*
X202864Y163297D01*
X203464Y164078D01*
X203841Y164988D01*
X203969Y165964D01*
X203841Y166941D01*
X203464Y167851D01*
X202864Y168632D01*
X202083Y169231D01*
X201173Y169608D01*
X200197Y169737D01*
D02*
G37*
G36*
X133661Y165675D02*
X133162Y165575D01*
X132739Y165293D01*
X132658Y165171D01*
X132264D01*
X132182Y165293D01*
X131759Y165575D01*
X131260Y165675D01*
X130761Y165575D01*
X130337Y165293D01*
X130055Y164869D01*
X129955Y164370D01*
X130055Y163871D01*
X130337Y163448D01*
X130350Y163440D01*
X130196Y163069D01*
X130157Y163076D01*
X129658Y162977D01*
X129235Y162694D01*
X128952Y162271D01*
X128853Y161772D01*
X128952Y161272D01*
X129235Y160849D01*
X129658Y160566D01*
X130157Y160467D01*
X130657Y160566D01*
X131080Y160849D01*
X131363Y161272D01*
X131462Y161772D01*
X131363Y162271D01*
X131080Y162694D01*
X131068Y162702D01*
X131221Y163073D01*
X131260Y163066D01*
X131759Y163165D01*
X132182Y163448D01*
X132264Y163569D01*
X132658D01*
X132739Y163448D01*
X133162Y163165D01*
X133661Y163066D01*
X134161Y163165D01*
X134584Y163448D01*
X134867Y163871D01*
X134966Y164370D01*
X134867Y164869D01*
X134584Y165293D01*
X134161Y165575D01*
X133661Y165675D01*
D02*
G37*
G36*
X82559Y166895D02*
X82060Y166796D01*
X81637Y166513D01*
X81354Y166090D01*
X81255Y165591D01*
X81354Y165091D01*
X81637Y164668D01*
X82060Y164385D01*
X82559Y164286D01*
X83058Y164385D01*
X83482Y164668D01*
X83764Y165091D01*
X83864Y165591D01*
X83764Y166090D01*
X83482Y166513D01*
X83058Y166796D01*
X82559Y166895D01*
D02*
G37*
G36*
X125748Y166620D02*
X125249Y166520D01*
X124826Y166237D01*
X124543Y165814D01*
X124443Y165315D01*
X124543Y164816D01*
X124826Y164392D01*
X125249Y164110D01*
X125748Y164010D01*
X126247Y164110D01*
X126671Y164392D01*
X126953Y164816D01*
X127053Y165315D01*
X126953Y165814D01*
X126671Y166237D01*
X126247Y166520D01*
X125748Y166620D01*
D02*
G37*
G36*
X164331Y174060D02*
X163831Y173961D01*
X163408Y173678D01*
X163126Y173255D01*
X163026Y172756D01*
X163126Y172257D01*
X163408Y171833D01*
X163831Y171551D01*
X164331Y171451D01*
X164830Y171551D01*
X165253Y171833D01*
X165536Y172257D01*
X165635Y172756D01*
X165536Y173255D01*
X165253Y173678D01*
X164830Y173961D01*
X164331Y174060D01*
D02*
G37*
G36*
X181142Y180793D02*
X180642Y180693D01*
X180219Y180411D01*
X179936Y179987D01*
X179837Y179488D01*
X179936Y178989D01*
X180219Y178566D01*
X180642Y178283D01*
X181142Y178184D01*
X181641Y178283D01*
X182064Y178566D01*
X182347Y178989D01*
X182446Y179488D01*
X182347Y179987D01*
X182064Y180411D01*
X181641Y180693D01*
X181142Y180793D01*
D02*
G37*
G36*
X98425Y182525D02*
X97926Y182426D01*
X97503Y182143D01*
X97220Y181720D01*
X97121Y181220D01*
X97220Y180721D01*
X97503Y180298D01*
X97926Y180015D01*
X98260Y179949D01*
Y179547D01*
X98083Y179512D01*
X97660Y179230D01*
X97377Y178806D01*
X97278Y178307D01*
X97377Y177808D01*
X97660Y177385D01*
X98083Y177102D01*
X98583Y177003D01*
X99082Y177102D01*
X99505Y177385D01*
X99788Y177808D01*
X99887Y178307D01*
X99788Y178806D01*
X99505Y179230D01*
X99082Y179512D01*
X98748Y179579D01*
Y179980D01*
X98924Y180015D01*
X99348Y180298D01*
X99630Y180721D01*
X99730Y181220D01*
X99630Y181720D01*
X99348Y182143D01*
X98924Y182426D01*
X98425Y182525D01*
D02*
G37*
G36*
X59488Y183706D02*
X58989Y183607D01*
X58566Y183324D01*
X58283Y182901D01*
X58184Y182402D01*
X58283Y181902D01*
X58566Y181479D01*
X58989Y181196D01*
X59448Y181105D01*
X59564Y180947D01*
X59672Y180732D01*
X59543Y180539D01*
X59443Y180039D01*
X59543Y179540D01*
X59715Y179283D01*
X59675Y179144D01*
X59517Y178885D01*
X59107Y178804D01*
X58684Y178521D01*
X58401Y178098D01*
X58302Y177598D01*
X58401Y177099D01*
X58684Y176676D01*
X59107Y176393D01*
X59606Y176294D01*
X60106Y176393D01*
X60529Y176676D01*
X60812Y177099D01*
X60911Y177598D01*
X60812Y178098D01*
X60640Y178355D01*
X60679Y178494D01*
X60837Y178753D01*
X61247Y178834D01*
X61671Y179117D01*
X61953Y179540D01*
X62053Y180039D01*
X61953Y180539D01*
X61671Y180962D01*
X61247Y181245D01*
X60789Y181336D01*
X60672Y181494D01*
X60564Y181709D01*
X60694Y181902D01*
X60793Y182402D01*
X60694Y182901D01*
X60411Y183324D01*
X59987Y183607D01*
X59488Y183706D01*
D02*
G37*
G36*
X167441Y181186D02*
X166942Y181087D01*
X166518Y180804D01*
X166236Y180381D01*
X166136Y179882D01*
X166236Y179383D01*
X166518Y178959D01*
X166942Y178677D01*
X167441Y178577D01*
X167940Y178677D01*
X168363Y178959D01*
X168646Y179383D01*
X168746Y179882D01*
X168646Y180381D01*
X168363Y180804D01*
X167940Y181087D01*
X167441Y181186D01*
D02*
G37*
G36*
X151850Y181088D02*
X151351Y180989D01*
X150928Y180706D01*
X150645Y180283D01*
X150546Y179783D01*
X150645Y179284D01*
X150928Y178861D01*
X151351Y178578D01*
X151850Y178479D01*
X152350Y178578D01*
X152773Y178861D01*
X153056Y179284D01*
X153155Y179783D01*
X153056Y180283D01*
X152773Y180706D01*
X152350Y180989D01*
X151850Y181088D01*
D02*
G37*
G36*
X136535Y181017D02*
X136036Y180918D01*
X135613Y180635D01*
X135330Y180212D01*
X135231Y179713D01*
X135330Y179213D01*
X135613Y178790D01*
X136036Y178507D01*
X136535Y178408D01*
X137035Y178507D01*
X137458Y178790D01*
X137741Y179213D01*
X137840Y179713D01*
X137741Y180212D01*
X137458Y180635D01*
X137035Y180918D01*
X136535Y181017D01*
D02*
G37*
G36*
X68032Y178824D02*
X67532Y178725D01*
X67109Y178442D01*
X66826Y178019D01*
X66727Y177520D01*
X66826Y177020D01*
X67109Y176597D01*
X67532Y176314D01*
X68032Y176215D01*
X68531Y176314D01*
X68954Y176597D01*
X69237Y177020D01*
X69336Y177520D01*
X69237Y178019D01*
X68954Y178442D01*
X68531Y178725D01*
X68032Y178824D01*
D02*
G37*
G36*
X40276Y176659D02*
X39776Y176560D01*
X39353Y176277D01*
X39070Y175854D01*
X38971Y175354D01*
X39070Y174855D01*
X39353Y174432D01*
X39776Y174149D01*
X40276Y174050D01*
X40775Y174149D01*
X41015Y174309D01*
X41448Y174151D01*
X41492Y173930D01*
X41774Y173507D01*
X42198Y173224D01*
X42697Y173125D01*
X43196Y173224D01*
X43619Y173507D01*
X43700Y173628D01*
X44174D01*
X44255Y173507D01*
X44678Y173224D01*
X45177Y173125D01*
X45676Y173224D01*
X46100Y173507D01*
X46382Y173930D01*
X46482Y174429D01*
X46382Y174928D01*
X46100Y175352D01*
X45676Y175634D01*
X45177Y175734D01*
X44678Y175634D01*
X44255Y175352D01*
X44174Y175231D01*
X43700D01*
X43619Y175352D01*
X43196Y175634D01*
X42697Y175734D01*
X42198Y175634D01*
X41958Y175474D01*
X41525Y175633D01*
X41481Y175854D01*
X41198Y176277D01*
X40775Y176560D01*
X40276Y176659D01*
D02*
G37*
G36*
X178228Y175635D02*
X177729Y175536D01*
X177306Y175253D01*
X177023Y174830D01*
X176924Y174331D01*
X177023Y173831D01*
X177306Y173408D01*
X177729Y173125D01*
X178228Y173026D01*
X178728Y173125D01*
X179151Y173408D01*
X179434Y173831D01*
X179533Y174331D01*
X179434Y174830D01*
X179151Y175253D01*
X178728Y175536D01*
X178228Y175635D01*
D02*
G37*
G36*
X200197Y179737D02*
X199221Y179608D01*
X198311Y179232D01*
X197529Y178632D01*
X196930Y177851D01*
X196553Y176941D01*
X196424Y175964D01*
X196553Y174988D01*
X196930Y174078D01*
X197529Y173297D01*
X198311Y172697D01*
X199221Y172321D01*
X200197Y172192D01*
X201173Y172321D01*
X202083Y172697D01*
X202864Y173297D01*
X203464Y174078D01*
X203841Y174988D01*
X203969Y175964D01*
X203841Y176941D01*
X203464Y177851D01*
X202864Y178632D01*
X202083Y179232D01*
X201173Y179608D01*
X200197Y179737D01*
D02*
G37*
G36*
X83150Y177840D02*
X82650Y177741D01*
X82227Y177458D01*
X81944Y177035D01*
X81845Y176535D01*
X81944Y176036D01*
X82227Y175613D01*
X82650Y175330D01*
X83150Y175231D01*
X83649Y175330D01*
X84072Y175613D01*
X84355Y176036D01*
X84454Y176535D01*
X84355Y177035D01*
X84072Y177458D01*
X83649Y177741D01*
X83150Y177840D01*
D02*
G37*
G36*
X25905Y176187D02*
X25406Y176087D01*
X24983Y175804D01*
X24700Y175381D01*
X24601Y174882D01*
X24700Y174383D01*
X24983Y173959D01*
X25406Y173677D01*
X25905Y173577D01*
X26405Y173677D01*
X26828Y173959D01*
X26935Y174120D01*
X27409D01*
X27542Y173920D01*
X27965Y173637D01*
X28465Y173538D01*
X28964Y173637D01*
X29387Y173920D01*
X29670Y174343D01*
X29769Y174843D01*
X29670Y175342D01*
X29387Y175765D01*
X28964Y176048D01*
X28465Y176147D01*
X27965Y176048D01*
X27542Y175765D01*
X27435Y175605D01*
X26961D01*
X26828Y175804D01*
X26405Y176087D01*
X25905Y176187D01*
D02*
G37*
G36*
X124173Y176029D02*
X123674Y175930D01*
X123251Y175647D01*
X122968Y175224D01*
X122869Y174724D01*
X122968Y174225D01*
X123251Y173802D01*
X123674Y173519D01*
X124173Y173420D01*
X124672Y173519D01*
X125096Y173802D01*
X125379Y174225D01*
X125478Y174724D01*
X125379Y175224D01*
X125096Y175647D01*
X124672Y175930D01*
X124173Y176029D01*
D02*
G37*
%LPD*%
D64*
X100000Y9803D02*
D03*
D65*
Y19803D02*
D03*
X90000Y9803D02*
D03*
Y19803D02*
D03*
X80000Y9803D02*
D03*
Y19803D02*
D03*
X70000Y9803D02*
D03*
Y19803D02*
D03*
X10000Y20000D02*
D03*
Y60000D02*
D03*
Y50000D02*
D03*
Y40000D02*
D03*
Y30000D02*
D03*
X200197Y185965D02*
D03*
Y195965D02*
D03*
Y175964D02*
D03*
Y165964D02*
D03*
Y145965D02*
D03*
Y135965D02*
D03*
Y125964D02*
D03*
Y115964D02*
D03*
Y155965D02*
D03*
X10000Y110000D02*
D03*
Y150000D02*
D03*
Y140000D02*
D03*
Y130000D02*
D03*
Y120000D02*
D03*
Y100000D02*
D03*
Y90000D02*
D03*
X156378Y262087D02*
D03*
X200000Y70000D02*
D03*
Y30000D02*
D03*
Y40000D02*
D03*
Y50000D02*
D03*
Y60000D02*
D03*
Y80000D02*
D03*
Y90000D02*
D03*
D66*
X10000Y70000D02*
D03*
X200197Y105965D02*
D03*
X10000Y160000D02*
D03*
X200000Y20000D02*
D03*
D67*
X156378Y252087D02*
D03*
D68*
X107520Y116535D02*
D03*
X37638Y188976D02*
D03*
X28464Y166811D02*
D03*
X28465Y174843D02*
D03*
X25905Y174882D02*
D03*
X25669Y193622D02*
D03*
X29213Y193543D02*
D03*
X40295Y184902D02*
D03*
X40276Y175354D02*
D03*
X60748Y180039D02*
D03*
X57677Y179921D02*
D03*
X56221Y177520D02*
D03*
X59606Y177598D02*
D03*
X59488Y182402D02*
D03*
X56260Y182362D02*
D03*
X59862Y208681D02*
D03*
X57303Y208642D02*
D03*
X54744Y208642D02*
D03*
X52185Y208681D02*
D03*
X41831Y198130D02*
D03*
X44626Y195531D02*
D03*
X53839Y203346D02*
D03*
X56122Y201929D02*
D03*
X51457Y201752D02*
D03*
X58425Y203327D02*
D03*
X41575Y202047D02*
D03*
Y204488D02*
D03*
X43976D02*
D03*
X46457D02*
D03*
X51417Y125866D02*
D03*
X66023Y147677D02*
D03*
X57579Y158091D02*
D03*
X48327D02*
D03*
Y146083D02*
D03*
X57579D02*
D03*
X66299Y139370D02*
D03*
X62323Y138465D02*
D03*
X38937Y160847D02*
D03*
X45177Y174429D02*
D03*
X42697Y174429D02*
D03*
X39106Y150366D02*
D03*
X67756Y167874D02*
D03*
X37402Y263661D02*
D03*
X57441Y84173D02*
D03*
X56142Y86260D02*
D03*
X54449Y91457D02*
D03*
X49449Y51929D02*
D03*
Y56968D02*
D03*
X49488Y61929D02*
D03*
X68779Y110216D02*
D03*
Y112461D02*
D03*
X77008Y110354D02*
D03*
X102559Y169646D02*
D03*
X106653D02*
D03*
X128937Y150984D02*
D03*
X136693Y142520D02*
D03*
X78110Y113898D02*
D03*
X110591Y138858D02*
D03*
X104291Y156968D02*
D03*
X50709Y223622D02*
D03*
X79043Y265878D02*
D03*
X95886Y261319D02*
D03*
X84606Y235748D02*
D03*
X88189Y237520D02*
D03*
X91693Y239213D02*
D03*
X68504Y248701D02*
D03*
X78425Y231929D02*
D03*
X77244Y241102D02*
D03*
X73701Y241063D02*
D03*
X101024Y122756D02*
D03*
X94646Y116457D02*
D03*
X104095Y116850D02*
D03*
X107598Y122756D02*
D03*
X84921Y116724D02*
D03*
X85591Y113701D02*
D03*
X91890Y125906D02*
D03*
X88740D02*
D03*
Y129055D02*
D03*
X102165Y183150D02*
D03*
X105984Y186299D02*
D03*
X98583Y178307D02*
D03*
X98425Y181220D02*
D03*
X89921Y189567D02*
D03*
X100236Y190039D02*
D03*
X98228Y188150D02*
D03*
X96220Y191890D02*
D03*
X110039Y190945D02*
D03*
X182815Y246634D02*
D03*
X179842Y242520D02*
D03*
X180866Y248583D02*
D03*
X203543Y250945D02*
D03*
X203583Y255236D02*
D03*
X168425Y255196D02*
D03*
X168386Y250905D02*
D03*
X109370Y255196D02*
D03*
X109331Y250905D02*
D03*
X144528Y255236D02*
D03*
X144488Y250945D02*
D03*
X206496Y265866D02*
D03*
X206378Y260236D02*
D03*
X165472Y265866D02*
D03*
X165354Y260236D02*
D03*
X147441Y265866D02*
D03*
X147323Y260236D02*
D03*
X106299D02*
D03*
X106417Y265866D02*
D03*
X121063Y248465D02*
D03*
X119449Y240984D02*
D03*
X122087Y240945D02*
D03*
X123504Y246969D02*
D03*
X117047Y195748D02*
D03*
X120551Y186063D02*
D03*
X122874D02*
D03*
X125748Y165315D02*
D03*
X130157Y161772D02*
D03*
X133661Y164370D02*
D03*
X131260D02*
D03*
X121102Y197520D02*
D03*
Y195197D02*
D03*
X133898Y210748D02*
D03*
X131457D02*
D03*
X149882Y210709D02*
D03*
X152244D02*
D03*
X169764Y155354D02*
D03*
X169724Y157638D02*
D03*
X149173Y160276D02*
D03*
X149961Y153937D02*
D03*
X145630Y164331D02*
D03*
X143268Y164370D02*
D03*
X169488Y169567D02*
D03*
X181142Y179488D02*
D03*
X175906Y183071D02*
D03*
X178228Y174331D02*
D03*
X180866Y171496D02*
D03*
X173504Y161339D02*
D03*
X167441Y179882D02*
D03*
X171417Y183031D02*
D03*
X161339Y164331D02*
D03*
X158898Y164331D02*
D03*
X171732Y196693D02*
D03*
X173504Y191772D02*
D03*
X167520Y194843D02*
D03*
Y192441D02*
D03*
X165591Y197008D02*
D03*
X167520Y190039D02*
D03*
X120158Y203598D02*
D03*
X117913Y203583D02*
D03*
X103996Y220374D02*
D03*
X104055Y218071D02*
D03*
X53228Y88701D02*
D03*
X50965Y88760D02*
D03*
X47972Y103327D02*
D03*
X47913Y101063D02*
D03*
X31063Y108110D02*
D03*
X31063Y113937D02*
D03*
X37087Y119646D02*
D03*
X37126Y108110D02*
D03*
X43937Y97205D02*
D03*
X26984Y97268D02*
D03*
X19410Y86925D02*
D03*
Y66929D02*
D03*
X38819Y70000D02*
D03*
X39803Y75512D02*
D03*
X40000Y80551D02*
D03*
X40083Y84413D02*
D03*
X110551Y92087D02*
D03*
X66378Y72047D02*
D03*
X74016Y72047D02*
D03*
X66378Y79055D02*
D03*
X74016Y79055D02*
D03*
X74016Y65118D02*
D03*
X66378Y65118D02*
D03*
X66378Y58110D02*
D03*
X74016Y58110D02*
D03*
X94606Y73504D02*
D03*
X94835Y65728D02*
D03*
X94842Y75917D02*
D03*
X82504Y56988D02*
D03*
X112228Y62035D02*
D03*
X110134Y60740D02*
D03*
X110476Y63437D02*
D03*
X102701Y64311D02*
D03*
X86441Y68583D02*
D03*
X86791Y71929D02*
D03*
X84953Y56996D02*
D03*
X86980Y58272D02*
D03*
X105681Y57988D02*
D03*
X120012Y106913D02*
D03*
X101154Y107189D02*
D03*
X104264Y107106D02*
D03*
X116689Y86693D02*
D03*
X113087Y86681D02*
D03*
X115512Y203425D02*
D03*
X132835Y108780D02*
D03*
X123386Y101102D02*
D03*
X126142Y104252D02*
D03*
X126535Y101102D02*
D03*
X88346Y97953D02*
D03*
X107638Y135354D02*
D03*
X124764Y145197D02*
D03*
X132835Y140276D02*
D03*
X93268Y145197D02*
D03*
X118465Y97559D02*
D03*
X91496Y122756D02*
D03*
X102717Y97559D02*
D03*
X107638Y113701D02*
D03*
Y110551D02*
D03*
Y125906D02*
D03*
Y129055D02*
D03*
Y132205D02*
D03*
X88740Y113701D02*
D03*
Y104252D02*
D03*
Y101102D02*
D03*
X91890Y107402D02*
D03*
Y104252D02*
D03*
Y101102D02*
D03*
X95039Y110551D02*
D03*
Y107402D02*
D03*
Y104252D02*
D03*
Y101102D02*
D03*
X97941Y110197D02*
D03*
X98189Y104252D02*
D03*
X101421Y114114D02*
D03*
X101350Y110342D02*
D03*
X101339Y104252D02*
D03*
X104638Y114071D02*
D03*
X104350Y110299D02*
D03*
X104488Y104252D02*
D03*
X98189Y141654D02*
D03*
X104488Y138504D02*
D03*
X101339D02*
D03*
X98189D02*
D03*
X95039D02*
D03*
X88740D02*
D03*
X104488Y135354D02*
D03*
X101339D02*
D03*
X98189D02*
D03*
X91890D02*
D03*
X104488Y132205D02*
D03*
X101339D02*
D03*
X98189D02*
D03*
X95039D02*
D03*
X91890D02*
D03*
X88740D02*
D03*
X104488Y129055D02*
D03*
X101339D02*
D03*
X98189D02*
D03*
X95039D02*
D03*
X91890D02*
D03*
X104488Y125906D02*
D03*
X101339D02*
D03*
X98189D02*
D03*
X95039D02*
D03*
Y122756D02*
D03*
X104331Y122795D02*
D03*
X129291Y135354D02*
D03*
X126142Y129055D02*
D03*
Y132205D02*
D03*
Y135354D02*
D03*
X122992Y132205D02*
D03*
Y138504D02*
D03*
X119843Y125906D02*
D03*
Y129055D02*
D03*
Y132205D02*
D03*
X116693Y125906D02*
D03*
Y129055D02*
D03*
Y141654D02*
D03*
X113543Y125906D02*
D03*
Y129055D02*
D03*
Y135354D02*
D03*
X113543Y120000D02*
D03*
X116693D02*
D03*
X119843D02*
D03*
X122992D02*
D03*
Y116850D02*
D03*
X119843D02*
D03*
X116693D02*
D03*
X119843Y113701D02*
D03*
X116693D02*
D03*
X113543D02*
D03*
X126142Y110551D02*
D03*
X122992D02*
D03*
X119760Y110925D02*
D03*
X116504Y110776D02*
D03*
X113543Y110551D02*
D03*
X116823Y107019D02*
D03*
X113543Y107402D02*
D03*
X122992Y104252D02*
D03*
X113543Y101102D02*
D03*
X132835Y124528D02*
D03*
X109016Y145197D02*
D03*
X124173Y174724D02*
D03*
X164331Y172756D02*
D03*
Y200315D02*
D03*
X143268Y207598D02*
D03*
X126535Y119606D02*
D03*
X101339Y141654D02*
D03*
X136831Y195059D02*
D03*
X151850Y195169D02*
D03*
X136535Y179713D02*
D03*
X144252Y187520D02*
D03*
X151850Y179783D02*
D03*
X155079Y210433D02*
D03*
X165630Y202283D02*
D03*
X157047Y207598D02*
D03*
X159016Y208898D02*
D03*
X96831Y56957D02*
D03*
X94854Y58272D02*
D03*
X100768Y56957D02*
D03*
X98791Y58272D02*
D03*
X102728D02*
D03*
X79571Y63689D02*
D03*
X78256Y65650D02*
D03*
X79571Y67626D02*
D03*
X78256Y69587D02*
D03*
X79571Y71563D02*
D03*
X92634Y65284D02*
D03*
X90760Y63567D02*
D03*
X110106Y78469D02*
D03*
X96811Y73831D02*
D03*
X98768Y75173D02*
D03*
X102693Y83343D02*
D03*
X99567Y87721D02*
D03*
X98006Y91486D02*
D03*
X97323Y89256D02*
D03*
X95319Y80918D02*
D03*
X105236Y86295D02*
D03*
X102744Y94728D02*
D03*
X111520Y80350D02*
D03*
X109906Y84181D02*
D03*
X110114Y73055D02*
D03*
X112634Y71524D02*
D03*
X112689Y76091D02*
D03*
X104791Y73417D02*
D03*
X90902Y81090D02*
D03*
X93067Y83366D02*
D03*
X88711Y83429D02*
D03*
X98772Y81039D02*
D03*
X99039Y84941D02*
D03*
X82024Y81035D02*
D03*
X85677Y83882D02*
D03*
X80984Y92669D02*
D03*
X81921Y84291D02*
D03*
X87559Y75524D02*
D03*
X81453Y87468D02*
D03*
X84622Y73488D02*
D03*
X89472Y68594D02*
D03*
X88968Y70807D02*
D03*
X90492Y74189D02*
D03*
X78138Y73543D02*
D03*
X79295Y75504D02*
D03*
X93146Y88205D02*
D03*
X70382Y259287D02*
D03*
X79043D02*
D03*
X85197Y130827D02*
D03*
X82008Y135354D02*
D03*
X82047Y138504D02*
D03*
X101339Y144803D02*
D03*
X104646Y146890D02*
D03*
X19449Y51929D02*
D03*
Y56929D02*
D03*
Y61929D02*
D03*
Y71929D02*
D03*
Y81929D02*
D03*
X104331Y149331D02*
D03*
X101811Y157795D02*
D03*
X107087Y157756D02*
D03*
X142244Y111929D02*
D03*
X144803Y114488D02*
D03*
X145866Y140591D02*
D03*
X163937Y140827D02*
D03*
X159606Y143740D02*
D03*
X150630Y143701D02*
D03*
X137559Y124528D02*
D03*
X140236D02*
D03*
X142756D02*
D03*
X145591D02*
D03*
X136142Y114764D02*
D03*
X138465D02*
D03*
X141417Y135886D02*
D03*
X137441Y135846D02*
D03*
X151634Y106713D02*
D03*
X158602Y108287D02*
D03*
X153937Y108110D02*
D03*
X156220Y106693D02*
D03*
X143524Y106280D02*
D03*
X145846D02*
D03*
X145827Y103878D02*
D03*
X143484Y103917D02*
D03*
X178366Y111004D02*
D03*
X169862Y106634D02*
D03*
X167264Y103957D02*
D03*
X175079Y94744D02*
D03*
X173661Y92461D02*
D03*
X173484Y97126D02*
D03*
X175059Y90158D02*
D03*
X173779Y107008D02*
D03*
X176221D02*
D03*
Y104606D02*
D03*
Y102126D02*
D03*
X141417Y98504D02*
D03*
X143661Y98543D02*
D03*
X145945D02*
D03*
X148307Y98583D02*
D03*
X147795Y70551D02*
D03*
X145433Y70512D02*
D03*
X143150D02*
D03*
X140905Y70472D02*
D03*
X175709Y74094D02*
D03*
Y76575D02*
D03*
Y78976D02*
D03*
X173268D02*
D03*
X174547Y62126D02*
D03*
X172972Y69095D02*
D03*
X173150Y64429D02*
D03*
X174567Y66713D02*
D03*
X166752Y75925D02*
D03*
X169350Y78720D02*
D03*
X142992Y51260D02*
D03*
X151890D02*
D03*
X152323Y79449D02*
D03*
X143425D02*
D03*
X143465Y85866D02*
D03*
X152342Y85886D02*
D03*
X143012Y57697D02*
D03*
X151929Y57677D02*
D03*
X185787Y185906D02*
D03*
X185748Y190276D02*
D03*
X82559Y152323D02*
D03*
Y165591D02*
D03*
X172441Y141496D02*
D03*
X168465Y141457D02*
D03*
X172480Y149291D02*
D03*
X103150Y204410D02*
D03*
X97559Y209961D02*
D03*
X108701Y209803D02*
D03*
X108780Y199055D02*
D03*
X97835D02*
D03*
X90118Y207402D02*
D03*
X90236Y201457D02*
D03*
X137677Y232598D02*
D03*
X140433Y246772D02*
D03*
X150039Y228740D02*
D03*
X147913Y231496D02*
D03*
X152126Y231417D02*
D03*
Y226024D02*
D03*
X147913D02*
D03*
X166654Y224921D02*
D03*
X158504Y234646D02*
D03*
X161181Y217362D02*
D03*
X163622Y215118D02*
D03*
X165394Y217284D02*
D03*
X169528Y217205D02*
D03*
X167047Y215039D02*
D03*
X169685Y220945D02*
D03*
X173071Y220905D02*
D03*
X171457Y224016D02*
D03*
X165512Y239961D02*
D03*
X169606Y240000D02*
D03*
X167756Y238228D02*
D03*
X170158Y228386D02*
D03*
X106102Y223858D02*
D03*
X176496Y237323D02*
D03*
X174173Y239213D02*
D03*
X176535Y241535D02*
D03*
X173779Y243543D02*
D03*
X176260Y244843D02*
D03*
X192953Y246693D02*
D03*
X195866D02*
D03*
X198898D02*
D03*
X197559Y244331D02*
D03*
X194882D02*
D03*
X198268Y232362D02*
D03*
X94803Y229449D02*
D03*
X126417Y208740D02*
D03*
X129055Y211575D02*
D03*
X112598Y222047D02*
D03*
X115787Y215748D02*
D03*
X115079Y219213D02*
D03*
X66614Y90315D02*
D03*
X72047Y84724D02*
D03*
X39331Y62717D02*
D03*
X39016Y52284D02*
D03*
X191220Y229095D02*
D03*
X186890Y220276D02*
D03*
X181929Y215197D02*
D03*
X181024Y206339D02*
D03*
X181142Y198110D02*
D03*
X181339Y189567D02*
D03*
X174331Y195039D02*
D03*
X174528Y204252D02*
D03*
X174449Y214173D02*
D03*
X177205Y222165D02*
D03*
X184488Y231181D02*
D03*
X107874Y231102D02*
D03*
X144724Y213189D02*
D03*
X132283Y213268D02*
D03*
X113150Y244449D02*
D03*
X61890Y237598D02*
D03*
X68032Y177520D02*
D03*
X83150Y176535D02*
D03*
X83346Y189134D02*
D03*
Y202323D02*
D03*
X69410Y191260D02*
D03*
X69291Y205906D02*
D03*
X89567Y231339D02*
D03*
X65709Y234252D02*
D03*
X185039Y154055D02*
D03*
X186378Y167323D02*
D03*
X176496Y145709D02*
D03*
X184961Y60118D02*
D03*
X69567Y161063D02*
D03*
X66890Y145000D02*
D03*
X43819Y209685D02*
D03*
X73858Y110079D02*
D03*
X114134Y234626D02*
D03*
Y232382D02*
D03*
X91890Y110551D02*
D03*
X98165Y114114D02*
D03*
X95039Y113701D02*
D03*
X91693Y113425D02*
D03*
X97598Y117244D02*
D03*
X91693Y250433D02*
D03*
X91890Y138504D02*
D03*
X95039Y135354D02*
D03*
X60394Y84252D02*
D03*
M02*
