G04 Layer_Color=16711935*
%FSLAX25Y25*%
%MOIN*%
G70*
G01*
G75*
G04:AMPARAMS|DCode=11|XSize=35.43mil|YSize=31.5mil|CornerRadius=3.15mil|HoleSize=0mil|Usage=FLASHONLY|Rotation=90.000|XOffset=0mil|YOffset=0mil|HoleType=Round|Shape=RoundedRectangle|*
%AMROUNDEDRECTD11*
21,1,0.03543,0.02520,0,0,90.0*
21,1,0.02913,0.03150,0,0,90.0*
1,1,0.00630,0.01260,0.01457*
1,1,0.00630,0.01260,-0.01457*
1,1,0.00630,-0.01260,-0.01457*
1,1,0.00630,-0.01260,0.01457*
%
%ADD11ROUNDEDRECTD11*%
G04:AMPARAMS|DCode=25|XSize=15.75mil|YSize=14.57mil|CornerRadius=1.46mil|HoleSize=0mil|Usage=FLASHONLY|Rotation=0.000|XOffset=0mil|YOffset=0mil|HoleType=Round|Shape=RoundedRectangle|*
%AMROUNDEDRECTD25*
21,1,0.01575,0.01165,0,0,0.0*
21,1,0.01284,0.01457,0,0,0.0*
1,1,0.00291,0.00642,-0.00583*
1,1,0.00291,-0.00642,-0.00583*
1,1,0.00291,-0.00642,0.00583*
1,1,0.00291,0.00642,0.00583*
%
%ADD25ROUNDEDRECTD25*%
G04:AMPARAMS|DCode=28|XSize=23.62mil|YSize=19.68mil|CornerRadius=1.97mil|HoleSize=0mil|Usage=FLASHONLY|Rotation=90.000|XOffset=0mil|YOffset=0mil|HoleType=Round|Shape=RoundedRectangle|*
%AMROUNDEDRECTD28*
21,1,0.02362,0.01575,0,0,90.0*
21,1,0.01968,0.01968,0,0,90.0*
1,1,0.00394,0.00787,0.00984*
1,1,0.00394,0.00787,-0.00984*
1,1,0.00394,-0.00787,-0.00984*
1,1,0.00394,-0.00787,0.00984*
%
%ADD28ROUNDEDRECTD28*%
G04:AMPARAMS|DCode=30|XSize=11.81mil|YSize=23.62mil|CornerRadius=1.95mil|HoleSize=0mil|Usage=FLASHONLY|Rotation=180.000|XOffset=0mil|YOffset=0mil|HoleType=Round|Shape=RoundedRectangle|*
%AMROUNDEDRECTD30*
21,1,0.01181,0.01972,0,0,180.0*
21,1,0.00791,0.02362,0,0,180.0*
1,1,0.00390,-0.00396,0.00986*
1,1,0.00390,0.00396,0.00986*
1,1,0.00390,0.00396,-0.00986*
1,1,0.00390,-0.00396,-0.00986*
%
%ADD30ROUNDEDRECTD30*%
G04:AMPARAMS|DCode=31|XSize=11.81mil|YSize=23.62mil|CornerRadius=1.95mil|HoleSize=0mil|Usage=FLASHONLY|Rotation=90.000|XOffset=0mil|YOffset=0mil|HoleType=Round|Shape=RoundedRectangle|*
%AMROUNDEDRECTD31*
21,1,0.01181,0.01972,0,0,90.0*
21,1,0.00791,0.02362,0,0,90.0*
1,1,0.00390,0.00986,0.00396*
1,1,0.00390,0.00986,-0.00396*
1,1,0.00390,-0.00986,-0.00396*
1,1,0.00390,-0.00986,0.00396*
%
%ADD31ROUNDEDRECTD31*%
%ADD32R,0.08858X0.03543*%
G04:AMPARAMS|DCode=44|XSize=54.33mil|YSize=41.34mil|CornerRadius=4.13mil|HoleSize=0mil|Usage=FLASHONLY|Rotation=180.000|XOffset=0mil|YOffset=0mil|HoleType=Round|Shape=RoundedRectangle|*
%AMROUNDEDRECTD44*
21,1,0.05433,0.03307,0,0,180.0*
21,1,0.04606,0.04134,0,0,180.0*
1,1,0.00827,-0.02303,0.01654*
1,1,0.00827,0.02303,0.01654*
1,1,0.00827,0.02303,-0.01654*
1,1,0.00827,-0.02303,-0.01654*
%
%ADD44ROUNDEDRECTD44*%
G04:AMPARAMS|DCode=47|XSize=23.62mil|YSize=19.68mil|CornerRadius=1.97mil|HoleSize=0mil|Usage=FLASHONLY|Rotation=180.000|XOffset=0mil|YOffset=0mil|HoleType=Round|Shape=RoundedRectangle|*
%AMROUNDEDRECTD47*
21,1,0.02362,0.01575,0,0,180.0*
21,1,0.01968,0.01968,0,0,180.0*
1,1,0.00394,-0.00984,0.00787*
1,1,0.00394,0.00984,0.00787*
1,1,0.00394,0.00984,-0.00787*
1,1,0.00394,-0.00984,-0.00787*
%
%ADD47ROUNDEDRECTD47*%
G04:AMPARAMS|DCode=48|XSize=15.75mil|YSize=14.57mil|CornerRadius=1.46mil|HoleSize=0mil|Usage=FLASHONLY|Rotation=90.000|XOffset=0mil|YOffset=0mil|HoleType=Round|Shape=RoundedRectangle|*
%AMROUNDEDRECTD48*
21,1,0.01575,0.01165,0,0,90.0*
21,1,0.01284,0.01457,0,0,90.0*
1,1,0.00291,0.00583,0.00642*
1,1,0.00291,0.00583,-0.00642*
1,1,0.00291,-0.00583,-0.00642*
1,1,0.00291,-0.00583,0.00642*
%
%ADD48ROUNDEDRECTD48*%
%ADD49C,0.03937*%
G04:AMPARAMS|DCode=50|XSize=71.65mil|YSize=42.13mil|CornerRadius=4.21mil|HoleSize=0mil|Usage=FLASHONLY|Rotation=180.000|XOffset=0mil|YOffset=0mil|HoleType=Round|Shape=RoundedRectangle|*
%AMROUNDEDRECTD50*
21,1,0.07165,0.03370,0,0,180.0*
21,1,0.06323,0.04213,0,0,180.0*
1,1,0.00843,-0.03161,0.01685*
1,1,0.00843,0.03161,0.01685*
1,1,0.00843,0.03161,-0.01685*
1,1,0.00843,-0.03161,-0.01685*
%
%ADD50ROUNDEDRECTD50*%
%ADD64R,0.05905X0.05905*%
%ADD65C,0.05905*%
%ADD66R,0.05905X0.05905*%
%ADD67R,0.05315X0.05315*%
%ADD70O,0.01024X0.03543*%
%ADD71O,0.03543X0.01024*%
%ADD72R,0.13583X0.13583*%
%ADD73C,0.00984*%
G04:AMPARAMS|DCode=74|XSize=54.33mil|YSize=41.34mil|CornerRadius=4.13mil|HoleSize=0mil|Usage=FLASHONLY|Rotation=270.000|XOffset=0mil|YOffset=0mil|HoleType=Round|Shape=RoundedRectangle|*
%AMROUNDEDRECTD74*
21,1,0.05433,0.03307,0,0,270.0*
21,1,0.04606,0.04134,0,0,270.0*
1,1,0.00827,-0.01654,-0.02303*
1,1,0.00827,-0.01654,0.02303*
1,1,0.00827,0.01654,0.02303*
1,1,0.00827,0.01654,-0.02303*
%
%ADD74ROUNDEDRECTD74*%
%ADD76C,0.07874*%
D11*
X121693Y217441D02*
D03*
Y211535D02*
D03*
X126417D02*
D03*
Y217441D02*
D03*
D25*
X134685Y142539D02*
D03*
Y140295D02*
D03*
X128583Y131280D02*
D03*
Y129035D02*
D03*
X122992Y142579D02*
D03*
Y140335D02*
D03*
X98032Y120098D02*
D03*
Y122343D02*
D03*
X100866Y116752D02*
D03*
Y118996D02*
D03*
X104409Y95028D02*
D03*
Y97272D02*
D03*
X124213Y105689D02*
D03*
Y107933D02*
D03*
X122087Y130000D02*
D03*
Y127756D02*
D03*
X99197Y108846D02*
D03*
Y106602D02*
D03*
X117323Y211516D02*
D03*
Y209272D02*
D03*
X102244Y218130D02*
D03*
Y220374D02*
D03*
X117520Y218012D02*
D03*
Y215768D02*
D03*
X80354Y105886D02*
D03*
Y108130D02*
D03*
X68504Y246161D02*
D03*
Y243917D02*
D03*
D28*
X147480Y252008D02*
D03*
X151023D02*
D03*
X111102Y143543D02*
D03*
X114646D02*
D03*
X88543Y135039D02*
D03*
X85000D02*
D03*
X83583Y113898D02*
D03*
X80039D02*
D03*
X123661Y201496D02*
D03*
X120118D02*
D03*
X122008Y113701D02*
D03*
X125551D02*
D03*
X116693Y123386D02*
D03*
X113150D02*
D03*
X167953Y113189D02*
D03*
X171496D02*
D03*
X174803D02*
D03*
X178347D02*
D03*
X116520Y97650D02*
D03*
X112976D02*
D03*
X129252Y112110D02*
D03*
X132795D02*
D03*
X191378Y185905D02*
D03*
X187835D02*
D03*
X191378Y190276D02*
D03*
X187835D02*
D03*
D30*
X152382Y103740D02*
D03*
X160059D02*
D03*
X157500D02*
D03*
X154941D02*
D03*
Y122638D02*
D03*
X157500D02*
D03*
X160059D02*
D03*
X152382D02*
D03*
D31*
X163701Y106791D02*
D03*
Y109350D02*
D03*
Y111909D02*
D03*
Y114469D02*
D03*
Y117027D02*
D03*
Y119587D02*
D03*
X148740Y119587D02*
D03*
Y117027D02*
D03*
Y114469D02*
D03*
Y111909D02*
D03*
Y109350D02*
D03*
Y106791D02*
D03*
D32*
X155138Y107480D02*
D03*
D44*
X128976Y139409D02*
D03*
Y146417D02*
D03*
D47*
X84606Y246772D02*
D03*
Y243228D02*
D03*
X88150Y246772D02*
D03*
Y243228D02*
D03*
X91693Y246772D02*
D03*
Y243228D02*
D03*
X73701Y246772D02*
D03*
Y243228D02*
D03*
X77244Y246772D02*
D03*
Y243228D02*
D03*
X80906Y246772D02*
D03*
Y243228D02*
D03*
X113063Y92177D02*
D03*
Y88634D02*
D03*
X74882Y112362D02*
D03*
Y115906D02*
D03*
X106795Y104535D02*
D03*
Y108079D02*
D03*
X110756D02*
D03*
Y104535D02*
D03*
X110591Y133386D02*
D03*
Y136929D02*
D03*
X129095Y119646D02*
D03*
Y123189D02*
D03*
X108976Y147677D02*
D03*
Y151221D02*
D03*
X104291Y151299D02*
D03*
Y154843D02*
D03*
X116740Y88583D02*
D03*
Y92126D02*
D03*
X109606Y117874D02*
D03*
Y121417D02*
D03*
X110472Y222047D02*
D03*
Y218504D02*
D03*
X144370Y111890D02*
D03*
Y108346D02*
D03*
D48*
X121909Y122520D02*
D03*
X119665D02*
D03*
X95886Y143543D02*
D03*
X98130D02*
D03*
X115098Y220984D02*
D03*
X117342D02*
D03*
X109468Y130433D02*
D03*
X111713D02*
D03*
Y112126D02*
D03*
X109468D02*
D03*
X119760Y109161D02*
D03*
X117516D02*
D03*
X97736Y112323D02*
D03*
X99980D02*
D03*
X104980Y111969D02*
D03*
X102736D02*
D03*
X109468Y127480D02*
D03*
X111713D02*
D03*
X115138Y115630D02*
D03*
X112894D02*
D03*
X117894Y205433D02*
D03*
X120138D02*
D03*
X103602Y120276D02*
D03*
X105847D02*
D03*
X105161Y101606D02*
D03*
X102917D02*
D03*
X115268Y101028D02*
D03*
X117512D02*
D03*
X128768Y108748D02*
D03*
X131012D02*
D03*
X117067Y197520D02*
D03*
X119311D02*
D03*
X92697Y119606D02*
D03*
X94941D02*
D03*
D49*
X163079Y208886D02*
D03*
X7874Y262126D02*
D03*
X48583Y10158D02*
D03*
X186378Y29842D02*
D03*
X157051Y203417D02*
D03*
X155000Y214189D02*
D03*
X169311Y202213D02*
D03*
D50*
X52953Y146083D02*
D03*
Y158091D02*
D03*
X159331Y140532D02*
D03*
Y128524D02*
D03*
X150472Y140532D02*
D03*
Y128524D02*
D03*
X139449Y132343D02*
D03*
Y120335D02*
D03*
D64*
X100000Y9803D02*
D03*
D65*
Y19803D02*
D03*
X90000Y9803D02*
D03*
Y19803D02*
D03*
X80000Y9803D02*
D03*
Y19803D02*
D03*
X70000Y9803D02*
D03*
Y19803D02*
D03*
X10000Y20000D02*
D03*
Y60000D02*
D03*
Y50000D02*
D03*
Y40000D02*
D03*
Y30000D02*
D03*
X200197Y185965D02*
D03*
Y195965D02*
D03*
Y175964D02*
D03*
Y165964D02*
D03*
Y145965D02*
D03*
Y135965D02*
D03*
Y125964D02*
D03*
Y115964D02*
D03*
Y155965D02*
D03*
X10000Y110000D02*
D03*
Y150000D02*
D03*
Y140000D02*
D03*
Y130000D02*
D03*
Y120000D02*
D03*
Y100000D02*
D03*
Y90000D02*
D03*
X156378Y262087D02*
D03*
X200000Y70000D02*
D03*
Y30000D02*
D03*
Y40000D02*
D03*
Y50000D02*
D03*
Y60000D02*
D03*
Y80000D02*
D03*
Y90000D02*
D03*
D66*
X10000Y70000D02*
D03*
X200197Y105965D02*
D03*
X10000Y160000D02*
D03*
X200000Y20000D02*
D03*
D67*
X156378Y252087D02*
D03*
D70*
X98228Y214016D02*
D03*
X100197D02*
D03*
X110039Y194803D02*
D03*
X108071D02*
D03*
X106102D02*
D03*
X104134D02*
D03*
X102165D02*
D03*
X100197D02*
D03*
X98228D02*
D03*
X96260D02*
D03*
Y214016D02*
D03*
X102165D02*
D03*
X104134D02*
D03*
X106102D02*
D03*
X108071D02*
D03*
X110039D02*
D03*
D71*
X93543Y197520D02*
D03*
Y199488D02*
D03*
Y201457D02*
D03*
Y203425D02*
D03*
Y205394D02*
D03*
Y207362D02*
D03*
Y209331D02*
D03*
Y211299D02*
D03*
X112756D02*
D03*
Y209331D02*
D03*
Y207362D02*
D03*
Y205394D02*
D03*
Y203425D02*
D03*
Y201457D02*
D03*
Y199488D02*
D03*
Y197520D02*
D03*
D72*
X103150Y204410D02*
D03*
D73*
X81063Y79449D02*
D03*
Y77480D02*
D03*
Y75512D02*
D03*
Y73543D02*
D03*
Y71575D02*
D03*
Y69606D02*
D03*
Y67638D02*
D03*
Y65669D02*
D03*
Y63701D02*
D03*
Y61732D02*
D03*
Y59764D02*
D03*
X83031Y79449D02*
D03*
Y77480D02*
D03*
Y75512D02*
D03*
Y73543D02*
D03*
Y71575D02*
D03*
Y69606D02*
D03*
Y67638D02*
D03*
Y65669D02*
D03*
Y63701D02*
D03*
Y61732D02*
D03*
Y59764D02*
D03*
X85000Y79449D02*
D03*
Y77480D02*
D03*
Y75512D02*
D03*
Y71575D02*
D03*
Y69606D02*
D03*
Y67638D02*
D03*
Y63701D02*
D03*
Y61732D02*
D03*
Y59764D02*
D03*
X86968Y79449D02*
D03*
Y77480D02*
D03*
Y61732D02*
D03*
Y59764D02*
D03*
X88937Y79449D02*
D03*
Y77480D02*
D03*
Y75512D02*
D03*
Y63701D02*
D03*
Y61732D02*
D03*
Y59764D02*
D03*
X90905Y79449D02*
D03*
Y77480D02*
D03*
Y71575D02*
D03*
Y69606D02*
D03*
Y67638D02*
D03*
X92874Y79449D02*
D03*
Y77480D02*
D03*
Y75512D02*
D03*
Y71575D02*
D03*
Y69606D02*
D03*
Y67638D02*
D03*
Y63701D02*
D03*
Y61732D02*
D03*
Y59764D02*
D03*
X94842Y79449D02*
D03*
Y77480D02*
D03*
Y71575D02*
D03*
Y69606D02*
D03*
Y67638D02*
D03*
Y61732D02*
D03*
Y59764D02*
D03*
X96811Y79449D02*
D03*
Y77480D02*
D03*
Y75512D02*
D03*
Y71575D02*
D03*
Y69606D02*
D03*
Y67638D02*
D03*
Y63701D02*
D03*
Y61732D02*
D03*
Y59764D02*
D03*
X98779Y79449D02*
D03*
Y77480D02*
D03*
Y71575D02*
D03*
Y69606D02*
D03*
Y67638D02*
D03*
Y61732D02*
D03*
Y59764D02*
D03*
X100748Y79449D02*
D03*
Y77480D02*
D03*
Y75512D02*
D03*
Y63701D02*
D03*
Y61732D02*
D03*
Y59764D02*
D03*
X102717Y79449D02*
D03*
Y77480D02*
D03*
Y61732D02*
D03*
Y59764D02*
D03*
X104685Y79449D02*
D03*
Y77480D02*
D03*
Y75512D02*
D03*
Y71575D02*
D03*
Y69606D02*
D03*
Y67638D02*
D03*
Y63701D02*
D03*
Y61732D02*
D03*
Y59764D02*
D03*
X106653Y79449D02*
D03*
Y77480D02*
D03*
Y75512D02*
D03*
Y73543D02*
D03*
Y71575D02*
D03*
Y69606D02*
D03*
Y67638D02*
D03*
Y65669D02*
D03*
Y63701D02*
D03*
Y61732D02*
D03*
Y59764D02*
D03*
X108622Y79449D02*
D03*
Y77480D02*
D03*
Y75512D02*
D03*
Y73543D02*
D03*
Y71575D02*
D03*
Y69606D02*
D03*
Y67638D02*
D03*
Y65669D02*
D03*
Y63701D02*
D03*
Y61732D02*
D03*
Y59764D02*
D03*
X90905D02*
D03*
Y61732D02*
D03*
D74*
X71063Y255591D02*
D03*
X78071D02*
D03*
D76*
X8268Y262126D02*
G03*
X8268Y262126I-394J0D01*
G01*
X48976Y10158D02*
G03*
X48976Y10158I-394J0D01*
G01*
X186772Y29842D02*
G03*
X186772Y29842I-394J0D01*
G01*
M02*
