G04 Layer_Physical_Order=3*
G04 Layer_Color=36540*
%FSLAX25Y25*%
%MOIN*%
G70*
G01*
G75*
%ADD10C,0.00591*%
%ADD55C,0.00394*%
%ADD56C,0.00787*%
%ADD58C,0.00300*%
%ADD64R,0.05905X0.05905*%
%ADD65C,0.05905*%
%ADD66R,0.05905X0.05905*%
%ADD67R,0.05315X0.05315*%
%ADD68C,0.01772*%
%ADD69C,0.02362*%
G36*
X206063Y268991D02*
X206821Y268891D01*
X207527Y268599D01*
X208133Y268133D01*
X208598Y267527D01*
X208891Y266821D01*
X208991Y266063D01*
X208997D01*
Y16400D01*
X203600Y11004D01*
X159016D01*
X158632Y10927D01*
X158306Y10710D01*
X148600Y1003D01*
X20416D01*
X10710Y10710D01*
X10384Y10927D01*
X10000Y11004D01*
X3937D01*
Y11009D01*
X3179Y11109D01*
X2473Y11401D01*
X1867Y11867D01*
X1401Y12473D01*
X1109Y13179D01*
X1009Y13937D01*
X1003D01*
Y266063D01*
X1009D01*
X1109Y266821D01*
X1401Y267527D01*
X1867Y268133D01*
X2473Y268599D01*
X3179Y268891D01*
X3937Y268991D01*
Y268997D01*
X206063D01*
Y268991D01*
D02*
G37*
%LPC*%
G36*
X30000Y17121D02*
X28611Y16984D01*
X27275Y16579D01*
X26044Y15921D01*
X24965Y15035D01*
X24079Y13956D01*
X23421Y12725D01*
X23016Y11389D01*
X22879Y10000D01*
X23016Y8611D01*
X23421Y7275D01*
X24079Y6044D01*
X24965Y4965D01*
X26044Y4079D01*
X27275Y3421D01*
X28611Y3016D01*
X30000Y2879D01*
X31389Y3016D01*
X32725Y3421D01*
X33956Y4079D01*
X35035Y4965D01*
X35921Y6044D01*
X36579Y7275D01*
X36984Y8611D01*
X37121Y10000D01*
X36984Y11389D01*
X36579Y12725D01*
X35921Y13956D01*
X35035Y15035D01*
X33956Y15921D01*
X32725Y16579D01*
X31389Y16984D01*
X30000Y17121D01*
D02*
G37*
G36*
X140000D02*
X138611Y16984D01*
X137275Y16579D01*
X136044Y15921D01*
X134965Y15035D01*
X134079Y13956D01*
X133421Y12725D01*
X133016Y11389D01*
X132879Y10000D01*
X133016Y8611D01*
X133421Y7275D01*
X134079Y6044D01*
X134965Y4965D01*
X136044Y4079D01*
X137275Y3421D01*
X138611Y3016D01*
X140000Y2879D01*
X141389Y3016D01*
X142725Y3421D01*
X143956Y4079D01*
X145035Y4965D01*
X145921Y6044D01*
X146579Y7275D01*
X146984Y8611D01*
X147121Y10000D01*
X146984Y11389D01*
X146579Y12725D01*
X145921Y13956D01*
X145035Y15035D01*
X143956Y15921D01*
X142725Y16579D01*
X141389Y16984D01*
X140000Y17121D01*
D02*
G37*
G36*
X200197Y129737D02*
X199221Y129608D01*
X198311Y129232D01*
X197529Y128632D01*
X196930Y127851D01*
X196553Y126941D01*
X196424Y125964D01*
X196553Y124988D01*
X196930Y124078D01*
X197529Y123297D01*
X198311Y122697D01*
X199221Y122321D01*
X200197Y122192D01*
X201173Y122321D01*
X202083Y122697D01*
X202864Y123297D01*
X203464Y124078D01*
X203841Y124988D01*
X203969Y125964D01*
X203841Y126941D01*
X203464Y127851D01*
X202864Y128632D01*
X202083Y129232D01*
X201173Y129608D01*
X200197Y129737D01*
D02*
G37*
G36*
X70000Y13576D02*
X69024Y13447D01*
X68114Y13070D01*
X67333Y12471D01*
X66733Y11689D01*
X66356Y10780D01*
X66228Y9803D01*
X66356Y8827D01*
X66733Y7917D01*
X67333Y7136D01*
X68114Y6536D01*
X69024Y6159D01*
X70000Y6031D01*
X70976Y6159D01*
X71886Y6536D01*
X72667Y7136D01*
X73267Y7917D01*
X73644Y8827D01*
X73772Y9803D01*
X73644Y10780D01*
X73267Y11689D01*
X72667Y12471D01*
X71886Y13070D01*
X70976Y13447D01*
X70000Y13576D01*
D02*
G37*
G36*
X107638Y136659D02*
X107139Y136560D01*
X106715Y136277D01*
X106432Y135854D01*
X106333Y135354D01*
X106432Y134855D01*
X106715Y134432D01*
X107139Y134149D01*
X107638Y134050D01*
X108137Y134149D01*
X108560Y134432D01*
X108843Y134855D01*
X108942Y135354D01*
X108843Y135854D01*
X108560Y136277D01*
X108137Y136560D01*
X107638Y136659D01*
D02*
G37*
G36*
X113543D02*
X113044Y136560D01*
X112621Y136277D01*
X112338Y135854D01*
X112239Y135354D01*
X112338Y134855D01*
X112621Y134432D01*
X113044Y134149D01*
X113543Y134050D01*
X114042Y134149D01*
X114466Y134432D01*
X114749Y134855D01*
X114848Y135354D01*
X114749Y135854D01*
X114466Y136277D01*
X114042Y136560D01*
X113543Y136659D01*
D02*
G37*
G36*
X104488Y136659D02*
X103989Y136560D01*
X103566Y136277D01*
X103283Y135854D01*
X103184Y135354D01*
X103283Y134855D01*
X103566Y134432D01*
X103989Y134149D01*
X104488Y134050D01*
X104987Y134149D01*
X105411Y134432D01*
X105693Y134855D01*
X105793Y135354D01*
X105693Y135854D01*
X105411Y136277D01*
X104987Y136560D01*
X104488Y136659D01*
D02*
G37*
G36*
X10000Y133772D02*
X9024Y133644D01*
X8114Y133267D01*
X7333Y132668D01*
X6733Y131886D01*
X6356Y130976D01*
X6228Y130000D01*
X6356Y129024D01*
X6733Y128114D01*
X7333Y127332D01*
X8114Y126733D01*
X9024Y126356D01*
X10000Y126228D01*
X10976Y126356D01*
X11886Y126733D01*
X12667Y127332D01*
X13267Y128114D01*
X13644Y129024D01*
X13772Y130000D01*
X13644Y130976D01*
X13267Y131886D01*
X12667Y132668D01*
X11886Y133267D01*
X10976Y133644D01*
X10000Y133772D01*
D02*
G37*
G36*
X200197Y139737D02*
X199221Y139608D01*
X198311Y139232D01*
X197529Y138632D01*
X196930Y137851D01*
X196553Y136941D01*
X196424Y135965D01*
X196553Y134988D01*
X196930Y134078D01*
X197529Y133297D01*
X198311Y132697D01*
X199221Y132321D01*
X200197Y132192D01*
X201173Y132321D01*
X202083Y132697D01*
X202864Y133297D01*
X203464Y134078D01*
X203841Y134988D01*
X203969Y135965D01*
X203841Y136941D01*
X203464Y137851D01*
X202864Y138632D01*
X202083Y139232D01*
X201173Y139608D01*
X200197Y139737D01*
D02*
G37*
G36*
X99606Y13543D02*
X96260D01*
Y10197D01*
X99606D01*
Y13543D01*
D02*
G37*
G36*
X37087Y120950D02*
X36587Y120851D01*
X36164Y120568D01*
X35881Y120145D01*
X35782Y119646D01*
X35881Y119146D01*
X36164Y118723D01*
X36587Y118440D01*
X37087Y118341D01*
X37586Y118440D01*
X38009Y118723D01*
X38292Y119146D01*
X38391Y119646D01*
X38292Y120145D01*
X38009Y120568D01*
X37586Y120851D01*
X37087Y120950D01*
D02*
G37*
G36*
X10000Y123772D02*
X9024Y123644D01*
X8114Y123267D01*
X7333Y122668D01*
X6733Y121886D01*
X6356Y120976D01*
X6228Y120000D01*
X6356Y119024D01*
X6733Y118114D01*
X7333Y117332D01*
X8114Y116733D01*
X9024Y116356D01*
X10000Y116228D01*
X10976Y116356D01*
X11886Y116733D01*
X12667Y117332D01*
X13267Y118114D01*
X13644Y119024D01*
X13772Y120000D01*
X13644Y120976D01*
X13267Y121886D01*
X12667Y122668D01*
X11886Y123267D01*
X10976Y123644D01*
X10000Y123772D01*
D02*
G37*
G36*
X103740Y13543D02*
X100394D01*
Y10197D01*
X103740D01*
Y13543D01*
D02*
G37*
G36*
X97598Y118549D02*
X97099Y118449D01*
X96676Y118167D01*
X96393Y117743D01*
X96294Y117244D01*
X96393Y116745D01*
X96676Y116322D01*
X97099Y116039D01*
X97598Y115939D01*
X98098Y116039D01*
X98521Y116322D01*
X98804Y116745D01*
X98903Y117244D01*
X98804Y117743D01*
X98521Y118167D01*
X98098Y118449D01*
X97598Y118549D01*
D02*
G37*
G36*
X80000Y13576D02*
X79024Y13447D01*
X78114Y13070D01*
X77333Y12471D01*
X76733Y11689D01*
X76356Y10780D01*
X76228Y9803D01*
X76356Y8827D01*
X76733Y7917D01*
X77333Y7136D01*
X78114Y6536D01*
X79024Y6159D01*
X80000Y6031D01*
X80976Y6159D01*
X81886Y6536D01*
X82667Y7136D01*
X83267Y7917D01*
X83644Y8827D01*
X83772Y9803D01*
X83644Y10780D01*
X83267Y11689D01*
X82667Y12471D01*
X81886Y13070D01*
X80976Y13447D01*
X80000Y13576D01*
D02*
G37*
G36*
X95039Y124060D02*
X94540Y123961D01*
X94117Y123678D01*
X93834Y123255D01*
X93735Y122756D01*
X93834Y122257D01*
X94117Y121833D01*
X94540Y121551D01*
X95039Y121451D01*
X95539Y121551D01*
X95962Y121833D01*
X96245Y122257D01*
X96344Y122756D01*
X96245Y123255D01*
X95962Y123678D01*
X95539Y123961D01*
X95039Y124060D01*
D02*
G37*
G36*
X90000Y13576D02*
X89024Y13447D01*
X88114Y13070D01*
X87332Y12471D01*
X86733Y11689D01*
X86356Y10780D01*
X86228Y9803D01*
X86356Y8827D01*
X86733Y7917D01*
X87332Y7136D01*
X88114Y6536D01*
X89024Y6159D01*
X90000Y6031D01*
X90976Y6159D01*
X91886Y6536D01*
X92668Y7136D01*
X93267Y7917D01*
X93644Y8827D01*
X93772Y9803D01*
X93644Y10780D01*
X93267Y11689D01*
X92668Y12471D01*
X91886Y13070D01*
X90976Y13447D01*
X90000Y13576D01*
D02*
G37*
G36*
X103740Y9409D02*
X100394D01*
Y6063D01*
X103740D01*
Y9409D01*
D02*
G37*
G36*
X99606D02*
X96260D01*
Y6063D01*
X99606D01*
Y9409D01*
D02*
G37*
G36*
X82559Y153627D02*
X82060Y153528D01*
X81637Y153245D01*
X81354Y152822D01*
X81255Y152323D01*
X81354Y151824D01*
X81637Y151400D01*
X82060Y151118D01*
X82559Y151018D01*
X83058Y151118D01*
X83482Y151400D01*
X83764Y151824D01*
X83864Y152323D01*
X83764Y152822D01*
X83482Y153245D01*
X83058Y153528D01*
X82559Y153627D01*
D02*
G37*
G36*
X200197Y159737D02*
X199221Y159608D01*
X198311Y159231D01*
X197529Y158632D01*
X196930Y157851D01*
X196553Y156941D01*
X196424Y155965D01*
X196553Y154988D01*
X196930Y154078D01*
X197529Y153297D01*
X198311Y152698D01*
X199221Y152321D01*
X200197Y152192D01*
X201173Y152321D01*
X202083Y152698D01*
X202864Y153297D01*
X203464Y154078D01*
X203841Y154988D01*
X203969Y155965D01*
X203841Y156941D01*
X203464Y157851D01*
X202864Y158632D01*
X202083Y159231D01*
X201173Y159608D01*
X200197Y159737D01*
D02*
G37*
G36*
X39106Y151671D02*
X38607Y151572D01*
X38184Y151289D01*
X37901Y150865D01*
X37802Y150366D01*
X37901Y149867D01*
X38184Y149444D01*
X38607Y149161D01*
X39106Y149062D01*
X39606Y149161D01*
X40029Y149444D01*
X40312Y149867D01*
X40411Y150366D01*
X40312Y150865D01*
X40029Y151289D01*
X39606Y151572D01*
X39106Y151671D01*
D02*
G37*
G36*
X66023Y148982D02*
X65524Y148882D01*
X65101Y148600D01*
X64818Y148177D01*
X64719Y147677D01*
X64818Y147178D01*
X65101Y146755D01*
X65524Y146472D01*
X66023Y146373D01*
X66523Y146472D01*
X66946Y146755D01*
X67229Y147178D01*
X67328Y147677D01*
X67229Y148177D01*
X66946Y148600D01*
X66523Y148882D01*
X66023Y148982D01*
D02*
G37*
G36*
X172480Y150596D02*
X171981Y150497D01*
X171558Y150214D01*
X171275Y149791D01*
X171176Y149291D01*
X171275Y148792D01*
X171558Y148369D01*
X171981Y148086D01*
X172480Y147987D01*
X172979Y148086D01*
X173403Y148369D01*
X173686Y148792D01*
X173785Y149291D01*
X173686Y149791D01*
X173403Y150214D01*
X172979Y150497D01*
X172480Y150596D01*
D02*
G37*
G36*
X101811Y159100D02*
X101312Y159001D01*
X100889Y158718D01*
X100606Y158294D01*
X100506Y157795D01*
X100606Y157296D01*
X100889Y156873D01*
X101312Y156590D01*
X101811Y156491D01*
X102310Y156590D01*
X102734Y156873D01*
X103016Y157296D01*
X103116Y157795D01*
X103016Y158294D01*
X102734Y158718D01*
X102310Y159001D01*
X101811Y159100D01*
D02*
G37*
G36*
X48327Y159395D02*
X47828Y159296D01*
X47404Y159013D01*
X47122Y158590D01*
X47022Y158091D01*
X47122Y157591D01*
X47404Y157168D01*
X47828Y156885D01*
X48327Y156786D01*
X48826Y156885D01*
X49249Y157168D01*
X49532Y157591D01*
X49631Y158091D01*
X49532Y158590D01*
X49249Y159013D01*
X48826Y159296D01*
X48327Y159395D01*
D02*
G37*
G36*
X107087Y159061D02*
X106587Y158961D01*
X106164Y158678D01*
X105881Y158255D01*
X105782Y157756D01*
X105881Y157257D01*
X106164Y156833D01*
X106587Y156551D01*
X107087Y156451D01*
X107586Y156551D01*
X108009Y156833D01*
X108292Y157257D01*
X108391Y157756D01*
X108292Y158255D01*
X108009Y158678D01*
X107586Y158961D01*
X107087Y159061D01*
D02*
G37*
G36*
X13740Y163740D02*
X6260D01*
Y156260D01*
X13740D01*
Y163740D01*
D02*
G37*
G36*
X169724Y158942D02*
X169225Y158843D01*
X168802Y158560D01*
X168519Y158137D01*
X168420Y157638D01*
X168519Y157139D01*
X168802Y156715D01*
X169225Y156432D01*
X169724Y156333D01*
X170224Y156432D01*
X170647Y156715D01*
X170930Y157139D01*
X171029Y157638D01*
X170930Y158137D01*
X170647Y158560D01*
X170224Y158843D01*
X169724Y158942D01*
D02*
G37*
G36*
X168465Y142761D02*
X167965Y142662D01*
X167542Y142379D01*
X167259Y141956D01*
X167160Y141457D01*
X167259Y140957D01*
X167542Y140534D01*
X167965Y140251D01*
X168465Y140152D01*
X168964Y140251D01*
X169387Y140534D01*
X169670Y140957D01*
X169769Y141457D01*
X169670Y141956D01*
X169387Y142379D01*
X168964Y142662D01*
X168465Y142761D01*
D02*
G37*
G36*
X172441Y142801D02*
X171942Y142701D01*
X171519Y142419D01*
X171236Y141995D01*
X171136Y141496D01*
X171236Y140997D01*
X171519Y140574D01*
X171942Y140291D01*
X172441Y140191D01*
X172940Y140291D01*
X173363Y140574D01*
X173646Y140997D01*
X173746Y141496D01*
X173646Y141995D01*
X173363Y142419D01*
X172940Y142701D01*
X172441Y142801D01*
D02*
G37*
G36*
X132835Y141580D02*
X132335Y141481D01*
X131912Y141198D01*
X131629Y140775D01*
X131530Y140276D01*
X131629Y139776D01*
X131912Y139353D01*
X132335Y139070D01*
X132835Y138971D01*
X133334Y139070D01*
X133757Y139353D01*
X134040Y139776D01*
X134139Y140276D01*
X134040Y140775D01*
X133757Y141198D01*
X133334Y141481D01*
X132835Y141580D01*
D02*
G37*
G36*
X10000Y143772D02*
X9024Y143644D01*
X8114Y143267D01*
X7333Y142667D01*
X6733Y141886D01*
X6356Y140976D01*
X6228Y140000D01*
X6356Y139024D01*
X6733Y138114D01*
X7333Y137332D01*
X8114Y136733D01*
X9024Y136356D01*
X10000Y136228D01*
X10976Y136356D01*
X11886Y136733D01*
X12667Y137332D01*
X13267Y138114D01*
X13644Y139024D01*
X13772Y140000D01*
X13644Y140976D01*
X13267Y141886D01*
X12667Y142667D01*
X11886Y143267D01*
X10976Y143644D01*
X10000Y143772D01*
D02*
G37*
G36*
X122992Y139808D02*
X122493Y139709D01*
X122070Y139426D01*
X121787Y139003D01*
X121687Y138504D01*
X121787Y138005D01*
X122070Y137582D01*
X122493Y137299D01*
X122992Y137199D01*
X123491Y137299D01*
X123915Y137582D01*
X124197Y138005D01*
X124297Y138504D01*
X124197Y139003D01*
X123915Y139426D01*
X123491Y139709D01*
X122992Y139808D01*
D02*
G37*
G36*
X104331Y150635D02*
X103832Y150536D01*
X103408Y150253D01*
X103125Y149830D01*
X103026Y149331D01*
X103125Y148831D01*
X103408Y148408D01*
X103657Y148242D01*
X103720Y147832D01*
X103699Y147776D01*
X103440Y147389D01*
X103341Y146890D01*
X103440Y146390D01*
X103723Y145967D01*
X104146Y145685D01*
X104646Y145585D01*
X105145Y145685D01*
X105568Y145967D01*
X105851Y146390D01*
X105950Y146890D01*
X105851Y147389D01*
X105568Y147812D01*
X105319Y147979D01*
X105256Y148389D01*
X105277Y148444D01*
X105536Y148831D01*
X105635Y149331D01*
X105536Y149830D01*
X105253Y150253D01*
X104830Y150536D01*
X104331Y150635D01*
D02*
G37*
G36*
X10000Y153772D02*
X9024Y153644D01*
X8114Y153267D01*
X7333Y152667D01*
X6733Y151886D01*
X6356Y150976D01*
X6228Y150000D01*
X6356Y149024D01*
X6733Y148114D01*
X7333Y147333D01*
X8114Y146733D01*
X9024Y146356D01*
X10000Y146228D01*
X10976Y146356D01*
X11886Y146733D01*
X12667Y147333D01*
X13267Y148114D01*
X13644Y149024D01*
X13772Y150000D01*
X13644Y150976D01*
X13267Y151886D01*
X12667Y152667D01*
X11886Y153267D01*
X10976Y153644D01*
X10000Y153772D01*
D02*
G37*
G36*
X109016Y146501D02*
X108517Y146402D01*
X108093Y146119D01*
X107810Y145696D01*
X107711Y145197D01*
X107810Y144698D01*
X108093Y144274D01*
X108517Y143992D01*
X109016Y143892D01*
X109515Y143992D01*
X109938Y144274D01*
X110221Y144698D01*
X110320Y145197D01*
X110221Y145696D01*
X109938Y146119D01*
X109515Y146402D01*
X109016Y146501D01*
D02*
G37*
G36*
X200197Y149737D02*
X199221Y149608D01*
X198311Y149232D01*
X197529Y148632D01*
X196930Y147851D01*
X196553Y146941D01*
X196424Y145965D01*
X196553Y144988D01*
X196930Y144078D01*
X197529Y143297D01*
X198311Y142698D01*
X199221Y142321D01*
X200197Y142192D01*
X201173Y142321D01*
X202083Y142698D01*
X202864Y143297D01*
X203464Y144078D01*
X203841Y144988D01*
X203969Y145965D01*
X203841Y146941D01*
X203464Y147851D01*
X202864Y148632D01*
X202083Y149232D01*
X201173Y149608D01*
X200197Y149737D01*
D02*
G37*
G36*
X137677Y233903D02*
X137178Y233804D01*
X136755Y233521D01*
X136472Y233098D01*
X136381Y232641D01*
X136366Y232608D01*
X136364Y232566D01*
X136361Y232545D01*
X136355Y232522D01*
X136345Y232493D01*
X136330Y232461D01*
X136310Y232425D01*
X136283Y232384D01*
X136249Y232340D01*
X136208Y232292D01*
X136153Y232234D01*
X136138Y232195D01*
X112188Y208245D01*
X112014Y207984D01*
X111953Y207677D01*
Y186435D01*
X97897Y172379D01*
X97723Y172118D01*
X97662Y171811D01*
Y147677D01*
X97723Y147370D01*
X97897Y147109D01*
X99800Y145207D01*
X99815Y145168D01*
X99870Y145110D01*
X99911Y145062D01*
X99944Y145018D01*
X99971Y144977D01*
X99992Y144940D01*
X100006Y144908D01*
X100016Y144880D01*
X100022Y144856D01*
X100025Y144835D01*
X100027Y144794D01*
X100042Y144761D01*
X100133Y144304D01*
X100199Y144206D01*
X99938Y143888D01*
X99606Y144025D01*
X80512D01*
X80060Y143838D01*
X71074Y134852D01*
X45000D01*
X44548Y134665D01*
X40414Y130531D01*
X40227Y130079D01*
Y108647D01*
X19889Y88309D01*
X19853Y88293D01*
X19806Y88278D01*
X19749Y88264D01*
X19688Y88253D01*
X19513Y88238D01*
X19413Y88237D01*
X19385Y88225D01*
X18910Y88130D01*
X18487Y87848D01*
X18204Y87424D01*
X18113Y86968D01*
X18098Y86935D01*
X18096Y86893D01*
X18093Y86872D01*
X18087Y86848D01*
X18077Y86820D01*
X18062Y86788D01*
X18042Y86751D01*
X18015Y86711D01*
X17982Y86666D01*
X17941Y86619D01*
X17886Y86560D01*
X17871Y86522D01*
X14787Y83438D01*
X14613Y83177D01*
X14551Y82870D01*
Y35687D01*
X12801Y33936D01*
X12769Y33926D01*
X12642Y33819D01*
X12507Y33736D01*
X12333Y33657D01*
X12118Y33584D01*
X11864Y33520D01*
X11572Y33466D01*
X11444Y33450D01*
X10976Y33644D01*
X10000Y33772D01*
X9024Y33644D01*
X8114Y33267D01*
X7333Y32667D01*
X6733Y31886D01*
X6356Y30976D01*
X6228Y30000D01*
Y20000D01*
X6356Y19024D01*
X6733Y18114D01*
X7333Y17333D01*
X8114Y16733D01*
X9024Y16356D01*
X10000Y16228D01*
X10976Y16356D01*
X11886Y16733D01*
X12667Y17333D01*
X13267Y18114D01*
X13644Y19024D01*
X13772Y20000D01*
X13644Y20976D01*
X13450Y21443D01*
X13466Y21572D01*
X13520Y21864D01*
X13584Y22118D01*
X13657Y22333D01*
X13736Y22507D01*
X13819Y22642D01*
X13926Y22769D01*
X13936Y22801D01*
X17890Y26755D01*
X17890Y26755D01*
X18065Y27016D01*
X18126Y27323D01*
X18126Y27323D01*
Y64510D01*
X19006Y65390D01*
X19045Y65405D01*
X19103Y65460D01*
X19151Y65501D01*
X19195Y65535D01*
X19236Y65562D01*
X19272Y65582D01*
X19305Y65597D01*
X19332Y65607D01*
X19356Y65613D01*
X19377Y65616D01*
X19419Y65618D01*
X19452Y65633D01*
X19909Y65724D01*
X20332Y66007D01*
X20615Y66430D01*
X20709Y66905D01*
X20721Y66933D01*
X20723Y67038D01*
X20728Y67125D01*
X20736Y67202D01*
X20748Y67269D01*
X20762Y67326D01*
X20778Y67373D01*
X20793Y67409D01*
X21909Y68524D01*
X22096Y68976D01*
Y86389D01*
X33101Y97394D01*
X33495Y97231D01*
Y74685D01*
X33682Y74233D01*
X37435Y70479D01*
X37451Y70444D01*
X37466Y70397D01*
X37480Y70340D01*
X37491Y70279D01*
X37506Y70103D01*
X37507Y70004D01*
X37519Y69976D01*
X37614Y69501D01*
X37896Y69077D01*
X38320Y68795D01*
X38819Y68695D01*
X39318Y68795D01*
X39741Y69077D01*
X39878Y69283D01*
X40106Y69582D01*
Y69582D01*
X41387Y70864D01*
Y84413D01*
X41288Y84913D01*
X41005Y85336D01*
X40976Y85355D01*
X40962Y85387D01*
X40887Y85457D01*
X40829Y85516D01*
X40781Y85572D01*
X40743Y85623D01*
X40713Y85669D01*
X40692Y85710D01*
X40679Y85742D01*
Y97964D01*
X48169Y105454D01*
X48356Y105905D01*
Y124853D01*
X49796Y126294D01*
X50159Y126100D01*
X50113Y125866D01*
X50212Y125367D01*
X50495Y124944D01*
X50918Y124661D01*
X51417Y124562D01*
X51917Y124661D01*
X52319Y124930D01*
X52348Y124941D01*
X52423Y125015D01*
X52488Y125072D01*
X52548Y125121D01*
X52604Y125160D01*
X52654Y125190D01*
X52699Y125213D01*
X52735Y125227D01*
X55905D01*
X56358Y125414D01*
X56958Y126014D01*
X86221D01*
X86673Y126201D01*
X87048Y126577D01*
X87194Y126555D01*
X87199Y126553D01*
X87477Y126116D01*
X87436Y125906D01*
X87535Y125406D01*
X87818Y124983D01*
X88241Y124700D01*
X88740Y124601D01*
X89239Y124700D01*
X89663Y124983D01*
X89946Y125406D01*
X90045Y125906D01*
X89992Y126173D01*
X90341Y126436D01*
X90522Y126349D01*
X90537Y126303D01*
X90551Y126245D01*
X90562Y126184D01*
X90577Y126009D01*
X90578Y125909D01*
X90590Y125881D01*
X90684Y125406D01*
X90967Y124983D01*
X91391Y124700D01*
X91890Y124601D01*
X92389Y124700D01*
X92812Y124983D01*
X93095Y125406D01*
X93194Y125906D01*
X93095Y126405D01*
X92812Y126828D01*
X92389Y127111D01*
X91914Y127205D01*
X91886Y127217D01*
X91781Y127219D01*
X91694Y127224D01*
X91617Y127232D01*
X91550Y127244D01*
X91493Y127258D01*
X91446Y127274D01*
X91359Y127455D01*
X91623Y127804D01*
X91890Y127751D01*
X92389Y127850D01*
X92812Y128133D01*
X93095Y128556D01*
X93194Y129055D01*
X93095Y129554D01*
X93001Y129695D01*
X93211Y130089D01*
X93718D01*
X93928Y129695D01*
X93834Y129554D01*
X93735Y129055D01*
X93834Y128556D01*
X94117Y128133D01*
X94540Y127850D01*
X95039Y127751D01*
X95539Y127850D01*
X95794Y128021D01*
X96188Y127816D01*
Y127144D01*
X95796Y126939D01*
X95539Y127111D01*
X95039Y127210D01*
X94540Y127111D01*
X94117Y126828D01*
X93834Y126405D01*
X93735Y125906D01*
X93834Y125406D01*
X94117Y124983D01*
X94540Y124700D01*
X95039Y124601D01*
X95539Y124700D01*
X95962Y124983D01*
X96245Y125406D01*
X96344Y125906D01*
X96287Y126191D01*
X96358Y126273D01*
X96639Y126441D01*
X97013Y126291D01*
X97109Y126292D01*
X97199Y126261D01*
X97265Y126293D01*
X97339Y126294D01*
X97406Y126363D01*
X97492Y126405D01*
X97584Y126510D01*
X97668Y126584D01*
X97761Y126646D01*
X97862Y126696D01*
X97968Y126732D01*
X98077Y126753D01*
X98189Y126761D01*
X98301Y126753D01*
X98410Y126732D01*
X98516Y126696D01*
X98617Y126646D01*
X98710Y126584D01*
X98794Y126510D01*
X98867Y126426D01*
X98930Y126333D01*
X98979Y126233D01*
X99015Y126127D01*
X99037Y126017D01*
X99044Y125906D01*
X99037Y125794D01*
X99015Y125684D01*
X98979Y125578D01*
X98930Y125478D01*
X98867Y125385D01*
X98794Y125301D01*
X98689Y125209D01*
X98646Y125122D01*
X98577Y125055D01*
X98577Y124982D01*
X98544Y124916D01*
X98575Y124825D01*
X98574Y124729D01*
X98662Y124512D01*
X98586Y124331D01*
X98774Y123879D01*
X99226Y123691D01*
X102973D01*
X103159Y123344D01*
X103125Y123294D01*
X103026Y122795D01*
X103125Y122296D01*
X103408Y121873D01*
X103832Y121590D01*
X104331Y121491D01*
X104830Y121590D01*
X105253Y121873D01*
X105536Y122296D01*
X105635Y122795D01*
X105536Y123294D01*
X105503Y123344D01*
X105688Y123691D01*
X106211D01*
X106422Y123298D01*
X106393Y123255D01*
X106294Y122756D01*
X106393Y122257D01*
X106676Y121833D01*
X107099Y121551D01*
X107598Y121451D01*
X108098Y121551D01*
X108521Y121833D01*
X108804Y122257D01*
X108903Y122756D01*
X108870Y122924D01*
X109232Y123118D01*
X109771Y122579D01*
Y116633D01*
X109115Y115977D01*
X108752Y116171D01*
X108824Y116535D01*
X108725Y117035D01*
X108442Y117458D01*
X108019Y117741D01*
X107520Y117840D01*
X107020Y117741D01*
X106597Y117458D01*
X106314Y117035D01*
X106215Y116535D01*
X106303Y116095D01*
X106131Y115702D01*
X105333D01*
X105129Y116095D01*
X105300Y116351D01*
X105399Y116850D01*
X105300Y117350D01*
X105017Y117773D01*
X104594Y118056D01*
X104095Y118155D01*
X103595Y118056D01*
X103172Y117773D01*
X102889Y117350D01*
X102790Y116850D01*
X102889Y116351D01*
X103077Y116070D01*
X103163Y115898D01*
X103054Y115533D01*
X102714Y115192D01*
X102545Y115121D01*
X102217Y115122D01*
X101921Y115320D01*
X101421Y115419D01*
X100922Y115320D01*
X100499Y115037D01*
X100216Y114614D01*
X100117Y114114D01*
X100216Y113615D01*
X100499Y113192D01*
X100922Y112909D01*
X101421Y112810D01*
X101921Y112909D01*
X102073Y113011D01*
X102467Y112801D01*
Y111682D01*
X102422Y111637D01*
X101991Y111453D01*
X101850Y111548D01*
X101350Y111647D01*
X100851Y111548D01*
X100428Y111265D01*
X100145Y110842D01*
X100046Y110342D01*
X100145Y109843D01*
X100177Y109796D01*
X99966Y109403D01*
X98327D01*
X98261Y109375D01*
X98190Y109380D01*
X98162Y109371D01*
X98052Y109349D01*
X97941Y109341D01*
X97829Y109349D01*
X97719Y109371D01*
X97692Y109380D01*
X97621Y109375D01*
X97555Y109403D01*
X96278D01*
X96073Y109795D01*
X96245Y110052D01*
X96344Y110551D01*
X96245Y111050D01*
X95962Y111474D01*
X95539Y111757D01*
X95039Y111856D01*
X94540Y111757D01*
X94117Y111474D01*
X93834Y111050D01*
X93740Y110576D01*
X93727Y110547D01*
X93726Y110442D01*
X93721Y110356D01*
X93713Y110278D01*
X93701Y110211D01*
X93687Y110154D01*
X93671Y110107D01*
X93656Y110072D01*
X93278Y109694D01*
X78572D01*
X78391Y109875D01*
X78376Y109910D01*
X78360Y109957D01*
X78346Y110014D01*
X78336Y110076D01*
X78321Y110251D01*
X78320Y110350D01*
X78307Y110379D01*
X78213Y110853D01*
X78148Y110951D01*
X78358Y111345D01*
X87087D01*
X87355Y111398D01*
X87583Y111550D01*
X88230Y112197D01*
X88272Y112213D01*
X88319Y112257D01*
X88355Y112285D01*
X88392Y112309D01*
X88430Y112330D01*
X88471Y112347D01*
X88514Y112362D01*
X88560Y112373D01*
X88611Y112382D01*
X88667Y112387D01*
X88741Y112389D01*
X88772Y112402D01*
X89239Y112496D01*
X89663Y112778D01*
X89946Y113201D01*
X90004Y113494D01*
X90388Y113425D01*
X90422Y113258D01*
X90488Y112926D01*
X90770Y112503D01*
X91194Y112220D01*
X91693Y112121D01*
X92192Y112220D01*
X92615Y112503D01*
X92898Y112926D01*
X92997Y113425D01*
X92898Y113924D01*
X92615Y114348D01*
X92192Y114630D01*
X91693Y114730D01*
X91194Y114630D01*
X90770Y114348D01*
X90488Y113924D01*
X90429Y113632D01*
X90045Y113701D01*
X90011Y113868D01*
X89946Y114200D01*
X89663Y114623D01*
X89239Y114906D01*
X88740Y115005D01*
X88241Y114906D01*
X87818Y114623D01*
X87535Y114200D01*
X87442Y113732D01*
X87428Y113702D01*
X87427Y113628D01*
X87421Y113572D01*
X87413Y113521D01*
X87401Y113474D01*
X87395Y113456D01*
X87361Y113417D01*
X87225Y113339D01*
X86981Y113497D01*
X86892Y113684D01*
X86895Y113701D01*
X86796Y114200D01*
X86513Y114623D01*
X86090Y114906D01*
X85591Y115005D01*
X85091Y114906D01*
X84668Y114623D01*
X84385Y114200D01*
X84286Y113701D01*
X84385Y113201D01*
X84424Y113143D01*
X84214Y112750D01*
X75630D01*
X75361Y112696D01*
X75133Y112544D01*
X74224Y111635D01*
X74182Y111619D01*
X74134Y111574D01*
X74095Y111543D01*
X74054Y111514D01*
X74009Y111487D01*
X73962Y111462D01*
X73911Y111440D01*
X73856Y111421D01*
X73796Y111403D01*
X73733Y111388D01*
X73654Y111374D01*
X73581Y111328D01*
X73359Y111284D01*
X72936Y111001D01*
X72653Y110578D01*
X72553Y110079D01*
X72653Y109579D01*
X72936Y109156D01*
X73359Y108873D01*
X73858Y108774D01*
X74357Y108873D01*
X74781Y109156D01*
X75063Y109579D01*
X75163Y110079D01*
X75136Y110213D01*
X75154Y110281D01*
X75146Y110347D01*
X75145Y110369D01*
X75391Y110650D01*
X75703Y110354D01*
X75802Y109855D01*
X76085Y109432D01*
X76508Y109149D01*
X76983Y109055D01*
X77012Y109042D01*
X77117Y109041D01*
X77203Y109036D01*
X77280Y109027D01*
X77348Y109016D01*
X77405Y109002D01*
X77452Y108986D01*
X77487Y108971D01*
X77855Y108603D01*
X78307Y108416D01*
X86669D01*
X86820Y108052D01*
X77193Y98426D01*
X75259Y96910D01*
X75245Y96886D01*
X75220Y96876D01*
X75167Y96747D01*
X75099Y96626D01*
X75106Y96600D01*
X75095Y96575D01*
Y73338D01*
X74702Y73128D01*
X74515Y73252D01*
X74016Y73352D01*
X73516Y73252D01*
X73093Y72970D01*
X72811Y72546D01*
X72711Y72047D01*
X72811Y71548D01*
X73093Y71125D01*
X73516Y70842D01*
X74016Y70743D01*
X74515Y70842D01*
X74737Y70517D01*
X72934Y68713D01*
X65807D01*
X65506Y68589D01*
X64187Y67270D01*
X64062Y66969D01*
Y61536D01*
X64062Y61535D01*
X64187Y61234D01*
X66365Y59056D01*
X66480Y59009D01*
X66568Y58950D01*
X66573Y58945D01*
X66576Y58944D01*
X66583Y58939D01*
X66599Y58936D01*
X66705Y58900D01*
X66805Y58851D01*
X66899Y58789D01*
X66983Y58715D01*
X67056Y58631D01*
X67119Y58538D01*
X67168Y58438D01*
X67204Y58332D01*
X67207Y58315D01*
X67212Y58308D01*
X67213Y58305D01*
X67217Y58300D01*
X67276Y58212D01*
X67324Y58097D01*
X71352Y54069D01*
X71352Y54069D01*
X71654Y53944D01*
X134882Y53944D01*
X134882Y53944D01*
X135183Y54069D01*
X135183Y54069D01*
X149829Y68714D01*
X149954Y69016D01*
X149954Y71535D01*
X149829Y71837D01*
X149829Y71837D01*
X142840Y78826D01*
X142835Y78828D01*
X142821Y78843D01*
X142820Y78844D01*
X142820Y78845D01*
X142804Y78858D01*
X142802Y78864D01*
X139166Y82500D01*
X139166Y96575D01*
Y106220D01*
Y111991D01*
X148968Y121792D01*
X149155Y122244D01*
Y128791D01*
X148968Y129243D01*
X147203Y131008D01*
X147294Y131354D01*
X147324Y131402D01*
X160061D01*
X188528Y102935D01*
Y30669D01*
X188589Y30362D01*
X188763Y30102D01*
X196176Y22688D01*
X196191Y22650D01*
X196260Y22576D01*
Y16260D01*
X203740D01*
Y22669D01*
X203898Y22795D01*
X203930Y22828D01*
Y29055D01*
X203930D01*
X203685Y29335D01*
X203772Y30000D01*
X203644Y30976D01*
X203267Y31886D01*
X202667Y32667D01*
X201886Y33267D01*
X200976Y33644D01*
X200000Y33772D01*
X199024Y33644D01*
X198556Y33450D01*
X198428Y33466D01*
X198136Y33520D01*
X197882Y33584D01*
X197667Y33657D01*
X197493Y33736D01*
X197358Y33819D01*
X197231Y33926D01*
X197199Y33936D01*
X192693Y38443D01*
Y104724D01*
X192631Y105032D01*
X192457Y105292D01*
X163402Y134347D01*
X163142Y134521D01*
X162835Y134582D01*
X130748D01*
X130441Y134521D01*
X130287Y134419D01*
X127529D01*
X127319Y134812D01*
X127347Y134855D01*
X127438Y135312D01*
X127453Y135345D01*
X127455Y135386D01*
X127458Y135407D01*
X127464Y135431D01*
X127474Y135459D01*
X127489Y135492D01*
X127509Y135528D01*
X127536Y135569D01*
X127570Y135613D01*
X127610Y135661D01*
X127666Y135719D01*
X127681Y135758D01*
X128837Y136914D01*
X162030D01*
X193646Y105297D01*
Y45551D01*
X193707Y45244D01*
X193881Y44984D01*
X196064Y42801D01*
X196074Y42769D01*
X196181Y42642D01*
X196264Y42507D01*
X196343Y42333D01*
X196416Y42118D01*
X196480Y41864D01*
X196534Y41572D01*
X196550Y41443D01*
X196356Y40976D01*
X196228Y40000D01*
X196356Y39024D01*
X196733Y38114D01*
X197333Y37332D01*
X198114Y36733D01*
X199024Y36356D01*
X200000Y36228D01*
X200976Y36356D01*
X201886Y36733D01*
X202667Y37332D01*
X203267Y38114D01*
X203644Y39024D01*
X203772Y40000D01*
X203644Y40976D01*
X203267Y41886D01*
X202667Y42667D01*
X201886Y43267D01*
X200976Y43644D01*
X200000Y43772D01*
X199024Y43644D01*
X198556Y43450D01*
X198428Y43466D01*
X198136Y43520D01*
X197882Y43584D01*
X197667Y43657D01*
X197493Y43736D01*
X197358Y43819D01*
X197231Y43926D01*
X197199Y43936D01*
X195252Y45884D01*
Y105630D01*
X195252Y105630D01*
X195191Y105937D01*
X195017Y106198D01*
X162930Y138284D01*
X162669Y138458D01*
X162362Y138519D01*
X128504D01*
X128504Y138519D01*
X128197Y138458D01*
X127936Y138284D01*
X127936Y138284D01*
X126545Y136893D01*
X126506Y136878D01*
X126449Y136823D01*
X126400Y136782D01*
X126356Y136749D01*
X126315Y136722D01*
X126279Y136701D01*
X126247Y136687D01*
X126219Y136677D01*
X126195Y136671D01*
X126174Y136668D01*
X126132Y136666D01*
X126099Y136651D01*
X125643Y136560D01*
X125219Y136277D01*
X124936Y135854D01*
X124837Y135354D01*
X124925Y134913D01*
X124795Y134708D01*
X124657Y134564D01*
X124567Y134582D01*
X124260Y134521D01*
X123999Y134347D01*
X123396Y133744D01*
X123357Y133729D01*
X123299Y133674D01*
X123251Y133633D01*
X123207Y133599D01*
X123166Y133572D01*
X123129Y133552D01*
X123097Y133537D01*
X123069Y133527D01*
X123045Y133521D01*
X123024Y133518D01*
X122983Y133516D01*
X122950Y133501D01*
X122493Y133410D01*
X122070Y133127D01*
X121787Y132704D01*
X121687Y132205D01*
X121787Y131705D01*
X121815Y131663D01*
X121605Y131269D01*
X109025D01*
X108815Y131663D01*
X108843Y131705D01*
X108942Y132205D01*
X108843Y132704D01*
X108560Y133127D01*
X108137Y133410D01*
X107638Y133509D01*
X107139Y133410D01*
X106715Y133127D01*
X106432Y132704D01*
X106333Y132205D01*
X106432Y131705D01*
X106461Y131663D01*
X106251Y131269D01*
X105875D01*
X105665Y131663D01*
X105693Y131705D01*
X105793Y132205D01*
X105693Y132704D01*
X105411Y133127D01*
X104987Y133410D01*
X104488Y133509D01*
X103989Y133410D01*
X103566Y133127D01*
X103283Y132704D01*
X103184Y132205D01*
X103283Y131705D01*
X103311Y131663D01*
X103101Y131269D01*
X102726D01*
X102515Y131663D01*
X102544Y131705D01*
X102643Y132205D01*
X102544Y132704D01*
X102261Y133127D01*
X101838Y133410D01*
X101339Y133509D01*
X101071Y133456D01*
X100808Y133805D01*
X100895Y133986D01*
X100942Y134002D01*
X100999Y134016D01*
X101060Y134026D01*
X101235Y134041D01*
X101335Y134042D01*
X101363Y134055D01*
X101838Y134149D01*
X102261Y134432D01*
X102544Y134855D01*
X102643Y135354D01*
X102544Y135854D01*
X102261Y136277D01*
X101838Y136560D01*
X101339Y136659D01*
X100839Y136560D01*
X100416Y136277D01*
X100133Y135854D01*
X100039Y135379D01*
X100027Y135350D01*
X100025Y135245D01*
X100020Y135159D01*
X100012Y135082D01*
X100000Y135014D01*
X99989Y134971D01*
X99877Y134909D01*
X99739Y134848D01*
X99432Y135043D01*
X99494Y135354D01*
X99394Y135854D01*
X99111Y136277D01*
X98688Y136560D01*
X98213Y136654D01*
X98185Y136666D01*
X98080Y136667D01*
X97993Y136672D01*
X97916Y136681D01*
X97849Y136693D01*
X97792Y136707D01*
X97745Y136723D01*
X97658Y136903D01*
X97922Y137252D01*
X98189Y137199D01*
X98688Y137299D01*
X99111Y137581D01*
X99363Y137957D01*
X99646Y138081D01*
X99761Y138116D01*
X99825Y138052D01*
X100208Y137893D01*
X100416Y137581D01*
X100839Y137299D01*
X101339Y137199D01*
X101838Y137299D01*
X102261Y137581D01*
X102544Y138005D01*
X102643Y138504D01*
X102544Y139003D01*
X102261Y139426D01*
X101838Y139709D01*
X101339Y139808D01*
X100839Y139709D01*
X100416Y139426D01*
X100273Y139412D01*
X99301Y140384D01*
X99248Y140481D01*
X99209Y140877D01*
X99394Y141154D01*
X99494Y141654D01*
X99440Y141921D01*
X99790Y142184D01*
X99970Y142097D01*
X99986Y142051D01*
X100000Y141993D01*
X100011Y141932D01*
X100025Y141757D01*
X100027Y141657D01*
X100039Y141629D01*
X100133Y141154D01*
X100416Y140731D01*
X100839Y140448D01*
X101339Y140349D01*
X101838Y140448D01*
X102261Y140731D01*
X102544Y141154D01*
X102643Y141654D01*
X102544Y142153D01*
X102261Y142576D01*
X101838Y142859D01*
X101363Y142953D01*
X101335Y142965D01*
X101230Y142967D01*
X101143Y142972D01*
X101066Y142980D01*
X100999Y142992D01*
X100942Y143006D01*
X100895Y143022D01*
X100808Y143203D01*
X101071Y143552D01*
X101339Y143499D01*
X101838Y143598D01*
X102261Y143881D01*
X102544Y144304D01*
X102643Y144803D01*
X102544Y145302D01*
X102261Y145726D01*
X101838Y146008D01*
X101381Y146099D01*
X101348Y146115D01*
X101307Y146116D01*
X101286Y146119D01*
X101262Y146126D01*
X101234Y146135D01*
X101201Y146150D01*
X101165Y146171D01*
X101124Y146197D01*
X101080Y146231D01*
X101032Y146272D01*
X100974Y146327D01*
X100935Y146342D01*
X99267Y148010D01*
Y171478D01*
X113324Y185535D01*
X113324Y185535D01*
X113498Y185795D01*
X113559Y186102D01*
Y207345D01*
X137274Y231060D01*
X137312Y231074D01*
X137370Y231130D01*
X137418Y231171D01*
X137463Y231204D01*
X137503Y231231D01*
X137540Y231251D01*
X137572Y231266D01*
X137600Y231276D01*
X137624Y231282D01*
X137645Y231285D01*
X137687Y231287D01*
X137720Y231302D01*
X138176Y231393D01*
X138600Y231676D01*
X138882Y232099D01*
X138982Y232598D01*
X138882Y233098D01*
X138600Y233521D01*
X138176Y233804D01*
X137677Y233903D01*
D02*
G37*
G36*
X70000Y23576D02*
X69024Y23447D01*
X68114Y23070D01*
X67333Y22471D01*
X66733Y21689D01*
X66356Y20779D01*
X66228Y19803D01*
X66356Y18827D01*
X66733Y17917D01*
X67333Y17136D01*
X68114Y16536D01*
X69024Y16159D01*
X70000Y16031D01*
X70976Y16159D01*
X71886Y16536D01*
X72667Y17136D01*
X73267Y17917D01*
X73644Y18827D01*
X73772Y19803D01*
X73644Y20779D01*
X73267Y21689D01*
X72667Y22471D01*
X71886Y23070D01*
X70976Y23447D01*
X70000Y23576D01*
D02*
G37*
G36*
X13721Y99606D02*
X10394D01*
Y96279D01*
X10976Y96356D01*
X11886Y96733D01*
X12667Y97333D01*
X13267Y98114D01*
X13644Y99024D01*
X13721Y99606D01*
D02*
G37*
G36*
X10000Y63772D02*
X9024Y63644D01*
X8114Y63267D01*
X7333Y62668D01*
X6733Y61886D01*
X6356Y60976D01*
X6228Y60000D01*
X6356Y59024D01*
X6733Y58114D01*
X7333Y57332D01*
X8114Y56733D01*
X9024Y56356D01*
X10000Y56228D01*
X10976Y56356D01*
X11886Y56733D01*
X12667Y57332D01*
X13267Y58114D01*
X13644Y59024D01*
X13772Y60000D01*
X13644Y60976D01*
X13267Y61886D01*
X12667Y62668D01*
X11886Y63267D01*
X10976Y63644D01*
X10000Y63772D01*
D02*
G37*
G36*
X9606Y99606D02*
X6279D01*
X6356Y99024D01*
X6733Y98114D01*
X7333Y97333D01*
X8114Y96733D01*
X9024Y96356D01*
X9606Y96279D01*
Y99606D01*
D02*
G37*
G36*
X54449Y92761D02*
X53950Y92662D01*
X53526Y92379D01*
X53243Y91956D01*
X53144Y91457D01*
X53243Y90957D01*
X53526Y90534D01*
X53950Y90251D01*
X54449Y90152D01*
X54948Y90251D01*
X55371Y90534D01*
X55654Y90957D01*
X55753Y91457D01*
X55654Y91956D01*
X55371Y92379D01*
X54948Y92662D01*
X54449Y92761D01*
D02*
G37*
G36*
X200000Y63772D02*
X199024Y63644D01*
X198114Y63267D01*
X197333Y62668D01*
X196733Y61886D01*
X196356Y60976D01*
X196228Y60000D01*
X196356Y59024D01*
X196733Y58114D01*
X197333Y57332D01*
X198114Y56733D01*
X199024Y56356D01*
X200000Y56228D01*
X200976Y56356D01*
X201886Y56733D01*
X202667Y57332D01*
X203267Y58114D01*
X203644Y59024D01*
X203772Y60000D01*
X203644Y60976D01*
X203267Y61886D01*
X202667Y62668D01*
X201886Y63267D01*
X200976Y63644D01*
X200000Y63772D01*
D02*
G37*
G36*
X49449Y53234D02*
X48950Y53134D01*
X48526Y52852D01*
X48243Y52428D01*
X48144Y51929D01*
X48243Y51430D01*
X48526Y51007D01*
X48950Y50724D01*
X49449Y50625D01*
X49948Y50724D01*
X50371Y51007D01*
X50654Y51430D01*
X50753Y51929D01*
X50654Y52428D01*
X50371Y52852D01*
X49948Y53134D01*
X49449Y53234D01*
D02*
G37*
G36*
X200000Y53772D02*
X199024Y53644D01*
X198114Y53267D01*
X197333Y52667D01*
X196733Y51886D01*
X196356Y50976D01*
X196228Y50000D01*
X196356Y49024D01*
X196733Y48114D01*
X197333Y47333D01*
X198114Y46733D01*
X199024Y46356D01*
X200000Y46228D01*
X200976Y46356D01*
X201886Y46733D01*
X202667Y47333D01*
X203267Y48114D01*
X203644Y49024D01*
X203772Y50000D01*
X203644Y50976D01*
X203267Y51886D01*
X202667Y52667D01*
X201886Y53267D01*
X200976Y53644D01*
X200000Y53772D01*
D02*
G37*
G36*
X49449Y58273D02*
X48950Y58174D01*
X48526Y57891D01*
X48243Y57468D01*
X48144Y56968D01*
X48243Y56469D01*
X48526Y56046D01*
X48950Y55763D01*
X49449Y55664D01*
X49948Y55763D01*
X50371Y56046D01*
X50654Y56469D01*
X50753Y56968D01*
X50654Y57468D01*
X50371Y57891D01*
X49948Y58174D01*
X49449Y58273D01*
D02*
G37*
G36*
X148307Y99887D02*
X147808Y99788D01*
X147385Y99505D01*
X147310Y99393D01*
X146916D01*
X146867Y99466D01*
X146444Y99749D01*
X145945Y99848D01*
X145446Y99749D01*
X145022Y99466D01*
X145000Y99432D01*
X144606D01*
X144584Y99466D01*
X144161Y99749D01*
X143661Y99848D01*
X143162Y99749D01*
X142739Y99466D01*
X142713Y99426D01*
X142674D01*
X142270Y99473D01*
X141917Y99709D01*
X141417Y99809D01*
X140918Y99709D01*
X140495Y99426D01*
X140212Y99003D01*
X140113Y98504D01*
X140212Y98005D01*
X140495Y97581D01*
X140918Y97299D01*
X141417Y97199D01*
X141917Y97299D01*
X142340Y97581D01*
X142366Y97621D01*
X142405D01*
X142808Y97574D01*
X143162Y97338D01*
X143661Y97239D01*
X144161Y97338D01*
X144584Y97621D01*
X144606Y97654D01*
X145000D01*
X145022Y97621D01*
X145446Y97338D01*
X145945Y97239D01*
X146444Y97338D01*
X146867Y97621D01*
X146942Y97733D01*
X147336D01*
X147385Y97660D01*
X147808Y97377D01*
X148307Y97278D01*
X148806Y97377D01*
X149230Y97660D01*
X149512Y98083D01*
X149612Y98583D01*
X149512Y99082D01*
X149230Y99505D01*
X148806Y99788D01*
X148307Y99887D01*
D02*
G37*
G36*
X47913Y102368D02*
X47414Y102268D01*
X46991Y101986D01*
X46708Y101562D01*
X46609Y101063D01*
X46708Y100564D01*
X46991Y100141D01*
X47414Y99858D01*
X47913Y99758D01*
X48413Y99858D01*
X48836Y100141D01*
X49119Y100564D01*
X49218Y101063D01*
X49119Y101562D01*
X48836Y101986D01*
X48413Y102268D01*
X47913Y102368D01*
D02*
G37*
G36*
X13740Y73740D02*
X6260D01*
Y66260D01*
X13740D01*
Y73740D01*
D02*
G37*
G36*
X200000Y73772D02*
X199024Y73644D01*
X198114Y73267D01*
X197333Y72667D01*
X196733Y71886D01*
X196356Y70976D01*
X196228Y70000D01*
X196356Y69024D01*
X196733Y68114D01*
X197333Y67333D01*
X198114Y66733D01*
X199024Y66356D01*
X200000Y66228D01*
X200976Y66356D01*
X201886Y66733D01*
X202667Y67333D01*
X203267Y68114D01*
X203644Y69024D01*
X203772Y70000D01*
X203644Y70976D01*
X203267Y71886D01*
X202667Y72667D01*
X201886Y73267D01*
X200976Y73644D01*
X200000Y73772D01*
D02*
G37*
G36*
X175709Y80281D02*
X175209Y80182D01*
X174786Y79899D01*
X174725Y79807D01*
X174251D01*
X174190Y79899D01*
X173767Y80182D01*
X173268Y80281D01*
X172768Y80182D01*
X172345Y79899D01*
X172062Y79476D01*
X171963Y78976D01*
X172062Y78477D01*
X172345Y78054D01*
X172768Y77771D01*
X173268Y77672D01*
X173767Y77771D01*
X174190Y78054D01*
X174251Y78146D01*
X174725D01*
X174786Y78054D01*
X174908Y77972D01*
Y77579D01*
X174786Y77497D01*
X174503Y77074D01*
X174404Y76575D01*
X174503Y76076D01*
X174786Y75652D01*
X174907Y75571D01*
Y75098D01*
X174786Y75017D01*
X174503Y74594D01*
X174404Y74094D01*
X174503Y73595D01*
X174786Y73172D01*
X175209Y72889D01*
X175709Y72790D01*
X176208Y72889D01*
X176631Y73172D01*
X176914Y73595D01*
X177013Y74094D01*
X176914Y74594D01*
X176631Y75017D01*
X176510Y75098D01*
Y75571D01*
X176631Y75652D01*
X176914Y76076D01*
X177013Y76575D01*
X176914Y77074D01*
X176631Y77497D01*
X176509Y77579D01*
Y77972D01*
X176631Y78054D01*
X176914Y78477D01*
X177013Y78976D01*
X176914Y79476D01*
X176631Y79899D01*
X176208Y80182D01*
X175709Y80281D01*
D02*
G37*
G36*
X66378Y73352D02*
X65879Y73252D01*
X65456Y72970D01*
X65173Y72546D01*
X65073Y72047D01*
X65173Y71548D01*
X65456Y71125D01*
X65879Y70842D01*
X66378Y70743D01*
X66877Y70842D01*
X67300Y71125D01*
X67583Y71548D01*
X67683Y72047D01*
X67583Y72546D01*
X67300Y72970D01*
X66877Y73252D01*
X66378Y73352D01*
D02*
G37*
G36*
X200000Y83772D02*
X199024Y83644D01*
X198114Y83267D01*
X197333Y82667D01*
X196733Y81886D01*
X196356Y80976D01*
X196228Y80000D01*
X196356Y79024D01*
X196733Y78114D01*
X197333Y77333D01*
X198114Y76733D01*
X199024Y76356D01*
X200000Y76228D01*
X200976Y76356D01*
X201886Y76733D01*
X202667Y77333D01*
X203267Y78114D01*
X203644Y79024D01*
X203772Y80000D01*
X203644Y80976D01*
X203267Y81886D01*
X202667Y82667D01*
X201886Y83267D01*
X200976Y83644D01*
X200000Y83772D01*
D02*
G37*
G36*
X49488Y63234D02*
X48989Y63134D01*
X48566Y62852D01*
X48283Y62428D01*
X48184Y61929D01*
X48283Y61430D01*
X48566Y61007D01*
X48989Y60724D01*
X49488Y60624D01*
X49987Y60724D01*
X50411Y61007D01*
X50694Y61430D01*
X50793Y61929D01*
X50694Y62428D01*
X50411Y62852D01*
X49987Y63134D01*
X49488Y63234D01*
D02*
G37*
G36*
X50965Y90064D02*
X50465Y89965D01*
X50042Y89682D01*
X49759Y89259D01*
X49660Y88760D01*
X49759Y88261D01*
X50042Y87837D01*
X50465Y87555D01*
X50965Y87455D01*
X51464Y87555D01*
X51887Y87837D01*
X52170Y88261D01*
X52269Y88760D01*
X52170Y89259D01*
X51887Y89682D01*
X51464Y89965D01*
X50965Y90064D01*
D02*
G37*
G36*
X200000Y93772D02*
X199024Y93644D01*
X198114Y93267D01*
X197333Y92668D01*
X196733Y91886D01*
X196356Y90976D01*
X196228Y90000D01*
X196356Y89024D01*
X196733Y88114D01*
X197333Y87332D01*
X198114Y86733D01*
X199024Y86356D01*
X200000Y86228D01*
X200976Y86356D01*
X201886Y86733D01*
X202667Y87332D01*
X203267Y88114D01*
X203644Y89024D01*
X203772Y90000D01*
X203644Y90976D01*
X203267Y91886D01*
X202667Y92668D01*
X201886Y93267D01*
X200976Y93644D01*
X200000Y93772D01*
D02*
G37*
G36*
X56142Y87564D02*
X55642Y87465D01*
X55219Y87182D01*
X54936Y86759D01*
X54837Y86260D01*
X54936Y85761D01*
X55219Y85337D01*
X55642Y85055D01*
X55974Y84989D01*
X56184Y84735D01*
X56215Y84570D01*
X56136Y84173D01*
X56236Y83674D01*
X56519Y83251D01*
X56942Y82968D01*
X57441Y82869D01*
X57940Y82968D01*
X58363Y83251D01*
X58646Y83674D01*
X58704Y83966D01*
X58724Y84067D01*
X59126D01*
X59144Y83978D01*
X59188Y83753D01*
X59471Y83329D01*
X59895Y83047D01*
X60394Y82947D01*
X60893Y83047D01*
X61316Y83329D01*
X61599Y83753D01*
X61698Y84252D01*
X61599Y84751D01*
X61316Y85175D01*
X60893Y85457D01*
X60394Y85557D01*
X59895Y85457D01*
X59471Y85175D01*
X59188Y84751D01*
X59130Y84459D01*
X59110Y84358D01*
X58709D01*
X58691Y84447D01*
X58646Y84672D01*
X58363Y85096D01*
X57940Y85378D01*
X57609Y85444D01*
X57399Y85698D01*
X57367Y85863D01*
X57446Y86260D01*
X57347Y86759D01*
X57064Y87182D01*
X56641Y87465D01*
X56142Y87564D01*
D02*
G37*
G36*
X10000Y93772D02*
X9024Y93644D01*
X8114Y93267D01*
X7333Y92668D01*
X6733Y91886D01*
X6356Y90976D01*
X6228Y90000D01*
X6356Y89024D01*
X6733Y88114D01*
X7333Y87332D01*
X8114Y86733D01*
X9024Y86356D01*
X10000Y86228D01*
X10976Y86356D01*
X11886Y86733D01*
X12667Y87332D01*
X13267Y88114D01*
X13644Y89024D01*
X13772Y90000D01*
X13644Y90976D01*
X13267Y91886D01*
X12667Y92668D01*
X11886Y93267D01*
X10976Y93644D01*
X10000Y93772D01*
D02*
G37*
G36*
X200197Y119737D02*
X199221Y119608D01*
X198311Y119231D01*
X197529Y118632D01*
X196930Y117851D01*
X196553Y116941D01*
X196424Y115964D01*
X196553Y114988D01*
X196930Y114078D01*
X197529Y113297D01*
X198311Y112698D01*
X199221Y112321D01*
X200197Y112192D01*
X201173Y112321D01*
X202083Y112698D01*
X202864Y113297D01*
X203464Y114078D01*
X203841Y114988D01*
X203969Y115964D01*
X203841Y116941D01*
X203464Y117851D01*
X202864Y118632D01*
X202083Y119231D01*
X201173Y119608D01*
X200197Y119737D01*
D02*
G37*
G36*
X94646Y117761D02*
X94146Y117662D01*
X93723Y117379D01*
X93440Y116956D01*
X93341Y116457D01*
X93440Y115957D01*
X93723Y115534D01*
X94146Y115251D01*
X94302Y115220D01*
X94385Y114803D01*
X94117Y114623D01*
X93834Y114200D01*
X93735Y113701D01*
X93834Y113201D01*
X94117Y112778D01*
X94540Y112496D01*
X95039Y112396D01*
X95539Y112496D01*
X95962Y112778D01*
X96245Y113201D01*
X96344Y113701D01*
X96245Y114200D01*
X95962Y114623D01*
X95539Y114906D01*
X95383Y114937D01*
X95300Y115355D01*
X95568Y115534D01*
X95851Y115957D01*
X95950Y116457D01*
X95851Y116956D01*
X95568Y117379D01*
X95145Y117662D01*
X94646Y117761D01*
D02*
G37*
G36*
X10394Y113721D02*
Y110394D01*
X13721D01*
X13644Y110976D01*
X13267Y111886D01*
X12667Y112668D01*
X11886Y113267D01*
X10976Y113644D01*
X10394Y113721D01*
D02*
G37*
G36*
X68779Y113765D02*
X68280Y113666D01*
X67857Y113383D01*
X67574Y112960D01*
X67475Y112461D01*
X67574Y111961D01*
X67823Y111590D01*
X67861Y111423D01*
Y111254D01*
X67823Y111088D01*
X67574Y110716D01*
X67475Y110216D01*
X67574Y109717D01*
X67857Y109294D01*
X68280Y109011D01*
X68779Y108912D01*
X69279Y109011D01*
X69702Y109294D01*
X69985Y109717D01*
X70084Y110216D01*
X69985Y110716D01*
X69736Y111088D01*
X69698Y111254D01*
Y111423D01*
X69736Y111590D01*
X69985Y111961D01*
X70084Y112461D01*
X69985Y112960D01*
X69702Y113383D01*
X69279Y113666D01*
X68779Y113765D01*
D02*
G37*
G36*
X9606Y113721D02*
X9024Y113644D01*
X8114Y113267D01*
X7333Y112668D01*
X6733Y111886D01*
X6356Y110976D01*
X6279Y110394D01*
X9606D01*
Y113721D01*
D02*
G37*
G36*
X84921Y118029D02*
X84422Y117930D01*
X83999Y117647D01*
X83716Y117224D01*
X83617Y116724D01*
X83716Y116225D01*
X83999Y115802D01*
X84422Y115519D01*
X84921Y115420D01*
X85421Y115519D01*
X85844Y115802D01*
X86127Y116225D01*
X86226Y116724D01*
X86127Y117224D01*
X85844Y117647D01*
X85421Y117930D01*
X84921Y118029D01*
D02*
G37*
G36*
X80000Y23576D02*
X79024Y23447D01*
X78114Y23070D01*
X77333Y22471D01*
X76733Y21689D01*
X76356Y20779D01*
X76228Y19803D01*
X76356Y18827D01*
X76733Y17917D01*
X77333Y17136D01*
X78114Y16536D01*
X79024Y16159D01*
X80000Y16031D01*
X80976Y16159D01*
X81886Y16536D01*
X82667Y17136D01*
X83267Y17917D01*
X83644Y18827D01*
X83772Y19803D01*
X83644Y20779D01*
X83267Y21689D01*
X82667Y22471D01*
X81886Y23070D01*
X80976Y23447D01*
X80000Y23576D01*
D02*
G37*
G36*
X98165Y115419D02*
X97666Y115319D01*
X97243Y115037D01*
X96960Y114613D01*
X96861Y114114D01*
X96960Y113615D01*
X97243Y113192D01*
X97666Y112909D01*
X98165Y112810D01*
X98665Y112909D01*
X99088Y113192D01*
X99371Y113615D01*
X99470Y114114D01*
X99371Y114613D01*
X99088Y115037D01*
X98665Y115319D01*
X98165Y115419D01*
D02*
G37*
G36*
X100000Y23576D02*
X99024Y23447D01*
X98114Y23070D01*
X97333Y22471D01*
X96733Y21689D01*
X96356Y20779D01*
X96228Y19803D01*
X96356Y18827D01*
X96733Y17917D01*
X97333Y17136D01*
X98114Y16536D01*
X99024Y16159D01*
X100000Y16031D01*
X100976Y16159D01*
X101886Y16536D01*
X102667Y17136D01*
X103267Y17917D01*
X103644Y18827D01*
X103772Y19803D01*
X103644Y20779D01*
X103267Y21689D01*
X102667Y22471D01*
X101886Y23070D01*
X100976Y23447D01*
X100000Y23576D01*
D02*
G37*
G36*
X90000D02*
X89024Y23447D01*
X88114Y23070D01*
X87332Y22471D01*
X86733Y21689D01*
X86356Y20779D01*
X86228Y19803D01*
X86356Y18827D01*
X86733Y17917D01*
X87332Y17136D01*
X88114Y16536D01*
X89024Y16159D01*
X90000Y16031D01*
X90976Y16159D01*
X91886Y16536D01*
X92668Y17136D01*
X93267Y17917D01*
X93644Y18827D01*
X93772Y19803D01*
X93644Y20779D01*
X93267Y21689D01*
X92668Y22471D01*
X91886Y23070D01*
X90976Y23447D01*
X90000Y23576D01*
D02*
G37*
G36*
X203937Y109705D02*
X196457D01*
Y102224D01*
X203937D01*
Y109705D01*
D02*
G37*
G36*
X10000Y43772D02*
X9024Y43644D01*
X8114Y43267D01*
X7333Y42667D01*
X6733Y41886D01*
X6356Y40976D01*
X6228Y40000D01*
X6356Y39024D01*
X6733Y38114D01*
X7333Y37332D01*
X8114Y36733D01*
X9024Y36356D01*
X10000Y36228D01*
X10976Y36356D01*
X11886Y36733D01*
X12667Y37332D01*
X13267Y38114D01*
X13644Y39024D01*
X13772Y40000D01*
X13644Y40976D01*
X13267Y41886D01*
X12667Y42667D01*
X11886Y43267D01*
X10976Y43644D01*
X10000Y43772D01*
D02*
G37*
G36*
X10394Y103721D02*
Y100394D01*
X13721D01*
X13644Y100976D01*
X13267Y101886D01*
X12667Y102667D01*
X11886Y103267D01*
X10976Y103644D01*
X10394Y103721D01*
D02*
G37*
G36*
X10000Y53772D02*
X9024Y53644D01*
X8114Y53267D01*
X7333Y52667D01*
X6733Y51886D01*
X6356Y50976D01*
X6228Y50000D01*
X6356Y49024D01*
X6733Y48114D01*
X7333Y47333D01*
X8114Y46733D01*
X9024Y46356D01*
X10000Y46228D01*
X10976Y46356D01*
X11886Y46733D01*
X12667Y47333D01*
X13267Y48114D01*
X13644Y49024D01*
X13772Y50000D01*
X13644Y50976D01*
X13267Y51886D01*
X12667Y52667D01*
X11886Y53267D01*
X10976Y53644D01*
X10000Y53772D01*
D02*
G37*
G36*
X9606Y103721D02*
X9024Y103644D01*
X8114Y103267D01*
X7333Y102667D01*
X6733Y101886D01*
X6356Y100976D01*
X6279Y100394D01*
X9606D01*
Y103721D01*
D02*
G37*
G36*
X145846Y107584D02*
X145347Y107485D01*
X144924Y107202D01*
X144882Y107139D01*
X144488D01*
X144446Y107202D01*
X144023Y107485D01*
X143524Y107584D01*
X143024Y107485D01*
X142601Y107202D01*
X142318Y106779D01*
X142219Y106280D01*
X142318Y105780D01*
X142601Y105357D01*
X142674Y105308D01*
Y104915D01*
X142562Y104840D01*
X142279Y104417D01*
X142180Y103917D01*
X142279Y103418D01*
X142562Y102995D01*
X142985Y102712D01*
X143484Y102613D01*
X143983Y102712D01*
X144405Y102994D01*
X144496Y103053D01*
X144839D01*
X144904Y102955D01*
X145327Y102673D01*
X145827Y102573D01*
X146326Y102673D01*
X146749Y102955D01*
X147032Y103379D01*
X147131Y103878D01*
X147032Y104377D01*
X146749Y104800D01*
X146697Y104835D01*
Y105309D01*
X146769Y105357D01*
X147052Y105780D01*
X147151Y106280D01*
X147052Y106779D01*
X146769Y107202D01*
X146346Y107485D01*
X145846Y107584D01*
D02*
G37*
G36*
X176221Y108312D02*
X175721Y108213D01*
X175298Y107930D01*
X175237Y107839D01*
X174763D01*
X174702Y107930D01*
X174279Y108213D01*
X173779Y108312D01*
X173280Y108213D01*
X172857Y107930D01*
X172574Y107507D01*
X172475Y107008D01*
X172574Y106509D01*
X172857Y106085D01*
X173280Y105803D01*
X173779Y105703D01*
X174279Y105803D01*
X174702Y106085D01*
X174763Y106177D01*
X175237D01*
X175298Y106085D01*
X175420Y106004D01*
Y105610D01*
X175298Y105529D01*
X175015Y105105D01*
X174916Y104606D01*
X175015Y104107D01*
X175298Y103684D01*
X175419Y103603D01*
Y103129D01*
X175298Y103049D01*
X175015Y102625D01*
X174916Y102126D01*
X175015Y101627D01*
X175298Y101204D01*
X175721Y100921D01*
X176221Y100821D01*
X176720Y100921D01*
X177143Y101204D01*
X177426Y101627D01*
X177525Y102126D01*
X177426Y102625D01*
X177143Y103049D01*
X177022Y103129D01*
Y103603D01*
X177143Y103684D01*
X177426Y104107D01*
X177525Y104606D01*
X177426Y105105D01*
X177143Y105529D01*
X177021Y105610D01*
Y106004D01*
X177143Y106085D01*
X177426Y106509D01*
X177525Y107008D01*
X177426Y107507D01*
X177143Y107930D01*
X176720Y108213D01*
X176221Y108312D01*
D02*
G37*
G36*
X37126Y109415D02*
X36627Y109316D01*
X36204Y109033D01*
X35921Y108609D01*
X35821Y108110D01*
X35921Y107611D01*
X36204Y107188D01*
X36627Y106905D01*
X37126Y106806D01*
X37625Y106905D01*
X38048Y107188D01*
X38331Y107611D01*
X38431Y108110D01*
X38331Y108609D01*
X38048Y109033D01*
X37625Y109316D01*
X37126Y109415D01*
D02*
G37*
G36*
X9606Y109606D02*
X6279D01*
X6356Y109024D01*
X6733Y108114D01*
X7333Y107333D01*
X8114Y106733D01*
X9024Y106356D01*
X9606Y106279D01*
Y109606D01*
D02*
G37*
G36*
X13721D02*
X10394D01*
Y106279D01*
X10976Y106356D01*
X11886Y106733D01*
X12667Y107333D01*
X13267Y108114D01*
X13644Y109024D01*
X13721Y109606D01*
D02*
G37*
G36*
X165394Y218588D02*
X164894Y218489D01*
X164471Y218206D01*
X164188Y217783D01*
X164089Y217284D01*
X164188Y216784D01*
X164268Y216665D01*
X164261Y216650D01*
X164008Y216346D01*
X163622Y216423D01*
X163123Y216323D01*
X162700Y216041D01*
X162417Y215617D01*
X162318Y215118D01*
X162417Y214619D01*
X162700Y214196D01*
X163123Y213913D01*
X163622Y213813D01*
X164121Y213913D01*
X164544Y214196D01*
X164827Y214619D01*
X164927Y215118D01*
X164827Y215617D01*
X164748Y215737D01*
X164754Y215752D01*
X165008Y216056D01*
X165394Y215979D01*
X165704Y216041D01*
X165941Y215686D01*
X165842Y215539D01*
X165743Y215039D01*
X165842Y214540D01*
X166125Y214117D01*
X166548Y213834D01*
X167047Y213735D01*
X167546Y213834D01*
X167970Y214117D01*
X168253Y214540D01*
X168352Y215039D01*
X168253Y215539D01*
X167970Y215962D01*
X167546Y216245D01*
X167047Y216344D01*
X166737Y216282D01*
X166500Y216637D01*
X166599Y216784D01*
X166698Y217284D01*
X166599Y217783D01*
X166316Y218206D01*
X165893Y218489D01*
X165394Y218588D01*
D02*
G37*
G36*
X104055Y219375D02*
X103556Y219276D01*
X103133Y218993D01*
X102850Y218570D01*
X102751Y218071D01*
X102850Y217572D01*
X103133Y217148D01*
X103556Y216866D01*
X104055Y216766D01*
X104554Y216866D01*
X104978Y217148D01*
X105260Y217572D01*
X105360Y218071D01*
X105260Y218570D01*
X104978Y218993D01*
X104554Y219276D01*
X104055Y219375D01*
D02*
G37*
G36*
X161181Y218667D02*
X160682Y218567D01*
X160259Y218285D01*
X159976Y217861D01*
X159877Y217362D01*
X159976Y216863D01*
X160259Y216440D01*
X160682Y216157D01*
X161181Y216058D01*
X161680Y216157D01*
X162104Y216440D01*
X162386Y216863D01*
X162486Y217362D01*
X162386Y217861D01*
X162104Y218285D01*
X161680Y218567D01*
X161181Y218667D01*
D02*
G37*
G36*
X131457Y212053D02*
X130957Y211953D01*
X130534Y211670D01*
X130251Y211247D01*
X130152Y210748D01*
X130251Y210249D01*
X130534Y209826D01*
X130957Y209543D01*
X131457Y209443D01*
X131956Y209543D01*
X132379Y209826D01*
X132662Y210249D01*
X132761Y210748D01*
X132662Y211247D01*
X132379Y211670D01*
X131956Y211953D01*
X131457Y212053D01*
D02*
G37*
G36*
X169528Y218509D02*
X169028Y218410D01*
X168605Y218127D01*
X168322Y217704D01*
X168223Y217205D01*
X168322Y216705D01*
X168605Y216282D01*
X169028Y215999D01*
X169528Y215900D01*
X170027Y215999D01*
X170450Y216282D01*
X170733Y216705D01*
X170832Y217205D01*
X170733Y217704D01*
X170450Y218127D01*
X170027Y218410D01*
X169528Y218509D01*
D02*
G37*
G36*
X115079Y220517D02*
X114579Y220418D01*
X114156Y220135D01*
X113874Y219712D01*
X113774Y219213D01*
X113874Y218713D01*
X114156Y218290D01*
X114579Y218007D01*
X115079Y217908D01*
X115578Y218007D01*
X116001Y218290D01*
X116284Y218713D01*
X116383Y219213D01*
X116284Y219712D01*
X116001Y220135D01*
X115578Y220418D01*
X115079Y220517D01*
D02*
G37*
G36*
X171457Y225320D02*
X170957Y225221D01*
X170534Y224938D01*
X170251Y224515D01*
X170152Y224016D01*
X170251Y223517D01*
X170534Y223093D01*
X170957Y222811D01*
X171457Y222711D01*
X171956Y222811D01*
X172379Y223093D01*
X172662Y223517D01*
X172761Y224016D01*
X172662Y224515D01*
X172379Y224938D01*
X171956Y225221D01*
X171457Y225320D01*
D02*
G37*
G36*
X170158Y229690D02*
X169658Y229591D01*
X169235Y229308D01*
X168952Y228885D01*
X168853Y228386D01*
X168952Y227887D01*
X169235Y227463D01*
X169658Y227181D01*
X170158Y227081D01*
X170657Y227181D01*
X171080Y227463D01*
X171363Y227887D01*
X171462Y228386D01*
X171363Y228885D01*
X171080Y229308D01*
X170657Y229591D01*
X170158Y229690D01*
D02*
G37*
G36*
X106102Y225163D02*
X105603Y225063D01*
X105180Y224781D01*
X104897Y224358D01*
X104798Y223858D01*
X104897Y223359D01*
X105180Y222936D01*
X105603Y222653D01*
X106102Y222554D01*
X106602Y222653D01*
X107025Y222936D01*
X107308Y223359D01*
X107407Y223858D01*
X107308Y224358D01*
X107025Y224781D01*
X106602Y225063D01*
X106102Y225163D01*
D02*
G37*
G36*
X173071Y222210D02*
X172572Y222111D01*
X172148Y221828D01*
X171866Y221405D01*
X171766Y220905D01*
X171866Y220406D01*
X172148Y219983D01*
X172572Y219700D01*
X173071Y219601D01*
X173570Y219700D01*
X173993Y219983D01*
X174276Y220406D01*
X174375Y220905D01*
X174276Y221405D01*
X173993Y221828D01*
X173570Y222111D01*
X173071Y222210D01*
D02*
G37*
G36*
X169685Y222250D02*
X169186Y222150D01*
X168763Y221867D01*
X168480Y221444D01*
X168380Y220945D01*
X168480Y220446D01*
X168763Y220022D01*
X169186Y219740D01*
X169685Y219640D01*
X170184Y219740D01*
X170607Y220022D01*
X170890Y220446D01*
X170990Y220945D01*
X170890Y221444D01*
X170607Y221867D01*
X170184Y222150D01*
X169685Y222250D01*
D02*
G37*
G36*
X165630Y203588D02*
X165131Y203489D01*
X164708Y203206D01*
X164425Y202783D01*
X164325Y202283D01*
X164425Y201784D01*
X164708Y201361D01*
X165131Y201078D01*
X165630Y200979D01*
X166129Y201078D01*
X166552Y201361D01*
X166835Y201784D01*
X166935Y202283D01*
X166835Y202783D01*
X166552Y203206D01*
X166129Y203489D01*
X165630Y203588D01*
D02*
G37*
G36*
X200000Y217121D02*
X198611Y216984D01*
X197275Y216579D01*
X196044Y215921D01*
X194965Y215035D01*
X194079Y213956D01*
X193421Y212725D01*
X193016Y211389D01*
X192879Y210000D01*
X193016Y208611D01*
X193421Y207275D01*
X194079Y206044D01*
X194965Y204965D01*
X196044Y204079D01*
X197275Y203421D01*
X198611Y203016D01*
X200000Y202879D01*
X201389Y203016D01*
X202725Y203421D01*
X203956Y204079D01*
X205035Y204965D01*
X205921Y206044D01*
X206579Y207275D01*
X206984Y208611D01*
X207121Y210000D01*
X206984Y211389D01*
X206579Y212725D01*
X205921Y213956D01*
X205035Y215035D01*
X203956Y215921D01*
X202725Y216579D01*
X201389Y216984D01*
X200000Y217121D01*
D02*
G37*
G36*
X171732Y197997D02*
X171233Y197898D01*
X170810Y197615D01*
X170527Y197192D01*
X170428Y196693D01*
X170527Y196194D01*
X170810Y195770D01*
X171233Y195488D01*
X171732Y195388D01*
X172231Y195488D01*
X172655Y195770D01*
X172938Y196194D01*
X173037Y196693D01*
X172938Y197192D01*
X172655Y197615D01*
X172231Y197898D01*
X171732Y197997D01*
D02*
G37*
G36*
X121102Y196501D02*
X120603Y196402D01*
X120532Y196354D01*
X120488Y196346D01*
X119967Y195998D01*
X119619Y195477D01*
X119497Y194862D01*
X119619Y194248D01*
X119967Y193727D01*
X128316Y185378D01*
Y174720D01*
X128314Y174717D01*
X128281Y173802D01*
X128185Y172931D01*
X128024Y172089D01*
X127799Y171274D01*
X127511Y170487D01*
X127158Y169726D01*
X126741Y168991D01*
X126259Y168282D01*
X125712Y167597D01*
X125088Y166927D01*
X125086Y166924D01*
X124613Y166450D01*
X124265Y165929D01*
X124142Y165315D01*
X124265Y164700D01*
X124613Y164180D01*
X125134Y163831D01*
X125748Y163709D01*
X126363Y163831D01*
X126883Y164180D01*
X127357Y164653D01*
X127360Y164655D01*
X128031Y165278D01*
X128715Y165826D01*
X129424Y166308D01*
X130159Y166725D01*
X130920Y167078D01*
X131707Y167366D01*
X132522Y167591D01*
X133364Y167752D01*
X134235Y167848D01*
X135150Y167881D01*
X135153Y167883D01*
X148255D01*
X148258Y167881D01*
X149173Y167848D01*
X150044Y167752D01*
X150887Y167591D01*
X151701Y167366D01*
X152489Y167078D01*
X153249Y166725D01*
X153984Y166308D01*
X154693Y165826D01*
X155378Y165278D01*
X156048Y164655D01*
X156051Y164653D01*
X157439Y163265D01*
X157960Y162917D01*
X158575Y162795D01*
X159189Y162917D01*
X159710Y163265D01*
X159794Y163391D01*
X159820Y163408D01*
X160103Y163831D01*
X160202Y164331D01*
X160103Y164830D01*
X160092Y164847D01*
X160058Y165015D01*
X159710Y165536D01*
X158815Y166430D01*
X158815Y166433D01*
X158231Y167081D01*
X157796Y167702D01*
X157492Y168310D01*
X157314Y168903D01*
X157256Y169488D01*
X157314Y170073D01*
X157492Y170667D01*
X157796Y171274D01*
X158231Y171895D01*
X158815Y172544D01*
X158815Y172546D01*
X163261Y176992D01*
X163261Y176992D01*
X163609Y177513D01*
X163732Y178127D01*
Y190201D01*
X166017Y192487D01*
X166365Y193008D01*
X166470Y193532D01*
X166725Y193697D01*
X166865Y193741D01*
X167020Y193637D01*
X167520Y193538D01*
X168019Y193637D01*
X168442Y193920D01*
X168725Y194343D01*
X168824Y194843D01*
X168725Y195342D01*
X168442Y195765D01*
X168019Y196048D01*
X167520Y196147D01*
X167020Y196048D01*
X166633Y195789D01*
X166599Y195776D01*
X166568Y195748D01*
X166551Y195736D01*
X166530Y195723D01*
X166503Y195710D01*
X166470Y195698D01*
X166430Y195687D01*
X166382Y195677D01*
X166327Y195669D01*
X166264Y195664D01*
X166184Y195662D01*
X166146Y195645D01*
X166102D01*
X166102Y195645D01*
X165795Y195584D01*
X165535Y195410D01*
X165274Y195150D01*
X164882Y195228D01*
X164267Y195106D01*
X163747Y194757D01*
X160991Y192001D01*
X160643Y191481D01*
X160520Y190866D01*
X160520Y190866D01*
Y178792D01*
X156051Y174323D01*
X156048Y174322D01*
X155378Y173698D01*
X154693Y173151D01*
X153984Y172668D01*
X153249Y172251D01*
X152489Y171898D01*
X151701Y171610D01*
X150887Y171385D01*
X150044Y171225D01*
X149173Y171128D01*
X148258Y171095D01*
X148255Y171094D01*
X135851D01*
X135849Y171095D01*
X134978Y171141D01*
X134231Y171273D01*
X133587Y171487D01*
X133041Y171781D01*
X132586Y172153D01*
X132214Y172608D01*
X131920Y173154D01*
X131705Y173798D01*
X131574Y174544D01*
X131528Y175416D01*
X131527Y175418D01*
Y186043D01*
X131405Y186658D01*
X131057Y187179D01*
X131057Y187179D01*
X122238Y195998D01*
X121717Y196346D01*
X121673Y196354D01*
X121602Y196402D01*
X121102Y196501D01*
D02*
G37*
G36*
X117047Y197053D02*
X116548Y196953D01*
X116125Y196670D01*
X115842Y196247D01*
X115743Y195748D01*
X115842Y195249D01*
X116125Y194825D01*
X116548Y194543D01*
X117047Y194443D01*
X117546Y194543D01*
X117970Y194825D01*
X118253Y195249D01*
X118352Y195748D01*
X118253Y196247D01*
X117970Y196670D01*
X117546Y196953D01*
X117047Y197053D01*
D02*
G37*
G36*
X117913Y204887D02*
X117414Y204788D01*
X116991Y204505D01*
X116897Y204364D01*
X116434Y204348D01*
X116011Y204630D01*
X115512Y204730D01*
X115013Y204630D01*
X114589Y204348D01*
X114306Y203924D01*
X114207Y203425D01*
X114306Y202926D01*
X114589Y202503D01*
X115013Y202220D01*
X115512Y202121D01*
X116011Y202220D01*
X116434Y202503D01*
X116528Y202644D01*
X116991Y202660D01*
X117414Y202377D01*
X117913Y202278D01*
X118413Y202377D01*
X118836Y202660D01*
X119119Y203083D01*
X119218Y203583D01*
X119119Y204082D01*
X118836Y204505D01*
X118413Y204788D01*
X117913Y204887D01*
D02*
G37*
G36*
X159016Y210202D02*
X158517Y210103D01*
X158093Y209820D01*
X157810Y209397D01*
X157758Y209133D01*
X157597Y208882D01*
X157330Y208847D01*
X157047Y208903D01*
X156548Y208804D01*
X156125Y208521D01*
X155842Y208098D01*
X155743Y207598D01*
X155842Y207099D01*
X156125Y206676D01*
X156548Y206393D01*
X157047Y206294D01*
X157546Y206393D01*
X157970Y206676D01*
X158253Y207099D01*
X158305Y207364D01*
X158466Y207614D01*
X158733Y207649D01*
X159016Y207593D01*
X159515Y207692D01*
X159938Y207975D01*
X160221Y208398D01*
X160320Y208898D01*
X160221Y209397D01*
X159938Y209820D01*
X159515Y210103D01*
X159016Y210202D01*
D02*
G37*
G36*
X152244Y212013D02*
X151745Y211914D01*
X151322Y211631D01*
X151039Y211208D01*
X150940Y210709D01*
X151039Y210209D01*
X151322Y209786D01*
X151745Y209503D01*
X152244Y209404D01*
X152743Y209503D01*
X153167Y209786D01*
X153425Y210172D01*
X153571Y210185D01*
X153834Y210131D01*
X153874Y209934D01*
X154156Y209511D01*
X154579Y209228D01*
X155079Y209128D01*
X155578Y209228D01*
X156001Y209511D01*
X156284Y209934D01*
X156383Y210433D01*
X156284Y210932D01*
X156001Y211355D01*
X155578Y211638D01*
X155079Y211738D01*
X154579Y211638D01*
X154156Y211355D01*
X153898Y210969D01*
X153752Y210957D01*
X153489Y211011D01*
X153449Y211208D01*
X153167Y211631D01*
X152743Y211914D01*
X152244Y212013D01*
D02*
G37*
G36*
X10000Y222121D02*
X8611Y221984D01*
X7275Y221579D01*
X6044Y220921D01*
X4965Y220035D01*
X4079Y218956D01*
X3421Y217725D01*
X3016Y216389D01*
X2879Y215000D01*
X3016Y213611D01*
X3421Y212275D01*
X4079Y211044D01*
X4965Y209965D01*
X6044Y209079D01*
X7275Y208421D01*
X8611Y208016D01*
X10000Y207879D01*
X11389Y208016D01*
X12725Y208421D01*
X13956Y209079D01*
X15035Y209965D01*
X15921Y211044D01*
X16579Y212275D01*
X16984Y213611D01*
X17121Y215000D01*
X16984Y216389D01*
X16579Y217725D01*
X15921Y218956D01*
X15035Y220035D01*
X13956Y220921D01*
X12725Y221579D01*
X11389Y221984D01*
X10000Y222121D01*
D02*
G37*
G36*
X46457Y205793D02*
X45957Y205694D01*
X45534Y205411D01*
X45453Y205290D01*
X44980D01*
X44899Y205411D01*
X44476Y205694D01*
X43976Y205793D01*
X43477Y205694D01*
X43054Y205411D01*
X42972Y205289D01*
X42579D01*
X42497Y205411D01*
X42074Y205694D01*
X41575Y205793D01*
X41076Y205694D01*
X40652Y205411D01*
X40369Y204987D01*
X40270Y204488D01*
X40369Y203989D01*
X40652Y203566D01*
X40744Y203504D01*
Y203031D01*
X40652Y202970D01*
X40369Y202547D01*
X40270Y202047D01*
X40369Y201548D01*
X40652Y201125D01*
X41076Y200842D01*
X41575Y200743D01*
X42074Y200842D01*
X42497Y201125D01*
X42780Y201548D01*
X42879Y202047D01*
X42780Y202547D01*
X42497Y202970D01*
X42406Y203031D01*
Y203504D01*
X42497Y203566D01*
X42579Y203688D01*
X42972D01*
X43054Y203566D01*
X43477Y203283D01*
X43976Y203184D01*
X44476Y203283D01*
X44899Y203566D01*
X44980Y203687D01*
X45453D01*
X45534Y203566D01*
X45957Y203283D01*
X46457Y203184D01*
X46956Y203283D01*
X47379Y203566D01*
X47662Y203989D01*
X47761Y204488D01*
X47662Y204987D01*
X47379Y205411D01*
X46956Y205694D01*
X46457Y205793D01*
D02*
G37*
G36*
X52185Y209986D02*
X51686Y209886D01*
X51262Y209604D01*
X50980Y209180D01*
X50880Y208681D01*
X50980Y208182D01*
X51262Y207759D01*
X51686Y207476D01*
X52185Y207377D01*
X52684Y207476D01*
X53108Y207759D01*
X53390Y208182D01*
X53490Y208681D01*
X53390Y209180D01*
X53108Y209604D01*
X52684Y209886D01*
X52185Y209986D01*
D02*
G37*
G36*
X78425Y233234D02*
X77926Y233134D01*
X77503Y232852D01*
X77220Y232428D01*
X77121Y231929D01*
X77220Y231430D01*
X77503Y231007D01*
X77926Y230724D01*
X78425Y230625D01*
X78924Y230724D01*
X79348Y231007D01*
X79631Y231430D01*
X79730Y231929D01*
X79631Y232428D01*
X79348Y232852D01*
X78924Y233134D01*
X78425Y233234D01*
D02*
G37*
G36*
X68504Y250005D02*
X68005Y249906D01*
X67581Y249623D01*
X67299Y249200D01*
X67199Y248701D01*
X67299Y248201D01*
X67581Y247778D01*
X68005Y247496D01*
X68504Y247396D01*
X69003Y247496D01*
X69426Y247778D01*
X69709Y248201D01*
X69809Y248701D01*
X69709Y249200D01*
X69426Y249623D01*
X69003Y249906D01*
X68504Y250005D01*
D02*
G37*
G36*
X159823Y255532D02*
X152933D01*
Y248642D01*
X159823D01*
Y255532D01*
D02*
G37*
G36*
X123504Y248273D02*
X123005Y248174D01*
X122581Y247891D01*
X122299Y247468D01*
X122199Y246969D01*
X122299Y246469D01*
X122581Y246046D01*
X123005Y245763D01*
X123504Y245664D01*
X124003Y245763D01*
X124426Y246046D01*
X124709Y246469D01*
X124809Y246969D01*
X124709Y247468D01*
X124426Y247891D01*
X124003Y248174D01*
X123504Y248273D01*
D02*
G37*
G36*
X176260Y246147D02*
X175761Y246048D01*
X175337Y245765D01*
X175055Y245342D01*
X174955Y244843D01*
X174980Y244717D01*
X174932Y244673D01*
X174618Y244522D01*
X174279Y244749D01*
X173779Y244848D01*
X173280Y244749D01*
X172857Y244466D01*
X172574Y244042D01*
X172475Y243543D01*
X172574Y243044D01*
X172857Y242621D01*
X173280Y242338D01*
X173779Y242239D01*
X174279Y242338D01*
X174702Y242621D01*
X174985Y243044D01*
X175084Y243543D01*
X175059Y243668D01*
X175108Y243712D01*
X175422Y243864D01*
X175761Y243637D01*
X176260Y243538D01*
X176759Y243637D01*
X177182Y243920D01*
X177465Y244343D01*
X177564Y244843D01*
X177465Y245342D01*
X177182Y245765D01*
X176759Y246048D01*
X176260Y246147D01*
D02*
G37*
G36*
X198898Y247997D02*
X198398Y247898D01*
X197975Y247615D01*
X197692Y247192D01*
X197593Y246693D01*
X197692Y246194D01*
X197834Y245982D01*
X197597Y245628D01*
X197559Y245635D01*
X197106Y245545D01*
X196984Y245656D01*
X196852Y245866D01*
X197071Y246194D01*
X197171Y246693D01*
X197071Y247192D01*
X196789Y247615D01*
X196365Y247898D01*
X195866Y247997D01*
X195367Y247898D01*
X194944Y247615D01*
X194661Y247192D01*
X194610Y246937D01*
X194209D01*
X194158Y247192D01*
X193875Y247615D01*
X193452Y247898D01*
X192953Y247997D01*
X192454Y247898D01*
X192030Y247615D01*
X191747Y247192D01*
X191648Y246693D01*
X191747Y246194D01*
X192030Y245770D01*
X192454Y245488D01*
X192953Y245388D01*
X193452Y245488D01*
X193875Y245770D01*
X194158Y246194D01*
X194209Y246449D01*
X194610D01*
X194661Y246194D01*
X194779Y246016D01*
X194598Y245579D01*
X194383Y245536D01*
X193959Y245253D01*
X193677Y244830D01*
X193577Y244331D01*
X193677Y243831D01*
X193959Y243408D01*
X194383Y243125D01*
X194882Y243026D01*
X195381Y243125D01*
X195804Y243408D01*
X196002Y243704D01*
X196023Y243711D01*
X196418D01*
X196439Y243704D01*
X196637Y243408D01*
X197060Y243125D01*
X197559Y243026D01*
X198058Y243125D01*
X198482Y243408D01*
X198764Y243831D01*
X198864Y244331D01*
X198764Y244830D01*
X198623Y245042D01*
X198860Y245396D01*
X198898Y245388D01*
X199397Y245488D01*
X199820Y245770D01*
X200103Y246194D01*
X200202Y246693D01*
X200103Y247192D01*
X199820Y247615D01*
X199397Y247898D01*
X198898Y247997D01*
D02*
G37*
G36*
X91693Y251738D02*
X91194Y251638D01*
X90771Y251356D01*
X90488Y250932D01*
X90388Y250433D01*
X90488Y249934D01*
X90771Y249511D01*
X91194Y249228D01*
X91693Y249128D01*
X92192Y249228D01*
X92615Y249511D01*
X92898Y249934D01*
X92998Y250433D01*
X92898Y250932D01*
X92615Y251356D01*
X92192Y251638D01*
X91693Y251738D01*
D02*
G37*
G36*
X155984Y265807D02*
X155402Y265731D01*
X154492Y265354D01*
X153710Y264754D01*
X153111Y263973D01*
X152734Y263063D01*
X152657Y262480D01*
X155984D01*
Y265807D01*
D02*
G37*
G36*
X156772Y265807D02*
Y262480D01*
X160099D01*
X160022Y263063D01*
X159645Y263973D01*
X159046Y264754D01*
X158264Y265354D01*
X157354Y265731D01*
X156772Y265807D01*
D02*
G37*
G36*
X155984Y261693D02*
X152657D01*
X152734Y261110D01*
X153111Y260200D01*
X153710Y259419D01*
X154492Y258820D01*
X155402Y258443D01*
X155984Y258366D01*
Y261693D01*
D02*
G37*
G36*
X70382Y260592D02*
X69883Y260493D01*
X69459Y260210D01*
X69177Y259787D01*
X69077Y259287D01*
X69177Y258788D01*
X69459Y258365D01*
X69883Y258082D01*
X70382Y257983D01*
X70881Y258082D01*
X71304Y258365D01*
X71587Y258788D01*
X71687Y259287D01*
X71587Y259787D01*
X71304Y260210D01*
X70881Y260493D01*
X70382Y260592D01*
D02*
G37*
G36*
X160099Y261693D02*
X156772D01*
Y258366D01*
X157354Y258443D01*
X158264Y258820D01*
X159046Y259419D01*
X159645Y260200D01*
X160022Y261110D01*
X160099Y261693D01*
D02*
G37*
G36*
X176496Y238627D02*
X175997Y238528D01*
X175574Y238245D01*
X175291Y237822D01*
X175191Y237323D01*
X175291Y236824D01*
X175574Y236400D01*
X175997Y236118D01*
X176496Y236018D01*
X176995Y236118D01*
X177418Y236400D01*
X177701Y236824D01*
X177801Y237323D01*
X177701Y237822D01*
X177418Y238245D01*
X176995Y238528D01*
X176496Y238627D01*
D02*
G37*
G36*
X88189Y238824D02*
X87690Y238725D01*
X87266Y238442D01*
X86984Y238019D01*
X86884Y237520D01*
X86984Y237020D01*
X87266Y236597D01*
X87690Y236314D01*
X88189Y236215D01*
X88688Y236314D01*
X89112Y236597D01*
X89394Y237020D01*
X89494Y237520D01*
X89394Y238019D01*
X89112Y238442D01*
X88688Y238725D01*
X88189Y238824D01*
D02*
G37*
G36*
X84606Y237053D02*
X84107Y236953D01*
X83684Y236670D01*
X83401Y236247D01*
X83302Y235748D01*
X83401Y235249D01*
X83684Y234826D01*
X84107Y234543D01*
X84606Y234443D01*
X85106Y234543D01*
X85529Y234826D01*
X85812Y235249D01*
X85911Y235748D01*
X85812Y236247D01*
X85529Y236670D01*
X85106Y236953D01*
X84606Y237053D01*
D02*
G37*
G36*
X114134Y235931D02*
X113635Y235831D01*
X113211Y235548D01*
X112929Y235125D01*
X112829Y234626D01*
X112929Y234127D01*
X113177Y233755D01*
X113215Y233588D01*
Y233419D01*
X113177Y233253D01*
X112929Y232881D01*
X112829Y232382D01*
X112929Y231883D01*
X113211Y231459D01*
X113635Y231177D01*
X114134Y231077D01*
X114633Y231177D01*
X115056Y231459D01*
X115339Y231883D01*
X115438Y232382D01*
X115339Y232881D01*
X115091Y233253D01*
X115052Y233419D01*
Y233588D01*
X115091Y233755D01*
X115339Y234127D01*
X115438Y234626D01*
X115339Y235125D01*
X115056Y235548D01*
X114633Y235831D01*
X114134Y235931D01*
D02*
G37*
G36*
X157126Y236726D02*
X137244D01*
X136975Y236673D01*
X136747Y236520D01*
X130378Y230151D01*
X96227D01*
X96187Y230170D01*
X96122Y230172D01*
X96077Y230178D01*
X96034Y230187D01*
X95992Y230199D01*
X95951Y230215D01*
X95910Y230236D01*
X95869Y230260D01*
X95827Y230290D01*
X95784Y230326D01*
X95730Y230377D01*
X95699Y230389D01*
X95302Y230654D01*
X94803Y230753D01*
X94304Y230654D01*
X93881Y230371D01*
X93598Y229948D01*
X93499Y229449D01*
X93598Y228950D01*
X93881Y228526D01*
X94304Y228243D01*
X94803Y228144D01*
X95302Y228243D01*
X95699Y228508D01*
X95730Y228520D01*
X95784Y228572D01*
X95827Y228608D01*
X95869Y228637D01*
X95910Y228662D01*
X95951Y228682D01*
X95992Y228698D01*
X96034Y228711D01*
X96077Y228720D01*
X96122Y228725D01*
X96187Y228728D01*
X96227Y228746D01*
X130669D01*
X130938Y228800D01*
X131166Y228952D01*
X137535Y235321D01*
X156835D01*
X157000Y235156D01*
X157016Y235114D01*
X157060Y235066D01*
X157088Y235031D01*
X157112Y234994D01*
X157133Y234956D01*
X157150Y234915D01*
X157165Y234872D01*
X157177Y234825D01*
X157185Y234775D01*
X157190Y234719D01*
X157192Y234645D01*
X157206Y234614D01*
X157299Y234146D01*
X157581Y233723D01*
X158005Y233440D01*
X158504Y233341D01*
X159003Y233440D01*
X159426Y233723D01*
X159709Y234146D01*
X159809Y234646D01*
X159709Y235145D01*
X159426Y235568D01*
X159003Y235851D01*
X158536Y235944D01*
X158505Y235958D01*
X158431Y235959D01*
X158375Y235964D01*
X158324Y235973D01*
X158277Y235985D01*
X158234Y235999D01*
X158194Y236017D01*
X158156Y236037D01*
X158119Y236062D01*
X158083Y236090D01*
X158036Y236134D01*
X157994Y236149D01*
X157623Y236520D01*
X157395Y236673D01*
X157126Y236726D01*
D02*
G37*
G36*
X91693Y240517D02*
X91194Y240418D01*
X90770Y240135D01*
X90488Y239712D01*
X90388Y239213D01*
X90488Y238713D01*
X90770Y238290D01*
X91194Y238007D01*
X91693Y237908D01*
X92192Y238007D01*
X92615Y238290D01*
X92898Y238713D01*
X92997Y239213D01*
X92898Y239712D01*
X92615Y240135D01*
X92192Y240418D01*
X91693Y240517D01*
D02*
G37*
G36*
X77244Y242407D02*
X76745Y242308D01*
X76322Y242025D01*
X76039Y241602D01*
X75940Y241102D01*
X76039Y240603D01*
X76322Y240180D01*
X76745Y239897D01*
X77244Y239798D01*
X77743Y239897D01*
X78167Y240180D01*
X78449Y240603D01*
X78549Y241102D01*
X78449Y241602D01*
X78167Y242025D01*
X77743Y242308D01*
X77244Y242407D01*
D02*
G37*
G36*
X176535Y242840D02*
X176036Y242741D01*
X175613Y242458D01*
X175330Y242035D01*
X175231Y241535D01*
X175330Y241036D01*
X175613Y240613D01*
X176036Y240330D01*
X176535Y240231D01*
X177035Y240330D01*
X177458Y240613D01*
X177741Y241036D01*
X177840Y241535D01*
X177741Y242035D01*
X177458Y242458D01*
X177035Y242741D01*
X176535Y242840D01*
D02*
G37*
G36*
X73701Y242368D02*
X73202Y242268D01*
X72778Y241986D01*
X72496Y241562D01*
X72396Y241063D01*
X72496Y240564D01*
X72778Y240141D01*
X73202Y239858D01*
X73701Y239758D01*
X74200Y239858D01*
X74623Y240141D01*
X74906Y240564D01*
X75005Y241063D01*
X74906Y241562D01*
X74623Y241986D01*
X74200Y242268D01*
X73701Y242368D01*
D02*
G37*
G36*
X174173Y240517D02*
X173674Y240418D01*
X173251Y240135D01*
X172968Y239712D01*
X172869Y239213D01*
X172968Y238713D01*
X173251Y238290D01*
X173674Y238007D01*
X174173Y237908D01*
X174672Y238007D01*
X175096Y238290D01*
X175379Y238713D01*
X175478Y239213D01*
X175379Y239712D01*
X175096Y240135D01*
X174672Y240418D01*
X174173Y240517D01*
D02*
G37*
G36*
X169606Y241305D02*
X169107Y241205D01*
X168684Y240922D01*
X168401Y240499D01*
X168302Y240000D01*
X168338Y239815D01*
X168003Y239484D01*
X167756Y239533D01*
X167257Y239434D01*
X167056Y239299D01*
X166992Y239330D01*
X166737Y239560D01*
X166816Y239961D01*
X166717Y240460D01*
X166434Y240883D01*
X166011Y241166D01*
X165512Y241265D01*
X165013Y241166D01*
X164589Y240883D01*
X164306Y240460D01*
X164207Y239961D01*
X164306Y239461D01*
X164589Y239038D01*
X165013Y238755D01*
X165512Y238656D01*
X166011Y238755D01*
X166212Y238890D01*
X166276Y238859D01*
X166531Y238629D01*
X166451Y238228D01*
X166551Y237729D01*
X166833Y237306D01*
X167257Y237023D01*
X167756Y236924D01*
X168255Y237023D01*
X168678Y237306D01*
X168961Y237729D01*
X169061Y238228D01*
X169024Y238413D01*
X169359Y238745D01*
X169606Y238695D01*
X170106Y238795D01*
X170529Y239077D01*
X170812Y239501D01*
X170911Y240000D01*
X170812Y240499D01*
X170529Y240922D01*
X170106Y241205D01*
X169606Y241305D01*
D02*
G37*
G36*
X28465Y176147D02*
X27965Y176048D01*
X27542Y175765D01*
X27259Y175342D01*
X27160Y174843D01*
X27259Y174343D01*
X27542Y173920D01*
X27965Y173637D01*
X28465Y173538D01*
X28964Y173637D01*
X29387Y173920D01*
X29670Y174343D01*
X29769Y174843D01*
X29670Y175342D01*
X29387Y175765D01*
X28964Y176048D01*
X28465Y176147D01*
D02*
G37*
G36*
X59488Y183706D02*
X58989Y183607D01*
X58566Y183324D01*
X58283Y182901D01*
X58184Y182402D01*
X58283Y181902D01*
X58566Y181479D01*
X58989Y181196D01*
X59448Y181105D01*
X59564Y180947D01*
X59672Y180732D01*
X59543Y180539D01*
X59443Y180039D01*
X59543Y179540D01*
X59715Y179283D01*
X59675Y179144D01*
X59517Y178885D01*
X59107Y178804D01*
X58684Y178521D01*
X58401Y178098D01*
X58302Y177598D01*
X58401Y177099D01*
X58684Y176676D01*
X59107Y176393D01*
X59606Y176294D01*
X60106Y176393D01*
X60529Y176676D01*
X60812Y177099D01*
X60911Y177598D01*
X60812Y178098D01*
X60640Y178355D01*
X60679Y178494D01*
X60837Y178753D01*
X61247Y178834D01*
X61671Y179117D01*
X61953Y179540D01*
X62053Y180039D01*
X61953Y180539D01*
X61671Y180962D01*
X61247Y181245D01*
X60789Y181336D01*
X60672Y181494D01*
X60564Y181709D01*
X60694Y181902D01*
X60793Y182402D01*
X60694Y182901D01*
X60411Y183324D01*
X59987Y183607D01*
X59488Y183706D01*
D02*
G37*
G36*
X200197Y179737D02*
X199221Y179608D01*
X198311Y179232D01*
X197529Y178632D01*
X196930Y177851D01*
X196553Y176941D01*
X196424Y175964D01*
X196553Y174988D01*
X196930Y174078D01*
X197529Y173297D01*
X198311Y172697D01*
X199221Y172321D01*
X200197Y172192D01*
X201173Y172321D01*
X202083Y172697D01*
X202864Y173297D01*
X203464Y174078D01*
X203841Y174988D01*
X203969Y175964D01*
X203841Y176941D01*
X203464Y177851D01*
X202864Y178632D01*
X202083Y179232D01*
X201173Y179608D01*
X200197Y179737D01*
D02*
G37*
G36*
X45177Y175734D02*
X44678Y175634D01*
X44255Y175352D01*
X43972Y174928D01*
X43873Y174429D01*
X43972Y173930D01*
X44255Y173507D01*
X44678Y173224D01*
X45177Y173125D01*
X45676Y173224D01*
X46100Y173507D01*
X46382Y173930D01*
X46482Y174429D01*
X46382Y174928D01*
X46100Y175352D01*
X45676Y175634D01*
X45177Y175734D01*
D02*
G37*
G36*
X98425Y182525D02*
X97926Y182426D01*
X97503Y182143D01*
X97220Y181720D01*
X97121Y181220D01*
X97220Y180721D01*
X97503Y180298D01*
X97926Y180015D01*
X98260Y179949D01*
Y179547D01*
X98083Y179512D01*
X97660Y179230D01*
X97377Y178806D01*
X97278Y178307D01*
X97377Y177808D01*
X97660Y177385D01*
X98083Y177102D01*
X98583Y177003D01*
X99082Y177102D01*
X99505Y177385D01*
X99788Y177808D01*
X99887Y178307D01*
X99788Y178806D01*
X99505Y179230D01*
X99082Y179512D01*
X98748Y179579D01*
Y179980D01*
X98924Y180015D01*
X99348Y180298D01*
X99630Y180721D01*
X99730Y181220D01*
X99630Y181720D01*
X99348Y182143D01*
X98924Y182426D01*
X98425Y182525D01*
D02*
G37*
G36*
X102165Y184454D02*
X101666Y184355D01*
X101243Y184072D01*
X100960Y183649D01*
X100861Y183150D01*
X100960Y182650D01*
X101243Y182227D01*
X101666Y181944D01*
X102165Y181845D01*
X102665Y181944D01*
X103088Y182227D01*
X103371Y182650D01*
X103470Y183150D01*
X103371Y183649D01*
X103088Y184072D01*
X102665Y184355D01*
X102165Y184454D01*
D02*
G37*
G36*
X200197Y189737D02*
X199221Y189608D01*
X198311Y189232D01*
X197529Y188632D01*
X196930Y187851D01*
X196553Y186941D01*
X196424Y185965D01*
X196553Y184988D01*
X196930Y184078D01*
X197529Y183297D01*
X198311Y182697D01*
X199221Y182321D01*
X200197Y182192D01*
X201173Y182321D01*
X202083Y182697D01*
X202864Y183297D01*
X203464Y184078D01*
X203841Y184988D01*
X203969Y185965D01*
X203841Y186941D01*
X203464Y187851D01*
X202864Y188632D01*
X202083Y189232D01*
X201173Y189608D01*
X200197Y189737D01*
D02*
G37*
G36*
X181142Y180793D02*
X180642Y180693D01*
X180219Y180411D01*
X179936Y179987D01*
X179837Y179488D01*
X179936Y178989D01*
X180219Y178566D01*
X180642Y178283D01*
X181142Y178184D01*
X181641Y178283D01*
X182064Y178566D01*
X182347Y178989D01*
X182446Y179488D01*
X182347Y179987D01*
X182064Y180411D01*
X181641Y180693D01*
X181142Y180793D01*
D02*
G37*
G36*
X56260Y183667D02*
X55761Y183568D01*
X55337Y183285D01*
X55055Y182861D01*
X54955Y182362D01*
X55055Y181863D01*
X55337Y181440D01*
X55761Y181157D01*
X56260Y181058D01*
X56488Y181103D01*
X56686Y180741D01*
X56472Y180420D01*
X56373Y179921D01*
X56472Y179422D01*
X56662Y179138D01*
X56425Y178784D01*
X56221Y178824D01*
X55721Y178725D01*
X55298Y178442D01*
X55015Y178019D01*
X54916Y177520D01*
X55015Y177020D01*
X55298Y176597D01*
X55721Y176314D01*
X56221Y176215D01*
X56720Y176314D01*
X57143Y176597D01*
X57426Y177020D01*
X57525Y177520D01*
X57426Y178019D01*
X57236Y178303D01*
X57473Y178657D01*
X57677Y178617D01*
X58176Y178716D01*
X58600Y178999D01*
X58882Y179422D01*
X58982Y179921D01*
X58882Y180420D01*
X58600Y180844D01*
X58176Y181126D01*
X57677Y181226D01*
X57449Y181181D01*
X57251Y181543D01*
X57465Y181863D01*
X57564Y182362D01*
X57465Y182861D01*
X57182Y183285D01*
X56759Y183568D01*
X56260Y183667D01*
D02*
G37*
G36*
X200591Y169685D02*
Y166358D01*
X203917D01*
X203841Y166941D01*
X203464Y167851D01*
X202864Y168632D01*
X202083Y169231D01*
X201173Y169608D01*
X200591Y169685D01*
D02*
G37*
G36*
X173504Y162643D02*
X173005Y162544D01*
X172581Y162261D01*
X172299Y161838D01*
X172199Y161339D01*
X172299Y160839D01*
X172581Y160416D01*
X173005Y160133D01*
X173504Y160034D01*
X174003Y160133D01*
X174426Y160416D01*
X174709Y160839D01*
X174809Y161339D01*
X174709Y161838D01*
X174426Y162261D01*
X174003Y162544D01*
X173504Y162643D01*
D02*
G37*
G36*
X199803Y165571D02*
X196476D01*
X196553Y164988D01*
X196930Y164078D01*
X197529Y163297D01*
X198311Y162698D01*
X199221Y162321D01*
X199803Y162244D01*
Y165571D01*
D02*
G37*
G36*
X57579Y159395D02*
X57079Y159296D01*
X56656Y159013D01*
X56374Y158590D01*
X56274Y158091D01*
X56374Y157591D01*
X56656Y157168D01*
X57079Y156885D01*
X57579Y156786D01*
X58078Y156885D01*
X58501Y157168D01*
X58784Y157591D01*
X58883Y158091D01*
X58784Y158590D01*
X58501Y159013D01*
X58078Y159296D01*
X57579Y159395D01*
D02*
G37*
G36*
X149173Y161580D02*
X148674Y161481D01*
X148251Y161198D01*
X147968Y160775D01*
X147869Y160276D01*
X147968Y159776D01*
X148251Y159353D01*
X148674Y159070D01*
X149173Y158971D01*
X149672Y159070D01*
X150096Y159353D01*
X150379Y159776D01*
X150478Y160276D01*
X150379Y160775D01*
X150096Y161198D01*
X149672Y161481D01*
X149173Y161580D01*
D02*
G37*
G36*
X203917Y165571D02*
X200591D01*
Y162244D01*
X201173Y162321D01*
X202083Y162698D01*
X202864Y163297D01*
X203464Y164078D01*
X203841Y164988D01*
X203917Y165571D01*
D02*
G37*
G36*
X28464Y168116D02*
X27965Y168016D01*
X27542Y167734D01*
X27259Y167310D01*
X27160Y166811D01*
X27259Y166312D01*
X27542Y165889D01*
X27965Y165606D01*
X28464Y165506D01*
X28964Y165606D01*
X29387Y165889D01*
X29670Y166312D01*
X29769Y166811D01*
X29670Y167310D01*
X29387Y167734D01*
X28964Y168016D01*
X28464Y168116D01*
D02*
G37*
G36*
X199803Y169685D02*
X199221Y169608D01*
X198311Y169231D01*
X197529Y168632D01*
X196930Y167851D01*
X196553Y166941D01*
X196476Y166358D01*
X199803D01*
Y169685D01*
D02*
G37*
G36*
X131260Y165675D02*
X130761Y165575D01*
X130337Y165293D01*
X130055Y164869D01*
X129955Y164370D01*
X130055Y163871D01*
X130337Y163448D01*
X130761Y163165D01*
X131260Y163066D01*
X131759Y163165D01*
X132182Y163448D01*
X132465Y163871D01*
X132564Y164370D01*
X132465Y164869D01*
X132182Y165293D01*
X131759Y165575D01*
X131260Y165675D01*
D02*
G37*
G36*
X143268D02*
X142769Y165575D01*
X142345Y165293D01*
X142062Y164869D01*
X141963Y164370D01*
X142062Y163871D01*
X142345Y163448D01*
X142769Y163165D01*
X143268Y163066D01*
X143767Y163165D01*
X144190Y163448D01*
X144473Y163871D01*
X144572Y164370D01*
X144473Y164869D01*
X144190Y165293D01*
X143767Y165575D01*
X143268Y165675D01*
D02*
G37*
G36*
X89921Y190872D02*
X89422Y190772D01*
X88999Y190489D01*
X88716Y190066D01*
X88617Y189567D01*
X88716Y189068D01*
X88999Y188644D01*
X89422Y188362D01*
X89921Y188262D01*
X90421Y188362D01*
X90844Y188644D01*
X91127Y189068D01*
X91226Y189567D01*
X91127Y190066D01*
X90844Y190489D01*
X90421Y190772D01*
X89921Y190872D01*
D02*
G37*
G36*
X100236Y191344D02*
X99737Y191245D01*
X99314Y190962D01*
X99031Y190539D01*
X98932Y190039D01*
X99011Y189639D01*
X98783Y189411D01*
X98773Y189402D01*
X98696Y189361D01*
X98228Y189454D01*
X97729Y189355D01*
X97306Y189072D01*
X97023Y188649D01*
X96924Y188150D01*
X97023Y187650D01*
X97306Y187227D01*
X97729Y186944D01*
X98228Y186845D01*
X98728Y186944D01*
X99151Y187227D01*
X99434Y187650D01*
X99533Y188150D01*
X99453Y188550D01*
X99681Y188778D01*
X99692Y188786D01*
X99769Y188828D01*
X100236Y188735D01*
X100735Y188834D01*
X101159Y189117D01*
X101442Y189540D01*
X101541Y190039D01*
X101442Y190539D01*
X101159Y190962D01*
X100735Y191245D01*
X100236Y191344D01*
D02*
G37*
G36*
X122874Y187368D02*
X122375Y187268D01*
X121951Y186986D01*
X121669Y186562D01*
X121569Y186063D01*
X121669Y185564D01*
X121951Y185141D01*
X122375Y184858D01*
X122874Y184758D01*
X123373Y184858D01*
X123796Y185141D01*
X124079Y185564D01*
X124179Y186063D01*
X124079Y186562D01*
X123796Y186986D01*
X123373Y187268D01*
X122874Y187368D01*
D02*
G37*
G36*
X185748Y191580D02*
X185249Y191481D01*
X184826Y191198D01*
X184543Y190775D01*
X184443Y190276D01*
X184543Y189776D01*
X184826Y189353D01*
X185249Y189070D01*
X185748Y188971D01*
X186247Y189070D01*
X186670Y189353D01*
X186953Y189776D01*
X187053Y190276D01*
X186953Y190775D01*
X186670Y191198D01*
X186247Y191481D01*
X185748Y191580D01*
D02*
G37*
G36*
X29213Y194848D02*
X28713Y194749D01*
X28290Y194466D01*
X28007Y194043D01*
X27908Y193543D01*
X28007Y193044D01*
X28290Y192621D01*
X28713Y192338D01*
X29213Y192239D01*
X29712Y192338D01*
X30135Y192621D01*
X30418Y193044D01*
X30517Y193543D01*
X30418Y194043D01*
X30135Y194466D01*
X29712Y194749D01*
X29213Y194848D01*
D02*
G37*
G36*
X105984Y187604D02*
X105485Y187504D01*
X105062Y187222D01*
X104779Y186799D01*
X104680Y186299D01*
X104779Y185800D01*
X105062Y185377D01*
X105485Y185094D01*
X105984Y184995D01*
X106483Y185094D01*
X106907Y185377D01*
X107190Y185800D01*
X107289Y186299D01*
X107190Y186799D01*
X106907Y187222D01*
X106483Y187504D01*
X105984Y187604D01*
D02*
G37*
G36*
X37638Y190281D02*
X37139Y190182D01*
X36715Y189899D01*
X36432Y189476D01*
X36333Y188976D01*
X36432Y188477D01*
X36715Y188054D01*
X37139Y187771D01*
X37638Y187672D01*
X38137Y187771D01*
X38560Y188054D01*
X38843Y188477D01*
X38942Y188976D01*
X38843Y189476D01*
X38560Y189899D01*
X38137Y190182D01*
X37638Y190281D01*
D02*
G37*
G36*
X200197Y199737D02*
X199221Y199608D01*
X198311Y199232D01*
X197529Y198632D01*
X196930Y197851D01*
X196553Y196941D01*
X196424Y195965D01*
X196553Y194988D01*
X196930Y194078D01*
X197529Y193297D01*
X198311Y192698D01*
X199221Y192321D01*
X200197Y192192D01*
X201173Y192321D01*
X202083Y192698D01*
X202864Y193297D01*
X203464Y194078D01*
X203841Y194988D01*
X203969Y195965D01*
X203841Y196941D01*
X203464Y197851D01*
X202864Y198632D01*
X202083Y199232D01*
X201173Y199608D01*
X200197Y199737D01*
D02*
G37*
G36*
X173504Y193076D02*
X173005Y192977D01*
X172581Y192694D01*
X172299Y192271D01*
X172199Y191772D01*
X172299Y191272D01*
X172581Y190849D01*
X173005Y190566D01*
X173504Y190467D01*
X174003Y190566D01*
X174426Y190849D01*
X174709Y191272D01*
X174809Y191772D01*
X174709Y192271D01*
X174426Y192694D01*
X174003Y192977D01*
X173504Y193076D01*
D02*
G37*
G36*
X185787Y187210D02*
X185288Y187111D01*
X184865Y186828D01*
X184582Y186405D01*
X184483Y185906D01*
X184582Y185406D01*
X184865Y184983D01*
X185288Y184700D01*
X185787Y184601D01*
X186287Y184700D01*
X186710Y184983D01*
X186993Y185406D01*
X187092Y185906D01*
X186993Y186405D01*
X186710Y186828D01*
X186287Y187111D01*
X185787Y187210D01*
D02*
G37*
G36*
X110039Y192250D02*
X109540Y192150D01*
X109117Y191867D01*
X108834Y191444D01*
X108735Y190945D01*
X108834Y190446D01*
X109117Y190022D01*
X109540Y189740D01*
X110039Y189640D01*
X110539Y189740D01*
X110962Y190022D01*
X111245Y190446D01*
X111344Y190945D01*
X111245Y191444D01*
X110962Y191867D01*
X110539Y192150D01*
X110039Y192250D01*
D02*
G37*
%LPD*%
G36*
X20535Y87773D02*
X20489Y87720D01*
X20447Y87660D01*
X20410Y87594D01*
X20379Y87520D01*
X20352Y87440D01*
X20331Y87353D01*
X20314Y87258D01*
X20303Y87157D01*
X20297Y87049D01*
X20295Y86934D01*
X19418Y87811D01*
X19533Y87812D01*
X19743Y87830D01*
X19837Y87846D01*
X19924Y87868D01*
X20005Y87894D01*
X20078Y87926D01*
X20145Y87963D01*
X20204Y88004D01*
X20257Y88051D01*
X20535Y87773D01*
D02*
G37*
G36*
X91095Y126985D02*
X91155Y126943D01*
X91221Y126906D01*
X91295Y126875D01*
X91375Y126848D01*
X91462Y126827D01*
X91557Y126810D01*
X91658Y126799D01*
X91766Y126793D01*
X91881Y126791D01*
X91004Y125914D01*
X91003Y126029D01*
X90985Y126239D01*
X90968Y126333D01*
X90947Y126420D01*
X90921Y126501D01*
X90889Y126574D01*
X90852Y126641D01*
X90811Y126700D01*
X90764Y126753D01*
X91042Y127031D01*
X91095Y126985D01*
D02*
G37*
G36*
X100746Y145955D02*
X100812Y145899D01*
X100878Y145849D01*
X100944Y145806D01*
X101009Y145770D01*
X101074Y145740D01*
X101138Y145717D01*
X101202Y145701D01*
X101266Y145692D01*
X101330Y145689D01*
X100453Y144812D01*
X100450Y144876D01*
X100441Y144939D01*
X100425Y145004D01*
X100402Y145068D01*
X100372Y145133D01*
X100336Y145198D01*
X100293Y145264D01*
X100243Y145329D01*
X100187Y145395D01*
X100123Y145462D01*
X100680Y146019D01*
X100746Y145955D01*
D02*
G37*
G36*
X52132Y126406D02*
X52293Y126270D01*
X52371Y126215D01*
X52448Y126169D01*
X52524Y126131D01*
X52598Y126101D01*
X52671Y126080D01*
X52742Y126067D01*
X52812Y126063D01*
Y125669D01*
X52742Y125665D01*
X52671Y125652D01*
X52598Y125631D01*
X52524Y125602D01*
X52448Y125564D01*
X52371Y125517D01*
X52293Y125462D01*
X52213Y125398D01*
X52132Y125327D01*
X52050Y125246D01*
Y126486D01*
X52132Y126406D01*
D02*
G37*
G36*
X38024Y71079D02*
X38084Y71038D01*
X38150Y71001D01*
X38224Y70969D01*
X38304Y70943D01*
X38391Y70921D01*
X38486Y70905D01*
X38587Y70894D01*
X38695Y70887D01*
X38810Y70886D01*
X37933Y70009D01*
X37932Y70124D01*
X37914Y70333D01*
X37898Y70428D01*
X37876Y70515D01*
X37850Y70595D01*
X37818Y70669D01*
X37782Y70735D01*
X37740Y70795D01*
X37693Y70847D01*
X37972Y71126D01*
X38024Y71079D01*
D02*
G37*
G36*
X39008Y76591D02*
X39068Y76549D01*
X39134Y76513D01*
X39208Y76481D01*
X39288Y76455D01*
X39376Y76433D01*
X39470Y76417D01*
X39571Y76405D01*
X39679Y76399D01*
X39794Y76398D01*
X38917Y75521D01*
X38916Y75636D01*
X38898Y75845D01*
X38882Y75939D01*
X38860Y76027D01*
X38834Y76107D01*
X38802Y76180D01*
X38766Y76247D01*
X38724Y76306D01*
X38677Y76359D01*
X38956Y76638D01*
X39008Y76591D01*
D02*
G37*
G36*
X20818Y86021D02*
Y69241D01*
X19889Y68313D01*
X19853Y68297D01*
X19806Y68282D01*
X19749Y68268D01*
X19688Y68257D01*
X19513Y68242D01*
X19413Y68241D01*
X19385Y68229D01*
X18910Y68134D01*
X18487Y67852D01*
X18204Y67428D01*
X18113Y66972D01*
X18098Y66939D01*
X18096Y66897D01*
X18093Y66876D01*
X18087Y66852D01*
X18077Y66824D01*
X18062Y66792D01*
X18042Y66755D01*
X18015Y66715D01*
X17982Y66670D01*
X17941Y66623D01*
X17886Y66564D01*
X17871Y66526D01*
X16755Y65410D01*
X16581Y65150D01*
X16551Y64998D01*
X16157Y65036D01*
Y82538D01*
X19006Y85386D01*
X19045Y85401D01*
X19103Y85456D01*
X19151Y85497D01*
X19195Y85531D01*
X19236Y85558D01*
X19272Y85578D01*
X19305Y85593D01*
X19332Y85603D01*
X19356Y85609D01*
X19377Y85612D01*
X19419Y85614D01*
X19452Y85629D01*
X19909Y85720D01*
X20332Y86003D01*
X20424Y86140D01*
X20818Y86021D01*
D02*
G37*
G36*
X20535Y67777D02*
X20489Y67724D01*
X20447Y67664D01*
X20410Y67598D01*
X20379Y67524D01*
X20352Y67444D01*
X20331Y67357D01*
X20314Y67262D01*
X20303Y67161D01*
X20297Y67053D01*
X20295Y66938D01*
X19418Y67815D01*
X19533Y67816D01*
X19743Y67834D01*
X19837Y67851D01*
X19924Y67872D01*
X20005Y67898D01*
X20078Y67930D01*
X20145Y67967D01*
X20204Y68008D01*
X20257Y68055D01*
X20535Y67777D01*
D02*
G37*
G36*
X39205Y81630D02*
X39265Y81589D01*
X39331Y81552D01*
X39405Y81520D01*
X39485Y81494D01*
X39573Y81472D01*
X39667Y81456D01*
X39768Y81445D01*
X39876Y81438D01*
X39991Y81437D01*
X39114Y80560D01*
X39113Y80675D01*
X39095Y80884D01*
X39079Y80979D01*
X39057Y81066D01*
X39031Y81146D01*
X38999Y81220D01*
X38963Y81286D01*
X38921Y81346D01*
X38874Y81398D01*
X39153Y81677D01*
X39205Y81630D01*
D02*
G37*
G36*
X19401Y66043D02*
X19337Y66041D01*
X19273Y66031D01*
X19209Y66015D01*
X19144Y65992D01*
X19080Y65962D01*
X19015Y65926D01*
X18949Y65883D01*
X18883Y65833D01*
X18817Y65777D01*
X18751Y65714D01*
X18194Y66271D01*
X18257Y66337D01*
X18314Y66403D01*
X18363Y66469D01*
X18407Y66534D01*
X18443Y66599D01*
X18473Y66664D01*
X18495Y66729D01*
X18511Y66793D01*
X18521Y66857D01*
X18524Y66920D01*
X19401Y66043D01*
D02*
G37*
G36*
X40241Y85746D02*
X40254Y85674D01*
X40275Y85601D01*
X40306Y85528D01*
X40345Y85454D01*
X40393Y85380D01*
X40449Y85305D01*
X40514Y85229D01*
X40589Y85153D01*
X40671Y85075D01*
X39432Y85015D01*
X39510Y85102D01*
X39642Y85272D01*
X39695Y85353D01*
X39740Y85432D01*
X39777Y85510D01*
X39806Y85585D01*
X39826Y85658D01*
X39838Y85729D01*
X39843Y85798D01*
X40236Y85817D01*
X40241Y85746D01*
D02*
G37*
G36*
X19401Y86039D02*
X19337Y86037D01*
X19273Y86027D01*
X19209Y86011D01*
X19144Y85988D01*
X19080Y85959D01*
X19015Y85922D01*
X18949Y85879D01*
X18883Y85830D01*
X18817Y85773D01*
X18751Y85710D01*
X18194Y86267D01*
X18257Y86333D01*
X18314Y86399D01*
X18363Y86465D01*
X18407Y86530D01*
X18443Y86595D01*
X18473Y86660D01*
X18495Y86725D01*
X18511Y86789D01*
X18521Y86853D01*
X18524Y86916D01*
X19401Y86039D01*
D02*
G37*
G36*
X148472Y128811D02*
X148472Y127173D01*
X148472Y122069D01*
X138358Y111955D01*
X133254D01*
X130276Y108976D01*
X127178D01*
X127113Y109060D01*
X126922Y109534D01*
X127048Y109644D01*
X127159Y109771D01*
X127252Y109910D01*
X127326Y110061D01*
X127380Y110219D01*
X127413Y110384D01*
X127424Y110551D01*
X127413Y110719D01*
X127380Y110883D01*
X127326Y111042D01*
X127252Y111192D01*
X127159Y111332D01*
X127048Y111458D01*
X126922Y111568D01*
X126783Y111662D01*
X126632Y111736D01*
X126474Y111790D01*
X126309Y111822D01*
X126142Y111834D01*
X125974Y111822D01*
X125810Y111790D01*
X125651Y111736D01*
X125501Y111662D01*
X125361Y111568D01*
X125235Y111458D01*
X125125Y111332D01*
X125031Y111192D01*
X124957Y111042D01*
X124903Y110883D01*
X124870Y110719D01*
X124859Y110551D01*
X124870Y110384D01*
X124903Y110219D01*
X124957Y110061D01*
X125031Y109910D01*
X125125Y109771D01*
X125235Y109644D01*
X125361Y109534D01*
X125171Y109060D01*
X125105Y108976D01*
X124029D01*
X123963Y109060D01*
X123773Y109534D01*
X123899Y109644D01*
X124009Y109771D01*
X124103Y109910D01*
X124177Y110061D01*
X124231Y110219D01*
X124263Y110384D01*
X124274Y110551D01*
X124263Y110719D01*
X124231Y110883D01*
X124177Y111042D01*
X124103Y111192D01*
X124009Y111332D01*
X123899Y111458D01*
X123773Y111568D01*
X123633Y111662D01*
X123483Y111736D01*
X123324Y111790D01*
X123160Y111822D01*
X122992Y111834D01*
X122825Y111822D01*
X122660Y111790D01*
X122501Y111736D01*
X122351Y111662D01*
X122212Y111568D01*
X122085Y111458D01*
X121975Y111332D01*
X121882Y111192D01*
X121808Y111042D01*
X121754Y110883D01*
X121721Y110719D01*
X121710Y110551D01*
X121721Y110384D01*
X121754Y110219D01*
X121808Y110061D01*
X121882Y109910D01*
X121975Y109771D01*
X122085Y109644D01*
X122212Y109534D01*
X122021Y109060D01*
X121956Y108976D01*
X114580D01*
X114515Y109060D01*
X114324Y109534D01*
X114450Y109644D01*
X114561Y109771D01*
X114654Y109910D01*
X114728Y110061D01*
X114782Y110219D01*
X114815Y110384D01*
X114826Y110551D01*
X114815Y110719D01*
X114782Y110883D01*
X114728Y111042D01*
X114654Y111192D01*
X114561Y111332D01*
X114450Y111458D01*
X114324Y111568D01*
X114184Y111662D01*
X114034Y111736D01*
X113875Y111790D01*
X113711Y111822D01*
X113543Y111834D01*
X113376Y111822D01*
X113211Y111790D01*
X113053Y111736D01*
X112902Y111662D01*
X112763Y111568D01*
X112637Y111458D01*
X112526Y111332D01*
X112433Y111192D01*
X112359Y111042D01*
X112305Y110883D01*
X112272Y110719D01*
X112261Y110551D01*
X112272Y110384D01*
X112305Y110219D01*
X112359Y110061D01*
X112433Y109910D01*
X112526Y109771D01*
X112637Y109644D01*
X112763Y109534D01*
X112572Y109060D01*
X112507Y108976D01*
X105541D01*
X105409Y109170D01*
X105331Y109476D01*
X105368Y109518D01*
X105461Y109658D01*
X105535Y109808D01*
X105589Y109967D01*
X105622Y110132D01*
X105633Y110299D01*
X105622Y110466D01*
X105589Y110631D01*
X105535Y110790D01*
X105461Y110940D01*
X105368Y111080D01*
X105257Y111206D01*
X105131Y111316D01*
X104991Y111409D01*
X104841Y111484D01*
X104682Y111538D01*
X104518Y111570D01*
X104350Y111581D01*
X104183Y111570D01*
X104018Y111538D01*
X103860Y111484D01*
X103709Y111409D01*
X103570Y111316D01*
X103444Y111206D01*
X103413Y111171D01*
X103079Y111244D01*
X102913Y111352D01*
Y114488D01*
X103701Y115276D01*
X106601D01*
X106667Y115191D01*
X106857Y114718D01*
X106731Y114608D01*
X106621Y114481D01*
X106527Y114342D01*
X106453Y114191D01*
X106399Y114033D01*
X106367Y113868D01*
X106356Y113701D01*
X106367Y113533D01*
X106399Y113369D01*
X106453Y113210D01*
X106527Y113060D01*
X106621Y112920D01*
X106731Y112794D01*
X106857Y112683D01*
X106997Y112590D01*
X107147Y112516D01*
X107306Y112462D01*
X107470Y112429D01*
X107638Y112418D01*
X107805Y112429D01*
X107970Y112462D01*
X108128Y112516D01*
X108279Y112590D01*
X108418Y112683D01*
X108545Y112794D01*
X108655Y112920D01*
X108748Y113060D01*
X108823Y113210D01*
X108876Y113369D01*
X108909Y113533D01*
X108920Y113701D01*
X108909Y113868D01*
X108876Y114033D01*
X108823Y114191D01*
X108748Y114342D01*
X108655Y114481D01*
X108545Y114608D01*
X108418Y114718D01*
X108609Y115191D01*
X108675Y115276D01*
X109016D01*
X110197Y116457D01*
Y122756D01*
X108622Y124331D01*
X108330Y124774D01*
X108332Y124831D01*
X108418Y124888D01*
X108545Y124999D01*
X108655Y125125D01*
X108748Y125264D01*
X108823Y125415D01*
X108876Y125574D01*
X108909Y125738D01*
X108920Y125906D01*
X108909Y126073D01*
X108876Y126237D01*
X108823Y126396D01*
X108748Y126547D01*
X108655Y126686D01*
X108545Y126812D01*
X108418Y126923D01*
X108279Y127016D01*
X108128Y127090D01*
X107970Y127144D01*
X107805Y127177D01*
X107638Y127188D01*
X107470Y127177D01*
X107306Y127144D01*
X107147Y127090D01*
X106997Y127016D01*
X106857Y126923D01*
X106731Y126812D01*
X106621Y126686D01*
X106527Y126547D01*
X106453Y126396D01*
X106399Y126237D01*
X106367Y126073D01*
X106356Y125906D01*
X106367Y125738D01*
X106399Y125574D01*
X106453Y125415D01*
X106527Y125264D01*
X106621Y125125D01*
X106731Y124999D01*
X106857Y124888D01*
X106667Y124415D01*
X106601Y124331D01*
X105525D01*
X105459Y124415D01*
X105269Y124888D01*
X105395Y124999D01*
X105506Y125125D01*
X105599Y125264D01*
X105673Y125415D01*
X105727Y125574D01*
X105760Y125738D01*
X105771Y125906D01*
X105760Y126073D01*
X105727Y126237D01*
X105673Y126396D01*
X105599Y126547D01*
X105506Y126686D01*
X105395Y126812D01*
X105269Y126923D01*
X105129Y127016D01*
X104979Y127090D01*
X104820Y127144D01*
X104656Y127177D01*
X104488Y127188D01*
X104321Y127177D01*
X104156Y127144D01*
X103998Y127090D01*
X103847Y127016D01*
X103708Y126923D01*
X103582Y126812D01*
X103471Y126686D01*
X103378Y126547D01*
X103304Y126396D01*
X103250Y126237D01*
X103217Y126073D01*
X103206Y125906D01*
X103217Y125738D01*
X103250Y125574D01*
X103304Y125415D01*
X103378Y125264D01*
X103471Y125125D01*
X103582Y124999D01*
X103708Y124888D01*
X103517Y124415D01*
X103452Y124331D01*
X99226D01*
X99160Y124415D01*
X98970Y124888D01*
X99096Y124999D01*
X99206Y125125D01*
X99300Y125264D01*
X99374Y125415D01*
X99428Y125574D01*
X99460Y125738D01*
X99471Y125906D01*
X99460Y126073D01*
X99428Y126237D01*
X99374Y126396D01*
X99300Y126547D01*
X99206Y126686D01*
X99096Y126812D01*
X98970Y126923D01*
X98830Y127016D01*
X98680Y127090D01*
X98521Y127144D01*
X98356Y127177D01*
X98189Y127188D01*
X98022Y127177D01*
X97857Y127144D01*
X97698Y127090D01*
X97548Y127016D01*
X97408Y126923D01*
X97282Y126812D01*
X97172Y126686D01*
X96698Y126877D01*
X96614Y126942D01*
Y129449D01*
X97795Y130630D01*
X100302D01*
X100367Y130546D01*
X100558Y130072D01*
X100432Y129962D01*
X100321Y129836D01*
X100228Y129696D01*
X100154Y129546D01*
X100100Y129387D01*
X100067Y129223D01*
X100056Y129055D01*
X100067Y128888D01*
X100100Y128723D01*
X100154Y128564D01*
X100228Y128414D01*
X100321Y128275D01*
X100432Y128148D01*
X100558Y128038D01*
X100698Y127945D01*
X100848Y127871D01*
X101007Y127816D01*
X101171Y127784D01*
X101339Y127773D01*
X101506Y127784D01*
X101671Y127816D01*
X101829Y127871D01*
X101980Y127945D01*
X102119Y128038D01*
X102245Y128148D01*
X102356Y128275D01*
X102449Y128414D01*
X102523Y128564D01*
X102577Y128723D01*
X102610Y128888D01*
X102621Y129055D01*
X102610Y129223D01*
X102577Y129387D01*
X102523Y129546D01*
X102449Y129696D01*
X102356Y129836D01*
X102245Y129962D01*
X102119Y130072D01*
X102310Y130546D01*
X102375Y130630D01*
X106601D01*
X106667Y130546D01*
X106857Y130072D01*
X106731Y129962D01*
X106621Y129836D01*
X106527Y129696D01*
X106453Y129546D01*
X106399Y129387D01*
X106367Y129223D01*
X106356Y129055D01*
X106367Y128888D01*
X106399Y128723D01*
X106453Y128564D01*
X106527Y128414D01*
X106621Y128275D01*
X106731Y128148D01*
X106857Y128038D01*
X106997Y127945D01*
X107147Y127871D01*
X107306Y127816D01*
X107470Y127784D01*
X107638Y127773D01*
X107805Y127784D01*
X107970Y127816D01*
X108128Y127871D01*
X108279Y127945D01*
X108418Y128038D01*
X108545Y128148D01*
X108655Y128275D01*
X108748Y128414D01*
X108823Y128564D01*
X108876Y128723D01*
X108909Y128888D01*
X108920Y129055D01*
X108909Y129223D01*
X108876Y129387D01*
X108823Y129546D01*
X108748Y129696D01*
X108655Y129836D01*
X108545Y129962D01*
X108418Y130072D01*
X108609Y130546D01*
X108675Y130630D01*
X115656D01*
X115722Y130546D01*
X115912Y130072D01*
X115786Y129962D01*
X115676Y129836D01*
X115582Y129696D01*
X115508Y129546D01*
X115454Y129387D01*
X115422Y129223D01*
X115411Y129055D01*
X115422Y128888D01*
X115454Y128723D01*
X115508Y128564D01*
X115582Y128414D01*
X115676Y128275D01*
X115786Y128148D01*
X115912Y128038D01*
X116052Y127945D01*
X116202Y127871D01*
X116361Y127816D01*
X116525Y127784D01*
X116693Y127773D01*
X116860Y127784D01*
X117025Y127816D01*
X117184Y127871D01*
X117334Y127945D01*
X117473Y128038D01*
X117600Y128148D01*
X117710Y128275D01*
X117803Y128414D01*
X117878Y128564D01*
X117931Y128723D01*
X117964Y128888D01*
X117975Y129055D01*
X117964Y129223D01*
X117931Y129387D01*
X117878Y129546D01*
X117803Y129696D01*
X117710Y129836D01*
X117600Y129962D01*
X117473Y130072D01*
X117664Y130546D01*
X117730Y130630D01*
X125105D01*
X125170Y130546D01*
X125361Y130072D01*
X125235Y129962D01*
X125124Y129836D01*
X125031Y129696D01*
X124957Y129546D01*
X124903Y129387D01*
X124870Y129223D01*
X124859Y129055D01*
X124870Y128888D01*
X124903Y128723D01*
X124957Y128564D01*
X125031Y128414D01*
X125124Y128275D01*
X125235Y128148D01*
X125361Y128038D01*
X125501Y127945D01*
X125651Y127871D01*
X125810Y127816D01*
X125974Y127784D01*
X126142Y127773D01*
X126309Y127784D01*
X126474Y127816D01*
X126632Y127871D01*
X126783Y127945D01*
X126922Y128038D01*
X127048Y128148D01*
X127159Y128275D01*
X127252Y128414D01*
X127326Y128564D01*
X127380Y128723D01*
X127413Y128888D01*
X127424Y129055D01*
X127413Y129223D01*
X127380Y129387D01*
X127326Y129546D01*
X127252Y129696D01*
X127159Y129836D01*
X127048Y129962D01*
X126922Y130072D01*
X127113Y130546D01*
X127178Y130630D01*
X146654D01*
X148472Y128811D01*
D02*
G37*
G36*
X138740Y107402D02*
Y106220D01*
Y96575D01*
X138740Y82323D01*
X142501Y78562D01*
X142518Y78542D01*
X142539Y78524D01*
X149528Y71535D01*
X149528Y69016D01*
X134882Y54370D01*
X71654Y54370D01*
X67625Y58398D01*
X67616Y58442D01*
X67563Y58601D01*
X67488Y58751D01*
X67395Y58891D01*
X67285Y59017D01*
X67159Y59127D01*
X67019Y59221D01*
X66869Y59295D01*
X66710Y59349D01*
X66666Y59358D01*
X64488Y61535D01*
Y66969D01*
X65807Y68287D01*
X73110D01*
X75522Y70699D01*
Y96575D01*
X77476Y98106D01*
X87832Y108462D01*
X90459D01*
X90646Y108218D01*
X90739Y107962D01*
X90705Y107892D01*
X90651Y107734D01*
X90618Y107569D01*
X90608Y107402D01*
X90618Y107234D01*
X90651Y107070D01*
X90705Y106911D01*
X90779Y106760D01*
X90873Y106621D01*
X90983Y106495D01*
X91109Y106384D01*
X91249Y106291D01*
X91399Y106217D01*
X91558Y106163D01*
X91722Y106130D01*
X91890Y106119D01*
X92057Y106130D01*
X92222Y106163D01*
X92380Y106217D01*
X92531Y106291D01*
X92670Y106384D01*
X92796Y106495D01*
X92907Y106621D01*
X93000Y106760D01*
X93074Y106911D01*
X93128Y107070D01*
X93161Y107234D01*
X93172Y107402D01*
X93161Y107569D01*
X93128Y107734D01*
X93091Y107844D01*
X93262Y108193D01*
X93338Y108315D01*
X93529Y108342D01*
X93568Y108337D01*
X93757Y108044D01*
X93843Y107858D01*
X93801Y107734D01*
X93768Y107569D01*
X93757Y107402D01*
X93768Y107234D01*
X93801Y107070D01*
X93855Y106911D01*
X93929Y106760D01*
X94022Y106621D01*
X94133Y106495D01*
X94259Y106384D01*
X94398Y106291D01*
X94549Y106217D01*
X94708Y106163D01*
X94872Y106130D01*
X95039Y106119D01*
X95207Y106130D01*
X95371Y106163D01*
X95530Y106217D01*
X95680Y106291D01*
X95820Y106384D01*
X95946Y106495D01*
X96057Y106621D01*
X96150Y106760D01*
X96224Y106911D01*
X96278Y107070D01*
X96311Y107234D01*
X96322Y107402D01*
X96311Y107569D01*
X96278Y107734D01*
X96224Y107892D01*
X96150Y108043D01*
X96057Y108182D01*
X95946Y108308D01*
X95820Y108419D01*
X96011Y108892D01*
X96076Y108976D01*
X97555D01*
X97609Y108958D01*
X97773Y108925D01*
X97941Y108914D01*
X98108Y108925D01*
X98273Y108958D01*
X98327Y108976D01*
X101732D01*
X102520Y108189D01*
X102861D01*
X102873Y108179D01*
X103052Y107903D01*
X103124Y107689D01*
X103079Y107597D01*
X103025Y107438D01*
X102992Y107274D01*
X102981Y107106D01*
X102992Y106939D01*
X103025Y106774D01*
X103079Y106616D01*
X103153Y106465D01*
X103246Y106326D01*
X103357Y106200D01*
X103483Y106089D01*
X103623Y105996D01*
X103773Y105922D01*
X103828Y105903D01*
X103884Y105750D01*
X103900Y105634D01*
X103865Y105371D01*
X103847Y105362D01*
X103708Y105269D01*
X103582Y105159D01*
X103471Y105033D01*
X103378Y104893D01*
X103304Y104743D01*
X103250Y104584D01*
X103217Y104419D01*
X103206Y104252D01*
X103217Y104085D01*
X103250Y103920D01*
X103304Y103761D01*
X103378Y103611D01*
X103471Y103471D01*
X103582Y103345D01*
X103708Y103235D01*
X103847Y103141D01*
X103998Y103067D01*
X104156Y103013D01*
X104321Y102981D01*
X104488Y102970D01*
X104656Y102981D01*
X104820Y103013D01*
X104979Y103067D01*
X105129Y103141D01*
X105269Y103235D01*
X105395Y103345D01*
X105506Y103471D01*
X105599Y103611D01*
X105673Y103761D01*
X105727Y103920D01*
X105760Y104085D01*
X105771Y104252D01*
X105760Y104419D01*
X105727Y104584D01*
X105673Y104743D01*
X105599Y104893D01*
X105506Y105033D01*
X105395Y105159D01*
X105269Y105269D01*
X105129Y105362D01*
X104979Y105437D01*
X104923Y105455D01*
X104868Y105608D01*
X104852Y105724D01*
X104887Y105987D01*
X104905Y105996D01*
X105044Y106089D01*
X105171Y106200D01*
X105281Y106326D01*
X105374Y106465D01*
X105448Y106616D01*
X105502Y106774D01*
X105535Y106939D01*
X105546Y107106D01*
X105535Y107274D01*
X105502Y107438D01*
X105448Y107597D01*
X105403Y107689D01*
X105475Y107903D01*
X105654Y108179D01*
X105666Y108189D01*
X111948D01*
X112056Y108111D01*
X112286Y107762D01*
X112296Y107689D01*
X112272Y107569D01*
X112261Y107402D01*
X112272Y107234D01*
X112305Y107070D01*
X112359Y106911D01*
X112433Y106760D01*
X112526Y106621D01*
X112637Y106495D01*
X112763Y106384D01*
X112902Y106291D01*
X113053Y106217D01*
X113211Y106163D01*
X113376Y106130D01*
X113543Y106119D01*
X113711Y106130D01*
X113875Y106163D01*
X114034Y106217D01*
X114184Y106291D01*
X114324Y106384D01*
X114450Y106495D01*
X114561Y106621D01*
X114654Y106760D01*
X114728Y106911D01*
X114782Y107070D01*
X114815Y107234D01*
X114826Y107402D01*
X114815Y107569D01*
X114791Y107689D01*
X114801Y107762D01*
X115025Y108102D01*
X115510Y108156D01*
X115611Y108034D01*
X115732Y107689D01*
X115712Y107660D01*
X115638Y107510D01*
X115584Y107351D01*
X115552Y107187D01*
X115541Y107019D01*
X115552Y106852D01*
X115584Y106687D01*
X115638Y106529D01*
X115712Y106378D01*
X115806Y106239D01*
X115916Y106113D01*
X116042Y106002D01*
X116182Y105909D01*
X116332Y105835D01*
X116491Y105781D01*
X116656Y105748D01*
X116823Y105737D01*
X116990Y105748D01*
X117155Y105781D01*
X117314Y105835D01*
X117464Y105909D01*
X117604Y106002D01*
X117730Y106113D01*
X117840Y106239D01*
X117933Y106378D01*
X118008Y106529D01*
X118061Y106687D01*
X118094Y106852D01*
X118105Y107019D01*
X118094Y107187D01*
X118061Y107351D01*
X118008Y107510D01*
X117933Y107660D01*
X117914Y107689D01*
X118035Y108034D01*
X118164Y108189D01*
X118772D01*
X118835Y108119D01*
X118994Y107694D01*
X118901Y107554D01*
X118827Y107404D01*
X118773Y107245D01*
X118740Y107081D01*
X118729Y106913D01*
X118740Y106746D01*
X118773Y106581D01*
X118827Y106423D01*
X118901Y106272D01*
X118994Y106133D01*
X119105Y106007D01*
X119231Y105896D01*
X119371Y105803D01*
X119521Y105729D01*
X119680Y105675D01*
X119844Y105642D01*
X120012Y105631D01*
X120179Y105642D01*
X120344Y105675D01*
X120502Y105729D01*
X120653Y105803D01*
X120792Y105896D01*
X120919Y106007D01*
X121029Y106133D01*
X121122Y106272D01*
X121196Y106423D01*
X121250Y106581D01*
X121283Y106746D01*
X121294Y106913D01*
X121283Y107081D01*
X121250Y107245D01*
X121196Y107404D01*
X121122Y107554D01*
X121029Y107694D01*
X121189Y108119D01*
X121252Y108189D01*
X130669D01*
X132835Y110354D01*
X135787D01*
X138740Y107402D01*
D02*
G37*
G36*
X127357Y136013D02*
X127294Y135947D01*
X127237Y135880D01*
X127188Y135815D01*
X127145Y135749D01*
X127108Y135684D01*
X127079Y135619D01*
X127056Y135555D01*
X127040Y135491D01*
X127030Y135427D01*
X127027Y135363D01*
X126151Y136240D01*
X126214Y136243D01*
X126278Y136252D01*
X126342Y136268D01*
X126407Y136291D01*
X126471Y136321D01*
X126537Y136357D01*
X126602Y136400D01*
X126668Y136450D01*
X126734Y136506D01*
X126800Y136570D01*
X127357Y136013D01*
D02*
G37*
G36*
X197107Y33473D02*
X197292Y33360D01*
X197510Y33260D01*
X197761Y33175D01*
X198046Y33103D01*
X198364Y33045D01*
X198715Y33001D01*
X199519Y32955D01*
X199970Y32953D01*
X197047Y30029D01*
X197045Y30481D01*
X196999Y31285D01*
X196955Y31636D01*
X196897Y31955D01*
X196825Y32239D01*
X196740Y32490D01*
X196640Y32708D01*
X196527Y32893D01*
X196400Y33044D01*
X196956Y33600D01*
X197107Y33473D01*
D02*
G37*
G36*
X13600Y33044D02*
X13473Y32893D01*
X13360Y32708D01*
X13260Y32490D01*
X13175Y32239D01*
X13103Y31955D01*
X13045Y31636D01*
X13001Y31285D01*
X12955Y30481D01*
X12953Y30029D01*
X10029Y32953D01*
X10481Y32955D01*
X11285Y33001D01*
X11636Y33045D01*
X11954Y33103D01*
X12239Y33175D01*
X12490Y33260D01*
X12708Y33360D01*
X12893Y33473D01*
X13044Y33600D01*
X13600Y33044D01*
D02*
G37*
G36*
X197222Y23340D02*
X197513Y23093D01*
X197641Y23003D01*
X197758Y22935D01*
X197864Y22889D01*
X197958Y22865D01*
X198041Y22864D01*
X198113Y22885D01*
X198173Y22929D01*
X197071Y21827D01*
X197115Y21887D01*
X197136Y21959D01*
X197134Y22042D01*
X197111Y22136D01*
X197065Y22242D01*
X196997Y22359D01*
X196907Y22487D01*
X196794Y22627D01*
X196502Y22941D01*
X197059Y23497D01*
X197222Y23340D01*
D02*
G37*
G36*
X95030Y109665D02*
X94915Y109664D01*
X94706Y109646D01*
X94612Y109630D01*
X94525Y109608D01*
X94444Y109582D01*
X94371Y109550D01*
X94304Y109514D01*
X94245Y109472D01*
X94192Y109425D01*
X93914Y109704D01*
X93960Y109757D01*
X94002Y109816D01*
X94038Y109883D01*
X94070Y109956D01*
X94097Y110036D01*
X94118Y110124D01*
X94134Y110218D01*
X94146Y110319D01*
X94152Y110427D01*
X94154Y110542D01*
X95030Y109665D01*
D02*
G37*
G36*
X13600Y23044D02*
X13473Y22893D01*
X13360Y22708D01*
X13260Y22490D01*
X13175Y22239D01*
X13103Y21955D01*
X13045Y21636D01*
X13001Y21285D01*
X12955Y20481D01*
X12953Y20030D01*
X10029Y22953D01*
X10481Y22955D01*
X11285Y23001D01*
X11636Y23045D01*
X11954Y23103D01*
X12239Y23175D01*
X12490Y23260D01*
X12708Y23360D01*
X12893Y23473D01*
X13044Y23600D01*
X13600Y23044D01*
D02*
G37*
G36*
X74961Y110961D02*
X74904Y110899D01*
X74855Y110834D01*
X74813Y110767D01*
X74779Y110698D01*
X74752Y110626D01*
X74733Y110551D01*
X74721Y110474D01*
X74717Y110394D01*
X74721Y110311D01*
X74731Y110227D01*
X73728Y110955D01*
X73818Y110971D01*
X73905Y110991D01*
X73988Y111015D01*
X74068Y111044D01*
X74144Y111077D01*
X74217Y111115D01*
X74286Y111156D01*
X74352Y111202D01*
X74414Y111253D01*
X74472Y111307D01*
X74961Y110961D01*
D02*
G37*
G36*
X97394Y136433D02*
X97454Y136392D01*
X97520Y136355D01*
X97594Y136324D01*
X97674Y136297D01*
X97761Y136276D01*
X97856Y136259D01*
X97957Y136248D01*
X98065Y136241D01*
X98180Y136240D01*
X97303Y135363D01*
X97302Y135478D01*
X97284Y135687D01*
X97268Y135782D01*
X97246Y135869D01*
X97220Y135950D01*
X97188Y136023D01*
X97151Y136089D01*
X97110Y136149D01*
X97063Y136202D01*
X97342Y136480D01*
X97394Y136433D01*
D02*
G37*
G36*
X101330Y134468D02*
X101215Y134467D01*
X101005Y134449D01*
X100911Y134433D01*
X100824Y134412D01*
X100743Y134385D01*
X100670Y134353D01*
X100603Y134317D01*
X100544Y134275D01*
X100491Y134229D01*
X100213Y134507D01*
X100259Y134560D01*
X100301Y134619D01*
X100338Y134686D01*
X100369Y134759D01*
X100396Y134839D01*
X100417Y134927D01*
X100434Y135021D01*
X100445Y135122D01*
X100452Y135230D01*
X100453Y135345D01*
X101330Y134468D01*
D02*
G37*
G36*
X77895Y110230D02*
X77913Y110021D01*
X77929Y109927D01*
X77951Y109839D01*
X77977Y109759D01*
X78009Y109686D01*
X78045Y109619D01*
X78087Y109560D01*
X78133Y109507D01*
X77855Y109229D01*
X77802Y109275D01*
X77743Y109317D01*
X77676Y109353D01*
X77603Y109385D01*
X77522Y109411D01*
X77435Y109433D01*
X77341Y109449D01*
X77240Y109461D01*
X77132Y109467D01*
X77017Y109468D01*
X77894Y110345D01*
X77895Y110230D01*
D02*
G37*
G36*
X97327Y132000D02*
X97325Y132001D01*
X97319Y132002D01*
X97308Y132004D01*
X97276Y132006D01*
X97127Y132008D01*
Y132402D01*
X97327Y132410D01*
Y132000D01*
D02*
G37*
G36*
X126821Y132782D02*
X126873Y132743D01*
X126930Y132709D01*
X126992Y132680D01*
X127058Y132655D01*
X127130Y132635D01*
X127207Y132619D01*
X127288Y132607D01*
X127375Y132601D01*
X127467Y132598D01*
Y131811D01*
X127375Y131809D01*
X127288Y131802D01*
X127207Y131791D01*
X127130Y131775D01*
X127058Y131754D01*
X126992Y131729D01*
X126930Y131700D01*
X126873Y131666D01*
X126821Y131628D01*
X126774Y131585D01*
Y132825D01*
X126821Y132782D01*
D02*
G37*
G36*
X88731Y112815D02*
X88642Y112813D01*
X88556Y112805D01*
X88473Y112791D01*
X88393Y112771D01*
X88317Y112745D01*
X88244Y112713D01*
X88173Y112675D01*
X88107Y112631D01*
X88043Y112581D01*
X87983Y112526D01*
X87565Y112943D01*
X87621Y113004D01*
X87671Y113067D01*
X87714Y113134D01*
X87752Y113204D01*
X87784Y113277D01*
X87810Y113354D01*
X87830Y113434D01*
X87844Y113516D01*
X87852Y113603D01*
X87854Y113692D01*
X88731Y112815D01*
D02*
G37*
G36*
X100544Y142733D02*
X100603Y142691D01*
X100670Y142654D01*
X100743Y142623D01*
X100824Y142596D01*
X100911Y142575D01*
X101005Y142558D01*
X101107Y142547D01*
X101215Y142541D01*
X101330Y142539D01*
X100453Y141662D01*
X100452Y141777D01*
X100434Y141987D01*
X100417Y142081D01*
X100396Y142168D01*
X100369Y142249D01*
X100338Y142322D01*
X100301Y142389D01*
X100259Y142448D01*
X100213Y142501D01*
X100491Y142779D01*
X100544Y142733D01*
D02*
G37*
G36*
X100477Y138299D02*
X100475Y138300D01*
X100468Y138302D01*
X100458Y138303D01*
X100426Y138305D01*
X100277Y138307D01*
Y138701D01*
X100477Y138709D01*
Y138299D01*
D02*
G37*
G36*
X97327Y138299D02*
X97325Y138300D01*
X97319Y138302D01*
X97308Y138303D01*
X97276Y138305D01*
X97127Y138307D01*
Y138701D01*
X97327Y138709D01*
Y138299D01*
D02*
G37*
G36*
X197107Y43473D02*
X197292Y43360D01*
X197510Y43260D01*
X197761Y43175D01*
X198046Y43103D01*
X198364Y43045D01*
X198715Y43001D01*
X199519Y42955D01*
X199970Y42953D01*
X197047Y40029D01*
X197045Y40481D01*
X196999Y41285D01*
X196955Y41636D01*
X196897Y41954D01*
X196825Y42239D01*
X196740Y42490D01*
X196640Y42708D01*
X196527Y42893D01*
X196400Y43044D01*
X196956Y43600D01*
X197107Y43473D01*
D02*
G37*
G36*
X137668Y231713D02*
X137605Y231710D01*
X137541Y231700D01*
X137477Y231684D01*
X137412Y231661D01*
X137347Y231632D01*
X137282Y231595D01*
X137217Y231553D01*
X137151Y231503D01*
X137085Y231446D01*
X137019Y231383D01*
X136462Y231940D01*
X136525Y232006D01*
X136582Y232072D01*
X136631Y232138D01*
X136674Y232204D01*
X136711Y232269D01*
X136740Y232333D01*
X136763Y232398D01*
X136779Y232462D01*
X136789Y232526D01*
X136791Y232590D01*
X137668Y231713D01*
D02*
G37*
G36*
X124207Y132863D02*
X124144Y132797D01*
X124088Y132731D01*
X124038Y132665D01*
X123995Y132600D01*
X123959Y132535D01*
X123929Y132470D01*
X123906Y132405D01*
X123890Y132341D01*
X123881Y132277D01*
X123878Y132214D01*
X123001Y133090D01*
X123064Y133093D01*
X123128Y133103D01*
X123193Y133119D01*
X123257Y133142D01*
X123322Y133171D01*
X123387Y133208D01*
X123452Y133251D01*
X123518Y133300D01*
X123584Y133357D01*
X123651Y133420D01*
X124207Y132863D01*
D02*
G37*
%LPC*%
G36*
X119843Y114983D02*
X119675Y114972D01*
X119511Y114939D01*
X119352Y114885D01*
X119201Y114811D01*
X119062Y114718D01*
X118936Y114608D01*
X118825Y114481D01*
X118732Y114342D01*
X118658Y114191D01*
X118604Y114033D01*
X118571Y113868D01*
X118560Y113701D01*
X118571Y113533D01*
X118604Y113369D01*
X118658Y113210D01*
X118732Y113060D01*
X118825Y112920D01*
X118936Y112794D01*
X119062Y112683D01*
X119177Y112607D01*
X119217Y112388D01*
X119179Y112085D01*
X119170Y112061D01*
X119119Y112036D01*
X118979Y111943D01*
X118853Y111832D01*
X118743Y111706D01*
X118649Y111567D01*
X118575Y111416D01*
X118521Y111257D01*
X118489Y111093D01*
X118477Y110925D01*
X118489Y110758D01*
X118521Y110594D01*
X118575Y110435D01*
X118649Y110284D01*
X118743Y110145D01*
X118853Y110019D01*
X118979Y109908D01*
X119119Y109815D01*
X119269Y109741D01*
X119428Y109687D01*
X119592Y109654D01*
X119760Y109643D01*
X119927Y109654D01*
X120092Y109687D01*
X120250Y109741D01*
X120401Y109815D01*
X120540Y109908D01*
X120667Y110019D01*
X120777Y110145D01*
X120870Y110284D01*
X120944Y110435D01*
X120998Y110594D01*
X121031Y110758D01*
X121042Y110925D01*
X121031Y111093D01*
X120998Y111257D01*
X120944Y111416D01*
X120870Y111567D01*
X120777Y111706D01*
X120667Y111832D01*
X120540Y111943D01*
X120426Y112020D01*
X120385Y112238D01*
X120423Y112541D01*
X120432Y112565D01*
X120484Y112590D01*
X120623Y112683D01*
X120749Y112794D01*
X120860Y112920D01*
X120953Y113060D01*
X121027Y113210D01*
X121081Y113369D01*
X121114Y113533D01*
X121125Y113701D01*
X121114Y113868D01*
X121081Y114033D01*
X121027Y114191D01*
X120953Y114342D01*
X120860Y114481D01*
X120749Y114608D01*
X120623Y114718D01*
X120484Y114811D01*
X120333Y114885D01*
X120174Y114939D01*
X120010Y114972D01*
X119843Y114983D01*
D02*
G37*
G36*
X116693D02*
X116525Y114972D01*
X116361Y114939D01*
X116202Y114885D01*
X116052Y114811D01*
X115912Y114718D01*
X115786Y114608D01*
X115676Y114481D01*
X115582Y114342D01*
X115508Y114191D01*
X115454Y114033D01*
X115422Y113868D01*
X115411Y113701D01*
X115422Y113533D01*
X115454Y113369D01*
X115508Y113210D01*
X115582Y113060D01*
X115676Y112920D01*
X115786Y112794D01*
X115912Y112683D01*
X116052Y112590D01*
X116202Y112516D01*
X116361Y112462D01*
X116525Y112429D01*
X116693Y112418D01*
X116860Y112429D01*
X117025Y112462D01*
X117184Y112516D01*
X117334Y112590D01*
X117473Y112683D01*
X117600Y112794D01*
X117710Y112920D01*
X117803Y113060D01*
X117878Y113210D01*
X117931Y113369D01*
X117964Y113533D01*
X117975Y113701D01*
X117964Y113868D01*
X117931Y114033D01*
X117878Y114191D01*
X117803Y114342D01*
X117710Y114481D01*
X117600Y114608D01*
X117473Y114718D01*
X117334Y114811D01*
X117184Y114885D01*
X117025Y114939D01*
X116860Y114972D01*
X116693Y114983D01*
D02*
G37*
G36*
X113543D02*
X113376Y114972D01*
X113211Y114939D01*
X113053Y114885D01*
X112902Y114811D01*
X112763Y114718D01*
X112637Y114608D01*
X112526Y114481D01*
X112433Y114342D01*
X112359Y114191D01*
X112305Y114033D01*
X112272Y113868D01*
X112261Y113701D01*
X112272Y113533D01*
X112305Y113369D01*
X112359Y113210D01*
X112433Y113060D01*
X112526Y112920D01*
X112637Y112794D01*
X112763Y112683D01*
X112902Y112590D01*
X113053Y112516D01*
X113211Y112462D01*
X113376Y112429D01*
X113543Y112418D01*
X113711Y112429D01*
X113875Y112462D01*
X114034Y112516D01*
X114184Y112590D01*
X114324Y112683D01*
X114450Y112794D01*
X114561Y112920D01*
X114654Y113060D01*
X114728Y113210D01*
X114782Y113369D01*
X114815Y113533D01*
X114826Y113701D01*
X114815Y113868D01*
X114782Y114033D01*
X114728Y114191D01*
X114654Y114342D01*
X114561Y114481D01*
X114450Y114608D01*
X114324Y114718D01*
X114184Y114811D01*
X114034Y114885D01*
X113875Y114939D01*
X113711Y114972D01*
X113543Y114983D01*
D02*
G37*
G36*
X116693Y118133D02*
X116525Y118122D01*
X116361Y118089D01*
X116202Y118035D01*
X116052Y117961D01*
X115912Y117868D01*
X115786Y117757D01*
X115676Y117631D01*
X115582Y117491D01*
X115508Y117341D01*
X115454Y117182D01*
X115422Y117018D01*
X115411Y116850D01*
X115422Y116683D01*
X115454Y116518D01*
X115508Y116360D01*
X115582Y116209D01*
X115676Y116070D01*
X115786Y115944D01*
X115912Y115833D01*
X116052Y115740D01*
X116202Y115666D01*
X116361Y115612D01*
X116525Y115579D01*
X116693Y115568D01*
X116860Y115579D01*
X117025Y115612D01*
X117184Y115666D01*
X117334Y115740D01*
X117473Y115833D01*
X117600Y115944D01*
X117710Y116070D01*
X117803Y116209D01*
X117878Y116360D01*
X117931Y116518D01*
X117964Y116683D01*
X117975Y116850D01*
X117964Y117018D01*
X117931Y117182D01*
X117878Y117341D01*
X117803Y117491D01*
X117710Y117631D01*
X117600Y117757D01*
X117473Y117868D01*
X117334Y117961D01*
X117184Y118035D01*
X117025Y118089D01*
X116860Y118122D01*
X116693Y118133D01*
D02*
G37*
G36*
X132835Y125810D02*
X132667Y125799D01*
X132503Y125766D01*
X132344Y125712D01*
X132194Y125638D01*
X132054Y125545D01*
X131928Y125434D01*
X131817Y125308D01*
X131724Y125169D01*
X131650Y125018D01*
X131596Y124859D01*
X131563Y124695D01*
X131552Y124528D01*
X131563Y124360D01*
X131596Y124196D01*
X131650Y124037D01*
X131724Y123886D01*
X131817Y123747D01*
X131928Y123621D01*
X132054Y123510D01*
X132194Y123417D01*
X132344Y123343D01*
X132503Y123289D01*
X132667Y123256D01*
X132835Y123245D01*
X133002Y123256D01*
X133167Y123289D01*
X133325Y123343D01*
X133476Y123417D01*
X133615Y123510D01*
X133741Y123621D01*
X133852Y123747D01*
X133945Y123886D01*
X134019Y124037D01*
X134073Y124196D01*
X134106Y124360D01*
X134117Y124528D01*
X134106Y124695D01*
X134073Y124859D01*
X134019Y125018D01*
X133945Y125169D01*
X133852Y125308D01*
X133741Y125434D01*
X133615Y125545D01*
X133476Y125638D01*
X133325Y125712D01*
X133167Y125766D01*
X133002Y125799D01*
X132835Y125810D01*
D02*
G37*
G36*
X122992Y121282D02*
X122825Y121271D01*
X122660Y121239D01*
X122501Y121185D01*
X122351Y121110D01*
X122212Y121017D01*
X122085Y120907D01*
X121975Y120781D01*
X121882Y120641D01*
X121808Y120491D01*
X121754Y120332D01*
X121721Y120167D01*
X121710Y120000D01*
X121721Y119833D01*
X121754Y119668D01*
X121808Y119509D01*
X121882Y119359D01*
X121975Y119219D01*
X122085Y119093D01*
X122212Y118983D01*
X122351Y118889D01*
X122501Y118815D01*
X122660Y118761D01*
X122825Y118729D01*
X122992Y118718D01*
X123160Y118729D01*
X123324Y118761D01*
X123483Y118815D01*
X123633Y118889D01*
X123773Y118983D01*
X123899Y119093D01*
X124009Y119219D01*
X124103Y119359D01*
X124177Y119509D01*
X124231Y119668D01*
X124263Y119833D01*
X124274Y120000D01*
X124263Y120167D01*
X124231Y120332D01*
X124177Y120491D01*
X124103Y120641D01*
X124009Y120781D01*
X123899Y120907D01*
X123773Y121017D01*
X123633Y121110D01*
X123483Y121185D01*
X123324Y121239D01*
X123160Y121271D01*
X122992Y121282D01*
D02*
G37*
G36*
X113543Y127188D02*
X113376Y127177D01*
X113211Y127144D01*
X113053Y127090D01*
X112902Y127016D01*
X112763Y126923D01*
X112637Y126812D01*
X112526Y126686D01*
X112433Y126547D01*
X112359Y126396D01*
X112305Y126237D01*
X112272Y126073D01*
X112261Y125906D01*
X112272Y125738D01*
X112305Y125574D01*
X112359Y125415D01*
X112433Y125264D01*
X112526Y125125D01*
X112637Y124999D01*
X112763Y124888D01*
X112902Y124795D01*
X113053Y124721D01*
X113211Y124667D01*
X113376Y124634D01*
X113543Y124623D01*
X113711Y124634D01*
X113875Y124667D01*
X114034Y124721D01*
X114184Y124795D01*
X114324Y124888D01*
X114450Y124999D01*
X114561Y125125D01*
X114654Y125264D01*
X114728Y125415D01*
X114782Y125574D01*
X114815Y125738D01*
X114826Y125906D01*
X114815Y126073D01*
X114782Y126237D01*
X114728Y126396D01*
X114654Y126547D01*
X114561Y126686D01*
X114450Y126812D01*
X114324Y126923D01*
X114184Y127016D01*
X114034Y127090D01*
X113875Y127144D01*
X113711Y127177D01*
X113543Y127188D01*
D02*
G37*
G36*
X119843D02*
X119675Y127177D01*
X119511Y127144D01*
X119352Y127090D01*
X119201Y127016D01*
X119062Y126923D01*
X118936Y126812D01*
X118825Y126686D01*
X118732Y126547D01*
X118658Y126396D01*
X118604Y126237D01*
X118571Y126073D01*
X118560Y125906D01*
X118571Y125738D01*
X118604Y125574D01*
X118658Y125415D01*
X118732Y125264D01*
X118825Y125125D01*
X118936Y124999D01*
X119062Y124888D01*
X119201Y124795D01*
X119352Y124721D01*
X119511Y124667D01*
X119675Y124634D01*
X119843Y124623D01*
X120010Y124634D01*
X120174Y124667D01*
X120333Y124721D01*
X120484Y124795D01*
X120623Y124888D01*
X120749Y124999D01*
X120860Y125125D01*
X120953Y125264D01*
X121027Y125415D01*
X121081Y125574D01*
X121114Y125738D01*
X121125Y125906D01*
X121114Y126073D01*
X121081Y126237D01*
X121027Y126396D01*
X120953Y126547D01*
X120860Y126686D01*
X120749Y126812D01*
X120623Y126923D01*
X120484Y127016D01*
X120333Y127090D01*
X120174Y127144D01*
X120010Y127177D01*
X119843Y127188D01*
D02*
G37*
G36*
X116693D02*
X116525Y127177D01*
X116361Y127144D01*
X116202Y127090D01*
X116052Y127016D01*
X115912Y126923D01*
X115786Y126812D01*
X115676Y126686D01*
X115582Y126547D01*
X115508Y126396D01*
X115454Y126237D01*
X115422Y126073D01*
X115411Y125906D01*
X115422Y125738D01*
X115454Y125574D01*
X115508Y125415D01*
X115582Y125264D01*
X115676Y125125D01*
X115786Y124999D01*
X115912Y124888D01*
X116052Y124795D01*
X116202Y124721D01*
X116361Y124667D01*
X116525Y124634D01*
X116693Y124623D01*
X116860Y124634D01*
X117025Y124667D01*
X117184Y124721D01*
X117334Y124795D01*
X117473Y124888D01*
X117600Y124999D01*
X117710Y125125D01*
X117803Y125264D01*
X117878Y125415D01*
X117931Y125574D01*
X117964Y125738D01*
X117975Y125906D01*
X117964Y126073D01*
X117931Y126237D01*
X117878Y126396D01*
X117803Y126547D01*
X117710Y126686D01*
X117600Y126812D01*
X117473Y126923D01*
X117334Y127016D01*
X117184Y127090D01*
X117025Y127144D01*
X116860Y127177D01*
X116693Y127188D01*
D02*
G37*
G36*
X119843Y121282D02*
X119675Y121271D01*
X119511Y121239D01*
X119352Y121185D01*
X119201Y121110D01*
X119062Y121017D01*
X118936Y120907D01*
X118825Y120781D01*
X118732Y120641D01*
X118658Y120491D01*
X118604Y120332D01*
X118571Y120167D01*
X118560Y120000D01*
X118571Y119833D01*
X118604Y119668D01*
X118658Y119509D01*
X118732Y119359D01*
X118825Y119219D01*
X118936Y119093D01*
X119062Y118983D01*
X119201Y118889D01*
X119352Y118815D01*
X119511Y118761D01*
X119675Y118729D01*
X119843Y118718D01*
X120010Y118729D01*
X120174Y118761D01*
X120333Y118815D01*
X120484Y118889D01*
X120623Y118983D01*
X120749Y119093D01*
X120860Y119219D01*
X120953Y119359D01*
X121027Y119509D01*
X121081Y119668D01*
X121114Y119833D01*
X121125Y120000D01*
X121114Y120167D01*
X121081Y120332D01*
X121027Y120491D01*
X120953Y120641D01*
X120860Y120781D01*
X120749Y120907D01*
X120623Y121017D01*
X120484Y121110D01*
X120333Y121185D01*
X120174Y121239D01*
X120010Y121271D01*
X119843Y121282D01*
D02*
G37*
G36*
X122992Y118133D02*
X122825Y118122D01*
X122660Y118089D01*
X122501Y118035D01*
X122351Y117961D01*
X122212Y117868D01*
X122085Y117757D01*
X121975Y117631D01*
X121882Y117491D01*
X121808Y117341D01*
X121754Y117182D01*
X121721Y117018D01*
X121710Y116850D01*
X121721Y116683D01*
X121754Y116518D01*
X121808Y116360D01*
X121882Y116209D01*
X121975Y116070D01*
X122085Y115944D01*
X122212Y115833D01*
X122351Y115740D01*
X122501Y115666D01*
X122660Y115612D01*
X122825Y115579D01*
X122992Y115568D01*
X123160Y115579D01*
X123324Y115612D01*
X123483Y115666D01*
X123633Y115740D01*
X123773Y115833D01*
X123899Y115944D01*
X124009Y116070D01*
X124103Y116209D01*
X124177Y116360D01*
X124231Y116518D01*
X124263Y116683D01*
X124274Y116850D01*
X124263Y117018D01*
X124231Y117182D01*
X124177Y117341D01*
X124103Y117491D01*
X124009Y117631D01*
X123899Y117757D01*
X123773Y117868D01*
X123633Y117961D01*
X123483Y118035D01*
X123324Y118089D01*
X123160Y118122D01*
X122992Y118133D01*
D02*
G37*
G36*
X119843D02*
X119675Y118122D01*
X119511Y118089D01*
X119352Y118035D01*
X119201Y117961D01*
X119062Y117868D01*
X118936Y117757D01*
X118825Y117631D01*
X118732Y117491D01*
X118658Y117341D01*
X118604Y117182D01*
X118571Y117018D01*
X118560Y116850D01*
X118571Y116683D01*
X118604Y116518D01*
X118658Y116360D01*
X118732Y116209D01*
X118825Y116070D01*
X118936Y115944D01*
X119062Y115833D01*
X119201Y115740D01*
X119352Y115666D01*
X119511Y115612D01*
X119675Y115579D01*
X119843Y115568D01*
X120010Y115579D01*
X120174Y115612D01*
X120333Y115666D01*
X120484Y115740D01*
X120623Y115833D01*
X120749Y115944D01*
X120860Y116070D01*
X120953Y116209D01*
X121027Y116360D01*
X121081Y116518D01*
X121114Y116683D01*
X121125Y116850D01*
X121114Y117018D01*
X121081Y117182D01*
X121027Y117341D01*
X120953Y117491D01*
X120860Y117631D01*
X120749Y117757D01*
X120623Y117868D01*
X120484Y117961D01*
X120333Y118035D01*
X120174Y118089D01*
X120010Y118122D01*
X119843Y118133D01*
D02*
G37*
G36*
X126535Y120889D02*
X126368Y120878D01*
X126204Y120845D01*
X126045Y120791D01*
X125894Y120717D01*
X125755Y120624D01*
X125629Y120513D01*
X125518Y120387D01*
X125425Y120247D01*
X125351Y120097D01*
X125297Y119938D01*
X125264Y119774D01*
X125253Y119606D01*
X125264Y119439D01*
X125297Y119274D01*
X125351Y119116D01*
X125425Y118965D01*
X125518Y118826D01*
X125629Y118700D01*
X125755Y118589D01*
X125894Y118496D01*
X126045Y118422D01*
X126204Y118368D01*
X126368Y118335D01*
X126535Y118324D01*
X126703Y118335D01*
X126867Y118368D01*
X127026Y118422D01*
X127177Y118496D01*
X127316Y118589D01*
X127442Y118700D01*
X127553Y118826D01*
X127646Y118965D01*
X127720Y119116D01*
X127774Y119274D01*
X127807Y119439D01*
X127818Y119606D01*
X127807Y119774D01*
X127774Y119938D01*
X127720Y120097D01*
X127646Y120247D01*
X127553Y120387D01*
X127442Y120513D01*
X127316Y120624D01*
X127177Y120717D01*
X127026Y120791D01*
X126867Y120845D01*
X126703Y120878D01*
X126535Y120889D01*
D02*
G37*
G36*
X116693Y121282D02*
X116525Y121271D01*
X116361Y121239D01*
X116202Y121185D01*
X116052Y121110D01*
X115912Y121017D01*
X115786Y120907D01*
X115676Y120781D01*
X115582Y120641D01*
X115508Y120491D01*
X115454Y120332D01*
X115422Y120167D01*
X115411Y120000D01*
X115422Y119833D01*
X115454Y119668D01*
X115508Y119509D01*
X115582Y119359D01*
X115676Y119219D01*
X115786Y119093D01*
X115912Y118983D01*
X116052Y118889D01*
X116202Y118815D01*
X116361Y118761D01*
X116525Y118729D01*
X116693Y118718D01*
X116860Y118729D01*
X117025Y118761D01*
X117184Y118815D01*
X117334Y118889D01*
X117473Y118983D01*
X117600Y119093D01*
X117710Y119219D01*
X117803Y119359D01*
X117878Y119509D01*
X117931Y119668D01*
X117964Y119833D01*
X117975Y120000D01*
X117964Y120167D01*
X117931Y120332D01*
X117878Y120491D01*
X117803Y120641D01*
X117710Y120781D01*
X117600Y120907D01*
X117473Y121017D01*
X117334Y121110D01*
X117184Y121185D01*
X117025Y121239D01*
X116860Y121271D01*
X116693Y121282D01*
D02*
G37*
G36*
X113543D02*
X113376Y121271D01*
X113211Y121239D01*
X113053Y121185D01*
X112902Y121110D01*
X112763Y121017D01*
X112637Y120907D01*
X112526Y120781D01*
X112433Y120641D01*
X112359Y120491D01*
X112305Y120332D01*
X112272Y120167D01*
X112261Y120000D01*
X112272Y119833D01*
X112305Y119668D01*
X112359Y119509D01*
X112433Y119359D01*
X112526Y119219D01*
X112637Y119093D01*
X112763Y118983D01*
X112902Y118889D01*
X113053Y118815D01*
X113211Y118761D01*
X113376Y118729D01*
X113543Y118718D01*
X113711Y118729D01*
X113875Y118761D01*
X114034Y118815D01*
X114184Y118889D01*
X114324Y118983D01*
X114450Y119093D01*
X114561Y119219D01*
X114654Y119359D01*
X114728Y119509D01*
X114782Y119668D01*
X114815Y119833D01*
X114826Y120000D01*
X114815Y120167D01*
X114782Y120332D01*
X114728Y120491D01*
X114654Y120641D01*
X114561Y120781D01*
X114450Y120907D01*
X114324Y121017D01*
X114184Y121110D01*
X114034Y121185D01*
X113875Y121239D01*
X113711Y121271D01*
X113543Y121282D01*
D02*
G37*
G36*
X94835Y67011D02*
X94667Y67000D01*
X94503Y66967D01*
X94344Y66913D01*
X94194Y66839D01*
X94054Y66746D01*
X93928Y66635D01*
X93817Y66509D01*
X93580Y66386D01*
X93201Y66430D01*
X93125Y66468D01*
X92966Y66522D01*
X92801Y66555D01*
X92634Y66566D01*
X92466Y66555D01*
X92302Y66522D01*
X92143Y66468D01*
X91993Y66394D01*
X91853Y66301D01*
X91727Y66190D01*
X91617Y66064D01*
X91523Y65925D01*
X91449Y65774D01*
X91395Y65615D01*
X91363Y65451D01*
X91352Y65284D01*
X91354Y65244D01*
X91261Y65088D01*
X91150Y64980D01*
X90927Y64838D01*
X90760Y64849D01*
X90592Y64838D01*
X90428Y64806D01*
X90269Y64752D01*
X90119Y64677D01*
X89979Y64584D01*
X89853Y64474D01*
X89743Y64347D01*
X89649Y64208D01*
X89575Y64058D01*
X89521Y63899D01*
X89489Y63734D01*
X89478Y63567D01*
X89489Y63399D01*
X89521Y63235D01*
X89575Y63076D01*
X89649Y62926D01*
X89743Y62786D01*
X89853Y62660D01*
X89979Y62550D01*
X90119Y62456D01*
X90269Y62382D01*
X90428Y62328D01*
X90592Y62296D01*
X90760Y62285D01*
X90927Y62296D01*
X91092Y62328D01*
X91250Y62382D01*
X91401Y62456D01*
X91540Y62550D01*
X91667Y62660D01*
X91777Y62786D01*
X91870Y62926D01*
X91944Y63076D01*
X91998Y63235D01*
X92031Y63399D01*
X92042Y63567D01*
X92040Y63606D01*
X92133Y63762D01*
X92244Y63870D01*
X92466Y64012D01*
X92634Y64001D01*
X92801Y64012D01*
X92966Y64045D01*
X93125Y64099D01*
X93275Y64173D01*
X93414Y64266D01*
X93541Y64377D01*
X93651Y64503D01*
X93904Y64634D01*
X94190Y64618D01*
X94254Y64588D01*
X94344Y64544D01*
X94503Y64490D01*
X94667Y64457D01*
X94835Y64446D01*
X95002Y64457D01*
X95166Y64490D01*
X95325Y64544D01*
X95476Y64618D01*
X95615Y64711D01*
X95741Y64822D01*
X95852Y64948D01*
X95945Y65087D01*
X96019Y65238D01*
X96073Y65396D01*
X96106Y65561D01*
X96117Y65728D01*
X96106Y65896D01*
X96073Y66060D01*
X96019Y66219D01*
X95945Y66369D01*
X95852Y66509D01*
X95741Y66635D01*
X95615Y66746D01*
X95476Y66839D01*
X95325Y66913D01*
X95166Y66967D01*
X95002Y67000D01*
X94835Y67011D01*
D02*
G37*
G36*
X84622Y74770D02*
X84455Y74760D01*
X84290Y74727D01*
X84131Y74673D01*
X83981Y74599D01*
X83841Y74506D01*
X83715Y74395D01*
X83605Y74269D01*
X83512Y74129D01*
X83437Y73979D01*
X83384Y73820D01*
X83351Y73656D01*
X83340Y73488D01*
X83351Y73321D01*
X83384Y73156D01*
X83437Y72997D01*
X83512Y72847D01*
X83605Y72708D01*
X83715Y72581D01*
X83841Y72471D01*
X83981Y72378D01*
X84131Y72303D01*
X84290Y72250D01*
X84455Y72217D01*
X84622Y72206D01*
X84789Y72217D01*
X84954Y72250D01*
X85047Y72281D01*
X85214Y72216D01*
X85506Y71964D01*
X85511Y71956D01*
X85509Y71929D01*
X85520Y71762D01*
X85553Y71597D01*
X85607Y71438D01*
X85681Y71288D01*
X85774Y71149D01*
X85885Y71022D01*
X86011Y70912D01*
X86150Y70819D01*
X86301Y70745D01*
X86459Y70691D01*
X86624Y70658D01*
X86791Y70647D01*
X86959Y70658D01*
X87123Y70691D01*
X87191Y70714D01*
X87329Y70693D01*
X87482Y70624D01*
X87687Y70501D01*
X87746Y70427D01*
X87784Y70316D01*
X87858Y70166D01*
X87951Y70026D01*
X88062Y69900D01*
X88188Y69790D01*
X88338Y69557D01*
X88359Y69269D01*
X88319Y69148D01*
X88288Y69085D01*
X88234Y68926D01*
X88201Y68762D01*
X87712Y68750D01*
X87679Y68915D01*
X87626Y69073D01*
X87551Y69224D01*
X87458Y69363D01*
X87348Y69489D01*
X87221Y69600D01*
X87082Y69693D01*
X86932Y69767D01*
X86773Y69821D01*
X86608Y69854D01*
X86441Y69865D01*
X86274Y69854D01*
X86109Y69821D01*
X85950Y69767D01*
X85800Y69693D01*
X85660Y69600D01*
X85534Y69489D01*
X85424Y69363D01*
X85330Y69224D01*
X85256Y69073D01*
X85202Y68915D01*
X85170Y68750D01*
X85159Y68583D01*
X85170Y68415D01*
X85202Y68251D01*
X85256Y68092D01*
X85330Y67941D01*
X85424Y67802D01*
X85534Y67676D01*
X85660Y67565D01*
X85800Y67472D01*
X85950Y67398D01*
X86109Y67344D01*
X86274Y67311D01*
X86441Y67300D01*
X86608Y67311D01*
X86773Y67344D01*
X86932Y67398D01*
X87082Y67472D01*
X87221Y67565D01*
X87348Y67676D01*
X87458Y67802D01*
X87551Y67941D01*
X87626Y68092D01*
X87679Y68251D01*
X87712Y68415D01*
X88201Y68427D01*
X88234Y68263D01*
X88288Y68104D01*
X88362Y67953D01*
X88455Y67814D01*
X88566Y67688D01*
X88692Y67577D01*
X88831Y67484D01*
X88982Y67410D01*
X89141Y67356D01*
X89305Y67323D01*
X89472Y67312D01*
X89640Y67323D01*
X89804Y67356D01*
X89963Y67410D01*
X90114Y67484D01*
X90253Y67577D01*
X90379Y67688D01*
X90490Y67814D01*
X90583Y67953D01*
X90657Y68104D01*
X90711Y68263D01*
X90744Y68427D01*
X90755Y68594D01*
X90744Y68762D01*
X90711Y68926D01*
X90657Y69085D01*
X90583Y69236D01*
X90490Y69375D01*
X90379Y69501D01*
X90253Y69612D01*
X90103Y69844D01*
X90082Y70132D01*
X90122Y70253D01*
X90153Y70316D01*
X90207Y70475D01*
X90240Y70640D01*
X90251Y70807D01*
X90240Y70974D01*
X90207Y71139D01*
X90153Y71298D01*
X90079Y71448D01*
X89986Y71588D01*
X89875Y71714D01*
X89749Y71824D01*
X89610Y71918D01*
X89459Y71992D01*
X89300Y72046D01*
X89136Y72078D01*
X88968Y72089D01*
X88801Y72078D01*
X88637Y72046D01*
X88569Y72023D01*
X88431Y72043D01*
X88278Y72112D01*
X88073Y72235D01*
X88013Y72309D01*
X87976Y72420D01*
X87902Y72570D01*
X87809Y72710D01*
X87698Y72836D01*
X87572Y72946D01*
X87432Y73040D01*
X87282Y73114D01*
X87123Y73168D01*
X86959Y73200D01*
X86791Y73211D01*
X86624Y73200D01*
X86459Y73168D01*
X86366Y73136D01*
X86199Y73202D01*
X85907Y73453D01*
X85903Y73461D01*
X85904Y73488D01*
X85893Y73656D01*
X85861Y73820D01*
X85807Y73979D01*
X85733Y74129D01*
X85639Y74269D01*
X85529Y74395D01*
X85403Y74506D01*
X85263Y74599D01*
X85113Y74673D01*
X84954Y74727D01*
X84789Y74760D01*
X84622Y74770D01*
D02*
G37*
G36*
X110114Y74337D02*
X109947Y74326D01*
X109782Y74294D01*
X109624Y74240D01*
X109473Y74166D01*
X109334Y74072D01*
X109207Y73962D01*
X109097Y73836D01*
X109004Y73696D01*
X108930Y73546D01*
X108876Y73387D01*
X108843Y73223D01*
X108832Y73055D01*
X108843Y72888D01*
X108876Y72723D01*
X108930Y72564D01*
X109004Y72414D01*
X109097Y72275D01*
X109207Y72148D01*
X109334Y72038D01*
X109473Y71945D01*
X109624Y71870D01*
X109782Y71816D01*
X109947Y71784D01*
X110114Y71773D01*
X110282Y71784D01*
X110446Y71816D01*
X110605Y71870D01*
X110755Y71945D01*
X110895Y72038D01*
X111021Y72148D01*
X111132Y72275D01*
X111225Y72414D01*
X111299Y72564D01*
X111353Y72723D01*
X111386Y72888D01*
X111396Y73055D01*
X111386Y73223D01*
X111353Y73387D01*
X111299Y73546D01*
X111225Y73696D01*
X111132Y73836D01*
X111021Y73962D01*
X110895Y74072D01*
X110755Y74166D01*
X110605Y74240D01*
X110446Y74294D01*
X110282Y74326D01*
X110114Y74337D01*
D02*
G37*
G36*
X104791Y74700D02*
X104624Y74689D01*
X104460Y74656D01*
X104301Y74602D01*
X104150Y74528D01*
X104011Y74435D01*
X103885Y74324D01*
X103774Y74198D01*
X103681Y74059D01*
X103607Y73908D01*
X103553Y73749D01*
X103520Y73585D01*
X103509Y73417D01*
X103520Y73250D01*
X103553Y73085D01*
X103607Y72927D01*
X103681Y72776D01*
X103774Y72637D01*
X103885Y72511D01*
X104011Y72400D01*
X104150Y72307D01*
X104301Y72233D01*
X104460Y72179D01*
X104624Y72146D01*
X104791Y72135D01*
X104959Y72146D01*
X105123Y72179D01*
X105282Y72233D01*
X105432Y72307D01*
X105572Y72400D01*
X105698Y72511D01*
X105809Y72637D01*
X105902Y72776D01*
X105976Y72927D01*
X106030Y73085D01*
X106063Y73250D01*
X106074Y73417D01*
X106063Y73585D01*
X106030Y73749D01*
X105976Y73908D01*
X105902Y74059D01*
X105809Y74198D01*
X105698Y74324D01*
X105572Y74435D01*
X105432Y74528D01*
X105282Y74602D01*
X105123Y74656D01*
X104959Y74689D01*
X104791Y74700D01*
D02*
G37*
G36*
X74016Y59392D02*
X73848Y59382D01*
X73684Y59349D01*
X73525Y59295D01*
X73375Y59221D01*
X73235Y59127D01*
X73109Y59017D01*
X72998Y58891D01*
X72905Y58751D01*
X72831Y58601D01*
X72777Y58442D01*
X72744Y58278D01*
X72733Y58110D01*
X72744Y57943D01*
X72777Y57778D01*
X72831Y57620D01*
X72905Y57469D01*
X72998Y57330D01*
X73109Y57204D01*
X73235Y57093D01*
X73375Y57000D01*
X73525Y56926D01*
X73684Y56872D01*
X73848Y56839D01*
X74016Y56828D01*
X74183Y56839D01*
X74348Y56872D01*
X74506Y56926D01*
X74657Y57000D01*
X74796Y57093D01*
X74923Y57204D01*
X75033Y57330D01*
X75126Y57469D01*
X75200Y57620D01*
X75254Y57778D01*
X75287Y57943D01*
X75298Y58110D01*
X75287Y58278D01*
X75254Y58442D01*
X75200Y58601D01*
X75126Y58751D01*
X75033Y58891D01*
X74923Y59017D01*
X74796Y59127D01*
X74657Y59221D01*
X74506Y59295D01*
X74348Y59349D01*
X74183Y59382D01*
X74016Y59392D01*
D02*
G37*
G36*
X86980Y59554D02*
X86813Y59543D01*
X86648Y59510D01*
X86490Y59456D01*
X86339Y59382D01*
X86200Y59289D01*
X86074Y59178D01*
X85963Y59052D01*
X85870Y58913D01*
X85796Y58762D01*
X85742Y58604D01*
X85709Y58439D01*
X85698Y58272D01*
X85709Y58104D01*
X85742Y57940D01*
X85796Y57781D01*
X85870Y57630D01*
X85963Y57491D01*
X86074Y57365D01*
X86200Y57254D01*
X86339Y57161D01*
X86490Y57087D01*
X86648Y57033D01*
X86813Y57000D01*
X86980Y56989D01*
X87148Y57000D01*
X87312Y57033D01*
X87471Y57087D01*
X87621Y57161D01*
X87761Y57254D01*
X87887Y57365D01*
X87998Y57491D01*
X88091Y57630D01*
X88165Y57781D01*
X88219Y57940D01*
X88252Y58104D01*
X88263Y58272D01*
X88252Y58439D01*
X88219Y58604D01*
X88165Y58762D01*
X88091Y58913D01*
X87998Y59052D01*
X87887Y59178D01*
X87761Y59289D01*
X87621Y59382D01*
X87471Y59456D01*
X87312Y59510D01*
X87148Y59543D01*
X86980Y59554D01*
D02*
G37*
G36*
X82504Y58271D02*
X82337Y58259D01*
X82172Y58227D01*
X82013Y58173D01*
X81863Y58099D01*
X81723Y58005D01*
X81597Y57895D01*
X81487Y57769D01*
X81393Y57629D01*
X81319Y57479D01*
X81265Y57320D01*
X81233Y57156D01*
X81222Y56988D01*
X81233Y56821D01*
X81265Y56656D01*
X81319Y56498D01*
X81393Y56347D01*
X81487Y56208D01*
X81597Y56081D01*
X81723Y55971D01*
X81863Y55878D01*
X82013Y55804D01*
X82172Y55750D01*
X82337Y55717D01*
X82504Y55706D01*
X82671Y55717D01*
X82836Y55750D01*
X82995Y55804D01*
X83145Y55878D01*
X83284Y55971D01*
X83411Y56081D01*
X83521Y56208D01*
X83614Y56347D01*
X83689Y56498D01*
X83742Y56656D01*
X83775Y56821D01*
X83786Y56988D01*
X83775Y57156D01*
X83742Y57320D01*
X83689Y57479D01*
X83614Y57629D01*
X83521Y57769D01*
X83411Y57895D01*
X83284Y58005D01*
X83145Y58099D01*
X82995Y58173D01*
X82836Y58227D01*
X82671Y58259D01*
X82504Y58271D01*
D02*
G37*
G36*
X105681Y59271D02*
X105514Y59259D01*
X105349Y59227D01*
X105190Y59173D01*
X105040Y59099D01*
X104901Y59005D01*
X104774Y58895D01*
X104664Y58769D01*
X104571Y58629D01*
X104496Y58479D01*
X104443Y58320D01*
X104410Y58156D01*
X104399Y57988D01*
X104410Y57821D01*
X104443Y57656D01*
X104496Y57498D01*
X104571Y57347D01*
X104664Y57208D01*
X104774Y57082D01*
X104901Y56971D01*
X105040Y56878D01*
X105190Y56804D01*
X105349Y56750D01*
X105514Y56717D01*
X105681Y56706D01*
X105849Y56717D01*
X106013Y56750D01*
X106172Y56804D01*
X106322Y56878D01*
X106462Y56971D01*
X106588Y57082D01*
X106698Y57208D01*
X106792Y57347D01*
X106866Y57498D01*
X106920Y57656D01*
X106952Y57821D01*
X106963Y57988D01*
X106952Y58156D01*
X106920Y58320D01*
X106866Y58479D01*
X106792Y58629D01*
X106698Y58769D01*
X106588Y58895D01*
X106462Y59005D01*
X106322Y59099D01*
X106172Y59173D01*
X106013Y59227D01*
X105849Y59259D01*
X105681Y59271D01*
D02*
G37*
G36*
X98791Y59554D02*
X98624Y59543D01*
X98460Y59510D01*
X98301Y59456D01*
X98150Y59382D01*
X98011Y59289D01*
X97885Y59178D01*
X97774Y59052D01*
X97681Y58913D01*
X97607Y58762D01*
X97553Y58604D01*
X97549Y58586D01*
X97528Y58545D01*
X97324Y58350D01*
X97061Y58230D01*
X97011Y58225D01*
X96998Y58228D01*
X96831Y58239D01*
X96663Y58228D01*
X96499Y58195D01*
X96340Y58141D01*
X96190Y58067D01*
X96050Y57974D01*
X95924Y57863D01*
X95813Y57737D01*
X95720Y57598D01*
X95646Y57447D01*
X95592Y57289D01*
X95559Y57124D01*
X95548Y56957D01*
X95559Y56789D01*
X95592Y56625D01*
X95646Y56466D01*
X95720Y56315D01*
X95813Y56176D01*
X95924Y56050D01*
X96050Y55939D01*
X96190Y55846D01*
X96340Y55772D01*
X96499Y55718D01*
X96663Y55685D01*
X96831Y55674D01*
X96998Y55685D01*
X97163Y55718D01*
X97321Y55772D01*
X97472Y55846D01*
X97611Y55939D01*
X97737Y56050D01*
X97848Y56176D01*
X97941Y56315D01*
X98015Y56466D01*
X98069Y56625D01*
X98073Y56642D01*
X98094Y56683D01*
X98298Y56879D01*
X98561Y56998D01*
X98611Y57003D01*
X98624Y57000D01*
X98791Y56989D01*
X98959Y57000D01*
X98988Y57006D01*
X99040Y57001D01*
X99287Y56886D01*
X99497Y56699D01*
X99524Y56649D01*
X99529Y56625D01*
X99583Y56466D01*
X99657Y56315D01*
X99750Y56176D01*
X99861Y56050D01*
X99987Y55939D01*
X100127Y55846D01*
X100277Y55772D01*
X100436Y55718D01*
X100600Y55685D01*
X100768Y55674D01*
X100935Y55685D01*
X101100Y55718D01*
X101258Y55772D01*
X101409Y55846D01*
X101548Y55939D01*
X101674Y56050D01*
X101785Y56176D01*
X101878Y56315D01*
X101952Y56466D01*
X102006Y56625D01*
X102039Y56789D01*
X102050Y56957D01*
X102039Y57124D01*
X102006Y57289D01*
X101952Y57447D01*
X101878Y57598D01*
X101785Y57737D01*
X101674Y57863D01*
X101548Y57974D01*
X101409Y58067D01*
X101258Y58141D01*
X101100Y58195D01*
X100935Y58228D01*
X100768Y58239D01*
X100600Y58228D01*
X100572Y58222D01*
X100519Y58227D01*
X100272Y58342D01*
X100062Y58529D01*
X100035Y58579D01*
X100030Y58604D01*
X99976Y58762D01*
X99902Y58913D01*
X99809Y59052D01*
X99698Y59178D01*
X99572Y59289D01*
X99432Y59382D01*
X99282Y59456D01*
X99123Y59510D01*
X98959Y59543D01*
X98791Y59554D01*
D02*
G37*
G36*
X102701Y65593D02*
X102533Y65582D01*
X102369Y65550D01*
X102210Y65496D01*
X102060Y65421D01*
X101920Y65328D01*
X101794Y65218D01*
X101683Y65092D01*
X101590Y64952D01*
X101516Y64802D01*
X101462Y64643D01*
X101429Y64478D01*
X101418Y64311D01*
X101429Y64144D01*
X101462Y63979D01*
X101516Y63820D01*
X101590Y63670D01*
X101683Y63530D01*
X101794Y63404D01*
X101920Y63294D01*
X102060Y63200D01*
X102210Y63126D01*
X102369Y63072D01*
X102533Y63040D01*
X102701Y63029D01*
X102868Y63040D01*
X103033Y63072D01*
X103191Y63126D01*
X103342Y63200D01*
X103481Y63294D01*
X103607Y63404D01*
X103718Y63530D01*
X103811Y63670D01*
X103885Y63820D01*
X103939Y63979D01*
X103972Y64144D01*
X103983Y64311D01*
X103972Y64478D01*
X103939Y64643D01*
X103885Y64802D01*
X103811Y64952D01*
X103718Y65092D01*
X103607Y65218D01*
X103481Y65328D01*
X103342Y65421D01*
X103191Y65496D01*
X103033Y65550D01*
X102868Y65582D01*
X102701Y65593D01*
D02*
G37*
G36*
X78256Y70869D02*
X78088Y70858D01*
X77924Y70825D01*
X77765Y70771D01*
X77615Y70697D01*
X77475Y70604D01*
X77349Y70493D01*
X77239Y70367D01*
X77145Y70228D01*
X77071Y70077D01*
X77017Y69919D01*
X76985Y69754D01*
X76974Y69587D01*
X76985Y69419D01*
X77017Y69255D01*
X77071Y69096D01*
X77145Y68945D01*
X77239Y68806D01*
X77349Y68680D01*
X77475Y68569D01*
X77615Y68476D01*
X77765Y68402D01*
X77924Y68348D01*
X77941Y68345D01*
X77982Y68323D01*
X78178Y68119D01*
X78298Y67856D01*
X78302Y67806D01*
X78300Y67793D01*
X78289Y67626D01*
X78300Y67459D01*
X78332Y67294D01*
X78386Y67135D01*
X78460Y66985D01*
X78554Y66845D01*
X78664Y66719D01*
X78790Y66609D01*
X78930Y66515D01*
X79080Y66441D01*
X79239Y66387D01*
X79404Y66355D01*
X79571Y66344D01*
X79738Y66355D01*
X79903Y66387D01*
X80062Y66441D01*
X80212Y66515D01*
X80352Y66609D01*
X80478Y66719D01*
X80588Y66845D01*
X80681Y66985D01*
X80756Y67135D01*
X80809Y67294D01*
X80842Y67459D01*
X80853Y67626D01*
X80842Y67793D01*
X80809Y67958D01*
X80756Y68117D01*
X80681Y68267D01*
X80588Y68407D01*
X80478Y68533D01*
X80352Y68643D01*
X80212Y68736D01*
X80062Y68811D01*
X79903Y68865D01*
X79886Y68868D01*
X79844Y68889D01*
X79649Y69093D01*
X79529Y69356D01*
X79525Y69406D01*
X79527Y69419D01*
X79538Y69587D01*
X79527Y69754D01*
X79495Y69919D01*
X79441Y70077D01*
X79366Y70228D01*
X79273Y70367D01*
X79163Y70493D01*
X79036Y70604D01*
X78897Y70697D01*
X78747Y70771D01*
X78588Y70825D01*
X78423Y70858D01*
X78256Y70869D01*
D02*
G37*
G36*
X110476Y64719D02*
X110309Y64708D01*
X110144Y64676D01*
X109986Y64622D01*
X109835Y64547D01*
X109696Y64454D01*
X109570Y64344D01*
X109459Y64218D01*
X109366Y64078D01*
X109292Y63928D01*
X109238Y63769D01*
X109205Y63604D01*
X109194Y63437D01*
X109205Y63270D01*
X109238Y63105D01*
X109292Y62946D01*
X109366Y62796D01*
X109459Y62656D01*
X109570Y62530D01*
X109660Y62451D01*
X109670Y62182D01*
X109667Y62151D01*
X109601Y61913D01*
X109594Y61901D01*
X109493Y61851D01*
X109353Y61757D01*
X109227Y61647D01*
X109117Y61521D01*
X109023Y61381D01*
X108949Y61231D01*
X108895Y61072D01*
X108863Y60908D01*
X108852Y60740D01*
X108863Y60573D01*
X108895Y60408D01*
X108949Y60250D01*
X109023Y60099D01*
X109117Y59960D01*
X109227Y59834D01*
X109353Y59723D01*
X109493Y59630D01*
X109643Y59556D01*
X109802Y59502D01*
X109967Y59469D01*
X110134Y59458D01*
X110301Y59469D01*
X110466Y59502D01*
X110625Y59556D01*
X110775Y59630D01*
X110915Y59723D01*
X111041Y59834D01*
X111151Y59960D01*
X111244Y60099D01*
X111319Y60250D01*
X111372Y60408D01*
X111384Y60468D01*
X111523Y60618D01*
X111582Y60657D01*
X111866Y60793D01*
X111897Y60797D01*
X112061Y60764D01*
X112228Y60753D01*
X112396Y60764D01*
X112560Y60797D01*
X112719Y60851D01*
X112870Y60925D01*
X113009Y61018D01*
X113135Y61129D01*
X113246Y61255D01*
X113339Y61394D01*
X113413Y61545D01*
X113467Y61703D01*
X113500Y61868D01*
X113511Y62035D01*
X113500Y62203D01*
X113467Y62367D01*
X113413Y62526D01*
X113339Y62677D01*
X113246Y62816D01*
X113135Y62942D01*
X113009Y63053D01*
X112870Y63146D01*
X112719Y63220D01*
X112560Y63274D01*
X112396Y63307D01*
X112228Y63318D01*
X111984Y63380D01*
X111786Y63568D01*
X111720Y63742D01*
X111715Y63769D01*
X111661Y63928D01*
X111587Y64078D01*
X111494Y64218D01*
X111383Y64344D01*
X111257Y64454D01*
X111117Y64547D01*
X110967Y64622D01*
X110808Y64676D01*
X110644Y64708D01*
X110476Y64719D01*
D02*
G37*
G36*
X79571Y64971D02*
X79404Y64960D01*
X79239Y64928D01*
X79080Y64874D01*
X78930Y64799D01*
X78790Y64706D01*
X78664Y64596D01*
X78554Y64470D01*
X78460Y64330D01*
X78386Y64180D01*
X78332Y64021D01*
X78300Y63856D01*
X78289Y63689D01*
X78300Y63522D01*
X78332Y63357D01*
X78386Y63198D01*
X78460Y63048D01*
X78554Y62908D01*
X78664Y62782D01*
X78790Y62672D01*
X78930Y62578D01*
X79080Y62504D01*
X79239Y62450D01*
X79404Y62418D01*
X79571Y62407D01*
X79738Y62418D01*
X79903Y62450D01*
X80062Y62504D01*
X80212Y62578D01*
X80352Y62672D01*
X80478Y62782D01*
X80588Y62908D01*
X80681Y63048D01*
X80756Y63198D01*
X80809Y63357D01*
X80842Y63522D01*
X80853Y63689D01*
X80842Y63856D01*
X80809Y64021D01*
X80756Y64180D01*
X80681Y64330D01*
X80588Y64470D01*
X80478Y64596D01*
X80352Y64706D01*
X80212Y64799D01*
X80062Y64874D01*
X79903Y64928D01*
X79738Y64960D01*
X79571Y64971D01*
D02*
G37*
G36*
X126142Y105534D02*
X125974Y105523D01*
X125810Y105491D01*
X125651Y105437D01*
X125501Y105362D01*
X125361Y105269D01*
X125235Y105159D01*
X125125Y105033D01*
X125031Y104893D01*
X124957Y104743D01*
X124903Y104584D01*
X124870Y104419D01*
X124859Y104252D01*
X124870Y104085D01*
X124903Y103920D01*
X124957Y103761D01*
X125031Y103611D01*
X125125Y103471D01*
X125235Y103345D01*
X125361Y103235D01*
X125501Y103141D01*
X125651Y103067D01*
X125810Y103013D01*
X125974Y102981D01*
X126142Y102970D01*
X126309Y102981D01*
X126474Y103013D01*
X126632Y103067D01*
X126783Y103141D01*
X126922Y103235D01*
X127048Y103345D01*
X127159Y103471D01*
X127252Y103611D01*
X127326Y103761D01*
X127380Y103920D01*
X127413Y104085D01*
X127424Y104252D01*
X127413Y104419D01*
X127380Y104584D01*
X127326Y104743D01*
X127252Y104893D01*
X127159Y105033D01*
X127048Y105159D01*
X126922Y105269D01*
X126783Y105362D01*
X126632Y105437D01*
X126474Y105491D01*
X126309Y105523D01*
X126142Y105534D01*
D02*
G37*
G36*
X101339D02*
X101171Y105523D01*
X101007Y105491D01*
X100848Y105437D01*
X100698Y105362D01*
X100558Y105269D01*
X100432Y105159D01*
X100321Y105033D01*
X100228Y104893D01*
X100154Y104743D01*
X100100Y104584D01*
X100067Y104419D01*
X100056Y104252D01*
X100067Y104085D01*
X100100Y103920D01*
X100154Y103761D01*
X100228Y103611D01*
X100321Y103471D01*
X100432Y103345D01*
X100558Y103235D01*
X100698Y103141D01*
X100848Y103067D01*
X101007Y103013D01*
X101171Y102981D01*
X101339Y102970D01*
X101506Y102981D01*
X101671Y103013D01*
X101829Y103067D01*
X101980Y103141D01*
X102119Y103235D01*
X102245Y103345D01*
X102356Y103471D01*
X102449Y103611D01*
X102523Y103761D01*
X102577Y103920D01*
X102610Y104085D01*
X102621Y104252D01*
X102610Y104419D01*
X102577Y104584D01*
X102523Y104743D01*
X102449Y104893D01*
X102356Y105033D01*
X102245Y105159D01*
X102119Y105269D01*
X101980Y105362D01*
X101829Y105437D01*
X101671Y105491D01*
X101506Y105523D01*
X101339Y105534D01*
D02*
G37*
G36*
X98189D02*
X98022Y105523D01*
X97857Y105491D01*
X97698Y105437D01*
X97548Y105362D01*
X97408Y105269D01*
X97282Y105159D01*
X97172Y105033D01*
X97079Y104893D01*
X97004Y104743D01*
X96950Y104584D01*
X96918Y104419D01*
X96907Y104252D01*
X96918Y104085D01*
X96950Y103920D01*
X97004Y103761D01*
X97079Y103611D01*
X97172Y103471D01*
X97282Y103345D01*
X97408Y103235D01*
X97548Y103141D01*
X97698Y103067D01*
X97857Y103013D01*
X98022Y102981D01*
X98189Y102970D01*
X98356Y102981D01*
X98521Y103013D01*
X98680Y103067D01*
X98830Y103141D01*
X98970Y103235D01*
X99096Y103345D01*
X99206Y103471D01*
X99300Y103611D01*
X99374Y103761D01*
X99428Y103920D01*
X99460Y104085D01*
X99471Y104252D01*
X99460Y104419D01*
X99428Y104584D01*
X99374Y104743D01*
X99300Y104893D01*
X99206Y105033D01*
X99096Y105159D01*
X98970Y105269D01*
X98830Y105362D01*
X98680Y105437D01*
X98521Y105491D01*
X98356Y105523D01*
X98189Y105534D01*
D02*
G37*
G36*
X123386Y102385D02*
X123219Y102374D01*
X123054Y102341D01*
X122895Y102287D01*
X122745Y102213D01*
X122605Y102120D01*
X122479Y102009D01*
X122369Y101883D01*
X122275Y101743D01*
X122201Y101593D01*
X122147Y101434D01*
X122115Y101270D01*
X122104Y101102D01*
X122115Y100935D01*
X122147Y100770D01*
X122201Y100612D01*
X122275Y100461D01*
X122369Y100322D01*
X122479Y100196D01*
X122605Y100085D01*
X122745Y99992D01*
X122895Y99918D01*
X123054Y99864D01*
X123219Y99831D01*
X123386Y99820D01*
X123553Y99831D01*
X123718Y99864D01*
X123877Y99918D01*
X124027Y99992D01*
X124166Y100085D01*
X124293Y100196D01*
X124403Y100322D01*
X124496Y100461D01*
X124571Y100612D01*
X124624Y100770D01*
X124657Y100935D01*
X124668Y101102D01*
X124657Y101270D01*
X124624Y101434D01*
X124571Y101593D01*
X124496Y101743D01*
X124403Y101883D01*
X124293Y102009D01*
X124166Y102120D01*
X124027Y102213D01*
X123877Y102287D01*
X123718Y102341D01*
X123553Y102374D01*
X123386Y102385D01*
D02*
G37*
G36*
X95039D02*
X94872Y102374D01*
X94708Y102341D01*
X94549Y102287D01*
X94398Y102213D01*
X94259Y102120D01*
X94133Y102009D01*
X94022Y101883D01*
X93929Y101743D01*
X93855Y101593D01*
X93801Y101434D01*
X93768Y101270D01*
X93757Y101102D01*
X93768Y100935D01*
X93801Y100770D01*
X93855Y100612D01*
X93929Y100461D01*
X94022Y100322D01*
X94133Y100196D01*
X94259Y100085D01*
X94398Y99992D01*
X94549Y99918D01*
X94708Y99864D01*
X94872Y99831D01*
X95039Y99820D01*
X95207Y99831D01*
X95371Y99864D01*
X95530Y99918D01*
X95680Y99992D01*
X95820Y100085D01*
X95946Y100196D01*
X96057Y100322D01*
X96150Y100461D01*
X96224Y100612D01*
X96278Y100770D01*
X96311Y100935D01*
X96322Y101102D01*
X96311Y101270D01*
X96278Y101434D01*
X96224Y101593D01*
X96150Y101743D01*
X96057Y101883D01*
X95946Y102009D01*
X95820Y102120D01*
X95680Y102213D01*
X95530Y102287D01*
X95371Y102341D01*
X95207Y102374D01*
X95039Y102385D01*
D02*
G37*
G36*
X126535D02*
X126368Y102374D01*
X126204Y102341D01*
X126045Y102287D01*
X125894Y102213D01*
X125755Y102120D01*
X125629Y102009D01*
X125518Y101883D01*
X125425Y101743D01*
X125351Y101593D01*
X125297Y101434D01*
X125264Y101270D01*
X125253Y101102D01*
X125264Y100935D01*
X125297Y100770D01*
X125351Y100612D01*
X125425Y100461D01*
X125518Y100322D01*
X125629Y100196D01*
X125755Y100085D01*
X125894Y99992D01*
X126045Y99918D01*
X126204Y99864D01*
X126368Y99831D01*
X126535Y99820D01*
X126703Y99831D01*
X126867Y99864D01*
X127026Y99918D01*
X127177Y99992D01*
X127316Y100085D01*
X127442Y100196D01*
X127553Y100322D01*
X127646Y100461D01*
X127720Y100612D01*
X127774Y100770D01*
X127807Y100935D01*
X127818Y101102D01*
X127807Y101270D01*
X127774Y101434D01*
X127720Y101593D01*
X127646Y101743D01*
X127553Y101883D01*
X127442Y102009D01*
X127316Y102120D01*
X127177Y102213D01*
X127026Y102287D01*
X126867Y102341D01*
X126703Y102374D01*
X126535Y102385D01*
D02*
G37*
G36*
X95039Y105534D02*
X94872Y105523D01*
X94708Y105491D01*
X94549Y105437D01*
X94398Y105362D01*
X94259Y105269D01*
X94133Y105159D01*
X94022Y105033D01*
X93929Y104893D01*
X93855Y104743D01*
X93801Y104584D01*
X93768Y104419D01*
X93757Y104252D01*
X93768Y104085D01*
X93801Y103920D01*
X93855Y103761D01*
X93929Y103611D01*
X94022Y103471D01*
X94133Y103345D01*
X94259Y103235D01*
X94398Y103141D01*
X94549Y103067D01*
X94708Y103013D01*
X94872Y102981D01*
X95039Y102970D01*
X95207Y102981D01*
X95371Y103013D01*
X95530Y103067D01*
X95680Y103141D01*
X95820Y103235D01*
X95946Y103345D01*
X96057Y103471D01*
X96150Y103611D01*
X96224Y103761D01*
X96278Y103920D01*
X96311Y104085D01*
X96322Y104252D01*
X96311Y104419D01*
X96278Y104584D01*
X96224Y104743D01*
X96150Y104893D01*
X96057Y105033D01*
X95946Y105159D01*
X95820Y105269D01*
X95680Y105362D01*
X95530Y105437D01*
X95371Y105491D01*
X95207Y105523D01*
X95039Y105534D01*
D02*
G37*
G36*
X91890D02*
X91722Y105523D01*
X91558Y105491D01*
X91399Y105437D01*
X91249Y105362D01*
X91109Y105269D01*
X90983Y105159D01*
X90873Y105033D01*
X90779Y104893D01*
X90705Y104743D01*
X90651Y104584D01*
X90618Y104419D01*
X90608Y104252D01*
X90618Y104085D01*
X90651Y103920D01*
X90705Y103761D01*
X90779Y103611D01*
X90873Y103471D01*
X90983Y103345D01*
X91109Y103235D01*
X91249Y103141D01*
X91399Y103067D01*
X91558Y103013D01*
X91722Y102981D01*
X91890Y102970D01*
X92057Y102981D01*
X92222Y103013D01*
X92380Y103067D01*
X92531Y103141D01*
X92670Y103235D01*
X92796Y103345D01*
X92907Y103471D01*
X93000Y103611D01*
X93074Y103761D01*
X93128Y103920D01*
X93161Y104085D01*
X93172Y104252D01*
X93161Y104419D01*
X93128Y104584D01*
X93074Y104743D01*
X93000Y104893D01*
X92907Y105033D01*
X92796Y105159D01*
X92670Y105269D01*
X92531Y105362D01*
X92380Y105437D01*
X92222Y105491D01*
X92057Y105523D01*
X91890Y105534D01*
D02*
G37*
G36*
Y102385D02*
X91722Y102374D01*
X91558Y102341D01*
X91399Y102287D01*
X91249Y102213D01*
X91109Y102120D01*
X90983Y102009D01*
X90873Y101883D01*
X90779Y101743D01*
X90705Y101593D01*
X90651Y101434D01*
X90618Y101270D01*
X90608Y101102D01*
X90618Y100935D01*
X90651Y100770D01*
X90705Y100612D01*
X90779Y100461D01*
X90873Y100322D01*
X90983Y100196D01*
X91109Y100085D01*
X91249Y99992D01*
X91399Y99918D01*
X91558Y99864D01*
X91722Y99831D01*
X91890Y99820D01*
X92057Y99831D01*
X92222Y99864D01*
X92380Y99918D01*
X92531Y99992D01*
X92670Y100085D01*
X92796Y100196D01*
X92907Y100322D01*
X93000Y100461D01*
X93074Y100612D01*
X93128Y100770D01*
X93161Y100935D01*
X93172Y101102D01*
X93161Y101270D01*
X93128Y101434D01*
X93074Y101593D01*
X93000Y101743D01*
X92907Y101883D01*
X92796Y102009D01*
X92670Y102120D01*
X92531Y102213D01*
X92380Y102287D01*
X92222Y102341D01*
X92057Y102374D01*
X91890Y102385D01*
D02*
G37*
G36*
X102693Y84625D02*
X102525Y84614D01*
X102361Y84581D01*
X102202Y84527D01*
X102052Y84453D01*
X101912Y84360D01*
X101786Y84249D01*
X101676Y84123D01*
X101582Y83984D01*
X101508Y83833D01*
X101454Y83674D01*
X101422Y83510D01*
X101411Y83343D01*
X101422Y83175D01*
X101454Y83011D01*
X101508Y82852D01*
X101582Y82701D01*
X101676Y82562D01*
X101786Y82436D01*
X101912Y82325D01*
X102052Y82232D01*
X102202Y82158D01*
X102361Y82104D01*
X102525Y82071D01*
X102693Y82060D01*
X102860Y82071D01*
X103025Y82104D01*
X103184Y82158D01*
X103334Y82232D01*
X103473Y82325D01*
X103600Y82436D01*
X103710Y82562D01*
X103803Y82701D01*
X103878Y82852D01*
X103931Y83011D01*
X103964Y83175D01*
X103975Y83343D01*
X103964Y83510D01*
X103931Y83674D01*
X103878Y83833D01*
X103803Y83984D01*
X103710Y84123D01*
X103600Y84249D01*
X103473Y84360D01*
X103334Y84453D01*
X103184Y84527D01*
X103025Y84581D01*
X102860Y84614D01*
X102693Y84625D01*
D02*
G37*
G36*
X98772Y82322D02*
X98604Y82311D01*
X98440Y82278D01*
X98281Y82224D01*
X98131Y82150D01*
X97991Y82057D01*
X97865Y81946D01*
X97754Y81820D01*
X97661Y81681D01*
X97587Y81530D01*
X97533Y81371D01*
X97500Y81207D01*
X97489Y81039D01*
X97500Y80872D01*
X97533Y80708D01*
X97587Y80549D01*
X97661Y80398D01*
X97754Y80259D01*
X97865Y80133D01*
X97991Y80022D01*
X98131Y79929D01*
X98281Y79855D01*
X98440Y79801D01*
X98604Y79768D01*
X98772Y79757D01*
X98939Y79768D01*
X99103Y79801D01*
X99262Y79855D01*
X99413Y79929D01*
X99552Y80022D01*
X99678Y80133D01*
X99789Y80259D01*
X99882Y80398D01*
X99956Y80549D01*
X100010Y80708D01*
X100043Y80872D01*
X100054Y81039D01*
X100043Y81207D01*
X100010Y81371D01*
X99956Y81530D01*
X99882Y81681D01*
X99789Y81820D01*
X99678Y81946D01*
X99552Y82057D01*
X99413Y82150D01*
X99262Y82224D01*
X99103Y82278D01*
X98939Y82311D01*
X98772Y82322D01*
D02*
G37*
G36*
X93067Y84648D02*
X92900Y84637D01*
X92735Y84605D01*
X92576Y84551D01*
X92426Y84477D01*
X92286Y84383D01*
X92160Y84273D01*
X92050Y84147D01*
X91956Y84007D01*
X91882Y83857D01*
X91828Y83698D01*
X91796Y83534D01*
X91785Y83366D01*
X91796Y83199D01*
X91828Y83034D01*
X91882Y82875D01*
X91956Y82725D01*
X92050Y82586D01*
X92160Y82459D01*
X92286Y82349D01*
X92426Y82256D01*
X92576Y82182D01*
X92735Y82128D01*
X92900Y82095D01*
X93067Y82084D01*
X93234Y82095D01*
X93399Y82128D01*
X93558Y82182D01*
X93708Y82256D01*
X93848Y82349D01*
X93974Y82459D01*
X94084Y82586D01*
X94177Y82725D01*
X94252Y82875D01*
X94305Y83034D01*
X94338Y83199D01*
X94349Y83366D01*
X94338Y83534D01*
X94305Y83698D01*
X94252Y83857D01*
X94177Y84007D01*
X94084Y84147D01*
X93974Y84273D01*
X93848Y84383D01*
X93708Y84477D01*
X93558Y84551D01*
X93399Y84605D01*
X93234Y84637D01*
X93067Y84648D01*
D02*
G37*
G36*
X109906Y85463D02*
X109738Y85452D01*
X109574Y85420D01*
X109415Y85366D01*
X109264Y85292D01*
X109125Y85198D01*
X108999Y85088D01*
X108888Y84962D01*
X108795Y84822D01*
X108721Y84672D01*
X108667Y84513D01*
X108634Y84348D01*
X108623Y84181D01*
X108634Y84014D01*
X108667Y83849D01*
X108721Y83690D01*
X108795Y83540D01*
X108888Y83400D01*
X108999Y83274D01*
X109125Y83164D01*
X109264Y83071D01*
X109415Y82996D01*
X109574Y82942D01*
X109738Y82910D01*
X109906Y82899D01*
X110073Y82910D01*
X110237Y82942D01*
X110396Y82996D01*
X110547Y83071D01*
X110686Y83164D01*
X110812Y83274D01*
X110923Y83400D01*
X111016Y83540D01*
X111090Y83690D01*
X111144Y83849D01*
X111177Y84014D01*
X111188Y84181D01*
X111177Y84348D01*
X111144Y84513D01*
X111090Y84672D01*
X111016Y84822D01*
X110923Y84962D01*
X110812Y85088D01*
X110686Y85198D01*
X110547Y85292D01*
X110396Y85366D01*
X110237Y85420D01*
X110073Y85452D01*
X109906Y85463D01*
D02*
G37*
G36*
X88711Y84711D02*
X88543Y84700D01*
X88379Y84668D01*
X88220Y84614D01*
X88069Y84540D01*
X87930Y84446D01*
X87804Y84336D01*
X87693Y84210D01*
X87600Y84070D01*
X87526Y83920D01*
X87472Y83761D01*
X87439Y83596D01*
X87428Y83429D01*
X87439Y83262D01*
X87472Y83097D01*
X87526Y82938D01*
X87600Y82788D01*
X87693Y82648D01*
X87804Y82522D01*
X87930Y82412D01*
X88069Y82319D01*
X88220Y82244D01*
X88379Y82191D01*
X88543Y82158D01*
X88711Y82147D01*
X88878Y82158D01*
X89043Y82191D01*
X89201Y82244D01*
X89352Y82319D01*
X89491Y82412D01*
X89617Y82522D01*
X89728Y82648D01*
X89821Y82788D01*
X89895Y82938D01*
X89949Y83097D01*
X89982Y83262D01*
X89993Y83429D01*
X89982Y83596D01*
X89949Y83761D01*
X89895Y83920D01*
X89821Y84070D01*
X89728Y84210D01*
X89617Y84336D01*
X89491Y84446D01*
X89352Y84540D01*
X89201Y84614D01*
X89043Y84668D01*
X88878Y84700D01*
X88711Y84711D01*
D02*
G37*
G36*
X82024Y82318D02*
X81856Y82307D01*
X81692Y82274D01*
X81533Y82220D01*
X81383Y82146D01*
X81243Y82053D01*
X81117Y81942D01*
X81006Y81816D01*
X80913Y81677D01*
X80839Y81526D01*
X80785Y81367D01*
X80752Y81203D01*
X80741Y81035D01*
X80752Y80868D01*
X80785Y80704D01*
X80839Y80545D01*
X80913Y80394D01*
X81006Y80255D01*
X81117Y80129D01*
X81243Y80018D01*
X81383Y79925D01*
X81533Y79851D01*
X81692Y79797D01*
X81856Y79764D01*
X82024Y79753D01*
X82191Y79764D01*
X82355Y79797D01*
X82514Y79851D01*
X82665Y79925D01*
X82804Y80018D01*
X82930Y80129D01*
X83041Y80255D01*
X83134Y80394D01*
X83208Y80545D01*
X83262Y80704D01*
X83295Y80868D01*
X83306Y81035D01*
X83295Y81203D01*
X83262Y81367D01*
X83208Y81526D01*
X83134Y81677D01*
X83041Y81816D01*
X82930Y81942D01*
X82804Y82053D01*
X82665Y82146D01*
X82514Y82220D01*
X82355Y82274D01*
X82191Y82307D01*
X82024Y82318D01*
D02*
G37*
G36*
X90492Y75471D02*
X90325Y75460D01*
X90160Y75428D01*
X90001Y75374D01*
X89851Y75300D01*
X89711Y75206D01*
X89585Y75096D01*
X89475Y74970D01*
X89382Y74830D01*
X89307Y74680D01*
X89253Y74521D01*
X89221Y74356D01*
X89210Y74189D01*
X89221Y74022D01*
X89253Y73857D01*
X89307Y73698D01*
X89382Y73548D01*
X89475Y73408D01*
X89585Y73282D01*
X89711Y73172D01*
X89851Y73079D01*
X90001Y73004D01*
X90160Y72950D01*
X90325Y72918D01*
X90492Y72907D01*
X90659Y72918D01*
X90824Y72950D01*
X90983Y73004D01*
X91133Y73079D01*
X91273Y73172D01*
X91399Y73282D01*
X91509Y73408D01*
X91603Y73548D01*
X91677Y73698D01*
X91731Y73857D01*
X91763Y74022D01*
X91774Y74189D01*
X91763Y74356D01*
X91731Y74521D01*
X91677Y74680D01*
X91603Y74830D01*
X91509Y74970D01*
X91399Y75096D01*
X91273Y75206D01*
X91133Y75300D01*
X90983Y75374D01*
X90824Y75428D01*
X90659Y75460D01*
X90492Y75471D01*
D02*
G37*
G36*
X78138Y74826D02*
X77970Y74815D01*
X77806Y74782D01*
X77647Y74728D01*
X77497Y74654D01*
X77357Y74561D01*
X77231Y74450D01*
X77121Y74324D01*
X77027Y74184D01*
X76953Y74034D01*
X76899Y73875D01*
X76867Y73711D01*
X76855Y73543D01*
X76867Y73376D01*
X76899Y73211D01*
X76953Y73053D01*
X77027Y72902D01*
X77121Y72763D01*
X77231Y72637D01*
X77357Y72526D01*
X77497Y72433D01*
X77647Y72359D01*
X77806Y72305D01*
X77970Y72272D01*
X78138Y72261D01*
X78305Y72272D01*
X78470Y72305D01*
X78628Y72359D01*
X78779Y72433D01*
X78918Y72526D01*
X79045Y72637D01*
X79155Y72763D01*
X79248Y72902D01*
X79322Y73053D01*
X79376Y73211D01*
X79409Y73376D01*
X79420Y73543D01*
X79409Y73711D01*
X79376Y73875D01*
X79322Y74034D01*
X79248Y74184D01*
X79155Y74324D01*
X79045Y74450D01*
X78918Y74561D01*
X78779Y74654D01*
X78628Y74728D01*
X78470Y74782D01*
X78305Y74815D01*
X78138Y74826D01*
D02*
G37*
G36*
X94842Y77199D02*
X94675Y77188D01*
X94511Y77156D01*
X94352Y77102D01*
X94201Y77028D01*
X94062Y76934D01*
X93936Y76824D01*
X93825Y76698D01*
X93732Y76558D01*
X93658Y76408D01*
X93604Y76249D01*
X93571Y76085D01*
X93560Y75917D01*
X93571Y75750D01*
X93604Y75585D01*
X93658Y75426D01*
X93732Y75276D01*
X93825Y75137D01*
X93846Y75113D01*
X93878Y74977D01*
X93858Y74667D01*
X93839Y74580D01*
X93819Y74537D01*
X93784Y74484D01*
X93700Y74411D01*
X93589Y74284D01*
X93496Y74145D01*
X93422Y73995D01*
X93368Y73836D01*
X93335Y73671D01*
X93324Y73504D01*
X93335Y73337D01*
X93368Y73172D01*
X93422Y73013D01*
X93496Y72863D01*
X93589Y72723D01*
X93700Y72597D01*
X93826Y72487D01*
X93965Y72393D01*
X94116Y72319D01*
X94274Y72265D01*
X94439Y72233D01*
X94606Y72222D01*
X94774Y72233D01*
X94938Y72265D01*
X95097Y72319D01*
X95247Y72393D01*
X95387Y72487D01*
X95513Y72597D01*
X95519Y72605D01*
X95677Y72735D01*
X95934Y72792D01*
X96197Y72707D01*
X96320Y72646D01*
X96479Y72592D01*
X96644Y72559D01*
X96811Y72548D01*
X96978Y72559D01*
X97143Y72592D01*
X97302Y72646D01*
X97452Y72720D01*
X97592Y72813D01*
X97718Y72924D01*
X97828Y73050D01*
X97922Y73190D01*
X97996Y73340D01*
X98050Y73499D01*
X98058Y73540D01*
X98075Y73575D01*
X98254Y73754D01*
X98521Y73894D01*
X98589Y73904D01*
X98600Y73902D01*
X98768Y73891D01*
X98935Y73902D01*
X99100Y73935D01*
X99258Y73989D01*
X99409Y74063D01*
X99548Y74156D01*
X99674Y74267D01*
X99785Y74393D01*
X99878Y74532D01*
X99952Y74683D01*
X100006Y74841D01*
X100039Y75006D01*
X100050Y75173D01*
X100039Y75341D01*
X100006Y75505D01*
X99952Y75664D01*
X99878Y75814D01*
X99785Y75954D01*
X99674Y76080D01*
X99548Y76191D01*
X99409Y76284D01*
X99258Y76358D01*
X99100Y76412D01*
X98935Y76445D01*
X98768Y76456D01*
X98600Y76445D01*
X98436Y76412D01*
X98277Y76358D01*
X98127Y76284D01*
X97987Y76191D01*
X97861Y76080D01*
X97750Y75954D01*
X97657Y75814D01*
X97583Y75664D01*
X97529Y75505D01*
X97521Y75464D01*
X97504Y75429D01*
X97325Y75250D01*
X97058Y75110D01*
X96989Y75100D01*
X96978Y75102D01*
X96811Y75113D01*
X96644Y75102D01*
X96479Y75069D01*
X96379Y75035D01*
X96224Y75151D01*
X96033Y75418D01*
X96028Y75429D01*
X96081Y75585D01*
X96114Y75750D01*
X96125Y75917D01*
X96114Y76085D01*
X96081Y76249D01*
X96027Y76408D01*
X95953Y76558D01*
X95860Y76698D01*
X95749Y76824D01*
X95623Y76934D01*
X95484Y77028D01*
X95333Y77102D01*
X95174Y77156D01*
X95010Y77188D01*
X94842Y77199D01*
D02*
G37*
G36*
X111520Y81633D02*
X111352Y81622D01*
X111188Y81589D01*
X111029Y81535D01*
X110879Y81461D01*
X110739Y81368D01*
X110613Y81257D01*
X110502Y81131D01*
X110409Y80992D01*
X110335Y80841D01*
X110281Y80682D01*
X110248Y80518D01*
X110237Y80350D01*
X110245Y80243D01*
X110214Y80133D01*
X109995Y79821D01*
X109853Y79723D01*
X109774Y79707D01*
X109615Y79653D01*
X109465Y79579D01*
X109325Y79486D01*
X109199Y79375D01*
X109089Y79249D01*
X108995Y79110D01*
X108921Y78959D01*
X108867Y78800D01*
X108835Y78636D01*
X108824Y78469D01*
X108835Y78301D01*
X108867Y78137D01*
X108921Y77978D01*
X108995Y77827D01*
X109089Y77688D01*
X109199Y77562D01*
X109325Y77451D01*
X109465Y77358D01*
X109615Y77284D01*
X109774Y77230D01*
X109939Y77197D01*
X110106Y77186D01*
X110273Y77197D01*
X110438Y77230D01*
X110597Y77284D01*
X110747Y77358D01*
X110887Y77451D01*
X111013Y77562D01*
X111123Y77688D01*
X111216Y77827D01*
X111291Y77978D01*
X111345Y78137D01*
X111377Y78301D01*
X111388Y78469D01*
X111381Y78576D01*
X111412Y78685D01*
X111630Y78998D01*
X111772Y79096D01*
X111852Y79112D01*
X112010Y79166D01*
X112161Y79240D01*
X112300Y79333D01*
X112426Y79444D01*
X112537Y79570D01*
X112630Y79709D01*
X112704Y79860D01*
X112758Y80019D01*
X112791Y80183D01*
X112802Y80350D01*
X112791Y80518D01*
X112758Y80682D01*
X112704Y80841D01*
X112630Y80992D01*
X112537Y81131D01*
X112426Y81257D01*
X112300Y81368D01*
X112161Y81461D01*
X112010Y81535D01*
X111852Y81589D01*
X111687Y81622D01*
X111520Y81633D01*
D02*
G37*
G36*
X87559Y76806D02*
X87392Y76795D01*
X87227Y76762D01*
X87068Y76708D01*
X86918Y76634D01*
X86778Y76541D01*
X86652Y76430D01*
X86542Y76304D01*
X86449Y76165D01*
X86374Y76014D01*
X86321Y75855D01*
X86288Y75691D01*
X86277Y75524D01*
X86288Y75356D01*
X86321Y75192D01*
X86374Y75033D01*
X86449Y74883D01*
X86542Y74743D01*
X86652Y74617D01*
X86778Y74506D01*
X86918Y74413D01*
X87068Y74339D01*
X87227Y74285D01*
X87392Y74252D01*
X87559Y74241D01*
X87726Y74252D01*
X87891Y74285D01*
X88050Y74339D01*
X88200Y74413D01*
X88340Y74506D01*
X88466Y74617D01*
X88576Y74743D01*
X88670Y74883D01*
X88744Y75033D01*
X88798Y75192D01*
X88830Y75356D01*
X88841Y75524D01*
X88830Y75691D01*
X88798Y75855D01*
X88744Y76014D01*
X88670Y76165D01*
X88576Y76304D01*
X88466Y76430D01*
X88340Y76541D01*
X88200Y76634D01*
X88050Y76708D01*
X87891Y76762D01*
X87726Y76795D01*
X87559Y76806D01*
D02*
G37*
G36*
X81921Y85574D02*
X81754Y85563D01*
X81589Y85530D01*
X81431Y85476D01*
X81280Y85402D01*
X81141Y85309D01*
X81015Y85198D01*
X80904Y85072D01*
X80811Y84933D01*
X80737Y84782D01*
X80683Y84623D01*
X80650Y84459D01*
X80639Y84291D01*
X80650Y84124D01*
X80683Y83960D01*
X80737Y83801D01*
X80811Y83650D01*
X80904Y83511D01*
X81015Y83385D01*
X81141Y83274D01*
X81280Y83181D01*
X81431Y83107D01*
X81589Y83053D01*
X81754Y83020D01*
X81921Y83009D01*
X82089Y83020D01*
X82253Y83053D01*
X82412Y83107D01*
X82562Y83181D01*
X82702Y83274D01*
X82828Y83385D01*
X82938Y83511D01*
X83032Y83650D01*
X83106Y83801D01*
X83160Y83960D01*
X83193Y84124D01*
X83204Y84291D01*
X83193Y84459D01*
X83160Y84623D01*
X83106Y84782D01*
X83032Y84933D01*
X82938Y85072D01*
X82828Y85198D01*
X82702Y85309D01*
X82562Y85402D01*
X82412Y85476D01*
X82253Y85530D01*
X82089Y85563D01*
X81921Y85574D01*
D02*
G37*
G36*
X102744Y96011D02*
X102577Y96000D01*
X102412Y95967D01*
X102253Y95913D01*
X102103Y95839D01*
X101963Y95746D01*
X101837Y95635D01*
X101727Y95509D01*
X101634Y95369D01*
X101559Y95219D01*
X101505Y95060D01*
X101473Y94896D01*
X101462Y94728D01*
X101473Y94561D01*
X101505Y94397D01*
X101559Y94238D01*
X101634Y94087D01*
X101727Y93948D01*
X101837Y93822D01*
X101963Y93711D01*
X102103Y93618D01*
X102253Y93544D01*
X102412Y93490D01*
X102577Y93457D01*
X102744Y93446D01*
X102911Y93457D01*
X103076Y93490D01*
X103235Y93544D01*
X103385Y93618D01*
X103525Y93711D01*
X103651Y93822D01*
X103761Y93948D01*
X103855Y94087D01*
X103929Y94238D01*
X103983Y94397D01*
X104015Y94561D01*
X104026Y94728D01*
X104015Y94896D01*
X103983Y95060D01*
X103929Y95219D01*
X103855Y95369D01*
X103761Y95509D01*
X103651Y95635D01*
X103525Y95746D01*
X103385Y95839D01*
X103235Y95913D01*
X103076Y95967D01*
X102911Y96000D01*
X102744Y96011D01*
D02*
G37*
G36*
X80984Y93952D02*
X80817Y93941D01*
X80652Y93908D01*
X80494Y93854D01*
X80343Y93780D01*
X80204Y93687D01*
X80077Y93576D01*
X79967Y93450D01*
X79874Y93310D01*
X79800Y93160D01*
X79746Y93001D01*
X79713Y92837D01*
X79702Y92669D01*
X79713Y92502D01*
X79746Y92337D01*
X79800Y92179D01*
X79874Y92028D01*
X79967Y91889D01*
X80077Y91763D01*
X80204Y91652D01*
X80343Y91559D01*
X80494Y91485D01*
X80652Y91431D01*
X80817Y91398D01*
X80984Y91387D01*
X81152Y91398D01*
X81316Y91431D01*
X81475Y91485D01*
X81625Y91559D01*
X81765Y91652D01*
X81891Y91763D01*
X82002Y91889D01*
X82095Y92028D01*
X82169Y92179D01*
X82223Y92337D01*
X82256Y92502D01*
X82266Y92669D01*
X82256Y92837D01*
X82223Y93001D01*
X82169Y93160D01*
X82095Y93310D01*
X82002Y93450D01*
X81891Y93576D01*
X81765Y93687D01*
X81625Y93780D01*
X81475Y93854D01*
X81316Y93908D01*
X81152Y93941D01*
X80984Y93952D01*
D02*
G37*
G36*
X118465Y98841D02*
X118297Y98830D01*
X118133Y98798D01*
X117974Y98744D01*
X117823Y98669D01*
X117684Y98576D01*
X117558Y98466D01*
X117447Y98340D01*
X117354Y98200D01*
X117280Y98050D01*
X117226Y97891D01*
X117193Y97726D01*
X117182Y97559D01*
X117193Y97392D01*
X117226Y97227D01*
X117280Y97068D01*
X117354Y96918D01*
X117447Y96779D01*
X117558Y96652D01*
X117684Y96542D01*
X117823Y96449D01*
X117974Y96374D01*
X118133Y96320D01*
X118297Y96288D01*
X118465Y96277D01*
X118632Y96288D01*
X118797Y96320D01*
X118955Y96374D01*
X119106Y96449D01*
X119245Y96542D01*
X119371Y96652D01*
X119482Y96779D01*
X119575Y96918D01*
X119649Y97068D01*
X119703Y97227D01*
X119736Y97392D01*
X119747Y97559D01*
X119736Y97726D01*
X119703Y97891D01*
X119649Y98050D01*
X119575Y98200D01*
X119482Y98340D01*
X119371Y98466D01*
X119245Y98576D01*
X119106Y98669D01*
X118955Y98744D01*
X118797Y98798D01*
X118632Y98830D01*
X118465Y98841D01*
D02*
G37*
G36*
X88740Y102385D02*
X88573Y102374D01*
X88408Y102341D01*
X88249Y102287D01*
X88099Y102213D01*
X87960Y102120D01*
X87833Y102009D01*
X87723Y101883D01*
X87630Y101743D01*
X87555Y101593D01*
X87502Y101434D01*
X87469Y101270D01*
X87458Y101102D01*
X87469Y100935D01*
X87502Y100770D01*
X87555Y100612D01*
X87630Y100461D01*
X87723Y100322D01*
X87833Y100196D01*
X87960Y100085D01*
X88099Y99992D01*
X88249Y99918D01*
X88408Y99864D01*
X88573Y99831D01*
X88740Y99820D01*
X88907Y99831D01*
X89072Y99864D01*
X89231Y99918D01*
X89381Y99992D01*
X89521Y100085D01*
X89647Y100196D01*
X89758Y100322D01*
X89851Y100461D01*
X89925Y100612D01*
X89979Y100770D01*
X90012Y100935D01*
X90022Y101102D01*
X90012Y101270D01*
X89979Y101434D01*
X89925Y101593D01*
X89851Y101743D01*
X89758Y101883D01*
X89647Y102009D01*
X89521Y102120D01*
X89381Y102213D01*
X89231Y102287D01*
X89072Y102341D01*
X88907Y102374D01*
X88740Y102385D01*
D02*
G37*
G36*
X88346Y99235D02*
X88179Y99224D01*
X88015Y99191D01*
X87856Y99137D01*
X87705Y99063D01*
X87566Y98970D01*
X87440Y98860D01*
X87329Y98733D01*
X87236Y98594D01*
X87162Y98444D01*
X87108Y98285D01*
X87075Y98120D01*
X87064Y97953D01*
X87075Y97785D01*
X87108Y97621D01*
X87162Y97462D01*
X87236Y97312D01*
X87329Y97172D01*
X87440Y97046D01*
X87566Y96935D01*
X87705Y96842D01*
X87856Y96768D01*
X88015Y96714D01*
X88179Y96681D01*
X88346Y96671D01*
X88514Y96681D01*
X88678Y96714D01*
X88837Y96768D01*
X88988Y96842D01*
X89127Y96935D01*
X89253Y97046D01*
X89364Y97172D01*
X89457Y97312D01*
X89531Y97462D01*
X89585Y97621D01*
X89618Y97785D01*
X89629Y97953D01*
X89618Y98120D01*
X89585Y98285D01*
X89531Y98444D01*
X89457Y98594D01*
X89364Y98733D01*
X89253Y98860D01*
X89127Y98970D01*
X88988Y99063D01*
X88837Y99137D01*
X88678Y99191D01*
X88514Y99224D01*
X88346Y99235D01*
D02*
G37*
G36*
X110551Y93369D02*
X110384Y93358D01*
X110219Y93325D01*
X110061Y93271D01*
X109910Y93197D01*
X109771Y93104D01*
X109644Y92993D01*
X109534Y92867D01*
X109441Y92728D01*
X109367Y92577D01*
X109313Y92418D01*
X109280Y92254D01*
X109269Y92087D01*
X109280Y91919D01*
X109313Y91755D01*
X109367Y91596D01*
X109441Y91445D01*
X109534Y91306D01*
X109644Y91180D01*
X109771Y91069D01*
X109910Y90976D01*
X110061Y90902D01*
X110219Y90848D01*
X110384Y90815D01*
X110551Y90804D01*
X110719Y90815D01*
X110883Y90848D01*
X111042Y90902D01*
X111192Y90976D01*
X111332Y91069D01*
X111458Y91180D01*
X111568Y91306D01*
X111662Y91445D01*
X111736Y91596D01*
X111790Y91755D01*
X111822Y91919D01*
X111833Y92087D01*
X111822Y92254D01*
X111790Y92418D01*
X111736Y92577D01*
X111662Y92728D01*
X111568Y92867D01*
X111458Y92993D01*
X111332Y93104D01*
X111192Y93197D01*
X111042Y93271D01*
X110883Y93325D01*
X110719Y93358D01*
X110551Y93369D01*
D02*
G37*
G36*
X113087Y87963D02*
X112919Y87952D01*
X112755Y87920D01*
X112596Y87866D01*
X112445Y87792D01*
X112306Y87698D01*
X112180Y87588D01*
X112069Y87462D01*
X111976Y87322D01*
X111902Y87172D01*
X111848Y87013D01*
X111815Y86848D01*
X111804Y86681D01*
X111815Y86514D01*
X111848Y86349D01*
X111902Y86190D01*
X111976Y86040D01*
X112069Y85900D01*
X112180Y85774D01*
X112306Y85664D01*
X112445Y85571D01*
X112596Y85496D01*
X112755Y85443D01*
X112919Y85410D01*
X113087Y85399D01*
X113254Y85410D01*
X113418Y85443D01*
X113577Y85496D01*
X113728Y85571D01*
X113867Y85664D01*
X113993Y85774D01*
X114104Y85900D01*
X114197Y86040D01*
X114271Y86190D01*
X114325Y86349D01*
X114358Y86514D01*
X114369Y86681D01*
X114358Y86848D01*
X114325Y87013D01*
X114271Y87172D01*
X114197Y87322D01*
X114104Y87462D01*
X113993Y87588D01*
X113867Y87698D01*
X113728Y87792D01*
X113577Y87866D01*
X113418Y87920D01*
X113254Y87952D01*
X113087Y87963D01*
D02*
G37*
G36*
X105236Y87577D02*
X105069Y87567D01*
X104904Y87534D01*
X104745Y87480D01*
X104595Y87406D01*
X104456Y87313D01*
X104330Y87202D01*
X104219Y87076D01*
X104126Y86936D01*
X104052Y86786D01*
X103998Y86627D01*
X103965Y86463D01*
X103954Y86295D01*
X103965Y86128D01*
X103998Y85963D01*
X104052Y85805D01*
X104126Y85654D01*
X104219Y85515D01*
X104330Y85389D01*
X104456Y85278D01*
X104595Y85185D01*
X104745Y85111D01*
X104904Y85057D01*
X105069Y85024D01*
X105236Y85013D01*
X105404Y85024D01*
X105568Y85057D01*
X105727Y85111D01*
X105877Y85185D01*
X106017Y85278D01*
X106143Y85389D01*
X106254Y85515D01*
X106347Y85654D01*
X106421Y85805D01*
X106475Y85963D01*
X106508Y86128D01*
X106518Y86295D01*
X106508Y86463D01*
X106475Y86627D01*
X106421Y86786D01*
X106347Y86936D01*
X106254Y87076D01*
X106143Y87202D01*
X106017Y87313D01*
X105877Y87406D01*
X105727Y87480D01*
X105568Y87534D01*
X105404Y87567D01*
X105236Y87577D01*
D02*
G37*
G36*
X81453Y88751D02*
X81285Y88740D01*
X81121Y88707D01*
X80962Y88653D01*
X80812Y88579D01*
X80672Y88486D01*
X80546Y88375D01*
X80436Y88249D01*
X80342Y88110D01*
X80268Y87959D01*
X80214Y87800D01*
X80181Y87636D01*
X80171Y87468D01*
X80181Y87301D01*
X80214Y87137D01*
X80268Y86978D01*
X80342Y86827D01*
X80436Y86688D01*
X80546Y86562D01*
X80672Y86451D01*
X80812Y86358D01*
X80962Y86284D01*
X81121Y86230D01*
X81285Y86197D01*
X81453Y86186D01*
X81620Y86197D01*
X81785Y86230D01*
X81943Y86284D01*
X82094Y86358D01*
X82233Y86451D01*
X82359Y86562D01*
X82470Y86688D01*
X82563Y86827D01*
X82637Y86978D01*
X82691Y87137D01*
X82724Y87301D01*
X82735Y87468D01*
X82724Y87636D01*
X82691Y87800D01*
X82637Y87959D01*
X82563Y88110D01*
X82470Y88249D01*
X82359Y88375D01*
X82233Y88486D01*
X82094Y88579D01*
X81943Y88653D01*
X81785Y88707D01*
X81620Y88740D01*
X81453Y88751D01*
D02*
G37*
G36*
X93146Y89487D02*
X92978Y89476D01*
X92814Y89443D01*
X92655Y89389D01*
X92505Y89315D01*
X92365Y89222D01*
X92239Y89111D01*
X92128Y88985D01*
X92035Y88846D01*
X91961Y88695D01*
X91907Y88537D01*
X91874Y88372D01*
X91863Y88205D01*
X91874Y88037D01*
X91907Y87873D01*
X91961Y87714D01*
X92035Y87564D01*
X92128Y87424D01*
X92239Y87298D01*
X92365Y87187D01*
X92505Y87094D01*
X92655Y87020D01*
X92814Y86966D01*
X92978Y86933D01*
X93146Y86923D01*
X93313Y86933D01*
X93477Y86966D01*
X93636Y87020D01*
X93787Y87094D01*
X93926Y87187D01*
X94052Y87298D01*
X94163Y87424D01*
X94256Y87564D01*
X94330Y87714D01*
X94384Y87873D01*
X94417Y88037D01*
X94428Y88205D01*
X94417Y88372D01*
X94384Y88537D01*
X94330Y88695D01*
X94256Y88846D01*
X94163Y88985D01*
X94052Y89111D01*
X93926Y89222D01*
X93787Y89315D01*
X93636Y89389D01*
X93477Y89443D01*
X93313Y89476D01*
X93146Y89487D01*
D02*
G37*
G36*
X98006Y92769D02*
X97838Y92757D01*
X97674Y92725D01*
X97515Y92671D01*
X97365Y92597D01*
X97225Y92503D01*
X97099Y92393D01*
X96989Y92267D01*
X96895Y92127D01*
X96821Y91977D01*
X96767Y91818D01*
X96735Y91654D01*
X96724Y91486D01*
X96735Y91319D01*
X96767Y91154D01*
X96821Y90996D01*
X96835Y90968D01*
X96834Y90793D01*
X96769Y90562D01*
X96694Y90395D01*
X96644Y90341D01*
X96542Y90273D01*
X96416Y90163D01*
X96306Y90036D01*
X96212Y89897D01*
X96138Y89747D01*
X96084Y89588D01*
X96052Y89423D01*
X96041Y89256D01*
X96052Y89088D01*
X96084Y88924D01*
X96138Y88765D01*
X96212Y88615D01*
X96306Y88475D01*
X96416Y88349D01*
X96542Y88239D01*
X96682Y88145D01*
X96832Y88071D01*
X96991Y88017D01*
X97155Y87985D01*
X97323Y87974D01*
X97490Y87985D01*
X97655Y88017D01*
X97813Y88071D01*
X97823Y88076D01*
X98071Y87977D01*
X98158Y87914D01*
X98287Y87760D01*
X98285Y87721D01*
X98296Y87553D01*
X98328Y87389D01*
X98382Y87230D01*
X98457Y87079D01*
X98550Y86940D01*
X98660Y86814D01*
X98786Y86703D01*
X98926Y86610D01*
X99076Y86536D01*
X99235Y86482D01*
X99400Y86449D01*
X99567Y86438D01*
X99734Y86449D01*
X99899Y86482D01*
X100058Y86536D01*
X100208Y86610D01*
X100347Y86703D01*
X100474Y86814D01*
X100584Y86940D01*
X100677Y87079D01*
X100752Y87230D01*
X100805Y87389D01*
X100838Y87553D01*
X100849Y87721D01*
X100838Y87888D01*
X100805Y88052D01*
X100752Y88211D01*
X100677Y88362D01*
X100584Y88501D01*
X100474Y88627D01*
X100347Y88738D01*
X100208Y88831D01*
X100058Y88905D01*
X99899Y88959D01*
X99734Y88992D01*
X99567Y89003D01*
X99400Y88992D01*
X99235Y88959D01*
X99076Y88905D01*
X99067Y88900D01*
X98819Y88999D01*
X98732Y89062D01*
X98602Y89216D01*
X98605Y89256D01*
X98594Y89423D01*
X98561Y89588D01*
X98507Y89747D01*
X98494Y89775D01*
X98495Y90036D01*
X98634Y90348D01*
X98685Y90401D01*
X98786Y90469D01*
X98913Y90579D01*
X99023Y90706D01*
X99116Y90845D01*
X99191Y90996D01*
X99244Y91154D01*
X99277Y91319D01*
X99288Y91486D01*
X99277Y91654D01*
X99244Y91818D01*
X99191Y91977D01*
X99116Y92127D01*
X99023Y92267D01*
X98913Y92393D01*
X98786Y92503D01*
X98647Y92597D01*
X98497Y92671D01*
X98338Y92725D01*
X98173Y92757D01*
X98006Y92769D01*
D02*
G37*
%LPD*%
G36*
X131150Y174496D02*
X131291Y173693D01*
X131527Y172984D01*
X131858Y172370D01*
X132283Y171850D01*
X132803Y171425D01*
X133417Y171095D01*
X134126Y170858D01*
X134929Y170717D01*
X135827Y170669D01*
X135135Y168307D01*
X134204Y168274D01*
X133300Y168174D01*
X132425Y168006D01*
X131577Y167773D01*
X130756Y167472D01*
X129964Y167104D01*
X129199Y166670D01*
X128461Y166169D01*
X127752Y165601D01*
X127070Y164966D01*
X125399Y166637D01*
X126034Y167319D01*
X126602Y168028D01*
X127103Y168766D01*
X127538Y169531D01*
X127905Y170323D01*
X128206Y171144D01*
X128439Y171992D01*
X128606Y172867D01*
X128707Y173771D01*
X128740Y174702D01*
X131102Y175394D01*
X131150Y174496D01*
D02*
G37*
G36*
X158498Y172829D02*
X157897Y172161D01*
X157429Y171493D01*
X157095Y170824D01*
X156894Y170156D01*
X156828Y169488D01*
X156894Y168820D01*
X157095Y168152D01*
X157429Y167484D01*
X157897Y166816D01*
X158498Y166147D01*
X156338Y164966D01*
X155656Y165601D01*
X154947Y166169D01*
X154209Y166670D01*
X153444Y167104D01*
X152652Y167472D01*
X151831Y167773D01*
X150983Y168006D01*
X150108Y168174D01*
X149204Y168274D01*
X148273Y168307D01*
Y170669D01*
X149204Y170703D01*
X150108Y170803D01*
X150983Y170970D01*
X151831Y171204D01*
X152652Y171504D01*
X153444Y171872D01*
X154209Y172306D01*
X154947Y172807D01*
X155656Y173375D01*
X156338Y174010D01*
X158498Y172829D01*
D02*
G37*
G36*
X166887Y194222D02*
X166840Y194265D01*
X166788Y194304D01*
X166732Y194338D01*
X166670Y194367D01*
X166603Y194392D01*
X166531Y194413D01*
X166455Y194428D01*
X166373Y194440D01*
X166286Y194447D01*
X166195Y194449D01*
Y195236D01*
X166286Y195238D01*
X166373Y195245D01*
X166455Y195257D01*
X166531Y195272D01*
X166603Y195293D01*
X166670Y195318D01*
X166732Y195347D01*
X166788Y195381D01*
X166840Y195420D01*
X166887Y195463D01*
Y194222D01*
D02*
G37*
G36*
X95500Y230007D02*
X95567Y229952D01*
X95635Y229903D01*
X95706Y229861D01*
X95778Y229825D01*
X95853Y229796D01*
X95929Y229773D01*
X96007Y229757D01*
X96088Y229747D01*
X96170Y229744D01*
Y229153D01*
X96088Y229150D01*
X96007Y229140D01*
X95929Y229124D01*
X95853Y229102D01*
X95778Y229072D01*
X95706Y229037D01*
X95635Y228994D01*
X95567Y228946D01*
X95500Y228890D01*
X95436Y228829D01*
Y230069D01*
X95500Y230007D01*
D02*
G37*
G36*
X157807Y235765D02*
X157870Y235715D01*
X157937Y235671D01*
X158007Y235633D01*
X158080Y235601D01*
X158157Y235576D01*
X158237Y235556D01*
X158320Y235542D01*
X158406Y235533D01*
X158495Y235531D01*
X157618Y234654D01*
X157616Y234744D01*
X157608Y234830D01*
X157594Y234913D01*
X157574Y234993D01*
X157548Y235069D01*
X157516Y235142D01*
X157478Y235212D01*
X157434Y235279D01*
X157385Y235343D01*
X157329Y235403D01*
X157746Y235821D01*
X157807Y235765D01*
D02*
G37*
D10*
X73760Y110177D02*
X75630Y112047D01*
X87087D01*
X88740Y113701D01*
X94803Y229449D02*
X130669D01*
X137244Y236024D01*
X157126D01*
X158504Y234646D01*
D55*
X34134Y74685D02*
X38819Y70000D01*
X51417Y125866D02*
X55905D01*
X56693Y126654D01*
X86221D01*
X87047Y127480D01*
X90315D01*
X91890Y125906D01*
X40039Y84610D02*
Y98228D01*
X40866Y108382D02*
Y130079D01*
X45000Y134213D01*
X42205Y107402D02*
Y129095D01*
X45906Y132795D01*
X45000Y134213D02*
X71339D01*
X45906Y132795D02*
X71890D01*
X71339Y134213D02*
X80512Y143386D01*
X71890Y132795D02*
X80866Y141772D01*
X95630D01*
X72441Y131417D02*
X81535Y140512D01*
X43543Y107008D02*
Y127756D01*
X47205Y131417D01*
X72441D01*
X44921Y126969D02*
X48110Y130157D01*
X79685D01*
X19410Y86925D02*
X40866Y108382D01*
X21457Y86654D02*
X42205Y107402D01*
X34134Y97598D02*
X43543Y107008D01*
X44921Y106772D02*
Y126969D01*
X35945Y97795D02*
X44921Y106772D01*
X46339Y106575D02*
Y125984D01*
X37756Y97992D02*
X46339Y106575D01*
Y125984D02*
X49252Y128898D01*
X80433D01*
X85413Y133878D01*
X84213Y127638D02*
X87303Y130728D01*
X50236Y127638D02*
X84213D01*
X47717Y125118D02*
X50236Y127638D01*
X47717Y105905D02*
Y125118D01*
X40039Y98228D02*
X47717Y105905D01*
X78307Y109055D02*
X93543D01*
X77008Y110354D02*
X78307Y109055D01*
X93543D02*
X95039Y110551D01*
X87303Y130728D02*
X95651D01*
X85413Y133878D02*
X99862D01*
X37756Y82795D02*
Y97992D01*
X35945Y79370D02*
Y97795D01*
X34134Y74685D02*
Y97598D01*
X21457Y68976D02*
Y86654D01*
X19410Y66929D02*
X21457Y68976D01*
X37756Y82795D02*
X40000Y80551D01*
X35945Y79370D02*
X39803Y75512D01*
X148516Y122244D02*
Y128791D01*
X138358Y112087D02*
X148516Y122244D01*
X133122Y112087D02*
X138358D01*
X146677Y130630D02*
X148516Y128791D01*
X130012Y108976D02*
X133122Y112087D01*
X107638Y108976D02*
X130012D01*
X103106Y111417D02*
Y113701D01*
X102874Y111185D02*
X103106Y111417D01*
X102874Y109687D02*
Y111185D01*
X105551Y109043D02*
X107571D01*
X105331Y108823D02*
X105551Y109043D01*
X103739Y108823D02*
X105331D01*
X102874Y109687D02*
X103739Y108823D01*
X103094Y114669D02*
X103701Y115276D01*
X103094Y113882D02*
Y114669D01*
X97795Y130630D02*
X113543D01*
X146677D01*
X99226Y124331D02*
X109016D01*
X97127Y132205D02*
X98189D01*
X99862Y133878D02*
X101339Y135354D01*
X100277Y138504D02*
X101339D01*
X98800Y139980D02*
X100277Y138504D01*
X95651Y130728D02*
X97127Y132205D01*
X124567Y133780D02*
X130748D01*
X96653Y136890D02*
X98189Y135354D01*
X79685Y130157D02*
X86417Y136890D01*
X80512Y143386D02*
X99606D01*
X101339Y141654D01*
X95630Y141772D02*
X97421Y139980D01*
X98800D01*
X81535Y140512D02*
X95119D01*
X97127Y138504D01*
X98189D01*
X86417Y136890D02*
X96653D01*
D56*
X189331Y30669D02*
X200000Y20000D01*
X191890Y38110D02*
X200000Y30000D01*
X194449Y45551D02*
X200000Y40000D01*
X10000Y30000D02*
X15354Y35354D01*
Y82870D01*
X19410Y86925D01*
X10000Y20000D02*
X17323Y27323D01*
Y64842D01*
X19410Y66929D01*
X164882Y193622D02*
X166102Y194843D01*
X167520D01*
X126142Y132205D02*
X160394D01*
X122992D02*
X124567Y133780D01*
X194449Y45551D02*
Y105630D01*
X126142Y135354D02*
X128504Y137716D01*
X162362D01*
X194449Y105630D01*
X130748Y133780D02*
X162835D01*
X191890Y104724D01*
Y38110D02*
Y104724D01*
X189331Y30669D02*
Y103268D01*
X160394Y132205D02*
X189331Y103268D01*
X112756Y207677D02*
X137677Y232598D01*
X98465Y147677D02*
X101339Y144803D01*
X98465Y147677D02*
Y171811D01*
X112756Y186102D01*
Y207677D01*
D58*
X103106Y113701D02*
X104488D01*
X107571Y109043D02*
X107638Y108976D01*
Y110551D01*
X119843Y129055D02*
Y130433D01*
X116693Y108976D02*
Y110551D01*
X113543Y129055D02*
Y130630D01*
X101339Y124331D02*
Y125906D01*
X104488Y129055D02*
Y130630D01*
D64*
X100000Y9803D02*
D03*
D65*
Y19803D02*
D03*
X90000Y9803D02*
D03*
Y19803D02*
D03*
X80000Y9803D02*
D03*
Y19803D02*
D03*
X70000Y9803D02*
D03*
Y19803D02*
D03*
X10000Y20000D02*
D03*
Y60000D02*
D03*
Y50000D02*
D03*
Y40000D02*
D03*
Y30000D02*
D03*
X200197Y185965D02*
D03*
Y195965D02*
D03*
Y175964D02*
D03*
Y165964D02*
D03*
Y145965D02*
D03*
Y135965D02*
D03*
Y125964D02*
D03*
Y115964D02*
D03*
Y155965D02*
D03*
X10000Y110000D02*
D03*
Y150000D02*
D03*
Y140000D02*
D03*
Y130000D02*
D03*
Y120000D02*
D03*
Y100000D02*
D03*
Y90000D02*
D03*
X156378Y262087D02*
D03*
X200000Y70000D02*
D03*
Y30000D02*
D03*
Y40000D02*
D03*
Y50000D02*
D03*
Y60000D02*
D03*
Y80000D02*
D03*
Y90000D02*
D03*
D66*
X10000Y70000D02*
D03*
X200197Y105965D02*
D03*
X10000Y160000D02*
D03*
X200000Y20000D02*
D03*
D67*
X156378Y252087D02*
D03*
D68*
X107520Y116535D02*
D03*
X37638Y188976D02*
D03*
X28464Y166811D02*
D03*
X28465Y174843D02*
D03*
X25905Y174882D02*
D03*
X25669Y193622D02*
D03*
X29213Y193543D02*
D03*
X40295Y184902D02*
D03*
X40276Y175354D02*
D03*
X60748Y180039D02*
D03*
X57677Y179921D02*
D03*
X56221Y177520D02*
D03*
X59606Y177598D02*
D03*
X59488Y182402D02*
D03*
X56260Y182362D02*
D03*
X59862Y208681D02*
D03*
X57303Y208642D02*
D03*
X54744Y208642D02*
D03*
X52185Y208681D02*
D03*
X41831Y198130D02*
D03*
X44626Y195531D02*
D03*
X53839Y203346D02*
D03*
X56122Y201929D02*
D03*
X51457Y201752D02*
D03*
X58425Y203327D02*
D03*
X41575Y202047D02*
D03*
Y204488D02*
D03*
X43976D02*
D03*
X46457D02*
D03*
X51417Y125866D02*
D03*
X66023Y147677D02*
D03*
X57579Y158091D02*
D03*
X48327D02*
D03*
Y146083D02*
D03*
X57579D02*
D03*
X66299Y139370D02*
D03*
X62323Y138465D02*
D03*
X38937Y160847D02*
D03*
X45177Y174429D02*
D03*
X42697Y174429D02*
D03*
X39106Y150366D02*
D03*
X67756Y167874D02*
D03*
X37402Y263661D02*
D03*
X57441Y84173D02*
D03*
X56142Y86260D02*
D03*
X54449Y91457D02*
D03*
X49449Y51929D02*
D03*
Y56968D02*
D03*
X49488Y61929D02*
D03*
X68779Y110216D02*
D03*
Y112461D02*
D03*
X77008Y110354D02*
D03*
X102559Y169646D02*
D03*
X106653D02*
D03*
X128937Y150984D02*
D03*
X136693Y142520D02*
D03*
X78110Y113898D02*
D03*
X110591Y138858D02*
D03*
X104291Y156968D02*
D03*
X50709Y223622D02*
D03*
X79043Y265878D02*
D03*
X95886Y261319D02*
D03*
X84606Y235748D02*
D03*
X88189Y237520D02*
D03*
X91693Y239213D02*
D03*
X68504Y248701D02*
D03*
X78425Y231929D02*
D03*
X77244Y241102D02*
D03*
X73701Y241063D02*
D03*
X101024Y122756D02*
D03*
X94646Y116457D02*
D03*
X104095Y116850D02*
D03*
X107598Y122756D02*
D03*
X84921Y116724D02*
D03*
X85591Y113701D02*
D03*
X91890Y125906D02*
D03*
X88740D02*
D03*
Y129055D02*
D03*
X102165Y183150D02*
D03*
X105984Y186299D02*
D03*
X98583Y178307D02*
D03*
X98425Y181220D02*
D03*
X89921Y189567D02*
D03*
X100236Y190039D02*
D03*
X98228Y188150D02*
D03*
X96220Y191890D02*
D03*
X110039Y190945D02*
D03*
X182815Y246634D02*
D03*
X179842Y242520D02*
D03*
X180866Y248583D02*
D03*
X203543Y250945D02*
D03*
X203583Y255236D02*
D03*
X168425Y255196D02*
D03*
X168386Y250905D02*
D03*
X109370Y255196D02*
D03*
X109331Y250905D02*
D03*
X144528Y255236D02*
D03*
X144488Y250945D02*
D03*
X206496Y265866D02*
D03*
X206378Y260236D02*
D03*
X165472Y265866D02*
D03*
X165354Y260236D02*
D03*
X147441Y265866D02*
D03*
X147323Y260236D02*
D03*
X106299D02*
D03*
X106417Y265866D02*
D03*
X121063Y248465D02*
D03*
X119449Y240984D02*
D03*
X122087Y240945D02*
D03*
X123504Y246969D02*
D03*
X117047Y195748D02*
D03*
X120551Y186063D02*
D03*
X122874D02*
D03*
X125748Y165315D02*
D03*
X130157Y161772D02*
D03*
X133661Y164370D02*
D03*
X131260D02*
D03*
X121102Y197520D02*
D03*
Y195197D02*
D03*
X133898Y210748D02*
D03*
X131457D02*
D03*
X149882Y210709D02*
D03*
X152244D02*
D03*
X169764Y155354D02*
D03*
X169724Y157638D02*
D03*
X149173Y160276D02*
D03*
X149961Y153937D02*
D03*
X145630Y164331D02*
D03*
X143268Y164370D02*
D03*
X169488Y169567D02*
D03*
X181142Y179488D02*
D03*
X175906Y183071D02*
D03*
X178228Y174331D02*
D03*
X180866Y171496D02*
D03*
X173504Y161339D02*
D03*
X167441Y179882D02*
D03*
X171417Y183031D02*
D03*
X161339Y164331D02*
D03*
X158898Y164331D02*
D03*
X171732Y196693D02*
D03*
X173504Y191772D02*
D03*
X167520Y194843D02*
D03*
Y192441D02*
D03*
X165591Y197008D02*
D03*
X167520Y190039D02*
D03*
X120158Y203598D02*
D03*
X117913Y203583D02*
D03*
X103996Y220374D02*
D03*
X104055Y218071D02*
D03*
X53228Y88701D02*
D03*
X50965Y88760D02*
D03*
X47972Y103327D02*
D03*
X47913Y101063D02*
D03*
X31063Y108110D02*
D03*
X31063Y113937D02*
D03*
X37087Y119646D02*
D03*
X37126Y108110D02*
D03*
X43937Y97205D02*
D03*
X26984Y97268D02*
D03*
X19410Y86925D02*
D03*
Y66929D02*
D03*
X38819Y70000D02*
D03*
X39803Y75512D02*
D03*
X40000Y80551D02*
D03*
X40083Y84413D02*
D03*
X110551Y92087D02*
D03*
X66378Y72047D02*
D03*
X74016Y72047D02*
D03*
X66378Y79055D02*
D03*
X74016Y79055D02*
D03*
X74016Y65118D02*
D03*
X66378Y65118D02*
D03*
X66378Y58110D02*
D03*
X74016Y58110D02*
D03*
X94606Y73504D02*
D03*
X94835Y65728D02*
D03*
X94842Y75917D02*
D03*
X82504Y56988D02*
D03*
X112228Y62035D02*
D03*
X110134Y60740D02*
D03*
X110476Y63437D02*
D03*
X102701Y64311D02*
D03*
X86441Y68583D02*
D03*
X86791Y71929D02*
D03*
X84953Y56996D02*
D03*
X86980Y58272D02*
D03*
X105681Y57988D02*
D03*
X120012Y106913D02*
D03*
X101154Y107189D02*
D03*
X104264Y107106D02*
D03*
X116689Y86693D02*
D03*
X113087Y86681D02*
D03*
X115512Y203425D02*
D03*
X132835Y108780D02*
D03*
X123386Y101102D02*
D03*
X126142Y104252D02*
D03*
X126535Y101102D02*
D03*
X88346Y97953D02*
D03*
X107638Y135354D02*
D03*
X124764Y145197D02*
D03*
X132835Y140276D02*
D03*
X93268Y145197D02*
D03*
X118465Y97559D02*
D03*
X91496Y122756D02*
D03*
X102717Y97559D02*
D03*
X107638Y113701D02*
D03*
Y110551D02*
D03*
Y125906D02*
D03*
Y129055D02*
D03*
Y132205D02*
D03*
X88740Y113701D02*
D03*
Y104252D02*
D03*
Y101102D02*
D03*
X91890Y107402D02*
D03*
Y104252D02*
D03*
Y101102D02*
D03*
X95039Y110551D02*
D03*
Y107402D02*
D03*
Y104252D02*
D03*
Y101102D02*
D03*
X97941Y110197D02*
D03*
X98189Y104252D02*
D03*
X101421Y114114D02*
D03*
X101350Y110342D02*
D03*
X101339Y104252D02*
D03*
X104638Y114071D02*
D03*
X104350Y110299D02*
D03*
X104488Y104252D02*
D03*
X98189Y141654D02*
D03*
X104488Y138504D02*
D03*
X101339D02*
D03*
X98189D02*
D03*
X95039D02*
D03*
X88740D02*
D03*
X104488Y135354D02*
D03*
X101339D02*
D03*
X98189D02*
D03*
X91890D02*
D03*
X104488Y132205D02*
D03*
X101339D02*
D03*
X98189D02*
D03*
X95039D02*
D03*
X91890D02*
D03*
X88740D02*
D03*
X104488Y129055D02*
D03*
X101339D02*
D03*
X98189D02*
D03*
X95039D02*
D03*
X91890D02*
D03*
X104488Y125906D02*
D03*
X101339D02*
D03*
X98189D02*
D03*
X95039D02*
D03*
Y122756D02*
D03*
X104331Y122795D02*
D03*
X129291Y135354D02*
D03*
X126142Y129055D02*
D03*
Y132205D02*
D03*
Y135354D02*
D03*
X122992Y132205D02*
D03*
Y138504D02*
D03*
X119843Y125906D02*
D03*
Y129055D02*
D03*
Y132205D02*
D03*
X116693Y125906D02*
D03*
Y129055D02*
D03*
Y141654D02*
D03*
X113543Y125906D02*
D03*
Y129055D02*
D03*
Y135354D02*
D03*
X113543Y120000D02*
D03*
X116693D02*
D03*
X119843D02*
D03*
X122992D02*
D03*
Y116850D02*
D03*
X119843D02*
D03*
X116693D02*
D03*
X119843Y113701D02*
D03*
X116693D02*
D03*
X113543D02*
D03*
X126142Y110551D02*
D03*
X122992D02*
D03*
X119760Y110925D02*
D03*
X116504Y110776D02*
D03*
X113543Y110551D02*
D03*
X116823Y107019D02*
D03*
X113543Y107402D02*
D03*
X122992Y104252D02*
D03*
X113543Y101102D02*
D03*
X132835Y124528D02*
D03*
X109016Y145197D02*
D03*
X124173Y174724D02*
D03*
X164331Y172756D02*
D03*
Y200315D02*
D03*
X143268Y207598D02*
D03*
X126535Y119606D02*
D03*
X101339Y141654D02*
D03*
X136831Y195059D02*
D03*
X151850Y195169D02*
D03*
X136535Y179713D02*
D03*
X144252Y187520D02*
D03*
X151850Y179783D02*
D03*
X155079Y210433D02*
D03*
X165630Y202283D02*
D03*
X157047Y207598D02*
D03*
X159016Y208898D02*
D03*
X96831Y56957D02*
D03*
X94854Y58272D02*
D03*
X100768Y56957D02*
D03*
X98791Y58272D02*
D03*
X102728D02*
D03*
X79571Y63689D02*
D03*
X78256Y65650D02*
D03*
X79571Y67626D02*
D03*
X78256Y69587D02*
D03*
X79571Y71563D02*
D03*
X92634Y65284D02*
D03*
X90760Y63567D02*
D03*
X110106Y78469D02*
D03*
X96811Y73831D02*
D03*
X98768Y75173D02*
D03*
X102693Y83343D02*
D03*
X99567Y87721D02*
D03*
X98006Y91486D02*
D03*
X97323Y89256D02*
D03*
X95319Y80918D02*
D03*
X105236Y86295D02*
D03*
X102744Y94728D02*
D03*
X111520Y80350D02*
D03*
X109906Y84181D02*
D03*
X110114Y73055D02*
D03*
X112634Y71524D02*
D03*
X112689Y76091D02*
D03*
X104791Y73417D02*
D03*
X90902Y81090D02*
D03*
X93067Y83366D02*
D03*
X88711Y83429D02*
D03*
X98772Y81039D02*
D03*
X99039Y84941D02*
D03*
X82024Y81035D02*
D03*
X85677Y83882D02*
D03*
X80984Y92669D02*
D03*
X81921Y84291D02*
D03*
X87559Y75524D02*
D03*
X81453Y87468D02*
D03*
X84622Y73488D02*
D03*
X89472Y68594D02*
D03*
X88968Y70807D02*
D03*
X90492Y74189D02*
D03*
X78138Y73543D02*
D03*
X79295Y75504D02*
D03*
X93146Y88205D02*
D03*
X70382Y259287D02*
D03*
X79043D02*
D03*
X85197Y130827D02*
D03*
X82008Y135354D02*
D03*
X82047Y138504D02*
D03*
X101339Y144803D02*
D03*
X104646Y146890D02*
D03*
X19449Y51929D02*
D03*
Y56929D02*
D03*
Y61929D02*
D03*
Y71929D02*
D03*
Y81929D02*
D03*
X104331Y149331D02*
D03*
X101811Y157795D02*
D03*
X107087Y157756D02*
D03*
X142244Y111929D02*
D03*
X144803Y114488D02*
D03*
X145866Y140591D02*
D03*
X163937Y140827D02*
D03*
X159606Y143740D02*
D03*
X150630Y143701D02*
D03*
X137559Y124528D02*
D03*
X140236D02*
D03*
X142756D02*
D03*
X145591D02*
D03*
X136142Y114764D02*
D03*
X138465D02*
D03*
X141417Y135886D02*
D03*
X137441Y135846D02*
D03*
X151634Y106713D02*
D03*
X158602Y108287D02*
D03*
X153937Y108110D02*
D03*
X156220Y106693D02*
D03*
X143524Y106280D02*
D03*
X145846D02*
D03*
X145827Y103878D02*
D03*
X143484Y103917D02*
D03*
X178366Y111004D02*
D03*
X169862Y106634D02*
D03*
X167264Y103957D02*
D03*
X175079Y94744D02*
D03*
X173661Y92461D02*
D03*
X173484Y97126D02*
D03*
X175059Y90158D02*
D03*
X173779Y107008D02*
D03*
X176221D02*
D03*
Y104606D02*
D03*
Y102126D02*
D03*
X141417Y98504D02*
D03*
X143661Y98543D02*
D03*
X145945D02*
D03*
X148307Y98583D02*
D03*
X147795Y70551D02*
D03*
X145433Y70512D02*
D03*
X143150D02*
D03*
X140905Y70472D02*
D03*
X175709Y74094D02*
D03*
Y76575D02*
D03*
Y78976D02*
D03*
X173268D02*
D03*
X174547Y62126D02*
D03*
X172972Y69095D02*
D03*
X173150Y64429D02*
D03*
X174567Y66713D02*
D03*
X166752Y75925D02*
D03*
X169350Y78720D02*
D03*
X142992Y51260D02*
D03*
X151890D02*
D03*
X152323Y79449D02*
D03*
X143425D02*
D03*
X143465Y85866D02*
D03*
X152342Y85886D02*
D03*
X143012Y57697D02*
D03*
X151929Y57677D02*
D03*
X185787Y185906D02*
D03*
X185748Y190276D02*
D03*
X82559Y152323D02*
D03*
Y165591D02*
D03*
X172441Y141496D02*
D03*
X168465Y141457D02*
D03*
X172480Y149291D02*
D03*
X103150Y204410D02*
D03*
X97559Y209961D02*
D03*
X108701Y209803D02*
D03*
X108780Y199055D02*
D03*
X97835D02*
D03*
X90118Y207402D02*
D03*
X90236Y201457D02*
D03*
X137677Y232598D02*
D03*
X140433Y246772D02*
D03*
X150039Y228740D02*
D03*
X147913Y231496D02*
D03*
X152126Y231417D02*
D03*
Y226024D02*
D03*
X147913D02*
D03*
X166654Y224921D02*
D03*
X158504Y234646D02*
D03*
X161181Y217362D02*
D03*
X163622Y215118D02*
D03*
X165394Y217284D02*
D03*
X169528Y217205D02*
D03*
X167047Y215039D02*
D03*
X169685Y220945D02*
D03*
X173071Y220905D02*
D03*
X171457Y224016D02*
D03*
X165512Y239961D02*
D03*
X169606Y240000D02*
D03*
X167756Y238228D02*
D03*
X170158Y228386D02*
D03*
X106102Y223858D02*
D03*
X176496Y237323D02*
D03*
X174173Y239213D02*
D03*
X176535Y241535D02*
D03*
X173779Y243543D02*
D03*
X176260Y244843D02*
D03*
X192953Y246693D02*
D03*
X195866D02*
D03*
X198898D02*
D03*
X197559Y244331D02*
D03*
X194882D02*
D03*
X198268Y232362D02*
D03*
X94803Y229449D02*
D03*
X126417Y208740D02*
D03*
X129055Y211575D02*
D03*
X112598Y222047D02*
D03*
X115787Y215748D02*
D03*
X115079Y219213D02*
D03*
X66614Y90315D02*
D03*
X72047Y84724D02*
D03*
X39331Y62717D02*
D03*
X39016Y52284D02*
D03*
X191220Y229095D02*
D03*
X186890Y220276D02*
D03*
X181929Y215197D02*
D03*
X181024Y206339D02*
D03*
X181142Y198110D02*
D03*
X181339Y189567D02*
D03*
X174331Y195039D02*
D03*
X174528Y204252D02*
D03*
X174449Y214173D02*
D03*
X177205Y222165D02*
D03*
X184488Y231181D02*
D03*
X107874Y231102D02*
D03*
X144724Y213189D02*
D03*
X132283Y213268D02*
D03*
X113150Y244449D02*
D03*
X61890Y237598D02*
D03*
X68032Y177520D02*
D03*
X83150Y176535D02*
D03*
X83346Y189134D02*
D03*
Y202323D02*
D03*
X69410Y191260D02*
D03*
X69291Y205906D02*
D03*
X89567Y231339D02*
D03*
X65709Y234252D02*
D03*
X185039Y154055D02*
D03*
X186378Y167323D02*
D03*
X176496Y145709D02*
D03*
X184961Y60118D02*
D03*
X69567Y161063D02*
D03*
X66890Y145000D02*
D03*
X43819Y209685D02*
D03*
X73858Y110079D02*
D03*
X114134Y234626D02*
D03*
Y232382D02*
D03*
X91890Y110551D02*
D03*
X98165Y114114D02*
D03*
X95039Y113701D02*
D03*
X91693Y113425D02*
D03*
X97598Y117244D02*
D03*
X91693Y250433D02*
D03*
X91890Y138504D02*
D03*
X95039Y135354D02*
D03*
X60394Y84252D02*
D03*
D69*
X162126Y190866D02*
X164882Y193622D01*
X162126Y178127D02*
Y190866D01*
X153487Y169488D02*
X162126Y178127D01*
X129921Y169488D02*
X153487D01*
X158575Y164400D01*
X129921Y169488D02*
Y186043D01*
X121102Y194862D02*
X129921Y186043D01*
X125748Y165315D02*
X129921Y169488D01*
M02*
