G04 Layer_Color=8388736*
%FSLAX25Y25*%
%MOIN*%
G70*
G01*
G75*
G04:AMPARAMS|DCode=11|XSize=35.43mil|YSize=31.5mil|CornerRadius=3.15mil|HoleSize=0mil|Usage=FLASHONLY|Rotation=90.000|XOffset=0mil|YOffset=0mil|HoleType=Round|Shape=RoundedRectangle|*
%AMROUNDEDRECTD11*
21,1,0.03543,0.02520,0,0,90.0*
21,1,0.02913,0.03150,0,0,90.0*
1,1,0.00630,0.01260,0.01457*
1,1,0.00630,0.01260,-0.01457*
1,1,0.00630,-0.01260,-0.01457*
1,1,0.00630,-0.01260,0.01457*
%
%ADD11ROUNDEDRECTD11*%
%ADD12O,0.05512X0.02362*%
%ADD13O,0.03228X0.01063*%
%ADD14O,0.01063X0.03228*%
%ADD15R,0.17520X0.17520*%
%ADD16R,0.02913X0.02126*%
%ADD17O,0.02362X0.06299*%
G04:AMPARAMS|DCode=18|XSize=74.8mil|YSize=53.15mil|CornerRadius=5.32mil|HoleSize=0mil|Usage=FLASHONLY|Rotation=180.000|XOffset=0mil|YOffset=0mil|HoleType=Round|Shape=RoundedRectangle|*
%AMROUNDEDRECTD18*
21,1,0.07480,0.04252,0,0,180.0*
21,1,0.06417,0.05315,0,0,180.0*
1,1,0.01063,-0.03209,0.02126*
1,1,0.01063,0.03209,0.02126*
1,1,0.01063,0.03209,-0.02126*
1,1,0.01063,-0.03209,-0.02126*
%
%ADD18ROUNDEDRECTD18*%
G04:AMPARAMS|DCode=19|XSize=47.24mil|YSize=39.37mil|CornerRadius=3.94mil|HoleSize=0mil|Usage=FLASHONLY|Rotation=180.000|XOffset=0mil|YOffset=0mil|HoleType=Round|Shape=RoundedRectangle|*
%AMROUNDEDRECTD19*
21,1,0.04724,0.03150,0,0,180.0*
21,1,0.03937,0.03937,0,0,180.0*
1,1,0.00787,-0.01968,0.01575*
1,1,0.00787,0.01968,0.01575*
1,1,0.00787,0.01968,-0.01575*
1,1,0.00787,-0.01968,-0.01575*
%
%ADD19ROUNDEDRECTD19*%
G04:AMPARAMS|DCode=20|XSize=29.53mil|YSize=43.31mil|CornerRadius=2.95mil|HoleSize=0mil|Usage=FLASHONLY|Rotation=180.000|XOffset=0mil|YOffset=0mil|HoleType=Round|Shape=RoundedRectangle|*
%AMROUNDEDRECTD20*
21,1,0.02953,0.03740,0,0,180.0*
21,1,0.02362,0.04331,0,0,180.0*
1,1,0.00591,-0.01181,0.01870*
1,1,0.00591,0.01181,0.01870*
1,1,0.00591,0.01181,-0.01870*
1,1,0.00591,-0.01181,-0.01870*
%
%ADD20ROUNDEDRECTD20*%
G04:AMPARAMS|DCode=21|XSize=70.87mil|YSize=46.06mil|CornerRadius=4.61mil|HoleSize=0mil|Usage=FLASHONLY|Rotation=90.000|XOffset=0mil|YOffset=0mil|HoleType=Round|Shape=RoundedRectangle|*
%AMROUNDEDRECTD21*
21,1,0.07087,0.03685,0,0,90.0*
21,1,0.06165,0.04606,0,0,90.0*
1,1,0.00921,0.01843,0.03083*
1,1,0.00921,0.01843,-0.03083*
1,1,0.00921,-0.01843,-0.03083*
1,1,0.00921,-0.01843,0.03083*
%
%ADD21ROUNDEDRECTD21*%
G04:AMPARAMS|DCode=22|XSize=61.02mil|YSize=53.15mil|CornerRadius=5.32mil|HoleSize=0mil|Usage=FLASHONLY|Rotation=180.000|XOffset=0mil|YOffset=0mil|HoleType=Round|Shape=RoundedRectangle|*
%AMROUNDEDRECTD22*
21,1,0.06102,0.04252,0,0,180.0*
21,1,0.05039,0.05315,0,0,180.0*
1,1,0.01063,-0.02520,0.02126*
1,1,0.01063,0.02520,0.02126*
1,1,0.01063,0.02520,-0.02126*
1,1,0.01063,-0.02520,-0.02126*
%
%ADD22ROUNDEDRECTD22*%
%ADD23C,0.01378*%
G04:AMPARAMS|DCode=24|XSize=36.61mil|YSize=35.04mil|CornerRadius=3.5mil|HoleSize=0mil|Usage=FLASHONLY|Rotation=90.000|XOffset=0mil|YOffset=0mil|HoleType=Round|Shape=RoundedRectangle|*
%AMROUNDEDRECTD24*
21,1,0.03661,0.02803,0,0,90.0*
21,1,0.02961,0.03504,0,0,90.0*
1,1,0.00701,0.01402,0.01480*
1,1,0.00701,0.01402,-0.01480*
1,1,0.00701,-0.01402,-0.01480*
1,1,0.00701,-0.01402,0.01480*
%
%ADD24ROUNDEDRECTD24*%
G04:AMPARAMS|DCode=25|XSize=15.75mil|YSize=14.57mil|CornerRadius=1.46mil|HoleSize=0mil|Usage=FLASHONLY|Rotation=0.000|XOffset=0mil|YOffset=0mil|HoleType=Round|Shape=RoundedRectangle|*
%AMROUNDEDRECTD25*
21,1,0.01575,0.01165,0,0,0.0*
21,1,0.01284,0.01457,0,0,0.0*
1,1,0.00291,0.00642,-0.00583*
1,1,0.00291,-0.00642,-0.00583*
1,1,0.00291,-0.00642,0.00583*
1,1,0.00291,0.00642,0.00583*
%
%ADD25ROUNDEDRECTD25*%
%ADD26O,0.06102X0.02362*%
G04:AMPARAMS|DCode=27|XSize=71.65mil|YSize=42.13mil|CornerRadius=4.21mil|HoleSize=0mil|Usage=FLASHONLY|Rotation=270.000|XOffset=0mil|YOffset=0mil|HoleType=Round|Shape=RoundedRectangle|*
%AMROUNDEDRECTD27*
21,1,0.07165,0.03370,0,0,270.0*
21,1,0.06323,0.04213,0,0,270.0*
1,1,0.00843,-0.01685,-0.03161*
1,1,0.00843,-0.01685,0.03161*
1,1,0.00843,0.01685,0.03161*
1,1,0.00843,0.01685,-0.03161*
%
%ADD27ROUNDEDRECTD27*%
G04:AMPARAMS|DCode=28|XSize=23.62mil|YSize=19.68mil|CornerRadius=1.97mil|HoleSize=0mil|Usage=FLASHONLY|Rotation=90.000|XOffset=0mil|YOffset=0mil|HoleType=Round|Shape=RoundedRectangle|*
%AMROUNDEDRECTD28*
21,1,0.02362,0.01575,0,0,90.0*
21,1,0.01968,0.01968,0,0,90.0*
1,1,0.00394,0.00787,0.00984*
1,1,0.00394,0.00787,-0.00984*
1,1,0.00394,-0.00787,-0.00984*
1,1,0.00394,-0.00787,0.00984*
%
%ADD28ROUNDEDRECTD28*%
G04:AMPARAMS|DCode=29|XSize=16.14mil|YSize=14.57mil|CornerRadius=1.46mil|HoleSize=0mil|Usage=FLASHONLY|Rotation=180.000|XOffset=0mil|YOffset=0mil|HoleType=Round|Shape=RoundedRectangle|*
%AMROUNDEDRECTD29*
21,1,0.01614,0.01165,0,0,180.0*
21,1,0.01323,0.01457,0,0,180.0*
1,1,0.00291,-0.00661,0.00583*
1,1,0.00291,0.00661,0.00583*
1,1,0.00291,0.00661,-0.00583*
1,1,0.00291,-0.00661,-0.00583*
%
%ADD29ROUNDEDRECTD29*%
G04:AMPARAMS|DCode=30|XSize=11.81mil|YSize=23.62mil|CornerRadius=1.95mil|HoleSize=0mil|Usage=FLASHONLY|Rotation=180.000|XOffset=0mil|YOffset=0mil|HoleType=Round|Shape=RoundedRectangle|*
%AMROUNDEDRECTD30*
21,1,0.01181,0.01972,0,0,180.0*
21,1,0.00791,0.02362,0,0,180.0*
1,1,0.00390,-0.00396,0.00986*
1,1,0.00390,0.00396,0.00986*
1,1,0.00390,0.00396,-0.00986*
1,1,0.00390,-0.00396,-0.00986*
%
%ADD30ROUNDEDRECTD30*%
G04:AMPARAMS|DCode=31|XSize=11.81mil|YSize=23.62mil|CornerRadius=1.95mil|HoleSize=0mil|Usage=FLASHONLY|Rotation=90.000|XOffset=0mil|YOffset=0mil|HoleType=Round|Shape=RoundedRectangle|*
%AMROUNDEDRECTD31*
21,1,0.01181,0.01972,0,0,90.0*
21,1,0.00791,0.02362,0,0,90.0*
1,1,0.00390,0.00986,0.00396*
1,1,0.00390,0.00986,-0.00396*
1,1,0.00390,-0.00986,-0.00396*
1,1,0.00390,-0.00986,0.00396*
%
%ADD31ROUNDEDRECTD31*%
%ADD32R,0.08858X0.03543*%
%ADD33R,0.06102X0.07283*%
%ADD34O,0.05709X0.01772*%
G04:AMPARAMS|DCode=35|XSize=39.37mil|YSize=55.12mil|CornerRadius=9.84mil|HoleSize=0mil|Usage=FLASHONLY|Rotation=90.000|XOffset=0mil|YOffset=0mil|HoleType=Round|Shape=RoundedRectangle|*
%AMROUNDEDRECTD35*
21,1,0.03937,0.03543,0,0,90.0*
21,1,0.01968,0.05512,0,0,90.0*
1,1,0.01968,0.01772,0.00984*
1,1,0.01968,0.01772,-0.00984*
1,1,0.01968,-0.01772,-0.00984*
1,1,0.01968,-0.01772,0.00984*
%
%ADD35ROUNDEDRECTD35*%
G04:AMPARAMS|DCode=36|XSize=39.37mil|YSize=39.37mil|CornerRadius=9.84mil|HoleSize=0mil|Usage=FLASHONLY|Rotation=90.000|XOffset=0mil|YOffset=0mil|HoleType=Round|Shape=RoundedRectangle|*
%AMROUNDEDRECTD36*
21,1,0.03937,0.01968,0,0,90.0*
21,1,0.01968,0.03937,0,0,90.0*
1,1,0.01968,0.00984,0.00984*
1,1,0.01968,0.00984,-0.00984*
1,1,0.01968,-0.00984,-0.00984*
1,1,0.01968,-0.00984,0.00984*
%
%ADD36ROUNDEDRECTD36*%
%ADD37O,0.01575X0.03740*%
G04:AMPARAMS|DCode=38|XSize=35.43mil|YSize=39.37mil|CornerRadius=3.54mil|HoleSize=0mil|Usage=FLASHONLY|Rotation=180.000|XOffset=0mil|YOffset=0mil|HoleType=Round|Shape=RoundedRectangle|*
%AMROUNDEDRECTD38*
21,1,0.03543,0.03228,0,0,180.0*
21,1,0.02835,0.03937,0,0,180.0*
1,1,0.00709,-0.01417,0.01614*
1,1,0.00709,0.01417,0.01614*
1,1,0.00709,0.01417,-0.01614*
1,1,0.00709,-0.01417,-0.01614*
%
%ADD38ROUNDEDRECTD38*%
G04:AMPARAMS|DCode=39|XSize=66.93mil|YSize=21.65mil|CornerRadius=2.16mil|HoleSize=0mil|Usage=FLASHONLY|Rotation=180.000|XOffset=0mil|YOffset=0mil|HoleType=Round|Shape=RoundedRectangle|*
%AMROUNDEDRECTD39*
21,1,0.06693,0.01732,0,0,180.0*
21,1,0.06260,0.02165,0,0,180.0*
1,1,0.00433,-0.03130,0.00866*
1,1,0.00433,0.03130,0.00866*
1,1,0.00433,0.03130,-0.00866*
1,1,0.00433,-0.03130,-0.00866*
%
%ADD39ROUNDEDRECTD39*%
G04:AMPARAMS|DCode=40|XSize=82.68mil|YSize=62.99mil|CornerRadius=15.75mil|HoleSize=0mil|Usage=FLASHONLY|Rotation=180.000|XOffset=0mil|YOffset=0mil|HoleType=Round|Shape=RoundedRectangle|*
%AMROUNDEDRECTD40*
21,1,0.08268,0.03150,0,0,180.0*
21,1,0.05118,0.06299,0,0,180.0*
1,1,0.03150,-0.02559,0.01575*
1,1,0.03150,0.02559,0.01575*
1,1,0.03150,0.02559,-0.01575*
1,1,0.03150,-0.02559,-0.01575*
%
%ADD40ROUNDEDRECTD40*%
%ADD41O,0.01575X0.05315*%
G04:AMPARAMS|DCode=42|XSize=70.87mil|YSize=74.8mil|CornerRadius=17.72mil|HoleSize=0mil|Usage=FLASHONLY|Rotation=180.000|XOffset=0mil|YOffset=0mil|HoleType=Round|Shape=RoundedRectangle|*
%AMROUNDEDRECTD42*
21,1,0.07087,0.03937,0,0,180.0*
21,1,0.03543,0.07480,0,0,180.0*
1,1,0.03543,-0.01772,0.01968*
1,1,0.03543,0.01772,0.01968*
1,1,0.03543,0.01772,-0.01968*
1,1,0.03543,-0.01772,-0.01968*
%
%ADD42ROUNDEDRECTD42*%
%ADD43R,0.07480X0.07480*%
G04:AMPARAMS|DCode=44|XSize=54.33mil|YSize=41.34mil|CornerRadius=4.13mil|HoleSize=0mil|Usage=FLASHONLY|Rotation=180.000|XOffset=0mil|YOffset=0mil|HoleType=Round|Shape=RoundedRectangle|*
%AMROUNDEDRECTD44*
21,1,0.05433,0.03307,0,0,180.0*
21,1,0.04606,0.04134,0,0,180.0*
1,1,0.00827,-0.02303,0.01654*
1,1,0.00827,0.02303,0.01654*
1,1,0.00827,0.02303,-0.01654*
1,1,0.00827,-0.02303,-0.01654*
%
%ADD44ROUNDEDRECTD44*%
G04:AMPARAMS|DCode=45|XSize=78.74mil|YSize=43.31mil|CornerRadius=4.33mil|HoleSize=0mil|Usage=FLASHONLY|Rotation=180.000|XOffset=0mil|YOffset=0mil|HoleType=Round|Shape=RoundedRectangle|*
%AMROUNDEDRECTD45*
21,1,0.07874,0.03465,0,0,180.0*
21,1,0.07008,0.04331,0,0,180.0*
1,1,0.00866,-0.03504,0.01732*
1,1,0.00866,0.03504,0.01732*
1,1,0.00866,0.03504,-0.01732*
1,1,0.00866,-0.03504,-0.01732*
%
%ADD45ROUNDEDRECTD45*%
G04:AMPARAMS|DCode=46|XSize=31.5mil|YSize=31.5mil|CornerRadius=3.15mil|HoleSize=0mil|Usage=FLASHONLY|Rotation=180.000|XOffset=0mil|YOffset=0mil|HoleType=Round|Shape=RoundedRectangle|*
%AMROUNDEDRECTD46*
21,1,0.03150,0.02520,0,0,180.0*
21,1,0.02520,0.03150,0,0,180.0*
1,1,0.00630,-0.01260,0.01260*
1,1,0.00630,0.01260,0.01260*
1,1,0.00630,0.01260,-0.01260*
1,1,0.00630,-0.01260,-0.01260*
%
%ADD46ROUNDEDRECTD46*%
G04:AMPARAMS|DCode=47|XSize=23.62mil|YSize=19.68mil|CornerRadius=1.97mil|HoleSize=0mil|Usage=FLASHONLY|Rotation=180.000|XOffset=0mil|YOffset=0mil|HoleType=Round|Shape=RoundedRectangle|*
%AMROUNDEDRECTD47*
21,1,0.02362,0.01575,0,0,180.0*
21,1,0.01968,0.01968,0,0,180.0*
1,1,0.00394,-0.00984,0.00787*
1,1,0.00394,0.00984,0.00787*
1,1,0.00394,0.00984,-0.00787*
1,1,0.00394,-0.00984,-0.00787*
%
%ADD47ROUNDEDRECTD47*%
G04:AMPARAMS|DCode=48|XSize=15.75mil|YSize=14.57mil|CornerRadius=1.46mil|HoleSize=0mil|Usage=FLASHONLY|Rotation=90.000|XOffset=0mil|YOffset=0mil|HoleType=Round|Shape=RoundedRectangle|*
%AMROUNDEDRECTD48*
21,1,0.01575,0.01165,0,0,90.0*
21,1,0.01284,0.01457,0,0,90.0*
1,1,0.00291,0.00583,0.00642*
1,1,0.00291,0.00583,-0.00642*
1,1,0.00291,-0.00583,-0.00642*
1,1,0.00291,-0.00583,0.00642*
%
%ADD48ROUNDEDRECTD48*%
%ADD49C,0.03937*%
G04:AMPARAMS|DCode=50|XSize=71.65mil|YSize=42.13mil|CornerRadius=4.21mil|HoleSize=0mil|Usage=FLASHONLY|Rotation=180.000|XOffset=0mil|YOffset=0mil|HoleType=Round|Shape=RoundedRectangle|*
%AMROUNDEDRECTD50*
21,1,0.07165,0.03370,0,0,180.0*
21,1,0.06323,0.04213,0,0,180.0*
1,1,0.00843,-0.03161,0.01685*
1,1,0.00843,0.03161,0.01685*
1,1,0.00843,0.03161,-0.01685*
1,1,0.00843,-0.03161,-0.01685*
%
%ADD50ROUNDEDRECTD50*%
G04:AMPARAMS|DCode=51|XSize=39.37mil|YSize=39.37mil|CornerRadius=9.84mil|HoleSize=0mil|Usage=FLASHONLY|Rotation=180.000|XOffset=0mil|YOffset=0mil|HoleType=Round|Shape=RoundedRectangle|*
%AMROUNDEDRECTD51*
21,1,0.03937,0.01968,0,0,180.0*
21,1,0.01968,0.03937,0,0,180.0*
1,1,0.01968,-0.00984,0.00984*
1,1,0.01968,0.00984,0.00984*
1,1,0.01968,0.00984,-0.00984*
1,1,0.01968,-0.00984,-0.00984*
%
%ADD51ROUNDEDRECTD51*%
G04:AMPARAMS|DCode=52|XSize=39.37mil|YSize=55.12mil|CornerRadius=9.84mil|HoleSize=0mil|Usage=FLASHONLY|Rotation=180.000|XOffset=0mil|YOffset=0mil|HoleType=Round|Shape=RoundedRectangle|*
%AMROUNDEDRECTD52*
21,1,0.03937,0.03543,0,0,180.0*
21,1,0.01968,0.05512,0,0,180.0*
1,1,0.01968,-0.00984,0.01772*
1,1,0.01968,0.00984,0.01772*
1,1,0.01968,0.00984,-0.01772*
1,1,0.01968,-0.00984,-0.01772*
%
%ADD52ROUNDEDRECTD52*%
G04:AMPARAMS|DCode=53|XSize=36.61mil|YSize=35.04mil|CornerRadius=3.5mil|HoleSize=0mil|Usage=FLASHONLY|Rotation=180.000|XOffset=0mil|YOffset=0mil|HoleType=Round|Shape=RoundedRectangle|*
%AMROUNDEDRECTD53*
21,1,0.03661,0.02803,0,0,180.0*
21,1,0.02961,0.03504,0,0,180.0*
1,1,0.00701,-0.01480,0.01402*
1,1,0.00701,0.01480,0.01402*
1,1,0.00701,0.01480,-0.01402*
1,1,0.00701,-0.01480,-0.01402*
%
%ADD53ROUNDEDRECTD53*%
%ADD54R,0.03543X0.08858*%
%ADD64R,0.05905X0.05905*%
%ADD65C,0.05905*%
%ADD66R,0.05905X0.05905*%
%ADD67R,0.05315X0.05315*%
%ADD76C,0.07874*%
D11*
X173504Y165591D02*
D03*
Y171496D02*
D03*
X178228D02*
D03*
Y165591D02*
D03*
D12*
X153661Y157677D02*
D03*
Y153937D02*
D03*
Y150197D02*
D03*
X162716D02*
D03*
Y157677D02*
D03*
Y153937D02*
D03*
X31721Y101008D02*
D03*
Y97268D02*
D03*
Y93528D02*
D03*
X40776D02*
D03*
Y101008D02*
D03*
D13*
X161772Y172756D02*
D03*
Y174724D02*
D03*
Y176693D02*
D03*
Y178661D02*
D03*
Y180630D02*
D03*
Y182598D02*
D03*
Y188504D02*
D03*
Y190472D02*
D03*
Y192441D02*
D03*
Y194409D02*
D03*
Y196378D02*
D03*
Y198346D02*
D03*
Y200315D02*
D03*
Y202283D02*
D03*
X126732D02*
D03*
Y200315D02*
D03*
Y198346D02*
D03*
Y196378D02*
D03*
Y194409D02*
D03*
Y192441D02*
D03*
Y190472D02*
D03*
Y188504D02*
D03*
Y186535D02*
D03*
Y184567D02*
D03*
Y182598D02*
D03*
Y180630D02*
D03*
Y178661D02*
D03*
Y176693D02*
D03*
Y174724D02*
D03*
Y172756D02*
D03*
X161772Y184567D02*
D03*
Y186535D02*
D03*
D14*
X159016Y205039D02*
D03*
X157047D02*
D03*
X155079D02*
D03*
X153110D02*
D03*
X151142D02*
D03*
X149173D02*
D03*
X147205D02*
D03*
X145236D02*
D03*
X143268D02*
D03*
X141299D02*
D03*
X139331D02*
D03*
X137362D02*
D03*
X135394D02*
D03*
X133425D02*
D03*
X131457D02*
D03*
X129488D02*
D03*
Y170000D02*
D03*
X131457D02*
D03*
X133425D02*
D03*
X135394D02*
D03*
X137362D02*
D03*
X139331D02*
D03*
X141299D02*
D03*
X143268D02*
D03*
X145236D02*
D03*
X147205D02*
D03*
X149173D02*
D03*
X151142D02*
D03*
X153110D02*
D03*
X155079D02*
D03*
X157047D02*
D03*
X159016D02*
D03*
D15*
X144252Y187520D02*
D03*
D16*
X29331Y261535D02*
D03*
Y257598D02*
D03*
X101221Y257638D02*
D03*
Y261575D02*
D03*
X37402Y257638D02*
D03*
Y261575D02*
D03*
D17*
X45114Y138472D02*
D03*
X50114D02*
D03*
X55114D02*
D03*
X60114D02*
D03*
X45114Y166819D02*
D03*
X50114D02*
D03*
X55114D02*
D03*
X60114D02*
D03*
D18*
X61386Y219783D02*
D03*
X84102D02*
D03*
D19*
X47213Y223622D02*
D03*
Y238189D02*
D03*
D20*
X87705Y262697D02*
D03*
X83374D02*
D03*
X79043D02*
D03*
X74713D02*
D03*
X70382D02*
D03*
X66051D02*
D03*
X61721D02*
D03*
X57390D02*
D03*
D21*
X92469Y261319D02*
D03*
D22*
X47902Y262205D02*
D03*
D23*
X131063Y143425D02*
D03*
Y140276D02*
D03*
Y137126D02*
D03*
Y133976D02*
D03*
Y130827D02*
D03*
Y127677D02*
D03*
Y124528D02*
D03*
Y121378D02*
D03*
Y118228D02*
D03*
Y115079D02*
D03*
Y111929D02*
D03*
Y108780D02*
D03*
Y105630D02*
D03*
Y102480D02*
D03*
Y99331D02*
D03*
X127913Y143425D02*
D03*
Y140276D02*
D03*
Y137126D02*
D03*
Y133976D02*
D03*
Y130827D02*
D03*
Y127677D02*
D03*
Y124528D02*
D03*
Y121378D02*
D03*
Y118228D02*
D03*
Y115079D02*
D03*
Y111929D02*
D03*
Y108780D02*
D03*
Y105630D02*
D03*
Y102480D02*
D03*
Y99331D02*
D03*
X124764Y143425D02*
D03*
Y140276D02*
D03*
Y137126D02*
D03*
Y133976D02*
D03*
Y130827D02*
D03*
Y127677D02*
D03*
Y124528D02*
D03*
Y121378D02*
D03*
Y118228D02*
D03*
Y115079D02*
D03*
Y111929D02*
D03*
Y108780D02*
D03*
Y105630D02*
D03*
Y102480D02*
D03*
Y99331D02*
D03*
X121614Y143425D02*
D03*
Y140276D02*
D03*
Y137126D02*
D03*
Y133976D02*
D03*
Y130827D02*
D03*
Y127677D02*
D03*
Y124528D02*
D03*
Y121378D02*
D03*
Y118228D02*
D03*
Y115079D02*
D03*
Y111929D02*
D03*
Y108780D02*
D03*
Y105630D02*
D03*
Y102480D02*
D03*
Y99331D02*
D03*
X118465Y143425D02*
D03*
Y140276D02*
D03*
Y137126D02*
D03*
Y133976D02*
D03*
Y130827D02*
D03*
Y127677D02*
D03*
Y124528D02*
D03*
Y121378D02*
D03*
Y118228D02*
D03*
Y115079D02*
D03*
Y111929D02*
D03*
Y108780D02*
D03*
Y105630D02*
D03*
Y102480D02*
D03*
Y99331D02*
D03*
X115315Y143425D02*
D03*
Y140276D02*
D03*
Y137126D02*
D03*
Y133976D02*
D03*
Y130827D02*
D03*
Y127677D02*
D03*
Y124528D02*
D03*
Y121378D02*
D03*
Y118228D02*
D03*
Y115079D02*
D03*
Y111929D02*
D03*
Y108780D02*
D03*
Y105630D02*
D03*
Y102480D02*
D03*
Y99331D02*
D03*
X112165Y143425D02*
D03*
Y140276D02*
D03*
Y137126D02*
D03*
Y133976D02*
D03*
Y130827D02*
D03*
Y127677D02*
D03*
Y124528D02*
D03*
Y121378D02*
D03*
Y118228D02*
D03*
Y115079D02*
D03*
Y111929D02*
D03*
Y108780D02*
D03*
Y105630D02*
D03*
Y102480D02*
D03*
Y99331D02*
D03*
X109016Y143425D02*
D03*
Y140276D02*
D03*
Y137126D02*
D03*
Y133976D02*
D03*
Y130827D02*
D03*
Y127677D02*
D03*
Y124528D02*
D03*
Y121378D02*
D03*
Y118228D02*
D03*
Y115079D02*
D03*
Y111929D02*
D03*
Y108780D02*
D03*
Y105630D02*
D03*
Y102480D02*
D03*
Y99331D02*
D03*
X105866Y143425D02*
D03*
Y140276D02*
D03*
Y137126D02*
D03*
Y133976D02*
D03*
Y130827D02*
D03*
Y127677D02*
D03*
Y124528D02*
D03*
Y121378D02*
D03*
Y118228D02*
D03*
Y115079D02*
D03*
Y111929D02*
D03*
Y108780D02*
D03*
Y105630D02*
D03*
Y102480D02*
D03*
Y99331D02*
D03*
X102717Y143425D02*
D03*
Y140276D02*
D03*
Y137126D02*
D03*
Y133976D02*
D03*
Y130827D02*
D03*
Y127677D02*
D03*
Y124528D02*
D03*
Y121378D02*
D03*
Y118228D02*
D03*
Y115079D02*
D03*
Y111929D02*
D03*
Y108780D02*
D03*
Y105630D02*
D03*
Y102480D02*
D03*
Y99331D02*
D03*
X99567Y143425D02*
D03*
Y140276D02*
D03*
Y137126D02*
D03*
Y133976D02*
D03*
Y130827D02*
D03*
Y127677D02*
D03*
Y124528D02*
D03*
Y121378D02*
D03*
Y118228D02*
D03*
Y115079D02*
D03*
Y111929D02*
D03*
Y108780D02*
D03*
Y105630D02*
D03*
Y102480D02*
D03*
Y99331D02*
D03*
X96417Y143425D02*
D03*
Y140276D02*
D03*
Y137126D02*
D03*
Y133976D02*
D03*
Y130827D02*
D03*
Y127677D02*
D03*
Y124528D02*
D03*
Y121378D02*
D03*
Y118228D02*
D03*
Y115079D02*
D03*
Y111929D02*
D03*
Y108780D02*
D03*
Y105630D02*
D03*
Y102480D02*
D03*
Y99331D02*
D03*
X93268Y143425D02*
D03*
Y140276D02*
D03*
Y137126D02*
D03*
Y133976D02*
D03*
Y130827D02*
D03*
Y127677D02*
D03*
Y124528D02*
D03*
Y121378D02*
D03*
Y118228D02*
D03*
Y115079D02*
D03*
Y111929D02*
D03*
Y108780D02*
D03*
Y105630D02*
D03*
Y102480D02*
D03*
Y99331D02*
D03*
X90118Y143425D02*
D03*
Y140276D02*
D03*
Y137126D02*
D03*
Y133976D02*
D03*
Y130827D02*
D03*
Y127677D02*
D03*
Y124528D02*
D03*
Y121378D02*
D03*
Y118228D02*
D03*
Y115079D02*
D03*
Y111929D02*
D03*
Y108780D02*
D03*
Y105630D02*
D03*
Y102480D02*
D03*
Y99331D02*
D03*
X86968Y143425D02*
D03*
Y140276D02*
D03*
Y137126D02*
D03*
Y133976D02*
D03*
Y130827D02*
D03*
Y127677D02*
D03*
Y124528D02*
D03*
Y121378D02*
D03*
Y118228D02*
D03*
Y115079D02*
D03*
Y111929D02*
D03*
Y108780D02*
D03*
Y105630D02*
D03*
Y102480D02*
D03*
Y99331D02*
D03*
D24*
X37126Y111024D02*
D03*
X31063D02*
D03*
D25*
X37087Y117815D02*
D03*
Y115571D02*
D03*
X91575Y154783D02*
D03*
Y152539D02*
D03*
X73819Y167854D02*
D03*
Y170098D02*
D03*
X81028Y66874D02*
D03*
Y64630D02*
D03*
X76492Y75630D02*
D03*
Y73386D02*
D03*
X81217Y71768D02*
D03*
Y69524D02*
D03*
X76846Y66492D02*
D03*
Y68736D02*
D03*
X173504Y187854D02*
D03*
Y190098D02*
D03*
X169488Y167854D02*
D03*
Y165610D02*
D03*
X122795Y195256D02*
D03*
Y197500D02*
D03*
X165709Y194902D02*
D03*
Y192657D02*
D03*
Y187776D02*
D03*
Y190020D02*
D03*
Y177657D02*
D03*
Y179902D02*
D03*
X46102Y103327D02*
D03*
Y101083D02*
D03*
X92874Y73799D02*
D03*
Y76043D02*
D03*
X167953Y155413D02*
D03*
Y157658D02*
D03*
D26*
X44965Y51925D02*
D03*
Y56925D02*
D03*
Y61925D02*
D03*
Y66925D02*
D03*
Y71925D02*
D03*
Y76925D02*
D03*
Y81925D02*
D03*
Y86925D02*
D03*
X23705Y51925D02*
D03*
Y56925D02*
D03*
Y61925D02*
D03*
Y66925D02*
D03*
Y71925D02*
D03*
Y76925D02*
D03*
Y81925D02*
D03*
Y86925D02*
D03*
D27*
X147894Y240197D02*
D03*
X135886D02*
D03*
X40295Y180157D02*
D03*
X52303D02*
D03*
D28*
X138465Y246772D02*
D03*
X134921D02*
D03*
X25669Y191417D02*
D03*
X29213D02*
D03*
X117047Y224016D02*
D03*
X120591D02*
D03*
X171693Y198819D02*
D03*
X168149D02*
D03*
X51535Y172992D02*
D03*
X47992D02*
D03*
X165945Y182992D02*
D03*
X169488D02*
D03*
X102118Y55138D02*
D03*
X105661D02*
D03*
X49839Y93520D02*
D03*
X46295D02*
D03*
X49803Y97165D02*
D03*
X46260D02*
D03*
X169331Y76417D02*
D03*
X172874D02*
D03*
X169803Y104488D02*
D03*
X173346D02*
D03*
X25669Y196929D02*
D03*
X29213D02*
D03*
D29*
X17835Y196890D02*
D03*
Y194606D02*
D03*
D30*
X52185Y206299D02*
D03*
X59862D02*
D03*
X57303D02*
D03*
X54744D02*
D03*
Y187402D02*
D03*
X57303D02*
D03*
X59862D02*
D03*
X52185D02*
D03*
X174980Y85079D02*
D03*
X172421D02*
D03*
X169862D02*
D03*
X167303D02*
D03*
X164744D02*
D03*
X162185D02*
D03*
X162185Y100039D02*
D03*
X164744D02*
D03*
X167303D02*
D03*
X169862D02*
D03*
X172421D02*
D03*
X174980D02*
D03*
X174469Y57047D02*
D03*
X171909D02*
D03*
X169350D02*
D03*
X166791D02*
D03*
X164232D02*
D03*
X161673D02*
D03*
X161673Y72008D02*
D03*
X164232D02*
D03*
X166791D02*
D03*
X169350D02*
D03*
X171909D02*
D03*
X174469D02*
D03*
D31*
X63504Y203248D02*
D03*
Y200689D02*
D03*
Y198130D02*
D03*
Y195571D02*
D03*
Y193012D02*
D03*
Y190453D02*
D03*
X48543Y190453D02*
D03*
Y193012D02*
D03*
Y195571D02*
D03*
Y198130D02*
D03*
Y200689D02*
D03*
Y203248D02*
D03*
X178032Y96398D02*
D03*
Y88721D02*
D03*
Y91280D02*
D03*
Y93839D02*
D03*
X159134D02*
D03*
Y91280D02*
D03*
Y88721D02*
D03*
Y96398D02*
D03*
X177520Y68366D02*
D03*
Y60689D02*
D03*
Y63248D02*
D03*
Y65807D02*
D03*
X158622D02*
D03*
Y63248D02*
D03*
Y60689D02*
D03*
Y68366D02*
D03*
D32*
X54941Y202559D02*
D03*
D33*
X150039Y228740D02*
D03*
D34*
X141575Y232579D02*
D03*
Y230020D02*
D03*
Y227461D02*
D03*
Y224902D02*
D03*
X158504Y232579D02*
D03*
Y230020D02*
D03*
Y227461D02*
D03*
Y224902D02*
D03*
D35*
X120787Y237933D02*
D03*
D36*
X114094D02*
D03*
Y229272D02*
D03*
X121575D02*
D03*
D37*
X23346Y178032D02*
D03*
X25905D02*
D03*
X28465D02*
D03*
Y186693D02*
D03*
X23346D02*
D03*
D38*
X23779Y265709D02*
D03*
Y259409D02*
D03*
X7638D02*
D03*
Y265709D02*
D03*
D39*
X15709Y256949D02*
D03*
D40*
X173779Y253071D02*
D03*
X198189D02*
D03*
X139134D02*
D03*
X114724D02*
D03*
D41*
X180866Y252579D02*
D03*
X183425D02*
D03*
X191102D02*
D03*
X188543D02*
D03*
X185984D02*
D03*
X129488D02*
D03*
X132047D02*
D03*
X124370D02*
D03*
X121811D02*
D03*
X126929D02*
D03*
D42*
X201732Y263110D02*
D03*
X170236D02*
D03*
X111181D02*
D03*
X142677D02*
D03*
D43*
X190709D02*
D03*
X181260D02*
D03*
X122205D02*
D03*
X131653D02*
D03*
D44*
X70197Y72047D02*
D03*
Y79055D02*
D03*
X82598Y162402D02*
D03*
Y155394D02*
D03*
X70197Y65118D02*
D03*
Y58110D02*
D03*
D45*
X153661Y218110D02*
D03*
X167559Y234213D02*
D03*
D46*
X146181Y218110D02*
D03*
X175039Y234213D02*
D03*
D47*
X172480Y143662D02*
D03*
Y147205D02*
D03*
X74882Y112284D02*
D03*
Y115827D02*
D03*
X67756Y173425D02*
D03*
Y169882D02*
D03*
X38937Y154921D02*
D03*
Y158465D02*
D03*
X66339Y133819D02*
D03*
Y137362D02*
D03*
X66023Y153189D02*
D03*
Y149645D02*
D03*
X39106Y148307D02*
D03*
Y144764D02*
D03*
X147008Y153465D02*
D03*
Y149921D02*
D03*
X29331Y250197D02*
D03*
Y253740D02*
D03*
X147008Y156732D02*
D03*
Y160276D02*
D03*
X128032Y161772D02*
D03*
Y165315D02*
D03*
X170158Y187874D02*
D03*
Y191417D02*
D03*
X173661Y179449D02*
D03*
Y182992D02*
D03*
X60469Y109547D02*
D03*
Y113091D02*
D03*
X44331Y198150D02*
D03*
Y201693D02*
D03*
X164488Y224961D02*
D03*
Y228504D02*
D03*
X28464Y172441D02*
D03*
Y168897D02*
D03*
X113130Y88610D02*
D03*
Y92154D02*
D03*
X116713Y88626D02*
D03*
Y92169D02*
D03*
X37362Y253701D02*
D03*
Y250157D02*
D03*
X101220Y253701D02*
D03*
Y250157D02*
D03*
X168543Y143662D02*
D03*
Y147205D02*
D03*
D48*
X145531Y166063D02*
D03*
X143287D02*
D03*
X106354Y73437D02*
D03*
X108598D02*
D03*
X94669Y59933D02*
D03*
X96913D02*
D03*
X85843Y85527D02*
D03*
X88087D02*
D03*
X95929Y79516D02*
D03*
X98173D02*
D03*
X98866Y83213D02*
D03*
X101110D02*
D03*
X65847Y109724D02*
D03*
X63602D02*
D03*
X65847Y112953D02*
D03*
X63602D02*
D03*
X45059Y172598D02*
D03*
X42815D02*
D03*
X133799Y209016D02*
D03*
X131555D02*
D03*
X152264Y208976D02*
D03*
X150020D02*
D03*
X177106Y179449D02*
D03*
X179350D02*
D03*
X159035Y166063D02*
D03*
X161279D02*
D03*
X131319D02*
D03*
X133563D02*
D03*
X122854Y184370D02*
D03*
X120610D02*
D03*
X93760Y63622D02*
D03*
X96004D02*
D03*
X169075Y174724D02*
D03*
X166831D02*
D03*
X169468Y161378D02*
D03*
X171713D02*
D03*
X113862Y73630D02*
D03*
X111618D02*
D03*
X111165Y76409D02*
D03*
X108921D02*
D03*
X90870Y79472D02*
D03*
X88626D02*
D03*
X84854Y58689D02*
D03*
X82610D02*
D03*
X102953Y59945D02*
D03*
X100709D02*
D03*
X93090Y84980D02*
D03*
X90847D02*
D03*
X98768Y55291D02*
D03*
X96524D02*
D03*
X50965Y86890D02*
D03*
X53209D02*
D03*
D49*
X167362Y23268D02*
D03*
X48583Y10158D02*
D03*
X5866Y245709D02*
D03*
D50*
X104567Y172854D02*
D03*
Y160846D02*
D03*
X151890Y54469D02*
D03*
Y66476D02*
D03*
X152284Y82657D02*
D03*
Y94665D02*
D03*
X142992Y54469D02*
D03*
Y66476D02*
D03*
X143465Y82657D02*
D03*
Y94665D02*
D03*
D51*
X191476Y243386D02*
D03*
Y235906D02*
D03*
X182815D02*
D03*
D52*
Y242598D02*
D03*
D53*
X198228Y235315D02*
D03*
Y241378D02*
D03*
D54*
X174291Y93642D02*
D03*
X173779Y65610D02*
D03*
D64*
X100000Y9803D02*
D03*
D65*
Y19803D02*
D03*
X90000Y9803D02*
D03*
Y19803D02*
D03*
X80000Y9803D02*
D03*
Y19803D02*
D03*
X70000Y9803D02*
D03*
Y19803D02*
D03*
X10000Y20000D02*
D03*
Y60000D02*
D03*
Y50000D02*
D03*
Y40000D02*
D03*
Y30000D02*
D03*
X200197Y185965D02*
D03*
Y195965D02*
D03*
Y175964D02*
D03*
Y165964D02*
D03*
Y145965D02*
D03*
Y135965D02*
D03*
Y125964D02*
D03*
Y115964D02*
D03*
Y155965D02*
D03*
X10000Y110000D02*
D03*
Y150000D02*
D03*
Y140000D02*
D03*
Y130000D02*
D03*
Y120000D02*
D03*
Y100000D02*
D03*
Y90000D02*
D03*
X156378Y262087D02*
D03*
X200000Y70000D02*
D03*
Y30000D02*
D03*
Y40000D02*
D03*
Y50000D02*
D03*
Y60000D02*
D03*
Y80000D02*
D03*
Y90000D02*
D03*
D66*
X10000Y70000D02*
D03*
X200197Y105965D02*
D03*
X10000Y160000D02*
D03*
X200000Y20000D02*
D03*
D67*
X156378Y252087D02*
D03*
D76*
X167756Y23268D02*
G03*
X167756Y23268I-394J0D01*
G01*
X48976Y10158D02*
G03*
X48976Y10158I-394J0D01*
G01*
X6260Y245709D02*
G03*
X6260Y245709I-394J0D01*
G01*
M02*
