G04 Layer_Color=2752767*
%FSLAX25Y25*%
%MOIN*%
G70*
G01*
G75*
%ADD10C,0.00394*%
%ADD11C,0.00200*%
%ADD12C,0.00267*%
D10*
X0Y13937D02*
G03*
X3937Y10000I3937J0D01*
G01*
Y270000D02*
G03*
X0Y266063I0J-3937D01*
G01*
X210000D02*
G03*
X206063Y270000I-3937J0D01*
G01*
X0Y13937D02*
Y266063D01*
X3937Y270000D02*
X206063D01*
X210000Y15984D02*
Y266063D01*
X3937Y10000D02*
X10000D01*
X159016D02*
X204016D01*
X149016Y0D02*
X159016Y10000D01*
X20000Y0D02*
X149016D01*
X10000Y10000D02*
X20000Y0D01*
X204016Y10000D02*
X210000Y15984D01*
D11*
X99200Y9003D02*
Y10603D01*
X100800D01*
Y9003D01*
X99200D01*
Y19003D02*
Y20603D01*
X100800D01*
Y19003D01*
X99200D01*
X89200Y9003D02*
Y10603D01*
X90800D01*
Y9003D01*
X89200D01*
Y19003D02*
Y20603D01*
X90800D01*
Y19003D01*
X89200D01*
X79200Y9003D02*
Y10603D01*
X80800D01*
Y9003D01*
X79200D01*
Y19003D02*
Y20603D01*
X80800D01*
Y19003D01*
X79200D01*
X69200Y9003D02*
Y10603D01*
X70800D01*
Y9003D01*
X69200D01*
Y19003D02*
Y20603D01*
X70800D01*
Y19003D01*
X69200D01*
X9200Y19200D02*
Y20800D01*
X10800D01*
Y19200D01*
X9200D01*
Y59200D02*
Y60800D01*
X10800D01*
Y59200D01*
X9200D01*
Y69200D02*
Y70800D01*
X10800D01*
Y69200D01*
X9200D01*
Y49200D02*
Y50800D01*
X10800D01*
Y49200D01*
X9200D01*
Y39200D02*
Y40800D01*
X10800D01*
Y39200D01*
X9200D01*
Y29200D02*
Y30800D01*
X10800D01*
Y29200D01*
X9200D01*
X199397Y185164D02*
Y186765D01*
X200997D01*
Y185164D01*
X199397D01*
Y195165D02*
Y196765D01*
X200997D01*
Y195165D01*
X199397D01*
Y175164D02*
Y176765D01*
X200997D01*
Y175164D01*
X199397D01*
Y165164D02*
Y166764D01*
X200997D01*
Y165164D01*
X199397D01*
Y145165D02*
Y146765D01*
X200997D01*
Y145165D01*
X199397D01*
Y135164D02*
Y136765D01*
X200997D01*
Y135164D01*
X199397D01*
Y125164D02*
Y126765D01*
X200997D01*
Y125164D01*
X199397D01*
Y105165D02*
Y106764D01*
X200997D01*
Y105165D01*
X199397D01*
Y115164D02*
Y116764D01*
X200997D01*
Y115164D01*
X199397D01*
Y155165D02*
Y156764D01*
X200997D01*
Y155165D01*
X199397D01*
X9200Y109200D02*
Y110800D01*
X10800D01*
Y109200D01*
X9200D01*
Y149200D02*
Y150800D01*
X10800D01*
Y149200D01*
X9200D01*
Y159200D02*
Y160800D01*
X10800D01*
Y159200D01*
X9200D01*
Y139200D02*
Y140800D01*
X10800D01*
Y139200D01*
X9200D01*
Y129200D02*
Y130800D01*
X10800D01*
Y129200D01*
X9200D01*
Y119200D02*
Y120800D01*
X10800D01*
Y119200D01*
X9200D01*
Y99200D02*
Y100800D01*
X10800D01*
Y99200D01*
X9200D01*
Y89200D02*
Y90800D01*
X10800D01*
Y89200D01*
X9200D01*
X155578Y261287D02*
Y262887D01*
X157178D01*
Y261287D01*
X155578D01*
Y251287D02*
Y252887D01*
X157178D01*
Y251287D01*
X155578D01*
X199200Y69200D02*
Y70800D01*
X200800D01*
Y69200D01*
X199200D01*
Y29200D02*
Y30800D01*
X200800D01*
Y29200D01*
X199200D01*
Y19200D02*
Y20800D01*
X200800D01*
Y19200D01*
X199200D01*
Y39200D02*
Y40800D01*
X200800D01*
Y39200D01*
X199200D01*
Y49200D02*
Y50800D01*
X200800D01*
Y49200D01*
X199200D01*
Y59200D02*
Y60800D01*
X200800D01*
Y59200D01*
X199200D01*
Y79200D02*
Y80800D01*
X200800D01*
Y79200D01*
X199200D01*
Y89200D02*
Y90800D01*
X200800D01*
Y89200D01*
X199200D01*
X107520Y115735D02*
X106720Y117335D01*
X108320D01*
X107520Y115735D01*
X37638Y188176D02*
X36838Y189776D01*
X38438D01*
X37638Y188176D01*
X28464Y166011D02*
X27665Y167611D01*
X29265D01*
X28464Y166011D01*
X28465Y174042D02*
X27665Y175643D01*
X29265D01*
X28465Y174042D01*
X25905Y174082D02*
X25106Y175682D01*
X26706D01*
X25905Y174082D01*
X25669Y192822D02*
X24869Y194422D01*
X26469D01*
X25669Y192822D01*
X29213Y192743D02*
X28413Y194343D01*
X30013D01*
X29213Y192743D01*
X40295Y184102D02*
X39495Y185702D01*
X41095D01*
X40295Y184102D01*
X40276Y174554D02*
X39476Y176154D01*
X41076D01*
X40276Y174554D01*
X60748Y179239D02*
X59948Y180839D01*
X61548D01*
X60748Y179239D01*
X57677Y179121D02*
X56877Y180721D01*
X58477D01*
X57677Y179121D01*
X56221Y176720D02*
X55421Y178320D01*
X57020D01*
X56221Y176720D01*
X59606Y176798D02*
X58806Y178398D01*
X60406D01*
X59606Y176798D01*
X59488Y181602D02*
X58688Y183202D01*
X60288D01*
X59488Y181602D01*
X56260Y181562D02*
X55460Y183162D01*
X57060D01*
X56260Y181562D01*
X59862Y207881D02*
X59062Y209481D01*
X60662D01*
X59862Y207881D01*
X57303Y207842D02*
X56503Y209442D01*
X58103D01*
X57303Y207842D01*
X54744Y207842D02*
X53944Y209442D01*
X55544D01*
X54744Y207842D01*
X52185Y207881D02*
X51385Y209481D01*
X52985D01*
X52185Y207881D01*
X41831Y197330D02*
X41031Y198930D01*
X42631D01*
X41831Y197330D01*
X44626Y194731D02*
X43826Y196332D01*
X45426D01*
X44626Y194731D01*
X53839Y202547D02*
X53039Y204147D01*
X54639D01*
X53839Y202547D01*
X56122Y201129D02*
X55322Y202729D01*
X56922D01*
X56122Y201129D01*
X51457Y200952D02*
X50657Y202552D01*
X52257D01*
X51457Y200952D01*
X58425Y202527D02*
X57625Y204127D01*
X59225D01*
X58425Y202527D01*
X41575Y201247D02*
X40775Y202847D01*
X42375D01*
X41575Y201247D01*
Y203688D02*
X40775Y205288D01*
X42375D01*
X41575Y203688D01*
X43976D02*
X43176Y205288D01*
X44776D01*
X43976Y203688D01*
X46457D02*
X45657Y205288D01*
X47257D01*
X46457Y203688D01*
X51417Y125066D02*
X50617Y126666D01*
X52217D01*
X51417Y125066D01*
X66023Y146877D02*
X65223Y148477D01*
X66824D01*
X66023Y146877D01*
X57579Y157291D02*
X56779Y158891D01*
X58379D01*
X57579Y157291D01*
X48327D02*
X47527Y158891D01*
X49127D01*
X48327Y157291D01*
Y145283D02*
X47527Y146883D01*
X49127D01*
X48327Y145283D01*
X57579D02*
X56779Y146883D01*
X58379D01*
X57579Y145283D01*
X66299Y138570D02*
X65499Y140170D01*
X67099D01*
X66299Y138570D01*
X62323Y137665D02*
X61523Y139265D01*
X63123D01*
X62323Y137665D01*
X38937Y160047D02*
X38137Y161647D01*
X39737D01*
X38937Y160047D01*
X45177Y173629D02*
X44377Y175229D01*
X45977D01*
X45177Y173629D01*
X42697Y173629D02*
X41897Y175229D01*
X43497D01*
X42697Y173629D01*
X39106Y149566D02*
X38306Y151166D01*
X39906D01*
X39106Y149566D01*
X67756Y167074D02*
X66956Y168674D01*
X68556D01*
X67756Y167074D01*
X37402Y262861D02*
X36602Y264461D01*
X38202D01*
X37402Y262861D01*
X57441Y83373D02*
X56641Y84973D01*
X58241D01*
X57441Y83373D01*
X56142Y85460D02*
X55342Y87060D01*
X56942D01*
X56142Y85460D01*
X54449Y90657D02*
X53649Y92257D01*
X55249D01*
X54449Y90657D01*
X49449Y51129D02*
X48649Y52729D01*
X50249D01*
X49449Y51129D01*
Y56169D02*
X48649Y57768D01*
X50249D01*
X49449Y56169D01*
X49488Y61129D02*
X48688Y62729D01*
X50288D01*
X49488Y61129D01*
X68779Y109416D02*
X67980Y111016D01*
X69579D01*
X68779Y109416D01*
Y111661D02*
X67980Y113261D01*
X69579D01*
X68779Y111661D01*
X77008Y109554D02*
X76208Y111154D01*
X77808D01*
X77008Y109554D01*
X102559Y168846D02*
X101759Y170446D01*
X103359D01*
X102559Y168846D01*
X106653D02*
X105853Y170446D01*
X107454D01*
X106653Y168846D01*
X128937Y150184D02*
X128137Y151784D01*
X129737D01*
X128937Y150184D01*
X136693Y141720D02*
X135893Y143320D01*
X137493D01*
X136693Y141720D01*
X78110Y113098D02*
X77310Y114698D01*
X78910D01*
X78110Y113098D01*
X110591Y138058D02*
X109791Y139658D01*
X111391D01*
X110591Y138058D01*
X104291Y156168D02*
X103491Y157768D01*
X105091D01*
X104291Y156168D01*
X50709Y222822D02*
X49909Y224422D01*
X51509D01*
X50709Y222822D01*
X79043Y265078D02*
X78243Y266678D01*
X79843D01*
X79043Y265078D01*
X95886Y260519D02*
X95086Y262119D01*
X96686D01*
X95886Y260519D01*
X84606Y234948D02*
X83806Y236548D01*
X85406D01*
X84606Y234948D01*
X88189Y236720D02*
X87389Y238320D01*
X88989D01*
X88189Y236720D01*
X91693Y238413D02*
X90893Y240013D01*
X92493D01*
X91693Y238413D01*
X68504Y247901D02*
X67704Y249501D01*
X69304D01*
X68504Y247901D01*
X78425Y231129D02*
X77625Y232729D01*
X79225D01*
X78425Y231129D01*
X77244Y240302D02*
X76444Y241902D01*
X78044D01*
X77244Y240302D01*
X73701Y240263D02*
X72901Y241863D01*
X74501D01*
X73701Y240263D01*
X101024Y121956D02*
X100224Y123556D01*
X101824D01*
X101024Y121956D01*
X94646Y115657D02*
X93846Y117257D01*
X95446D01*
X94646Y115657D01*
X104095Y116050D02*
X103295Y117650D01*
X104894D01*
X104095Y116050D01*
X107598Y121956D02*
X106798Y123556D01*
X108398D01*
X107598Y121956D01*
X84921Y115924D02*
X84121Y117524D01*
X85721D01*
X84921Y115924D01*
X85591Y112901D02*
X84791Y114501D01*
X86391D01*
X85591Y112901D01*
X91890Y125106D02*
X91090Y126706D01*
X92690D01*
X91890Y125106D01*
X88740D02*
X87940Y126706D01*
X89540D01*
X88740Y125106D01*
Y128255D02*
X87940Y129855D01*
X89540D01*
X88740Y128255D01*
X102165Y182350D02*
X101365Y183950D01*
X102965D01*
X102165Y182350D01*
X105984Y185499D02*
X105184Y187099D01*
X106784D01*
X105984Y185499D01*
X98583Y177507D02*
X97783Y179107D01*
X99383D01*
X98583Y177507D01*
X98425Y180420D02*
X97625Y182020D01*
X99225D01*
X98425Y180420D01*
X89921Y188767D02*
X89121Y190367D01*
X90721D01*
X89921Y188767D01*
X100236Y189239D02*
X99436Y190839D01*
X101036D01*
X100236Y189239D01*
X98228Y187350D02*
X97428Y188950D01*
X99028D01*
X98228Y187350D01*
X96220Y191090D02*
X95420Y192690D01*
X97021D01*
X96220Y191090D01*
X110039Y190145D02*
X109239Y191745D01*
X110839D01*
X110039Y190145D01*
X182815Y245834D02*
X182015Y247434D01*
X183615D01*
X182815Y245834D01*
X179842Y241720D02*
X179042Y243320D01*
X180642D01*
X179842Y241720D01*
X180866Y247783D02*
X180066Y249383D01*
X181666D01*
X180866Y247783D01*
X203543Y250145D02*
X202743Y251745D01*
X204343D01*
X203543Y250145D01*
X203583Y254436D02*
X202783Y256036D01*
X204383D01*
X203583Y254436D01*
X168425Y254397D02*
X167625Y255996D01*
X169225D01*
X168425Y254397D01*
X168386Y250105D02*
X167586Y251705D01*
X169186D01*
X168386Y250105D01*
X109370Y254397D02*
X108570Y255996D01*
X110170D01*
X109370Y254397D01*
X109331Y250105D02*
X108531Y251705D01*
X110131D01*
X109331Y250105D01*
X144528Y254436D02*
X143728Y256036D01*
X145328D01*
X144528Y254436D01*
X144488Y250145D02*
X143688Y251745D01*
X145288D01*
X144488Y250145D01*
X206496Y265066D02*
X205696Y266666D01*
X207296D01*
X206496Y265066D01*
X206378Y259436D02*
X205578Y261036D01*
X207178D01*
X206378Y259436D01*
X165472Y265066D02*
X164672Y266666D01*
X166272D01*
X165472Y265066D01*
X165354Y259436D02*
X164554Y261036D01*
X166154D01*
X165354Y259436D01*
X147441Y265066D02*
X146641Y266666D01*
X148241D01*
X147441Y265066D01*
X147323Y259436D02*
X146523Y261036D01*
X148123D01*
X147323Y259436D01*
X106299D02*
X105499Y261036D01*
X107099D01*
X106299Y259436D01*
X106417Y265066D02*
X105617Y266666D01*
X107217D01*
X106417Y265066D01*
X121063Y247665D02*
X120263Y249265D01*
X121863D01*
X121063Y247665D01*
X119449Y240184D02*
X118649Y241784D01*
X120249D01*
X119449Y240184D01*
X122087Y240145D02*
X121287Y241745D01*
X122887D01*
X122087Y240145D01*
X123504Y246168D02*
X122704Y247768D01*
X124304D01*
X123504Y246168D01*
X117047Y194948D02*
X116247Y196548D01*
X117847D01*
X117047Y194948D01*
X120551Y185263D02*
X119751Y186863D01*
X121351D01*
X120551Y185263D01*
X122874D02*
X122074Y186863D01*
X123674D01*
X122874Y185263D01*
X125748Y164515D02*
X124948Y166115D01*
X126548D01*
X125748Y164515D01*
X130157Y160972D02*
X129358Y162572D01*
X130957D01*
X130157Y160972D01*
X133661Y163570D02*
X132861Y165170D01*
X134461D01*
X133661Y163570D01*
X131260D02*
X130460Y165170D01*
X132060D01*
X131260Y163570D01*
X121102Y196720D02*
X120302Y198320D01*
X121902D01*
X121102Y196720D01*
Y194397D02*
X120302Y195997D01*
X121902D01*
X121102Y194397D01*
X133898Y209948D02*
X133098Y211548D01*
X134698D01*
X133898Y209948D01*
X131457D02*
X130657Y211548D01*
X132257D01*
X131457Y209948D01*
X149882Y209909D02*
X149082Y211509D01*
X150682D01*
X149882Y209909D01*
X152244D02*
X151444Y211509D01*
X153044D01*
X152244Y209909D01*
X169764Y154554D02*
X168964Y156154D01*
X170564D01*
X169764Y154554D01*
X169724Y156838D02*
X168924Y158438D01*
X170524D01*
X169724Y156838D01*
X149173Y159476D02*
X148373Y161076D01*
X149973D01*
X149173Y159476D01*
X149961Y153137D02*
X149161Y154737D01*
X150761D01*
X149961Y153137D01*
X145630Y163531D02*
X144830Y165131D01*
X146430D01*
X145630Y163531D01*
X143268Y163570D02*
X142468Y165170D01*
X144068D01*
X143268Y163570D01*
X169488Y168767D02*
X168688Y170367D01*
X170288D01*
X169488Y168767D01*
X181142Y178688D02*
X180342Y180288D01*
X181942D01*
X181142Y178688D01*
X175906Y182271D02*
X175106Y183871D01*
X176706D01*
X175906Y182271D01*
X178228Y173531D02*
X177428Y175131D01*
X179028D01*
X178228Y173531D01*
X180866Y170696D02*
X180066Y172296D01*
X181666D01*
X180866Y170696D01*
X173504Y160539D02*
X172704Y162139D01*
X174304D01*
X173504Y160539D01*
X167441Y179082D02*
X166641Y180682D01*
X168241D01*
X167441Y179082D01*
X171417Y182231D02*
X170617Y183832D01*
X172217D01*
X171417Y182231D01*
X161339Y163531D02*
X160539Y165131D01*
X162139D01*
X161339Y163531D01*
X158898Y163531D02*
X158098Y165131D01*
X159698D01*
X158898Y163531D01*
X171732Y195893D02*
X170932Y197493D01*
X172532D01*
X171732Y195893D01*
X173504Y190972D02*
X172704Y192572D01*
X174304D01*
X173504Y190972D01*
X167520Y194043D02*
X166720Y195642D01*
X168320D01*
X167520Y194043D01*
Y191641D02*
X166720Y193241D01*
X168320D01*
X167520Y191641D01*
X165591Y196208D02*
X164791Y197808D01*
X166391D01*
X165591Y196208D01*
X167520Y189239D02*
X166720Y190839D01*
X168320D01*
X167520Y189239D01*
X120158Y202798D02*
X119358Y204398D01*
X120958D01*
X120158Y202798D01*
X117913Y202783D02*
X117113Y204383D01*
X118713D01*
X117913Y202783D01*
X103996Y219574D02*
X103196Y221174D01*
X104796D01*
X103996Y219574D01*
X104055Y217271D02*
X103255Y218871D01*
X104855D01*
X104055Y217271D01*
X53228Y87901D02*
X52428Y89501D01*
X54028D01*
X53228Y87901D01*
X50965Y87960D02*
X50165Y89560D01*
X51765D01*
X50965Y87960D01*
X47972Y102527D02*
X47172Y104127D01*
X48772D01*
X47972Y102527D01*
X47913Y100263D02*
X47113Y101863D01*
X48713D01*
X47913Y100263D01*
X31063Y107310D02*
X30263Y108910D01*
X31863D01*
X31063Y107310D01*
X31063Y113137D02*
X30263Y114737D01*
X31863D01*
X31063Y113137D01*
X37087Y118846D02*
X36287Y120446D01*
X37887D01*
X37087Y118846D01*
X37126Y107310D02*
X36326Y108910D01*
X37926D01*
X37126Y107310D01*
X43937Y96405D02*
X43137Y98005D01*
X44737D01*
X43937Y96405D01*
X26984Y96468D02*
X26184Y98068D01*
X27784D01*
X26984Y96468D01*
X19410Y86125D02*
X18609Y87725D01*
X20210D01*
X19410Y86125D01*
Y66129D02*
X18609Y67729D01*
X20210D01*
X19410Y66129D01*
X38819Y69200D02*
X38019Y70800D01*
X39619D01*
X38819Y69200D01*
X39803Y74712D02*
X39003Y76312D01*
X40603D01*
X39803Y74712D01*
X40000Y79751D02*
X39200Y81351D01*
X40800D01*
X40000Y79751D01*
X40083Y83613D02*
X39283Y85213D01*
X40883D01*
X40083Y83613D01*
X110551Y91287D02*
X109751Y92887D01*
X111351D01*
X110551Y91287D01*
X66378Y71247D02*
X65578Y72847D01*
X67178D01*
X66378Y71247D01*
X74016Y71247D02*
X73216Y72847D01*
X74816D01*
X74016Y71247D01*
X66378Y78255D02*
X65578Y79855D01*
X67178D01*
X66378Y78255D01*
X74016Y78255D02*
X73216Y79855D01*
X74816D01*
X74016Y78255D01*
X74016Y64318D02*
X73216Y65918D01*
X74816D01*
X74016Y64318D01*
X66378Y64318D02*
X65578Y65918D01*
X67178D01*
X66378Y64318D01*
X66378Y57310D02*
X65578Y58910D01*
X67178D01*
X66378Y57310D01*
X74016Y57310D02*
X73216Y58910D01*
X74816D01*
X74016Y57310D01*
X94606Y72704D02*
X93806Y74304D01*
X95406D01*
X94606Y72704D01*
X94835Y64928D02*
X94035Y66528D01*
X95635D01*
X94835Y64928D01*
X94842Y75117D02*
X94042Y76717D01*
X95642D01*
X94842Y75117D01*
X82504Y56188D02*
X81704Y57788D01*
X83304D01*
X82504Y56188D01*
X112228Y61235D02*
X111428Y62835D01*
X113028D01*
X112228Y61235D01*
X110134Y59940D02*
X109334Y61540D01*
X110934D01*
X110134Y59940D01*
X110476Y62637D02*
X109676Y64237D01*
X111276D01*
X110476Y62637D01*
X102701Y63511D02*
X101901Y65111D01*
X103501D01*
X102701Y63511D01*
X86441Y67783D02*
X85641Y69383D01*
X87241D01*
X86441Y67783D01*
X86791Y71129D02*
X85991Y72729D01*
X87591D01*
X86791Y71129D01*
X84953Y56196D02*
X84153Y57796D01*
X85753D01*
X84953Y56196D01*
X86980Y57472D02*
X86180Y59072D01*
X87780D01*
X86980Y57472D01*
X105681Y57188D02*
X104881Y58788D01*
X106481D01*
X105681Y57188D01*
X120012Y106113D02*
X119212Y107713D01*
X120812D01*
X120012Y106113D01*
X101154Y106389D02*
X100354Y107989D01*
X101953D01*
X101154Y106389D01*
X104264Y106306D02*
X103464Y107906D01*
X105064D01*
X104264Y106306D01*
X116689Y85893D02*
X115889Y87493D01*
X117489D01*
X116689Y85893D01*
X113087Y85881D02*
X112287Y87481D01*
X113887D01*
X113087Y85881D01*
X115512Y202625D02*
X114712Y204225D01*
X116312D01*
X115512Y202625D01*
X132835Y107980D02*
X132035Y109580D01*
X133635D01*
X132835Y107980D01*
X123386Y100302D02*
X122586Y101902D01*
X124186D01*
X123386Y100302D01*
X126142Y103452D02*
X125342Y105052D01*
X126942D01*
X126142Y103452D01*
X126535Y100302D02*
X125735Y101902D01*
X127335D01*
X126535Y100302D01*
X88346Y97153D02*
X87546Y98753D01*
X89147D01*
X88346Y97153D01*
X107638Y134554D02*
X106838Y136154D01*
X108438D01*
X107638Y134554D01*
X124764Y144397D02*
X123964Y145997D01*
X125564D01*
X124764Y144397D01*
X132835Y139476D02*
X132035Y141076D01*
X133635D01*
X132835Y139476D01*
X93268Y144397D02*
X92468Y145997D01*
X94068D01*
X93268Y144397D01*
X118465Y96759D02*
X117665Y98359D01*
X119265D01*
X118465Y96759D01*
X91496Y121956D02*
X90696Y123556D01*
X92296D01*
X91496Y121956D01*
X102717Y96759D02*
X101917Y98359D01*
X103516D01*
X102717Y96759D01*
X107638Y112901D02*
X106838Y114501D01*
X108438D01*
X107638Y112901D01*
Y109751D02*
X106838Y111351D01*
X108438D01*
X107638Y109751D01*
Y125106D02*
X106838Y126706D01*
X108438D01*
X107638Y125106D01*
Y128255D02*
X106838Y129855D01*
X108438D01*
X107638Y128255D01*
Y131405D02*
X106838Y133005D01*
X108438D01*
X107638Y131405D01*
X88740Y112901D02*
X87940Y114501D01*
X89540D01*
X88740Y112901D01*
Y103452D02*
X87940Y105052D01*
X89540D01*
X88740Y103452D01*
Y100302D02*
X87940Y101902D01*
X89540D01*
X88740Y100302D01*
X91890Y106602D02*
X91090Y108202D01*
X92690D01*
X91890Y106602D01*
Y103452D02*
X91090Y105052D01*
X92690D01*
X91890Y103452D01*
Y100302D02*
X91090Y101902D01*
X92690D01*
X91890Y100302D01*
X95039Y109751D02*
X94239Y111351D01*
X95839D01*
X95039Y109751D01*
Y106602D02*
X94239Y108202D01*
X95839D01*
X95039Y106602D01*
Y103452D02*
X94239Y105052D01*
X95839D01*
X95039Y103452D01*
Y100302D02*
X94239Y101902D01*
X95839D01*
X95039Y100302D01*
X97941Y109397D02*
X97141Y110997D01*
X98741D01*
X97941Y109397D01*
X98189Y103452D02*
X97389Y105052D01*
X98989D01*
X98189Y103452D01*
X101421Y113314D02*
X100621Y114915D01*
X102221D01*
X101421Y113314D01*
X101350Y109542D02*
X100550Y111142D01*
X102150D01*
X101350Y109542D01*
X101339Y103452D02*
X100539Y105052D01*
X102139D01*
X101339Y103452D01*
X104638Y113271D02*
X103838Y114871D01*
X105438D01*
X104638Y113271D01*
X104350Y109499D02*
X103550Y111099D01*
X105150D01*
X104350Y109499D01*
X104488Y103452D02*
X103688Y105052D01*
X105288D01*
X104488Y103452D01*
X98189Y140854D02*
X97389Y142454D01*
X98989D01*
X98189Y140854D01*
X104488Y137704D02*
X103688Y139304D01*
X105288D01*
X104488Y137704D01*
X101339D02*
X100539Y139304D01*
X102139D01*
X101339Y137704D01*
X98189D02*
X97389Y139304D01*
X98989D01*
X98189Y137704D01*
X95039D02*
X94239Y139304D01*
X95839D01*
X95039Y137704D01*
X88740D02*
X87940Y139304D01*
X89540D01*
X88740Y137704D01*
X104488Y134554D02*
X103688Y136154D01*
X105288D01*
X104488Y134554D01*
X101339D02*
X100539Y136154D01*
X102139D01*
X101339Y134554D01*
X98189D02*
X97389Y136154D01*
X98989D01*
X98189Y134554D01*
X91890D02*
X91090Y136154D01*
X92690D01*
X91890Y134554D01*
X104488Y131405D02*
X103688Y133005D01*
X105288D01*
X104488Y131405D01*
X101339D02*
X100539Y133005D01*
X102139D01*
X101339Y131405D01*
X98189D02*
X97389Y133005D01*
X98989D01*
X98189Y131405D01*
X95039D02*
X94239Y133005D01*
X95839D01*
X95039Y131405D01*
X91890D02*
X91090Y133005D01*
X92690D01*
X91890Y131405D01*
X88740D02*
X87940Y133005D01*
X89540D01*
X88740Y131405D01*
X104488Y128255D02*
X103688Y129855D01*
X105288D01*
X104488Y128255D01*
X101339D02*
X100539Y129855D01*
X102139D01*
X101339Y128255D01*
X98189D02*
X97389Y129855D01*
X98989D01*
X98189Y128255D01*
X95039D02*
X94239Y129855D01*
X95839D01*
X95039Y128255D01*
X91890D02*
X91090Y129855D01*
X92690D01*
X91890Y128255D01*
X104488Y125106D02*
X103688Y126706D01*
X105288D01*
X104488Y125106D01*
X101339D02*
X100539Y126706D01*
X102139D01*
X101339Y125106D01*
X98189D02*
X97389Y126706D01*
X98989D01*
X98189Y125106D01*
X95039D02*
X94239Y126706D01*
X95839D01*
X95039Y125106D01*
Y121956D02*
X94239Y123556D01*
X95839D01*
X95039Y121956D01*
X104331Y121995D02*
X103531Y123595D01*
X105131D01*
X104331Y121995D01*
X129291Y134554D02*
X128491Y136154D01*
X130091D01*
X129291Y134554D01*
X126142Y128255D02*
X125342Y129855D01*
X126942D01*
X126142Y128255D01*
Y131405D02*
X125342Y133005D01*
X126942D01*
X126142Y131405D01*
Y134554D02*
X125342Y136154D01*
X126942D01*
X126142Y134554D01*
X122992Y131405D02*
X122192Y133005D01*
X123792D01*
X122992Y131405D01*
Y137704D02*
X122192Y139304D01*
X123792D01*
X122992Y137704D01*
X119843Y125106D02*
X119043Y126706D01*
X120642D01*
X119843Y125106D01*
Y128255D02*
X119043Y129855D01*
X120642D01*
X119843Y128255D01*
Y131405D02*
X119043Y133005D01*
X120642D01*
X119843Y131405D01*
X116693Y125106D02*
X115893Y126706D01*
X117493D01*
X116693Y125106D01*
Y128255D02*
X115893Y129855D01*
X117493D01*
X116693Y128255D01*
Y140854D02*
X115893Y142454D01*
X117493D01*
X116693Y140854D01*
X113543Y125106D02*
X112743Y126706D01*
X114343D01*
X113543Y125106D01*
Y128255D02*
X112743Y129855D01*
X114343D01*
X113543Y128255D01*
Y134554D02*
X112743Y136154D01*
X114343D01*
X113543Y134554D01*
X113543Y119200D02*
X112743Y120800D01*
X114343D01*
X113543Y119200D01*
X116693D02*
X115893Y120800D01*
X117493D01*
X116693Y119200D01*
X119843D02*
X119043Y120800D01*
X120642D01*
X119843Y119200D01*
X122992D02*
X122192Y120800D01*
X123792D01*
X122992Y119200D01*
Y116050D02*
X122192Y117650D01*
X123792D01*
X122992Y116050D01*
X119843D02*
X119043Y117650D01*
X120642D01*
X119843Y116050D01*
X116693D02*
X115893Y117650D01*
X117493D01*
X116693Y116050D01*
X119843Y112901D02*
X119043Y114501D01*
X120642D01*
X119843Y112901D01*
X116693D02*
X115893Y114501D01*
X117493D01*
X116693Y112901D01*
X113543D02*
X112743Y114501D01*
X114343D01*
X113543Y112901D01*
X126142Y109751D02*
X125342Y111351D01*
X126942D01*
X126142Y109751D01*
X122992D02*
X122192Y111351D01*
X123792D01*
X122992Y109751D01*
X119760Y110126D02*
X118960Y111725D01*
X120560D01*
X119760Y110126D01*
X116504Y109976D02*
X115704Y111576D01*
X117304D01*
X116504Y109976D01*
X113543Y109751D02*
X112743Y111351D01*
X114343D01*
X113543Y109751D01*
X116823Y106219D02*
X116023Y107819D01*
X117623D01*
X116823Y106219D01*
X113543Y106602D02*
X112743Y108202D01*
X114343D01*
X113543Y106602D01*
X122992Y103452D02*
X122192Y105052D01*
X123792D01*
X122992Y103452D01*
X113543Y100302D02*
X112743Y101902D01*
X114343D01*
X113543Y100302D01*
X132835Y123728D02*
X132035Y125328D01*
X133635D01*
X132835Y123728D01*
X109016Y144397D02*
X108216Y145997D01*
X109816D01*
X109016Y144397D01*
X124173Y173924D02*
X123373Y175524D01*
X124973D01*
X124173Y173924D01*
X164331Y171956D02*
X163531Y173556D01*
X165131D01*
X164331Y171956D01*
Y199515D02*
X163531Y201115D01*
X165131D01*
X164331Y199515D01*
X143268Y206798D02*
X142468Y208398D01*
X144068D01*
X143268Y206798D01*
X126535Y118806D02*
X125735Y120406D01*
X127335D01*
X126535Y118806D01*
X101339Y140854D02*
X100539Y142454D01*
X102139D01*
X101339Y140854D01*
X136831Y194259D02*
X136031Y195859D01*
X137631D01*
X136831Y194259D01*
X151850Y194369D02*
X151050Y195969D01*
X152650D01*
X151850Y194369D01*
X136535Y178913D02*
X135735Y180513D01*
X137335D01*
X136535Y178913D01*
X144252Y186720D02*
X143452Y188320D01*
X145052D01*
X144252Y186720D01*
X151850Y178983D02*
X151050Y180584D01*
X152650D01*
X151850Y178983D01*
X155079Y209633D02*
X154279Y211233D01*
X155879D01*
X155079Y209633D01*
X165630Y201483D02*
X164830Y203083D01*
X166430D01*
X165630Y201483D01*
X157047Y206798D02*
X156247Y208398D01*
X157847D01*
X157047Y206798D01*
X159016Y208098D02*
X158216Y209698D01*
X159816D01*
X159016Y208098D01*
X96831Y56157D02*
X96031Y57757D01*
X97631D01*
X96831Y56157D01*
X94854Y57472D02*
X94054Y59072D01*
X95654D01*
X94854Y57472D01*
X100768Y56157D02*
X99968Y57757D01*
X101568D01*
X100768Y56157D01*
X98791Y57472D02*
X97991Y59072D01*
X99591D01*
X98791Y57472D01*
X102728D02*
X101928Y59072D01*
X103528D01*
X102728Y57472D01*
X79571Y62889D02*
X78771Y64489D01*
X80371D01*
X79571Y62889D01*
X78256Y64850D02*
X77456Y66450D01*
X79056D01*
X78256Y64850D01*
X79571Y66826D02*
X78771Y68426D01*
X80371D01*
X79571Y66826D01*
X78256Y68787D02*
X77456Y70387D01*
X79056D01*
X78256Y68787D01*
X79571Y70763D02*
X78771Y72363D01*
X80371D01*
X79571Y70763D01*
X92634Y64483D02*
X91834Y66084D01*
X93434D01*
X92634Y64483D01*
X90760Y62767D02*
X89960Y64367D01*
X91560D01*
X90760Y62767D01*
X110106Y77668D02*
X109306Y79268D01*
X110906D01*
X110106Y77668D01*
X96811Y73031D02*
X96011Y74631D01*
X97611D01*
X96811Y73031D01*
X98768Y74373D02*
X97968Y75973D01*
X99568D01*
X98768Y74373D01*
X102693Y82543D02*
X101893Y84143D01*
X103493D01*
X102693Y82543D01*
X99567Y86920D02*
X98767Y88520D01*
X100367D01*
X99567Y86920D01*
X98006Y90686D02*
X97206Y92286D01*
X98806D01*
X98006Y90686D01*
X97323Y88456D02*
X96523Y90056D01*
X98123D01*
X97323Y88456D01*
X95319Y80117D02*
X94519Y81717D01*
X96119D01*
X95319Y80117D01*
X105236Y85495D02*
X104436Y87095D01*
X106036D01*
X105236Y85495D01*
X102744Y93928D02*
X101944Y95528D01*
X103544D01*
X102744Y93928D01*
X111520Y79550D02*
X110720Y81150D01*
X112320D01*
X111520Y79550D01*
X109906Y83381D02*
X109106Y84981D01*
X110705D01*
X109906Y83381D01*
X110114Y72255D02*
X109314Y73855D01*
X110914D01*
X110114Y72255D01*
X112634Y70724D02*
X111834Y72324D01*
X113434D01*
X112634Y70724D01*
X112689Y75291D02*
X111889Y76890D01*
X113489D01*
X112689Y75291D01*
X104791Y72617D02*
X103991Y74217D01*
X105591D01*
X104791Y72617D01*
X90902Y80291D02*
X90102Y81890D01*
X91702D01*
X90902Y80291D01*
X93067Y82566D02*
X92267Y84166D01*
X93867D01*
X93067Y82566D01*
X88711Y82629D02*
X87911Y84229D01*
X89511D01*
X88711Y82629D01*
X98772Y80239D02*
X97972Y81839D01*
X99572D01*
X98772Y80239D01*
X99039Y84141D02*
X98239Y85741D01*
X99839D01*
X99039Y84141D01*
X82024Y80235D02*
X81224Y81835D01*
X82824D01*
X82024Y80235D01*
X85677Y83082D02*
X84877Y84682D01*
X86477D01*
X85677Y83082D01*
X80984Y91869D02*
X80184Y93469D01*
X81784D01*
X80984Y91869D01*
X81921Y83491D02*
X81121Y85091D01*
X82721D01*
X81921Y83491D01*
X87559Y74724D02*
X86759Y76324D01*
X88359D01*
X87559Y74724D01*
X81453Y86668D02*
X80653Y88269D01*
X82253D01*
X81453Y86668D01*
X84622Y72688D02*
X83822Y74288D01*
X85422D01*
X84622Y72688D01*
X89472Y67795D02*
X88672Y69394D01*
X90272D01*
X89472Y67795D01*
X88968Y70007D02*
X88169Y71607D01*
X89768D01*
X88968Y70007D01*
X90492Y73389D02*
X89692Y74989D01*
X91292D01*
X90492Y73389D01*
X78138Y72743D02*
X77338Y74343D01*
X78938D01*
X78138Y72743D01*
X79295Y74704D02*
X78495Y76304D01*
X80095D01*
X79295Y74704D01*
X93146Y87405D02*
X92346Y89005D01*
X93946D01*
X93146Y87405D01*
X70382Y258487D02*
X69582Y260087D01*
X71182D01*
X70382Y258487D01*
X79043D02*
X78243Y260087D01*
X79843D01*
X79043Y258487D01*
X85197Y130027D02*
X84397Y131627D01*
X85997D01*
X85197Y130027D01*
X82008Y134554D02*
X81208Y136154D01*
X82808D01*
X82008Y134554D01*
X82047Y137704D02*
X81247Y139304D01*
X82847D01*
X82047Y137704D01*
X101339Y144003D02*
X100539Y145603D01*
X102139D01*
X101339Y144003D01*
X104646Y146090D02*
X103846Y147690D01*
X105446D01*
X104646Y146090D01*
X19449Y51129D02*
X18649Y52729D01*
X20249D01*
X19449Y51129D01*
Y56129D02*
X18649Y57729D01*
X20249D01*
X19449Y56129D01*
Y61129D02*
X18649Y62729D01*
X20249D01*
X19449Y61129D01*
Y71129D02*
X18649Y72729D01*
X20249D01*
X19449Y71129D01*
Y81129D02*
X18649Y82729D01*
X20249D01*
X19449Y81129D01*
X104331Y148531D02*
X103531Y150131D01*
X105131D01*
X104331Y148531D01*
X101811Y156995D02*
X101011Y158595D01*
X102611D01*
X101811Y156995D01*
X107087Y156956D02*
X106287Y158556D01*
X107887D01*
X107087Y156956D01*
X142244Y111129D02*
X141444Y112729D01*
X143044D01*
X142244Y111129D01*
X144803Y113688D02*
X144003Y115288D01*
X145603D01*
X144803Y113688D01*
X145866Y139791D02*
X145066Y141391D01*
X146666D01*
X145866Y139791D01*
X163937Y140027D02*
X163137Y141627D01*
X164737D01*
X163937Y140027D01*
X159606Y142940D02*
X158806Y144540D01*
X160406D01*
X159606Y142940D01*
X150630Y142901D02*
X149830Y144501D01*
X151430D01*
X150630Y142901D01*
X137559Y123728D02*
X136759Y125328D01*
X138359D01*
X137559Y123728D01*
X140236D02*
X139436Y125328D01*
X141036D01*
X140236Y123728D01*
X142756D02*
X141956Y125328D01*
X143556D01*
X142756Y123728D01*
X145591D02*
X144791Y125328D01*
X146391D01*
X145591Y123728D01*
X136142Y113964D02*
X135342Y115564D01*
X136942D01*
X136142Y113964D01*
X138465D02*
X137665Y115564D01*
X139265D01*
X138465Y113964D01*
X141417Y135086D02*
X140617Y136686D01*
X142217D01*
X141417Y135086D01*
X137441Y135047D02*
X136641Y136646D01*
X138241D01*
X137441Y135047D01*
X151634Y105913D02*
X150834Y107513D01*
X152434D01*
X151634Y105913D01*
X158602Y107487D02*
X157802Y109087D01*
X159402D01*
X158602Y107487D01*
X153937Y107310D02*
X153137Y108910D01*
X154737D01*
X153937Y107310D01*
X156220Y105893D02*
X155420Y107493D01*
X157020D01*
X156220Y105893D01*
X143524Y105480D02*
X142724Y107080D01*
X144324D01*
X143524Y105480D01*
X145846D02*
X145046Y107080D01*
X146646D01*
X145846Y105480D01*
X145827Y103078D02*
X145027Y104678D01*
X146627D01*
X145827Y103078D01*
X143484Y103117D02*
X142684Y104717D01*
X144284D01*
X143484Y103117D01*
X178366Y110204D02*
X177566Y111804D01*
X179166D01*
X178366Y110204D01*
X169862Y105834D02*
X169062Y107434D01*
X170662D01*
X169862Y105834D01*
X167264Y103157D02*
X166464Y104757D01*
X168064D01*
X167264Y103157D01*
X175079Y93944D02*
X174279Y95544D01*
X175879D01*
X175079Y93944D01*
X173661Y91661D02*
X172861Y93261D01*
X174461D01*
X173661Y91661D01*
X173484Y96326D02*
X172684Y97926D01*
X174284D01*
X173484Y96326D01*
X175059Y89358D02*
X174259Y90957D01*
X175859D01*
X175059Y89358D01*
X173779Y106208D02*
X172979Y107808D01*
X174580D01*
X173779Y106208D01*
X176221D02*
X175420Y107808D01*
X177021D01*
X176221Y106208D01*
Y103806D02*
X175420Y105406D01*
X177021D01*
X176221Y103806D01*
Y101326D02*
X175420Y102926D01*
X177021D01*
X176221Y101326D01*
X141417Y97704D02*
X140617Y99304D01*
X142217D01*
X141417Y97704D01*
X143661Y97743D02*
X142861Y99343D01*
X144461D01*
X143661Y97743D01*
X145945D02*
X145145Y99343D01*
X146745D01*
X145945Y97743D01*
X148307Y97783D02*
X147507Y99383D01*
X149107D01*
X148307Y97783D01*
X147795Y69751D02*
X146995Y71351D01*
X148595D01*
X147795Y69751D01*
X145433Y69712D02*
X144633Y71312D01*
X146233D01*
X145433Y69712D01*
X143150D02*
X142350Y71312D01*
X143950D01*
X143150Y69712D01*
X140905Y69672D02*
X140105Y71272D01*
X141706D01*
X140905Y69672D01*
X175709Y73295D02*
X174909Y74894D01*
X176509D01*
X175709Y73295D01*
Y75775D02*
X174909Y77375D01*
X176509D01*
X175709Y75775D01*
Y78176D02*
X174909Y79776D01*
X176509D01*
X175709Y78176D01*
X173268D02*
X172468Y79776D01*
X174068D01*
X173268Y78176D01*
X174547Y61326D02*
X173747Y62926D01*
X175347D01*
X174547Y61326D01*
X172972Y68295D02*
X172172Y69894D01*
X173772D01*
X172972Y68295D01*
X173150Y63629D02*
X172350Y65229D01*
X173950D01*
X173150Y63629D01*
X174567Y65913D02*
X173767Y67513D01*
X175367D01*
X174567Y65913D01*
X166752Y75125D02*
X165952Y76725D01*
X167552D01*
X166752Y75125D01*
X169350Y77921D02*
X168550Y79520D01*
X170150D01*
X169350Y77921D01*
X142992Y50460D02*
X142192Y52060D01*
X143792D01*
X142992Y50460D01*
X151890D02*
X151090Y52060D01*
X152690D01*
X151890Y50460D01*
X152323Y78649D02*
X151523Y80249D01*
X153123D01*
X152323Y78649D01*
X143425D02*
X142625Y80249D01*
X144225D01*
X143425Y78649D01*
X143465Y85066D02*
X142665Y86666D01*
X144265D01*
X143465Y85066D01*
X152342Y85086D02*
X151542Y86686D01*
X153142D01*
X152342Y85086D01*
X143012Y56897D02*
X142212Y58497D01*
X143812D01*
X143012Y56897D01*
X151929Y56877D02*
X151129Y58477D01*
X152729D01*
X151929Y56877D01*
X185787Y185106D02*
X184987Y186706D01*
X186587D01*
X185787Y185106D01*
X185748Y189476D02*
X184948Y191076D01*
X186548D01*
X185748Y189476D01*
X82559Y151523D02*
X81759Y153123D01*
X83359D01*
X82559Y151523D01*
Y164791D02*
X81759Y166391D01*
X83359D01*
X82559Y164791D01*
X172441Y140696D02*
X171641Y142296D01*
X173241D01*
X172441Y140696D01*
X168465Y140657D02*
X167665Y142257D01*
X169265D01*
X168465Y140657D01*
X172480Y148491D02*
X171680Y150091D01*
X173280D01*
X172480Y148491D01*
X103150Y203609D02*
X102350Y205209D01*
X103950D01*
X103150Y203609D01*
X97559Y209161D02*
X96759Y210761D01*
X98359D01*
X97559Y209161D01*
X108701Y209003D02*
X107901Y210603D01*
X109501D01*
X108701Y209003D01*
X108780Y198255D02*
X107980Y199855D01*
X109580D01*
X108780Y198255D01*
X97835D02*
X97035Y199855D01*
X98635D01*
X97835Y198255D01*
X90118Y206602D02*
X89318Y208202D01*
X90918D01*
X90118Y206602D01*
X90236Y200657D02*
X89436Y202257D01*
X91036D01*
X90236Y200657D01*
X137677Y231798D02*
X136877Y233398D01*
X138477D01*
X137677Y231798D01*
X140433Y245972D02*
X139633Y247572D01*
X141233D01*
X140433Y245972D01*
X150039Y227940D02*
X149239Y229540D01*
X150839D01*
X150039Y227940D01*
X147913Y230696D02*
X147113Y232296D01*
X148713D01*
X147913Y230696D01*
X152126Y230617D02*
X151326Y232217D01*
X152926D01*
X152126Y230617D01*
Y225224D02*
X151326Y226824D01*
X152926D01*
X152126Y225224D01*
X147913D02*
X147113Y226824D01*
X148713D01*
X147913Y225224D01*
X166654Y224121D02*
X165854Y225721D01*
X167454D01*
X166654Y224121D01*
X158504Y233846D02*
X157704Y235446D01*
X159304D01*
X158504Y233846D01*
X161181Y216562D02*
X160381Y218162D01*
X161981D01*
X161181Y216562D01*
X163622Y214318D02*
X162822Y215918D01*
X164422D01*
X163622Y214318D01*
X165394Y216483D02*
X164594Y218084D01*
X166194D01*
X165394Y216483D01*
X169528Y216405D02*
X168728Y218005D01*
X170328D01*
X169528Y216405D01*
X167047Y214239D02*
X166247Y215839D01*
X167847D01*
X167047Y214239D01*
X169685Y220145D02*
X168885Y221745D01*
X170485D01*
X169685Y220145D01*
X173071Y220106D02*
X172271Y221706D01*
X173871D01*
X173071Y220106D01*
X171457Y223216D02*
X170657Y224816D01*
X172257D01*
X171457Y223216D01*
X165512Y239161D02*
X164712Y240761D01*
X166312D01*
X165512Y239161D01*
X169606Y239200D02*
X168806Y240800D01*
X170406D01*
X169606Y239200D01*
X167756Y237428D02*
X166956Y239028D01*
X168556D01*
X167756Y237428D01*
X170158Y227586D02*
X169358Y229186D01*
X170958D01*
X170158Y227586D01*
X106102Y223058D02*
X105302Y224658D01*
X106902D01*
X106102Y223058D01*
X176496Y236523D02*
X175696Y238123D01*
X177296D01*
X176496Y236523D01*
X174173Y238413D02*
X173373Y240013D01*
X174973D01*
X174173Y238413D01*
X176535Y240735D02*
X175735Y242335D01*
X177335D01*
X176535Y240735D01*
X173779Y242743D02*
X172979Y244343D01*
X174580D01*
X173779Y242743D01*
X176260Y244042D02*
X175460Y245642D01*
X177060D01*
X176260Y244042D01*
X192953Y245893D02*
X192153Y247493D01*
X193753D01*
X192953Y245893D01*
X195866D02*
X195066Y247493D01*
X196666D01*
X195866Y245893D01*
X198898D02*
X198098Y247493D01*
X199698D01*
X198898Y245893D01*
X197559Y243531D02*
X196759Y245131D01*
X198359D01*
X197559Y243531D01*
X194882D02*
X194082Y245131D01*
X195682D01*
X194882Y243531D01*
X198268Y231562D02*
X197468Y233162D01*
X199068D01*
X198268Y231562D01*
X94803Y228649D02*
X94003Y230249D01*
X95603D01*
X94803Y228649D01*
X126417Y207940D02*
X125617Y209540D01*
X127217D01*
X126417Y207940D01*
X129055Y210775D02*
X128255Y212375D01*
X129855D01*
X129055Y210775D01*
X112598Y221247D02*
X111798Y222847D01*
X113398D01*
X112598Y221247D01*
X115787Y214948D02*
X114987Y216548D01*
X116587D01*
X115787Y214948D01*
X115079Y218413D02*
X114279Y220013D01*
X115879D01*
X115079Y218413D01*
X66614Y89515D02*
X65814Y91115D01*
X67414D01*
X66614Y89515D01*
X72047Y83924D02*
X71247Y85524D01*
X72847D01*
X72047Y83924D01*
X39331Y61917D02*
X38531Y63516D01*
X40131D01*
X39331Y61917D01*
X39016Y51484D02*
X38216Y53083D01*
X39816D01*
X39016Y51484D01*
X191220Y228294D02*
X190420Y229894D01*
X192020D01*
X191220Y228294D01*
X186890Y219476D02*
X186090Y221076D01*
X187690D01*
X186890Y219476D01*
X181929Y214397D02*
X181129Y215997D01*
X182729D01*
X181929Y214397D01*
X181024Y205539D02*
X180224Y207139D01*
X181824D01*
X181024Y205539D01*
X181142Y197310D02*
X180342Y198910D01*
X181942D01*
X181142Y197310D01*
X181339Y188767D02*
X180539Y190367D01*
X182139D01*
X181339Y188767D01*
X174331Y194239D02*
X173531Y195839D01*
X175131D01*
X174331Y194239D01*
X174528Y203452D02*
X173728Y205052D01*
X175328D01*
X174528Y203452D01*
X174449Y213373D02*
X173649Y214973D01*
X175249D01*
X174449Y213373D01*
X177205Y221365D02*
X176405Y222965D01*
X178005D01*
X177205Y221365D01*
X184488Y230381D02*
X183688Y231981D01*
X185288D01*
X184488Y230381D01*
X107874Y230302D02*
X107074Y231902D01*
X108674D01*
X107874Y230302D01*
X144724Y212389D02*
X143924Y213989D01*
X145524D01*
X144724Y212389D01*
X132283Y212468D02*
X131483Y214068D01*
X133083D01*
X132283Y212468D01*
X113150Y243649D02*
X112350Y245249D01*
X113950D01*
X113150Y243649D01*
X61890Y236798D02*
X61090Y238398D01*
X62690D01*
X61890Y236798D01*
X68032Y176720D02*
X67232Y178320D01*
X68831D01*
X68032Y176720D01*
X83150Y175735D02*
X82350Y177335D01*
X83950D01*
X83150Y175735D01*
X83346Y188334D02*
X82547Y189934D01*
X84146D01*
X83346Y188334D01*
Y201523D02*
X82547Y203123D01*
X84146D01*
X83346Y201523D01*
X69410Y190460D02*
X68609Y192060D01*
X70209D01*
X69410Y190460D01*
X69291Y205105D02*
X68491Y206705D01*
X70091D01*
X69291Y205105D01*
X89567Y230539D02*
X88767Y232139D01*
X90367D01*
X89567Y230539D01*
X65709Y233452D02*
X64909Y235052D01*
X66509D01*
X65709Y233452D01*
X185039Y153255D02*
X184239Y154855D01*
X185839D01*
X185039Y153255D01*
X186378Y166523D02*
X185578Y168123D01*
X187178D01*
X186378Y166523D01*
X176496Y144909D02*
X175696Y146509D01*
X177296D01*
X176496Y144909D01*
X184961Y59318D02*
X184161Y60918D01*
X185761D01*
X184961Y59318D01*
X69567Y160263D02*
X68767Y161863D01*
X70367D01*
X69567Y160263D01*
X66890Y144200D02*
X66090Y145800D01*
X67690D01*
X66890Y144200D01*
X43819Y208885D02*
X43019Y210485D01*
X44619D01*
X43819Y208885D01*
X73858Y109279D02*
X73058Y110879D01*
X74658D01*
X73858Y109279D01*
X114134Y233826D02*
X113334Y235426D01*
X114934D01*
X114134Y233826D01*
Y231582D02*
X113334Y233182D01*
X114934D01*
X114134Y231582D01*
X91890Y109751D02*
X91090Y111351D01*
X92690D01*
X91890Y109751D01*
X98165Y113314D02*
X97365Y114914D01*
X98965D01*
X98165Y113314D01*
X95039Y112901D02*
X94239Y114501D01*
X95839D01*
X95039Y112901D01*
X91693Y112625D02*
X90893Y114225D01*
X92493D01*
X91693Y112625D01*
X97598Y116444D02*
X96798Y118044D01*
X98398D01*
X97598Y116444D01*
X91693Y249633D02*
X90893Y251233D01*
X92493D01*
X91693Y249633D01*
X91890Y137704D02*
X91090Y139304D01*
X92690D01*
X91890Y137704D01*
X95039Y134554D02*
X94239Y136154D01*
X95839D01*
X95039Y134554D01*
X60394Y83452D02*
X59594Y85052D01*
X61194D01*
X60394Y83452D01*
D12*
X10800Y215000D02*
G03*
X10800Y215000I-800J0D01*
G01*
X30800Y10000D02*
G03*
X30800Y10000I-800J0D01*
G01*
X140800D02*
G03*
X140800Y10000I-800J0D01*
G01*
X200800Y210000D02*
G03*
X200800Y210000I-800J0D01*
G01*
M02*
