G04 Layer_Color=65535*
%FSLAX25Y25*%
%MOIN*%
G70*
G01*
G75*
%ADD10C,0.00591*%
%ADD55C,0.00394*%
%ADD56C,0.00787*%
%ADD57C,0.01181*%
%ADD61C,0.01575*%
%ADD63C,0.00472*%
%ADD69C,0.02362*%
%ADD75C,0.00984*%
G36*
X126156Y33685D02*
X65591D01*
Y42373D01*
X126156D01*
Y33685D01*
D02*
G37*
%LPC*%
G36*
X116880Y41373D02*
X110782D01*
X108817Y39704D01*
X107962Y34685D01*
X110334D01*
X111189Y39592D01*
X111759Y40070D01*
X114294D01*
X114019Y38625D01*
X113449Y38136D01*
X111780D01*
X111576Y36833D01*
X112686D01*
X113378Y34685D01*
X115719D01*
X115923Y35978D01*
X115353D01*
X115007Y37057D01*
X114498D01*
X116391Y38513D01*
X116880Y41373D01*
D02*
G37*
G36*
X85332D02*
X76017D01*
X74867Y34685D01*
X77239D01*
X78186Y40070D01*
X80120D01*
X79173Y34685D01*
X81545D01*
X82492Y40070D01*
X83958D01*
X84334Y39612D01*
X83489Y34685D01*
X85861D01*
X86727Y39673D01*
X85332Y41373D01*
D02*
G37*
G36*
X108603D02*
X102506D01*
X100541Y39704D01*
X99686Y34685D01*
X105773D01*
X107738Y36355D01*
X108603Y41373D01*
D02*
G37*
G36*
X125156D02*
X119058D01*
X117094Y39704D01*
X116238Y34685D01*
X123996D01*
X124199Y35978D01*
X118814D01*
X118987Y36833D01*
X124372D01*
X124586Y38136D01*
X119201D01*
X119465Y39592D01*
X120036Y40070D01*
X122570D01*
X122377Y38991D01*
X124749D01*
X125156Y41373D01*
D02*
G37*
G36*
X75508D02*
X73136D01*
X72750Y39215D01*
X69736D01*
X70113Y41373D01*
X67741D01*
X66590Y34685D01*
X68963D01*
X69533Y37912D01*
X72546D01*
X71976Y34685D01*
X74348D01*
X75508Y41373D01*
D02*
G37*
G36*
X91674Y39215D02*
X87144D01*
X86940Y37912D01*
X91470D01*
X91674Y39215D01*
D02*
G37*
G36*
X100327Y41373D02*
X94229D01*
X92264Y39704D01*
X91409Y34685D01*
X99167D01*
X99370Y35978D01*
X93985D01*
X94636Y39592D01*
X95206Y40070D01*
X97741D01*
X97548Y38991D01*
X99920D01*
X100327Y41373D01*
D02*
G37*
%LPD*%
G36*
X105366Y36467D02*
X104796Y35978D01*
X102261D01*
X102913Y39592D01*
X103483Y40070D01*
X106018D01*
X105366Y36467D01*
D02*
G37*
D10*
X25276Y14724D02*
Y17874D01*
X22992Y14724D02*
X25276D01*
X25630Y45709D02*
Y48858D01*
X23346D02*
X25630D01*
X15905Y45669D02*
Y48819D01*
X18189D01*
X15827Y14724D02*
X18110D01*
X15827D02*
Y17874D01*
X187112Y165603D02*
X186456Y166259D01*
X185144D01*
X184488Y165603D01*
Y162979D01*
X185144Y162323D01*
X186456D01*
X187112Y162979D01*
Y164291D01*
X185800D01*
X188424Y162323D02*
Y166259D01*
X191048Y162323D01*
Y166259D01*
X192360D02*
Y162323D01*
X194327D01*
X194983Y162979D01*
Y165603D01*
X194327Y166259D01*
X192360D01*
X187047Y123504D02*
X188359D01*
X187703D01*
Y127440D01*
X187047Y126784D01*
X190327D02*
X190983Y127440D01*
X192295D01*
X192951Y126784D01*
Y124160D01*
X192295Y123504D01*
X190983D01*
X190327Y124160D01*
Y126784D01*
X187047Y133622D02*
X188359D01*
X187703D01*
Y137558D01*
X187047Y136902D01*
X190327Y133622D02*
X191639D01*
X190983D01*
Y137558D01*
X190327Y136902D01*
X187047Y142874D02*
X188359D01*
X187703D01*
Y146810D01*
X187047Y146154D01*
X192951Y142874D02*
X190327D01*
X192951Y145498D01*
Y146154D01*
X192295Y146810D01*
X190983D01*
X190327Y146154D01*
X187047Y153268D02*
X188359D01*
X187703D01*
Y157203D01*
X187047Y156547D01*
X190327D02*
X190983Y157203D01*
X192295D01*
X192951Y156547D01*
Y155892D01*
X192295Y155236D01*
X191639D01*
X192295D01*
X192951Y154580D01*
Y153924D01*
X192295Y153268D01*
X190983D01*
X190327Y153924D01*
X187047Y113373D02*
X187703Y112717D01*
X189015D01*
X189671Y113373D01*
Y115996D01*
X189015Y116652D01*
X187703D01*
X187047Y115996D01*
Y115340D01*
X187703Y114684D01*
X189671D01*
X187047Y107099D02*
X187703Y107755D01*
X189015D01*
X189671Y107099D01*
Y106443D01*
X189015Y105787D01*
X189671Y105131D01*
Y104475D01*
X189015Y103819D01*
X187703D01*
X187047Y104475D01*
Y105131D01*
X187703Y105787D01*
X187047Y106443D01*
Y107099D01*
X187703Y105787D02*
X189015D01*
X186285Y187729D02*
X185629Y188385D01*
X184317D01*
X183661Y187729D01*
Y187073D01*
X184317Y186417D01*
X185629D01*
X186285Y185761D01*
Y185105D01*
X185629Y184449D01*
X184317D01*
X183661Y185105D01*
X187597Y188385D02*
Y184449D01*
X189565D01*
X190221Y185105D01*
Y187729D01*
X189565Y188385D01*
X187597D01*
X191533Y184449D02*
Y187073D01*
X192845Y188385D01*
X194157Y187073D01*
Y184449D01*
Y186417D01*
X191533D01*
X187520Y92007D02*
X190144D01*
Y91351D01*
X187520Y88727D01*
Y88071D01*
Y21941D02*
X188176Y22597D01*
X189488D01*
X190144Y21941D01*
Y19317D01*
X189488Y18661D01*
X188176D01*
X187520Y19317D01*
Y21941D01*
Y27559D02*
X188832D01*
X188176D01*
Y31495D01*
X187520Y30839D01*
X190144Y82243D02*
X188832Y81587D01*
X187520Y80275D01*
Y78963D01*
X188176Y78307D01*
X189488D01*
X190144Y78963D01*
Y79619D01*
X189488Y80275D01*
X187520D01*
X190144Y72046D02*
X187520D01*
Y70078D01*
X188832Y70734D01*
X189488D01*
X190144Y70078D01*
Y68766D01*
X189488Y68110D01*
X188176D01*
X187520Y68766D01*
X189488Y57717D02*
Y61652D01*
X187520Y59684D01*
X190144D01*
X187520Y51744D02*
X188176Y52400D01*
X189488D01*
X190144Y51744D01*
Y51088D01*
X189488Y50432D01*
X188832D01*
X189488D01*
X190144Y49777D01*
Y49121D01*
X189488Y48465D01*
X188176D01*
X187520Y49121D01*
X190144Y38346D02*
X187520D01*
X190144Y40970D01*
Y41626D01*
X189488Y42282D01*
X188176D01*
X187520Y41626D01*
X16024Y137953D02*
Y141888D01*
X17991D01*
X18647Y141233D01*
Y139921D01*
X17991Y139265D01*
X16024D01*
X17335D02*
X18647Y137953D01*
X22583Y141233D02*
X21927Y141888D01*
X20615D01*
X19959Y141233D01*
Y140577D01*
X20615Y139921D01*
X21927D01*
X22583Y139265D01*
Y138609D01*
X21927Y137953D01*
X20615D01*
X19959Y138609D01*
X23895Y141888D02*
X26519D01*
X25207D01*
Y137953D01*
X18647Y121731D02*
X16024D01*
Y119763D01*
X17335Y120419D01*
X17991D01*
X18647Y119763D01*
Y118451D01*
X17991Y117795D01*
X16680D01*
X16024Y118451D01*
X19959Y121731D02*
Y119107D01*
X21271Y117795D01*
X22583Y119107D01*
Y121731D01*
X18098Y102506D02*
X17442Y101850D01*
Y100538D01*
X18098Y99882D01*
X20722D01*
X21378Y100538D01*
Y101850D01*
X20722Y102506D01*
X19410D01*
Y101194D01*
X21378Y103818D02*
X17442D01*
X21378Y106441D01*
X17442D01*
Y107753D02*
X21378D01*
Y109721D01*
X20722Y110377D01*
X18098D01*
X17442Y109721D01*
Y107753D01*
X17441Y44016D02*
Y46640D01*
X18753Y47951D01*
X20065Y46640D01*
Y44016D01*
Y45984D01*
X17441D01*
X21377Y47295D02*
X22033Y47951D01*
X23345D01*
X24001Y47295D01*
Y44672D01*
X23345Y44016D01*
X22033D01*
X21377Y44672D01*
Y47295D01*
X17441Y38465D02*
Y41088D01*
X18753Y42400D01*
X20065Y41088D01*
Y38465D01*
Y40432D01*
X17441D01*
X21377Y38465D02*
X22689D01*
X22033D01*
Y42400D01*
X21377Y41744D01*
X17441Y32677D02*
Y35301D01*
X18753Y36613D01*
X20065Y35301D01*
Y32677D01*
Y34645D01*
X17441D01*
X24001Y32677D02*
X21377D01*
X24001Y35301D01*
Y35957D01*
X23345Y36613D01*
X22033D01*
X21377Y35957D01*
X17441Y26535D02*
Y29159D01*
X18753Y30471D01*
X20065Y29159D01*
Y26535D01*
Y28503D01*
X17441D01*
X21377Y29815D02*
X22033Y30471D01*
X23345D01*
X24001Y29815D01*
Y29159D01*
X23345Y28503D01*
X22689D01*
X23345D01*
X24001Y27847D01*
Y27191D01*
X23345Y26535D01*
X22033D01*
X21377Y27191D01*
X17441Y20748D02*
Y23372D01*
X18753Y24684D01*
X20065Y23372D01*
Y20748D01*
Y22716D01*
X17441D01*
X23345Y20748D02*
Y24684D01*
X21377Y22716D01*
X24001D01*
X17441Y15512D02*
Y18136D01*
X18753Y19448D01*
X20065Y18136D01*
Y15512D01*
Y17480D01*
X17441D01*
X24001Y19448D02*
X21377D01*
Y17480D01*
X22689Y18136D01*
X23345D01*
X24001Y17480D01*
Y16168D01*
X23345Y15512D01*
X22033D01*
X21377Y16168D01*
X186285Y195484D02*
X185629Y196141D01*
X184317D01*
X183661Y195484D01*
Y194828D01*
X184317Y194173D01*
X185629D01*
X186285Y193517D01*
Y192861D01*
X185629Y192205D01*
X184317D01*
X183661Y192861D01*
X190221Y195484D02*
X189565Y196141D01*
X188253D01*
X187597Y195484D01*
Y192861D01*
X188253Y192205D01*
X189565D01*
X190221Y192861D01*
X191533Y196141D02*
Y192205D01*
X194157D01*
D55*
X175512Y197008D02*
X192362D01*
Y207126D01*
X189449D02*
X192362D01*
X189449D02*
Y223780D01*
X175512D02*
X189449D01*
X175512Y197008D02*
Y223780D01*
X164055Y176457D02*
Y198858D01*
X164094Y176417D02*
X164528D01*
X164055Y176457D02*
X164094Y176417D01*
X165472Y200827D02*
X175512D01*
Y184921D02*
Y200827D01*
Y184921D02*
X182402D01*
Y176417D02*
Y184921D01*
X164528Y176417D02*
X182402D01*
X67348Y30117D02*
X66430D01*
X66889D01*
Y27821D01*
X66430Y27362D01*
X65971D01*
X65512Y27821D01*
X70104Y30117D02*
X68267D01*
Y28740D01*
X69185Y29199D01*
X69644D01*
X70104Y28740D01*
Y27821D01*
X69644Y27362D01*
X68726D01*
X68267Y27821D01*
X89213Y148622D02*
X86458D01*
Y150000D01*
X86917Y150459D01*
X87835D01*
X88294Y150000D01*
Y148622D01*
Y149540D02*
X89213Y150459D01*
Y152755D02*
X86458D01*
X87835Y151377D01*
Y153214D01*
X86458Y155969D02*
Y154132D01*
X87835D01*
X87376Y155050D01*
Y155510D01*
X87835Y155969D01*
X88753D01*
X89213Y155510D01*
Y154591D01*
X88753Y154132D01*
X142112Y164067D02*
X141653Y164527D01*
X140735D01*
X140276Y164067D01*
Y162231D01*
X140735Y161772D01*
X141653D01*
X142112Y162231D01*
X143031Y161772D02*
X143949D01*
X143490D01*
Y164527D01*
X143031Y164067D01*
X145326D02*
X145786Y164527D01*
X146704D01*
X147163Y164067D01*
Y162231D01*
X146704Y161772D01*
X145786D01*
X145326Y162231D01*
Y164067D01*
X148082Y161772D02*
X149000D01*
X148541D01*
Y164527D01*
X148082Y164067D01*
X174737Y131866D02*
X171982D01*
Y133243D01*
X172441Y133702D01*
X173360D01*
X173819Y133243D01*
Y131866D01*
Y132784D02*
X174737Y133702D01*
X171982Y136457D02*
Y134621D01*
X173360D01*
X172900Y135539D01*
Y135998D01*
X173360Y136457D01*
X174278D01*
X174737Y135998D01*
Y135080D01*
X174278Y134621D01*
X171982Y137376D02*
Y139212D01*
X172441D01*
X174278Y137376D01*
X174737D01*
X169213Y132047D02*
X166458D01*
Y133425D01*
X166917Y133884D01*
X167835D01*
X168294Y133425D01*
Y132047D01*
Y132966D02*
X169213Y133884D01*
X166458Y136639D02*
Y134802D01*
X167835D01*
X167376Y135721D01*
Y136180D01*
X167835Y136639D01*
X168753D01*
X169213Y136180D01*
Y135261D01*
X168753Y134802D01*
X166458Y139394D02*
Y137557D01*
X167835D01*
X167376Y138476D01*
Y138935D01*
X167835Y139394D01*
X168753D01*
X169213Y138935D01*
Y138016D01*
X168753Y137557D01*
X98740Y249213D02*
X95985D01*
Y250590D01*
X96444Y251049D01*
X97363D01*
X97822Y250590D01*
Y249213D01*
Y250131D02*
X98740Y251049D01*
X95985Y253804D02*
Y251968D01*
X97363D01*
X96904Y252886D01*
Y253345D01*
X97363Y253804D01*
X98281D01*
X98740Y253345D01*
Y252427D01*
X98281Y251968D01*
X98740Y254723D02*
Y255641D01*
Y255182D01*
X95985D01*
X96444Y254723D01*
X42677Y247638D02*
X39922D01*
Y249015D01*
X40381Y249475D01*
X41300D01*
X41759Y249015D01*
Y247638D01*
Y248556D02*
X42677Y249475D01*
X39922Y252229D02*
Y250393D01*
X41300D01*
X40841Y251311D01*
Y251770D01*
X41300Y252229D01*
X42218D01*
X42677Y251770D01*
Y250852D01*
X42218Y250393D01*
X40381Y253148D02*
X39922Y253607D01*
Y254525D01*
X40381Y254984D01*
X42218D01*
X42677Y254525D01*
Y253607D01*
X42218Y253148D01*
X40381D01*
X99213Y268424D02*
Y265669D01*
X100590D01*
X101049Y266128D01*
Y267965D01*
X100590Y268424D01*
X99213D01*
X101968D02*
X103804D01*
Y267965D01*
X101968Y266128D01*
Y265669D01*
X39686Y256811D02*
X42441D01*
Y258189D01*
X41982Y258648D01*
X40145D01*
X39686Y258189D01*
Y256811D01*
Y261403D02*
X40145Y260484D01*
X41063Y259566D01*
X41982D01*
X42441Y260025D01*
Y260944D01*
X41982Y261403D01*
X41523D01*
X41063Y260944D01*
Y259566D01*
X138740Y219448D02*
Y216693D01*
X140118D01*
X140577Y217152D01*
Y218989D01*
X140118Y219448D01*
X138740D01*
X142873Y216693D02*
Y219448D01*
X141495Y218070D01*
X143332D01*
X62310Y74435D02*
X61851Y73976D01*
Y73058D01*
X62310Y72598D01*
X64147D01*
X64606Y73058D01*
Y73976D01*
X64147Y74435D01*
Y75353D02*
X64606Y75813D01*
Y76731D01*
X64147Y77190D01*
X62310D01*
X61851Y76731D01*
Y75813D01*
X62310Y75353D01*
X62770D01*
X63229Y75813D01*
Y77190D01*
X61851Y78109D02*
Y79945D01*
X62310D01*
X64147Y78109D01*
X64606D01*
X62300Y58648D02*
X61840Y58188D01*
Y57270D01*
X62300Y56811D01*
X64136D01*
X64595Y57270D01*
Y58188D01*
X64136Y58648D01*
Y59566D02*
X64595Y60025D01*
Y60944D01*
X64136Y61403D01*
X62300D01*
X61840Y60944D01*
Y60025D01*
X62300Y59566D01*
X62759D01*
X63218Y60025D01*
Y61403D01*
X61840Y64158D02*
X62300Y63239D01*
X63218Y62321D01*
X64136D01*
X64595Y62780D01*
Y63699D01*
X64136Y64158D01*
X63677D01*
X63218Y63699D01*
Y62321D01*
X99278Y65288D02*
X98818Y65747D01*
X97900D01*
X97441Y65288D01*
Y63451D01*
X97900Y62992D01*
X98818D01*
X99278Y63451D01*
X100196D02*
X100655Y62992D01*
X101574D01*
X102033Y63451D01*
Y65288D01*
X101574Y65747D01*
X100655D01*
X100196Y65288D01*
Y64829D01*
X100655Y64370D01*
X102033D01*
X104788Y65747D02*
X102951D01*
Y64370D01*
X103869Y64829D01*
X104329D01*
X104788Y64370D01*
Y63451D01*
X104329Y62992D01*
X103410D01*
X102951Y63451D01*
X93018Y72060D02*
X92559Y72519D01*
X91640D01*
X91181Y72060D01*
Y70223D01*
X91640Y69764D01*
X92559D01*
X93018Y70223D01*
X93936D02*
X94395Y69764D01*
X95314D01*
X95773Y70223D01*
Y72060D01*
X95314Y72519D01*
X94395D01*
X93936Y72060D01*
Y71601D01*
X94395Y71141D01*
X95773D01*
X98069Y69764D02*
Y72519D01*
X96691Y71141D01*
X98528D01*
X173215Y248936D02*
X172296D01*
X172756D01*
Y246640D01*
X172296Y246181D01*
X171837D01*
X171378Y246640D01*
X174133D02*
X174592Y246181D01*
X175511D01*
X175970Y246640D01*
Y248477D01*
X175511Y248936D01*
X174592D01*
X174133Y248477D01*
Y248018D01*
X174592Y247559D01*
X175970D01*
X121181Y86850D02*
X118426D01*
Y88228D01*
X118885Y88687D01*
X119804D01*
X120263Y88228D01*
Y86850D01*
Y87769D02*
X121181Y88687D01*
Y91442D02*
Y89605D01*
X119344Y91442D01*
X118885D01*
X118426Y90983D01*
Y90065D01*
X118885Y89605D01*
Y92360D02*
X118426Y92820D01*
Y93738D01*
X118885Y94197D01*
X119344D01*
X119804Y93738D01*
Y93279D01*
Y93738D01*
X120263Y94197D01*
X120722D01*
X121181Y93738D01*
Y92820D01*
X120722Y92360D01*
X111417Y87008D02*
X108662D01*
Y88385D01*
X109122Y88845D01*
X110040D01*
X110499Y88385D01*
Y87008D01*
Y87926D02*
X111417Y88845D01*
Y91600D02*
Y89763D01*
X109581Y91600D01*
X109122D01*
X108662Y91140D01*
Y90222D01*
X109122Y89763D01*
X111417Y94355D02*
Y92518D01*
X109581Y94355D01*
X109122D01*
X108662Y93895D01*
Y92977D01*
X109122Y92518D01*
X15695Y253477D02*
X15236Y253936D01*
X14317D01*
X13858Y253477D01*
Y253018D01*
X14317Y252559D01*
X15236D01*
X15695Y252099D01*
Y251640D01*
X15236Y251181D01*
X14317D01*
X13858Y251640D01*
X16613Y251181D02*
X17532D01*
X17073D01*
Y253936D01*
X16613Y253477D01*
X16694Y178858D02*
X18990D01*
X19449Y179317D01*
Y180236D01*
X18990Y180695D01*
X16694D01*
X19449Y183450D02*
Y181613D01*
X17612Y183450D01*
X17153D01*
X16694Y182991D01*
Y182072D01*
X17153Y181613D01*
Y184368D02*
X16694Y184827D01*
Y185746D01*
X17153Y186205D01*
X17612D01*
X18071Y185746D01*
Y185287D01*
Y185746D01*
X18530Y186205D01*
X18990D01*
X19449Y185746D01*
Y184827D01*
X18990Y184368D01*
X108269Y232795D02*
X110564D01*
X111024Y233254D01*
Y234173D01*
X110564Y234632D01*
X108269D01*
X111024Y237387D02*
Y235550D01*
X109187Y237387D01*
X108728D01*
X108269Y236928D01*
Y236010D01*
X108728Y235550D01*
X111024Y240142D02*
Y238305D01*
X109187Y240142D01*
X108728D01*
X108269Y239683D01*
Y238765D01*
X108728Y238305D01*
X154331Y238897D02*
Y236601D01*
X154790Y236142D01*
X155708D01*
X156167Y236601D01*
Y238897D01*
X158922Y236142D02*
X157086D01*
X158922Y237978D01*
Y238438D01*
X158463Y238897D01*
X157545D01*
X157086Y238438D01*
X159841Y236142D02*
X160759D01*
X160300D01*
Y238897D01*
X159841Y238438D01*
X52165Y213188D02*
Y210892D01*
X52624Y210433D01*
X53543D01*
X54002Y210892D01*
Y213188D01*
X56757Y210433D02*
X54920D01*
X56757Y212270D01*
Y212729D01*
X56298Y213188D01*
X55379D01*
X54920Y212729D01*
X57675D02*
X58135Y213188D01*
X59053D01*
X59512Y212729D01*
Y210892D01*
X59053Y210433D01*
X58135D01*
X57675Y210892D01*
Y212729D01*
X180080Y89016D02*
X182376D01*
X182835Y89475D01*
Y90393D01*
X182376Y90852D01*
X180080D01*
X182835Y91771D02*
Y92689D01*
Y92230D01*
X180080D01*
X180539Y91771D01*
X182376Y94067D02*
X182835Y94526D01*
Y95444D01*
X182376Y95903D01*
X180539D01*
X180080Y95444D01*
Y94526D01*
X180539Y94067D01*
X180998D01*
X181457Y94526D01*
Y95903D01*
X169252Y54763D02*
Y52467D01*
X169711Y52008D01*
X170630D01*
X171089Y52467D01*
Y54763D01*
X172007Y52008D02*
X172925D01*
X172466D01*
Y54763D01*
X172007Y54304D01*
X176139Y54763D02*
X175221Y54304D01*
X174303Y53385D01*
Y52467D01*
X174762Y52008D01*
X175680D01*
X176139Y52467D01*
Y52926D01*
X175680Y53385D01*
X174303D01*
X30984Y195433D02*
Y198188D01*
X32362D01*
X32821Y197729D01*
Y196811D01*
X32362Y196351D01*
X30984D01*
X31903D02*
X32821Y195433D01*
X35576D02*
X33739D01*
X35576Y197270D01*
Y197729D01*
X35117Y198188D01*
X34198D01*
X33739Y197729D01*
X36494Y195892D02*
X36953Y195433D01*
X37872D01*
X38331Y195892D01*
Y197729D01*
X37872Y198188D01*
X36953D01*
X36494Y197729D01*
Y197270D01*
X36953Y196811D01*
X38331D01*
X25512Y165787D02*
X22757D01*
Y167165D01*
X23216Y167624D01*
X24134D01*
X24593Y167165D01*
Y165787D01*
Y166706D02*
X25512Y167624D01*
Y170379D02*
Y168542D01*
X23675Y170379D01*
X23216D01*
X22757Y169920D01*
Y169002D01*
X23216Y168542D01*
Y171297D02*
X22757Y171757D01*
Y172675D01*
X23216Y173134D01*
X23675D01*
X24134Y172675D01*
X24593Y173134D01*
X25053D01*
X25512Y172675D01*
Y171757D01*
X25053Y171297D01*
X24593D01*
X24134Y171757D01*
X23675Y171297D01*
X23216D01*
X24134Y171757D02*
Y172675D01*
X155774Y245865D02*
X154855D01*
X155315D01*
Y243569D01*
X154855Y243110D01*
X154396D01*
X153937Y243569D01*
X156692Y245865D02*
X158529D01*
Y245406D01*
X156692Y243569D01*
Y243110D01*
X12324Y193465D02*
X15079D01*
Y194842D01*
X14620Y195301D01*
X12783D01*
X12324Y194842D01*
Y193465D01*
X12783Y196220D02*
X12324Y196679D01*
Y197597D01*
X12783Y198056D01*
X13242D01*
X13701Y197597D01*
Y197138D01*
Y197597D01*
X14160Y198056D01*
X14620D01*
X15079Y197597D01*
Y196679D01*
X14620Y196220D01*
X33215Y192650D02*
X32756Y193109D01*
X31837D01*
X31378Y192650D01*
Y190814D01*
X31837Y190354D01*
X32756D01*
X33215Y190814D01*
X35970Y193109D02*
X34133D01*
Y191732D01*
X35051Y192191D01*
X35511D01*
X35970Y191732D01*
Y190814D01*
X35511Y190354D01*
X34592D01*
X34133Y190814D01*
X36888Y192650D02*
X37347Y193109D01*
X38265D01*
X38725Y192650D01*
Y192191D01*
X38265Y191732D01*
X37806D01*
X38265D01*
X38725Y191273D01*
Y190814D01*
X38265Y190354D01*
X37347D01*
X36888Y190814D01*
X143293Y247886D02*
X142834Y248346D01*
X141916D01*
X141457Y247886D01*
Y246050D01*
X141916Y245590D01*
X142834D01*
X143293Y246050D01*
X146048Y248346D02*
X144212D01*
Y246968D01*
X145130Y247427D01*
X145589D01*
X146048Y246968D01*
Y246050D01*
X145589Y245590D01*
X144671D01*
X144212Y246050D01*
X148803Y245590D02*
X146967D01*
X148803Y247427D01*
Y247886D01*
X148344Y248346D01*
X147426D01*
X146967Y247886D01*
X130499Y238136D02*
X130040Y237677D01*
Y236758D01*
X130499Y236299D01*
X132336D01*
X132795Y236758D01*
Y237677D01*
X132336Y238136D01*
X130040Y240891D02*
Y239054D01*
X131418D01*
X130959Y239973D01*
Y240432D01*
X131418Y240891D01*
X132336D01*
X132795Y240432D01*
Y239513D01*
X132336Y239054D01*
X130499Y241809D02*
X130040Y242268D01*
Y243187D01*
X130499Y243646D01*
X132336D01*
X132795Y243187D01*
Y242268D01*
X132336Y241809D01*
X130499D01*
X167192Y225183D02*
X166733Y224724D01*
Y223806D01*
X167192Y223346D01*
X169029D01*
X169488Y223806D01*
Y224724D01*
X169029Y225183D01*
X169488Y227479D02*
X166733D01*
X168111Y226101D01*
Y227938D01*
X169029Y228856D02*
X169488Y229316D01*
Y230234D01*
X169029Y230693D01*
X167192D01*
X166733Y230234D01*
Y229316D01*
X167192Y228856D01*
X167651D01*
X168111Y229316D01*
Y230693D01*
X35145Y178530D02*
X34686Y178070D01*
Y177152D01*
X35145Y176693D01*
X36982D01*
X37441Y177152D01*
Y178070D01*
X36982Y178530D01*
X37441Y180825D02*
X34686D01*
X36063Y179448D01*
Y181285D01*
X35145Y182203D02*
X34686Y182662D01*
Y183581D01*
X35145Y184040D01*
X35604D01*
X36063Y183581D01*
X36523Y184040D01*
X36982D01*
X37441Y183581D01*
Y182662D01*
X36982Y182203D01*
X36523D01*
X36063Y182662D01*
X35604Y182203D01*
X35145D01*
X36063Y182662D02*
Y183581D01*
X136366Y86640D02*
X135906Y86181D01*
Y85262D01*
X136366Y84803D01*
X138202D01*
X138661Y85262D01*
Y86181D01*
X138202Y86640D01*
X138661Y88936D02*
X135906D01*
X137284Y87558D01*
Y89395D01*
X135906Y92150D02*
X136366Y91232D01*
X137284Y90313D01*
X138202D01*
X138661Y90772D01*
Y91691D01*
X138202Y92150D01*
X137743D01*
X137284Y91691D01*
Y90313D01*
X170222Y110564D02*
X169763Y111023D01*
X168845D01*
X168386Y110564D01*
Y108727D01*
X168845Y108268D01*
X169763D01*
X170222Y108727D01*
X172518Y108268D02*
Y111023D01*
X171141Y109645D01*
X172977D01*
X175733Y111023D02*
X173896D01*
Y109645D01*
X174814Y110104D01*
X175273D01*
X175733Y109645D01*
Y108727D01*
X175273Y108268D01*
X174355D01*
X173896Y108727D01*
X43492Y187427D02*
X43032Y186968D01*
Y186050D01*
X43492Y185591D01*
X45328D01*
X45787Y186050D01*
Y186968D01*
X45328Y187427D01*
X45787Y189723D02*
X43032D01*
X44410Y188346D01*
Y190182D01*
X43492Y191101D02*
X43032Y191560D01*
Y192478D01*
X43492Y192937D01*
X43951D01*
X44410Y192478D01*
Y192019D01*
Y192478D01*
X44869Y192937D01*
X45328D01*
X45787Y192478D01*
Y191560D01*
X45328Y191101D01*
X141366Y43963D02*
X140906Y43503D01*
Y42585D01*
X141366Y42126D01*
X143202D01*
X143661Y42585D01*
Y43503D01*
X143202Y43963D01*
X143661Y46259D02*
X140906D01*
X142284Y44881D01*
Y46718D01*
X143661Y49473D02*
Y47636D01*
X141825Y49473D01*
X141366D01*
X140906Y49014D01*
Y48095D01*
X141366Y47636D01*
X161207Y77571D02*
X160748Y78031D01*
X159829D01*
X159370Y77571D01*
Y75735D01*
X159829Y75276D01*
X160748D01*
X161207Y75735D01*
X163503Y75276D02*
Y78031D01*
X162125Y76653D01*
X163962D01*
X164880Y75276D02*
X165798D01*
X165339D01*
Y78031D01*
X164880Y77571D01*
X33543Y107046D02*
Y104751D01*
X34003Y104291D01*
X34921D01*
X35380Y104751D01*
Y107046D01*
X36298Y104291D02*
X37217D01*
X36757D01*
Y107046D01*
X36298Y106587D01*
X38594Y104291D02*
X39513D01*
X39053D01*
Y107046D01*
X38594Y106587D01*
X38858Y47716D02*
Y45420D01*
X39317Y44961D01*
X40236D01*
X40695Y45420D01*
Y47716D01*
X41613Y44961D02*
X42532D01*
X42072D01*
Y47716D01*
X41613Y47256D01*
X43909D02*
X44368Y47716D01*
X45287D01*
X45746Y47256D01*
Y45420D01*
X45287Y44961D01*
X44368D01*
X43909Y45420D01*
Y47256D01*
X51496Y96732D02*
Y99487D01*
X52874D01*
X53333Y99028D01*
Y98110D01*
X52874Y97651D01*
X51496D01*
X52414D02*
X53333Y96732D01*
X56088D02*
X54251D01*
X56088Y98569D01*
Y99028D01*
X55629Y99487D01*
X54710D01*
X54251Y99028D01*
X57006Y96732D02*
X57924D01*
X57465D01*
Y99487D01*
X57006Y99028D01*
X58701Y107480D02*
X55946D01*
Y108858D01*
X56405Y109317D01*
X57323D01*
X57782Y108858D01*
Y107480D01*
Y108399D02*
X58701Y109317D01*
Y112072D02*
Y110235D01*
X56864Y112072D01*
X56405D01*
X55946Y111613D01*
Y110695D01*
X56405Y110235D01*
Y112990D02*
X55946Y113450D01*
Y114368D01*
X56405Y114827D01*
X58242D01*
X58701Y114368D01*
Y113450D01*
X58242Y112990D01*
X56405D01*
X51693Y92126D02*
Y94881D01*
X53070D01*
X53530Y94422D01*
Y93503D01*
X53070Y93044D01*
X51693D01*
X52611D02*
X53530Y92126D01*
X54448D02*
X55366D01*
X54907D01*
Y94881D01*
X54448Y94422D01*
X56744Y92585D02*
X57203Y92126D01*
X58121D01*
X58580Y92585D01*
Y94422D01*
X58121Y94881D01*
X57203D01*
X56744Y94422D01*
Y93963D01*
X57203Y93503D01*
X58580D01*
X39882Y118267D02*
Y115512D01*
X41719D01*
X42637Y117808D02*
X43096Y118267D01*
X44014D01*
X44474Y117808D01*
Y117349D01*
X44014Y116889D01*
X44474Y116430D01*
Y115971D01*
X44014Y115512D01*
X43096D01*
X42637Y115971D01*
Y116430D01*
X43096Y116889D01*
X42637Y117349D01*
Y117808D01*
X43096Y116889D02*
X44014D01*
X41640Y111745D02*
X41181Y112204D01*
X40262D01*
X39803Y111745D01*
Y109908D01*
X40262Y109449D01*
X41181D01*
X41640Y109908D01*
X42558Y111745D02*
X43017Y112204D01*
X43936D01*
X44395Y111745D01*
Y111285D01*
X43936Y110826D01*
X43477D01*
X43936D01*
X44395Y110367D01*
Y109908D01*
X43936Y109449D01*
X43017D01*
X42558Y109908D01*
X46691Y109449D02*
Y112204D01*
X45313Y110826D01*
X47150D01*
X49397Y102388D02*
X48938Y101929D01*
Y101010D01*
X49397Y100551D01*
X51234D01*
X51693Y101010D01*
Y101929D01*
X51234Y102388D01*
X49397Y103306D02*
X48938Y103765D01*
Y104684D01*
X49397Y105143D01*
X49856D01*
X50315Y104684D01*
Y104225D01*
Y104684D01*
X50775Y105143D01*
X51234D01*
X51693Y104684D01*
Y103765D01*
X51234Y103306D01*
X49397Y106061D02*
X48938Y106520D01*
Y107439D01*
X49397Y107898D01*
X49856D01*
X50315Y107439D01*
Y106980D01*
Y107439D01*
X50775Y107898D01*
X51234D01*
X51693Y107439D01*
Y106520D01*
X51234Y106061D01*
X50419Y84579D02*
X49960Y85039D01*
X49042D01*
X48583Y84579D01*
Y82743D01*
X49042Y82284D01*
X49960D01*
X50419Y82743D01*
X51338Y84579D02*
X51797Y85039D01*
X52715D01*
X53174Y84579D01*
Y84120D01*
X52715Y83661D01*
X52256D01*
X52715D01*
X53174Y83202D01*
Y82743D01*
X52715Y82284D01*
X51797D01*
X51338Y82743D01*
X55929Y82284D02*
X54093D01*
X55929Y84120D01*
Y84579D01*
X55470Y85039D01*
X54552D01*
X54093Y84579D01*
X168923Y153359D02*
X168464Y153818D01*
X167546D01*
X167087Y153359D01*
Y151522D01*
X167546Y151063D01*
X168464D01*
X168923Y151522D01*
X169842Y153359D02*
X170301Y153818D01*
X171219D01*
X171678Y153359D01*
Y152900D01*
X171219Y152441D01*
X170760D01*
X171219D01*
X171678Y151981D01*
Y151522D01*
X171219Y151063D01*
X170301D01*
X169842Y151522D01*
X172597Y151063D02*
X173515D01*
X173056D01*
Y153818D01*
X172597Y153359D01*
X63307Y114409D02*
Y117165D01*
X64685D01*
X65144Y116705D01*
Y115787D01*
X64685Y115328D01*
X63307D01*
X64225D02*
X65144Y114409D01*
X66062D02*
X66980D01*
X66521D01*
Y117165D01*
X66062Y116705D01*
X68358D02*
X68817Y117165D01*
X69735D01*
X70195Y116705D01*
Y116246D01*
X69735Y115787D01*
X70195Y115328D01*
Y114869D01*
X69735Y114409D01*
X68817D01*
X68358Y114869D01*
Y115328D01*
X68817Y115787D01*
X68358Y116246D01*
Y116705D01*
X68817Y115787D02*
X69735D01*
X62756Y105551D02*
Y108306D01*
X64133D01*
X64593Y107847D01*
Y106929D01*
X64133Y106470D01*
X62756D01*
X63674D02*
X64593Y105551D01*
X65511D02*
X66429D01*
X65970D01*
Y108306D01*
X65511Y107847D01*
X67807Y108306D02*
X69643D01*
Y107847D01*
X67807Y106010D01*
Y105551D01*
X123110Y222559D02*
Y225314D01*
X124488D01*
X124947Y224855D01*
Y223937D01*
X124488Y223477D01*
X123110D01*
X124029D02*
X124947Y222559D01*
X125865D02*
X126784D01*
X126324D01*
Y225314D01*
X125865Y224855D01*
X129998Y225314D02*
X129079Y224855D01*
X128161Y223937D01*
Y223018D01*
X128620Y222559D01*
X129539D01*
X129998Y223018D01*
Y223477D01*
X129539Y223937D01*
X128161D01*
X135906Y112559D02*
X138202D01*
X138661Y113018D01*
Y113937D01*
X138202Y114396D01*
X135906D01*
X138661Y115314D02*
Y116232D01*
Y115773D01*
X135906D01*
X136366Y115314D01*
X69671Y216692D02*
X68753D01*
X69212D01*
Y214396D01*
X68753Y213937D01*
X68294D01*
X67835Y214396D01*
X70590Y213937D02*
X71508D01*
X71049D01*
Y216692D01*
X70590Y216233D01*
X72886D02*
X73345Y216692D01*
X74263D01*
X74722Y216233D01*
Y214396D01*
X74263Y213937D01*
X73345D01*
X72886Y214396D01*
Y216233D01*
X114514Y248739D02*
X113595D01*
X114055D01*
Y246443D01*
X113595Y245984D01*
X113136D01*
X112677Y246443D01*
X115432Y248280D02*
X115891Y248739D01*
X116810D01*
X117269Y248280D01*
Y247821D01*
X116810Y247362D01*
X117269Y246903D01*
Y246443D01*
X116810Y245984D01*
X115891D01*
X115432Y246443D01*
Y246903D01*
X115891Y247362D01*
X115432Y247821D01*
Y248280D01*
X115891Y247362D02*
X116810D01*
X50039Y133779D02*
Y131483D01*
X50498Y131024D01*
X51417D01*
X51876Y131483D01*
Y133779D01*
X54631D02*
X52794D01*
Y132401D01*
X53713Y132860D01*
X54172D01*
X54631Y132401D01*
Y131483D01*
X54172Y131024D01*
X53254D01*
X52794Y131483D01*
X182901Y202624D02*
X182442Y202165D01*
Y201247D01*
X182901Y200787D01*
X184738D01*
X185197Y201247D01*
Y202165D01*
X184738Y202624D01*
X185197Y203542D02*
Y204461D01*
Y204002D01*
X182442D01*
X182901Y203542D01*
X176759Y199356D02*
X176300Y198897D01*
Y197979D01*
X176759Y197520D01*
X178596D01*
X179055Y197979D01*
Y198897D01*
X178596Y199356D01*
X179055Y200275D02*
Y201193D01*
Y200734D01*
X176300D01*
X176759Y200275D01*
X176300Y202571D02*
Y204407D01*
X176759D01*
X178596Y202571D01*
X179055D01*
X181956Y209120D02*
X181497Y208661D01*
Y207743D01*
X181956Y207283D01*
X183793D01*
X184252Y207743D01*
Y208661D01*
X183793Y209120D01*
X184252Y210038D02*
Y210957D01*
Y210498D01*
X181497D01*
X181956Y210038D01*
X183793Y212334D02*
X184252Y212793D01*
Y213712D01*
X183793Y214171D01*
X181956D01*
X181497Y213712D01*
Y212793D01*
X181956Y212334D01*
X182415D01*
X182875Y212793D01*
Y214171D01*
X176877Y210577D02*
X176418Y210118D01*
Y209199D01*
X176877Y208740D01*
X178714D01*
X179173Y209199D01*
Y210118D01*
X178714Y210577D01*
X179173Y213332D02*
Y211495D01*
X177337Y213332D01*
X176877D01*
X176418Y212873D01*
Y211954D01*
X176877Y211495D01*
Y214250D02*
X176418Y214709D01*
Y215628D01*
X176877Y216087D01*
X178714D01*
X179173Y215628D01*
Y214709D01*
X178714Y214250D01*
X176877D01*
X176720Y218530D02*
X176261Y218070D01*
Y217152D01*
X176720Y216693D01*
X178557D01*
X179016Y217152D01*
Y218070D01*
X178557Y218530D01*
X176261Y221285D02*
Y219448D01*
X177638D01*
X177179Y220366D01*
Y220825D01*
X177638Y221285D01*
X178557D01*
X179016Y220825D01*
Y219907D01*
X178557Y219448D01*
X121720Y190971D02*
X121261Y190511D01*
Y189593D01*
X121720Y189134D01*
X123557D01*
X124016Y189593D01*
Y190511D01*
X123557Y190971D01*
X121261Y193726D02*
X121720Y192807D01*
X122638Y191889D01*
X123557D01*
X124016Y192348D01*
Y193266D01*
X123557Y193726D01*
X123097D01*
X122638Y193266D01*
Y191889D01*
X154514Y166705D02*
X154055Y167165D01*
X153136D01*
X152677Y166705D01*
Y164869D01*
X153136Y164409D01*
X154055D01*
X154514Y164869D01*
X155432Y167165D02*
X157269D01*
Y166705D01*
X155432Y164869D01*
Y164409D01*
X145262Y210682D02*
X144803Y211141D01*
X143884D01*
X143425Y210682D01*
Y208845D01*
X143884Y208386D01*
X144803D01*
X145262Y208845D01*
X146180Y210682D02*
X146639Y211141D01*
X147558D01*
X148017Y210682D01*
Y210223D01*
X147558Y209763D01*
X148017Y209304D01*
Y208845D01*
X147558Y208386D01*
X146639D01*
X146180Y208845D01*
Y209304D01*
X146639Y209763D01*
X146180Y210223D01*
Y210682D01*
X146639Y209763D02*
X147558D01*
X133569Y162965D02*
X133110Y163424D01*
X132192D01*
X131732Y162965D01*
Y161128D01*
X132192Y160669D01*
X133110D01*
X133569Y161128D01*
X134487D02*
X134947Y160669D01*
X135865D01*
X136324Y161128D01*
Y162965D01*
X135865Y163424D01*
X134947D01*
X134487Y162965D01*
Y162506D01*
X134947Y162047D01*
X136324D01*
X113648Y185170D02*
X113189Y185629D01*
X112270D01*
X111811Y185170D01*
Y183333D01*
X112270Y182874D01*
X113189D01*
X113648Y183333D01*
X114566Y182874D02*
X115484D01*
X115025D01*
Y185629D01*
X114566Y185170D01*
X116862D02*
X117321Y185629D01*
X118239D01*
X118699Y185170D01*
Y183333D01*
X118239Y182874D01*
X117321D01*
X116862Y183333D01*
Y185170D01*
X125380Y210052D02*
X124921Y210511D01*
X124003D01*
X123543Y210052D01*
Y208215D01*
X124003Y207756D01*
X124921D01*
X125380Y208215D01*
X126298Y207756D02*
X127217D01*
X126758D01*
Y210511D01*
X126298Y210052D01*
X128594Y207756D02*
X129513D01*
X129053D01*
Y210511D01*
X128594Y210052D01*
X122704Y157821D02*
X122245Y157362D01*
Y156443D01*
X122704Y155984D01*
X124541D01*
X125000Y156443D01*
Y157362D01*
X124541Y157821D01*
X125000Y158739D02*
Y159658D01*
Y159198D01*
X122245D01*
X122704Y158739D01*
X125000Y162872D02*
Y161035D01*
X123163Y162872D01*
X122704D01*
X122245Y162413D01*
Y161494D01*
X122704Y161035D01*
X201523Y237349D02*
X201064Y236889D01*
Y235971D01*
X201523Y235512D01*
X203360D01*
X203819Y235971D01*
Y236889D01*
X203360Y237349D01*
X203819Y238267D02*
Y239185D01*
Y238726D01*
X201064D01*
X201523Y238267D01*
Y240563D02*
X201064Y241022D01*
Y241940D01*
X201523Y242399D01*
X201982D01*
X202441Y241940D01*
Y241481D01*
Y241940D01*
X202901Y242399D01*
X203360D01*
X203819Y241940D01*
Y241022D01*
X203360Y240563D01*
X165696Y164789D02*
X165237Y164330D01*
Y163412D01*
X165696Y162953D01*
X167533D01*
X167992Y163412D01*
Y164330D01*
X167533Y164789D01*
X167992Y165708D02*
Y166626D01*
Y166167D01*
X165237D01*
X165696Y165708D01*
X167992Y169381D02*
X165237D01*
X166615Y168004D01*
Y169840D01*
X31536Y257047D02*
X34291D01*
Y258425D01*
X33832Y258884D01*
X31995D01*
X31536Y258425D01*
Y257047D01*
X34291Y261639D02*
Y259802D01*
X32455Y261639D01*
X31995D01*
X31536Y261180D01*
Y260261D01*
X31995Y259802D01*
X187402Y200826D02*
Y198071D01*
X189238D01*
X190157D02*
X191075D01*
X190616D01*
Y200826D01*
X190157Y200367D01*
X185591Y207362D02*
X188347D01*
Y209199D01*
Y211954D02*
Y210117D01*
X186510Y211954D01*
X186051D01*
X185591Y211495D01*
Y210576D01*
X186051Y210117D01*
X171732Y159684D02*
Y156929D01*
X173569D01*
X174487Y159225D02*
X174946Y159684D01*
X175865D01*
X176324Y159225D01*
Y158766D01*
X175865Y158307D01*
X175406D01*
X175865D01*
X176324Y157847D01*
Y157388D01*
X175865Y156929D01*
X174946D01*
X174487Y157388D01*
X176378Y205236D02*
Y207991D01*
X177755D01*
X178215Y207532D01*
Y206614D01*
X177755Y206155D01*
X176378D01*
X177296D02*
X178215Y205236D01*
X179133D02*
X180051D01*
X179592D01*
Y207991D01*
X179133Y207532D01*
X180039Y219803D02*
Y222558D01*
X181417D01*
X181876Y222099D01*
Y221181D01*
X181417Y220722D01*
X180039D01*
X180958D02*
X181876Y219803D01*
X184631D02*
X182794D01*
X184631Y221640D01*
Y222099D01*
X184172Y222558D01*
X183254D01*
X182794Y222099D01*
X144291Y156024D02*
X141536D01*
Y157401D01*
X141996Y157860D01*
X142914D01*
X143373Y157401D01*
Y156024D01*
Y156942D02*
X144291Y157860D01*
Y160156D02*
X141536D01*
X142914Y158779D01*
Y160615D01*
X34134Y249488D02*
X31379D01*
Y250866D01*
X31838Y251325D01*
X32756D01*
X33215Y250866D01*
Y249488D01*
Y250407D02*
X34134Y251325D01*
X31379Y254080D02*
X31838Y253162D01*
X32756Y252243D01*
X33675D01*
X34134Y252702D01*
Y253621D01*
X33675Y254080D01*
X33215D01*
X32756Y253621D01*
Y252243D01*
X144370Y149685D02*
X141615D01*
Y151063D01*
X142074Y151522D01*
X142993D01*
X143452Y151063D01*
Y149685D01*
Y150603D02*
X144370Y151522D01*
X141615Y152440D02*
Y154277D01*
X142074D01*
X143911Y152440D01*
X144370D01*
X165945Y170669D02*
Y173424D01*
X167322D01*
X167782Y172965D01*
Y172047D01*
X167322Y171588D01*
X165945D01*
X166863D02*
X167782Y170669D01*
X168700Y171128D02*
X169159Y170669D01*
X170077D01*
X170537Y171128D01*
Y172965D01*
X170077Y173424D01*
X169159D01*
X168700Y172965D01*
Y172506D01*
X169159Y172047D01*
X170537D01*
X119489Y167795D02*
X121785D01*
X122244Y168254D01*
Y169173D01*
X121785Y169632D01*
X119489D01*
X119948Y170550D02*
X119489Y171010D01*
Y171928D01*
X119948Y172387D01*
X120407D01*
X120867Y171928D01*
Y171469D01*
Y171928D01*
X121326Y172387D01*
X121785D01*
X122244Y171928D01*
Y171010D01*
X121785Y170550D01*
X185669Y232558D02*
Y230262D01*
X186128Y229803D01*
X187047D01*
X187506Y230262D01*
Y232558D01*
X189802Y229803D02*
Y232558D01*
X188424Y231181D01*
X190261D01*
X152520Y146889D02*
Y144593D01*
X152979Y144134D01*
X153897D01*
X154356Y144593D01*
Y146889D01*
X157111D02*
X156193Y146430D01*
X155275Y145511D01*
Y144593D01*
X155734Y144134D01*
X156652D01*
X157111Y144593D01*
Y145052D01*
X156652Y145511D01*
X155275D01*
X175472Y163227D02*
Y160932D01*
X175932Y160472D01*
X176850D01*
X177309Y160932D01*
Y163227D01*
X178227D02*
X180064D01*
Y162768D01*
X178227Y160932D01*
Y160472D01*
X76011Y155183D02*
X75552Y154724D01*
Y153806D01*
X76011Y153347D01*
X77848D01*
X78307Y153806D01*
Y154724D01*
X77848Y155183D01*
X78307Y156102D02*
Y157020D01*
Y156561D01*
X75552D01*
X76011Y156102D01*
X75552Y160234D02*
X76011Y159316D01*
X76930Y158397D01*
X77848D01*
X78307Y158856D01*
Y159775D01*
X77848Y160234D01*
X77389D01*
X76930Y159775D01*
Y158397D01*
X101679Y86902D02*
X101220Y87361D01*
X100302D01*
X99843Y86902D01*
Y85066D01*
X100302Y84606D01*
X101220D01*
X101679Y85066D01*
X102597Y86902D02*
X103057Y87361D01*
X103975D01*
X104434Y86902D01*
Y86443D01*
X103975Y85984D01*
X103516D01*
X103975D01*
X104434Y85525D01*
Y85066D01*
X103975Y84606D01*
X103057D01*
X102597Y85066D01*
X107189Y87361D02*
X105353D01*
Y85984D01*
X106271Y86443D01*
X106730D01*
X107189Y85984D01*
Y85066D01*
X106730Y84606D01*
X105812D01*
X105353Y85066D01*
X101593Y80768D02*
X101133Y81227D01*
X100215D01*
X99756Y80768D01*
Y78932D01*
X100215Y78472D01*
X101133D01*
X101593Y78932D01*
X102511Y80768D02*
X102970Y81227D01*
X103888D01*
X104348Y80768D01*
Y80309D01*
X103888Y79850D01*
X103429D01*
X103888D01*
X104348Y79391D01*
Y78932D01*
X103888Y78472D01*
X102970D01*
X102511Y78932D01*
X107103Y81227D02*
X106184Y80768D01*
X105266Y79850D01*
Y78932D01*
X105725Y78472D01*
X106643D01*
X107103Y78932D01*
Y79391D01*
X106643Y79850D01*
X105266D01*
X117034Y73831D02*
X116574Y74290D01*
X115656D01*
X115197Y73831D01*
Y71995D01*
X115656Y71535D01*
X116574D01*
X117034Y71995D01*
X117952Y73831D02*
X118411Y74290D01*
X119329D01*
X119789Y73831D01*
Y73372D01*
X119329Y72913D01*
X118870D01*
X119329D01*
X119789Y72454D01*
Y71995D01*
X119329Y71535D01*
X118411D01*
X117952Y71995D01*
X120707Y74290D02*
X122544D01*
Y73831D01*
X120707Y71995D01*
Y71535D01*
X116994Y77532D02*
X116535Y77991D01*
X115617D01*
X115157Y77532D01*
Y75695D01*
X115617Y75236D01*
X116535D01*
X116994Y75695D01*
X117912Y77532D02*
X118372Y77991D01*
X119290D01*
X119749Y77532D01*
Y77073D01*
X119290Y76614D01*
X118831D01*
X119290D01*
X119749Y76155D01*
Y75695D01*
X119290Y75236D01*
X118372D01*
X117912Y75695D01*
X120668Y77532D02*
X121127Y77991D01*
X122045D01*
X122504Y77532D01*
Y77073D01*
X122045Y76614D01*
X122504Y76155D01*
Y75695D01*
X122045Y75236D01*
X121127D01*
X120668Y75695D01*
Y76155D01*
X121127Y76614D01*
X120668Y77073D01*
Y77532D01*
X121127Y76614D02*
X122045D01*
X81404Y80524D02*
X80944Y80983D01*
X80026D01*
X79567Y80524D01*
Y78688D01*
X80026Y78228D01*
X80944D01*
X81404Y78688D01*
X82322Y80524D02*
X82781Y80983D01*
X83700D01*
X84159Y80524D01*
Y80065D01*
X83700Y79606D01*
X83240D01*
X83700D01*
X84159Y79147D01*
Y78688D01*
X83700Y78228D01*
X82781D01*
X82322Y78688D01*
X85077D02*
X85536Y78228D01*
X86454D01*
X86914Y78688D01*
Y80524D01*
X86454Y80983D01*
X85536D01*
X85077Y80524D01*
Y80065D01*
X85536Y79606D01*
X86914D01*
X76090Y59435D02*
X75631Y58976D01*
Y58058D01*
X76090Y57598D01*
X77927D01*
X78386Y58058D01*
Y58976D01*
X77927Y59435D01*
X78386Y61731D02*
X75631D01*
X77008Y60353D01*
Y62190D01*
X76090Y63108D02*
X75631Y63568D01*
Y64486D01*
X76090Y64945D01*
X77927D01*
X78386Y64486D01*
Y63568D01*
X77927Y63108D01*
X76090D01*
X83059Y71719D02*
X82599Y71259D01*
Y70341D01*
X83059Y69882D01*
X84895D01*
X85354Y70341D01*
Y71259D01*
X84895Y71719D01*
X82599Y74474D02*
Y72637D01*
X83977D01*
X83518Y73555D01*
Y74014D01*
X83977Y74474D01*
X84895D01*
X85354Y74014D01*
Y73096D01*
X84895Y72637D01*
X85354Y75392D02*
Y76310D01*
Y75851D01*
X82599D01*
X83059Y75392D01*
X75617Y79435D02*
X75158Y78976D01*
Y78058D01*
X75617Y77598D01*
X77454D01*
X77913Y78058D01*
Y78976D01*
X77454Y79435D01*
X75158Y82190D02*
Y80353D01*
X76536D01*
X76077Y81272D01*
Y81731D01*
X76536Y82190D01*
X77454D01*
X77913Y81731D01*
Y80813D01*
X77454Y80353D01*
X75158Y84945D02*
Y83109D01*
X76536D01*
X76077Y84027D01*
Y84486D01*
X76536Y84945D01*
X77454D01*
X77913Y84486D01*
Y83568D01*
X77454Y83109D01*
X84632Y89304D02*
X84173Y89763D01*
X83254D01*
X82795Y89304D01*
Y87467D01*
X83254Y87008D01*
X84173D01*
X84632Y87467D01*
X87387Y89763D02*
X85550D01*
Y88385D01*
X86469Y88845D01*
X86928D01*
X87387Y88385D01*
Y87467D01*
X86928Y87008D01*
X86010D01*
X85550Y87467D01*
X90142Y89763D02*
X89224Y89304D01*
X88305Y88385D01*
Y87467D01*
X88765Y87008D01*
X89683D01*
X90142Y87467D01*
Y87926D01*
X89683Y88385D01*
X88305D01*
X82309Y55012D02*
X81850Y55472D01*
X80932D01*
X80472Y55012D01*
Y53176D01*
X80932Y52716D01*
X81850D01*
X82309Y53176D01*
X85064Y55472D02*
X83227D01*
Y54094D01*
X84146Y54553D01*
X84605D01*
X85064Y54094D01*
Y53176D01*
X84605Y52716D01*
X83687D01*
X83227Y53176D01*
X85983Y55472D02*
X87819D01*
Y55012D01*
X85983Y53176D01*
Y52716D01*
X106994Y61272D02*
X106535Y61731D01*
X105617D01*
X105157Y61272D01*
Y59436D01*
X105617Y58976D01*
X106535D01*
X106994Y59436D01*
X109749Y61731D02*
X107913D01*
Y60354D01*
X108831Y60813D01*
X109290D01*
X109749Y60354D01*
Y59436D01*
X109290Y58976D01*
X108372D01*
X107913Y59436D01*
X110668Y61272D02*
X111127Y61731D01*
X112045D01*
X112504Y61272D01*
Y60813D01*
X112045Y60354D01*
X112504Y59895D01*
Y59436D01*
X112045Y58976D01*
X111127D01*
X110668Y59436D01*
Y59895D01*
X111127Y60354D01*
X110668Y60813D01*
Y61272D01*
X111127Y60354D02*
X112045D01*
X90814Y56561D02*
X90355Y56102D01*
Y55184D01*
X90814Y54724D01*
X92651D01*
X93110Y55184D01*
Y56102D01*
X92651Y56561D01*
X90355Y59316D02*
Y57479D01*
X91733D01*
X91274Y58398D01*
Y58857D01*
X91733Y59316D01*
X92651D01*
X93110Y58857D01*
Y57939D01*
X92651Y57479D01*
Y60234D02*
X93110Y60694D01*
Y61612D01*
X92651Y62071D01*
X90814D01*
X90355Y61612D01*
Y60694D01*
X90814Y60234D01*
X91274D01*
X91733Y60694D01*
Y62071D01*
X105183Y71351D02*
X104724Y71810D01*
X103806D01*
X103347Y71351D01*
Y69514D01*
X103806Y69055D01*
X104724D01*
X105183Y69514D01*
X107938Y71810D02*
X107020Y71351D01*
X106102Y70433D01*
Y69514D01*
X106561Y69055D01*
X107479D01*
X107938Y69514D01*
Y69973D01*
X107479Y70433D01*
X106102D01*
X108856Y71351D02*
X109316Y71810D01*
X110234D01*
X110693Y71351D01*
Y69514D01*
X110234Y69055D01*
X109316D01*
X108856Y69514D01*
Y71351D01*
X93254Y89422D02*
X92795Y89881D01*
X91877D01*
X91417Y89422D01*
Y87585D01*
X91877Y87126D01*
X92795D01*
X93254Y87585D01*
X96009Y89881D02*
X95091Y89422D01*
X94172Y88503D01*
Y87585D01*
X94631Y87126D01*
X95550D01*
X96009Y87585D01*
Y88044D01*
X95550Y88503D01*
X94172D01*
X96927Y87126D02*
X97846D01*
X97386D01*
Y89881D01*
X96927Y89422D01*
X83059Y62900D02*
X82599Y62441D01*
Y61522D01*
X83059Y61063D01*
X84895D01*
X85354Y61522D01*
Y62441D01*
X84895Y62900D01*
X82599Y65655D02*
X83059Y64736D01*
X83977Y63818D01*
X84895D01*
X85354Y64277D01*
Y65196D01*
X84895Y65655D01*
X84436D01*
X83977Y65196D01*
Y63818D01*
X85354Y67950D02*
X82599D01*
X83977Y66573D01*
Y68410D01*
X94002Y53516D02*
X93543Y53975D01*
X92624D01*
X92165Y53516D01*
Y51680D01*
X92624Y51221D01*
X93543D01*
X94002Y51680D01*
X96757Y53975D02*
X95839Y53516D01*
X94920Y52598D01*
Y51680D01*
X95380Y51221D01*
X96298D01*
X96757Y51680D01*
Y52139D01*
X96298Y52598D01*
X94920D01*
X99512Y53975D02*
X97675D01*
Y52598D01*
X98594Y53057D01*
X99053D01*
X99512Y52598D01*
Y51680D01*
X99053Y51221D01*
X98135D01*
X97675Y51680D01*
X107323Y53898D02*
Y56653D01*
X108700D01*
X109160Y56194D01*
Y55275D01*
X108700Y54816D01*
X107323D01*
X108241D02*
X109160Y53898D01*
X110078Y56194D02*
X110537Y56653D01*
X111455D01*
X111915Y56194D01*
Y55734D01*
X111455Y55275D01*
X111915Y54816D01*
Y54357D01*
X111455Y53898D01*
X110537D01*
X110078Y54357D01*
Y54816D01*
X110537Y55275D01*
X110078Y55734D01*
Y56194D01*
X110537Y55275D02*
X111455D01*
X35774Y173516D02*
X35315Y173976D01*
X34396D01*
X33937Y173516D01*
Y171680D01*
X34396Y171221D01*
X35315D01*
X35774Y171680D01*
X36692Y173976D02*
X38529D01*
Y173516D01*
X36692Y171680D01*
Y171221D01*
X41284Y173976D02*
X39447D01*
Y172598D01*
X40365Y173057D01*
X40825D01*
X41284Y172598D01*
Y171680D01*
X40825Y171221D01*
X39906D01*
X39447Y171680D01*
X36772Y144213D02*
X34017D01*
Y145590D01*
X34476Y146049D01*
X35394D01*
X35853Y145590D01*
Y144213D01*
Y145131D02*
X36772Y146049D01*
X34476Y146968D02*
X34017Y147427D01*
Y148345D01*
X34476Y148804D01*
X34935D01*
X35394Y148345D01*
Y147886D01*
Y148345D01*
X35853Y148804D01*
X36312D01*
X36772Y148345D01*
Y147427D01*
X36312Y146968D01*
X36772Y149723D02*
Y150641D01*
Y150182D01*
X34017D01*
X34476Y149723D01*
X71102Y147480D02*
X68347D01*
Y148858D01*
X68806Y149317D01*
X69725D01*
X70184Y148858D01*
Y147480D01*
Y148399D02*
X71102Y149317D01*
X68806Y150235D02*
X68347Y150695D01*
Y151613D01*
X68806Y152072D01*
X69266D01*
X69725Y151613D01*
Y151154D01*
Y151613D01*
X70184Y152072D01*
X70643D01*
X71102Y151613D01*
Y150695D01*
X70643Y150235D01*
X71102Y154827D02*
Y152990D01*
X69266Y154827D01*
X68806D01*
X68347Y154368D01*
Y153449D01*
X68806Y152990D01*
X70945Y131772D02*
X68190D01*
Y133149D01*
X68649Y133608D01*
X69567D01*
X70026Y133149D01*
Y131772D01*
Y132690D02*
X70945Y133608D01*
X68649Y134527D02*
X68190Y134986D01*
Y135904D01*
X68649Y136363D01*
X69108D01*
X69567Y135904D01*
Y135445D01*
Y135904D01*
X70026Y136363D01*
X70486D01*
X70945Y135904D01*
Y134986D01*
X70486Y134527D01*
X68649Y137282D02*
X68190Y137741D01*
Y138659D01*
X68649Y139118D01*
X69108D01*
X69567Y138659D01*
Y138200D01*
Y138659D01*
X70026Y139118D01*
X70486D01*
X70945Y138659D01*
Y137741D01*
X70486Y137282D01*
X36496Y154370D02*
X33741D01*
Y155748D01*
X34200Y156207D01*
X35118D01*
X35578Y155748D01*
Y154370D01*
Y155288D02*
X36496Y156207D01*
X34200Y157125D02*
X33741Y157584D01*
Y158503D01*
X34200Y158962D01*
X34659D01*
X35118Y158503D01*
Y158043D01*
Y158503D01*
X35578Y158962D01*
X36037D01*
X36496Y158503D01*
Y157584D01*
X36037Y157125D01*
X36496Y161258D02*
X33741D01*
X35118Y159880D01*
Y161717D01*
X53622Y171614D02*
Y174369D01*
X55000D01*
X55459Y173910D01*
Y172992D01*
X55000Y172532D01*
X53622D01*
X54540D02*
X55459Y171614D01*
X56377Y173910D02*
X56836Y174369D01*
X57755D01*
X58214Y173910D01*
Y173451D01*
X57755Y172992D01*
X57295D01*
X57755D01*
X58214Y172532D01*
Y172073D01*
X57755Y171614D01*
X56836D01*
X56377Y172073D01*
X60969Y174369D02*
X60050Y173910D01*
X59132Y172992D01*
Y172073D01*
X59591Y171614D01*
X60510D01*
X60969Y172073D01*
Y172532D01*
X60510Y172992D01*
X59132D01*
X77835Y163386D02*
X75080D01*
Y164763D01*
X75539Y165223D01*
X76457D01*
X76916Y164763D01*
Y163386D01*
Y164304D02*
X77835Y165223D01*
X75539Y166141D02*
X75080Y166600D01*
Y167518D01*
X75539Y167977D01*
X75998D01*
X76457Y167518D01*
Y167059D01*
Y167518D01*
X76916Y167977D01*
X77376D01*
X77835Y167518D01*
Y166600D01*
X77376Y166141D01*
X75080Y168896D02*
Y170732D01*
X75539D01*
X77376Y168896D01*
X77835D01*
X72520Y168150D02*
X69765D01*
Y169527D01*
X70224Y169986D01*
X71142D01*
X71601Y169527D01*
Y168150D01*
Y169068D02*
X72520Y169986D01*
X70224Y170905D02*
X69765Y171364D01*
Y172282D01*
X70224Y172741D01*
X70683D01*
X71142Y172282D01*
Y171823D01*
Y172282D01*
X71601Y172741D01*
X72061D01*
X72520Y172282D01*
Y171364D01*
X72061Y170905D01*
X70224Y173660D02*
X69765Y174119D01*
Y175037D01*
X70224Y175496D01*
X70683D01*
X71142Y175037D01*
X71601Y175496D01*
X72061D01*
X72520Y175037D01*
Y174119D01*
X72061Y173660D01*
X71601D01*
X71142Y174119D01*
X70683Y173660D01*
X70224D01*
X71142Y174119D02*
Y175037D01*
X76024Y117756D02*
X73269D01*
Y119133D01*
X73728Y119593D01*
X74646D01*
X75105Y119133D01*
Y117756D01*
Y118674D02*
X76024Y119593D01*
Y121888D02*
X73269D01*
X74646Y120511D01*
Y122348D01*
X73728Y123266D02*
X73269Y123725D01*
Y124644D01*
X73728Y125103D01*
X75564D01*
X76024Y124644D01*
Y123725D01*
X75564Y123266D01*
X73728D01*
X174843Y231377D02*
Y228622D01*
X176220D01*
X176679Y229081D01*
Y230918D01*
X176220Y231377D01*
X174843D01*
X179434D02*
X177597D01*
Y230000D01*
X178516Y230459D01*
X178975D01*
X179434Y230000D01*
Y229081D01*
X178975Y228622D01*
X178057D01*
X177597Y229081D01*
X9199Y169920D02*
X8281D01*
X8740D01*
Y167624D01*
X8281Y167165D01*
X7821D01*
X7362Y167624D01*
X10117Y169461D02*
X10576Y169920D01*
X11495D01*
X11954Y169461D01*
Y169002D01*
X11495Y168543D01*
X11036D01*
X11495D01*
X11954Y168084D01*
Y167624D01*
X11495Y167165D01*
X10576D01*
X10117Y167624D01*
X187309Y15747D02*
X186391D01*
X186850D01*
Y13451D01*
X186391Y12992D01*
X185932D01*
X185472Y13451D01*
X190064Y12992D02*
X188227D01*
X190064Y14829D01*
Y15288D01*
X189605Y15747D01*
X188687D01*
X188227Y15288D01*
X188175Y101771D02*
X187257D01*
X187716D01*
Y99475D01*
X187257Y99016D01*
X186798D01*
X186339Y99475D01*
X189094Y99016D02*
X190012D01*
X189553D01*
Y101771D01*
X189094Y101312D01*
X9199Y79527D02*
X8281D01*
X8740D01*
Y77231D01*
X8281Y76772D01*
X7821D01*
X7362Y77231D01*
X11495Y76772D02*
Y79527D01*
X10117Y78149D01*
X11954D01*
X153767Y73805D02*
X153308Y73346D01*
Y72428D01*
X153767Y71969D01*
X155604D01*
X156063Y72428D01*
Y73346D01*
X155604Y73805D01*
X153308Y74724D02*
Y76560D01*
X153767D01*
X155604Y74724D01*
X156063D01*
X153308Y77478D02*
Y79315D01*
X153767D01*
X155604Y77478D01*
X156063D01*
X150578Y43845D02*
X150119Y43385D01*
Y42467D01*
X150578Y42008D01*
X152415D01*
X152874Y42467D01*
Y43385D01*
X152415Y43845D01*
X150578Y44763D02*
X150119Y45222D01*
Y46140D01*
X150578Y46600D01*
X151037D01*
X151497Y46140D01*
X151956Y46600D01*
X152415D01*
X152874Y46140D01*
Y45222D01*
X152415Y44763D01*
X151956D01*
X151497Y45222D01*
X151037Y44763D01*
X150578D01*
X151497Y45222D02*
Y46140D01*
X150578Y47518D02*
X150119Y47977D01*
Y48895D01*
X150578Y49355D01*
X151037D01*
X151497Y48895D01*
Y48436D01*
Y48895D01*
X151956Y49355D01*
X152415D01*
X152874Y48895D01*
Y47977D01*
X152415Y47518D01*
X109476Y164829D02*
X109017Y164370D01*
Y163451D01*
X109476Y162992D01*
X111312D01*
X111772Y163451D01*
Y164370D01*
X111312Y164829D01*
X109476Y165747D02*
X109017Y166206D01*
Y167125D01*
X109476Y167584D01*
X109935D01*
X110394Y167125D01*
X110853Y167584D01*
X111312D01*
X111772Y167125D01*
Y166206D01*
X111312Y165747D01*
X110853D01*
X110394Y166206D01*
X109935Y165747D01*
X109476D01*
X110394Y166206D02*
Y167125D01*
X111772Y169880D02*
X109017D01*
X110394Y168502D01*
Y170339D01*
X174764Y30865D02*
X176601D01*
X175682D01*
Y28110D01*
X177519Y30865D02*
X179356Y28110D01*
Y30865D02*
X177519Y28110D01*
X180274Y29488D02*
X182111D01*
X183029Y28110D02*
X184406Y29488D01*
X183029Y30865D01*
X174764Y18898D02*
Y21653D01*
X176141D01*
X176601Y21193D01*
Y20275D01*
X176141Y19816D01*
X174764D01*
X175682D02*
X176601Y18898D01*
X177519Y21653D02*
X179356Y18898D01*
Y21653D02*
X177519Y18898D01*
X181651D02*
X180274Y20275D01*
X181651Y21653D01*
X183029Y20275D02*
X184865D01*
X16024Y151377D02*
X16942D01*
X16483D01*
Y148622D01*
X16024D01*
X16942D01*
X19697Y151377D02*
X18779D01*
X18319Y150918D01*
Y149081D01*
X18779Y148622D01*
X19697D01*
X20156Y149081D01*
Y150918D01*
X19697Y151377D01*
X21075Y148622D02*
Y151377D01*
X22452D01*
X22911Y150918D01*
Y150000D01*
X22452Y149540D01*
X21075D01*
X21993D02*
X22911Y148622D01*
X25666Y151377D02*
X23830D01*
Y148622D01*
X25666D01*
X23830Y150000D02*
X24748D01*
X28421Y151377D02*
X26585D01*
Y150000D01*
X27503D01*
X26585D01*
Y148622D01*
X16024Y130800D02*
X16483Y131259D01*
X17401D01*
X17860Y130800D01*
Y130341D01*
X17401Y129881D01*
X16942D01*
X17401D01*
X17860Y129422D01*
Y128963D01*
X17401Y128504D01*
X16483D01*
X16024Y128963D01*
X18779Y128504D02*
Y128963D01*
X19238D01*
Y128504D01*
X18779D01*
X21075Y130800D02*
X21534Y131259D01*
X22452D01*
X22911Y130800D01*
Y130341D01*
X22452Y129881D01*
X21993D01*
X22452D01*
X22911Y129422D01*
Y128963D01*
X22452Y128504D01*
X21534D01*
X21075Y128963D01*
X23830Y131259D02*
Y129422D01*
X24748Y128504D01*
X25666Y129422D01*
Y131259D01*
X102913Y228307D02*
X100158D01*
Y229685D01*
X100618Y230144D01*
X101536D01*
X101995Y229685D01*
Y228307D01*
X100158Y231062D02*
X102913D01*
X101995Y231980D01*
X102913Y232899D01*
X100158D01*
X102913Y233817D02*
X100158D01*
Y235195D01*
X100618Y235654D01*
X101536D01*
X101995Y235195D01*
Y233817D01*
Y234735D02*
X102913Y235654D01*
X100158Y239327D02*
X102913D01*
Y241164D01*
X100158Y243919D02*
Y242082D01*
X102913D01*
Y243919D01*
X101536Y242082D02*
Y243001D01*
X100158Y244837D02*
X102913D01*
Y246215D01*
X102454Y246674D01*
X100618D01*
X100158Y246215D01*
Y244837D01*
X35906Y235144D02*
Y233307D01*
X37284D01*
Y234225D01*
Y233307D01*
X38661D01*
X35906Y238817D02*
X38661D01*
Y240654D01*
X35906Y243409D02*
Y241572D01*
X38661D01*
Y243409D01*
X37284Y241572D02*
Y242491D01*
X35906Y244327D02*
X38661D01*
Y245705D01*
X38202Y246164D01*
X36366D01*
X35906Y245705D01*
Y244327D01*
X30787Y233425D02*
X28032D01*
X28951Y234344D01*
X28032Y235262D01*
X30787D01*
X28032Y238935D02*
X30787D01*
Y240772D01*
X28032Y243527D02*
Y241690D01*
X30787D01*
Y243527D01*
X29410Y241690D02*
Y242609D01*
X28032Y244445D02*
X30787D01*
Y245823D01*
X30328Y246282D01*
X28492D01*
X28032Y245823D01*
Y244445D01*
X30787Y247200D02*
Y248119D01*
Y247659D01*
X28032D01*
X28492Y247200D01*
X104410Y240236D02*
X106706D01*
X107165Y240695D01*
Y241614D01*
X106706Y242073D01*
X104410D01*
X104869Y244828D02*
X104410Y244369D01*
Y243450D01*
X104869Y242991D01*
X105329D01*
X105788Y243450D01*
Y244369D01*
X106247Y244828D01*
X106706D01*
X107165Y244369D01*
Y243450D01*
X106706Y242991D01*
X104410Y245746D02*
X107165D01*
Y247124D01*
X106706Y247583D01*
X106247D01*
X105788Y247124D01*
Y245746D01*
Y247124D01*
X105329Y247583D01*
X104869D01*
X104410Y247124D01*
Y245746D01*
Y252634D02*
Y251715D01*
X104869Y251256D01*
X106706D01*
X107165Y251715D01*
Y252634D01*
X106706Y253093D01*
X104869D01*
X104410Y252634D01*
Y254011D02*
Y255848D01*
Y254930D01*
X107165D01*
X104869Y258603D02*
X104410Y258144D01*
Y257225D01*
X104869Y256766D01*
X106706D01*
X107165Y257225D01*
Y258144D01*
X106706Y258603D01*
X105788D01*
Y257685D01*
X205080Y221811D02*
X207376D01*
X207835Y222270D01*
Y223188D01*
X207376Y223648D01*
X205080D01*
X205539Y226403D02*
X205080Y225944D01*
Y225025D01*
X205539Y224566D01*
X205998D01*
X206457Y225025D01*
Y225944D01*
X206916Y226403D01*
X207376D01*
X207835Y225944D01*
Y225025D01*
X207376Y224566D01*
X205080Y227321D02*
X207835D01*
Y228699D01*
X207376Y229158D01*
X206916D01*
X206457Y228699D01*
Y227321D01*
Y228699D01*
X205998Y229158D01*
X205539D01*
X205080Y228699D01*
Y227321D01*
Y234668D02*
Y233749D01*
Y234209D01*
X207376D01*
X207835Y233749D01*
Y233290D01*
X207376Y232831D01*
X205080Y235586D02*
Y237423D01*
Y236505D01*
X207835D01*
Y238341D02*
X205998D01*
X205080Y239260D01*
X205998Y240178D01*
X207835D01*
X206457D01*
Y238341D01*
X205539Y242933D02*
X205080Y242474D01*
Y241555D01*
X205539Y241096D01*
X207376D01*
X207835Y241555D01*
Y242474D01*
X207376Y242933D01*
X206457D01*
Y242015D01*
X205080Y246606D02*
X207376D01*
X207835Y247065D01*
Y247984D01*
X207376Y248443D01*
X205080D01*
X207835Y249361D02*
X205998D01*
X205080Y250280D01*
X205998Y251198D01*
X207835D01*
X206457D01*
Y249361D01*
X207835Y252116D02*
X205080D01*
Y253494D01*
X205539Y253953D01*
X206457D01*
X206916Y253494D01*
Y252116D01*
Y253035D02*
X207835Y253953D01*
X205080Y254871D02*
Y256708D01*
Y255790D01*
X207835D01*
D56*
X181378Y165591D02*
G03*
X181378Y165591I-394J0D01*
G01*
X163839Y170492D02*
G03*
X163839Y170492I-394J0D01*
G01*
X29724Y264094D02*
G03*
X29724Y264094I-394J0D01*
G01*
X21772Y177835D02*
G03*
X21772Y177835I-394J0D01*
G01*
X156024Y215158D02*
G03*
X156024Y215158I-197J0D01*
G01*
X101614Y264134D02*
G03*
X101614Y264134I-394J0D01*
G01*
X165591Y237165D02*
G03*
X165591Y237165I-197J0D01*
G01*
X37795Y264134D02*
G03*
X37795Y264134I-394J0D01*
G01*
X101063Y4803D02*
X105000D01*
Y8740D01*
X101063Y24803D02*
X105000D01*
Y20866D02*
Y24803D01*
X65000Y20866D02*
Y24803D01*
X68937D01*
X65000Y4803D02*
Y8740D01*
Y4803D02*
X68937D01*
X5059Y14508D02*
X8917D01*
X5000D02*
Y26811D01*
X11083Y14508D02*
X14941D01*
X15000D02*
Y26811D01*
X11083Y75492D02*
X14941D01*
X15000Y63189D02*
Y75492D01*
X5000Y63189D02*
Y75492D01*
X5059D02*
X8917D01*
X201279Y201457D02*
X205138D01*
X205197Y189154D02*
Y201457D01*
X195256D02*
X199114D01*
X195197Y189154D02*
Y201457D01*
X201279Y100472D02*
X205138D01*
X205197D02*
Y112776D01*
X195197Y100472D02*
Y112776D01*
X195256Y100472D02*
X199114D01*
X11083Y165492D02*
X14941D01*
X15000Y153189D02*
Y165492D01*
X5000Y153189D02*
Y165492D01*
X5059D02*
X8917D01*
X5059Y84508D02*
X8917D01*
X5000D02*
Y96811D01*
X11083Y84508D02*
X14941D01*
X15000D02*
Y96811D01*
X179114Y168150D02*
Y168937D01*
X172618Y168150D02*
Y168937D01*
X154748Y159941D02*
X161634D01*
X154744Y147933D02*
X161630D01*
X41984Y142803D02*
Y162488D01*
X63244Y142803D02*
Y162488D01*
X46287Y241339D02*
Y258268D01*
Y226772D02*
Y235039D01*
X66268Y218504D02*
X79260D01*
X93354Y218504D02*
Y256299D01*
X89102Y218504D02*
X93354D01*
X46288Y218484D02*
X56425D01*
X46288D02*
Y220472D01*
X134606Y95787D02*
Y146968D01*
X83425Y95787D02*
Y146968D01*
X134606D01*
X83425Y95787D02*
X134606D01*
X28232Y49740D02*
X40437D01*
X28232Y89110D02*
X40437D01*
X32803Y103173D02*
X39693D01*
X32803Y91362D02*
X39693D01*
X139331Y236653D02*
X144449D01*
X139331Y243740D02*
X144449D01*
X16457Y193386D02*
X16472Y193389D01*
X161378Y265118D02*
Y267087D01*
X159409D02*
X161378D01*
X151378D02*
X153347D01*
X151378Y265118D02*
Y267087D01*
Y247087D02*
Y249055D01*
Y247087D02*
X153347D01*
X159409D02*
X161378D01*
Y249055D01*
X47953Y204724D02*
Y206890D01*
X50512D01*
X61535D02*
X64095D01*
Y204724D02*
Y206890D01*
X47953Y186811D02*
X50512D01*
X47953D02*
Y188976D01*
X61535Y186811D02*
X64095D01*
Y188976D01*
X145709Y234646D02*
X154370D01*
X145709Y222835D02*
X154370D01*
X21575Y181378D02*
Y183346D01*
X30236Y181378D02*
Y183346D01*
X10197Y268071D02*
X21220D01*
X6654Y262165D02*
Y262953D01*
X24764Y262165D02*
Y262953D01*
X10000Y257047D02*
X11575D01*
X19842D02*
X21417D01*
X178701Y251890D02*
X179291D01*
X192677D02*
X193268D01*
X171417Y267638D02*
Y268228D01*
X200551Y267638D02*
Y268228D01*
X171417Y257008D02*
Y258583D01*
X200551Y257008D02*
Y258583D01*
X147953Y215551D02*
X149331D01*
X147953Y220669D02*
X149331D01*
X108110Y164291D02*
Y169409D01*
X101024Y164291D02*
Y169409D01*
X148346Y57913D02*
Y63032D01*
X155433Y57913D02*
Y63032D01*
X148740Y86102D02*
Y91220D01*
X155827Y86102D02*
Y91220D01*
X171890Y231653D02*
X173268D01*
X171890Y236772D02*
X173268D01*
X139449Y57913D02*
Y63032D01*
X146535Y57913D02*
Y63032D01*
X139921Y86102D02*
Y91220D01*
X147008Y86102D02*
Y91220D01*
X176457Y100630D02*
X178622D01*
Y98071D02*
Y100630D01*
Y84488D02*
Y87047D01*
X176457Y84488D02*
X178622D01*
X158543Y98071D02*
Y100630D01*
X160709D01*
X158543Y84488D02*
Y87047D01*
Y84488D02*
X160709D01*
X43740Y183701D02*
X48858D01*
X43740Y176614D02*
X48858D01*
X141496Y257008D02*
Y258583D01*
X112362Y257008D02*
Y258583D01*
X141496Y267638D02*
Y268228D01*
X112362Y267638D02*
Y268228D01*
X133622Y251890D02*
X134213D01*
X119646D02*
X120236D01*
X195059Y14508D02*
X198917D01*
X195000D02*
Y26811D01*
X205000Y14508D02*
Y26811D01*
X201083Y14508D02*
X204941D01*
X201083Y95492D02*
X204941D01*
X205000Y83189D02*
Y95492D01*
X195059D02*
X198917D01*
X195000Y83189D02*
Y95492D01*
X175945Y72598D02*
X178110D01*
Y70039D02*
Y72598D01*
Y56457D02*
Y59016D01*
X175945Y56457D02*
X178110D01*
X158031Y70039D02*
Y72598D01*
X160197D01*
X158031Y56457D02*
Y59016D01*
Y56457D02*
X160197D01*
D57*
X153465Y160433D02*
G03*
X153465Y160433I-591J0D01*
G01*
X24295Y89898D02*
G03*
X24295Y89898I-591J0D01*
G01*
X31327Y103764D02*
G03*
X31327Y103764I-591J0D01*
G01*
X46772Y205906D02*
G03*
X46772Y205906I-591J0D01*
G01*
X123819Y241220D02*
G03*
X123819Y241220I-591J0D01*
G01*
X193465Y249331D02*
G03*
X193465Y249331I-591J0D01*
G01*
X179173Y243189D02*
G03*
X179173Y243189I-591J0D01*
G01*
X178228Y102402D02*
G03*
X178228Y102402I-591J0D01*
G01*
X134409Y249331D02*
G03*
X134409Y249331I-591J0D01*
G01*
X177717Y74370D02*
G03*
X177717Y74370I-591J0D01*
G01*
D61*
X17874Y70000D02*
G03*
X17874Y70000I-787J0D01*
G01*
X193898Y105965D02*
G03*
X193898Y105965I-787J0D01*
G01*
X17874Y160000D02*
G03*
X17874Y160000I-787J0D01*
G01*
X42555Y138472D02*
G03*
X42555Y138472I-787J0D01*
G01*
X162480Y246378D02*
G03*
X162480Y246378I-787J0D01*
G01*
X29134Y45472D02*
G03*
X29134Y45472I-787J0D01*
G01*
X193701Y20000D02*
G03*
X193701Y20000I-787J0D01*
G01*
D63*
X162362Y169411D02*
Y171498D01*
X160276Y169411D02*
X162362D01*
X126142Y169409D02*
Y171496D01*
Y169409D02*
X128228D01*
X126142Y203543D02*
Y205630D01*
X128228D01*
X162362Y203543D02*
Y205630D01*
X160276D02*
X162362D01*
X123819Y230768D02*
Y236240D01*
X111850Y230768D02*
Y236240D01*
X184508Y233661D02*
X189980D01*
X184508Y245630D02*
X189980D01*
D69*
X109882Y9803D02*
G03*
X109882Y9803I-1181J0D01*
G01*
D75*
X85008Y94378D02*
G03*
X85008Y94378I-492J0D01*
G01*
X158996Y221850D02*
G03*
X158996Y221850I-492J0D01*
G01*
M02*
