G04 Layer_Physical_Order=6*
G04 Layer_Color=16776960*
%FSLAX25Y25*%
%MOIN*%
G70*
G01*
G75*
%ADD10C,0.00591*%
%ADD55C,0.00394*%
%ADD64R,0.05905X0.05905*%
%ADD65C,0.05905*%
%ADD66R,0.05905X0.05905*%
%ADD67R,0.05315X0.05315*%
%ADD68C,0.01772*%
G36*
X206063Y268991D02*
X206821Y268891D01*
X207527Y268599D01*
X208133Y268133D01*
X208598Y267527D01*
X208891Y266821D01*
X208991Y266063D01*
X208997D01*
Y16400D01*
X203600Y11004D01*
X159016D01*
X158632Y10927D01*
X158306Y10710D01*
X148600Y1003D01*
X20416D01*
X10710Y10710D01*
X10384Y10927D01*
X10000Y11004D01*
X3937D01*
Y11009D01*
X3179Y11109D01*
X2473Y11401D01*
X1867Y11867D01*
X1401Y12473D01*
X1109Y13179D01*
X1009Y13937D01*
X1003D01*
Y266063D01*
X1009D01*
X1109Y266821D01*
X1401Y267527D01*
X1867Y268133D01*
X2473Y268599D01*
X3179Y268891D01*
X3937Y268991D01*
Y268997D01*
X206063D01*
Y268991D01*
D02*
G37*
%LPC*%
G36*
X148307Y99887D02*
X147808Y99788D01*
X147385Y99505D01*
X147310Y99393D01*
X146916D01*
X146867Y99466D01*
X146444Y99749D01*
X145945Y99848D01*
X145446Y99749D01*
X145022Y99466D01*
X145000Y99432D01*
X144606D01*
X144584Y99466D01*
X144161Y99749D01*
X143661Y99848D01*
X143162Y99749D01*
X142739Y99466D01*
X142713Y99426D01*
X142674D01*
X142270Y99473D01*
X141917Y99709D01*
X141417Y99809D01*
X140918Y99709D01*
X140495Y99426D01*
X140212Y99003D01*
X140113Y98504D01*
X140212Y98005D01*
X140495Y97581D01*
X140918Y97299D01*
X141417Y97199D01*
X141917Y97299D01*
X142340Y97581D01*
X142366Y97621D01*
X142405D01*
X142808Y97574D01*
X143162Y97338D01*
X143661Y97239D01*
X144161Y97338D01*
X144584Y97621D01*
X144606Y97654D01*
X145000D01*
X145022Y97621D01*
X145446Y97338D01*
X145945Y97239D01*
X146444Y97338D01*
X146867Y97621D01*
X146942Y97733D01*
X147336D01*
X147385Y97660D01*
X147808Y97377D01*
X148307Y97278D01*
X148806Y97377D01*
X149230Y97660D01*
X149512Y98083D01*
X149612Y98583D01*
X149512Y99082D01*
X149230Y99505D01*
X148806Y99788D01*
X148307Y99887D01*
D02*
G37*
G36*
X10000Y103772D02*
X9024Y103644D01*
X8114Y103267D01*
X7333Y102667D01*
X6733Y101886D01*
X6356Y100976D01*
X6228Y100000D01*
X6356Y99024D01*
X6733Y98114D01*
X7333Y97333D01*
X8114Y96733D01*
X9024Y96356D01*
X10000Y96228D01*
X10976Y96356D01*
X11886Y96733D01*
X12667Y97333D01*
X13267Y98114D01*
X13644Y99024D01*
X13772Y100000D01*
X13644Y100976D01*
X13267Y101886D01*
X12667Y102667D01*
X11886Y103267D01*
X10976Y103644D01*
X10000Y103772D01*
D02*
G37*
G36*
X167264Y105261D02*
X166764Y105162D01*
X166341Y104879D01*
X166059Y104456D01*
X165959Y103957D01*
X166059Y103457D01*
X166341Y103034D01*
X166764Y102751D01*
X167264Y102652D01*
X167763Y102751D01*
X168186Y103034D01*
X168469Y103457D01*
X168568Y103957D01*
X168469Y104456D01*
X168186Y104879D01*
X167763Y105162D01*
X167264Y105261D01*
D02*
G37*
G36*
X203937Y109705D02*
X196457D01*
Y102224D01*
X203937D01*
Y109705D01*
D02*
G37*
G36*
X173484Y98431D02*
X172985Y98331D01*
X172562Y98049D01*
X172279Y97625D01*
X172180Y97126D01*
X172279Y96627D01*
X172562Y96204D01*
X172985Y95921D01*
X173484Y95821D01*
X173839Y95892D01*
X174074Y95544D01*
X173873Y95243D01*
X173774Y94744D01*
X173873Y94245D01*
X173966Y94106D01*
X173730Y93752D01*
X173661Y93765D01*
X173162Y93666D01*
X172739Y93383D01*
X172456Y92960D01*
X172357Y92461D01*
X172456Y91961D01*
X172739Y91538D01*
X173162Y91255D01*
X173661Y91156D01*
X173722Y91168D01*
X173959Y90814D01*
X173854Y90657D01*
X173754Y90158D01*
X173854Y89658D01*
X174137Y89235D01*
X174560Y88952D01*
X175059Y88853D01*
X175558Y88952D01*
X175981Y89235D01*
X176264Y89658D01*
X176364Y90158D01*
X176264Y90657D01*
X175981Y91080D01*
X175558Y91363D01*
X175059Y91462D01*
X174998Y91450D01*
X174762Y91804D01*
X174867Y91961D01*
X174966Y92461D01*
X174867Y92960D01*
X174774Y93099D01*
X175011Y93453D01*
X175079Y93440D01*
X175578Y93539D01*
X176001Y93822D01*
X176284Y94245D01*
X176383Y94744D01*
X176284Y95243D01*
X176001Y95667D01*
X175578Y95949D01*
X175079Y96049D01*
X174724Y95978D01*
X174489Y96326D01*
X174689Y96627D01*
X174789Y97126D01*
X174689Y97625D01*
X174407Y98049D01*
X173984Y98331D01*
X173484Y98431D01*
D02*
G37*
G36*
X110551Y93391D02*
X110052Y93292D01*
X109629Y93009D01*
X109346Y92586D01*
X109247Y92087D01*
X109346Y91587D01*
X109629Y91164D01*
X110052Y90881D01*
X110551Y90782D01*
X111050Y90881D01*
X111474Y91164D01*
X111757Y91587D01*
X111856Y92087D01*
X111757Y92586D01*
X111474Y93009D01*
X111050Y93292D01*
X110551Y93391D01*
D02*
G37*
G36*
X26984Y98572D02*
X26485Y98473D01*
X26062Y98190D01*
X25779Y97767D01*
X25680Y97268D01*
X25779Y96768D01*
X26062Y96345D01*
X26485Y96062D01*
X26984Y95963D01*
X27483Y96062D01*
X27907Y96345D01*
X28190Y96768D01*
X28289Y97268D01*
X28190Y97767D01*
X27907Y98190D01*
X27483Y98473D01*
X26984Y98572D01*
D02*
G37*
G36*
X43937Y98509D02*
X43438Y98410D01*
X43014Y98127D01*
X42732Y97704D01*
X42632Y97205D01*
X42732Y96706D01*
X43014Y96282D01*
X43438Y95999D01*
X43937Y95900D01*
X44436Y95999D01*
X44859Y96282D01*
X45142Y96706D01*
X45242Y97205D01*
X45142Y97704D01*
X44859Y98127D01*
X44436Y98410D01*
X43937Y98509D01*
D02*
G37*
G36*
X169862Y107938D02*
X169363Y107839D01*
X168940Y107556D01*
X168657Y107133D01*
X168558Y106634D01*
X168657Y106135D01*
X168940Y105711D01*
X169363Y105429D01*
X169862Y105329D01*
X170361Y105429D01*
X170785Y105711D01*
X171068Y106135D01*
X171167Y106634D01*
X171068Y107133D01*
X170785Y107556D01*
X170361Y107839D01*
X169862Y107938D01*
D02*
G37*
G36*
X142244Y113234D02*
X141745Y113134D01*
X141322Y112852D01*
X141039Y112428D01*
X140939Y111929D01*
X141039Y111430D01*
X141322Y111007D01*
X141745Y110724D01*
X142244Y110625D01*
X142743Y110724D01*
X143167Y111007D01*
X143449Y111430D01*
X143549Y111929D01*
X143449Y112428D01*
X143167Y112852D01*
X142743Y113134D01*
X142244Y113234D01*
D02*
G37*
G36*
X178366Y112309D02*
X177867Y112209D01*
X177444Y111926D01*
X177161Y111503D01*
X177061Y111004D01*
X177161Y110505D01*
X177444Y110082D01*
X177867Y109799D01*
X178366Y109699D01*
X178865Y109799D01*
X179289Y110082D01*
X179571Y110505D01*
X179671Y111004D01*
X179571Y111503D01*
X179289Y111926D01*
X178865Y112209D01*
X178366Y112309D01*
D02*
G37*
G36*
X31063Y115242D02*
X30564Y115142D01*
X30141Y114859D01*
X29858Y114436D01*
X29758Y113937D01*
X29858Y113438D01*
X30141Y113014D01*
X30564Y112732D01*
X31063Y112632D01*
X31562Y112732D01*
X31986Y113014D01*
X32268Y113438D01*
X32368Y113937D01*
X32268Y114436D01*
X31986Y114859D01*
X31562Y115142D01*
X31063Y115242D01*
D02*
G37*
G36*
X200197Y119737D02*
X199221Y119608D01*
X198311Y119231D01*
X197529Y118632D01*
X196930Y117851D01*
X196553Y116941D01*
X196424Y115964D01*
X196553Y114988D01*
X196930Y114078D01*
X197529Y113297D01*
X198311Y112698D01*
X199221Y112321D01*
X200197Y112192D01*
X201173Y112321D01*
X202083Y112698D01*
X202864Y113297D01*
X203464Y114078D01*
X203841Y114988D01*
X203969Y115964D01*
X203841Y116941D01*
X203464Y117851D01*
X202864Y118632D01*
X202083Y119231D01*
X201173Y119608D01*
X200197Y119737D01*
D02*
G37*
G36*
X31063Y109415D02*
X30564Y109316D01*
X30141Y109033D01*
X29858Y108609D01*
X29758Y108110D01*
X29858Y107611D01*
X30141Y107188D01*
X30564Y106905D01*
X31063Y106806D01*
X31562Y106905D01*
X31986Y107188D01*
X32268Y107611D01*
X32368Y108110D01*
X32268Y108609D01*
X31986Y109033D01*
X31562Y109316D01*
X31063Y109415D01*
D02*
G37*
G36*
X10000Y113772D02*
X9024Y113644D01*
X8114Y113267D01*
X7333Y112668D01*
X6733Y111886D01*
X6356Y110976D01*
X6228Y110000D01*
X6356Y109024D01*
X6733Y108114D01*
X7333Y107333D01*
X8114Y106733D01*
X9024Y106356D01*
X10000Y106228D01*
X10976Y106356D01*
X11886Y106733D01*
X12667Y107333D01*
X13267Y108114D01*
X13644Y109024D01*
X13772Y110000D01*
X13644Y110976D01*
X13267Y111886D01*
X12667Y112668D01*
X11886Y113267D01*
X10976Y113644D01*
X10000Y113772D01*
D02*
G37*
G36*
X158602Y109592D02*
X158103Y109493D01*
X157680Y109210D01*
X157397Y108787D01*
X157298Y108287D01*
X157368Y107933D01*
X157020Y107697D01*
X156720Y107898D01*
X156220Y107998D01*
X155721Y107898D01*
X155582Y107805D01*
X155228Y108042D01*
X155242Y108110D01*
X155142Y108609D01*
X154859Y109033D01*
X154436Y109316D01*
X153937Y109415D01*
X153438Y109316D01*
X153015Y109033D01*
X152732Y108609D01*
X152632Y108110D01*
X152645Y108050D01*
X152290Y107813D01*
X152133Y107918D01*
X151634Y108017D01*
X151135Y107918D01*
X150711Y107635D01*
X150429Y107212D01*
X150329Y106713D01*
X150429Y106213D01*
X150711Y105790D01*
X151135Y105507D01*
X151634Y105408D01*
X152133Y105507D01*
X152556Y105790D01*
X152839Y106213D01*
X152938Y106713D01*
X152926Y106773D01*
X153281Y107010D01*
X153438Y106905D01*
X153937Y106806D01*
X154436Y106905D01*
X154575Y106998D01*
X154929Y106761D01*
X154916Y106693D01*
X155015Y106194D01*
X155298Y105770D01*
X155721Y105488D01*
X156220Y105388D01*
X156720Y105488D01*
X157143Y105770D01*
X157426Y106194D01*
X157525Y106693D01*
X157455Y107047D01*
X157802Y107283D01*
X158103Y107082D01*
X158602Y106983D01*
X159102Y107082D01*
X159525Y107365D01*
X159808Y107788D01*
X159907Y108287D01*
X159808Y108787D01*
X159525Y109210D01*
X159102Y109493D01*
X158602Y109592D01*
D02*
G37*
G36*
X37126Y109415D02*
X36627Y109316D01*
X36204Y109033D01*
X35921Y108609D01*
X35821Y108110D01*
X35921Y107611D01*
X36204Y107188D01*
X36627Y106905D01*
X37126Y106806D01*
X37625Y106905D01*
X38048Y107188D01*
X38331Y107611D01*
X38431Y108110D01*
X38331Y108609D01*
X38048Y109033D01*
X37625Y109316D01*
X37126Y109415D01*
D02*
G37*
G36*
X72047Y86029D02*
X71548Y85930D01*
X71125Y85647D01*
X70842Y85224D01*
X70743Y84724D01*
X70842Y84225D01*
X71125Y83802D01*
X71548Y83519D01*
X72047Y83420D01*
X72546Y83519D01*
X72970Y83802D01*
X73252Y84225D01*
X73352Y84724D01*
X73252Y85224D01*
X72970Y85647D01*
X72546Y85930D01*
X72047Y86029D01*
D02*
G37*
G36*
X40083Y85718D02*
X39583Y85619D01*
X39160Y85336D01*
X38877Y84913D01*
X38778Y84413D01*
X38877Y83914D01*
X39160Y83491D01*
X39583Y83208D01*
X40083Y83109D01*
X40582Y83208D01*
X41005Y83491D01*
X41288Y83914D01*
X41387Y84413D01*
X41288Y84913D01*
X41005Y85336D01*
X40582Y85619D01*
X40083Y85718D01*
D02*
G37*
G36*
X143465Y87171D02*
X142965Y87071D01*
X142542Y86789D01*
X142259Y86365D01*
X142160Y85866D01*
X142259Y85367D01*
X142542Y84944D01*
X142965Y84661D01*
X143465Y84562D01*
X143964Y84661D01*
X144387Y84944D01*
X144670Y85367D01*
X144769Y85866D01*
X144670Y86365D01*
X144387Y86789D01*
X143964Y87071D01*
X143465Y87171D01*
D02*
G37*
G36*
X98006Y92791D02*
X97507Y92691D01*
X97083Y92409D01*
X96801Y91985D01*
X96701Y91486D01*
X96801Y90987D01*
X96877Y90873D01*
X96824Y90461D01*
X96400Y90178D01*
X96118Y89755D01*
X96018Y89256D01*
X96118Y88757D01*
X96400Y88333D01*
X96824Y88051D01*
X97323Y87951D01*
X97822Y88051D01*
X97943Y88131D01*
X98297Y87894D01*
X98262Y87721D01*
X98362Y87221D01*
X98645Y86798D01*
X98909Y86621D01*
X98826Y86203D01*
X98540Y86146D01*
X98117Y85863D01*
X97834Y85440D01*
X97735Y84941D01*
X97834Y84442D01*
X98117Y84018D01*
X98540Y83736D01*
X99039Y83636D01*
X99539Y83736D01*
X99962Y84018D01*
X100245Y84442D01*
X100344Y84941D01*
X100245Y85440D01*
X99962Y85863D01*
X99697Y86040D01*
X99780Y86458D01*
X100066Y86515D01*
X100489Y86798D01*
X100772Y87221D01*
X100872Y87721D01*
X100772Y88220D01*
X100489Y88643D01*
X100066Y88926D01*
X99567Y89025D01*
X99068Y88926D01*
X98947Y88845D01*
X98593Y89082D01*
X98627Y89256D01*
X98528Y89755D01*
X98452Y89869D01*
X98505Y90281D01*
X98928Y90564D01*
X99211Y90987D01*
X99310Y91486D01*
X99211Y91985D01*
X98928Y92409D01*
X98505Y92691D01*
X98006Y92791D01*
D02*
G37*
G36*
X85677Y85186D02*
X85178Y85087D01*
X84755Y84804D01*
X84472Y84381D01*
X84373Y83882D01*
X84472Y83383D01*
X84755Y82959D01*
X85178Y82677D01*
X85677Y82577D01*
X86176Y82677D01*
X86600Y82959D01*
X86882Y83383D01*
X86982Y83882D01*
X86882Y84381D01*
X86600Y84804D01*
X86176Y85087D01*
X85677Y85186D01*
D02*
G37*
G36*
X88711Y84734D02*
X88211Y84634D01*
X87788Y84352D01*
X87505Y83928D01*
X87406Y83429D01*
X87505Y82930D01*
X87788Y82507D01*
X88211Y82224D01*
X88711Y82125D01*
X89210Y82224D01*
X89633Y82507D01*
X89916Y82930D01*
X90015Y83429D01*
X89916Y83928D01*
X89633Y84352D01*
X89210Y84634D01*
X88711Y84734D01*
D02*
G37*
G36*
X81921Y85596D02*
X81422Y85497D01*
X80999Y85214D01*
X80716Y84791D01*
X80617Y84291D01*
X80716Y83792D01*
X80999Y83369D01*
X81422Y83086D01*
X81921Y82987D01*
X82420Y83086D01*
X82844Y83369D01*
X83126Y83792D01*
X83226Y84291D01*
X83126Y84791D01*
X82844Y85214D01*
X82420Y85497D01*
X81921Y85596D01*
D02*
G37*
G36*
X109906Y85486D02*
X109406Y85386D01*
X108983Y85104D01*
X108700Y84680D01*
X108601Y84181D01*
X108700Y83682D01*
X108983Y83259D01*
X109406Y82976D01*
X109906Y82876D01*
X110405Y82976D01*
X110828Y83259D01*
X111111Y83682D01*
X111210Y84181D01*
X111111Y84680D01*
X110828Y85104D01*
X110405Y85386D01*
X109906Y85486D01*
D02*
G37*
G36*
X152342Y87190D02*
X151843Y87091D01*
X151420Y86808D01*
X151137Y86385D01*
X151038Y85886D01*
X151137Y85387D01*
X151420Y84963D01*
X151843Y84680D01*
X152342Y84581D01*
X152842Y84680D01*
X153265Y84963D01*
X153548Y85387D01*
X153647Y85886D01*
X153548Y86385D01*
X153265Y86808D01*
X152842Y87091D01*
X152342Y87190D01*
D02*
G37*
G36*
X10000Y93772D02*
X9024Y93644D01*
X8114Y93267D01*
X7333Y92668D01*
X6733Y91886D01*
X6356Y90976D01*
X6228Y90000D01*
X6356Y89024D01*
X6733Y88114D01*
X7333Y87332D01*
X8114Y86733D01*
X9024Y86356D01*
X10000Y86228D01*
X10976Y86356D01*
X11886Y86733D01*
X12667Y87332D01*
X13267Y88114D01*
X13644Y89024D01*
X13772Y90000D01*
X13644Y90976D01*
X13267Y91886D01*
X12667Y92668D01*
X11886Y93267D01*
X10976Y93644D01*
X10000Y93772D01*
D02*
G37*
G36*
X81453Y88773D02*
X80954Y88674D01*
X80530Y88391D01*
X80247Y87968D01*
X80148Y87468D01*
X80247Y86969D01*
X80530Y86546D01*
X80954Y86263D01*
X81453Y86164D01*
X81952Y86263D01*
X82375Y86546D01*
X82658Y86969D01*
X82757Y87468D01*
X82658Y87968D01*
X82375Y88391D01*
X81952Y88674D01*
X81453Y88773D01*
D02*
G37*
G36*
X93146Y89509D02*
X92646Y89410D01*
X92223Y89127D01*
X91940Y88704D01*
X91841Y88205D01*
X91940Y87705D01*
X92223Y87282D01*
X92646Y86999D01*
X93146Y86900D01*
X93645Y86999D01*
X94068Y87282D01*
X94351Y87705D01*
X94450Y88205D01*
X94351Y88704D01*
X94068Y89127D01*
X93645Y89410D01*
X93146Y89509D01*
D02*
G37*
G36*
X200000Y93772D02*
X199024Y93644D01*
X198114Y93267D01*
X197333Y92668D01*
X196733Y91886D01*
X196356Y90976D01*
X196228Y90000D01*
X196356Y89024D01*
X196733Y88114D01*
X197333Y87332D01*
X198114Y86733D01*
X199024Y86356D01*
X200000Y86228D01*
X200976Y86356D01*
X201886Y86733D01*
X202667Y87332D01*
X203267Y88114D01*
X203644Y89024D01*
X203772Y90000D01*
X203644Y90976D01*
X203267Y91886D01*
X202667Y92668D01*
X201886Y93267D01*
X200976Y93644D01*
X200000Y93772D01*
D02*
G37*
G36*
X113087Y87986D02*
X112587Y87886D01*
X112164Y87604D01*
X111881Y87180D01*
X111782Y86681D01*
X111881Y86182D01*
X112164Y85759D01*
X112587Y85476D01*
X113087Y85377D01*
X113586Y85476D01*
X114009Y85759D01*
X114292Y86182D01*
X114391Y86681D01*
X114292Y87180D01*
X114009Y87604D01*
X113586Y87886D01*
X113087Y87986D01*
D02*
G37*
G36*
X105236Y87600D02*
X104737Y87501D01*
X104314Y87218D01*
X104031Y86795D01*
X103932Y86295D01*
X104031Y85796D01*
X104314Y85373D01*
X104737Y85090D01*
X105236Y84991D01*
X105736Y85090D01*
X106159Y85373D01*
X106441Y85796D01*
X106541Y86295D01*
X106441Y86795D01*
X106159Y87218D01*
X105736Y87501D01*
X105236Y87600D01*
D02*
G37*
G36*
X19410Y88230D02*
X18910Y88130D01*
X18487Y87848D01*
X18204Y87424D01*
X18105Y86925D01*
X18204Y86426D01*
X18487Y86003D01*
X18910Y85720D01*
X19410Y85621D01*
X19909Y85720D01*
X20332Y86003D01*
X20615Y86426D01*
X20714Y86925D01*
X20615Y87424D01*
X20332Y87848D01*
X19909Y88130D01*
X19410Y88230D01*
D02*
G37*
G36*
X116689Y87998D02*
X116190Y87898D01*
X115767Y87615D01*
X115484Y87192D01*
X115384Y86693D01*
X115484Y86194D01*
X115767Y85770D01*
X116190Y85488D01*
X116689Y85388D01*
X117188Y85488D01*
X117611Y85770D01*
X117894Y86194D01*
X117994Y86693D01*
X117894Y87192D01*
X117611Y87615D01*
X117188Y87898D01*
X116689Y87998D01*
D02*
G37*
G36*
X9606Y119606D02*
X6279D01*
X6356Y119024D01*
X6733Y118114D01*
X7333Y117332D01*
X8114Y116733D01*
X9024Y116356D01*
X9606Y116279D01*
Y119606D01*
D02*
G37*
G36*
X101811Y159100D02*
X101312Y159001D01*
X100889Y158718D01*
X100606Y158294D01*
X100506Y157795D01*
X100606Y157296D01*
X100889Y156873D01*
X101312Y156590D01*
X101811Y156491D01*
X102310Y156590D01*
X102620Y156797D01*
X102975Y156701D01*
X103051Y156647D01*
X103086Y156469D01*
X103369Y156046D01*
X103792Y155763D01*
X104291Y155664D01*
X104791Y155763D01*
X105214Y156046D01*
X105497Y156469D01*
X105596Y156968D01*
X105594Y156978D01*
X105965Y157132D01*
X106164Y156833D01*
X106587Y156551D01*
X107087Y156451D01*
X107586Y156551D01*
X108009Y156833D01*
X108292Y157257D01*
X108391Y157756D01*
X108292Y158255D01*
X108009Y158678D01*
X107586Y158961D01*
X107087Y159061D01*
X106587Y158961D01*
X106164Y158678D01*
X105881Y158255D01*
X105782Y157756D01*
X105784Y157746D01*
X105413Y157593D01*
X105214Y157891D01*
X104791Y158174D01*
X104291Y158273D01*
X103792Y158174D01*
X103483Y157967D01*
X103127Y158063D01*
X103052Y158116D01*
X103016Y158294D01*
X102734Y158718D01*
X102310Y159001D01*
X101811Y159100D01*
D02*
G37*
G36*
X13740Y163740D02*
X6260D01*
Y156260D01*
X13740D01*
Y163740D01*
D02*
G37*
G36*
X57579Y159395D02*
X57079Y159296D01*
X56656Y159013D01*
X56374Y158590D01*
X56274Y158091D01*
X56374Y157591D01*
X56656Y157168D01*
X57079Y156885D01*
X57579Y156786D01*
X58078Y156885D01*
X58501Y157168D01*
X58784Y157591D01*
X58883Y158091D01*
X58784Y158590D01*
X58501Y159013D01*
X58078Y159296D01*
X57579Y159395D01*
D02*
G37*
G36*
X48327D02*
X47828Y159296D01*
X47404Y159013D01*
X47122Y158590D01*
X47022Y158091D01*
X47122Y157591D01*
X47404Y157168D01*
X47828Y156885D01*
X48327Y156786D01*
X48826Y156885D01*
X49249Y157168D01*
X49532Y157591D01*
X49631Y158091D01*
X49532Y158590D01*
X49249Y159013D01*
X48826Y159296D01*
X48327Y159395D01*
D02*
G37*
G36*
X200197Y159737D02*
X199221Y159608D01*
X198311Y159231D01*
X197529Y158632D01*
X196930Y157851D01*
X196553Y156941D01*
X196424Y155965D01*
X196553Y154988D01*
X196930Y154078D01*
X197529Y153297D01*
X198311Y152698D01*
X199221Y152321D01*
X200197Y152192D01*
X201173Y152321D01*
X202083Y152698D01*
X202864Y153297D01*
X203464Y154078D01*
X203841Y154988D01*
X203969Y155965D01*
X203841Y156941D01*
X203464Y157851D01*
X202864Y158632D01*
X202083Y159231D01*
X201173Y159608D01*
X200197Y159737D01*
D02*
G37*
G36*
X82559Y153627D02*
X82060Y153528D01*
X81637Y153245D01*
X81354Y152822D01*
X81255Y152323D01*
X81354Y151824D01*
X81637Y151400D01*
X82060Y151118D01*
X82559Y151018D01*
X83058Y151118D01*
X83482Y151400D01*
X83764Y151824D01*
X83864Y152323D01*
X83764Y152822D01*
X83482Y153245D01*
X83058Y153528D01*
X82559Y153627D01*
D02*
G37*
G36*
X169724Y158942D02*
X169225Y158843D01*
X168802Y158560D01*
X168519Y158137D01*
X168420Y157638D01*
X168519Y157139D01*
X168802Y156715D01*
X168855Y156680D01*
Y156378D01*
X168813Y156234D01*
X168559Y155854D01*
X168459Y155354D01*
X168559Y154855D01*
X168841Y154432D01*
X169264Y154149D01*
X169764Y154050D01*
X170263Y154149D01*
X170686Y154432D01*
X170969Y154855D01*
X171068Y155354D01*
X170969Y155854D01*
X170686Y156277D01*
X170633Y156312D01*
Y156614D01*
X170675Y156758D01*
X170930Y157139D01*
X171029Y157638D01*
X170930Y158137D01*
X170647Y158560D01*
X170224Y158843D01*
X169724Y158942D01*
D02*
G37*
G36*
X185039Y155360D02*
X184540Y155260D01*
X184117Y154978D01*
X183834Y154554D01*
X183735Y154055D01*
X183834Y153556D01*
X184117Y153133D01*
X184540Y152850D01*
X185039Y152751D01*
X185539Y152850D01*
X185962Y153133D01*
X186245Y153556D01*
X186344Y154055D01*
X186245Y154554D01*
X185962Y154978D01*
X185539Y155260D01*
X185039Y155360D01*
D02*
G37*
G36*
X69567Y162368D02*
X69068Y162268D01*
X68644Y161986D01*
X68362Y161562D01*
X68262Y161063D01*
X68362Y160564D01*
X68644Y160141D01*
X69068Y159858D01*
X69567Y159758D01*
X70066Y159858D01*
X70489Y160141D01*
X70772Y160564D01*
X70872Y161063D01*
X70772Y161562D01*
X70489Y161986D01*
X70066Y162268D01*
X69567Y162368D01*
D02*
G37*
G36*
X28464Y168116D02*
X27965Y168016D01*
X27542Y167734D01*
X27259Y167310D01*
X27160Y166811D01*
X27259Y166312D01*
X27542Y165889D01*
X27965Y165606D01*
X28464Y165506D01*
X28964Y165606D01*
X29387Y165889D01*
X29670Y166312D01*
X29769Y166811D01*
X29670Y167310D01*
X29387Y167734D01*
X28964Y168016D01*
X28464Y168116D01*
D02*
G37*
G36*
X133661Y165675D02*
X133162Y165575D01*
X132739Y165293D01*
X132658Y165171D01*
X132264D01*
X132182Y165293D01*
X131759Y165575D01*
X131260Y165675D01*
X130761Y165575D01*
X130337Y165293D01*
X130055Y164869D01*
X129955Y164370D01*
X130055Y163871D01*
X130337Y163448D01*
X130350Y163440D01*
X130196Y163069D01*
X130157Y163076D01*
X129658Y162977D01*
X129235Y162694D01*
X128952Y162271D01*
X128853Y161772D01*
X128952Y161272D01*
X129235Y160849D01*
X129658Y160566D01*
X130157Y160467D01*
X130657Y160566D01*
X131080Y160849D01*
X131363Y161272D01*
X131462Y161772D01*
X131363Y162271D01*
X131080Y162694D01*
X131068Y162702D01*
X131221Y163073D01*
X131260Y163066D01*
X131759Y163165D01*
X132182Y163448D01*
X132264Y163569D01*
X132658D01*
X132739Y163448D01*
X133162Y163165D01*
X133661Y163066D01*
X134161Y163165D01*
X134584Y163448D01*
X134867Y163871D01*
X134966Y164370D01*
X134867Y164869D01*
X134584Y165293D01*
X134161Y165575D01*
X133661Y165675D01*
D02*
G37*
G36*
X67756Y169178D02*
X67257Y169079D01*
X66833Y168796D01*
X66550Y168373D01*
X66451Y167874D01*
X66550Y167375D01*
X66833Y166951D01*
X67257Y166669D01*
X67756Y166569D01*
X68255Y166669D01*
X68678Y166951D01*
X68961Y167375D01*
X69060Y167874D01*
X68961Y168373D01*
X68678Y168796D01*
X68255Y169079D01*
X67756Y169178D01*
D02*
G37*
G36*
X186378Y168627D02*
X185879Y168528D01*
X185456Y168245D01*
X185173Y167822D01*
X185073Y167323D01*
X185173Y166824D01*
X185456Y166400D01*
X185879Y166118D01*
X186378Y166018D01*
X186877Y166118D01*
X187300Y166400D01*
X187583Y166824D01*
X187682Y167323D01*
X187583Y167822D01*
X187300Y168245D01*
X186877Y168528D01*
X186378Y168627D01*
D02*
G37*
G36*
X200197Y169737D02*
X199221Y169608D01*
X198311Y169231D01*
X197529Y168632D01*
X196930Y167851D01*
X196553Y166941D01*
X196424Y165964D01*
X196553Y164988D01*
X196930Y164078D01*
X197529Y163297D01*
X198311Y162698D01*
X199221Y162321D01*
X200197Y162192D01*
X201173Y162321D01*
X202083Y162698D01*
X202864Y163297D01*
X203464Y164078D01*
X203841Y164988D01*
X203969Y165964D01*
X203841Y166941D01*
X203464Y167851D01*
X202864Y168632D01*
X202083Y169231D01*
X201173Y169608D01*
X200197Y169737D01*
D02*
G37*
G36*
X173504Y162643D02*
X173005Y162544D01*
X172581Y162261D01*
X172299Y161838D01*
X172199Y161339D01*
X172299Y160839D01*
X172581Y160416D01*
X173005Y160133D01*
X173504Y160034D01*
X174003Y160133D01*
X174426Y160416D01*
X174709Y160839D01*
X174809Y161339D01*
X174709Y161838D01*
X174426Y162261D01*
X174003Y162544D01*
X173504Y162643D01*
D02*
G37*
G36*
X82559Y166895D02*
X82060Y166796D01*
X81637Y166513D01*
X81354Y166090D01*
X81255Y165591D01*
X81354Y165091D01*
X81637Y164668D01*
X82060Y164385D01*
X82559Y164286D01*
X83058Y164385D01*
X83482Y164668D01*
X83764Y165091D01*
X83864Y165591D01*
X83764Y166090D01*
X83482Y166513D01*
X83058Y166796D01*
X82559Y166895D01*
D02*
G37*
G36*
X125748Y166620D02*
X125249Y166520D01*
X124826Y166237D01*
X124543Y165814D01*
X124443Y165315D01*
X124543Y164816D01*
X124826Y164392D01*
X125249Y164110D01*
X125748Y164010D01*
X126247Y164110D01*
X126671Y164392D01*
X126953Y164816D01*
X127053Y165315D01*
X126953Y165814D01*
X126671Y166237D01*
X126247Y166520D01*
X125748Y166620D01*
D02*
G37*
G36*
X10000Y133772D02*
X9024Y133644D01*
X8114Y133267D01*
X7333Y132668D01*
X6733Y131886D01*
X6356Y130976D01*
X6228Y130000D01*
X6356Y129024D01*
X6733Y128114D01*
X7333Y127332D01*
X8114Y126733D01*
X9024Y126356D01*
X10000Y126228D01*
X10976Y126356D01*
X11886Y126733D01*
X12667Y127332D01*
X13267Y128114D01*
X13644Y129024D01*
X13772Y130000D01*
X13644Y130976D01*
X13267Y131886D01*
X12667Y132668D01*
X11886Y133267D01*
X10976Y133644D01*
X10000Y133772D01*
D02*
G37*
G36*
X200197Y129737D02*
X199221Y129608D01*
X198311Y129232D01*
X197529Y128632D01*
X196930Y127851D01*
X196553Y126941D01*
X196424Y125964D01*
X196553Y124988D01*
X196930Y124078D01*
X197529Y123297D01*
X198311Y122697D01*
X199221Y122321D01*
X200197Y122192D01*
X201173Y122321D01*
X202083Y122697D01*
X202864Y123297D01*
X203464Y124078D01*
X203841Y124988D01*
X203969Y125964D01*
X203841Y126941D01*
X203464Y127851D01*
X202864Y128632D01*
X202083Y129232D01*
X201173Y129608D01*
X200197Y129737D01*
D02*
G37*
G36*
X10000Y143772D02*
X9024Y143644D01*
X8114Y143267D01*
X7333Y142667D01*
X6733Y141886D01*
X6356Y140976D01*
X6228Y140000D01*
X6356Y139024D01*
X6733Y138114D01*
X7333Y137332D01*
X8114Y136733D01*
X9024Y136356D01*
X10000Y136228D01*
X10976Y136356D01*
X11886Y136733D01*
X12667Y137332D01*
X13267Y138114D01*
X13644Y139024D01*
X13772Y140000D01*
X13644Y140976D01*
X13267Y141886D01*
X12667Y142667D01*
X11886Y143267D01*
X10976Y143644D01*
X10000Y143772D01*
D02*
G37*
G36*
X200197Y139737D02*
X199221Y139608D01*
X198311Y139232D01*
X197529Y138632D01*
X196930Y137851D01*
X196553Y136941D01*
X196424Y135965D01*
X196553Y134988D01*
X196930Y134078D01*
X197529Y133297D01*
X198311Y132697D01*
X199221Y132321D01*
X200197Y132192D01*
X201173Y132321D01*
X202083Y132697D01*
X202864Y133297D01*
X203464Y134078D01*
X203841Y134988D01*
X203969Y135965D01*
X203841Y136941D01*
X203464Y137851D01*
X202864Y138632D01*
X202083Y139232D01*
X201173Y139608D01*
X200197Y139737D01*
D02*
G37*
G36*
X37087Y120950D02*
X36587Y120851D01*
X36164Y120568D01*
X35881Y120145D01*
X35782Y119646D01*
X35881Y119146D01*
X36164Y118723D01*
X36587Y118440D01*
X37087Y118341D01*
X37586Y118440D01*
X38009Y118723D01*
X38292Y119146D01*
X38391Y119646D01*
X38292Y120145D01*
X38009Y120568D01*
X37586Y120851D01*
X37087Y120950D01*
D02*
G37*
G36*
X13721Y119606D02*
X10394D01*
Y116279D01*
X10976Y116356D01*
X11886Y116733D01*
X12667Y117332D01*
X13267Y118114D01*
X13644Y119024D01*
X13721Y119606D01*
D02*
G37*
G36*
X10394Y123721D02*
Y120394D01*
X13721D01*
X13644Y120976D01*
X13267Y121886D01*
X12667Y122668D01*
X11886Y123267D01*
X10976Y123644D01*
X10394Y123721D01*
D02*
G37*
G36*
X9606D02*
X9024Y123644D01*
X8114Y123267D01*
X7333Y122668D01*
X6733Y121886D01*
X6356Y120976D01*
X6279Y120394D01*
X9606D01*
Y123721D01*
D02*
G37*
G36*
X200197Y149737D02*
X199221Y149608D01*
X198311Y149232D01*
X197529Y148632D01*
X196930Y147851D01*
X196553Y146941D01*
X196424Y145965D01*
X196553Y144988D01*
X196930Y144078D01*
X197529Y143297D01*
X198311Y142698D01*
X199221Y142321D01*
X200197Y142192D01*
X201173Y142321D01*
X202083Y142698D01*
X202864Y143297D01*
X203464Y144078D01*
X203841Y144988D01*
X203969Y145965D01*
X203841Y146941D01*
X203464Y147851D01*
X202864Y148632D01*
X202083Y149232D01*
X201173Y149608D01*
X200197Y149737D01*
D02*
G37*
G36*
X10000Y153772D02*
X9024Y153644D01*
X8114Y153267D01*
X7333Y152667D01*
X6733Y151886D01*
X6356Y150976D01*
X6228Y150000D01*
X6356Y149024D01*
X6733Y148114D01*
X7333Y147333D01*
X8114Y146733D01*
X9024Y146356D01*
X10000Y146228D01*
X10976Y146356D01*
X11886Y146733D01*
X12667Y147333D01*
X13267Y148114D01*
X13644Y149024D01*
X13772Y150000D01*
X13644Y150976D01*
X13267Y151886D01*
X12667Y152667D01*
X11886Y153267D01*
X10976Y153644D01*
X10000Y153772D01*
D02*
G37*
G36*
X57579Y147387D02*
X57079Y147288D01*
X56656Y147005D01*
X56374Y146582D01*
X56274Y146083D01*
X56374Y145583D01*
X56656Y145160D01*
X57079Y144877D01*
X57579Y144778D01*
X58078Y144877D01*
X58501Y145160D01*
X58784Y145583D01*
X58883Y146083D01*
X58784Y146582D01*
X58501Y147005D01*
X58078Y147288D01*
X57579Y147387D01*
D02*
G37*
G36*
X128937Y152289D02*
X128438Y152190D01*
X128015Y151907D01*
X127732Y151484D01*
X127632Y150984D01*
X127732Y150485D01*
X128015Y150062D01*
X128438Y149779D01*
X128937Y149680D01*
X129436Y149779D01*
X129859Y150062D01*
X130142Y150485D01*
X130242Y150984D01*
X130142Y151484D01*
X129859Y151907D01*
X129436Y152190D01*
X128937Y152289D01*
D02*
G37*
G36*
X172480Y150596D02*
X171981Y150497D01*
X171558Y150214D01*
X171275Y149791D01*
X171176Y149291D01*
X171275Y148792D01*
X171558Y148369D01*
X171981Y148086D01*
X172480Y147987D01*
X172979Y148086D01*
X173403Y148369D01*
X173686Y148792D01*
X173785Y149291D01*
X173686Y149791D01*
X173403Y150214D01*
X172979Y150497D01*
X172480Y150596D01*
D02*
G37*
G36*
X124764Y146501D02*
X124265Y146402D01*
X123841Y146119D01*
X123558Y145696D01*
X123459Y145197D01*
X123558Y144698D01*
X123841Y144274D01*
X124265Y143992D01*
X124764Y143892D01*
X125263Y143992D01*
X125686Y144274D01*
X125969Y144698D01*
X126068Y145197D01*
X125969Y145696D01*
X125686Y146119D01*
X125263Y146402D01*
X124764Y146501D01*
D02*
G37*
G36*
X66023Y148982D02*
X65524Y148882D01*
X65101Y148600D01*
X64818Y148177D01*
X64719Y147677D01*
X64818Y147178D01*
X65101Y146755D01*
X65524Y146472D01*
X65953Y146387D01*
X66050Y146164D01*
X66072Y145992D01*
X65967Y145923D01*
X65684Y145499D01*
X65585Y145000D01*
X65684Y144501D01*
X65967Y144078D01*
X66391Y143795D01*
X66890Y143695D01*
X67389Y143795D01*
X67812Y144078D01*
X68095Y144501D01*
X68194Y145000D01*
X68095Y145499D01*
X67812Y145923D01*
X67389Y146205D01*
X66960Y146291D01*
X66863Y146514D01*
X66842Y146685D01*
X66946Y146755D01*
X67229Y147178D01*
X67328Y147677D01*
X67229Y148177D01*
X66946Y148600D01*
X66523Y148882D01*
X66023Y148982D01*
D02*
G37*
G36*
X48327Y147387D02*
X47828Y147288D01*
X47404Y147005D01*
X47122Y146582D01*
X47022Y146083D01*
X47122Y145583D01*
X47404Y145160D01*
X47828Y144877D01*
X48327Y144778D01*
X48826Y144877D01*
X49249Y145160D01*
X49532Y145583D01*
X49631Y146083D01*
X49532Y146582D01*
X49249Y147005D01*
X48826Y147288D01*
X48327Y147387D01*
D02*
G37*
G36*
X176496Y147013D02*
X175997Y146914D01*
X175574Y146631D01*
X175291Y146208D01*
X175191Y145709D01*
X175291Y145209D01*
X175574Y144786D01*
X175997Y144503D01*
X176496Y144404D01*
X176995Y144503D01*
X177418Y144786D01*
X177701Y145209D01*
X177801Y145709D01*
X177701Y146208D01*
X177418Y146631D01*
X176995Y146914D01*
X176496Y147013D01*
D02*
G37*
G36*
X93067Y84671D02*
X92568Y84571D01*
X92144Y84289D01*
X91862Y83865D01*
X91762Y83366D01*
X91862Y82867D01*
X92144Y82444D01*
X92568Y82161D01*
X93067Y82061D01*
X93566Y82161D01*
X93989Y82444D01*
X94272Y82867D01*
X94371Y83366D01*
X94272Y83865D01*
X93989Y84289D01*
X93566Y84571D01*
X93067Y84671D01*
D02*
G37*
G36*
X10000Y63772D02*
X9024Y63644D01*
X8114Y63267D01*
X7333Y62668D01*
X6733Y61886D01*
X6356Y60976D01*
X6228Y60000D01*
X6356Y59024D01*
X6733Y58114D01*
X7333Y57332D01*
X8114Y56733D01*
X9024Y56356D01*
X10000Y56228D01*
X10976Y56356D01*
X11886Y56733D01*
X12667Y57332D01*
X13267Y58114D01*
X13644Y59024D01*
X13772Y60000D01*
X13644Y60976D01*
X13267Y61886D01*
X12667Y62668D01*
X11886Y63267D01*
X10976Y63644D01*
X10000Y63772D01*
D02*
G37*
G36*
X19449Y58234D02*
X18950Y58134D01*
X18526Y57852D01*
X18244Y57428D01*
X18144Y56929D01*
X18244Y56430D01*
X18526Y56007D01*
X18950Y55724D01*
X19449Y55625D01*
X19948Y55724D01*
X20371Y56007D01*
X20654Y56430D01*
X20753Y56929D01*
X20654Y57428D01*
X20371Y57852D01*
X19948Y58134D01*
X19449Y58234D01*
D02*
G37*
G36*
X151929Y58982D02*
X151430Y58882D01*
X151007Y58600D01*
X150724Y58176D01*
X150625Y57677D01*
X150724Y57178D01*
X151007Y56755D01*
X151430Y56472D01*
X151929Y56373D01*
X152428Y56472D01*
X152852Y56755D01*
X153134Y57178D01*
X153234Y57677D01*
X153134Y58176D01*
X152852Y58600D01*
X152428Y58882D01*
X151929Y58982D01*
D02*
G37*
G36*
X200000Y63772D02*
X199024Y63644D01*
X198114Y63267D01*
X197333Y62668D01*
X196733Y61886D01*
X196356Y60976D01*
X196228Y60000D01*
X196356Y59024D01*
X196733Y58114D01*
X197333Y57332D01*
X198114Y56733D01*
X199024Y56356D01*
X200000Y56228D01*
X200976Y56356D01*
X201886Y56733D01*
X202667Y57332D01*
X203267Y58114D01*
X203644Y59024D01*
X203772Y60000D01*
X203644Y60976D01*
X203267Y61886D01*
X202667Y62668D01*
X201886Y63267D01*
X200976Y63644D01*
X200000Y63772D01*
D02*
G37*
G36*
X151890Y52564D02*
X151391Y52465D01*
X150967Y52182D01*
X150684Y51759D01*
X150585Y51260D01*
X150684Y50761D01*
X150967Y50337D01*
X151391Y50055D01*
X151890Y49955D01*
X152389Y50055D01*
X152812Y50337D01*
X153095Y50761D01*
X153194Y51260D01*
X153095Y51759D01*
X152812Y52182D01*
X152389Y52465D01*
X151890Y52564D01*
D02*
G37*
G36*
X142992D02*
X142493Y52465D01*
X142070Y52182D01*
X141787Y51759D01*
X141688Y51260D01*
X141787Y50761D01*
X142070Y50337D01*
X142493Y50055D01*
X142992Y49955D01*
X143491Y50055D01*
X143915Y50337D01*
X144197Y50761D01*
X144297Y51260D01*
X144197Y51759D01*
X143915Y52182D01*
X143491Y52465D01*
X142992Y52564D01*
D02*
G37*
G36*
X39016Y53588D02*
X38517Y53489D01*
X38093Y53206D01*
X37811Y52783D01*
X37711Y52284D01*
X37811Y51784D01*
X38093Y51361D01*
X38517Y51078D01*
X39016Y50979D01*
X39515Y51078D01*
X39938Y51361D01*
X40221Y51784D01*
X40320Y52284D01*
X40221Y52783D01*
X39938Y53206D01*
X39515Y53489D01*
X39016Y53588D01*
D02*
G37*
G36*
X19449Y53234D02*
X18950Y53134D01*
X18526Y52852D01*
X18244Y52428D01*
X18144Y51929D01*
X18244Y51430D01*
X18526Y51007D01*
X18950Y50724D01*
X19449Y50625D01*
X19948Y50724D01*
X20371Y51007D01*
X20654Y51430D01*
X20753Y51929D01*
X20654Y52428D01*
X20371Y52852D01*
X19948Y53134D01*
X19449Y53234D01*
D02*
G37*
G36*
X143012Y59001D02*
X142513Y58902D01*
X142089Y58619D01*
X141806Y58196D01*
X141707Y57697D01*
X141806Y57198D01*
X142089Y56774D01*
X142513Y56492D01*
X143012Y56392D01*
X143511Y56492D01*
X143934Y56774D01*
X144217Y57198D01*
X144316Y57697D01*
X144217Y58196D01*
X143934Y58619D01*
X143511Y58902D01*
X143012Y59001D01*
D02*
G37*
G36*
X19449Y63234D02*
X18950Y63134D01*
X18526Y62852D01*
X18244Y62428D01*
X18144Y61929D01*
X18244Y61430D01*
X18526Y61007D01*
X18950Y60724D01*
X19449Y60624D01*
X19948Y60724D01*
X20371Y61007D01*
X20654Y61430D01*
X20753Y61929D01*
X20654Y62428D01*
X20371Y62852D01*
X19948Y63134D01*
X19449Y63234D01*
D02*
G37*
G36*
X184961Y61423D02*
X184461Y61323D01*
X184038Y61041D01*
X183755Y60617D01*
X183656Y60118D01*
X183755Y59619D01*
X184038Y59196D01*
X184461Y58913D01*
X184961Y58814D01*
X185460Y58913D01*
X185883Y59196D01*
X186166Y59619D01*
X186265Y60118D01*
X186166Y60617D01*
X185883Y61041D01*
X185460Y61323D01*
X184961Y61423D01*
D02*
G37*
G36*
X39331Y64021D02*
X38831Y63922D01*
X38408Y63639D01*
X38125Y63216D01*
X38026Y62717D01*
X38125Y62217D01*
X38408Y61794D01*
X38831Y61511D01*
X39331Y61412D01*
X39830Y61511D01*
X40253Y61794D01*
X40536Y62217D01*
X40635Y62717D01*
X40536Y63216D01*
X40253Y63639D01*
X39830Y63922D01*
X39331Y64021D01*
D02*
G37*
G36*
X110476Y64742D02*
X109977Y64642D01*
X109554Y64359D01*
X109271Y63936D01*
X109172Y63437D01*
X109271Y62938D01*
X109554Y62515D01*
X109766Y62373D01*
X109683Y61955D01*
X109635Y61945D01*
X109211Y61663D01*
X108929Y61239D01*
X108829Y60740D01*
X108929Y60241D01*
X109211Y59818D01*
X109635Y59535D01*
X110134Y59436D01*
X110633Y59535D01*
X111056Y59818D01*
X111339Y60241D01*
X111405Y60573D01*
X111670Y60783D01*
X111823Y60811D01*
X112228Y60731D01*
X112728Y60830D01*
X113151Y61113D01*
X113434Y61536D01*
X113533Y62035D01*
X113434Y62535D01*
X113151Y62958D01*
X112728Y63241D01*
X112228Y63340D01*
X112129Y63320D01*
X111740Y63644D01*
X111682Y63936D01*
X111399Y64359D01*
X110976Y64642D01*
X110476Y64742D01*
D02*
G37*
G36*
X74016Y59415D02*
X73516Y59316D01*
X73093Y59033D01*
X72811Y58609D01*
X72711Y58110D01*
X72811Y57611D01*
X73093Y57188D01*
X73516Y56905D01*
X74016Y56806D01*
X74515Y56905D01*
X74938Y57188D01*
X75221Y57611D01*
X75320Y58110D01*
X75221Y58609D01*
X74938Y59033D01*
X74515Y59316D01*
X74016Y59415D01*
D02*
G37*
G36*
X66378Y59415D02*
X65879Y59316D01*
X65456Y59033D01*
X65173Y58609D01*
X65073Y58110D01*
X65173Y57611D01*
X65456Y57188D01*
X65879Y56905D01*
X66378Y56806D01*
X66877Y56905D01*
X67300Y57188D01*
X67583Y57611D01*
X67682Y58110D01*
X67583Y58609D01*
X67300Y59033D01*
X66877Y59316D01*
X66378Y59415D01*
D02*
G37*
G36*
X86980Y59576D02*
X86481Y59477D01*
X86058Y59194D01*
X85775Y58771D01*
X85720Y58496D01*
X85499Y58253D01*
X85297Y58232D01*
X84953Y58301D01*
X84453Y58201D01*
X84030Y57919D01*
X83963Y57817D01*
X83489D01*
X83426Y57911D01*
X83003Y58193D01*
X82504Y58293D01*
X82005Y58193D01*
X81581Y57911D01*
X81299Y57487D01*
X81199Y56988D01*
X81299Y56489D01*
X81581Y56066D01*
X82005Y55783D01*
X82504Y55684D01*
X83003Y55783D01*
X83426Y56066D01*
X83494Y56167D01*
X83968D01*
X84030Y56074D01*
X84453Y55791D01*
X84953Y55691D01*
X85452Y55791D01*
X85875Y56074D01*
X86158Y56497D01*
X86213Y56772D01*
X86434Y57014D01*
X86636Y57035D01*
X86980Y56967D01*
X87480Y57066D01*
X87903Y57349D01*
X88186Y57772D01*
X88285Y58272D01*
X88186Y58771D01*
X87903Y59194D01*
X87480Y59477D01*
X86980Y59576D01*
D02*
G37*
G36*
X102728D02*
X102229Y59477D01*
X101806Y59194D01*
X101523Y58771D01*
X101468Y58493D01*
X101323Y58255D01*
X101040Y58207D01*
X100768Y58261D01*
X100480Y58204D01*
X100209Y58252D01*
X100052Y58490D01*
X99997Y58771D01*
X99714Y59194D01*
X99291Y59477D01*
X98791Y59576D01*
X98292Y59477D01*
X97869Y59194D01*
X97586Y58771D01*
X97531Y58493D01*
X97386Y58255D01*
X97103Y58207D01*
X96831Y58261D01*
X96543Y58204D01*
X96272Y58252D01*
X96115Y58490D01*
X96060Y58771D01*
X95777Y59194D01*
X95354Y59477D01*
X94854Y59576D01*
X94355Y59477D01*
X93932Y59194D01*
X93649Y58771D01*
X93550Y58272D01*
X93649Y57772D01*
X93932Y57349D01*
X94355Y57066D01*
X94854Y56967D01*
X95142Y57024D01*
X95413Y56977D01*
X95569Y56739D01*
X95625Y56457D01*
X95908Y56034D01*
X96332Y55751D01*
X96831Y55652D01*
X97330Y55751D01*
X97753Y56034D01*
X98036Y56457D01*
X98091Y56735D01*
X98236Y56974D01*
X98519Y57021D01*
X98791Y56967D01*
X99079Y57024D01*
X99350Y56977D01*
X99506Y56739D01*
X99562Y56457D01*
X99845Y56034D01*
X100268Y55751D01*
X100768Y55652D01*
X101267Y55751D01*
X101690Y56034D01*
X101973Y56457D01*
X102028Y56735D01*
X102173Y56974D01*
X102456Y57021D01*
X102728Y56967D01*
X103228Y57066D01*
X103651Y57349D01*
X103934Y57772D01*
X103991Y58061D01*
X104376Y57988D01*
X104409Y57825D01*
X104476Y57489D01*
X104759Y57066D01*
X105182Y56783D01*
X105681Y56684D01*
X106180Y56783D01*
X106604Y57066D01*
X106886Y57489D01*
X106986Y57988D01*
X106886Y58487D01*
X106604Y58911D01*
X106180Y59193D01*
X105681Y59293D01*
X105182Y59193D01*
X104759Y58911D01*
X104476Y58487D01*
X104418Y58198D01*
X104033Y58272D01*
X104000Y58435D01*
X103934Y58771D01*
X103651Y59194D01*
X103228Y59477D01*
X102728Y59576D01*
D02*
G37*
G36*
X70000Y23576D02*
X69024Y23447D01*
X68114Y23070D01*
X67333Y22471D01*
X66733Y21689D01*
X66356Y20779D01*
X66228Y19803D01*
X66356Y18827D01*
X66733Y17917D01*
X67333Y17136D01*
X68114Y16536D01*
X69024Y16159D01*
X70000Y16031D01*
X70976Y16159D01*
X71886Y16536D01*
X72667Y17136D01*
X73267Y17917D01*
X73644Y18827D01*
X73772Y19803D01*
X73644Y20779D01*
X73267Y21689D01*
X72667Y22471D01*
X71886Y23070D01*
X70976Y23447D01*
X70000Y23576D01*
D02*
G37*
G36*
X103740Y13543D02*
X96260D01*
Y6063D01*
X103740D01*
Y13543D01*
D02*
G37*
G36*
X90000Y23576D02*
X89024Y23447D01*
X88114Y23070D01*
X87332Y22471D01*
X86733Y21689D01*
X86356Y20779D01*
X86228Y19803D01*
X86356Y18827D01*
X86733Y17917D01*
X87332Y17136D01*
X88114Y16536D01*
X89024Y16159D01*
X90000Y16031D01*
X90976Y16159D01*
X91886Y16536D01*
X92668Y17136D01*
X93267Y17917D01*
X93644Y18827D01*
X93772Y19803D01*
X93644Y20779D01*
X93267Y21689D01*
X92668Y22471D01*
X91886Y23070D01*
X90976Y23447D01*
X90000Y23576D01*
D02*
G37*
G36*
X80000D02*
X79024Y23447D01*
X78114Y23070D01*
X77333Y22471D01*
X76733Y21689D01*
X76356Y20779D01*
X76228Y19803D01*
X76356Y18827D01*
X76733Y17917D01*
X77333Y17136D01*
X78114Y16536D01*
X79024Y16159D01*
X80000Y16031D01*
X80976Y16159D01*
X81886Y16536D01*
X82667Y17136D01*
X83267Y17917D01*
X83644Y18827D01*
X83772Y19803D01*
X83644Y20779D01*
X83267Y21689D01*
X82667Y22471D01*
X81886Y23070D01*
X80976Y23447D01*
X80000Y23576D01*
D02*
G37*
G36*
X140000Y17121D02*
X138611Y16984D01*
X137275Y16579D01*
X136044Y15921D01*
X134965Y15035D01*
X134079Y13956D01*
X133421Y12725D01*
X133016Y11389D01*
X132879Y10000D01*
X133016Y8611D01*
X133421Y7275D01*
X134079Y6044D01*
X134965Y4965D01*
X136044Y4079D01*
X137275Y3421D01*
X138611Y3016D01*
X140000Y2879D01*
X141389Y3016D01*
X142725Y3421D01*
X143956Y4079D01*
X145035Y4965D01*
X145921Y6044D01*
X146579Y7275D01*
X146984Y8611D01*
X147121Y10000D01*
X146984Y11389D01*
X146579Y12725D01*
X145921Y13956D01*
X145035Y15035D01*
X143956Y15921D01*
X142725Y16579D01*
X141389Y16984D01*
X140000Y17121D01*
D02*
G37*
G36*
X30000D02*
X28611Y16984D01*
X27275Y16579D01*
X26044Y15921D01*
X24965Y15035D01*
X24079Y13956D01*
X23421Y12725D01*
X23016Y11389D01*
X22879Y10000D01*
X23016Y8611D01*
X23421Y7275D01*
X24079Y6044D01*
X24965Y4965D01*
X26044Y4079D01*
X27275Y3421D01*
X28611Y3016D01*
X30000Y2879D01*
X31389Y3016D01*
X32725Y3421D01*
X33956Y4079D01*
X35035Y4965D01*
X35921Y6044D01*
X36579Y7275D01*
X36984Y8611D01*
X37121Y10000D01*
X36984Y11389D01*
X36579Y12725D01*
X35921Y13956D01*
X35035Y15035D01*
X33956Y15921D01*
X32725Y16579D01*
X31389Y16984D01*
X30000Y17121D01*
D02*
G37*
G36*
X80000Y13576D02*
X79024Y13447D01*
X78114Y13070D01*
X77333Y12471D01*
X76733Y11689D01*
X76356Y10780D01*
X76228Y9803D01*
X76356Y8827D01*
X76733Y7917D01*
X77333Y7136D01*
X78114Y6536D01*
X79024Y6159D01*
X80000Y6031D01*
X80976Y6159D01*
X81886Y6536D01*
X82667Y7136D01*
X83267Y7917D01*
X83644Y8827D01*
X83772Y9803D01*
X83644Y10780D01*
X83267Y11689D01*
X82667Y12471D01*
X81886Y13070D01*
X80976Y13447D01*
X80000Y13576D01*
D02*
G37*
G36*
X70000D02*
X69024Y13447D01*
X68114Y13070D01*
X67333Y12471D01*
X66733Y11689D01*
X66356Y10780D01*
X66228Y9803D01*
X66356Y8827D01*
X66733Y7917D01*
X67333Y7136D01*
X68114Y6536D01*
X69024Y6159D01*
X70000Y6031D01*
X70976Y6159D01*
X71886Y6536D01*
X72667Y7136D01*
X73267Y7917D01*
X73644Y8827D01*
X73772Y9803D01*
X73644Y10780D01*
X73267Y11689D01*
X72667Y12471D01*
X71886Y13070D01*
X70976Y13447D01*
X70000Y13576D01*
D02*
G37*
G36*
X100000Y23576D02*
X99024Y23447D01*
X98114Y23070D01*
X97333Y22471D01*
X96733Y21689D01*
X96356Y20779D01*
X96228Y19803D01*
X96356Y18827D01*
X96733Y17917D01*
X97333Y17136D01*
X98114Y16536D01*
X99024Y16159D01*
X100000Y16031D01*
X100976Y16159D01*
X101886Y16536D01*
X102667Y17136D01*
X103267Y17917D01*
X103644Y18827D01*
X103772Y19803D01*
X103644Y20779D01*
X103267Y21689D01*
X102667Y22471D01*
X101886Y23070D01*
X100976Y23447D01*
X100000Y23576D01*
D02*
G37*
G36*
X200000Y43772D02*
X199024Y43644D01*
X198114Y43267D01*
X197333Y42667D01*
X196733Y41886D01*
X196356Y40976D01*
X196228Y40000D01*
X196356Y39024D01*
X196733Y38114D01*
X197333Y37332D01*
X198114Y36733D01*
X199024Y36356D01*
X200000Y36228D01*
X200976Y36356D01*
X201886Y36733D01*
X202667Y37332D01*
X203267Y38114D01*
X203644Y39024D01*
X203772Y40000D01*
X203644Y40976D01*
X203267Y41886D01*
X202667Y42667D01*
X201886Y43267D01*
X200976Y43644D01*
X200000Y43772D01*
D02*
G37*
G36*
X10000D02*
X9024Y43644D01*
X8114Y43267D01*
X7333Y42667D01*
X6733Y41886D01*
X6356Y40976D01*
X6228Y40000D01*
X6356Y39024D01*
X6733Y38114D01*
X7333Y37332D01*
X8114Y36733D01*
X9024Y36356D01*
X10000Y36228D01*
X10976Y36356D01*
X11886Y36733D01*
X12667Y37332D01*
X13267Y38114D01*
X13644Y39024D01*
X13772Y40000D01*
X13644Y40976D01*
X13267Y41886D01*
X12667Y42667D01*
X11886Y43267D01*
X10976Y43644D01*
X10000Y43772D01*
D02*
G37*
G36*
X200000Y53772D02*
X199024Y53644D01*
X198114Y53267D01*
X197333Y52667D01*
X196733Y51886D01*
X196356Y50976D01*
X196228Y50000D01*
X196356Y49024D01*
X196733Y48114D01*
X197333Y47333D01*
X198114Y46733D01*
X199024Y46356D01*
X200000Y46228D01*
X200976Y46356D01*
X201886Y46733D01*
X202667Y47333D01*
X203267Y48114D01*
X203644Y49024D01*
X203772Y50000D01*
X203644Y50976D01*
X203267Y51886D01*
X202667Y52667D01*
X201886Y53267D01*
X200976Y53644D01*
X200000Y53772D01*
D02*
G37*
G36*
X10000D02*
X9024Y53644D01*
X8114Y53267D01*
X7333Y52667D01*
X6733Y51886D01*
X6356Y50976D01*
X6228Y50000D01*
X6356Y49024D01*
X6733Y48114D01*
X7333Y47333D01*
X8114Y46733D01*
X9024Y46356D01*
X10000Y46228D01*
X10976Y46356D01*
X11886Y46733D01*
X12667Y47333D01*
X13267Y48114D01*
X13644Y49024D01*
X13772Y50000D01*
X13644Y50976D01*
X13267Y51886D01*
X12667Y52667D01*
X11886Y53267D01*
X10976Y53644D01*
X10000Y53772D01*
D02*
G37*
G36*
X203740Y23740D02*
X196260D01*
Y16260D01*
X203740D01*
Y23740D01*
D02*
G37*
G36*
X10000Y23772D02*
X9024Y23644D01*
X8114Y23267D01*
X7333Y22668D01*
X6733Y21886D01*
X6356Y20976D01*
X6228Y20000D01*
X6356Y19024D01*
X6733Y18114D01*
X7333Y17333D01*
X8114Y16733D01*
X9024Y16356D01*
X10000Y16228D01*
X10976Y16356D01*
X11886Y16733D01*
X12667Y17333D01*
X13267Y18114D01*
X13644Y19024D01*
X13772Y20000D01*
X13644Y20976D01*
X13267Y21886D01*
X12667Y22668D01*
X11886Y23267D01*
X10976Y23644D01*
X10000Y23772D01*
D02*
G37*
G36*
X200000Y33772D02*
X199024Y33644D01*
X198114Y33267D01*
X197333Y32667D01*
X196733Y31886D01*
X196356Y30976D01*
X196228Y30000D01*
X196356Y29024D01*
X196733Y28114D01*
X197333Y27332D01*
X198114Y26733D01*
X199024Y26356D01*
X200000Y26228D01*
X200976Y26356D01*
X201886Y26733D01*
X202667Y27332D01*
X203267Y28114D01*
X203644Y29024D01*
X203772Y30000D01*
X203644Y30976D01*
X203267Y31886D01*
X202667Y32667D01*
X201886Y33267D01*
X200976Y33644D01*
X200000Y33772D01*
D02*
G37*
G36*
X10000D02*
X9024Y33644D01*
X8114Y33267D01*
X7333Y32667D01*
X6733Y31886D01*
X6356Y30976D01*
X6228Y30000D01*
X6356Y29024D01*
X6733Y28114D01*
X7333Y27332D01*
X8114Y26733D01*
X9024Y26356D01*
X10000Y26228D01*
X10976Y26356D01*
X11886Y26733D01*
X12667Y27332D01*
X13267Y28114D01*
X13644Y29024D01*
X13772Y30000D01*
X13644Y30976D01*
X13267Y31886D01*
X12667Y32667D01*
X11886Y33267D01*
X10976Y33644D01*
X10000Y33772D01*
D02*
G37*
G36*
X79295Y76809D02*
X78796Y76709D01*
X78373Y76426D01*
X78090Y76003D01*
X77991Y75504D01*
X78090Y75005D01*
X77770Y74775D01*
X77639Y74749D01*
X77215Y74466D01*
X76933Y74042D01*
X76833Y73543D01*
X76933Y73044D01*
X77215Y72621D01*
X77639Y72338D01*
X78034Y72259D01*
X78169Y72179D01*
X78328Y71875D01*
X78266Y71563D01*
X78324Y71276D01*
X78276Y71005D01*
X78038Y70848D01*
X77757Y70792D01*
X77333Y70509D01*
X77051Y70086D01*
X76951Y69587D01*
X77051Y69087D01*
X77333Y68664D01*
X77757Y68381D01*
X78035Y68326D01*
X78273Y68182D01*
X78320Y67898D01*
X78266Y67626D01*
X78324Y67339D01*
X78276Y67068D01*
X78038Y66911D01*
X77757Y66855D01*
X77333Y66572D01*
X77051Y66149D01*
X76951Y65650D01*
X77051Y65150D01*
X77333Y64727D01*
X77757Y64444D01*
X78035Y64389D01*
X78273Y64245D01*
X78320Y63961D01*
X78266Y63689D01*
X78366Y63190D01*
X78648Y62766D01*
X79072Y62484D01*
X79571Y62384D01*
X80070Y62484D01*
X80493Y62766D01*
X80776Y63190D01*
X80875Y63689D01*
X80776Y64188D01*
X80493Y64611D01*
X80070Y64894D01*
X79792Y64950D01*
X79554Y65094D01*
X79506Y65377D01*
X79561Y65650D01*
X79503Y65937D01*
X79551Y66208D01*
X79789Y66365D01*
X80070Y66421D01*
X80493Y66703D01*
X80776Y67127D01*
X80875Y67626D01*
X80776Y68125D01*
X80493Y68549D01*
X80070Y68831D01*
X79792Y68887D01*
X79554Y69031D01*
X79506Y69314D01*
X79561Y69587D01*
X79503Y69874D01*
X79551Y70145D01*
X79789Y70302D01*
X80070Y70358D01*
X80493Y70640D01*
X80776Y71064D01*
X80875Y71563D01*
X80776Y72062D01*
X80493Y72486D01*
X80070Y72768D01*
X79675Y72847D01*
X79540Y72927D01*
X79380Y73231D01*
X79442Y73543D01*
X79343Y74042D01*
X79663Y74273D01*
X79795Y74299D01*
X80218Y74581D01*
X80501Y75005D01*
X80600Y75504D01*
X80501Y76003D01*
X80218Y76426D01*
X79795Y76709D01*
X79295Y76809D01*
D02*
G37*
G36*
X111520Y81655D02*
X111020Y81556D01*
X110597Y81273D01*
X110314Y80850D01*
X110215Y80350D01*
X110256Y80145D01*
X110113Y79790D01*
X109965Y79745D01*
X109607Y79674D01*
X109183Y79391D01*
X108901Y78968D01*
X108801Y78469D01*
X108901Y77969D01*
X109183Y77546D01*
X109607Y77263D01*
X110106Y77164D01*
X110605Y77263D01*
X111028Y77546D01*
X111311Y77969D01*
X111410Y78469D01*
X111370Y78674D01*
X111513Y79029D01*
X111661Y79074D01*
X112019Y79145D01*
X112442Y79428D01*
X112725Y79851D01*
X112824Y80350D01*
X112725Y80850D01*
X112442Y81273D01*
X112019Y81556D01*
X111520Y81655D01*
D02*
G37*
G36*
X200000Y83772D02*
X199024Y83644D01*
X198114Y83267D01*
X197333Y82667D01*
X196733Y81886D01*
X196356Y80976D01*
X196228Y80000D01*
X196356Y79024D01*
X196733Y78114D01*
X197333Y77333D01*
X198114Y76733D01*
X199024Y76356D01*
X200000Y76228D01*
X200976Y76356D01*
X201886Y76733D01*
X202667Y77333D01*
X203267Y78114D01*
X203644Y79024D01*
X203772Y80000D01*
X203644Y80976D01*
X203267Y81886D01*
X202667Y82667D01*
X201886Y83267D01*
X200976Y83644D01*
X200000Y83772D01*
D02*
G37*
G36*
X74016Y80360D02*
X73516Y80260D01*
X73093Y79978D01*
X72811Y79554D01*
X72711Y79055D01*
X72811Y78556D01*
X73093Y78133D01*
X73516Y77850D01*
X74016Y77750D01*
X74515Y77850D01*
X74938Y78133D01*
X75221Y78556D01*
X75320Y79055D01*
X75221Y79554D01*
X74938Y79978D01*
X74515Y80260D01*
X74016Y80360D01*
D02*
G37*
G36*
X169350Y80025D02*
X168851Y79926D01*
X168428Y79643D01*
X168145Y79220D01*
X168046Y78720D01*
X168145Y78221D01*
X168428Y77798D01*
X168851Y77515D01*
X169350Y77416D01*
X169850Y77515D01*
X170273Y77798D01*
X170556Y78221D01*
X170655Y78720D01*
X170556Y79220D01*
X170273Y79643D01*
X169850Y79926D01*
X169350Y80025D01*
D02*
G37*
G36*
X87559Y76828D02*
X87060Y76729D01*
X86637Y76446D01*
X86354Y76023D01*
X86255Y75524D01*
X86354Y75024D01*
X86637Y74601D01*
X87060Y74318D01*
X87559Y74219D01*
X88058Y74318D01*
X88481Y74601D01*
X88764Y75024D01*
X88864Y75524D01*
X88764Y76023D01*
X88481Y76446D01*
X88058Y76729D01*
X87559Y76828D01*
D02*
G37*
G36*
X39803Y76816D02*
X39304Y76717D01*
X38881Y76434D01*
X38598Y76011D01*
X38499Y75512D01*
X38598Y75013D01*
X38881Y74589D01*
X39304Y74306D01*
X39803Y74207D01*
X40302Y74306D01*
X40726Y74589D01*
X41008Y75013D01*
X41108Y75512D01*
X41008Y76011D01*
X40726Y76434D01*
X40302Y76717D01*
X39803Y76816D01*
D02*
G37*
G36*
X112689Y77395D02*
X112190Y77296D01*
X111767Y77013D01*
X111484Y76590D01*
X111384Y76091D01*
X111484Y75591D01*
X111767Y75168D01*
X112190Y74885D01*
X112689Y74786D01*
X113188Y74885D01*
X113611Y75168D01*
X113894Y75591D01*
X113994Y76091D01*
X113894Y76590D01*
X113611Y77013D01*
X113188Y77296D01*
X112689Y77395D01*
D02*
G37*
G36*
X166752Y77230D02*
X166253Y77131D01*
X165830Y76848D01*
X165547Y76424D01*
X165447Y75925D01*
X165547Y75426D01*
X165830Y75003D01*
X166253Y74720D01*
X166752Y74621D01*
X167251Y74720D01*
X167674Y75003D01*
X167957Y75426D01*
X168056Y75925D01*
X167957Y76424D01*
X167674Y76848D01*
X167251Y77131D01*
X166752Y77230D01*
D02*
G37*
G36*
X143425Y80753D02*
X142926Y80654D01*
X142503Y80371D01*
X142220Y79948D01*
X142121Y79449D01*
X142220Y78950D01*
X142503Y78526D01*
X142926Y78243D01*
X143425Y78144D01*
X143924Y78243D01*
X144348Y78526D01*
X144631Y78950D01*
X144730Y79449D01*
X144631Y79948D01*
X144348Y80371D01*
X143924Y80654D01*
X143425Y80753D01*
D02*
G37*
G36*
X90902Y82395D02*
X90402Y82296D01*
X89979Y82013D01*
X89696Y81590D01*
X89597Y81090D01*
X89696Y80591D01*
X89979Y80168D01*
X90402Y79885D01*
X90902Y79786D01*
X91401Y79885D01*
X91824Y80168D01*
X92107Y80591D01*
X92206Y81090D01*
X92107Y81590D01*
X91824Y82013D01*
X91401Y82296D01*
X90902Y82395D01*
D02*
G37*
G36*
X98772Y82344D02*
X98272Y82245D01*
X97849Y81962D01*
X97566Y81539D01*
X97467Y81039D01*
X97566Y80540D01*
X97849Y80117D01*
X98272Y79834D01*
X98772Y79735D01*
X99271Y79834D01*
X99694Y80117D01*
X99977Y80540D01*
X100076Y81039D01*
X99977Y81539D01*
X99694Y81962D01*
X99271Y82245D01*
X98772Y82344D01*
D02*
G37*
G36*
X102693Y84647D02*
X102194Y84548D01*
X101770Y84265D01*
X101488Y83842D01*
X101388Y83343D01*
X101488Y82843D01*
X101770Y82420D01*
X102194Y82137D01*
X102693Y82038D01*
X103192Y82137D01*
X103615Y82420D01*
X103898Y82843D01*
X103998Y83343D01*
X103898Y83842D01*
X103615Y84265D01*
X103192Y84548D01*
X102693Y84647D01*
D02*
G37*
G36*
X19449Y83234D02*
X18950Y83134D01*
X18526Y82852D01*
X18244Y82428D01*
X18144Y81929D01*
X18244Y81430D01*
X18526Y81007D01*
X18950Y80724D01*
X19449Y80625D01*
X19948Y80724D01*
X20371Y81007D01*
X20654Y81430D01*
X20753Y81929D01*
X20654Y82428D01*
X20371Y82852D01*
X19948Y83134D01*
X19449Y83234D01*
D02*
G37*
G36*
X40000Y81856D02*
X39501Y81757D01*
X39077Y81474D01*
X38795Y81050D01*
X38695Y80551D01*
X38795Y80052D01*
X39077Y79629D01*
X39501Y79346D01*
X40000Y79247D01*
X40499Y79346D01*
X40922Y79629D01*
X41205Y80052D01*
X41305Y80551D01*
X41205Y81050D01*
X40922Y81474D01*
X40499Y81757D01*
X40000Y81856D01*
D02*
G37*
G36*
X152323Y80753D02*
X151824Y80654D01*
X151400Y80371D01*
X151118Y79948D01*
X151018Y79449D01*
X151118Y78950D01*
X151400Y78526D01*
X151824Y78243D01*
X152323Y78144D01*
X152822Y78243D01*
X153245Y78526D01*
X153528Y78950D01*
X153627Y79449D01*
X153528Y79948D01*
X153245Y80371D01*
X152822Y80654D01*
X152323Y80753D01*
D02*
G37*
G36*
X82024Y82340D02*
X81524Y82241D01*
X81101Y81958D01*
X80818Y81535D01*
X80719Y81035D01*
X80818Y80536D01*
X81101Y80113D01*
X81524Y79830D01*
X82024Y79731D01*
X82523Y79830D01*
X82946Y80113D01*
X83229Y80536D01*
X83328Y81035D01*
X83229Y81535D01*
X82946Y81958D01*
X82523Y82241D01*
X82024Y82340D01*
D02*
G37*
G36*
X95319Y82222D02*
X94820Y82123D01*
X94396Y81840D01*
X94113Y81417D01*
X94014Y80918D01*
X94113Y80418D01*
X94396Y79995D01*
X94820Y79712D01*
X95319Y79613D01*
X95818Y79712D01*
X96241Y79995D01*
X96524Y80418D01*
X96623Y80918D01*
X96524Y81417D01*
X96241Y81840D01*
X95818Y82123D01*
X95319Y82222D01*
D02*
G37*
G36*
X94835Y67033D02*
X94335Y66934D01*
X93912Y66651D01*
X93799Y66481D01*
X93591Y66245D01*
X93294Y66381D01*
X93133Y66489D01*
X92634Y66588D01*
X92135Y66489D01*
X91711Y66206D01*
X91429Y65783D01*
X91329Y65284D01*
X91357Y65144D01*
X91020Y64820D01*
X90760Y64872D01*
X90261Y64772D01*
X89837Y64489D01*
X89555Y64066D01*
X89455Y63567D01*
X89555Y63068D01*
X89837Y62644D01*
X90261Y62362D01*
X90760Y62262D01*
X91259Y62362D01*
X91682Y62644D01*
X91965Y63068D01*
X92064Y63567D01*
X92037Y63706D01*
X92374Y64031D01*
X92634Y63979D01*
X93133Y64078D01*
X93556Y64361D01*
X93670Y64530D01*
X93878Y64767D01*
X94174Y64631D01*
X94335Y64523D01*
X94835Y64424D01*
X95334Y64523D01*
X95757Y64806D01*
X96040Y65229D01*
X96139Y65728D01*
X96040Y66228D01*
X95757Y66651D01*
X95334Y66934D01*
X94835Y67033D01*
D02*
G37*
G36*
X200000Y73772D02*
X199024Y73644D01*
X198114Y73267D01*
X197333Y72667D01*
X196733Y71886D01*
X196356Y70976D01*
X196228Y70000D01*
X196356Y69024D01*
X196733Y68114D01*
X197333Y67333D01*
X198114Y66733D01*
X199024Y66356D01*
X200000Y66228D01*
X200976Y66356D01*
X201886Y66733D01*
X202667Y67333D01*
X203267Y68114D01*
X203644Y69024D01*
X203772Y70000D01*
X203644Y70976D01*
X203267Y71886D01*
X202667Y72667D01*
X201886Y73267D01*
X200976Y73644D01*
X200000Y73772D01*
D02*
G37*
G36*
X86441Y69887D02*
X85942Y69788D01*
X85518Y69505D01*
X85236Y69082D01*
X85136Y68583D01*
X85236Y68083D01*
X85518Y67660D01*
X85942Y67377D01*
X86441Y67278D01*
X86940Y67377D01*
X87363Y67660D01*
X87646Y68083D01*
X87745Y68583D01*
X87646Y69082D01*
X87363Y69505D01*
X86940Y69788D01*
X86441Y69887D01*
D02*
G37*
G36*
X13740Y73740D02*
X6260D01*
Y66260D01*
X13740D01*
Y73740D01*
D02*
G37*
G36*
X74016Y66423D02*
X73516Y66323D01*
X73093Y66041D01*
X72811Y65617D01*
X72711Y65118D01*
X72811Y64619D01*
X73093Y64196D01*
X73516Y63913D01*
X74016Y63814D01*
X74515Y63913D01*
X74938Y64196D01*
X75221Y64619D01*
X75320Y65118D01*
X75221Y65617D01*
X74938Y66041D01*
X74515Y66323D01*
X74016Y66423D01*
D02*
G37*
G36*
X102701Y65616D02*
X102201Y65516D01*
X101778Y65233D01*
X101496Y64810D01*
X101396Y64311D01*
X101496Y63812D01*
X101778Y63389D01*
X102201Y63106D01*
X102701Y63006D01*
X103200Y63106D01*
X103623Y63389D01*
X103906Y63812D01*
X104005Y64311D01*
X103906Y64810D01*
X103623Y65233D01*
X103200Y65516D01*
X102701Y65616D01*
D02*
G37*
G36*
X172972Y70399D02*
X172473Y70300D01*
X172050Y70017D01*
X171767Y69594D01*
X171668Y69095D01*
X171767Y68595D01*
X172050Y68172D01*
X172473Y67889D01*
X172972Y67790D01*
X173327Y67860D01*
X173563Y67512D01*
X173362Y67212D01*
X173262Y66713D01*
X173362Y66213D01*
X173454Y66075D01*
X173218Y65720D01*
X173150Y65734D01*
X172650Y65634D01*
X172227Y65352D01*
X171944Y64928D01*
X171845Y64429D01*
X171944Y63930D01*
X172227Y63507D01*
X172650Y63224D01*
X173150Y63125D01*
X173210Y63137D01*
X173447Y62782D01*
X173342Y62625D01*
X173243Y62126D01*
X173342Y61627D01*
X173625Y61203D01*
X174048Y60921D01*
X174547Y60821D01*
X175047Y60921D01*
X175470Y61203D01*
X175752Y61627D01*
X175852Y62126D01*
X175752Y62625D01*
X175470Y63048D01*
X175047Y63331D01*
X174547Y63431D01*
X174487Y63419D01*
X174250Y63773D01*
X174355Y63930D01*
X174454Y64429D01*
X174355Y64928D01*
X174262Y65067D01*
X174499Y65422D01*
X174567Y65408D01*
X175066Y65507D01*
X175489Y65790D01*
X175772Y66213D01*
X175872Y66713D01*
X175772Y67212D01*
X175489Y67635D01*
X175066Y67918D01*
X174567Y68017D01*
X174212Y67947D01*
X173977Y68295D01*
X174178Y68595D01*
X174277Y69095D01*
X174178Y69594D01*
X173895Y70017D01*
X173472Y70300D01*
X172972Y70399D01*
D02*
G37*
G36*
X19410Y68234D02*
X18910Y68134D01*
X18487Y67852D01*
X18204Y67428D01*
X18105Y66929D01*
X18204Y66430D01*
X18487Y66007D01*
X18910Y65724D01*
X19410Y65624D01*
X19909Y65724D01*
X20332Y66007D01*
X20615Y66430D01*
X20714Y66929D01*
X20615Y67428D01*
X20332Y67852D01*
X19909Y68134D01*
X19410Y68234D01*
D02*
G37*
G36*
X84622Y74793D02*
X84123Y74694D01*
X83700Y74411D01*
X83417Y73987D01*
X83317Y73488D01*
X83417Y72989D01*
X83700Y72566D01*
X84123Y72283D01*
X84622Y72184D01*
X85121Y72283D01*
X85161Y72309D01*
X85515Y72073D01*
X85487Y71929D01*
X85586Y71430D01*
X85869Y71007D01*
X86292Y70724D01*
X86791Y70625D01*
X87291Y70724D01*
X87718Y70536D01*
X87763Y70308D01*
X88046Y69885D01*
X88262Y69740D01*
X88464Y69584D01*
X88362Y69236D01*
X88267Y69094D01*
X88168Y68594D01*
X88267Y68095D01*
X88550Y67672D01*
X88973Y67389D01*
X89472Y67290D01*
X89972Y67389D01*
X90395Y67672D01*
X90678Y68095D01*
X90777Y68594D01*
X90678Y69094D01*
X90395Y69517D01*
X90179Y69661D01*
X89977Y69818D01*
X90079Y70166D01*
X90174Y70308D01*
X90273Y70807D01*
X90174Y71306D01*
X89891Y71730D01*
X89468Y72012D01*
X88968Y72112D01*
X88469Y72012D01*
X88042Y72200D01*
X87997Y72428D01*
X87714Y72852D01*
X87291Y73134D01*
X86791Y73234D01*
X86292Y73134D01*
X86252Y73108D01*
X85898Y73345D01*
X85927Y73488D01*
X85827Y73987D01*
X85545Y74411D01*
X85121Y74694D01*
X84622Y74793D01*
D02*
G37*
G36*
X104791Y74722D02*
X104292Y74623D01*
X103869Y74340D01*
X103586Y73917D01*
X103487Y73417D01*
X103586Y72918D01*
X103869Y72495D01*
X104292Y72212D01*
X104791Y72113D01*
X105291Y72212D01*
X105714Y72495D01*
X105997Y72918D01*
X106096Y73417D01*
X105997Y73917D01*
X105714Y74340D01*
X105291Y74623D01*
X104791Y74722D01*
D02*
G37*
G36*
X147795Y71856D02*
X147296Y71757D01*
X146873Y71474D01*
X146798Y71362D01*
X146404D01*
X146355Y71434D01*
X145932Y71717D01*
X145433Y71816D01*
X144934Y71717D01*
X144511Y71434D01*
X144488Y71401D01*
X144095D01*
X144072Y71434D01*
X143649Y71717D01*
X143150Y71816D01*
X142650Y71717D01*
X142227Y71434D01*
X142201Y71395D01*
X142162D01*
X141758Y71441D01*
X141405Y71678D01*
X140905Y71777D01*
X140406Y71678D01*
X139983Y71395D01*
X139700Y70972D01*
X139601Y70472D01*
X139700Y69973D01*
X139983Y69550D01*
X140406Y69267D01*
X140905Y69168D01*
X141405Y69267D01*
X141828Y69550D01*
X141854Y69589D01*
X141893D01*
X142297Y69543D01*
X142650Y69306D01*
X143150Y69207D01*
X143649Y69306D01*
X144072Y69589D01*
X144095Y69623D01*
X144488D01*
X144511Y69589D01*
X144934Y69306D01*
X145433Y69207D01*
X145932Y69306D01*
X146355Y69589D01*
X146431Y69701D01*
X146824D01*
X146873Y69629D01*
X147296Y69346D01*
X147795Y69247D01*
X148294Y69346D01*
X148718Y69629D01*
X149001Y70052D01*
X149100Y70551D01*
X149001Y71050D01*
X148718Y71474D01*
X148294Y71757D01*
X147795Y71856D01*
D02*
G37*
G36*
X94842Y77222D02*
X94343Y77122D01*
X93920Y76840D01*
X93637Y76416D01*
X93538Y75917D01*
X93637Y75418D01*
X93907Y75013D01*
X93920Y74994D01*
X93873Y74553D01*
X93684Y74426D01*
X93401Y74003D01*
X93302Y73504D01*
X93401Y73005D01*
X93684Y72581D01*
X94107Y72299D01*
X94606Y72199D01*
X95105Y72299D01*
X95529Y72581D01*
X95589Y72671D01*
X95889Y72908D01*
X96093Y72772D01*
X96312Y72625D01*
X96811Y72526D01*
X97310Y72625D01*
X97733Y72908D01*
X98016Y73331D01*
X98077Y73635D01*
X98201Y73851D01*
X98499Y73922D01*
X98768Y73869D01*
X99267Y73968D01*
X99690Y74251D01*
X99973Y74674D01*
X100072Y75173D01*
X99973Y75673D01*
X99690Y76096D01*
X99267Y76379D01*
X98768Y76478D01*
X98269Y76379D01*
X97845Y76096D01*
X97562Y75673D01*
X97502Y75369D01*
X97378Y75153D01*
X97080Y75082D01*
X96811Y75135D01*
X96312Y75036D01*
X96229Y74981D01*
X95945Y75265D01*
X96048Y75418D01*
X96147Y75917D01*
X96048Y76416D01*
X95765Y76840D01*
X95342Y77122D01*
X94842Y77222D01*
D02*
G37*
G36*
X90492Y75494D02*
X89993Y75394D01*
X89570Y75112D01*
X89287Y74688D01*
X89188Y74189D01*
X89287Y73690D01*
X89570Y73267D01*
X89993Y72984D01*
X90492Y72884D01*
X90991Y72984D01*
X91415Y73267D01*
X91697Y73690D01*
X91797Y74189D01*
X91697Y74688D01*
X91415Y75112D01*
X90991Y75394D01*
X90492Y75494D01*
D02*
G37*
G36*
X110114Y74360D02*
X109615Y74260D01*
X109192Y73978D01*
X108909Y73554D01*
X108810Y73055D01*
X108909Y72556D01*
X109192Y72133D01*
X109615Y71850D01*
X110114Y71750D01*
X110613Y71850D01*
X111037Y72133D01*
X111098Y72224D01*
X111429Y72023D01*
X111329Y71524D01*
X111429Y71024D01*
X111711Y70601D01*
X112135Y70318D01*
X112634Y70219D01*
X113133Y70318D01*
X113556Y70601D01*
X113839Y71024D01*
X113938Y71524D01*
X113839Y72023D01*
X113556Y72446D01*
X113133Y72729D01*
X112634Y72828D01*
X112135Y72729D01*
X111711Y72446D01*
X111650Y72355D01*
X111319Y72556D01*
X111419Y73055D01*
X111319Y73554D01*
X111037Y73978D01*
X110613Y74260D01*
X110114Y74360D01*
D02*
G37*
G36*
X38819Y71305D02*
X38320Y71205D01*
X37896Y70922D01*
X37614Y70499D01*
X37514Y70000D01*
X37614Y69501D01*
X37896Y69077D01*
X38320Y68795D01*
X38819Y68695D01*
X39318Y68795D01*
X39741Y69077D01*
X40024Y69501D01*
X40124Y70000D01*
X40024Y70499D01*
X39741Y70922D01*
X39318Y71205D01*
X38819Y71305D01*
D02*
G37*
G36*
X74016Y73352D02*
X73516Y73252D01*
X73093Y72970D01*
X72811Y72546D01*
X72711Y72047D01*
X72811Y71548D01*
X73093Y71125D01*
X73516Y70842D01*
X74016Y70743D01*
X74515Y70842D01*
X74938Y71125D01*
X75221Y71548D01*
X75320Y72047D01*
X75221Y72546D01*
X74938Y72970D01*
X74515Y73252D01*
X74016Y73352D01*
D02*
G37*
G36*
X19449Y73234D02*
X18950Y73134D01*
X18526Y72852D01*
X18244Y72428D01*
X18144Y71929D01*
X18244Y71430D01*
X18526Y71007D01*
X18950Y70724D01*
X19449Y70625D01*
X19948Y70724D01*
X20371Y71007D01*
X20654Y71430D01*
X20753Y71929D01*
X20654Y72428D01*
X20371Y72852D01*
X19948Y73134D01*
X19449Y73234D01*
D02*
G37*
G36*
X107874Y232407D02*
X107375Y232308D01*
X106951Y232025D01*
X106669Y231602D01*
X106569Y231102D01*
X106669Y230603D01*
X106951Y230180D01*
X107375Y229897D01*
X107874Y229798D01*
X108373Y229897D01*
X108797Y230180D01*
X109079Y230603D01*
X109179Y231102D01*
X109079Y231602D01*
X108797Y232025D01*
X108373Y232308D01*
X107874Y232407D01*
D02*
G37*
G36*
X94803Y230753D02*
X94304Y230654D01*
X93881Y230371D01*
X93598Y229948D01*
X93499Y229449D01*
X93598Y228950D01*
X93881Y228526D01*
X94304Y228243D01*
X94803Y228144D01*
X95302Y228243D01*
X95726Y228526D01*
X96008Y228950D01*
X96108Y229449D01*
X96008Y229948D01*
X95726Y230371D01*
X95302Y230654D01*
X94803Y230753D01*
D02*
G37*
G36*
X89567Y232643D02*
X89068Y232544D01*
X88644Y232261D01*
X88362Y231838D01*
X88262Y231339D01*
X88362Y230839D01*
X88644Y230416D01*
X89068Y230133D01*
X89567Y230034D01*
X90066Y230133D01*
X90489Y230416D01*
X90772Y230839D01*
X90872Y231339D01*
X90772Y231838D01*
X90489Y232261D01*
X90066Y232544D01*
X89567Y232643D01*
D02*
G37*
G36*
X184488Y232486D02*
X183989Y232386D01*
X183566Y232104D01*
X183283Y231680D01*
X183184Y231181D01*
X183283Y230682D01*
X183566Y230259D01*
X183989Y229976D01*
X184488Y229876D01*
X184987Y229976D01*
X185411Y230259D01*
X185694Y230682D01*
X185793Y231181D01*
X185694Y231680D01*
X185411Y232104D01*
X184987Y232386D01*
X184488Y232486D01*
D02*
G37*
G36*
X191220Y230399D02*
X190721Y230300D01*
X190298Y230017D01*
X190015Y229594D01*
X189916Y229095D01*
X190015Y228595D01*
X190298Y228172D01*
X190721Y227889D01*
X191220Y227790D01*
X191720Y227889D01*
X192143Y228172D01*
X192426Y228595D01*
X192525Y229095D01*
X192426Y229594D01*
X192143Y230017D01*
X191720Y230300D01*
X191220Y230399D01*
D02*
G37*
G36*
X147913Y227328D02*
X147414Y227229D01*
X146991Y226946D01*
X146708Y226523D01*
X146609Y226024D01*
X146708Y225524D01*
X146991Y225101D01*
X147414Y224818D01*
X147913Y224719D01*
X148413Y224818D01*
X148836Y225101D01*
X149119Y225524D01*
X149218Y226024D01*
X149119Y226523D01*
X148836Y226946D01*
X148413Y227229D01*
X147913Y227328D01*
D02*
G37*
G36*
X166654Y226226D02*
X166154Y226127D01*
X165731Y225844D01*
X165448Y225420D01*
X165349Y224921D01*
X165448Y224422D01*
X165731Y223999D01*
X166154Y223716D01*
X166654Y223617D01*
X167153Y223716D01*
X167576Y223999D01*
X167859Y224422D01*
X167958Y224921D01*
X167859Y225420D01*
X167576Y225844D01*
X167153Y226127D01*
X166654Y226226D01*
D02*
G37*
G36*
X150039Y230045D02*
X149540Y229945D01*
X149117Y229663D01*
X148834Y229239D01*
X148735Y228740D01*
X148834Y228241D01*
X149117Y227818D01*
X149540Y227535D01*
X150039Y227436D01*
X150539Y227535D01*
X150962Y227818D01*
X151245Y228241D01*
X151344Y228740D01*
X151245Y229239D01*
X150962Y229663D01*
X150539Y229945D01*
X150039Y230045D01*
D02*
G37*
G36*
X152126Y227328D02*
X151627Y227229D01*
X151204Y226946D01*
X150921Y226523D01*
X150821Y226024D01*
X150921Y225524D01*
X151204Y225101D01*
X151627Y224818D01*
X152126Y224719D01*
X152625Y224818D01*
X153049Y225101D01*
X153331Y225524D01*
X153431Y226024D01*
X153331Y226523D01*
X153049Y226946D01*
X152625Y227229D01*
X152126Y227328D01*
D02*
G37*
G36*
Y232722D02*
X151627Y232623D01*
X151204Y232340D01*
X150921Y231917D01*
X150821Y231417D01*
X150921Y230918D01*
X151204Y230495D01*
X151627Y230212D01*
X152126Y230113D01*
X152625Y230212D01*
X153049Y230495D01*
X153331Y230918D01*
X153431Y231417D01*
X153331Y231917D01*
X153049Y232340D01*
X152625Y232623D01*
X152126Y232722D01*
D02*
G37*
G36*
X158504Y235950D02*
X158005Y235851D01*
X157581Y235568D01*
X157299Y235145D01*
X157199Y234646D01*
X157299Y234146D01*
X157581Y233723D01*
X158005Y233440D01*
X158504Y233341D01*
X159003Y233440D01*
X159426Y233723D01*
X159709Y234146D01*
X159809Y234646D01*
X159709Y235145D01*
X159426Y235568D01*
X159003Y235851D01*
X158504Y235950D01*
D02*
G37*
G36*
X65709Y235557D02*
X65209Y235457D01*
X64786Y235174D01*
X64503Y234751D01*
X64404Y234252D01*
X64503Y233753D01*
X64786Y233330D01*
X65209Y233047D01*
X65709Y232947D01*
X66208Y233047D01*
X66631Y233330D01*
X66914Y233753D01*
X67013Y234252D01*
X66914Y234751D01*
X66631Y235174D01*
X66208Y235457D01*
X65709Y235557D01*
D02*
G37*
G36*
X176496Y238627D02*
X175997Y238528D01*
X175574Y238245D01*
X175291Y237822D01*
X175191Y237323D01*
X175291Y236824D01*
X175574Y236400D01*
X175997Y236118D01*
X176496Y236018D01*
X176995Y236118D01*
X177418Y236400D01*
X177701Y236824D01*
X177801Y237323D01*
X177701Y237822D01*
X177418Y238245D01*
X176995Y238528D01*
X176496Y238627D01*
D02*
G37*
G36*
X84606Y237053D02*
X84107Y236953D01*
X83684Y236670D01*
X83401Y236247D01*
X83302Y235748D01*
X83401Y235249D01*
X83684Y234826D01*
X84107Y234543D01*
X84606Y234443D01*
X85106Y234543D01*
X85529Y234826D01*
X85812Y235249D01*
X85911Y235748D01*
X85812Y236247D01*
X85529Y236670D01*
X85106Y236953D01*
X84606Y237053D01*
D02*
G37*
G36*
X137677Y233903D02*
X137178Y233804D01*
X136755Y233521D01*
X136472Y233098D01*
X136373Y232598D01*
X136472Y232099D01*
X136755Y231676D01*
X137178Y231393D01*
X137677Y231294D01*
X138176Y231393D01*
X138600Y231676D01*
X138882Y232099D01*
X138982Y232598D01*
X138882Y233098D01*
X138600Y233521D01*
X138176Y233804D01*
X137677Y233903D01*
D02*
G37*
G36*
X78425Y233234D02*
X77926Y233134D01*
X77503Y232852D01*
X77220Y232428D01*
X77121Y231929D01*
X77220Y231430D01*
X77503Y231007D01*
X77926Y230724D01*
X78425Y230625D01*
X78924Y230724D01*
X79348Y231007D01*
X79631Y231430D01*
X79730Y231929D01*
X79631Y232428D01*
X79348Y232852D01*
X78924Y233134D01*
X78425Y233234D01*
D02*
G37*
G36*
X147913Y232801D02*
X147414Y232701D01*
X146991Y232418D01*
X146708Y231995D01*
X146609Y231496D01*
X146708Y230997D01*
X146991Y230574D01*
X147414Y230291D01*
X147913Y230191D01*
X148413Y230291D01*
X148836Y230574D01*
X149119Y230997D01*
X149218Y231496D01*
X149119Y231995D01*
X148836Y232418D01*
X148413Y232701D01*
X147913Y232801D01*
D02*
G37*
G36*
X114134Y235931D02*
X113635Y235831D01*
X113211Y235548D01*
X112929Y235125D01*
X112829Y234626D01*
X112929Y234127D01*
X113177Y233755D01*
X113215Y233588D01*
Y233419D01*
X113177Y233253D01*
X112929Y232881D01*
X112829Y232382D01*
X112929Y231883D01*
X113211Y231459D01*
X113635Y231177D01*
X114134Y231077D01*
X114633Y231177D01*
X115056Y231459D01*
X115339Y231883D01*
X115438Y232382D01*
X115339Y232881D01*
X115091Y233253D01*
X115052Y233419D01*
Y233588D01*
X115091Y233755D01*
X115339Y234127D01*
X115438Y234626D01*
X115339Y235125D01*
X115056Y235548D01*
X114633Y235831D01*
X114134Y235931D01*
D02*
G37*
G36*
X198268Y233667D02*
X197768Y233568D01*
X197345Y233285D01*
X197062Y232861D01*
X196963Y232362D01*
X197062Y231863D01*
X197345Y231440D01*
X197768Y231157D01*
X198268Y231058D01*
X198767Y231157D01*
X199190Y231440D01*
X199473Y231863D01*
X199572Y232362D01*
X199473Y232861D01*
X199190Y233285D01*
X198767Y233568D01*
X198268Y233667D01*
D02*
G37*
G36*
X106102Y225163D02*
X105603Y225063D01*
X105180Y224781D01*
X104897Y224358D01*
X104798Y223858D01*
X104897Y223359D01*
X105180Y222936D01*
X105603Y222653D01*
X106102Y222554D01*
X106602Y222653D01*
X107025Y222936D01*
X107308Y223359D01*
X107407Y223858D01*
X107308Y224358D01*
X107025Y224781D01*
X106602Y225063D01*
X106102Y225163D01*
D02*
G37*
G36*
X108701Y211108D02*
X108202Y211008D01*
X107778Y210726D01*
X107495Y210302D01*
X107396Y209803D01*
X107495Y209304D01*
X107778Y208881D01*
X108202Y208598D01*
X108701Y208499D01*
X109200Y208598D01*
X109623Y208881D01*
X109906Y209304D01*
X110005Y209803D01*
X109906Y210302D01*
X109623Y210726D01*
X109200Y211008D01*
X108701Y211108D01*
D02*
G37*
G36*
X43819Y210990D02*
X43320Y210890D01*
X42896Y210608D01*
X42614Y210184D01*
X42514Y209685D01*
X42614Y209186D01*
X42896Y208763D01*
X43320Y208480D01*
X43819Y208380D01*
X44318Y208480D01*
X44741Y208763D01*
X45024Y209186D01*
X45123Y209685D01*
X45024Y210184D01*
X44741Y210608D01*
X44318Y210890D01*
X43819Y210990D01*
D02*
G37*
G36*
X132283Y214572D02*
X131784Y214473D01*
X131361Y214190D01*
X131078Y213767D01*
X130979Y213268D01*
X131078Y212769D01*
X131308Y212424D01*
X131242Y212122D01*
X131174Y211997D01*
X130957Y211953D01*
X130718Y211793D01*
X130285Y211952D01*
X130260Y212074D01*
X129978Y212497D01*
X129554Y212780D01*
X129055Y212879D01*
X128556Y212780D01*
X128133Y212497D01*
X127850Y212074D01*
X127751Y211575D01*
X127850Y211076D01*
X128133Y210652D01*
X128556Y210369D01*
X129055Y210270D01*
X129554Y210369D01*
X129794Y210530D01*
X130227Y210371D01*
X130251Y210249D01*
X130534Y209826D01*
X130957Y209543D01*
X131457Y209443D01*
X131956Y209543D01*
X132379Y209826D01*
X132440Y209917D01*
X132914D01*
X132975Y209826D01*
X133398Y209543D01*
X133898Y209443D01*
X134397Y209543D01*
X134820Y209826D01*
X135103Y210249D01*
X135202Y210748D01*
X135103Y211247D01*
X134820Y211670D01*
X134397Y211953D01*
X133898Y212053D01*
X133398Y211953D01*
X132975Y211670D01*
X132863Y211707D01*
X132759Y211750D01*
X132766Y211842D01*
X132830Y212094D01*
X133206Y212345D01*
X133489Y212769D01*
X133588Y213268D01*
X133489Y213767D01*
X133206Y214190D01*
X132783Y214473D01*
X132283Y214572D01*
D02*
G37*
G36*
X97559Y211265D02*
X97060Y211166D01*
X96637Y210883D01*
X96354Y210460D01*
X96254Y209961D01*
X96354Y209461D01*
X96637Y209038D01*
X97060Y208755D01*
X97559Y208656D01*
X98058Y208755D01*
X98482Y209038D01*
X98764Y209461D01*
X98864Y209961D01*
X98764Y210460D01*
X98482Y210883D01*
X98058Y211166D01*
X97559Y211265D01*
D02*
G37*
G36*
X10000Y222121D02*
X8611Y221984D01*
X7275Y221579D01*
X6044Y220921D01*
X4965Y220035D01*
X4079Y218956D01*
X3421Y217725D01*
X3016Y216389D01*
X2879Y215000D01*
X3016Y213611D01*
X3421Y212275D01*
X4079Y211044D01*
X4965Y209965D01*
X6044Y209079D01*
X7275Y208421D01*
X8611Y208016D01*
X10000Y207879D01*
X11389Y208016D01*
X12725Y208421D01*
X13956Y209079D01*
X15035Y209965D01*
X15921Y211044D01*
X16579Y212275D01*
X16984Y213611D01*
X17121Y215000D01*
X16984Y216389D01*
X16579Y217725D01*
X15921Y218956D01*
X15035Y220035D01*
X13956Y220921D01*
X12725Y221579D01*
X11389Y221984D01*
X10000Y222121D01*
D02*
G37*
G36*
X143268Y208903D02*
X142769Y208804D01*
X142345Y208521D01*
X142062Y208098D01*
X141963Y207598D01*
X142062Y207099D01*
X142345Y206676D01*
X142769Y206393D01*
X143268Y206294D01*
X143767Y206393D01*
X144190Y206676D01*
X144473Y207099D01*
X144572Y207598D01*
X144473Y208098D01*
X144190Y208521D01*
X143767Y208804D01*
X143268Y208903D01*
D02*
G37*
G36*
X90118Y208706D02*
X89619Y208607D01*
X89196Y208324D01*
X88913Y207901D01*
X88814Y207402D01*
X88913Y206902D01*
X89196Y206479D01*
X89619Y206196D01*
X90118Y206097D01*
X90617Y206196D01*
X91041Y206479D01*
X91323Y206902D01*
X91423Y207402D01*
X91323Y207901D01*
X91041Y208324D01*
X90617Y208607D01*
X90118Y208706D01*
D02*
G37*
G36*
X126417Y210045D02*
X125918Y209945D01*
X125495Y209663D01*
X125212Y209239D01*
X125113Y208740D01*
X125212Y208241D01*
X125495Y207818D01*
X125918Y207535D01*
X126417Y207436D01*
X126917Y207535D01*
X127340Y207818D01*
X127623Y208241D01*
X127722Y208740D01*
X127623Y209239D01*
X127340Y209663D01*
X126917Y209945D01*
X126417Y210045D01*
D02*
G37*
G36*
X52185Y209986D02*
X51686Y209886D01*
X51262Y209604D01*
X50980Y209180D01*
X50880Y208681D01*
X50980Y208182D01*
X51262Y207759D01*
X51686Y207476D01*
X52185Y207377D01*
X52684Y207476D01*
X53108Y207759D01*
X53215Y207919D01*
X53688D01*
X53822Y207719D01*
X54245Y207436D01*
X54744Y207337D01*
X55243Y207436D01*
X55667Y207719D01*
X55787Y207899D01*
X56260D01*
X56381Y207719D01*
X56804Y207436D01*
X57303Y207337D01*
X57802Y207436D01*
X58226Y207719D01*
X58359Y207919D01*
X58833D01*
X58940Y207759D01*
X59363Y207476D01*
X59862Y207377D01*
X60361Y207476D01*
X60785Y207759D01*
X61067Y208182D01*
X61167Y208681D01*
X61067Y209180D01*
X60785Y209604D01*
X60361Y209886D01*
X59862Y209986D01*
X59363Y209886D01*
X58940Y209604D01*
X58806Y209404D01*
X58333D01*
X58226Y209564D01*
X57802Y209847D01*
X57303Y209946D01*
X56804Y209847D01*
X56381Y209564D01*
X56260Y209384D01*
X55787D01*
X55667Y209564D01*
X55243Y209847D01*
X54744Y209946D01*
X54245Y209847D01*
X53822Y209564D01*
X53715Y209404D01*
X53241D01*
X53108Y209604D01*
X52684Y209886D01*
X52185Y209986D01*
D02*
G37*
G36*
X144724Y214494D02*
X144225Y214394D01*
X143802Y214111D01*
X143519Y213688D01*
X143420Y213189D01*
X143519Y212690D01*
X143802Y212266D01*
X144225Y211984D01*
X144724Y211884D01*
X145224Y211984D01*
X145647Y212266D01*
X145930Y212690D01*
X146029Y213189D01*
X145930Y213688D01*
X145647Y214111D01*
X145224Y214394D01*
X144724Y214494D01*
D02*
G37*
G36*
X112598Y223352D02*
X112099Y223253D01*
X111676Y222970D01*
X111393Y222547D01*
X111294Y222047D01*
X111393Y221548D01*
X111676Y221125D01*
X112099Y220842D01*
X112598Y220743D01*
X113098Y220842D01*
X113521Y221125D01*
X113804Y221548D01*
X113903Y222047D01*
X113804Y222547D01*
X113521Y222970D01*
X113098Y223253D01*
X112598Y223352D01*
D02*
G37*
G36*
X186890Y221580D02*
X186390Y221481D01*
X185967Y221198D01*
X185685Y220775D01*
X185585Y220276D01*
X185685Y219776D01*
X185967Y219353D01*
X186390Y219070D01*
X186890Y218971D01*
X187389Y219070D01*
X187812Y219353D01*
X188095Y219776D01*
X188194Y220276D01*
X188095Y220775D01*
X187812Y221198D01*
X187389Y221481D01*
X186890Y221580D01*
D02*
G37*
G36*
X50709Y224927D02*
X50209Y224827D01*
X49786Y224545D01*
X49503Y224121D01*
X49404Y223622D01*
X49503Y223123D01*
X49786Y222699D01*
X50209Y222417D01*
X50709Y222317D01*
X51208Y222417D01*
X51631Y222699D01*
X51914Y223123D01*
X52013Y223622D01*
X51914Y224121D01*
X51631Y224545D01*
X51208Y224827D01*
X50709Y224927D01*
D02*
G37*
G36*
X177205Y223470D02*
X176706Y223371D01*
X176282Y223088D01*
X175999Y222665D01*
X175900Y222165D01*
X175999Y221666D01*
X176282Y221243D01*
X176706Y220960D01*
X177205Y220861D01*
X177704Y220960D01*
X178127Y221243D01*
X178410Y221666D01*
X178509Y222165D01*
X178410Y222665D01*
X178127Y223088D01*
X177704Y223371D01*
X177205Y223470D01*
D02*
G37*
G36*
X115079Y220517D02*
X114579Y220418D01*
X114156Y220135D01*
X113874Y219712D01*
X113774Y219213D01*
X113874Y218713D01*
X114156Y218290D01*
X114579Y218007D01*
X115079Y217908D01*
X115578Y218007D01*
X116001Y218290D01*
X116284Y218713D01*
X116383Y219213D01*
X116284Y219712D01*
X116001Y220135D01*
X115578Y220418D01*
X115079Y220517D01*
D02*
G37*
G36*
X181929Y216501D02*
X181430Y216402D01*
X181007Y216119D01*
X180724Y215696D01*
X180624Y215197D01*
X180724Y214698D01*
X181007Y214274D01*
X181430Y213992D01*
X181929Y213892D01*
X182428Y213992D01*
X182852Y214274D01*
X183134Y214698D01*
X183234Y215197D01*
X183134Y215696D01*
X182852Y216119D01*
X182428Y216402D01*
X181929Y216501D01*
D02*
G37*
G36*
X174449Y215478D02*
X173950Y215378D01*
X173526Y215096D01*
X173243Y214672D01*
X173144Y214173D01*
X173243Y213674D01*
X173526Y213251D01*
X173950Y212968D01*
X174449Y212869D01*
X174948Y212968D01*
X175371Y213251D01*
X175654Y213674D01*
X175753Y214173D01*
X175654Y214672D01*
X175371Y215096D01*
X174948Y215378D01*
X174449Y215478D01*
D02*
G37*
G36*
X103996Y221679D02*
X103497Y221579D01*
X103074Y221297D01*
X102791Y220873D01*
X102691Y220374D01*
X102791Y219875D01*
X103074Y219451D01*
X103151Y219400D01*
Y219090D01*
X103107Y218955D01*
X102850Y218570D01*
X102751Y218071D01*
X102850Y217572D01*
X103133Y217148D01*
X103556Y216866D01*
X104055Y216766D01*
X104554Y216866D01*
X104978Y217148D01*
X105260Y217572D01*
X105360Y218071D01*
X105260Y218570D01*
X104978Y218993D01*
X104900Y219045D01*
Y219355D01*
X104944Y219489D01*
X105201Y219875D01*
X105301Y220374D01*
X105201Y220873D01*
X104919Y221297D01*
X104495Y221579D01*
X103996Y221679D01*
D02*
G37*
G36*
X115787Y217053D02*
X115288Y216953D01*
X114865Y216670D01*
X114582Y216247D01*
X114483Y215748D01*
X114582Y215249D01*
X114865Y214826D01*
X115288Y214543D01*
X115787Y214443D01*
X116287Y214543D01*
X116710Y214826D01*
X116993Y215249D01*
X117092Y215748D01*
X116993Y216247D01*
X116710Y216670D01*
X116287Y216953D01*
X115787Y217053D01*
D02*
G37*
G36*
X88189Y238824D02*
X87690Y238725D01*
X87266Y238442D01*
X86984Y238019D01*
X86884Y237520D01*
X86984Y237020D01*
X87266Y236597D01*
X87690Y236314D01*
X88189Y236215D01*
X88688Y236314D01*
X89112Y236597D01*
X89394Y237020D01*
X89494Y237520D01*
X89394Y238019D01*
X89112Y238442D01*
X88688Y238725D01*
X88189Y238824D01*
D02*
G37*
G36*
X79043Y260592D02*
X78544Y260493D01*
X78121Y260210D01*
X77838Y259787D01*
X77739Y259287D01*
X77838Y258788D01*
X78121Y258365D01*
X78544Y258082D01*
X79043Y257983D01*
X79542Y258082D01*
X79966Y258365D01*
X80249Y258788D01*
X80348Y259287D01*
X80249Y259787D01*
X79966Y260210D01*
X79542Y260493D01*
X79043Y260592D01*
D02*
G37*
G36*
X70382D02*
X69883Y260493D01*
X69459Y260210D01*
X69177Y259787D01*
X69077Y259287D01*
X69177Y258788D01*
X69459Y258365D01*
X69883Y258082D01*
X70382Y257983D01*
X70881Y258082D01*
X71304Y258365D01*
X71587Y258788D01*
X71687Y259287D01*
X71587Y259787D01*
X71304Y260210D01*
X70881Y260493D01*
X70382Y260592D01*
D02*
G37*
G36*
X106299Y261541D02*
X105800Y261441D01*
X105377Y261159D01*
X105094Y260736D01*
X104995Y260236D01*
X105094Y259737D01*
X105377Y259314D01*
X105800Y259031D01*
X106299Y258932D01*
X106799Y259031D01*
X107222Y259314D01*
X107504Y259737D01*
X107604Y260236D01*
X107504Y260736D01*
X107222Y261159D01*
X106799Y261441D01*
X106299Y261541D01*
D02*
G37*
G36*
X156378Y265859D02*
X155402Y265731D01*
X154492Y265354D01*
X153710Y264754D01*
X153111Y263973D01*
X152734Y263063D01*
X152605Y262087D01*
X152734Y261110D01*
X153111Y260200D01*
X153710Y259419D01*
X154492Y258820D01*
X155402Y258443D01*
X156378Y258314D01*
X157354Y258443D01*
X158264Y258820D01*
X159046Y259419D01*
X159645Y260200D01*
X160022Y261110D01*
X160150Y262087D01*
X160022Y263063D01*
X159645Y263973D01*
X159046Y264754D01*
X158264Y265354D01*
X157354Y265731D01*
X156378Y265859D01*
D02*
G37*
G36*
X203583Y256541D02*
X203083Y256442D01*
X202660Y256159D01*
X202377Y255736D01*
X202278Y255236D01*
X202377Y254737D01*
X202660Y254314D01*
X203083Y254031D01*
X203583Y253932D01*
X204082Y254031D01*
X204505Y254314D01*
X204788Y254737D01*
X204887Y255236D01*
X204788Y255736D01*
X204505Y256159D01*
X204082Y256442D01*
X203583Y256541D01*
D02*
G37*
G36*
X109370Y256501D02*
X108871Y256402D01*
X108448Y256119D01*
X108165Y255696D01*
X108065Y255196D01*
X108165Y254697D01*
X108448Y254274D01*
X108871Y253991D01*
X109370Y253892D01*
X109869Y253991D01*
X110293Y254274D01*
X110575Y254697D01*
X110675Y255196D01*
X110575Y255696D01*
X110293Y256119D01*
X109869Y256402D01*
X109370Y256501D01*
D02*
G37*
G36*
X203543Y252250D02*
X203044Y252150D01*
X202621Y251868D01*
X202338Y251444D01*
X202239Y250945D01*
X202338Y250446D01*
X202621Y250023D01*
X203044Y249740D01*
X203543Y249640D01*
X204043Y249740D01*
X204466Y250023D01*
X204749Y250446D01*
X204848Y250945D01*
X204749Y251444D01*
X204466Y251868D01*
X204043Y252150D01*
X203543Y252250D01*
D02*
G37*
G36*
X144528Y256541D02*
X144028Y256442D01*
X143605Y256159D01*
X143322Y255736D01*
X143223Y255236D01*
X143322Y254737D01*
X143605Y254314D01*
X144028Y254031D01*
X144528Y253932D01*
X145027Y254031D01*
X145450Y254314D01*
X145733Y254737D01*
X145832Y255236D01*
X145733Y255736D01*
X145450Y256159D01*
X145027Y256442D01*
X144528Y256541D01*
D02*
G37*
G36*
X168425Y256501D02*
X167926Y256402D01*
X167503Y256119D01*
X167220Y255696D01*
X167121Y255196D01*
X167220Y254697D01*
X167503Y254274D01*
X167926Y253991D01*
X168425Y253892D01*
X168924Y253991D01*
X169348Y254274D01*
X169631Y254697D01*
X169730Y255196D01*
X169631Y255696D01*
X169348Y256119D01*
X168924Y256402D01*
X168425Y256501D01*
D02*
G37*
G36*
X147323Y261541D02*
X146824Y261441D01*
X146400Y261159D01*
X146118Y260736D01*
X146018Y260236D01*
X146118Y259737D01*
X146400Y259314D01*
X146824Y259031D01*
X147323Y258932D01*
X147822Y259031D01*
X148245Y259314D01*
X148528Y259737D01*
X148627Y260236D01*
X148528Y260736D01*
X148245Y261159D01*
X147822Y261441D01*
X147323Y261541D01*
D02*
G37*
G36*
X165472Y267171D02*
X164973Y267071D01*
X164550Y266789D01*
X164267Y266365D01*
X164168Y265866D01*
X164267Y265367D01*
X164550Y264944D01*
X164973Y264661D01*
X165472Y264562D01*
X165972Y264661D01*
X166395Y264944D01*
X166678Y265367D01*
X166777Y265866D01*
X166678Y266365D01*
X166395Y266789D01*
X165972Y267071D01*
X165472Y267171D01*
D02*
G37*
G36*
X147441D02*
X146942Y267071D01*
X146519Y266789D01*
X146236Y266365D01*
X146136Y265866D01*
X146236Y265367D01*
X146519Y264944D01*
X146942Y264661D01*
X147441Y264562D01*
X147940Y264661D01*
X148363Y264944D01*
X148646Y265367D01*
X148746Y265866D01*
X148646Y266365D01*
X148363Y266789D01*
X147940Y267071D01*
X147441Y267171D01*
D02*
G37*
G36*
X79043Y267182D02*
X78544Y267083D01*
X78121Y266800D01*
X77838Y266377D01*
X77739Y265878D01*
X77838Y265379D01*
X78121Y264955D01*
X78544Y264673D01*
X79043Y264573D01*
X79542Y264673D01*
X79966Y264955D01*
X80249Y265379D01*
X80348Y265878D01*
X80249Y266377D01*
X79966Y266800D01*
X79542Y267083D01*
X79043Y267182D01*
D02*
G37*
G36*
X206496Y267171D02*
X205997Y267071D01*
X205574Y266789D01*
X205291Y266365D01*
X205191Y265866D01*
X205291Y265367D01*
X205574Y264944D01*
X205997Y264661D01*
X206496Y264562D01*
X206995Y264661D01*
X207418Y264944D01*
X207701Y265367D01*
X207801Y265866D01*
X207701Y266365D01*
X207418Y266789D01*
X206995Y267071D01*
X206496Y267171D01*
D02*
G37*
G36*
X106417D02*
X105918Y267071D01*
X105495Y266789D01*
X105212Y266365D01*
X105113Y265866D01*
X105212Y265367D01*
X105495Y264944D01*
X105918Y264661D01*
X106417Y264562D01*
X106917Y264661D01*
X107340Y264944D01*
X107623Y265367D01*
X107722Y265866D01*
X107623Y266365D01*
X107340Y266789D01*
X106917Y267071D01*
X106417Y267171D01*
D02*
G37*
G36*
X206378Y261541D02*
X205879Y261441D01*
X205455Y261159D01*
X205173Y260736D01*
X205073Y260236D01*
X205173Y259737D01*
X205455Y259314D01*
X205879Y259031D01*
X206378Y258932D01*
X206877Y259031D01*
X207300Y259314D01*
X207583Y259737D01*
X207682Y260236D01*
X207583Y260736D01*
X207300Y261159D01*
X206877Y261441D01*
X206378Y261541D01*
D02*
G37*
G36*
X165354D02*
X164855Y261441D01*
X164432Y261159D01*
X164149Y260736D01*
X164050Y260236D01*
X164149Y259737D01*
X164432Y259314D01*
X164855Y259031D01*
X165354Y258932D01*
X165854Y259031D01*
X166277Y259314D01*
X166560Y259737D01*
X166659Y260236D01*
X166560Y260736D01*
X166277Y261159D01*
X165854Y261441D01*
X165354Y261541D01*
D02*
G37*
G36*
X37402Y264966D02*
X36902Y264867D01*
X36479Y264584D01*
X36196Y264161D01*
X36097Y263661D01*
X36196Y263162D01*
X36479Y262739D01*
X36902Y262456D01*
X37402Y262357D01*
X37901Y262456D01*
X38324Y262739D01*
X38607Y263162D01*
X38706Y263661D01*
X38607Y264161D01*
X38324Y264584D01*
X37901Y264867D01*
X37402Y264966D01*
D02*
G37*
G36*
X95886Y262624D02*
X95387Y262524D01*
X94963Y262241D01*
X94681Y261818D01*
X94581Y261319D01*
X94681Y260820D01*
X94963Y260396D01*
X95387Y260114D01*
X95886Y260014D01*
X96385Y260114D01*
X96808Y260396D01*
X97091Y260820D01*
X97190Y261319D01*
X97091Y261818D01*
X96808Y262241D01*
X96385Y262524D01*
X95886Y262624D01*
D02*
G37*
G36*
X144488Y252250D02*
X143989Y252150D01*
X143566Y251868D01*
X143283Y251444D01*
X143184Y250945D01*
X143283Y250446D01*
X143566Y250023D01*
X143989Y249740D01*
X144488Y249640D01*
X144987Y249740D01*
X145411Y250023D01*
X145694Y250446D01*
X145793Y250945D01*
X145694Y251444D01*
X145411Y251868D01*
X144987Y252150D01*
X144488Y252250D01*
D02*
G37*
G36*
X176535Y242840D02*
X176036Y242741D01*
X175613Y242458D01*
X175330Y242035D01*
X175231Y241535D01*
X175330Y241036D01*
X175613Y240613D01*
X176036Y240330D01*
X176535Y240231D01*
X177035Y240330D01*
X177458Y240613D01*
X177741Y241036D01*
X177840Y241535D01*
X177741Y242035D01*
X177458Y242458D01*
X177035Y242741D01*
X176535Y242840D01*
D02*
G37*
G36*
X77244Y242407D02*
X76745Y242308D01*
X76322Y242025D01*
X76039Y241602D01*
X75940Y241102D01*
X76039Y240603D01*
X76322Y240180D01*
X76745Y239897D01*
X77244Y239798D01*
X77743Y239897D01*
X78167Y240180D01*
X78449Y240603D01*
X78549Y241102D01*
X78449Y241602D01*
X78167Y242025D01*
X77743Y242308D01*
X77244Y242407D01*
D02*
G37*
G36*
X113150Y245753D02*
X112650Y245654D01*
X112227Y245371D01*
X111944Y244948D01*
X111845Y244449D01*
X111944Y243950D01*
X112227Y243526D01*
X112650Y243244D01*
X113150Y243144D01*
X113649Y243244D01*
X114072Y243526D01*
X114355Y243950D01*
X114454Y244449D01*
X114355Y244948D01*
X114072Y245371D01*
X113649Y245654D01*
X113150Y245753D01*
D02*
G37*
G36*
X179842Y243824D02*
X179343Y243725D01*
X178920Y243442D01*
X178637Y243019D01*
X178538Y242520D01*
X178637Y242020D01*
X178920Y241597D01*
X179343Y241314D01*
X179842Y241215D01*
X180342Y241314D01*
X180765Y241597D01*
X181048Y242020D01*
X181147Y242520D01*
X181048Y243019D01*
X180765Y243442D01*
X180342Y243725D01*
X179842Y243824D01*
D02*
G37*
G36*
X73701Y242368D02*
X73202Y242268D01*
X72778Y241986D01*
X72496Y241562D01*
X72396Y241063D01*
X72496Y240564D01*
X72778Y240141D01*
X73202Y239858D01*
X73701Y239758D01*
X74200Y239858D01*
X74623Y240141D01*
X74906Y240564D01*
X75005Y241063D01*
X74906Y241562D01*
X74623Y241986D01*
X74200Y242268D01*
X73701Y242368D01*
D02*
G37*
G36*
X91693Y240517D02*
X91194Y240418D01*
X90770Y240135D01*
X90488Y239712D01*
X90388Y239213D01*
X90488Y238713D01*
X90770Y238290D01*
X91194Y238007D01*
X91693Y237908D01*
X92192Y238007D01*
X92615Y238290D01*
X92898Y238713D01*
X92997Y239213D01*
X92898Y239712D01*
X92615Y240135D01*
X92192Y240418D01*
X91693Y240517D01*
D02*
G37*
G36*
X61890Y238903D02*
X61391Y238804D01*
X60967Y238521D01*
X60685Y238098D01*
X60585Y237598D01*
X60685Y237099D01*
X60967Y236676D01*
X61391Y236393D01*
X61890Y236294D01*
X62389Y236393D01*
X62812Y236676D01*
X63095Y237099D01*
X63194Y237598D01*
X63095Y238098D01*
X62812Y238521D01*
X62389Y238804D01*
X61890Y238903D01*
D02*
G37*
G36*
X119449Y242289D02*
X118950Y242190D01*
X118526Y241907D01*
X118244Y241483D01*
X118144Y240984D01*
X118244Y240485D01*
X118526Y240062D01*
X118950Y239779D01*
X119449Y239680D01*
X119948Y239779D01*
X120371Y240062D01*
X120536Y240308D01*
X120541Y240310D01*
X120986Y240289D01*
X121164Y240022D01*
X121587Y239740D01*
X122087Y239640D01*
X122586Y239740D01*
X123009Y240022D01*
X123292Y240446D01*
X123391Y240945D01*
X123292Y241444D01*
X123009Y241867D01*
X122586Y242150D01*
X122087Y242249D01*
X121587Y242150D01*
X121164Y241867D01*
X121000Y241621D01*
X120994Y241619D01*
X120549Y241640D01*
X120371Y241907D01*
X119948Y242190D01*
X119449Y242289D01*
D02*
G37*
G36*
X174173Y240517D02*
X173674Y240418D01*
X173251Y240135D01*
X172968Y239712D01*
X172869Y239213D01*
X172968Y238713D01*
X173251Y238290D01*
X173674Y238007D01*
X174173Y237908D01*
X174672Y238007D01*
X175096Y238290D01*
X175379Y238713D01*
X175478Y239213D01*
X175379Y239712D01*
X175096Y240135D01*
X174672Y240418D01*
X174173Y240517D01*
D02*
G37*
G36*
X176260Y246147D02*
X175761Y246048D01*
X175337Y245765D01*
X175055Y245342D01*
X174955Y244843D01*
X174980Y244717D01*
X174932Y244673D01*
X174618Y244522D01*
X174279Y244749D01*
X173779Y244848D01*
X173280Y244749D01*
X172857Y244466D01*
X172574Y244042D01*
X172475Y243543D01*
X172574Y243044D01*
X172857Y242621D01*
X173280Y242338D01*
X173779Y242239D01*
X174279Y242338D01*
X174702Y242621D01*
X174985Y243044D01*
X175084Y243543D01*
X175059Y243668D01*
X175108Y243712D01*
X175422Y243864D01*
X175761Y243637D01*
X176260Y243538D01*
X176759Y243637D01*
X177182Y243920D01*
X177465Y244343D01*
X177564Y244843D01*
X177465Y245342D01*
X177182Y245765D01*
X176759Y246048D01*
X176260Y246147D01*
D02*
G37*
G36*
X91693Y251738D02*
X91194Y251638D01*
X90771Y251356D01*
X90488Y250932D01*
X90388Y250433D01*
X90488Y249934D01*
X90771Y249511D01*
X91194Y249228D01*
X91693Y249128D01*
X92192Y249228D01*
X92615Y249511D01*
X92898Y249934D01*
X92998Y250433D01*
X92898Y250932D01*
X92615Y251356D01*
X92192Y251638D01*
X91693Y251738D01*
D02*
G37*
G36*
X159823Y255532D02*
X152933D01*
Y248642D01*
X159823D01*
Y255532D01*
D02*
G37*
G36*
X168386Y252210D02*
X167887Y252110D01*
X167463Y251828D01*
X167181Y251404D01*
X167081Y250905D01*
X167181Y250406D01*
X167463Y249983D01*
X167887Y249700D01*
X168386Y249601D01*
X168885Y249700D01*
X169308Y249983D01*
X169591Y250406D01*
X169690Y250905D01*
X169591Y251404D01*
X169308Y251828D01*
X168885Y252110D01*
X168386Y252210D01*
D02*
G37*
G36*
X109331D02*
X108832Y252110D01*
X108408Y251828D01*
X108125Y251404D01*
X108026Y250905D01*
X108125Y250406D01*
X108408Y249983D01*
X108832Y249700D01*
X109331Y249601D01*
X109830Y249700D01*
X110253Y249983D01*
X110536Y250406D01*
X110635Y250905D01*
X110536Y251404D01*
X110253Y251828D01*
X109830Y252110D01*
X109331Y252210D01*
D02*
G37*
G36*
X68504Y250005D02*
X68005Y249906D01*
X67581Y249623D01*
X67299Y249200D01*
X67199Y248701D01*
X67299Y248201D01*
X67581Y247778D01*
X68005Y247496D01*
X68504Y247396D01*
X69003Y247496D01*
X69426Y247778D01*
X69709Y248201D01*
X69809Y248701D01*
X69709Y249200D01*
X69426Y249623D01*
X69003Y249906D01*
X68504Y250005D01*
D02*
G37*
G36*
X140433Y248076D02*
X139934Y247977D01*
X139511Y247694D01*
X139228Y247271D01*
X139128Y246772D01*
X139228Y246272D01*
X139511Y245849D01*
X139934Y245566D01*
X140433Y245467D01*
X140932Y245566D01*
X141356Y245849D01*
X141638Y246272D01*
X141738Y246772D01*
X141638Y247271D01*
X141356Y247694D01*
X140932Y247977D01*
X140433Y248076D01*
D02*
G37*
G36*
X180866Y249887D02*
X180367Y249788D01*
X179944Y249505D01*
X179661Y249082D01*
X179562Y248583D01*
X179661Y248083D01*
X179944Y247660D01*
X180367Y247377D01*
X180866Y247278D01*
X181289Y247362D01*
X181464Y247237D01*
X181469Y247232D01*
X181595Y247057D01*
X181510Y246634D01*
X181610Y246135D01*
X181893Y245711D01*
X182316Y245429D01*
X182815Y245329D01*
X183314Y245429D01*
X183737Y245711D01*
X184020Y246135D01*
X184120Y246634D01*
X184020Y247133D01*
X183737Y247556D01*
X183314Y247839D01*
X182815Y247938D01*
X182392Y247854D01*
X182217Y247979D01*
X182212Y247984D01*
X182087Y248160D01*
X182171Y248583D01*
X182071Y249082D01*
X181789Y249505D01*
X181365Y249788D01*
X180866Y249887D01*
D02*
G37*
G36*
X121063Y249769D02*
X120564Y249670D01*
X120141Y249387D01*
X119858Y248964D01*
X119758Y248465D01*
X119858Y247965D01*
X120141Y247542D01*
X120564Y247259D01*
X121063Y247160D01*
X121562Y247259D01*
X121901Y247485D01*
X122216Y247334D01*
X122263Y247290D01*
X122199Y246969D01*
X122299Y246469D01*
X122581Y246046D01*
X123005Y245763D01*
X123504Y245664D01*
X124003Y245763D01*
X124426Y246046D01*
X124709Y246469D01*
X124809Y246969D01*
X124709Y247468D01*
X124426Y247891D01*
X124003Y248174D01*
X123504Y248273D01*
X123005Y248174D01*
X122666Y247948D01*
X122351Y248099D01*
X122304Y248143D01*
X122368Y248465D01*
X122268Y248964D01*
X121985Y249387D01*
X121562Y249670D01*
X121063Y249769D01*
D02*
G37*
G36*
X198898Y247997D02*
X198398Y247898D01*
X197975Y247615D01*
X197692Y247192D01*
X197593Y246693D01*
X197692Y246194D01*
X197834Y245982D01*
X197597Y245628D01*
X197559Y245635D01*
X197106Y245545D01*
X196984Y245656D01*
X196852Y245866D01*
X197071Y246194D01*
X197171Y246693D01*
X197071Y247192D01*
X196789Y247615D01*
X196365Y247898D01*
X195866Y247997D01*
X195367Y247898D01*
X194944Y247615D01*
X194661Y247192D01*
X194610Y246937D01*
X194209D01*
X194158Y247192D01*
X193875Y247615D01*
X193452Y247898D01*
X192953Y247997D01*
X192454Y247898D01*
X192030Y247615D01*
X191747Y247192D01*
X191648Y246693D01*
X191747Y246194D01*
X192030Y245770D01*
X192454Y245488D01*
X192953Y245388D01*
X193452Y245488D01*
X193875Y245770D01*
X194158Y246194D01*
X194209Y246449D01*
X194610D01*
X194661Y246194D01*
X194779Y246016D01*
X194598Y245579D01*
X194383Y245536D01*
X193959Y245253D01*
X193677Y244830D01*
X193577Y244331D01*
X193677Y243831D01*
X193959Y243408D01*
X194383Y243125D01*
X194882Y243026D01*
X195381Y243125D01*
X195804Y243408D01*
X196002Y243704D01*
X196023Y243711D01*
X196418D01*
X196439Y243704D01*
X196637Y243408D01*
X197060Y243125D01*
X197559Y243026D01*
X198058Y243125D01*
X198482Y243408D01*
X198764Y243831D01*
X198864Y244331D01*
X198764Y244830D01*
X198623Y245042D01*
X198860Y245396D01*
X198898Y245388D01*
X199397Y245488D01*
X199820Y245770D01*
X200103Y246194D01*
X200202Y246693D01*
X200103Y247192D01*
X199820Y247615D01*
X199397Y247898D01*
X198898Y247997D01*
D02*
G37*
G36*
X181024Y207643D02*
X180524Y207544D01*
X180101Y207261D01*
X179818Y206838D01*
X179719Y206339D01*
X179818Y205839D01*
X180101Y205416D01*
X180524Y205133D01*
X181024Y205034D01*
X181523Y205133D01*
X181946Y205416D01*
X182229Y205839D01*
X182328Y206339D01*
X182229Y206838D01*
X181946Y207261D01*
X181523Y207544D01*
X181024Y207643D01*
D02*
G37*
G36*
X100236Y191344D02*
X99737Y191245D01*
X99314Y190962D01*
X99031Y190539D01*
X98932Y190039D01*
X99011Y189639D01*
X98783Y189411D01*
X98773Y189402D01*
X98696Y189361D01*
X98228Y189454D01*
X97729Y189355D01*
X97306Y189072D01*
X97023Y188649D01*
X96924Y188150D01*
X97023Y187650D01*
X97306Y187227D01*
X97729Y186944D01*
X98228Y186845D01*
X98728Y186944D01*
X99151Y187227D01*
X99434Y187650D01*
X99533Y188150D01*
X99453Y188550D01*
X99681Y188778D01*
X99692Y188786D01*
X99769Y188828D01*
X100236Y188735D01*
X100735Y188834D01*
X101159Y189117D01*
X101442Y189540D01*
X101541Y190039D01*
X101442Y190539D01*
X101159Y190962D01*
X100735Y191245D01*
X100236Y191344D01*
D02*
G37*
G36*
X110039Y192250D02*
X109540Y192150D01*
X109117Y191867D01*
X108834Y191444D01*
X108735Y190945D01*
X108834Y190446D01*
X109117Y190022D01*
X109540Y189740D01*
X110039Y189640D01*
X110539Y189740D01*
X110962Y190022D01*
X111245Y190446D01*
X111344Y190945D01*
X111245Y191444D01*
X110962Y191867D01*
X110539Y192150D01*
X110039Y192250D01*
D02*
G37*
G36*
X59488Y183706D02*
X58989Y183607D01*
X58566Y183324D01*
X58283Y182901D01*
X58184Y182402D01*
X58283Y181902D01*
X58566Y181479D01*
X58989Y181196D01*
X59448Y181105D01*
X59564Y180947D01*
X59672Y180732D01*
X59543Y180539D01*
X59443Y180039D01*
X59543Y179540D01*
X59715Y179283D01*
X59675Y179144D01*
X59517Y178885D01*
X59107Y178804D01*
X58684Y178521D01*
X58401Y178098D01*
X58302Y177598D01*
X58401Y177099D01*
X58684Y176676D01*
X59107Y176393D01*
X59606Y176294D01*
X60106Y176393D01*
X60529Y176676D01*
X60812Y177099D01*
X60911Y177598D01*
X60812Y178098D01*
X60640Y178355D01*
X60679Y178494D01*
X60837Y178753D01*
X61247Y178834D01*
X61671Y179117D01*
X61953Y179540D01*
X62053Y180039D01*
X61953Y180539D01*
X61671Y180962D01*
X61247Y181245D01*
X60789Y181336D01*
X60672Y181494D01*
X60564Y181709D01*
X60694Y181902D01*
X60793Y182402D01*
X60694Y182901D01*
X60411Y183324D01*
X59987Y183607D01*
X59488Y183706D01*
D02*
G37*
G36*
X181142Y180793D02*
X180642Y180693D01*
X180219Y180411D01*
X179936Y179987D01*
X179837Y179488D01*
X179936Y178989D01*
X180219Y178566D01*
X180642Y178283D01*
X181142Y178184D01*
X181641Y178283D01*
X182064Y178566D01*
X182347Y178989D01*
X182446Y179488D01*
X182347Y179987D01*
X182064Y180411D01*
X181641Y180693D01*
X181142Y180793D01*
D02*
G37*
G36*
X185748Y191580D02*
X185249Y191481D01*
X184826Y191198D01*
X184543Y190775D01*
X184443Y190276D01*
X184543Y189776D01*
X184826Y189353D01*
X185249Y189070D01*
X185748Y188971D01*
X186247Y189070D01*
X186670Y189353D01*
X186953Y189776D01*
X187053Y190276D01*
X186953Y190775D01*
X186670Y191198D01*
X186247Y191481D01*
X185748Y191580D01*
D02*
G37*
G36*
X98425Y182525D02*
X97926Y182426D01*
X97503Y182143D01*
X97220Y181720D01*
X97121Y181220D01*
X97220Y180721D01*
X97503Y180298D01*
X97926Y180015D01*
X98260Y179949D01*
Y179547D01*
X98083Y179512D01*
X97660Y179230D01*
X97377Y178806D01*
X97278Y178307D01*
X97377Y177808D01*
X97660Y177385D01*
X98083Y177102D01*
X98583Y177003D01*
X99082Y177102D01*
X99505Y177385D01*
X99788Y177808D01*
X99887Y178307D01*
X99788Y178806D01*
X99505Y179230D01*
X99082Y179512D01*
X98748Y179579D01*
Y179980D01*
X98924Y180015D01*
X99348Y180298D01*
X99630Y180721D01*
X99730Y181220D01*
X99630Y181720D01*
X99348Y182143D01*
X98924Y182426D01*
X98425Y182525D01*
D02*
G37*
G36*
X69410Y192564D02*
X68910Y192465D01*
X68487Y192182D01*
X68204Y191759D01*
X68105Y191260D01*
X68204Y190761D01*
X68487Y190337D01*
X68910Y190055D01*
X69410Y189955D01*
X69909Y190055D01*
X70332Y190337D01*
X70615Y190761D01*
X70714Y191260D01*
X70615Y191759D01*
X70332Y192182D01*
X69909Y192465D01*
X69410Y192564D01*
D02*
G37*
G36*
X96220Y193194D02*
X95721Y193095D01*
X95298Y192812D01*
X95015Y192389D01*
X94916Y191890D01*
X95015Y191391D01*
X95298Y190967D01*
X95721Y190684D01*
X96220Y190585D01*
X96720Y190684D01*
X97143Y190967D01*
X97426Y191391D01*
X97525Y191890D01*
X97426Y192389D01*
X97143Y192812D01*
X96720Y193095D01*
X96220Y193194D01*
D02*
G37*
G36*
X124173Y176029D02*
X123674Y175930D01*
X123251Y175647D01*
X122968Y175224D01*
X122869Y174724D01*
X122968Y174225D01*
X123251Y173802D01*
X123674Y173519D01*
X124173Y173420D01*
X124672Y173519D01*
X125096Y173802D01*
X125379Y174225D01*
X125478Y174724D01*
X125379Y175224D01*
X125096Y175647D01*
X124672Y175930D01*
X124173Y176029D01*
D02*
G37*
G36*
X200197Y199737D02*
X199221Y199608D01*
X198311Y199232D01*
X197529Y198632D01*
X196930Y197851D01*
X196553Y196941D01*
X196424Y195965D01*
X196553Y194988D01*
X196930Y194078D01*
X197529Y193297D01*
X198311Y192698D01*
X199221Y192321D01*
X200197Y192192D01*
X201173Y192321D01*
X202083Y192698D01*
X202864Y193297D01*
X203464Y194078D01*
X203841Y194988D01*
X203969Y195965D01*
X203841Y196941D01*
X203464Y197851D01*
X202864Y198632D01*
X202083Y199232D01*
X201173Y199608D01*
X200197Y199737D01*
D02*
G37*
G36*
X68032Y178824D02*
X67532Y178725D01*
X67109Y178442D01*
X66826Y178019D01*
X66727Y177520D01*
X66826Y177020D01*
X67109Y176597D01*
X67532Y176314D01*
X68032Y176215D01*
X68531Y176314D01*
X68954Y176597D01*
X69237Y177020D01*
X69336Y177520D01*
X69237Y178019D01*
X68954Y178442D01*
X68531Y178725D01*
X68032Y178824D01*
D02*
G37*
G36*
X83150Y177840D02*
X82650Y177741D01*
X82227Y177458D01*
X81944Y177035D01*
X81845Y176535D01*
X81944Y176036D01*
X82227Y175613D01*
X82650Y175330D01*
X83150Y175231D01*
X83649Y175330D01*
X84072Y175613D01*
X84355Y176036D01*
X84454Y176535D01*
X84355Y177035D01*
X84072Y177458D01*
X83649Y177741D01*
X83150Y177840D01*
D02*
G37*
G36*
X173504Y193076D02*
X173005Y192977D01*
X172581Y192694D01*
X172299Y192271D01*
X172199Y191772D01*
X172299Y191272D01*
X172581Y190849D01*
X173005Y190566D01*
X173504Y190467D01*
X174003Y190566D01*
X174426Y190849D01*
X174709Y191272D01*
X174809Y191772D01*
X174709Y192271D01*
X174426Y192694D01*
X174003Y192977D01*
X173504Y193076D01*
D02*
G37*
G36*
X136535Y181017D02*
X136036Y180918D01*
X135613Y180635D01*
X135330Y180212D01*
X135231Y179713D01*
X135330Y179213D01*
X135613Y178790D01*
X136036Y178507D01*
X136535Y178408D01*
X137035Y178507D01*
X137458Y178790D01*
X137741Y179213D01*
X137840Y179713D01*
X137741Y180212D01*
X137458Y180635D01*
X137035Y180918D01*
X136535Y181017D01*
D02*
G37*
G36*
X185787Y187210D02*
X185288Y187111D01*
X184865Y186828D01*
X184582Y186405D01*
X184483Y185906D01*
X184582Y185406D01*
X184865Y184983D01*
X185288Y184700D01*
X185787Y184601D01*
X186287Y184700D01*
X186710Y184983D01*
X186993Y185406D01*
X187092Y185906D01*
X186993Y186405D01*
X186710Y186828D01*
X186287Y187111D01*
X185787Y187210D01*
D02*
G37*
G36*
X83346Y190438D02*
X82847Y190339D01*
X82424Y190056D01*
X82141Y189633D01*
X82042Y189134D01*
X82141Y188635D01*
X82424Y188211D01*
X82847Y187929D01*
X83346Y187829D01*
X83846Y187929D01*
X84269Y188211D01*
X84552Y188635D01*
X84651Y189134D01*
X84552Y189633D01*
X84269Y190056D01*
X83846Y190339D01*
X83346Y190438D01*
D02*
G37*
G36*
X200197Y189737D02*
X199221Y189608D01*
X198311Y189232D01*
X197529Y188632D01*
X196930Y187851D01*
X196553Y186941D01*
X196424Y185965D01*
X196553Y184988D01*
X196930Y184078D01*
X197529Y183297D01*
X198311Y182697D01*
X199221Y182321D01*
X200197Y182192D01*
X201173Y182321D01*
X202083Y182697D01*
X202864Y183297D01*
X203464Y184078D01*
X203841Y184988D01*
X203969Y185965D01*
X203841Y186941D01*
X203464Y187851D01*
X202864Y188632D01*
X202083Y189232D01*
X201173Y189608D01*
X200197Y189737D01*
D02*
G37*
G36*
X122874Y187368D02*
X122375Y187268D01*
X121951Y186986D01*
X121909Y186923D01*
X121516D01*
X121474Y186986D01*
X121050Y187268D01*
X120551Y187368D01*
X120052Y187268D01*
X119629Y186986D01*
X119346Y186562D01*
X119247Y186063D01*
X119346Y185564D01*
X119629Y185141D01*
X120052Y184858D01*
X120551Y184758D01*
X121050Y184858D01*
X121474Y185141D01*
X121516Y185204D01*
X121909D01*
X121951Y185141D01*
X122375Y184858D01*
X122874Y184758D01*
X123373Y184858D01*
X123796Y185141D01*
X124079Y185564D01*
X124179Y186063D01*
X124079Y186562D01*
X123796Y186986D01*
X123373Y187268D01*
X122874Y187368D01*
D02*
G37*
G36*
X144252Y188824D02*
X143753Y188725D01*
X143330Y188442D01*
X143047Y188019D01*
X142947Y187520D01*
X143047Y187020D01*
X143330Y186597D01*
X143753Y186314D01*
X144252Y186215D01*
X144751Y186314D01*
X145175Y186597D01*
X145457Y187020D01*
X145557Y187520D01*
X145457Y188019D01*
X145175Y188442D01*
X144751Y188725D01*
X144252Y188824D01*
D02*
G37*
G36*
X105984Y187604D02*
X105485Y187504D01*
X105062Y187222D01*
X104779Y186799D01*
X104680Y186299D01*
X104779Y185800D01*
X105062Y185377D01*
X105485Y185094D01*
X105984Y184995D01*
X106483Y185094D01*
X106907Y185377D01*
X107190Y185800D01*
X107289Y186299D01*
X107190Y186799D01*
X106907Y187222D01*
X106483Y187504D01*
X105984Y187604D01*
D02*
G37*
G36*
X102165Y184454D02*
X101666Y184355D01*
X101243Y184072D01*
X100960Y183649D01*
X100861Y183150D01*
X100960Y182650D01*
X101243Y182227D01*
X101666Y181944D01*
X102165Y181845D01*
X102665Y181944D01*
X103088Y182227D01*
X103371Y182650D01*
X103470Y183150D01*
X103371Y183649D01*
X103088Y184072D01*
X102665Y184355D01*
X102165Y184454D01*
D02*
G37*
G36*
X56260Y183667D02*
X55761Y183568D01*
X55337Y183285D01*
X55055Y182861D01*
X54955Y182362D01*
X55055Y181863D01*
X55337Y181440D01*
X55761Y181157D01*
X56260Y181058D01*
X56488Y181103D01*
X56686Y180741D01*
X56472Y180420D01*
X56373Y179921D01*
X56472Y179422D01*
X56662Y179138D01*
X56425Y178784D01*
X56221Y178824D01*
X55721Y178725D01*
X55298Y178442D01*
X55015Y178019D01*
X54916Y177520D01*
X55015Y177020D01*
X55298Y176597D01*
X55721Y176314D01*
X56221Y176215D01*
X56720Y176314D01*
X57143Y176597D01*
X57426Y177020D01*
X57525Y177520D01*
X57426Y178019D01*
X57236Y178303D01*
X57473Y178657D01*
X57677Y178617D01*
X58176Y178716D01*
X58600Y178999D01*
X58882Y179422D01*
X58982Y179921D01*
X58882Y180420D01*
X58600Y180844D01*
X58176Y181126D01*
X57677Y181226D01*
X57449Y181181D01*
X57251Y181543D01*
X57465Y181863D01*
X57564Y182362D01*
X57465Y182861D01*
X57182Y183285D01*
X56759Y183568D01*
X56260Y183667D01*
D02*
G37*
G36*
X181339Y190872D02*
X180839Y190772D01*
X180416Y190489D01*
X180133Y190066D01*
X180034Y189567D01*
X180133Y189068D01*
X180416Y188644D01*
X180839Y188362D01*
X181339Y188262D01*
X181838Y188362D01*
X182261Y188644D01*
X182544Y189068D01*
X182643Y189567D01*
X182544Y190066D01*
X182261Y190489D01*
X181838Y190772D01*
X181339Y190872D01*
D02*
G37*
G36*
X167441Y181186D02*
X166942Y181087D01*
X166518Y180804D01*
X166236Y180381D01*
X166136Y179882D01*
X166236Y179383D01*
X166518Y178959D01*
X166942Y178677D01*
X167441Y178577D01*
X167940Y178677D01*
X168363Y178959D01*
X168646Y179383D01*
X168746Y179882D01*
X168646Y180381D01*
X168363Y180804D01*
X167940Y181087D01*
X167441Y181186D01*
D02*
G37*
G36*
X175906Y184376D02*
X175406Y184276D01*
X174983Y183993D01*
X174700Y183570D01*
X174601Y183071D01*
X174700Y182572D01*
X174983Y182148D01*
X175406Y181866D01*
X175906Y181766D01*
X176405Y181866D01*
X176828Y182148D01*
X177111Y182572D01*
X177210Y183071D01*
X177111Y183570D01*
X176828Y183993D01*
X176405Y184276D01*
X175906Y184376D01*
D02*
G37*
G36*
X171417Y184336D02*
X170918Y184237D01*
X170495Y183954D01*
X170212Y183531D01*
X170113Y183031D01*
X170212Y182532D01*
X170495Y182109D01*
X170918Y181826D01*
X171417Y181727D01*
X171917Y181826D01*
X172340Y182109D01*
X172623Y182532D01*
X172722Y183031D01*
X172623Y183531D01*
X172340Y183954D01*
X171917Y184237D01*
X171417Y184336D01*
D02*
G37*
G36*
X89921Y190872D02*
X89422Y190772D01*
X88999Y190489D01*
X88716Y190066D01*
X88617Y189567D01*
X88716Y189068D01*
X88999Y188644D01*
X89422Y188362D01*
X89921Y188262D01*
X90421Y188362D01*
X90844Y188644D01*
X91127Y189068D01*
X91226Y189567D01*
X91127Y190066D01*
X90844Y190489D01*
X90421Y190772D01*
X89921Y190872D01*
D02*
G37*
G36*
X29213Y194848D02*
X28713Y194749D01*
X28290Y194466D01*
X28007Y194043D01*
X27908Y193543D01*
X28007Y193044D01*
X28290Y192621D01*
X28713Y192338D01*
X29213Y192239D01*
X29712Y192338D01*
X30135Y192621D01*
X30418Y193044D01*
X30517Y193543D01*
X30418Y194043D01*
X30135Y194466D01*
X29712Y194749D01*
X29213Y194848D01*
D02*
G37*
G36*
X178228Y175635D02*
X177729Y175536D01*
X177306Y175253D01*
X177023Y174830D01*
X176924Y174331D01*
X177023Y173831D01*
X177306Y173408D01*
X177729Y173125D01*
X178228Y173026D01*
X178728Y173125D01*
X179151Y173408D01*
X179434Y173831D01*
X179533Y174331D01*
X179434Y174830D01*
X179151Y175253D01*
X178728Y175536D01*
X178228Y175635D01*
D02*
G37*
G36*
X200197Y179737D02*
X199221Y179608D01*
X198311Y179232D01*
X197529Y178632D01*
X196930Y177851D01*
X196553Y176941D01*
X196424Y175964D01*
X196553Y174988D01*
X196930Y174078D01*
X197529Y173297D01*
X198311Y172697D01*
X199221Y172321D01*
X200197Y172192D01*
X201173Y172321D01*
X202083Y172697D01*
X202864Y173297D01*
X203464Y174078D01*
X203841Y174988D01*
X203969Y175964D01*
X203841Y176941D01*
X203464Y177851D01*
X202864Y178632D01*
X202083Y179232D01*
X201173Y179608D01*
X200197Y179737D01*
D02*
G37*
G36*
X180866Y172801D02*
X180367Y172701D01*
X179944Y172418D01*
X179661Y171995D01*
X179562Y171496D01*
X179661Y170997D01*
X179944Y170574D01*
X180367Y170291D01*
X180866Y170192D01*
X181365Y170291D01*
X181789Y170574D01*
X182071Y170997D01*
X182171Y171496D01*
X182071Y171995D01*
X181789Y172418D01*
X181365Y172701D01*
X180866Y172801D01*
D02*
G37*
G36*
X53839Y204651D02*
X53339Y204552D01*
X52916Y204269D01*
X52633Y203846D01*
X52534Y203346D01*
X52605Y202992D01*
X52257Y202756D01*
X51956Y202957D01*
X51457Y203057D01*
X50958Y202957D01*
X50534Y202674D01*
X50251Y202251D01*
X50152Y201752D01*
X50251Y201253D01*
X50534Y200830D01*
X50958Y200547D01*
X51457Y200447D01*
X51956Y200547D01*
X52379Y200830D01*
X52662Y201253D01*
X52761Y201752D01*
X52691Y202106D01*
X53039Y202342D01*
X53339Y202141D01*
X53839Y202042D01*
X54338Y202141D01*
X54477Y202234D01*
X54831Y201997D01*
X54817Y201929D01*
X54917Y201430D01*
X55199Y201007D01*
X55623Y200724D01*
X56122Y200624D01*
X56621Y200724D01*
X57045Y201007D01*
X57327Y201430D01*
X57427Y201929D01*
X57415Y201990D01*
X57769Y202226D01*
X57926Y202121D01*
X58425Y202022D01*
X58924Y202121D01*
X59348Y202404D01*
X59631Y202828D01*
X59730Y203327D01*
X59631Y203826D01*
X59348Y204249D01*
X58924Y204532D01*
X58425Y204631D01*
X57926Y204532D01*
X57503Y204249D01*
X57220Y203826D01*
X57121Y203327D01*
X57133Y203266D01*
X56778Y203029D01*
X56621Y203134D01*
X56122Y203234D01*
X55623Y203134D01*
X55484Y203042D01*
X55130Y203278D01*
X55143Y203346D01*
X55044Y203846D01*
X54761Y204269D01*
X54338Y204552D01*
X53839Y204651D01*
D02*
G37*
G36*
X160709Y214843D02*
X149449D01*
X146575Y211968D01*
Y168740D01*
X143469Y165635D01*
X143268Y165675D01*
X142769Y165575D01*
X142345Y165293D01*
X142062Y164869D01*
X141963Y164370D01*
X142062Y163871D01*
X142345Y163448D01*
X142769Y163165D01*
X142835Y163152D01*
Y148307D01*
X137938Y143410D01*
X137615Y143442D01*
X137192Y143725D01*
X136693Y143824D01*
X136194Y143725D01*
X135770Y143442D01*
X135488Y143019D01*
X135435Y142756D01*
X117346D01*
X117192Y142859D01*
X116693Y142958D01*
X116194Y142859D01*
X116040Y142756D01*
X115354D01*
X109173Y148937D01*
Y150866D01*
X106220Y153819D01*
X97402D01*
X93268Y149685D01*
X90591D01*
X87362Y146457D01*
X77913D01*
X73425Y141969D01*
X47323D01*
X44488Y144803D01*
Y172913D01*
X44882Y173183D01*
X45177Y173125D01*
X45676Y173224D01*
X46100Y173507D01*
X46382Y173930D01*
X46482Y174429D01*
X46382Y174928D01*
X46100Y175352D01*
X45676Y175634D01*
X45177Y175734D01*
X44882Y175675D01*
X44488Y175945D01*
Y187047D01*
X40118Y191417D01*
X36968D01*
X26207Y180656D01*
Y176434D01*
X25905Y176187D01*
X25406Y176087D01*
X24983Y175804D01*
X24700Y175381D01*
X24601Y174882D01*
X24700Y174383D01*
X24983Y173959D01*
X25406Y173677D01*
X25905Y173577D01*
X26012Y173599D01*
X26207Y173439D01*
X33346Y166299D01*
Y140827D01*
X47638Y126535D01*
Y104565D01*
X47473Y104532D01*
X47050Y104249D01*
X46767Y103826D01*
X46668Y103327D01*
X46767Y102828D01*
X47050Y102404D01*
Y102025D01*
X46991Y101986D01*
X46708Y101562D01*
X46609Y101063D01*
X46708Y100564D01*
X46991Y100141D01*
X47414Y99858D01*
X47638Y99813D01*
Y67008D01*
X46811Y66181D01*
Y64235D01*
X46802Y64213D01*
Y45591D01*
X46989Y45139D01*
X64469Y27658D01*
X64921Y27471D01*
X81428D01*
X84361Y24538D01*
Y14803D01*
X84548Y14351D01*
X86279Y12620D01*
X86333Y12520D01*
X86397Y12352D01*
X86457Y12133D01*
X86509Y11864D01*
X86552Y11555D01*
X86567Y11288D01*
X86356Y10780D01*
X86228Y9803D01*
X86356Y8827D01*
X86733Y7917D01*
X87332Y7136D01*
X88114Y6536D01*
X89024Y6159D01*
X90000Y6031D01*
X90976Y6159D01*
X91886Y6536D01*
X92668Y7136D01*
X93267Y7917D01*
X93644Y8827D01*
X93772Y9803D01*
X93644Y10780D01*
X93267Y11689D01*
X92668Y12471D01*
X91886Y13070D01*
X90976Y13447D01*
X90000Y13576D01*
X89024Y13447D01*
X88505Y13232D01*
X88252Y13251D01*
X87940Y13294D01*
X87671Y13347D01*
X87451Y13407D01*
X87283Y13470D01*
X87183Y13524D01*
X85639Y15068D01*
Y24803D01*
X85452Y25255D01*
X82145Y28562D01*
X81693Y28749D01*
X65186D01*
X48080Y45855D01*
Y49646D01*
X51614D01*
X57874Y55905D01*
X65881Y63912D01*
X66378Y63814D01*
X66877Y63913D01*
X67300Y64196D01*
X67583Y64619D01*
X67682Y65118D01*
X67584Y65615D01*
X68819Y66850D01*
X68819Y70424D01*
X68986Y70827D01*
Y92057D01*
X70866Y93937D01*
X79870D01*
X79974Y93749D01*
X80029Y93543D01*
X79779Y93168D01*
X79680Y92669D01*
X79779Y92170D01*
X80062Y91747D01*
X80485Y91464D01*
X80984Y91365D01*
X81484Y91464D01*
X81907Y91747D01*
X82190Y92170D01*
X82289Y92669D01*
X82190Y93168D01*
X81939Y93543D01*
X81994Y93749D01*
X82099Y93937D01*
X101734D01*
X101822Y93806D01*
X102245Y93523D01*
X102744Y93424D01*
X103243Y93523D01*
X103667Y93806D01*
X103754Y93937D01*
X119697D01*
X125809Y100049D01*
X126036Y99897D01*
X126535Y99798D01*
X127035Y99897D01*
X127458Y100180D01*
X127741Y100603D01*
X127840Y101102D01*
X127741Y101602D01*
X127589Y101829D01*
X133334Y107574D01*
X133757Y107857D01*
X134040Y108280D01*
X140287Y114527D01*
X143466D01*
X143499Y114488D01*
X143598Y113989D01*
X143881Y113566D01*
X144304Y113283D01*
X144803Y113184D01*
X145302Y113283D01*
X145726Y113566D01*
X146008Y113989D01*
X146108Y114488D01*
X146140Y114527D01*
X152008D01*
X174843Y137362D01*
Y144095D01*
X164764Y154173D01*
Y171537D01*
X164830Y171551D01*
X165253Y171833D01*
X165536Y172257D01*
X165635Y172756D01*
X165536Y173255D01*
X165253Y173678D01*
X164830Y173961D01*
X164764Y173974D01*
Y183898D01*
X169409Y188543D01*
Y206142D01*
X160709Y214843D01*
D02*
G37*
G36*
X200000Y217121D02*
X198611Y216984D01*
X197275Y216579D01*
X196044Y215921D01*
X194965Y215035D01*
X194079Y213956D01*
X193421Y212725D01*
X193016Y211389D01*
X192879Y210000D01*
X193016Y208611D01*
X193421Y207275D01*
X194079Y206044D01*
X194965Y204965D01*
X196044Y204079D01*
X197275Y203421D01*
X198611Y203016D01*
X200000Y202879D01*
X201389Y203016D01*
X202725Y203421D01*
X203956Y204079D01*
X205035Y204965D01*
X205921Y206044D01*
X206579Y207275D01*
X206984Y208611D01*
X207121Y210000D01*
X206984Y211389D01*
X206579Y212725D01*
X205921Y213956D01*
X205035Y215035D01*
X203956Y215921D01*
X202725Y216579D01*
X201389Y216984D01*
X200000Y217121D01*
D02*
G37*
G36*
X174528Y205557D02*
X174028Y205457D01*
X173605Y205174D01*
X173322Y204751D01*
X173223Y204252D01*
X173322Y203753D01*
X173605Y203329D01*
X174028Y203047D01*
X174528Y202947D01*
X175027Y203047D01*
X175450Y203329D01*
X175733Y203753D01*
X175832Y204252D01*
X175733Y204751D01*
X175450Y205174D01*
X175027Y205457D01*
X174528Y205557D01*
D02*
G37*
G36*
X102559Y170950D02*
X102060Y170851D01*
X101637Y170568D01*
X101354Y170145D01*
X101254Y169646D01*
X101354Y169146D01*
X101637Y168723D01*
X102060Y168440D01*
X102559Y168341D01*
X103058Y168440D01*
X103481Y168723D01*
X103764Y169146D01*
X103864Y169646D01*
X103764Y170145D01*
X103481Y170568D01*
X103058Y170851D01*
X102559Y170950D01*
D02*
G37*
G36*
X169488Y170871D02*
X168989Y170772D01*
X168566Y170489D01*
X168283Y170066D01*
X168184Y169567D01*
X168283Y169068D01*
X168566Y168644D01*
X168989Y168362D01*
X169488Y168262D01*
X169987Y168362D01*
X170411Y168644D01*
X170694Y169068D01*
X170793Y169567D01*
X170694Y170066D01*
X170411Y170489D01*
X169987Y170772D01*
X169488Y170871D01*
D02*
G37*
G36*
X69291Y207210D02*
X68792Y207111D01*
X68369Y206828D01*
X68086Y206405D01*
X67987Y205906D01*
X68086Y205406D01*
X68369Y204983D01*
X68792Y204700D01*
X69291Y204601D01*
X69791Y204700D01*
X70214Y204983D01*
X70497Y205406D01*
X70596Y205906D01*
X70497Y206405D01*
X70214Y206828D01*
X69791Y207111D01*
X69291Y207210D01*
D02*
G37*
G36*
X106653Y170950D02*
X106154Y170851D01*
X105731Y170568D01*
X105448Y170145D01*
X105349Y169646D01*
X105448Y169146D01*
X105731Y168723D01*
X106154Y168440D01*
X106653Y168341D01*
X107153Y168440D01*
X107576Y168723D01*
X107859Y169146D01*
X107958Y169646D01*
X107859Y170145D01*
X107576Y170568D01*
X107153Y170851D01*
X106653Y170950D01*
D02*
G37*
G36*
X103150Y205714D02*
X102650Y205615D01*
X102227Y205332D01*
X101944Y204909D01*
X101845Y204410D01*
X101944Y203910D01*
X102227Y203487D01*
X102650Y203204D01*
X103150Y203105D01*
X103649Y203204D01*
X104072Y203487D01*
X104355Y203910D01*
X104454Y204410D01*
X104355Y204909D01*
X104072Y205332D01*
X103649Y205615D01*
X103150Y205714D01*
D02*
G37*
G36*
X120158Y204903D02*
X119658Y204804D01*
X119235Y204521D01*
X119225Y204505D01*
X118992D01*
X118777Y204544D01*
X118413Y204788D01*
X117913Y204887D01*
X117414Y204788D01*
X116991Y204505D01*
X116897Y204364D01*
X116434Y204348D01*
X116011Y204630D01*
X115512Y204730D01*
X115013Y204630D01*
X114589Y204348D01*
X114306Y203924D01*
X114207Y203425D01*
X114306Y202926D01*
X114589Y202503D01*
X115013Y202220D01*
X115512Y202121D01*
X116011Y202220D01*
X116434Y202503D01*
X116528Y202644D01*
X116991Y202660D01*
X117414Y202377D01*
X117913Y202278D01*
X118413Y202377D01*
X118836Y202660D01*
X118846Y202676D01*
X119079D01*
X119294Y202637D01*
X119658Y202393D01*
X120158Y202294D01*
X120657Y202393D01*
X121080Y202676D01*
X121363Y203099D01*
X121462Y203598D01*
X121363Y204098D01*
X121080Y204521D01*
X120657Y204804D01*
X120158Y204903D01*
D02*
G37*
G36*
X83346Y203627D02*
X82847Y203528D01*
X82424Y203245D01*
X82141Y202822D01*
X82042Y202323D01*
X82141Y201824D01*
X82424Y201400D01*
X82847Y201118D01*
X83346Y201018D01*
X83846Y201118D01*
X84269Y201400D01*
X84552Y201824D01*
X84651Y202323D01*
X84552Y202822D01*
X84269Y203245D01*
X83846Y203528D01*
X83346Y203627D01*
D02*
G37*
G36*
X121102Y198824D02*
X120603Y198725D01*
X120180Y198442D01*
X119897Y198019D01*
X119798Y197520D01*
X119897Y197020D01*
X120180Y196597D01*
X120243Y196555D01*
Y196161D01*
X120180Y196119D01*
X119897Y195696D01*
X119798Y195197D01*
X119897Y194698D01*
X120180Y194274D01*
X120603Y193992D01*
X121102Y193892D01*
X121602Y193992D01*
X122025Y194274D01*
X122308Y194698D01*
X122407Y195197D01*
X122308Y195696D01*
X122025Y196119D01*
X121962Y196161D01*
Y196555D01*
X122025Y196597D01*
X122308Y197020D01*
X122407Y197520D01*
X122308Y198019D01*
X122025Y198442D01*
X121602Y198725D01*
X121102Y198824D01*
D02*
G37*
G36*
X44626Y196836D02*
X44127Y196737D01*
X43703Y196454D01*
X43421Y196031D01*
X43321Y195531D01*
X43421Y195032D01*
X43703Y194609D01*
X44127Y194326D01*
X44626Y194227D01*
X45125Y194326D01*
X45548Y194609D01*
X45831Y195032D01*
X45931Y195531D01*
X45831Y196031D01*
X45548Y196454D01*
X45125Y196737D01*
X44626Y196836D01*
D02*
G37*
G36*
X117047Y197053D02*
X116548Y196953D01*
X116125Y196670D01*
X115842Y196247D01*
X115743Y195748D01*
X115842Y195249D01*
X116125Y194825D01*
X116548Y194543D01*
X117047Y194443D01*
X117546Y194543D01*
X117970Y194825D01*
X118253Y195249D01*
X118352Y195748D01*
X118253Y196247D01*
X117970Y196670D01*
X117546Y196953D01*
X117047Y197053D01*
D02*
G37*
G36*
X25669Y194927D02*
X25170Y194827D01*
X24747Y194544D01*
X24464Y194121D01*
X24365Y193622D01*
X24464Y193123D01*
X24747Y192700D01*
X25170Y192417D01*
X25669Y192317D01*
X26169Y192417D01*
X26592Y192700D01*
X26875Y193123D01*
X26974Y193622D01*
X26875Y194121D01*
X26592Y194544D01*
X26169Y194827D01*
X25669Y194927D01*
D02*
G37*
G36*
X174331Y196344D02*
X173831Y196245D01*
X173408Y195962D01*
X173125Y195539D01*
X173026Y195039D01*
X173125Y194540D01*
X173408Y194117D01*
X173831Y193834D01*
X174331Y193735D01*
X174830Y193834D01*
X175253Y194117D01*
X175536Y194540D01*
X175635Y195039D01*
X175536Y195539D01*
X175253Y195962D01*
X174830Y196245D01*
X174331Y196344D01*
D02*
G37*
G36*
X136831Y196364D02*
X136331Y196264D01*
X135908Y195982D01*
X135625Y195558D01*
X135526Y195059D01*
X135625Y194560D01*
X135908Y194137D01*
X136331Y193854D01*
X136831Y193754D01*
X137330Y193854D01*
X137753Y194137D01*
X138036Y194560D01*
X138135Y195059D01*
X138036Y195558D01*
X137753Y195982D01*
X137330Y196264D01*
X136831Y196364D01*
D02*
G37*
G36*
X171732Y197997D02*
X171233Y197898D01*
X170810Y197615D01*
X170527Y197192D01*
X170428Y196693D01*
X170527Y196194D01*
X170810Y195770D01*
X171233Y195488D01*
X171732Y195388D01*
X172231Y195488D01*
X172655Y195770D01*
X172938Y196194D01*
X173037Y196693D01*
X172938Y197192D01*
X172655Y197615D01*
X172231Y197898D01*
X171732Y197997D01*
D02*
G37*
G36*
X97835Y200360D02*
X97335Y200260D01*
X96912Y199978D01*
X96629Y199554D01*
X96530Y199055D01*
X96629Y198556D01*
X96912Y198133D01*
X97335Y197850D01*
X97835Y197750D01*
X98334Y197850D01*
X98757Y198133D01*
X99040Y198556D01*
X99139Y199055D01*
X99040Y199554D01*
X98757Y199978D01*
X98334Y200260D01*
X97835Y200360D01*
D02*
G37*
G36*
X90236Y202761D02*
X89737Y202662D01*
X89314Y202379D01*
X89031Y201956D01*
X88932Y201457D01*
X89031Y200957D01*
X89314Y200534D01*
X89737Y200251D01*
X90236Y200152D01*
X90736Y200251D01*
X91159Y200534D01*
X91442Y200957D01*
X91541Y201457D01*
X91442Y201956D01*
X91159Y202379D01*
X90736Y202662D01*
X90236Y202761D01*
D02*
G37*
G36*
X108780Y200360D02*
X108280Y200260D01*
X107857Y199978D01*
X107574Y199554D01*
X107475Y199055D01*
X107574Y198556D01*
X107857Y198133D01*
X108280Y197850D01*
X108780Y197750D01*
X109279Y197850D01*
X109702Y198133D01*
X109985Y198556D01*
X110084Y199055D01*
X109985Y199554D01*
X109702Y199978D01*
X109279Y200260D01*
X108780Y200360D01*
D02*
G37*
G36*
X181142Y199415D02*
X180642Y199316D01*
X180219Y199033D01*
X179936Y198609D01*
X179837Y198110D01*
X179936Y197611D01*
X180219Y197188D01*
X180642Y196905D01*
X181142Y196806D01*
X181641Y196905D01*
X182064Y197188D01*
X182347Y197611D01*
X182446Y198110D01*
X182347Y198609D01*
X182064Y199033D01*
X181641Y199316D01*
X181142Y199415D01*
D02*
G37*
G36*
X41831Y199434D02*
X41331Y199335D01*
X40908Y199052D01*
X40625Y198629D01*
X40526Y198130D01*
X40625Y197631D01*
X40908Y197207D01*
X41331Y196925D01*
X41831Y196825D01*
X42330Y196925D01*
X42753Y197207D01*
X43036Y197631D01*
X43135Y198130D01*
X43036Y198629D01*
X42753Y199052D01*
X42330Y199335D01*
X41831Y199434D01*
D02*
G37*
%LPD*%
G36*
X37629Y188091D02*
X37540Y188089D01*
X37453Y188081D01*
X37370Y188066D01*
X37291Y188047D01*
X37214Y188021D01*
X37141Y187989D01*
X37071Y187951D01*
X37004Y187907D01*
X36941Y187857D01*
X36880Y187801D01*
X36463Y188219D01*
X36518Y188279D01*
X36568Y188343D01*
X36612Y188410D01*
X36650Y188480D01*
X36682Y188553D01*
X36708Y188629D01*
X36728Y188709D01*
X36742Y188792D01*
X36750Y188878D01*
X36752Y188968D01*
X37629Y188091D01*
D02*
G37*
G36*
X29352Y174719D02*
X29370Y174509D01*
X29386Y174415D01*
X29407Y174328D01*
X29434Y174247D01*
X29465Y174174D01*
X29502Y174107D01*
X29544Y174048D01*
X29590Y173995D01*
X29312Y173717D01*
X29259Y173763D01*
X29200Y173805D01*
X29133Y173842D01*
X29060Y173873D01*
X28979Y173900D01*
X28892Y173921D01*
X28798Y173938D01*
X28697Y173949D01*
X28589Y173955D01*
X28473Y173957D01*
X29350Y174834D01*
X29352Y174719D01*
D02*
G37*
G36*
X104013Y146270D02*
X103931Y146350D01*
X103770Y146485D01*
X103692Y146541D01*
X103615Y146587D01*
X103539Y146625D01*
X103465Y146655D01*
X103392Y146676D01*
X103321Y146689D01*
X103251Y146693D01*
Y147087D01*
X103321Y147091D01*
X103392Y147104D01*
X103465Y147125D01*
X103539Y147154D01*
X103615Y147192D01*
X103692Y147239D01*
X103770Y147294D01*
X103850Y147357D01*
X103931Y147429D01*
X104013Y147510D01*
Y146270D01*
D02*
G37*
G36*
X50574Y52776D02*
X50528Y52724D01*
X50486Y52664D01*
X50450Y52598D01*
X50418Y52524D01*
X50392Y52444D01*
X50370Y52357D01*
X50354Y52262D01*
X50342Y52161D01*
X50336Y52053D01*
X50335Y51938D01*
X49458Y52815D01*
X49573Y52816D01*
X49782Y52834D01*
X49876Y52851D01*
X49964Y52872D01*
X50044Y52899D01*
X50117Y52930D01*
X50184Y52967D01*
X50244Y53008D01*
X50296Y53055D01*
X50574Y52776D01*
D02*
G37*
G36*
X86934Y13174D02*
X87106Y13082D01*
X87319Y13001D01*
X87573Y12931D01*
X87869Y12873D01*
X88207Y12827D01*
X89006Y12768D01*
X89970Y12756D01*
X87047Y9833D01*
X87047Y10336D01*
X86976Y11596D01*
X86930Y11934D01*
X86872Y12230D01*
X86802Y12484D01*
X86721Y12698D01*
X86629Y12869D01*
X86525Y13000D01*
X86803Y13278D01*
X86934Y13174D01*
D02*
G37*
G36*
X123707Y117390D02*
X123868Y117255D01*
X123946Y117200D01*
X124023Y117153D01*
X124098Y117115D01*
X124173Y117085D01*
X124246Y117064D01*
X124317Y117051D01*
X124387Y117047D01*
Y116654D01*
X124317Y116649D01*
X124246Y116637D01*
X124173Y116615D01*
X124098Y116586D01*
X124023Y116548D01*
X123946Y116501D01*
X123868Y116446D01*
X123788Y116383D01*
X123707Y116311D01*
X123625Y116230D01*
Y117471D01*
X123707Y117390D01*
D02*
G37*
G36*
X117819Y114548D02*
X117772Y114496D01*
X117730Y114436D01*
X117694Y114369D01*
X117662Y114296D01*
X117636Y114216D01*
X117614Y114128D01*
X117598Y114034D01*
X117586Y113933D01*
X117580Y113825D01*
X117579Y113710D01*
X116702Y114587D01*
X116817Y114588D01*
X117026Y114606D01*
X117120Y114622D01*
X117208Y114644D01*
X117288Y114670D01*
X117361Y114702D01*
X117428Y114738D01*
X117488Y114780D01*
X117540Y114827D01*
X117819Y114548D01*
D02*
G37*
G36*
X155070Y209547D02*
X154955Y209546D01*
X154745Y209528D01*
X154651Y209512D01*
X154564Y209490D01*
X154484Y209464D01*
X154410Y209432D01*
X154344Y209396D01*
X154284Y209354D01*
X154231Y209307D01*
X153953Y209586D01*
X154000Y209638D01*
X154041Y209698D01*
X154078Y209765D01*
X154109Y209838D01*
X154136Y209918D01*
X154157Y210006D01*
X154174Y210100D01*
X154185Y210201D01*
X154192Y210309D01*
X154193Y210424D01*
X155070Y209547D01*
D02*
G37*
G36*
X120968Y117698D02*
X120922Y117645D01*
X120880Y117586D01*
X120843Y117519D01*
X120812Y117446D01*
X120785Y117365D01*
X120764Y117278D01*
X120747Y117184D01*
X120736Y117082D01*
X120730Y116974D01*
X120728Y116859D01*
X119851Y117736D01*
X119966Y117737D01*
X120176Y117755D01*
X120270Y117772D01*
X120357Y117793D01*
X120438Y117820D01*
X120511Y117851D01*
X120578Y117888D01*
X120637Y117929D01*
X120690Y117976D01*
X120968Y117698D01*
D02*
G37*
G36*
X108138Y122041D02*
X108003Y121880D01*
X107948Y121802D01*
X107901Y121725D01*
X107863Y121650D01*
X107833Y121575D01*
X107812Y121502D01*
X107799Y121431D01*
X107795Y121361D01*
X107402D01*
X107397Y121431D01*
X107385Y121502D01*
X107363Y121575D01*
X107334Y121650D01*
X107296Y121725D01*
X107249Y121802D01*
X107194Y121880D01*
X107131Y121960D01*
X107059Y122041D01*
X106978Y122123D01*
X108219D01*
X108138Y122041D01*
D02*
G37*
G36*
X120968Y120847D02*
X120922Y120795D01*
X120880Y120735D01*
X120843Y120669D01*
X120812Y120595D01*
X120785Y120515D01*
X120764Y120428D01*
X120747Y120333D01*
X120736Y120232D01*
X120730Y120124D01*
X120728Y120009D01*
X119851Y120886D01*
X119966Y120887D01*
X120176Y120905D01*
X120270Y120921D01*
X120357Y120943D01*
X120438Y120969D01*
X120511Y121001D01*
X120578Y121037D01*
X120637Y121079D01*
X120690Y121126D01*
X120968Y120847D01*
D02*
G37*
G36*
X107756Y117921D02*
X107760Y117852D01*
X107772Y117781D01*
X107793Y117708D01*
X107822Y117632D01*
X107859Y117555D01*
X107904Y117476D01*
X107957Y117395D01*
X108019Y117312D01*
X108167Y117140D01*
X106928Y117195D01*
X107011Y117272D01*
X107150Y117425D01*
X107206Y117501D01*
X107254Y117575D01*
X107293Y117649D01*
X107323Y117723D01*
X107345Y117795D01*
X107358Y117867D01*
X107362Y117939D01*
X107756Y117921D01*
D02*
G37*
G36*
X58567Y85021D02*
X58520Y84968D01*
X58478Y84908D01*
X58442Y84842D01*
X58410Y84768D01*
X58384Y84688D01*
X58362Y84601D01*
X58346Y84506D01*
X58334Y84405D01*
X58328Y84297D01*
X58327Y84182D01*
X57450Y85059D01*
X57565Y85060D01*
X57774Y85078D01*
X57868Y85095D01*
X57956Y85116D01*
X58036Y85142D01*
X58110Y85174D01*
X58176Y85211D01*
X58236Y85252D01*
X58288Y85299D01*
X58567Y85021D01*
D02*
G37*
G36*
X60595Y85577D02*
X60607Y85505D01*
X60629Y85432D01*
X60658Y85358D01*
X60696Y85283D01*
X60743Y85206D01*
X60798Y85127D01*
X60861Y85048D01*
X60933Y84967D01*
X61014Y84885D01*
X59774D01*
X59854Y84967D01*
X59990Y85127D01*
X60044Y85206D01*
X60091Y85283D01*
X60129Y85358D01*
X60159Y85432D01*
X60180Y85505D01*
X60193Y85577D01*
X60197Y85647D01*
X60590D01*
X60595Y85577D01*
D02*
G37*
G36*
X157587Y206884D02*
X157451Y206723D01*
X157396Y206645D01*
X157350Y206568D01*
X157312Y206492D01*
X157282Y206418D01*
X157261Y206345D01*
X157248Y206274D01*
X157244Y206203D01*
X156850D01*
X156846Y206274D01*
X156834Y206345D01*
X156812Y206418D01*
X156783Y206492D01*
X156745Y206568D01*
X156698Y206645D01*
X156643Y206723D01*
X156579Y206803D01*
X156508Y206884D01*
X156427Y206966D01*
X157667D01*
X157587Y206884D01*
D02*
G37*
G36*
X159555Y208183D02*
X159420Y208022D01*
X159365Y207944D01*
X159318Y207867D01*
X159280Y207791D01*
X159251Y207717D01*
X159230Y207644D01*
X159217Y207573D01*
X159213Y207503D01*
X158819D01*
X158815Y207573D01*
X158802Y207644D01*
X158781Y207717D01*
X158751Y207791D01*
X158713Y207867D01*
X158667Y207944D01*
X158612Y208022D01*
X158548Y208102D01*
X158476Y208183D01*
X158396Y208265D01*
X159636D01*
X159555Y208183D01*
D02*
G37*
G36*
X54650Y92782D02*
X54663Y92710D01*
X54684Y92637D01*
X54713Y92563D01*
X54751Y92487D01*
X54798Y92410D01*
X54853Y92332D01*
X54917Y92252D01*
X54988Y92172D01*
X55069Y92089D01*
X53829D01*
X53909Y92172D01*
X54045Y92332D01*
X54100Y92410D01*
X54146Y92487D01*
X54184Y92563D01*
X54214Y92637D01*
X54235Y92710D01*
X54248Y92782D01*
X54252Y92852D01*
X54646D01*
X54650Y92782D01*
D02*
G37*
G36*
X165831Y203608D02*
X165844Y203537D01*
X165865Y203464D01*
X165894Y203390D01*
X165933Y203314D01*
X165979Y203237D01*
X166034Y203159D01*
X166098Y203079D01*
X166170Y202998D01*
X166250Y202916D01*
X165010D01*
X165090Y202998D01*
X165226Y203159D01*
X165281Y203237D01*
X165327Y203314D01*
X165365Y203390D01*
X165395Y203464D01*
X165416Y203537D01*
X165429Y203608D01*
X165433Y203679D01*
X165827D01*
X165831Y203608D01*
D02*
G37*
G36*
X57252Y87131D02*
X57205Y87078D01*
X57163Y87018D01*
X57127Y86951D01*
X57096Y86878D01*
X57071Y86798D01*
X57051Y86711D01*
X57037Y86617D01*
X57028Y86517D01*
X57025Y86410D01*
X57027Y86296D01*
X56123Y87146D01*
X56239Y87150D01*
X56450Y87174D01*
X56545Y87192D01*
X56633Y87216D01*
X56714Y87243D01*
X56787Y87276D01*
X56853Y87313D01*
X56913Y87354D01*
X56965Y87400D01*
X57252Y87131D01*
D02*
G37*
G36*
X105375Y125782D02*
X105393Y125572D01*
X105410Y125478D01*
X105431Y125391D01*
X105457Y125310D01*
X105489Y125237D01*
X105526Y125170D01*
X105567Y125111D01*
X105614Y125058D01*
X105335Y124780D01*
X105283Y124826D01*
X105223Y124868D01*
X105157Y124905D01*
X105083Y124936D01*
X105003Y124963D01*
X104916Y124984D01*
X104821Y125001D01*
X104720Y125012D01*
X104612Y125018D01*
X104497Y125020D01*
X105374Y125897D01*
X105375Y125782D01*
D02*
G37*
G36*
X91881Y137618D02*
X91766Y137617D01*
X91557Y137599D01*
X91462Y137583D01*
X91375Y137561D01*
X91295Y137535D01*
X91221Y137503D01*
X91155Y137467D01*
X91095Y137425D01*
X91042Y137378D01*
X90764Y137657D01*
X90811Y137709D01*
X90852Y137769D01*
X90889Y137835D01*
X90921Y137909D01*
X90947Y137989D01*
X90968Y138076D01*
X90985Y138171D01*
X90996Y138272D01*
X91003Y138380D01*
X91004Y138495D01*
X91881Y137618D01*
D02*
G37*
G36*
X82038D02*
X81923Y137617D01*
X81714Y137599D01*
X81620Y137583D01*
X81533Y137561D01*
X81452Y137535D01*
X81379Y137503D01*
X81312Y137467D01*
X81252Y137425D01*
X81200Y137378D01*
X80922Y137657D01*
X80968Y137709D01*
X81010Y137769D01*
X81046Y137835D01*
X81078Y137909D01*
X81104Y137989D01*
X81126Y138076D01*
X81142Y138171D01*
X81154Y138272D01*
X81160Y138380D01*
X81161Y138495D01*
X82038Y137618D01*
D02*
G37*
G36*
X107629Y134469D02*
X107514Y134467D01*
X107305Y134449D01*
X107210Y134433D01*
X107123Y134412D01*
X107043Y134385D01*
X106969Y134353D01*
X106903Y134317D01*
X106843Y134275D01*
X106790Y134229D01*
X106512Y134507D01*
X106559Y134560D01*
X106600Y134619D01*
X106637Y134686D01*
X106668Y134759D01*
X106695Y134840D01*
X106717Y134927D01*
X106733Y135021D01*
X106744Y135122D01*
X106751Y135230D01*
X106752Y135345D01*
X107629Y134469D01*
D02*
G37*
G36*
X94245Y139583D02*
X94304Y139541D01*
X94371Y139505D01*
X94444Y139473D01*
X94525Y139447D01*
X94612Y139425D01*
X94706Y139409D01*
X94807Y139397D01*
X94915Y139391D01*
X95030Y139390D01*
X94154Y138513D01*
X94152Y138628D01*
X94134Y138837D01*
X94118Y138931D01*
X94097Y139019D01*
X94070Y139099D01*
X94038Y139172D01*
X94002Y139239D01*
X93960Y139299D01*
X93914Y139351D01*
X94192Y139630D01*
X94245Y139583D01*
D02*
G37*
G36*
X172981Y140781D02*
X172845Y140621D01*
X172790Y140542D01*
X172744Y140465D01*
X172705Y140390D01*
X172676Y140316D01*
X172655Y140243D01*
X172642Y140171D01*
X172638Y140101D01*
X172244D01*
X172240Y140171D01*
X172227Y140243D01*
X172206Y140316D01*
X172176Y140390D01*
X172138Y140465D01*
X172092Y140542D01*
X172037Y140621D01*
X171973Y140700D01*
X171901Y140781D01*
X171821Y140863D01*
X173061D01*
X172981Y140781D01*
D02*
G37*
G36*
X169004Y140742D02*
X168869Y140581D01*
X168814Y140503D01*
X168767Y140426D01*
X168729Y140350D01*
X168700Y140276D01*
X168678Y140203D01*
X168666Y140132D01*
X168661Y140061D01*
X168268D01*
X168263Y140132D01*
X168251Y140203D01*
X168230Y140276D01*
X168200Y140350D01*
X168162Y140426D01*
X168115Y140503D01*
X168060Y140581D01*
X167997Y140661D01*
X167925Y140742D01*
X167844Y140824D01*
X169085D01*
X169004Y140742D01*
D02*
G37*
G36*
X50574Y57816D02*
X50528Y57763D01*
X50486Y57704D01*
X50450Y57637D01*
X50418Y57564D01*
X50392Y57483D01*
X50370Y57396D01*
X50354Y57302D01*
X50342Y57200D01*
X50336Y57092D01*
X50335Y56977D01*
X49458Y57854D01*
X49573Y57856D01*
X49782Y57873D01*
X49876Y57890D01*
X49964Y57911D01*
X50044Y57938D01*
X50117Y57969D01*
X50184Y58006D01*
X50244Y58048D01*
X50296Y58094D01*
X50574Y57816D01*
D02*
G37*
G36*
X104479Y131319D02*
X104364Y131318D01*
X104155Y131300D01*
X104061Y131283D01*
X103973Y131262D01*
X103893Y131235D01*
X103820Y131204D01*
X103753Y131167D01*
X103693Y131126D01*
X103641Y131079D01*
X103363Y131357D01*
X103409Y131410D01*
X103451Y131470D01*
X103487Y131536D01*
X103519Y131609D01*
X103545Y131690D01*
X103567Y131777D01*
X103583Y131871D01*
X103595Y131973D01*
X103601Y132081D01*
X103602Y132196D01*
X104479Y131319D01*
D02*
G37*
G36*
X50623Y126945D02*
X50682Y126904D01*
X50749Y126867D01*
X50822Y126836D01*
X50902Y126809D01*
X50990Y126787D01*
X51084Y126771D01*
X51185Y126760D01*
X51293Y126753D01*
X51408Y126752D01*
X50532Y125875D01*
X50530Y125990D01*
X50512Y126199D01*
X50496Y126294D01*
X50475Y126381D01*
X50448Y126461D01*
X50416Y126535D01*
X50380Y126601D01*
X50338Y126661D01*
X50292Y126714D01*
X50570Y126992D01*
X50623Y126945D01*
D02*
G37*
G36*
X120730Y125782D02*
X120747Y125572D01*
X120764Y125478D01*
X120785Y125391D01*
X120812Y125310D01*
X120843Y125237D01*
X120880Y125170D01*
X120922Y125111D01*
X120968Y125058D01*
X120690Y124780D01*
X120637Y124826D01*
X120578Y124868D01*
X120511Y124905D01*
X120438Y124936D01*
X120357Y124963D01*
X120270Y124984D01*
X120176Y125001D01*
X120074Y125012D01*
X119966Y125018D01*
X119851Y125020D01*
X120728Y125897D01*
X120730Y125782D01*
D02*
G37*
G36*
X108813Y132962D02*
X108757Y132902D01*
X108707Y132838D01*
X108663Y132772D01*
X108626Y132701D01*
X108594Y132628D01*
X108568Y132552D01*
X108548Y132472D01*
X108534Y132389D01*
X108526Y132303D01*
X108524Y132214D01*
X107647Y133090D01*
X107736Y133093D01*
X107822Y133101D01*
X107905Y133115D01*
X107985Y133135D01*
X108061Y133161D01*
X108134Y133193D01*
X108204Y133230D01*
X108271Y133274D01*
X108335Y133324D01*
X108395Y133380D01*
X108813Y132962D01*
D02*
G37*
G36*
X81999Y134469D02*
X81884Y134467D01*
X81675Y134449D01*
X81580Y134433D01*
X81493Y134412D01*
X81413Y134385D01*
X81339Y134353D01*
X81273Y134317D01*
X81213Y134275D01*
X81160Y134229D01*
X80882Y134507D01*
X80929Y134560D01*
X80970Y134619D01*
X81007Y134686D01*
X81038Y134759D01*
X81065Y134840D01*
X81086Y134927D01*
X81103Y135021D01*
X81114Y135122D01*
X81121Y135230D01*
X81122Y135345D01*
X81999Y134469D01*
D02*
G37*
G36*
X50614Y62776D02*
X50567Y62724D01*
X50526Y62664D01*
X50489Y62598D01*
X50458Y62524D01*
X50431Y62444D01*
X50410Y62357D01*
X50393Y62262D01*
X50382Y62161D01*
X50375Y62053D01*
X50374Y61938D01*
X49497Y62815D01*
X49612Y62816D01*
X49821Y62834D01*
X49916Y62850D01*
X50003Y62872D01*
X50083Y62898D01*
X50157Y62930D01*
X50223Y62967D01*
X50283Y63008D01*
X50336Y63055D01*
X50614Y62776D01*
D02*
G37*
G36*
X104479Y134468D02*
X104364Y134467D01*
X104155Y134449D01*
X104061Y134433D01*
X103973Y134412D01*
X103893Y134385D01*
X103820Y134353D01*
X103753Y134317D01*
X103693Y134275D01*
X103641Y134229D01*
X103363Y134507D01*
X103409Y134560D01*
X103451Y134619D01*
X103487Y134686D01*
X103519Y134759D01*
X103545Y134839D01*
X103567Y134927D01*
X103583Y135021D01*
X103595Y135122D01*
X103601Y135230D01*
X103602Y135345D01*
X104479Y134468D01*
D02*
G37*
D10*
X34764Y186102D02*
X37638Y188976D01*
X79173Y144291D02*
X89488D01*
X106417Y139291D02*
X109331Y136378D01*
Y133898D02*
Y136378D01*
X107638Y132205D02*
X109331Y133898D01*
X34764Y177244D02*
Y186102D01*
Y177244D02*
X41850Y170158D01*
X44291Y141102D02*
X75984D01*
X41850Y143543D02*
X44291Y141102D01*
X41850Y143543D02*
Y170158D01*
X75984Y141102D02*
X79173Y144291D01*
X89488D02*
X96417Y151221D01*
X105512D01*
X106417Y150315D01*
Y139291D02*
Y150315D01*
D55*
X56102Y86260D02*
X58071Y88228D01*
X28465Y174843D02*
X34843Y168465D01*
Y142441D02*
Y168465D01*
Y142441D02*
X51417Y125866D01*
X57441Y84173D02*
X59213Y85945D01*
X58071Y88228D02*
Y124094D01*
X59213Y85945D02*
Y123583D01*
X69803Y134173D01*
X98740Y146890D02*
X104646D01*
X81221Y140197D02*
X93347D01*
X69803Y134173D02*
X77716D01*
X82047Y138504D01*
X93347Y140197D02*
X95039Y138504D01*
X60394Y122992D02*
X70551Y133150D01*
X60394Y84252D02*
Y122992D01*
X70551Y133150D02*
X79803D01*
X82008Y135354D01*
X106063Y133780D02*
X107638Y135354D01*
X106063Y128189D02*
Y133780D01*
X105315Y127441D02*
X106063Y128189D01*
X102913Y133780D02*
X104488Y135354D01*
X102913Y130630D02*
X104488Y132205D01*
X81732Y130276D02*
X85236Y133780D01*
X102913D01*
X85905Y128858D02*
X87677Y130630D01*
X102913D01*
X68779Y112461D02*
X69508Y111732D01*
X68779Y110216D02*
X69508Y110945D01*
X158189Y211063D02*
X161063D01*
X153740Y206614D02*
X158189Y211063D01*
X165630Y202283D02*
Y206496D01*
X161063Y211063D02*
X165630Y206496D01*
X155315Y200142D02*
X157047Y201874D01*
X155315Y130787D02*
Y200142D01*
X156890Y199606D02*
X159016Y201732D01*
X151693Y148150D02*
Y177126D01*
X149921Y178898D02*
X151693Y177126D01*
X149921Y178898D02*
Y205276D01*
X155079Y210433D01*
X119606Y122953D02*
X128622D01*
X118130Y124429D02*
X119606Y122953D01*
X121575Y121732D02*
X146260D01*
X119843Y120000D02*
X121575Y121732D01*
X105965Y124429D02*
X118130D01*
X104488Y125906D02*
X105965Y124429D01*
X121622Y124126D02*
X127669D01*
X157047Y201874D02*
Y207598D01*
X159016Y201732D02*
Y208898D01*
X119843Y125906D02*
X121622Y124126D01*
X147126Y120158D02*
X156890Y129921D01*
Y199606D01*
X131260Y120158D02*
X147126D01*
X146260Y121732D02*
X155315Y130787D01*
X153740Y132756D02*
Y206614D01*
X128622Y122953D02*
X132441Y126772D01*
X147756D01*
X153740Y132756D01*
X148465Y144921D02*
X151693Y148150D01*
X148465Y130827D02*
Y144921D01*
X127669Y124126D02*
X131693Y128150D01*
X145787D01*
X148465Y130827D01*
X119843Y116850D02*
X121417Y118425D01*
X124134D01*
X124646Y117913D01*
X129016D01*
X131260Y120158D01*
X116693Y113701D02*
X118268Y115276D01*
X132480D01*
X133898Y116693D01*
X151063D01*
X122992Y116850D02*
X132126D01*
X132913Y117638D01*
X151063Y116693D02*
X172441Y138071D01*
Y141496D01*
X132913Y117638D02*
X150315D01*
X168465Y135787D01*
Y141457D01*
X107520Y116535D02*
X107559Y116575D01*
X107319Y119728D02*
X107559Y119488D01*
Y116575D02*
Y119488D01*
X79925Y119728D02*
X107319D01*
X107209Y120516D02*
X107598Y120905D01*
Y122756D01*
X79599Y120516D02*
X107209D01*
X69508Y111732D02*
X70816D01*
X79599Y120516D01*
X69508Y110945D02*
X71142D01*
X79925Y119728D01*
X89410Y136024D02*
X91890Y138504D01*
X85551Y136024D02*
X89410D01*
X81890Y132362D02*
X85551Y136024D01*
X66732Y108110D02*
X68347Y106496D01*
Y70827D02*
Y106496D01*
X49449Y51929D02*
X68347Y70827D01*
X72559Y128858D02*
X85905D01*
X64842Y121142D02*
X72559Y128858D01*
X64842Y72362D02*
Y121142D01*
X49449Y56968D02*
X64842Y72362D01*
X72047Y130276D02*
X81732D01*
X72008Y132362D02*
X81890D01*
X62047Y122401D02*
X72008Y132362D01*
X63504Y121732D02*
X72047Y130276D01*
X47441Y45591D02*
X64921Y28110D01*
X81693D01*
X66732Y108110D02*
Y120630D01*
X73543Y127441D01*
X105315D01*
X49488Y61929D02*
X63504Y75945D01*
Y121732D01*
X47441Y45591D02*
Y64213D01*
X62047Y78819D01*
Y122401D01*
X93228Y141378D02*
X98740Y146890D01*
X80512Y141378D02*
X93228D01*
X75472Y136339D02*
X80512Y141378D01*
X58071Y124094D02*
X69213Y135236D01*
X76260D01*
X81221Y140197D01*
X54449Y91457D02*
Y122244D01*
X68543Y136339D01*
X75472D01*
X81693Y28110D02*
X85000Y24803D01*
Y14803D02*
Y24803D01*
Y14803D02*
X90000Y9803D01*
D64*
X100000D02*
D03*
D65*
Y19803D02*
D03*
X90000Y9803D02*
D03*
Y19803D02*
D03*
X80000Y9803D02*
D03*
Y19803D02*
D03*
X70000Y9803D02*
D03*
Y19803D02*
D03*
X10000Y20000D02*
D03*
Y60000D02*
D03*
Y50000D02*
D03*
Y40000D02*
D03*
Y30000D02*
D03*
X200197Y185965D02*
D03*
Y195965D02*
D03*
Y175964D02*
D03*
Y165964D02*
D03*
Y145965D02*
D03*
Y135965D02*
D03*
Y125964D02*
D03*
Y115964D02*
D03*
Y155965D02*
D03*
X10000Y110000D02*
D03*
Y150000D02*
D03*
Y140000D02*
D03*
Y130000D02*
D03*
Y120000D02*
D03*
Y100000D02*
D03*
Y90000D02*
D03*
X156378Y262087D02*
D03*
X200000Y70000D02*
D03*
Y30000D02*
D03*
Y40000D02*
D03*
Y50000D02*
D03*
Y60000D02*
D03*
Y80000D02*
D03*
Y90000D02*
D03*
D66*
X10000Y70000D02*
D03*
X200197Y105965D02*
D03*
X10000Y160000D02*
D03*
X200000Y20000D02*
D03*
D67*
X156378Y252087D02*
D03*
D68*
X107520Y116535D02*
D03*
X37638Y188976D02*
D03*
X28464Y166811D02*
D03*
X28465Y174843D02*
D03*
X25905Y174882D02*
D03*
X25669Y193622D02*
D03*
X29213Y193543D02*
D03*
X40295Y184902D02*
D03*
X40276Y175354D02*
D03*
X60748Y180039D02*
D03*
X57677Y179921D02*
D03*
X56221Y177520D02*
D03*
X59606Y177598D02*
D03*
X59488Y182402D02*
D03*
X56260Y182362D02*
D03*
X59862Y208681D02*
D03*
X57303Y208642D02*
D03*
X54744Y208642D02*
D03*
X52185Y208681D02*
D03*
X41831Y198130D02*
D03*
X44626Y195531D02*
D03*
X53839Y203346D02*
D03*
X56122Y201929D02*
D03*
X51457Y201752D02*
D03*
X58425Y203327D02*
D03*
X41575Y202047D02*
D03*
Y204488D02*
D03*
X43976D02*
D03*
X46457D02*
D03*
X51417Y125866D02*
D03*
X66023Y147677D02*
D03*
X57579Y158091D02*
D03*
X48327D02*
D03*
Y146083D02*
D03*
X57579D02*
D03*
X66299Y139370D02*
D03*
X62323Y138465D02*
D03*
X38937Y160847D02*
D03*
X45177Y174429D02*
D03*
X42697Y174429D02*
D03*
X39106Y150366D02*
D03*
X67756Y167874D02*
D03*
X37402Y263661D02*
D03*
X57441Y84173D02*
D03*
X56142Y86260D02*
D03*
X54449Y91457D02*
D03*
X49449Y51929D02*
D03*
Y56968D02*
D03*
X49488Y61929D02*
D03*
X68779Y110216D02*
D03*
Y112461D02*
D03*
X77008Y110354D02*
D03*
X102559Y169646D02*
D03*
X106653D02*
D03*
X128937Y150984D02*
D03*
X136693Y142520D02*
D03*
X78110Y113898D02*
D03*
X110591Y138858D02*
D03*
X104291Y156968D02*
D03*
X50709Y223622D02*
D03*
X79043Y265878D02*
D03*
X95886Y261319D02*
D03*
X84606Y235748D02*
D03*
X88189Y237520D02*
D03*
X91693Y239213D02*
D03*
X68504Y248701D02*
D03*
X78425Y231929D02*
D03*
X77244Y241102D02*
D03*
X73701Y241063D02*
D03*
X101024Y122756D02*
D03*
X94646Y116457D02*
D03*
X104095Y116850D02*
D03*
X107598Y122756D02*
D03*
X84921Y116724D02*
D03*
X85591Y113701D02*
D03*
X91890Y125906D02*
D03*
X88740D02*
D03*
Y129055D02*
D03*
X102165Y183150D02*
D03*
X105984Y186299D02*
D03*
X98583Y178307D02*
D03*
X98425Y181220D02*
D03*
X89921Y189567D02*
D03*
X100236Y190039D02*
D03*
X98228Y188150D02*
D03*
X96220Y191890D02*
D03*
X110039Y190945D02*
D03*
X182815Y246634D02*
D03*
X179842Y242520D02*
D03*
X180866Y248583D02*
D03*
X203543Y250945D02*
D03*
X203583Y255236D02*
D03*
X168425Y255196D02*
D03*
X168386Y250905D02*
D03*
X109370Y255196D02*
D03*
X109331Y250905D02*
D03*
X144528Y255236D02*
D03*
X144488Y250945D02*
D03*
X206496Y265866D02*
D03*
X206378Y260236D02*
D03*
X165472Y265866D02*
D03*
X165354Y260236D02*
D03*
X147441Y265866D02*
D03*
X147323Y260236D02*
D03*
X106299D02*
D03*
X106417Y265866D02*
D03*
X121063Y248465D02*
D03*
X119449Y240984D02*
D03*
X122087Y240945D02*
D03*
X123504Y246969D02*
D03*
X117047Y195748D02*
D03*
X120551Y186063D02*
D03*
X122874D02*
D03*
X125748Y165315D02*
D03*
X130157Y161772D02*
D03*
X133661Y164370D02*
D03*
X131260D02*
D03*
X121102Y197520D02*
D03*
Y195197D02*
D03*
X133898Y210748D02*
D03*
X131457D02*
D03*
X149882Y210709D02*
D03*
X152244D02*
D03*
X169764Y155354D02*
D03*
X169724Y157638D02*
D03*
X149173Y160276D02*
D03*
X149961Y153937D02*
D03*
X145630Y164331D02*
D03*
X143268Y164370D02*
D03*
X169488Y169567D02*
D03*
X181142Y179488D02*
D03*
X175906Y183071D02*
D03*
X178228Y174331D02*
D03*
X180866Y171496D02*
D03*
X173504Y161339D02*
D03*
X167441Y179882D02*
D03*
X171417Y183031D02*
D03*
X161339Y164331D02*
D03*
X158898Y164331D02*
D03*
X171732Y196693D02*
D03*
X173504Y191772D02*
D03*
X167520Y194843D02*
D03*
Y192441D02*
D03*
X165591Y197008D02*
D03*
X167520Y190039D02*
D03*
X120158Y203598D02*
D03*
X117913Y203583D02*
D03*
X103996Y220374D02*
D03*
X104055Y218071D02*
D03*
X53228Y88701D02*
D03*
X50965Y88760D02*
D03*
X47972Y103327D02*
D03*
X47913Y101063D02*
D03*
X31063Y108110D02*
D03*
X31063Y113937D02*
D03*
X37087Y119646D02*
D03*
X37126Y108110D02*
D03*
X43937Y97205D02*
D03*
X26984Y97268D02*
D03*
X19410Y86925D02*
D03*
Y66929D02*
D03*
X38819Y70000D02*
D03*
X39803Y75512D02*
D03*
X40000Y80551D02*
D03*
X40083Y84413D02*
D03*
X110551Y92087D02*
D03*
X66378Y72047D02*
D03*
X74016Y72047D02*
D03*
X66378Y79055D02*
D03*
X74016Y79055D02*
D03*
X74016Y65118D02*
D03*
X66378Y65118D02*
D03*
X66378Y58110D02*
D03*
X74016Y58110D02*
D03*
X94606Y73504D02*
D03*
X94835Y65728D02*
D03*
X94842Y75917D02*
D03*
X82504Y56988D02*
D03*
X112228Y62035D02*
D03*
X110134Y60740D02*
D03*
X110476Y63437D02*
D03*
X102701Y64311D02*
D03*
X86441Y68583D02*
D03*
X86791Y71929D02*
D03*
X84953Y56996D02*
D03*
X86980Y58272D02*
D03*
X105681Y57988D02*
D03*
X120012Y106913D02*
D03*
X101154Y107189D02*
D03*
X104264Y107106D02*
D03*
X116689Y86693D02*
D03*
X113087Y86681D02*
D03*
X115512Y203425D02*
D03*
X132835Y108780D02*
D03*
X123386Y101102D02*
D03*
X126142Y104252D02*
D03*
X126535Y101102D02*
D03*
X88346Y97953D02*
D03*
X107638Y135354D02*
D03*
X124764Y145197D02*
D03*
X132835Y140276D02*
D03*
X93268Y145197D02*
D03*
X118465Y97559D02*
D03*
X91496Y122756D02*
D03*
X102717Y97559D02*
D03*
X107638Y113701D02*
D03*
Y110551D02*
D03*
Y125906D02*
D03*
Y129055D02*
D03*
Y132205D02*
D03*
X88740Y113701D02*
D03*
Y104252D02*
D03*
Y101102D02*
D03*
X91890Y107402D02*
D03*
Y104252D02*
D03*
Y101102D02*
D03*
X95039Y110551D02*
D03*
Y107402D02*
D03*
Y104252D02*
D03*
Y101102D02*
D03*
X97941Y110197D02*
D03*
X98189Y104252D02*
D03*
X101421Y114114D02*
D03*
X101350Y110342D02*
D03*
X101339Y104252D02*
D03*
X104638Y114071D02*
D03*
X104350Y110299D02*
D03*
X104488Y104252D02*
D03*
X98189Y141654D02*
D03*
X104488Y138504D02*
D03*
X101339D02*
D03*
X98189D02*
D03*
X95039D02*
D03*
X88740D02*
D03*
X104488Y135354D02*
D03*
X101339D02*
D03*
X98189D02*
D03*
X91890D02*
D03*
X104488Y132205D02*
D03*
X101339D02*
D03*
X98189D02*
D03*
X95039D02*
D03*
X91890D02*
D03*
X88740D02*
D03*
X104488Y129055D02*
D03*
X101339D02*
D03*
X98189D02*
D03*
X95039D02*
D03*
X91890D02*
D03*
X104488Y125906D02*
D03*
X101339D02*
D03*
X98189D02*
D03*
X95039D02*
D03*
Y122756D02*
D03*
X104331Y122795D02*
D03*
X129291Y135354D02*
D03*
X126142Y129055D02*
D03*
Y132205D02*
D03*
Y135354D02*
D03*
X122992Y132205D02*
D03*
Y138504D02*
D03*
X119843Y125906D02*
D03*
Y129055D02*
D03*
Y132205D02*
D03*
X116693Y125906D02*
D03*
Y129055D02*
D03*
Y141654D02*
D03*
X113543Y125906D02*
D03*
Y129055D02*
D03*
Y135354D02*
D03*
X113543Y120000D02*
D03*
X116693D02*
D03*
X119843D02*
D03*
X122992D02*
D03*
Y116850D02*
D03*
X119843D02*
D03*
X116693D02*
D03*
X119843Y113701D02*
D03*
X116693D02*
D03*
X113543D02*
D03*
X126142Y110551D02*
D03*
X122992D02*
D03*
X119760Y110925D02*
D03*
X116504Y110776D02*
D03*
X113543Y110551D02*
D03*
X116823Y107019D02*
D03*
X113543Y107402D02*
D03*
X122992Y104252D02*
D03*
X113543Y101102D02*
D03*
X132835Y124528D02*
D03*
X109016Y145197D02*
D03*
X124173Y174724D02*
D03*
X164331Y172756D02*
D03*
Y200315D02*
D03*
X143268Y207598D02*
D03*
X126535Y119606D02*
D03*
X101339Y141654D02*
D03*
X136831Y195059D02*
D03*
X151850Y195169D02*
D03*
X136535Y179713D02*
D03*
X144252Y187520D02*
D03*
X151850Y179783D02*
D03*
X155079Y210433D02*
D03*
X165630Y202283D02*
D03*
X157047Y207598D02*
D03*
X159016Y208898D02*
D03*
X96831Y56957D02*
D03*
X94854Y58272D02*
D03*
X100768Y56957D02*
D03*
X98791Y58272D02*
D03*
X102728D02*
D03*
X79571Y63689D02*
D03*
X78256Y65650D02*
D03*
X79571Y67626D02*
D03*
X78256Y69587D02*
D03*
X79571Y71563D02*
D03*
X92634Y65284D02*
D03*
X90760Y63567D02*
D03*
X110106Y78469D02*
D03*
X96811Y73831D02*
D03*
X98768Y75173D02*
D03*
X102693Y83343D02*
D03*
X99567Y87721D02*
D03*
X98006Y91486D02*
D03*
X97323Y89256D02*
D03*
X95319Y80918D02*
D03*
X105236Y86295D02*
D03*
X102744Y94728D02*
D03*
X111520Y80350D02*
D03*
X109906Y84181D02*
D03*
X110114Y73055D02*
D03*
X112634Y71524D02*
D03*
X112689Y76091D02*
D03*
X104791Y73417D02*
D03*
X90902Y81090D02*
D03*
X93067Y83366D02*
D03*
X88711Y83429D02*
D03*
X98772Y81039D02*
D03*
X99039Y84941D02*
D03*
X82024Y81035D02*
D03*
X85677Y83882D02*
D03*
X80984Y92669D02*
D03*
X81921Y84291D02*
D03*
X87559Y75524D02*
D03*
X81453Y87468D02*
D03*
X84622Y73488D02*
D03*
X89472Y68594D02*
D03*
X88968Y70807D02*
D03*
X90492Y74189D02*
D03*
X78138Y73543D02*
D03*
X79295Y75504D02*
D03*
X93146Y88205D02*
D03*
X70382Y259287D02*
D03*
X79043D02*
D03*
X85197Y130827D02*
D03*
X82008Y135354D02*
D03*
X82047Y138504D02*
D03*
X101339Y144803D02*
D03*
X104646Y146890D02*
D03*
X19449Y51929D02*
D03*
Y56929D02*
D03*
Y61929D02*
D03*
Y71929D02*
D03*
Y81929D02*
D03*
X104331Y149331D02*
D03*
X101811Y157795D02*
D03*
X107087Y157756D02*
D03*
X142244Y111929D02*
D03*
X144803Y114488D02*
D03*
X145866Y140591D02*
D03*
X163937Y140827D02*
D03*
X159606Y143740D02*
D03*
X150630Y143701D02*
D03*
X137559Y124528D02*
D03*
X140236D02*
D03*
X142756D02*
D03*
X145591D02*
D03*
X136142Y114764D02*
D03*
X138465D02*
D03*
X141417Y135886D02*
D03*
X137441Y135846D02*
D03*
X151634Y106713D02*
D03*
X158602Y108287D02*
D03*
X153937Y108110D02*
D03*
X156220Y106693D02*
D03*
X143524Y106280D02*
D03*
X145846D02*
D03*
X145827Y103878D02*
D03*
X143484Y103917D02*
D03*
X178366Y111004D02*
D03*
X169862Y106634D02*
D03*
X167264Y103957D02*
D03*
X175079Y94744D02*
D03*
X173661Y92461D02*
D03*
X173484Y97126D02*
D03*
X175059Y90158D02*
D03*
X173779Y107008D02*
D03*
X176221D02*
D03*
Y104606D02*
D03*
Y102126D02*
D03*
X141417Y98504D02*
D03*
X143661Y98543D02*
D03*
X145945D02*
D03*
X148307Y98583D02*
D03*
X147795Y70551D02*
D03*
X145433Y70512D02*
D03*
X143150D02*
D03*
X140905Y70472D02*
D03*
X175709Y74094D02*
D03*
Y76575D02*
D03*
Y78976D02*
D03*
X173268D02*
D03*
X174547Y62126D02*
D03*
X172972Y69095D02*
D03*
X173150Y64429D02*
D03*
X174567Y66713D02*
D03*
X166752Y75925D02*
D03*
X169350Y78720D02*
D03*
X142992Y51260D02*
D03*
X151890D02*
D03*
X152323Y79449D02*
D03*
X143425D02*
D03*
X143465Y85866D02*
D03*
X152342Y85886D02*
D03*
X143012Y57697D02*
D03*
X151929Y57677D02*
D03*
X185787Y185906D02*
D03*
X185748Y190276D02*
D03*
X82559Y152323D02*
D03*
Y165591D02*
D03*
X172441Y141496D02*
D03*
X168465Y141457D02*
D03*
X172480Y149291D02*
D03*
X103150Y204410D02*
D03*
X97559Y209961D02*
D03*
X108701Y209803D02*
D03*
X108780Y199055D02*
D03*
X97835D02*
D03*
X90118Y207402D02*
D03*
X90236Y201457D02*
D03*
X137677Y232598D02*
D03*
X140433Y246772D02*
D03*
X150039Y228740D02*
D03*
X147913Y231496D02*
D03*
X152126Y231417D02*
D03*
Y226024D02*
D03*
X147913D02*
D03*
X166654Y224921D02*
D03*
X158504Y234646D02*
D03*
X161181Y217362D02*
D03*
X163622Y215118D02*
D03*
X165394Y217284D02*
D03*
X169528Y217205D02*
D03*
X167047Y215039D02*
D03*
X169685Y220945D02*
D03*
X173071Y220905D02*
D03*
X171457Y224016D02*
D03*
X165512Y239961D02*
D03*
X169606Y240000D02*
D03*
X167756Y238228D02*
D03*
X170158Y228386D02*
D03*
X106102Y223858D02*
D03*
X176496Y237323D02*
D03*
X174173Y239213D02*
D03*
X176535Y241535D02*
D03*
X173779Y243543D02*
D03*
X176260Y244843D02*
D03*
X192953Y246693D02*
D03*
X195866D02*
D03*
X198898D02*
D03*
X197559Y244331D02*
D03*
X194882D02*
D03*
X198268Y232362D02*
D03*
X94803Y229449D02*
D03*
X126417Y208740D02*
D03*
X129055Y211575D02*
D03*
X112598Y222047D02*
D03*
X115787Y215748D02*
D03*
X115079Y219213D02*
D03*
X66614Y90315D02*
D03*
X72047Y84724D02*
D03*
X39331Y62717D02*
D03*
X39016Y52284D02*
D03*
X191220Y229095D02*
D03*
X186890Y220276D02*
D03*
X181929Y215197D02*
D03*
X181024Y206339D02*
D03*
X181142Y198110D02*
D03*
X181339Y189567D02*
D03*
X174331Y195039D02*
D03*
X174528Y204252D02*
D03*
X174449Y214173D02*
D03*
X177205Y222165D02*
D03*
X184488Y231181D02*
D03*
X107874Y231102D02*
D03*
X144724Y213189D02*
D03*
X132283Y213268D02*
D03*
X113150Y244449D02*
D03*
X61890Y237598D02*
D03*
X68032Y177520D02*
D03*
X83150Y176535D02*
D03*
X83346Y189134D02*
D03*
Y202323D02*
D03*
X69410Y191260D02*
D03*
X69291Y205906D02*
D03*
X89567Y231339D02*
D03*
X65709Y234252D02*
D03*
X185039Y154055D02*
D03*
X186378Y167323D02*
D03*
X176496Y145709D02*
D03*
X184961Y60118D02*
D03*
X69567Y161063D02*
D03*
X66890Y145000D02*
D03*
X43819Y209685D02*
D03*
X73858Y110079D02*
D03*
X114134Y234626D02*
D03*
Y232382D02*
D03*
X91890Y110551D02*
D03*
X98165Y114114D02*
D03*
X95039Y113701D02*
D03*
X91693Y113425D02*
D03*
X97598Y117244D02*
D03*
X91693Y250433D02*
D03*
X91890Y138504D02*
D03*
X95039Y135354D02*
D03*
X60394Y84252D02*
D03*
M02*
