M48
;Layer_Color=9474304
;FILE_FORMAT=2:5
INCH,TZ
;TYPE=PLATED
T1F00S00C0.00787
T2F00S00C0.03937
;TYPE=NON_PLATED
T3F00S00C0.12598
%
T01
X66378Y58110
X66378Y65118
X66378Y72047
Y79055
X74016Y79055
Y72047
X78138Y73543
X79295Y75504
X79571Y71563
X78256Y69587
X79571Y67626
X78256Y65650
X79571Y63689
X74016Y65118
X74016Y58110
X82504Y56988
X84953Y56996
X86980Y58272
X94854
X96831Y56957
X98791Y58272
X100768Y56957
X102728Y58272
X105681Y57988
X110134Y60740
X110476Y63437
X112228Y62035
X112634Y71524
X110114Y73055
X110106Y78469
X111520Y80350
X112689Y76091
X104791Y73417
X98768Y75173
X96811Y73831
X94606Y73504
X94842Y75917
X95319Y80918
X98772Y81039
X99039Y84941
X99567Y87721
X97323Y89256
X98006Y91486
X102744Y94728
X102717Y97559
X101339Y104252
X101154Y107189
X104264Y107106
X104488Y104252
X104350Y110299
X101350Y110342
X97941Y110197
X95039Y110551
Y113701
X94646Y116457
X97598Y117244
X98165Y114114
X101421Y114114
X104638Y114071
X104095Y116850
X107520Y116535
X107638Y113701
Y110551
X113543
Y113701
X116693
X116504Y110776
X119760Y110925
X119843Y113701
Y116850
Y120000
X116693
Y116850
X113543Y120000
X113543Y125906
X116693
X119843
Y129055
Y132205
X122992
X126142
Y129055
Y135354
X129291
X132835Y140276
X136693Y142520
X137441Y135846
X141417Y135886
X145866Y140591
X150630Y143701
X159606Y143740
X163937Y140827
X168465Y141457
X172441Y141496
X172480Y149291
X176496Y145709
X169764Y155354
X169724Y157638
X173504Y161339
X169488Y169567
X161339Y164331
X158898Y164331
X145630Y164331
X143268Y164370
X133661
X131260
X130157Y161772
X125748Y165315
X128937Y150984
X124764Y145197
X122992Y138504
X116693Y141654
X110591Y138858
X107638Y135354
Y132205
Y129055
Y125906
X104488Y125906
Y129055
Y132205
Y135354
Y138504
X101339
X98189
Y141654
X101339
Y144803
X104646Y146890
X104331Y149331
X104291Y156968
X101811Y157795
X107087Y157756
X106653Y169646
X102559
X82559Y165591
Y152323
X82047Y138504
X82008Y135354
X85197Y130827
X88740Y132205
Y129055
Y125906
X91890
Y129055
Y132205
Y135354
Y138504
X88740
X95039
Y135354
X98189
X101339
Y132205
X98189
Y129055
X101339
Y125906
X98189
X95039
Y122756
X91496
X101024
X104331Y122795
X107598Y122756
X113543Y129055
X116693
X113543Y135354
X109016Y145197
X93268
X95039Y132205
Y129055
X91693Y113425
X91890Y110551
Y107402
Y104252
X88740
Y101102
X91890
X95039
Y104252
Y107402
X98189Y104252
X88346Y97953
X80984Y92669
X81453Y87468
X81921Y84291
X82024Y81035
X85677Y83882
X88711Y83429
X93067Y83366
X90902Y81090
X90492Y74189
X87559Y75524
X86791Y71929
X88968Y70807
X89472Y68594
X86441Y68583
X84622Y73488
X90760Y63567
X92634Y65284
X94835Y65728
X102701Y64311
X102693Y83343
X105236Y86295
X109906Y84181
X113087Y86681
X116689Y86693
X110551Y92087
X113543Y101102
Y107402
X116823Y107019
X120012Y106913
X122992Y104252
X126142
X126535Y101102
X123386
X118465Y97559
X122992Y110551
X126142
X132835Y108780
X136142Y114764
X138465
X142244Y111929
X144803Y114488
X145846Y106280
X143524
X143484Y103917
X145827Y103878
X145945Y98543
X143661
X141417Y98504
X148307Y98583
X151634Y106713
X153937Y108110
X156220Y106693
X158602Y108287
X169862Y106634
X173779Y107008
X176221
Y104606
Y102126
X173484Y97126
X175079Y94744
X173661Y92461
X175059Y90158
X175709Y78976
Y76575
Y74094
X173268Y78976
X169350Y78720
X166752Y75925
X172972Y69095
X174567Y66713
X173150Y64429
X174547Y62126
X184961Y60118
X151929Y57677
X151890Y51260
X142992
X143012Y57697
X143150Y70512
X140905Y70472
X145433Y70512
X147795Y70551
X143425Y79449
X143465Y85866
X152342Y85886
X152323Y79449
X167264Y103957
X178366Y111004
X145591Y124528
X142756
X140236
X137559
X132835Y124528
X126535Y119606
X122992Y120000
Y116850
X88740Y113701
X85591
X84921Y116724
X78110Y113898
X77008Y110354
X73858Y110079
X68779Y110216
Y112461
X66614Y90315
X72047Y84724
X93146Y88205
X66299Y139370
X66890Y145000
X66023Y147677
X69567Y161063
X67756Y167874
X149173Y160276
X149961Y153937
X185039Y154055
X186378Y167323
X57579Y158091
X48327
Y146083
X57579
X62323Y138465
X51417Y125866
X37087Y119646
X37126Y108110
X31063
X31063Y113937
X26984Y97268
X43937Y97205
X47913Y101063
X47972Y103327
X50965Y88760
X53228Y88701
X54449Y91457
X56142Y86260
X57441Y84173
X60394Y84252
X40083Y84413
X40000Y80551
X39803Y75512
X38819Y70000
X39331Y62717
X39016Y52284
X49449Y51929
Y56968
X49488Y61929
X19449
Y56929
Y51929
X19410Y66929
X19449Y71929
Y81929
X19410Y86925
X39106Y150366
X38937Y160847
X28464Y166811
X28465Y174843
X25905Y174882
X40276Y175354
X42697Y174429
X45177Y174429
X56221Y177520
X59606Y177598
X60748Y180039
X57677Y179921
X56260Y182362
X59488Y182402
X40295Y184902
X37638Y188976
X29213Y193543
X25669Y193622
X41831Y198130
X41575Y202047
Y204488
X43976
X46457
X51457Y201752
X53839Y203346
X56122Y201929
X58425Y203327
X57303Y208642
X54744Y208642
X52185Y208681
X59862Y208681
X43819Y209685
X44626Y195531
X50709Y223622
X61890Y237598
X37402Y263661
X70382Y259287
X79043
Y265878
X95886Y261319
X106299Y260236
X106417Y265866
X109370Y255196
X109331Y250905
X113150Y244449
X119449Y240984
X122087Y240945
X123504Y246969
X121063Y248465
X114134Y234626
Y232382
X107874Y231102
X106102Y223858
X103996Y220374
X104055Y218071
X115079Y219213
X115787Y215748
X112598Y222047
X108701Y209803
X108780Y199055
X110039Y190945
X105984Y186299
X102165Y183150
X98425Y181220
X98583Y178307
X98228Y188150
X100236Y190039
X96220Y191890
X89921Y189567
X83346Y189134
X83150Y176535
X68032Y177520
X69410Y191260
X69291Y205906
X83346Y202323
X90236Y201457
X90118Y207402
X97559Y209961
X103150Y204410
X97835Y199055
X115512Y203425
X117913Y203583
X120158Y203598
X121102Y197520
Y195197
X117047Y195748
X120551Y186063
X122874
X124173Y174724
X136535Y179713
X151850Y179783
X144252Y187520
X136831Y195059
X151850Y195169
X165591Y197008
X167520Y194843
Y192441
Y190039
X173504Y191772
X174331Y195039
X171732Y196693
X174528Y204252
X181024Y206339
X181142Y198110
X181339Y189567
X185748Y190276
X185787Y185906
X181142Y179488
X178228Y174331
X180866Y171496
X175906Y183071
X171417Y183031
X167441Y179882
X164331Y172756
Y200315
X165630Y202283
X159016Y208898
X157047Y207598
X155079Y210433
X152244Y210709
X149882
X144724Y213189
X143268Y207598
X133898Y210748
X131457
X129055Y211575
X132283Y213268
X126417Y208740
X137677Y232598
X147913Y231496
X152126Y231417
X150039Y228740
X152126Y226024
X147913
X158504Y234646
X165512Y239961
X167756Y238228
X169606Y240000
X174173Y239213
X176496Y237323
X176535Y241535
X176260Y244843
X173779Y243543
X179842Y242520
X182815Y246634
X180866Y248583
X192953Y246693
X195866
X198898
X197559Y244331
X194882
X203543Y250945
X203583Y255236
X206378Y260236
X206496Y265866
X165472
X165354Y260236
X168425Y255196
X168386Y250905
X144488Y250945
X144528Y255236
X147323Y260236
X147441Y265866
X140433Y246772
X166654Y224921
X171457Y224016
X173071Y220905
X169685Y220945
X169528Y217205
X165394Y217284
X167047Y215039
X163622Y215118
X161181Y217362
X174449Y214173
X181929Y215197
X186890Y220276
X177205Y222165
X170158Y228386
X184488Y231181
X191220Y229095
X198268Y232362
X94803Y229449
X89567Y231339
X88189Y237520
X91693Y239213
X84606Y235748
X78425Y231929
X77244Y241102
X73701Y241063
X68504Y248701
X65709Y234252
X91693Y250433
T02
X70000Y9803
X80000
X90000
X100000
Y19803
X90000
X80000
X70000
X200000Y20000
Y30000
Y40000
Y50000
Y60000
Y70000
Y80000
Y90000
X200197Y105965
Y115964
Y125964
Y135965
Y145965
Y155965
Y165964
X10000Y160000
Y150000
Y140000
Y130000
Y120000
Y110000
Y100000
Y90000
Y70000
Y60000
Y50000
Y40000
Y30000
Y20000
X200197Y175964
Y185965
Y195965
X156378Y252087
Y262087
T03
X30000Y10000
X140000
X10000Y215000
X200000Y210000
M30
